G04 (created by PCBNEW-RS274X (2012-01-19 BZR 3256)-stable) date 18-08-2012 12:03:42*
G01*
G70*
G90*
%MOIN*%
G04 Gerber Fmt 3.4, Leading zero omitted, Abs format*
%FSLAX34Y34*%
G04 APERTURE LIST*
%ADD10C,0.006000*%
%ADD11C,0.015000*%
%ADD12C,0.012000*%
%ADD13C,0.005000*%
G04 APERTURE END LIST*
G54D10*
G54D11*
X50237Y-35394D02*
X50235Y-35360D01*
X50231Y-35326D01*
X50223Y-35293D01*
X50213Y-35260D01*
X50200Y-35228D01*
X50184Y-35198D01*
X50165Y-35169D01*
X50144Y-35141D01*
X50121Y-35116D01*
X50096Y-35093D01*
X50068Y-35072D01*
X50040Y-35053D01*
X50009Y-35037D01*
X49977Y-35024D01*
X49944Y-35014D01*
X49911Y-35006D01*
X49877Y-35002D01*
X49843Y-35000D01*
X49449Y-34606D02*
X49451Y-34640D01*
X49455Y-34674D01*
X49463Y-34707D01*
X49473Y-34740D01*
X49486Y-34772D01*
X49502Y-34802D01*
X49521Y-34831D01*
X49542Y-34859D01*
X49565Y-34884D01*
X49590Y-34907D01*
X49618Y-34928D01*
X49647Y-34947D01*
X49677Y-34963D01*
X49709Y-34976D01*
X49742Y-34986D01*
X49775Y-34994D01*
X49809Y-34998D01*
X49843Y-35000D01*
X49843Y-34212D02*
X49809Y-34214D01*
X49775Y-34218D01*
X49742Y-34226D01*
X49709Y-34236D01*
X49677Y-34249D01*
X49647Y-34265D01*
X49618Y-34284D01*
X49590Y-34305D01*
X49565Y-34328D01*
X49542Y-34353D01*
X49521Y-34381D01*
X49502Y-34410D01*
X49486Y-34440D01*
X49473Y-34472D01*
X49463Y-34505D01*
X49455Y-34538D01*
X49451Y-34572D01*
X49449Y-34606D01*
X49843Y-34212D02*
X49945Y-34207D01*
X50048Y-34194D01*
X50148Y-34171D01*
X50246Y-34140D01*
X50342Y-34101D01*
X50433Y-34053D01*
X50520Y-33998D01*
X50602Y-33935D01*
X50678Y-33866D01*
X50747Y-33790D01*
X50810Y-33708D01*
X50865Y-33621D01*
X50913Y-33530D01*
X50952Y-33434D01*
X50983Y-33336D01*
X51006Y-33236D01*
X51019Y-33133D01*
X51024Y-33031D01*
X44724Y-34961D02*
X44622Y-34966D01*
X44519Y-34979D01*
X44419Y-35002D01*
X44321Y-35033D01*
X44225Y-35072D01*
X44134Y-35120D01*
X44047Y-35175D01*
X43965Y-35238D01*
X43889Y-35307D01*
X43820Y-35383D01*
X43757Y-35465D01*
X43702Y-35552D01*
X43654Y-35643D01*
X43615Y-35739D01*
X43584Y-35837D01*
X43561Y-35937D01*
X43548Y-36040D01*
X43543Y-36142D01*
X44724Y-34961D02*
X44758Y-34959D01*
X44792Y-34955D01*
X44825Y-34947D01*
X44858Y-34937D01*
X44890Y-34924D01*
X44921Y-34908D01*
X44949Y-34889D01*
X44977Y-34868D01*
X45002Y-34845D01*
X45025Y-34820D01*
X45046Y-34792D01*
X45065Y-34763D01*
X45081Y-34733D01*
X45094Y-34701D01*
X45104Y-34668D01*
X45112Y-34635D01*
X45116Y-34601D01*
X45118Y-34567D01*
X45118Y-34567D02*
X45116Y-34533D01*
X45112Y-34499D01*
X45104Y-34466D01*
X45094Y-34433D01*
X45081Y-34401D01*
X45065Y-34371D01*
X45046Y-34342D01*
X45025Y-34314D01*
X45002Y-34289D01*
X44977Y-34266D01*
X44949Y-34245D01*
X44921Y-34226D01*
X44890Y-34210D01*
X44858Y-34197D01*
X44825Y-34187D01*
X44792Y-34179D01*
X44758Y-34175D01*
X44724Y-34173D01*
X43543Y-32992D02*
X43548Y-33094D01*
X43561Y-33197D01*
X43584Y-33297D01*
X43615Y-33395D01*
X43654Y-33491D01*
X43702Y-33582D01*
X43757Y-33669D01*
X43820Y-33751D01*
X43889Y-33827D01*
X43965Y-33896D01*
X44047Y-33959D01*
X44134Y-34014D01*
X44225Y-34062D01*
X44321Y-34101D01*
X44419Y-34132D01*
X44519Y-34155D01*
X44622Y-34168D01*
X44724Y-34173D01*
G54D12*
X49531Y-36663D02*
X49531Y-35863D01*
X49188Y-36663D01*
X49188Y-35863D01*
X48645Y-35863D02*
X48759Y-35863D01*
X48816Y-35901D01*
X48845Y-35939D01*
X48902Y-36053D01*
X48931Y-36206D01*
X48931Y-36510D01*
X48902Y-36587D01*
X48874Y-36625D01*
X48816Y-36663D01*
X48702Y-36663D01*
X48645Y-36625D01*
X48616Y-36587D01*
X48588Y-36510D01*
X48588Y-36320D01*
X48616Y-36244D01*
X48645Y-36206D01*
X48702Y-36168D01*
X48816Y-36168D01*
X48874Y-36206D01*
X48902Y-36244D01*
X48931Y-36320D01*
X48074Y-36129D02*
X48074Y-36663D01*
X48217Y-35825D02*
X48360Y-36396D01*
X47988Y-36396D01*
X47360Y-35863D02*
X47217Y-36663D01*
X47103Y-36091D01*
X46989Y-36663D01*
X46846Y-35863D01*
X46617Y-36663D02*
X46617Y-36129D01*
X46617Y-35863D02*
X46646Y-35901D01*
X46617Y-35939D01*
X46589Y-35901D01*
X46617Y-35863D01*
X46617Y-35939D01*
X46331Y-36663D02*
X46331Y-36129D01*
X46331Y-36282D02*
X46303Y-36206D01*
X46274Y-36168D01*
X46217Y-36129D01*
X46160Y-36129D01*
X45732Y-36625D02*
X45789Y-36663D01*
X45903Y-36663D01*
X45960Y-36625D01*
X45989Y-36549D01*
X45989Y-36244D01*
X45960Y-36168D01*
X45903Y-36129D01*
X45789Y-36129D01*
X45732Y-36168D01*
X45703Y-36244D01*
X45703Y-36320D01*
X45989Y-36396D01*
X45360Y-36663D02*
X45418Y-36625D01*
X45446Y-36549D01*
X45446Y-35863D01*
X44904Y-36625D02*
X44961Y-36663D01*
X45075Y-36663D01*
X45132Y-36625D01*
X45161Y-36549D01*
X45161Y-36244D01*
X45132Y-36168D01*
X45075Y-36129D01*
X44961Y-36129D01*
X44904Y-36168D01*
X44875Y-36244D01*
X44875Y-36320D01*
X45161Y-36396D01*
X44647Y-36625D02*
X44590Y-36663D01*
X44475Y-36663D01*
X44418Y-36625D01*
X44390Y-36549D01*
X44390Y-36510D01*
X44418Y-36434D01*
X44475Y-36396D01*
X44561Y-36396D01*
X44618Y-36358D01*
X44647Y-36282D01*
X44647Y-36244D01*
X44618Y-36168D01*
X44561Y-36129D01*
X44475Y-36129D01*
X44418Y-36168D01*
X44161Y-36625D02*
X44104Y-36663D01*
X43989Y-36663D01*
X43932Y-36625D01*
X43904Y-36549D01*
X43904Y-36510D01*
X43932Y-36434D01*
X43989Y-36396D01*
X44075Y-36396D01*
X44132Y-36358D01*
X44161Y-36282D01*
X44161Y-36244D01*
X44132Y-36168D01*
X44075Y-36129D01*
X43989Y-36129D01*
X43932Y-36168D01*
X45172Y-37477D02*
X45286Y-37477D01*
X45344Y-37515D01*
X45401Y-37591D01*
X45429Y-37743D01*
X45429Y-38010D01*
X45401Y-38163D01*
X45344Y-38239D01*
X45286Y-38277D01*
X45172Y-38277D01*
X45115Y-38239D01*
X45058Y-38163D01*
X45029Y-38010D01*
X45029Y-37743D01*
X45058Y-37591D01*
X45115Y-37515D01*
X45172Y-37477D01*
X45658Y-38239D02*
X45744Y-38277D01*
X45887Y-38277D01*
X45944Y-38239D01*
X45973Y-38201D01*
X46001Y-38124D01*
X46001Y-38048D01*
X45973Y-37972D01*
X45944Y-37934D01*
X45887Y-37896D01*
X45773Y-37858D01*
X45715Y-37820D01*
X45687Y-37782D01*
X45658Y-37705D01*
X45658Y-37629D01*
X45687Y-37553D01*
X45715Y-37515D01*
X45773Y-37477D01*
X45915Y-37477D01*
X46001Y-37515D01*
X46229Y-38048D02*
X46515Y-38048D01*
X46172Y-38277D02*
X46372Y-37477D01*
X46572Y-38277D01*
X46743Y-38048D02*
X47029Y-38048D01*
X46686Y-38277D02*
X46886Y-37477D01*
X47086Y-38277D01*
X47286Y-38201D02*
X47314Y-38239D01*
X47286Y-38277D01*
X47257Y-38239D01*
X47286Y-38201D01*
X47286Y-38277D01*
X47572Y-38277D02*
X47572Y-37477D01*
X47715Y-37477D01*
X47800Y-37515D01*
X47858Y-37591D01*
X47886Y-37667D01*
X47915Y-37820D01*
X47915Y-37934D01*
X47886Y-38086D01*
X47858Y-38163D01*
X47800Y-38239D01*
X47715Y-38277D01*
X47572Y-38277D01*
X48172Y-38277D02*
X48172Y-37477D01*
X48515Y-38277D02*
X48258Y-37820D01*
X48515Y-37477D02*
X48172Y-37934D01*
G54D11*
X51024Y-33031D02*
X54449Y-22382D01*
X43543Y-32992D02*
X43543Y-22382D01*
X43543Y-22382D02*
X54449Y-22382D01*
X47878Y-34587D02*
X47859Y-34778D01*
X47803Y-34963D01*
X47712Y-35133D01*
X47591Y-35283D01*
X47442Y-35406D01*
X47272Y-35497D01*
X47088Y-35554D01*
X46896Y-35574D01*
X46705Y-35557D01*
X46520Y-35503D01*
X46350Y-35413D01*
X46199Y-35292D01*
X46075Y-35145D01*
X45982Y-34976D01*
X45924Y-34792D01*
X45903Y-34600D01*
X45919Y-34409D01*
X45972Y-34224D01*
X46060Y-34052D01*
X46180Y-33901D01*
X46327Y-33776D01*
X46495Y-33682D01*
X46678Y-33623D01*
X46870Y-33600D01*
X47061Y-33615D01*
X47247Y-33666D01*
X47419Y-33753D01*
X47571Y-33872D01*
X47697Y-34018D01*
X47792Y-34186D01*
X47853Y-34369D01*
X47877Y-34560D01*
X47878Y-34587D01*
X50236Y-35394D02*
X49055Y-39311D01*
X43543Y-38917D02*
X43543Y-36102D01*
X43543Y-38917D02*
X49055Y-39311D01*
X74112Y-52578D02*
X74092Y-52772D01*
X74036Y-52960D01*
X73944Y-53133D01*
X73820Y-53284D01*
X73669Y-53409D01*
X73497Y-53502D01*
X73310Y-53560D01*
X73116Y-53580D01*
X72922Y-53563D01*
X72734Y-53507D01*
X72560Y-53417D01*
X72408Y-53294D01*
X72282Y-53144D01*
X72188Y-52973D01*
X72128Y-52786D01*
X72107Y-52592D01*
X72123Y-52397D01*
X72177Y-52209D01*
X72266Y-52035D01*
X72388Y-51882D01*
X72537Y-51755D01*
X72708Y-51659D01*
X72894Y-51599D01*
X73088Y-51576D01*
X73283Y-51591D01*
X73471Y-51643D01*
X73646Y-51732D01*
X73800Y-51852D01*
X73928Y-52000D01*
X74025Y-52171D01*
X74087Y-52356D01*
X74111Y-52550D01*
X74112Y-52578D01*
X68778Y-52184D02*
X67597Y-38011D01*
X69566Y-52184D02*
X68778Y-52184D01*
X69566Y-52971D02*
X69566Y-52184D01*
X68778Y-52971D02*
X69566Y-52971D01*
X70353Y-59664D02*
X68778Y-52971D01*
X76653Y-59664D02*
X70353Y-59664D01*
X78227Y-52971D02*
X76653Y-59664D01*
X77440Y-52971D02*
X78227Y-52971D01*
X77440Y-52184D02*
X77440Y-52971D01*
X78227Y-52184D02*
X77440Y-52184D01*
X79015Y-41948D02*
X78227Y-52184D01*
X75471Y-41948D02*
X79015Y-41948D01*
X75471Y-38011D02*
X75471Y-41948D01*
X67597Y-38011D02*
X75471Y-38011D01*
G54D13*
X46194Y-23888D02*
X46244Y-23888D01*
X46244Y-23888D02*
X46244Y-25988D01*
X44744Y-25988D02*
X44744Y-23888D01*
X44744Y-23888D02*
X46194Y-23888D01*
X45294Y-23888D02*
X45294Y-24088D01*
X45294Y-24088D02*
X45694Y-24088D01*
X45694Y-24088D02*
X45694Y-23888D01*
X44744Y-25988D02*
X46244Y-25988D01*
X45935Y-22928D02*
X45934Y-22937D01*
X45931Y-22947D01*
X45926Y-22955D01*
X45920Y-22963D01*
X45912Y-22969D01*
X45904Y-22974D01*
X45895Y-22976D01*
X45885Y-22977D01*
X45876Y-22977D01*
X45867Y-22974D01*
X45858Y-22969D01*
X45851Y-22963D01*
X45844Y-22956D01*
X45840Y-22947D01*
X45837Y-22938D01*
X45836Y-22928D01*
X45836Y-22919D01*
X45839Y-22910D01*
X45843Y-22901D01*
X45850Y-22894D01*
X45857Y-22887D01*
X45865Y-22883D01*
X45875Y-22880D01*
X45884Y-22879D01*
X45893Y-22879D01*
X45903Y-22882D01*
X45911Y-22886D01*
X45919Y-22892D01*
X45925Y-22900D01*
X45930Y-22908D01*
X45933Y-22917D01*
X45934Y-22927D01*
X45935Y-22928D01*
X46335Y-22928D02*
X45935Y-22928D01*
X45935Y-22928D02*
X45935Y-23528D01*
X45935Y-23528D02*
X46335Y-23528D01*
X46735Y-23528D02*
X47135Y-23528D01*
X47135Y-23528D02*
X47135Y-22928D01*
X47135Y-22928D02*
X46735Y-22928D01*
X48697Y-31082D02*
X48696Y-31091D01*
X48693Y-31101D01*
X48688Y-31109D01*
X48682Y-31117D01*
X48674Y-31123D01*
X48666Y-31128D01*
X48657Y-31130D01*
X48647Y-31131D01*
X48638Y-31131D01*
X48629Y-31128D01*
X48620Y-31123D01*
X48613Y-31117D01*
X48606Y-31110D01*
X48602Y-31101D01*
X48599Y-31092D01*
X48598Y-31082D01*
X48598Y-31073D01*
X48601Y-31064D01*
X48605Y-31055D01*
X48612Y-31048D01*
X48619Y-31041D01*
X48627Y-31037D01*
X48637Y-31034D01*
X48646Y-31033D01*
X48655Y-31033D01*
X48665Y-31036D01*
X48673Y-31040D01*
X48681Y-31046D01*
X48687Y-31054D01*
X48692Y-31062D01*
X48695Y-31071D01*
X48696Y-31081D01*
X48697Y-31082D01*
X48647Y-31532D02*
X48647Y-31132D01*
X48647Y-31132D02*
X48047Y-31132D01*
X48047Y-31132D02*
X48047Y-31532D01*
X48047Y-31932D02*
X48047Y-32332D01*
X48047Y-32332D02*
X48647Y-32332D01*
X48647Y-32332D02*
X48647Y-31932D01*
X47791Y-32145D02*
X47790Y-32154D01*
X47787Y-32164D01*
X47782Y-32172D01*
X47776Y-32180D01*
X47768Y-32186D01*
X47760Y-32191D01*
X47751Y-32193D01*
X47741Y-32194D01*
X47732Y-32194D01*
X47723Y-32191D01*
X47714Y-32186D01*
X47707Y-32180D01*
X47700Y-32173D01*
X47696Y-32164D01*
X47693Y-32155D01*
X47692Y-32145D01*
X47692Y-32136D01*
X47695Y-32127D01*
X47699Y-32118D01*
X47706Y-32111D01*
X47713Y-32104D01*
X47721Y-32100D01*
X47731Y-32097D01*
X47740Y-32096D01*
X47749Y-32096D01*
X47759Y-32099D01*
X47767Y-32103D01*
X47775Y-32109D01*
X47781Y-32117D01*
X47786Y-32125D01*
X47789Y-32134D01*
X47790Y-32144D01*
X47791Y-32145D01*
X47741Y-32595D02*
X47741Y-32195D01*
X47741Y-32195D02*
X47141Y-32195D01*
X47141Y-32195D02*
X47141Y-32595D01*
X47141Y-32995D02*
X47141Y-33395D01*
X47141Y-33395D02*
X47741Y-33395D01*
X47741Y-33395D02*
X47741Y-32995D01*
X45411Y-26178D02*
X45410Y-26187D01*
X45407Y-26197D01*
X45402Y-26205D01*
X45396Y-26213D01*
X45388Y-26219D01*
X45380Y-26224D01*
X45371Y-26226D01*
X45361Y-26227D01*
X45352Y-26227D01*
X45343Y-26224D01*
X45334Y-26219D01*
X45327Y-26213D01*
X45320Y-26206D01*
X45316Y-26197D01*
X45313Y-26188D01*
X45312Y-26178D01*
X45312Y-26169D01*
X45315Y-26160D01*
X45319Y-26151D01*
X45326Y-26144D01*
X45333Y-26137D01*
X45341Y-26133D01*
X45351Y-26130D01*
X45360Y-26129D01*
X45369Y-26129D01*
X45379Y-26132D01*
X45387Y-26136D01*
X45395Y-26142D01*
X45401Y-26150D01*
X45406Y-26158D01*
X45409Y-26167D01*
X45410Y-26177D01*
X45411Y-26178D01*
X45361Y-26628D02*
X45361Y-26228D01*
X45361Y-26228D02*
X44761Y-26228D01*
X44761Y-26228D02*
X44761Y-26628D01*
X44761Y-27028D02*
X44761Y-27428D01*
X44761Y-27428D02*
X45361Y-27428D01*
X45361Y-27428D02*
X45361Y-27028D01*
X46964Y-32145D02*
X46963Y-32154D01*
X46960Y-32164D01*
X46955Y-32172D01*
X46949Y-32180D01*
X46941Y-32186D01*
X46933Y-32191D01*
X46924Y-32193D01*
X46914Y-32194D01*
X46905Y-32194D01*
X46896Y-32191D01*
X46887Y-32186D01*
X46880Y-32180D01*
X46873Y-32173D01*
X46869Y-32164D01*
X46866Y-32155D01*
X46865Y-32145D01*
X46865Y-32136D01*
X46868Y-32127D01*
X46872Y-32118D01*
X46879Y-32111D01*
X46886Y-32104D01*
X46894Y-32100D01*
X46904Y-32097D01*
X46913Y-32096D01*
X46922Y-32096D01*
X46932Y-32099D01*
X46940Y-32103D01*
X46948Y-32109D01*
X46954Y-32117D01*
X46959Y-32125D01*
X46962Y-32134D01*
X46963Y-32144D01*
X46964Y-32145D01*
X46914Y-32595D02*
X46914Y-32195D01*
X46914Y-32195D02*
X46314Y-32195D01*
X46314Y-32195D02*
X46314Y-32595D01*
X46314Y-32995D02*
X46314Y-33395D01*
X46314Y-33395D02*
X46914Y-33395D01*
X46914Y-33395D02*
X46914Y-32995D01*
X46552Y-26178D02*
X46551Y-26187D01*
X46548Y-26197D01*
X46543Y-26205D01*
X46537Y-26213D01*
X46529Y-26219D01*
X46521Y-26224D01*
X46512Y-26226D01*
X46502Y-26227D01*
X46493Y-26227D01*
X46484Y-26224D01*
X46475Y-26219D01*
X46468Y-26213D01*
X46461Y-26206D01*
X46457Y-26197D01*
X46454Y-26188D01*
X46453Y-26178D01*
X46453Y-26169D01*
X46456Y-26160D01*
X46460Y-26151D01*
X46467Y-26144D01*
X46474Y-26137D01*
X46482Y-26133D01*
X46492Y-26130D01*
X46501Y-26129D01*
X46510Y-26129D01*
X46520Y-26132D01*
X46528Y-26136D01*
X46536Y-26142D01*
X46542Y-26150D01*
X46547Y-26158D01*
X46550Y-26167D01*
X46551Y-26177D01*
X46552Y-26178D01*
X46502Y-26628D02*
X46502Y-26228D01*
X46502Y-26228D02*
X45902Y-26228D01*
X45902Y-26228D02*
X45902Y-26628D01*
X45902Y-27028D02*
X45902Y-27428D01*
X45902Y-27428D02*
X46502Y-27428D01*
X46502Y-27428D02*
X46502Y-27028D01*
X47787Y-29040D02*
X47786Y-29049D01*
X47783Y-29059D01*
X47778Y-29067D01*
X47772Y-29075D01*
X47764Y-29081D01*
X47756Y-29086D01*
X47747Y-29088D01*
X47737Y-29089D01*
X47728Y-29089D01*
X47719Y-29086D01*
X47710Y-29081D01*
X47703Y-29075D01*
X47696Y-29068D01*
X47692Y-29059D01*
X47689Y-29050D01*
X47688Y-29040D01*
X47688Y-29031D01*
X47691Y-29022D01*
X47695Y-29013D01*
X47702Y-29006D01*
X47709Y-28999D01*
X47717Y-28995D01*
X47727Y-28992D01*
X47736Y-28991D01*
X47745Y-28991D01*
X47755Y-28994D01*
X47763Y-28998D01*
X47771Y-29004D01*
X47777Y-29012D01*
X47782Y-29020D01*
X47785Y-29029D01*
X47786Y-29039D01*
X47787Y-29040D01*
X47287Y-29040D02*
X47687Y-29040D01*
X47687Y-29040D02*
X47687Y-28440D01*
X47687Y-28440D02*
X47287Y-28440D01*
X46887Y-28440D02*
X46487Y-28440D01*
X46487Y-28440D02*
X46487Y-29040D01*
X46487Y-29040D02*
X46887Y-29040D01*
X45577Y-32697D02*
X45576Y-32706D01*
X45573Y-32716D01*
X45568Y-32724D01*
X45562Y-32732D01*
X45554Y-32738D01*
X45546Y-32743D01*
X45537Y-32745D01*
X45527Y-32746D01*
X45518Y-32746D01*
X45509Y-32743D01*
X45500Y-32738D01*
X45493Y-32732D01*
X45486Y-32725D01*
X45482Y-32716D01*
X45479Y-32707D01*
X45478Y-32697D01*
X45478Y-32688D01*
X45481Y-32679D01*
X45485Y-32670D01*
X45492Y-32663D01*
X45499Y-32656D01*
X45507Y-32652D01*
X45517Y-32649D01*
X45526Y-32648D01*
X45535Y-32648D01*
X45545Y-32651D01*
X45553Y-32655D01*
X45561Y-32661D01*
X45567Y-32669D01*
X45572Y-32677D01*
X45575Y-32686D01*
X45576Y-32696D01*
X45577Y-32697D01*
X45527Y-32247D02*
X45527Y-32647D01*
X45527Y-32647D02*
X46127Y-32647D01*
X46127Y-32647D02*
X46127Y-32247D01*
X46127Y-31847D02*
X46127Y-31447D01*
X46127Y-31447D02*
X45527Y-31447D01*
X45527Y-31447D02*
X45527Y-31847D01*
G54D10*
X47548Y-30872D02*
X47546Y-30891D01*
X47540Y-30910D01*
X47531Y-30927D01*
X47518Y-30942D01*
X47503Y-30954D01*
X47486Y-30964D01*
X47468Y-30969D01*
X47448Y-30971D01*
X47430Y-30970D01*
X47411Y-30964D01*
X47394Y-30955D01*
X47379Y-30943D01*
X47366Y-30928D01*
X47357Y-30911D01*
X47351Y-30892D01*
X47349Y-30873D01*
X47350Y-30854D01*
X47356Y-30836D01*
X47364Y-30818D01*
X47377Y-30803D01*
X47391Y-30790D01*
X47408Y-30781D01*
X47427Y-30775D01*
X47446Y-30773D01*
X47465Y-30774D01*
X47484Y-30779D01*
X47501Y-30788D01*
X47516Y-30800D01*
X47529Y-30815D01*
X47539Y-30832D01*
X47545Y-30850D01*
X47547Y-30870D01*
X47548Y-30872D01*
X46448Y-31072D02*
X47648Y-31072D01*
X47648Y-31072D02*
X47648Y-29872D01*
X47648Y-29872D02*
X46448Y-29872D01*
X46448Y-29872D02*
X46448Y-31072D01*
X45815Y-24260D02*
X45815Y-24624D01*
X45793Y-24667D01*
X45772Y-24689D01*
X45729Y-24710D01*
X45643Y-24710D01*
X45601Y-24689D01*
X45579Y-24667D01*
X45558Y-24624D01*
X45558Y-24260D01*
X45108Y-24710D02*
X45365Y-24710D01*
X45237Y-24710D02*
X45237Y-24260D01*
X45280Y-24324D01*
X45322Y-24367D01*
X45365Y-24389D01*
G54D13*
X47011Y-22778D02*
X47094Y-22659D01*
X47153Y-22778D02*
X47153Y-22528D01*
X47058Y-22528D01*
X47034Y-22540D01*
X47023Y-22552D01*
X47011Y-22576D01*
X47011Y-22612D01*
X47023Y-22635D01*
X47034Y-22647D01*
X47058Y-22659D01*
X47153Y-22659D01*
X46773Y-22778D02*
X46915Y-22778D01*
X46844Y-22778D02*
X46844Y-22528D01*
X46868Y-22564D01*
X46892Y-22588D01*
X46915Y-22600D01*
X48423Y-32675D02*
X48435Y-32663D01*
X48447Y-32628D01*
X48447Y-32604D01*
X48435Y-32568D01*
X48411Y-32544D01*
X48388Y-32533D01*
X48340Y-32521D01*
X48304Y-32521D01*
X48257Y-32533D01*
X48233Y-32544D01*
X48209Y-32568D01*
X48197Y-32604D01*
X48197Y-32628D01*
X48209Y-32663D01*
X48221Y-32675D01*
X48304Y-32818D02*
X48292Y-32794D01*
X48281Y-32783D01*
X48257Y-32771D01*
X48245Y-32771D01*
X48221Y-32783D01*
X48209Y-32794D01*
X48197Y-32818D01*
X48197Y-32866D01*
X48209Y-32890D01*
X48221Y-32902D01*
X48245Y-32913D01*
X48257Y-32913D01*
X48281Y-32902D01*
X48292Y-32890D01*
X48304Y-32866D01*
X48304Y-32818D01*
X48316Y-32794D01*
X48328Y-32783D01*
X48352Y-32771D01*
X48400Y-32771D01*
X48423Y-32783D01*
X48435Y-32794D01*
X48447Y-32818D01*
X48447Y-32866D01*
X48435Y-32890D01*
X48423Y-32902D01*
X48400Y-32913D01*
X48352Y-32913D01*
X48328Y-32902D01*
X48316Y-32890D01*
X48304Y-32866D01*
X46889Y-33423D02*
X46901Y-33411D01*
X46913Y-33376D01*
X46913Y-33352D01*
X46901Y-33316D01*
X46877Y-33292D01*
X46854Y-33281D01*
X46806Y-33269D01*
X46770Y-33269D01*
X46723Y-33281D01*
X46699Y-33292D01*
X46675Y-33316D01*
X46663Y-33352D01*
X46663Y-33376D01*
X46675Y-33411D01*
X46687Y-33423D01*
X46663Y-33507D02*
X46663Y-33673D01*
X46913Y-33566D01*
X44526Y-26769D02*
X44538Y-26757D01*
X44550Y-26722D01*
X44550Y-26698D01*
X44538Y-26662D01*
X44514Y-26638D01*
X44491Y-26627D01*
X44443Y-26615D01*
X44407Y-26615D01*
X44360Y-26627D01*
X44336Y-26638D01*
X44312Y-26662D01*
X44300Y-26698D01*
X44300Y-26722D01*
X44312Y-26757D01*
X44324Y-26769D01*
X44300Y-26996D02*
X44300Y-26877D01*
X44419Y-26865D01*
X44407Y-26877D01*
X44395Y-26900D01*
X44395Y-26960D01*
X44407Y-26984D01*
X44419Y-26996D01*
X44443Y-27007D01*
X44503Y-27007D01*
X44526Y-26996D01*
X44538Y-26984D01*
X44550Y-26960D01*
X44550Y-26900D01*
X44538Y-26877D01*
X44526Y-26865D01*
X47282Y-33147D02*
X47294Y-33135D01*
X47306Y-33100D01*
X47306Y-33076D01*
X47294Y-33040D01*
X47270Y-33016D01*
X47247Y-33005D01*
X47199Y-32993D01*
X47163Y-32993D01*
X47116Y-33005D01*
X47092Y-33016D01*
X47068Y-33040D01*
X47056Y-33076D01*
X47056Y-33100D01*
X47068Y-33135D01*
X47080Y-33147D01*
X47306Y-33266D02*
X47306Y-33314D01*
X47294Y-33338D01*
X47282Y-33350D01*
X47247Y-33374D01*
X47199Y-33385D01*
X47104Y-33385D01*
X47080Y-33374D01*
X47068Y-33362D01*
X47056Y-33338D01*
X47056Y-33290D01*
X47068Y-33266D01*
X47080Y-33255D01*
X47104Y-33243D01*
X47163Y-33243D01*
X47187Y-33255D01*
X47199Y-33266D01*
X47211Y-33290D01*
X47211Y-33338D01*
X47199Y-33362D01*
X47187Y-33374D01*
X47163Y-33385D01*
X46967Y-26650D02*
X46979Y-26638D01*
X46991Y-26603D01*
X46991Y-26579D01*
X46979Y-26543D01*
X46955Y-26519D01*
X46932Y-26508D01*
X46884Y-26496D01*
X46848Y-26496D01*
X46801Y-26508D01*
X46777Y-26519D01*
X46753Y-26543D01*
X46741Y-26579D01*
X46741Y-26603D01*
X46753Y-26638D01*
X46765Y-26650D01*
X46991Y-26888D02*
X46991Y-26746D01*
X46991Y-26817D02*
X46741Y-26817D01*
X46777Y-26793D01*
X46801Y-26769D01*
X46813Y-26746D01*
X46741Y-27043D02*
X46741Y-27067D01*
X46753Y-27091D01*
X46765Y-27103D01*
X46789Y-27115D01*
X46836Y-27126D01*
X46896Y-27126D01*
X46944Y-27115D01*
X46967Y-27103D01*
X46979Y-27091D01*
X46991Y-27067D01*
X46991Y-27043D01*
X46979Y-27019D01*
X46967Y-27007D01*
X46944Y-26996D01*
X46896Y-26984D01*
X46836Y-26984D01*
X46789Y-26996D01*
X46765Y-27007D01*
X46753Y-27019D01*
X46741Y-27043D01*
X48148Y-28539D02*
X48160Y-28527D01*
X48172Y-28492D01*
X48172Y-28468D01*
X48160Y-28432D01*
X48136Y-28408D01*
X48113Y-28397D01*
X48065Y-28385D01*
X48029Y-28385D01*
X47982Y-28397D01*
X47958Y-28408D01*
X47934Y-28432D01*
X47922Y-28468D01*
X47922Y-28492D01*
X47934Y-28527D01*
X47946Y-28539D01*
X48172Y-28777D02*
X48172Y-28635D01*
X48172Y-28706D02*
X47922Y-28706D01*
X47958Y-28682D01*
X47982Y-28658D01*
X47994Y-28635D01*
X48172Y-29015D02*
X48172Y-28873D01*
X48172Y-28944D02*
X47922Y-28944D01*
X47958Y-28920D01*
X47982Y-28896D01*
X47994Y-28873D01*
X46558Y-32438D02*
X46439Y-32355D01*
X46558Y-32296D02*
X46308Y-32296D01*
X46308Y-32391D01*
X46320Y-32415D01*
X46332Y-32426D01*
X46356Y-32438D01*
X46392Y-32438D01*
X46415Y-32426D01*
X46427Y-32415D01*
X46439Y-32391D01*
X46439Y-32296D01*
X46392Y-32653D02*
X46558Y-32653D01*
X46296Y-32593D02*
X46475Y-32534D01*
X46475Y-32688D01*
G54D10*
X46888Y-30088D02*
X47212Y-30088D01*
X47250Y-30107D01*
X47269Y-30126D01*
X47288Y-30164D01*
X47288Y-30241D01*
X47269Y-30279D01*
X47250Y-30298D01*
X47212Y-30317D01*
X46888Y-30317D01*
X46926Y-30488D02*
X46907Y-30507D01*
X46888Y-30545D01*
X46888Y-30641D01*
X46907Y-30679D01*
X46926Y-30698D01*
X46964Y-30717D01*
X47002Y-30717D01*
X47059Y-30698D01*
X47288Y-30469D01*
X47288Y-30717D01*
M02*
