M48
;DRILL file {Pcbnew (2012-01-19 BZR 3256)-stable} date 18-08-2012 12:03:52
;FORMAT={3:3/ absolute / metric / suppress leading zeros}
FMAT,2
METRIC,TZ
T1C0.635
T2C1.016
%
G90
G05
M71
T1
X111999Y-74600
X113701Y-71199
X114600Y-61501
X118199Y-94399
X119101Y-77399
X120599Y-67600
X122799Y-68900
X122799Y-70899
X124099Y-67399
X124201Y-77099
X125100Y-79200
T2
X112530Y-58900
X115070Y-58900
X121399Y-58931
X121399Y-61471
X124320Y-58931
X124320Y-61471
X126860Y-58931
X126860Y-61471
X126901Y-67361
X126901Y-69901
X126901Y-72441
X129400Y-58931
X129400Y-61471
X130401Y-67361
X130401Y-69901
X130401Y-72441
X131940Y-58931
X131940Y-61471
X134480Y-58931
X134480Y-61471
T0
M30
