G04 (created by PCBNEW-RS274X (2012-01-19 BZR 3256)-stable) date 21-08-2012 09:46:15*
G01*
G70*
G90*
%MOIN*%
G04 Gerber Fmt 3.4, Leading zero omitted, Abs format*
%FSLAX34Y34*%
G04 APERTURE LIST*
%ADD10C,0.006000*%
%ADD11C,0.015000*%
%ADD12R,0.065000X0.040000*%
%ADD13R,0.055000X0.075000*%
%ADD14R,0.075000X0.055000*%
%ADD15R,0.036000X0.070000*%
%ADD16R,0.080000X0.080000*%
%ADD17C,0.080000*%
G04 APERTURE END LIST*
G54D10*
G54D11*
X50237Y-35394D02*
X50235Y-35360D01*
X50231Y-35326D01*
X50223Y-35293D01*
X50213Y-35260D01*
X50200Y-35228D01*
X50184Y-35198D01*
X50165Y-35169D01*
X50144Y-35141D01*
X50121Y-35116D01*
X50096Y-35093D01*
X50068Y-35072D01*
X50040Y-35053D01*
X50009Y-35037D01*
X49977Y-35024D01*
X49944Y-35014D01*
X49911Y-35006D01*
X49877Y-35002D01*
X49843Y-35000D01*
X49449Y-34606D02*
X49451Y-34640D01*
X49455Y-34674D01*
X49463Y-34707D01*
X49473Y-34740D01*
X49486Y-34772D01*
X49502Y-34802D01*
X49521Y-34831D01*
X49542Y-34859D01*
X49565Y-34884D01*
X49590Y-34907D01*
X49618Y-34928D01*
X49647Y-34947D01*
X49677Y-34963D01*
X49709Y-34976D01*
X49742Y-34986D01*
X49775Y-34994D01*
X49809Y-34998D01*
X49843Y-35000D01*
X49843Y-34212D02*
X49809Y-34214D01*
X49775Y-34218D01*
X49742Y-34226D01*
X49709Y-34236D01*
X49677Y-34249D01*
X49647Y-34265D01*
X49618Y-34284D01*
X49590Y-34305D01*
X49565Y-34328D01*
X49542Y-34353D01*
X49521Y-34381D01*
X49502Y-34410D01*
X49486Y-34440D01*
X49473Y-34472D01*
X49463Y-34505D01*
X49455Y-34538D01*
X49451Y-34572D01*
X49449Y-34606D01*
X49843Y-34212D02*
X49945Y-34207D01*
X50048Y-34194D01*
X50148Y-34171D01*
X50246Y-34140D01*
X50342Y-34101D01*
X50433Y-34053D01*
X50520Y-33998D01*
X50602Y-33935D01*
X50678Y-33866D01*
X50747Y-33790D01*
X50810Y-33708D01*
X50865Y-33621D01*
X50913Y-33530D01*
X50952Y-33434D01*
X50983Y-33336D01*
X51006Y-33236D01*
X51019Y-33133D01*
X51024Y-33031D01*
X44724Y-34961D02*
X44622Y-34966D01*
X44519Y-34979D01*
X44419Y-35002D01*
X44321Y-35033D01*
X44225Y-35072D01*
X44134Y-35120D01*
X44047Y-35175D01*
X43965Y-35238D01*
X43889Y-35307D01*
X43820Y-35383D01*
X43757Y-35465D01*
X43702Y-35552D01*
X43654Y-35643D01*
X43615Y-35739D01*
X43584Y-35837D01*
X43561Y-35937D01*
X43548Y-36040D01*
X43543Y-36142D01*
X44724Y-34961D02*
X44758Y-34959D01*
X44792Y-34955D01*
X44825Y-34947D01*
X44858Y-34937D01*
X44890Y-34924D01*
X44921Y-34908D01*
X44949Y-34889D01*
X44977Y-34868D01*
X45002Y-34845D01*
X45025Y-34820D01*
X45046Y-34792D01*
X45065Y-34763D01*
X45081Y-34733D01*
X45094Y-34701D01*
X45104Y-34668D01*
X45112Y-34635D01*
X45116Y-34601D01*
X45118Y-34567D01*
X45118Y-34567D02*
X45116Y-34533D01*
X45112Y-34499D01*
X45104Y-34466D01*
X45094Y-34433D01*
X45081Y-34401D01*
X45065Y-34371D01*
X45046Y-34342D01*
X45025Y-34314D01*
X45002Y-34289D01*
X44977Y-34266D01*
X44949Y-34245D01*
X44921Y-34226D01*
X44890Y-34210D01*
X44858Y-34197D01*
X44825Y-34187D01*
X44792Y-34179D01*
X44758Y-34175D01*
X44724Y-34173D01*
X43543Y-32992D02*
X43548Y-33094D01*
X43561Y-33197D01*
X43584Y-33297D01*
X43615Y-33395D01*
X43654Y-33491D01*
X43702Y-33582D01*
X43757Y-33669D01*
X43820Y-33751D01*
X43889Y-33827D01*
X43965Y-33896D01*
X44047Y-33959D01*
X44134Y-34014D01*
X44225Y-34062D01*
X44321Y-34101D01*
X44419Y-34132D01*
X44519Y-34155D01*
X44622Y-34168D01*
X44724Y-34173D01*
X51024Y-33031D02*
X54449Y-22382D01*
X43543Y-32992D02*
X43543Y-22382D01*
X43543Y-22382D02*
X54449Y-22382D01*
X47878Y-34587D02*
X47859Y-34778D01*
X47803Y-34963D01*
X47712Y-35133D01*
X47591Y-35283D01*
X47442Y-35406D01*
X47272Y-35497D01*
X47088Y-35554D01*
X46896Y-35574D01*
X46705Y-35557D01*
X46520Y-35503D01*
X46350Y-35413D01*
X46199Y-35292D01*
X46075Y-35145D01*
X45982Y-34976D01*
X45924Y-34792D01*
X45903Y-34600D01*
X45919Y-34409D01*
X45972Y-34224D01*
X46060Y-34052D01*
X46180Y-33901D01*
X46327Y-33776D01*
X46495Y-33682D01*
X46678Y-33623D01*
X46870Y-33600D01*
X47061Y-33615D01*
X47247Y-33666D01*
X47419Y-33753D01*
X47571Y-33872D01*
X47697Y-34018D01*
X47792Y-34186D01*
X47853Y-34369D01*
X47877Y-34560D01*
X47878Y-34587D01*
X50236Y-35394D02*
X49055Y-39311D01*
X43543Y-38917D02*
X43543Y-36102D01*
X43543Y-38917D02*
X49055Y-39311D01*
G54D12*
X44444Y-24188D03*
X46544Y-24188D03*
X44444Y-24688D03*
X44444Y-25188D03*
X44444Y-25688D03*
X46544Y-24688D03*
X46544Y-25188D03*
X46544Y-25688D03*
G54D13*
X46160Y-23228D03*
X46910Y-23228D03*
G54D14*
X48347Y-31357D03*
X48347Y-32107D03*
X47441Y-32420D03*
X47441Y-33170D03*
X45061Y-26453D03*
X45061Y-27203D03*
X46614Y-32420D03*
X46614Y-33170D03*
X46202Y-26453D03*
X46202Y-27203D03*
G54D13*
X47462Y-28740D03*
X46712Y-28740D03*
G54D14*
X45827Y-32422D03*
X45827Y-31672D03*
G54D15*
X47433Y-31347D03*
X47178Y-31347D03*
X46918Y-31347D03*
X46663Y-31347D03*
X46663Y-29597D03*
X46918Y-29597D03*
X47178Y-29597D03*
X47433Y-29597D03*
G54D16*
X44303Y-23189D03*
G54D17*
X45303Y-23189D03*
G54D16*
X51339Y-26520D03*
G54D17*
X51339Y-27520D03*
X51339Y-28520D03*
G54D16*
X49961Y-28520D03*
G54D17*
X49961Y-27520D03*
X49961Y-26520D03*
G54D16*
X47795Y-24201D03*
G54D17*
X47795Y-23201D03*
G54D16*
X48945Y-24201D03*
G54D17*
X48945Y-23201D03*
X49945Y-24201D03*
X49945Y-23201D03*
X50945Y-24201D03*
X50945Y-23201D03*
X51945Y-24201D03*
X51945Y-23201D03*
X52945Y-24201D03*
X52945Y-23201D03*
M02*
