G04 (created by PCBNEW-RS274X (2012-01-19 BZR 3256)-stable) date 21-08-2012 09:30:57*
G01*
G70*
G90*
%MOIN*%
G04 Gerber Fmt 3.4, Leading zero omitted, Abs format*
%FSLAX34Y34*%
G04 APERTURE LIST*
%ADD10C,0.006000*%
%ADD11C,0.015000*%
%ADD12R,0.045000X0.020000*%
%ADD13R,0.035000X0.055000*%
%ADD14R,0.055000X0.035000*%
%ADD15R,0.016000X0.050000*%
%ADD16R,0.060000X0.060000*%
%ADD17C,0.060000*%
%ADD18C,0.035000*%
%ADD19C,0.016000*%
%ADD20C,0.008000*%
%ADD21C,0.010000*%
G04 APERTURE END LIST*
G54D10*
G54D11*
X50237Y-35394D02*
X50235Y-35360D01*
X50231Y-35326D01*
X50223Y-35293D01*
X50213Y-35260D01*
X50200Y-35228D01*
X50184Y-35198D01*
X50165Y-35169D01*
X50144Y-35141D01*
X50121Y-35116D01*
X50096Y-35093D01*
X50068Y-35072D01*
X50040Y-35053D01*
X50009Y-35037D01*
X49977Y-35024D01*
X49944Y-35014D01*
X49911Y-35006D01*
X49877Y-35002D01*
X49843Y-35000D01*
X49449Y-34606D02*
X49451Y-34640D01*
X49455Y-34674D01*
X49463Y-34707D01*
X49473Y-34740D01*
X49486Y-34772D01*
X49502Y-34802D01*
X49521Y-34831D01*
X49542Y-34859D01*
X49565Y-34884D01*
X49590Y-34907D01*
X49618Y-34928D01*
X49647Y-34947D01*
X49677Y-34963D01*
X49709Y-34976D01*
X49742Y-34986D01*
X49775Y-34994D01*
X49809Y-34998D01*
X49843Y-35000D01*
X49843Y-34212D02*
X49809Y-34214D01*
X49775Y-34218D01*
X49742Y-34226D01*
X49709Y-34236D01*
X49677Y-34249D01*
X49647Y-34265D01*
X49618Y-34284D01*
X49590Y-34305D01*
X49565Y-34328D01*
X49542Y-34353D01*
X49521Y-34381D01*
X49502Y-34410D01*
X49486Y-34440D01*
X49473Y-34472D01*
X49463Y-34505D01*
X49455Y-34538D01*
X49451Y-34572D01*
X49449Y-34606D01*
X49843Y-34212D02*
X49945Y-34207D01*
X50048Y-34194D01*
X50148Y-34171D01*
X50246Y-34140D01*
X50342Y-34101D01*
X50433Y-34053D01*
X50520Y-33998D01*
X50602Y-33935D01*
X50678Y-33866D01*
X50747Y-33790D01*
X50810Y-33708D01*
X50865Y-33621D01*
X50913Y-33530D01*
X50952Y-33434D01*
X50983Y-33336D01*
X51006Y-33236D01*
X51019Y-33133D01*
X51024Y-33031D01*
X44724Y-34961D02*
X44622Y-34966D01*
X44519Y-34979D01*
X44419Y-35002D01*
X44321Y-35033D01*
X44225Y-35072D01*
X44134Y-35120D01*
X44047Y-35175D01*
X43965Y-35238D01*
X43889Y-35307D01*
X43820Y-35383D01*
X43757Y-35465D01*
X43702Y-35552D01*
X43654Y-35643D01*
X43615Y-35739D01*
X43584Y-35837D01*
X43561Y-35937D01*
X43548Y-36040D01*
X43543Y-36142D01*
X44724Y-34961D02*
X44758Y-34959D01*
X44792Y-34955D01*
X44825Y-34947D01*
X44858Y-34937D01*
X44890Y-34924D01*
X44921Y-34908D01*
X44949Y-34889D01*
X44977Y-34868D01*
X45002Y-34845D01*
X45025Y-34820D01*
X45046Y-34792D01*
X45065Y-34763D01*
X45081Y-34733D01*
X45094Y-34701D01*
X45104Y-34668D01*
X45112Y-34635D01*
X45116Y-34601D01*
X45118Y-34567D01*
X45118Y-34567D02*
X45116Y-34533D01*
X45112Y-34499D01*
X45104Y-34466D01*
X45094Y-34433D01*
X45081Y-34401D01*
X45065Y-34371D01*
X45046Y-34342D01*
X45025Y-34314D01*
X45002Y-34289D01*
X44977Y-34266D01*
X44949Y-34245D01*
X44921Y-34226D01*
X44890Y-34210D01*
X44858Y-34197D01*
X44825Y-34187D01*
X44792Y-34179D01*
X44758Y-34175D01*
X44724Y-34173D01*
X43543Y-32992D02*
X43548Y-33094D01*
X43561Y-33197D01*
X43584Y-33297D01*
X43615Y-33395D01*
X43654Y-33491D01*
X43702Y-33582D01*
X43757Y-33669D01*
X43820Y-33751D01*
X43889Y-33827D01*
X43965Y-33896D01*
X44047Y-33959D01*
X44134Y-34014D01*
X44225Y-34062D01*
X44321Y-34101D01*
X44419Y-34132D01*
X44519Y-34155D01*
X44622Y-34168D01*
X44724Y-34173D01*
X51024Y-33031D02*
X54449Y-22382D01*
X43543Y-32992D02*
X43543Y-22382D01*
X43543Y-22382D02*
X54449Y-22382D01*
X47878Y-34587D02*
X47859Y-34778D01*
X47803Y-34963D01*
X47712Y-35133D01*
X47591Y-35283D01*
X47442Y-35406D01*
X47272Y-35497D01*
X47088Y-35554D01*
X46896Y-35574D01*
X46705Y-35557D01*
X46520Y-35503D01*
X46350Y-35413D01*
X46199Y-35292D01*
X46075Y-35145D01*
X45982Y-34976D01*
X45924Y-34792D01*
X45903Y-34600D01*
X45919Y-34409D01*
X45972Y-34224D01*
X46060Y-34052D01*
X46180Y-33901D01*
X46327Y-33776D01*
X46495Y-33682D01*
X46678Y-33623D01*
X46870Y-33600D01*
X47061Y-33615D01*
X47247Y-33666D01*
X47419Y-33753D01*
X47571Y-33872D01*
X47697Y-34018D01*
X47792Y-34186D01*
X47853Y-34369D01*
X47877Y-34560D01*
X47878Y-34587D01*
X50236Y-35394D02*
X49055Y-39311D01*
X43543Y-38917D02*
X43543Y-36102D01*
X43543Y-38917D02*
X49055Y-39311D01*
X74112Y-52578D02*
X74092Y-52772D01*
X74036Y-52960D01*
X73944Y-53133D01*
X73820Y-53284D01*
X73669Y-53409D01*
X73497Y-53502D01*
X73310Y-53560D01*
X73116Y-53580D01*
X72922Y-53563D01*
X72734Y-53507D01*
X72560Y-53417D01*
X72408Y-53294D01*
X72282Y-53144D01*
X72188Y-52973D01*
X72128Y-52786D01*
X72107Y-52592D01*
X72123Y-52397D01*
X72177Y-52209D01*
X72266Y-52035D01*
X72388Y-51882D01*
X72537Y-51755D01*
X72708Y-51659D01*
X72894Y-51599D01*
X73088Y-51576D01*
X73283Y-51591D01*
X73471Y-51643D01*
X73646Y-51732D01*
X73800Y-51852D01*
X73928Y-52000D01*
X74025Y-52171D01*
X74087Y-52356D01*
X74111Y-52550D01*
X74112Y-52578D01*
X68778Y-52184D02*
X67597Y-38011D01*
X69566Y-52184D02*
X68778Y-52184D01*
X69566Y-52971D02*
X69566Y-52184D01*
X68778Y-52971D02*
X69566Y-52971D01*
X70353Y-59664D02*
X68778Y-52971D01*
X76653Y-59664D02*
X70353Y-59664D01*
X78227Y-52971D02*
X76653Y-59664D01*
X77440Y-52971D02*
X78227Y-52971D01*
X77440Y-52184D02*
X77440Y-52971D01*
X78227Y-52184D02*
X77440Y-52184D01*
X79015Y-41948D02*
X78227Y-52184D01*
X75471Y-41948D02*
X79015Y-41948D01*
X75471Y-38011D02*
X75471Y-41948D01*
X67597Y-38011D02*
X75471Y-38011D01*
G54D12*
X44444Y-24188D03*
X46544Y-24188D03*
X44444Y-24688D03*
X44444Y-25188D03*
X44444Y-25688D03*
X46544Y-24688D03*
X46544Y-25188D03*
X46544Y-25688D03*
G54D13*
X46160Y-23228D03*
X46910Y-23228D03*
G54D14*
X48347Y-31357D03*
X48347Y-32107D03*
X47441Y-32420D03*
X47441Y-33170D03*
X45061Y-26453D03*
X45061Y-27203D03*
X46614Y-32420D03*
X46614Y-33170D03*
X46202Y-26453D03*
X46202Y-27203D03*
G54D13*
X47462Y-28740D03*
X46712Y-28740D03*
G54D14*
X45827Y-32422D03*
X45827Y-31672D03*
G54D15*
X47433Y-31347D03*
X47178Y-31347D03*
X46918Y-31347D03*
X46663Y-31347D03*
X46663Y-29597D03*
X46918Y-29597D03*
X47178Y-29597D03*
X47433Y-29597D03*
G54D16*
X44303Y-23189D03*
G54D17*
X45303Y-23189D03*
G54D16*
X51339Y-26520D03*
G54D17*
X51339Y-27520D03*
X51339Y-28520D03*
G54D16*
X49961Y-28520D03*
G54D17*
X49961Y-27520D03*
X49961Y-26520D03*
G54D16*
X47795Y-24201D03*
G54D17*
X47795Y-23201D03*
G54D16*
X48945Y-24201D03*
G54D17*
X48945Y-23201D03*
X49945Y-24201D03*
X49945Y-23201D03*
X50945Y-24201D03*
X50945Y-23201D03*
X51945Y-24201D03*
X51945Y-23201D03*
X52945Y-24201D03*
X52945Y-23201D03*
G54D18*
X48898Y-30354D03*
X46535Y-37165D03*
X47480Y-26614D03*
X44094Y-29370D03*
X49252Y-31181D03*
X48346Y-27126D03*
X48346Y-27913D03*
X45118Y-24213D03*
X48858Y-26535D03*
X44764Y-28031D03*
X46890Y-30472D03*
G54D19*
X46161Y-23189D02*
X46200Y-23228D01*
X47717Y-30433D02*
X47433Y-30433D01*
X48346Y-26142D02*
X48346Y-27126D01*
G54D20*
X47433Y-30433D02*
X47433Y-31347D01*
G54D19*
X48347Y-31357D02*
X49076Y-31357D01*
X48937Y-24209D02*
X48945Y-24201D01*
G54D20*
X47433Y-29597D02*
X47433Y-30433D01*
G54D19*
X48347Y-31063D02*
X47717Y-30433D01*
X48347Y-31357D02*
X48347Y-31063D01*
X48945Y-23201D02*
X48945Y-24201D01*
X49076Y-31357D02*
X49252Y-31181D01*
X48945Y-25543D02*
X48346Y-26142D01*
X48945Y-24201D02*
X48945Y-25543D01*
X48346Y-29804D02*
X48346Y-27913D01*
X48346Y-29804D02*
X47717Y-30433D01*
G54D20*
X48337Y-31347D02*
X48347Y-31357D01*
G54D19*
X45926Y-25688D02*
X45630Y-25984D01*
X45630Y-24188D02*
X45630Y-24173D01*
X46544Y-24188D02*
X45630Y-24188D01*
X44444Y-24688D02*
X45303Y-24688D01*
X45630Y-23700D02*
X45630Y-24173D01*
X45630Y-24410D02*
X45303Y-24737D01*
X45303Y-24737D02*
X45303Y-24688D01*
X45630Y-26453D02*
X46202Y-26453D01*
X45061Y-26453D02*
X45630Y-26453D01*
X45630Y-26453D02*
X45630Y-25984D01*
X46544Y-25688D02*
X45926Y-25688D01*
X45630Y-24173D02*
X45630Y-24410D01*
X45303Y-25539D02*
X45303Y-24737D01*
X45630Y-25984D02*
X45630Y-25866D01*
X45303Y-23189D02*
X45303Y-23373D01*
X45303Y-23373D02*
X45630Y-23700D01*
X45303Y-25539D02*
X45630Y-25866D01*
X45342Y-23228D02*
X45303Y-23189D01*
X46160Y-23228D02*
X45342Y-23228D01*
X45093Y-24188D02*
X44444Y-24188D01*
X45118Y-24213D02*
X45093Y-24188D01*
G54D20*
X50433Y-24960D02*
X50433Y-23713D01*
X50433Y-23713D02*
X50945Y-23201D01*
X48858Y-26535D02*
X50433Y-24960D01*
X47178Y-29597D02*
X47178Y-29160D01*
X47178Y-29160D02*
X47462Y-28876D01*
X47462Y-28876D02*
X47462Y-28740D01*
X46712Y-28838D02*
X46918Y-29044D01*
X46918Y-29044D02*
X46918Y-29597D01*
X46712Y-28740D02*
X46712Y-28838D01*
G54D19*
X46910Y-23228D02*
X47768Y-23228D01*
X47768Y-23228D02*
X47795Y-23201D01*
G54D20*
X46614Y-32420D02*
X47441Y-32420D01*
G54D19*
X49961Y-32283D02*
X49961Y-28520D01*
G54D20*
X46614Y-32165D02*
X46918Y-31861D01*
G54D19*
X47874Y-32756D02*
X48859Y-32756D01*
X47441Y-32420D02*
X47538Y-32420D01*
X48859Y-32756D02*
X49488Y-32756D01*
G54D20*
X46614Y-32420D02*
X45829Y-32420D01*
X45829Y-32420D02*
X45827Y-32422D01*
G54D19*
X49488Y-32756D02*
X49961Y-32283D01*
X47538Y-32420D02*
X47874Y-32756D01*
G54D20*
X46918Y-31861D02*
X46918Y-31347D01*
X46614Y-32420D02*
X46614Y-32165D01*
G54D19*
X47323Y-27520D02*
X49961Y-27520D01*
X44444Y-27712D02*
X44763Y-28031D01*
X44444Y-25688D02*
X44444Y-27712D01*
X47323Y-27520D02*
X46812Y-28031D01*
X44764Y-28031D02*
X44763Y-28031D01*
X46812Y-28031D02*
X44764Y-28031D01*
G54D20*
X46890Y-30472D02*
X46615Y-30472D01*
X45827Y-31260D02*
X45827Y-31672D01*
X46615Y-30472D02*
X45827Y-31260D01*
X46890Y-30472D02*
X46928Y-30472D01*
X47178Y-30722D02*
X47178Y-31347D01*
X46928Y-30472D02*
X47178Y-30722D01*
X46890Y-30472D02*
X46850Y-30512D01*
G54D10*
G36*
X54134Y-22607D02*
X53488Y-24619D01*
X53488Y-24280D01*
X53488Y-23280D01*
X53477Y-23067D01*
X53417Y-22920D01*
X53323Y-22893D01*
X53253Y-22963D01*
X53253Y-22823D01*
X53226Y-22729D01*
X53024Y-22658D01*
X52811Y-22669D01*
X52664Y-22729D01*
X52637Y-22823D01*
X52945Y-23130D01*
X53253Y-22823D01*
X53253Y-22963D01*
X53016Y-23201D01*
X53323Y-23509D01*
X53417Y-23482D01*
X53488Y-23280D01*
X53488Y-24280D01*
X53477Y-24067D01*
X53417Y-23920D01*
X53323Y-23893D01*
X53253Y-23963D01*
X53253Y-23823D01*
X53226Y-23729D01*
X53152Y-23703D01*
X53226Y-23673D01*
X53253Y-23579D01*
X52945Y-23272D01*
X52874Y-23342D01*
X52874Y-23201D01*
X52567Y-22893D01*
X52473Y-22920D01*
X52402Y-23122D01*
X52413Y-23335D01*
X52473Y-23482D01*
X52567Y-23509D01*
X52874Y-23201D01*
X52874Y-23342D01*
X52637Y-23579D01*
X52664Y-23673D01*
X52737Y-23698D01*
X52664Y-23729D01*
X52637Y-23823D01*
X52945Y-24130D01*
X53253Y-23823D01*
X53253Y-23963D01*
X53016Y-24201D01*
X53323Y-24509D01*
X53417Y-24482D01*
X53488Y-24280D01*
X53488Y-24619D01*
X53253Y-25351D01*
X53253Y-24579D01*
X52945Y-24272D01*
X52874Y-24342D01*
X52874Y-24201D01*
X52567Y-23893D01*
X52473Y-23920D01*
X52402Y-24122D01*
X52413Y-24335D01*
X52473Y-24482D01*
X52567Y-24509D01*
X52874Y-24201D01*
X52874Y-24342D01*
X52637Y-24579D01*
X52664Y-24673D01*
X52866Y-24744D01*
X53079Y-24733D01*
X53226Y-24673D01*
X53253Y-24579D01*
X53253Y-25351D01*
X52394Y-28027D01*
X52394Y-24291D01*
X52394Y-24112D01*
X52394Y-23291D01*
X52394Y-23112D01*
X52326Y-22947D01*
X52200Y-22821D01*
X52035Y-22752D01*
X51856Y-22752D01*
X51691Y-22820D01*
X51565Y-22946D01*
X51496Y-23111D01*
X51496Y-23290D01*
X51564Y-23455D01*
X51690Y-23581D01*
X51855Y-23650D01*
X52034Y-23650D01*
X52199Y-23582D01*
X52325Y-23456D01*
X52394Y-23291D01*
X52394Y-24112D01*
X52326Y-23947D01*
X52200Y-23821D01*
X52035Y-23752D01*
X51856Y-23752D01*
X51691Y-23820D01*
X51565Y-23946D01*
X51496Y-24111D01*
X51496Y-24290D01*
X51564Y-24455D01*
X51690Y-24581D01*
X51855Y-24650D01*
X52034Y-24650D01*
X52199Y-24582D01*
X52325Y-24456D01*
X52394Y-24291D01*
X52394Y-28027D01*
X51889Y-29600D01*
X51889Y-26632D01*
X51889Y-26408D01*
X51888Y-26171D01*
X51850Y-26079D01*
X51780Y-26009D01*
X51689Y-25971D01*
X51590Y-25971D01*
X51451Y-25970D01*
X51394Y-26027D01*
X51394Y-24291D01*
X51394Y-24112D01*
X51326Y-23947D01*
X51200Y-23821D01*
X51035Y-23752D01*
X50856Y-23752D01*
X50691Y-23820D01*
X50623Y-23888D01*
X50623Y-23791D01*
X50790Y-23623D01*
X50855Y-23650D01*
X51034Y-23650D01*
X51199Y-23582D01*
X51325Y-23456D01*
X51394Y-23291D01*
X51394Y-23112D01*
X51326Y-22947D01*
X51200Y-22821D01*
X51035Y-22752D01*
X50856Y-22752D01*
X50691Y-22820D01*
X50565Y-22946D01*
X50496Y-23111D01*
X50496Y-23290D01*
X50522Y-23355D01*
X50394Y-23483D01*
X50394Y-23291D01*
X50394Y-23112D01*
X50326Y-22947D01*
X50200Y-22821D01*
X50035Y-22752D01*
X49856Y-22752D01*
X49691Y-22820D01*
X49565Y-22946D01*
X49496Y-23111D01*
X49496Y-23290D01*
X49564Y-23455D01*
X49690Y-23581D01*
X49855Y-23650D01*
X50034Y-23650D01*
X50199Y-23582D01*
X50325Y-23456D01*
X50394Y-23291D01*
X50394Y-23483D01*
X50299Y-23579D01*
X50257Y-23640D01*
X50243Y-23713D01*
X50243Y-23864D01*
X50200Y-23821D01*
X50035Y-23752D01*
X49856Y-23752D01*
X49691Y-23820D01*
X49565Y-23946D01*
X49496Y-24111D01*
X49496Y-24290D01*
X49564Y-24455D01*
X49690Y-24581D01*
X49855Y-24650D01*
X50034Y-24650D01*
X50199Y-24582D01*
X50243Y-24538D01*
X50243Y-24881D01*
X48914Y-26210D01*
X48794Y-26210D01*
X48674Y-26259D01*
X48583Y-26350D01*
X48576Y-26366D01*
X48576Y-26238D01*
X49108Y-25706D01*
X49157Y-25631D01*
X49175Y-25543D01*
X49175Y-24650D01*
X49275Y-24650D01*
X49330Y-24627D01*
X49372Y-24585D01*
X49394Y-24530D01*
X49394Y-24471D01*
X49394Y-23871D01*
X49371Y-23816D01*
X49329Y-23774D01*
X49274Y-23752D01*
X49215Y-23752D01*
X49175Y-23752D01*
X49175Y-23591D01*
X49199Y-23582D01*
X49325Y-23456D01*
X49394Y-23291D01*
X49394Y-23112D01*
X49326Y-22947D01*
X49200Y-22821D01*
X49035Y-22752D01*
X48856Y-22752D01*
X48691Y-22820D01*
X48565Y-22946D01*
X48496Y-23111D01*
X48496Y-23290D01*
X48564Y-23455D01*
X48690Y-23581D01*
X48715Y-23591D01*
X48715Y-23752D01*
X48615Y-23752D01*
X48560Y-23775D01*
X48518Y-23817D01*
X48496Y-23872D01*
X48496Y-23931D01*
X48496Y-24531D01*
X48519Y-24586D01*
X48561Y-24628D01*
X48616Y-24650D01*
X48675Y-24650D01*
X48715Y-24650D01*
X48715Y-25447D01*
X48244Y-25918D01*
X48244Y-24530D01*
X48244Y-24471D01*
X48244Y-23871D01*
X48244Y-23291D01*
X48244Y-23112D01*
X48176Y-22947D01*
X48050Y-22821D01*
X47885Y-22752D01*
X47706Y-22752D01*
X47541Y-22820D01*
X47415Y-22946D01*
X47393Y-22998D01*
X47234Y-22998D01*
X47234Y-22923D01*
X47211Y-22868D01*
X47169Y-22826D01*
X47114Y-22804D01*
X47055Y-22804D01*
X46705Y-22804D01*
X46650Y-22827D01*
X46608Y-22869D01*
X46586Y-22924D01*
X46586Y-22983D01*
X46586Y-23533D01*
X46609Y-23588D01*
X46651Y-23630D01*
X46706Y-23652D01*
X46765Y-23652D01*
X47115Y-23652D01*
X47170Y-23629D01*
X47212Y-23587D01*
X47234Y-23532D01*
X47234Y-23473D01*
X47234Y-23458D01*
X47417Y-23458D01*
X47540Y-23581D01*
X47705Y-23650D01*
X47884Y-23650D01*
X48049Y-23582D01*
X48175Y-23456D01*
X48244Y-23291D01*
X48244Y-23871D01*
X48221Y-23816D01*
X48179Y-23774D01*
X48124Y-23752D01*
X48065Y-23752D01*
X47465Y-23752D01*
X47410Y-23775D01*
X47368Y-23817D01*
X47346Y-23872D01*
X47346Y-23931D01*
X47346Y-24531D01*
X47369Y-24586D01*
X47411Y-24628D01*
X47466Y-24650D01*
X47525Y-24650D01*
X48125Y-24650D01*
X48180Y-24627D01*
X48222Y-24585D01*
X48244Y-24530D01*
X48244Y-25918D01*
X48183Y-25979D01*
X48134Y-26054D01*
X48115Y-26142D01*
X48116Y-26146D01*
X48116Y-26896D01*
X48071Y-26941D01*
X48021Y-27061D01*
X48021Y-27190D01*
X48061Y-27290D01*
X47323Y-27290D01*
X47235Y-27308D01*
X47160Y-27357D01*
X47158Y-27359D01*
X46727Y-27790D01*
X46727Y-27315D01*
X46727Y-27091D01*
X46726Y-26979D01*
X46688Y-26887D01*
X46618Y-26817D01*
X46527Y-26779D01*
X46428Y-26779D01*
X46314Y-26778D01*
X46252Y-26840D01*
X46252Y-27153D01*
X46665Y-27153D01*
X46727Y-27091D01*
X46727Y-27315D01*
X46665Y-27253D01*
X46252Y-27253D01*
X46252Y-27566D01*
X46314Y-27628D01*
X46428Y-27627D01*
X46527Y-27627D01*
X46618Y-27589D01*
X46688Y-27519D01*
X46726Y-27427D01*
X46727Y-27315D01*
X46727Y-27790D01*
X46716Y-27801D01*
X46152Y-27801D01*
X46152Y-27566D01*
X46152Y-27253D01*
X46152Y-27153D01*
X46152Y-26840D01*
X46090Y-26778D01*
X45976Y-26779D01*
X45877Y-26779D01*
X45786Y-26817D01*
X45716Y-26887D01*
X45678Y-26979D01*
X45677Y-27091D01*
X45739Y-27153D01*
X46152Y-27153D01*
X46152Y-27253D01*
X45739Y-27253D01*
X45677Y-27315D01*
X45678Y-27427D01*
X45716Y-27519D01*
X45786Y-27589D01*
X45877Y-27627D01*
X45976Y-27627D01*
X46090Y-27628D01*
X46152Y-27566D01*
X46152Y-27801D01*
X45586Y-27801D01*
X45586Y-27315D01*
X45586Y-27091D01*
X45585Y-26979D01*
X45547Y-26887D01*
X45477Y-26817D01*
X45386Y-26779D01*
X45287Y-26779D01*
X45173Y-26778D01*
X45111Y-26840D01*
X45111Y-27153D01*
X45524Y-27153D01*
X45586Y-27091D01*
X45586Y-27315D01*
X45524Y-27253D01*
X45111Y-27253D01*
X45111Y-27566D01*
X45173Y-27628D01*
X45287Y-27627D01*
X45386Y-27627D01*
X45477Y-27589D01*
X45547Y-27519D01*
X45585Y-27427D01*
X45586Y-27315D01*
X45586Y-27801D01*
X44994Y-27801D01*
X44949Y-27756D01*
X44829Y-27706D01*
X44764Y-27706D01*
X44674Y-27616D01*
X44674Y-27601D01*
X44736Y-27627D01*
X44835Y-27627D01*
X44949Y-27628D01*
X45011Y-27566D01*
X45011Y-27303D01*
X45011Y-27253D01*
X45011Y-27153D01*
X45011Y-27103D01*
X45011Y-26840D01*
X44949Y-26778D01*
X44835Y-26779D01*
X44736Y-26779D01*
X44674Y-26804D01*
X44674Y-26727D01*
X44702Y-26755D01*
X44757Y-26777D01*
X44816Y-26777D01*
X45366Y-26777D01*
X45421Y-26754D01*
X45463Y-26712D01*
X45474Y-26683D01*
X45630Y-26683D01*
X45788Y-26683D01*
X45801Y-26713D01*
X45843Y-26755D01*
X45898Y-26777D01*
X45957Y-26777D01*
X46507Y-26777D01*
X46562Y-26754D01*
X46604Y-26712D01*
X46626Y-26657D01*
X46626Y-26598D01*
X46626Y-26248D01*
X46603Y-26193D01*
X46561Y-26151D01*
X46506Y-26129D01*
X46447Y-26129D01*
X45897Y-26129D01*
X45860Y-26144D01*
X45860Y-26079D01*
X46021Y-25918D01*
X46242Y-25918D01*
X46290Y-25937D01*
X46349Y-25937D01*
X46799Y-25937D01*
X46854Y-25914D01*
X46896Y-25872D01*
X46918Y-25817D01*
X46918Y-25758D01*
X46918Y-25558D01*
X46895Y-25504D01*
X46910Y-25499D01*
X46980Y-25429D01*
X47018Y-25337D01*
X47019Y-25300D01*
X47019Y-25076D01*
X47018Y-25039D01*
X46980Y-24947D01*
X46971Y-24938D01*
X46980Y-24929D01*
X47018Y-24837D01*
X47019Y-24800D01*
X46957Y-24738D01*
X46594Y-24738D01*
X46594Y-24900D01*
X46594Y-24976D01*
X46594Y-25138D01*
X46957Y-25138D01*
X47019Y-25076D01*
X47019Y-25300D01*
X46957Y-25238D01*
X46644Y-25238D01*
X46594Y-25238D01*
X46494Y-25238D01*
X46494Y-25138D01*
X46494Y-24976D01*
X46494Y-24900D01*
X46494Y-24738D01*
X46131Y-24738D01*
X46069Y-24800D01*
X46070Y-24837D01*
X46108Y-24929D01*
X46117Y-24938D01*
X46108Y-24947D01*
X46070Y-25039D01*
X46069Y-25076D01*
X46131Y-25138D01*
X46494Y-25138D01*
X46494Y-25238D01*
X46444Y-25238D01*
X46131Y-25238D01*
X46069Y-25300D01*
X46070Y-25337D01*
X46108Y-25429D01*
X46137Y-25458D01*
X45926Y-25458D01*
X45838Y-25476D01*
X45763Y-25525D01*
X45761Y-25527D01*
X45689Y-25599D01*
X45533Y-25443D01*
X45533Y-24832D01*
X45790Y-24574D01*
X45792Y-24573D01*
X45793Y-24573D01*
X45842Y-24498D01*
X45858Y-24418D01*
X46137Y-24418D01*
X46108Y-24447D01*
X46070Y-24539D01*
X46069Y-24576D01*
X46131Y-24638D01*
X46444Y-24638D01*
X46494Y-24638D01*
X46594Y-24638D01*
X46644Y-24638D01*
X46957Y-24638D01*
X47019Y-24576D01*
X47018Y-24539D01*
X46980Y-24447D01*
X46910Y-24377D01*
X46896Y-24371D01*
X46918Y-24317D01*
X46918Y-24258D01*
X46918Y-24058D01*
X46895Y-24003D01*
X46853Y-23961D01*
X46798Y-23939D01*
X46739Y-23939D01*
X46289Y-23939D01*
X46243Y-23958D01*
X45860Y-23958D01*
X45860Y-23700D01*
X45842Y-23612D01*
X45793Y-23537D01*
X45790Y-23535D01*
X45713Y-23458D01*
X45836Y-23458D01*
X45836Y-23533D01*
X45859Y-23588D01*
X45901Y-23630D01*
X45956Y-23652D01*
X46015Y-23652D01*
X46365Y-23652D01*
X46420Y-23629D01*
X46462Y-23587D01*
X46484Y-23532D01*
X46484Y-23473D01*
X46484Y-22923D01*
X46461Y-22868D01*
X46419Y-22826D01*
X46364Y-22804D01*
X46305Y-22804D01*
X45955Y-22804D01*
X45900Y-22827D01*
X45858Y-22869D01*
X45836Y-22924D01*
X45836Y-22983D01*
X45836Y-22998D01*
X45709Y-22998D01*
X45684Y-22935D01*
X45558Y-22809D01*
X45393Y-22740D01*
X45214Y-22740D01*
X45049Y-22808D01*
X44923Y-22934D01*
X44854Y-23099D01*
X44854Y-23278D01*
X44922Y-23443D01*
X45048Y-23569D01*
X45213Y-23638D01*
X45242Y-23638D01*
X45400Y-23795D01*
X45400Y-24043D01*
X45394Y-24029D01*
X45303Y-23938D01*
X45183Y-23888D01*
X45054Y-23888D01*
X44934Y-23937D01*
X44913Y-23958D01*
X44853Y-23958D01*
X44853Y-23301D01*
X44853Y-23077D01*
X44852Y-22938D01*
X44852Y-22839D01*
X44814Y-22748D01*
X44744Y-22678D01*
X44652Y-22640D01*
X44415Y-22639D01*
X44353Y-22701D01*
X44353Y-23139D01*
X44791Y-23139D01*
X44853Y-23077D01*
X44853Y-23301D01*
X44791Y-23239D01*
X44353Y-23239D01*
X44353Y-23677D01*
X44415Y-23739D01*
X44652Y-23738D01*
X44744Y-23700D01*
X44814Y-23630D01*
X44852Y-23539D01*
X44852Y-23440D01*
X44853Y-23301D01*
X44853Y-23958D01*
X44745Y-23958D01*
X44698Y-23939D01*
X44639Y-23939D01*
X44189Y-23939D01*
X44134Y-23962D01*
X44092Y-24004D01*
X44070Y-24059D01*
X44070Y-24118D01*
X44070Y-24318D01*
X44093Y-24373D01*
X44135Y-24415D01*
X44190Y-24437D01*
X44249Y-24437D01*
X44699Y-24437D01*
X44744Y-24418D01*
X44863Y-24418D01*
X44903Y-24458D01*
X44745Y-24458D01*
X44698Y-24439D01*
X44639Y-24439D01*
X44189Y-24439D01*
X44134Y-24462D01*
X44092Y-24504D01*
X44070Y-24559D01*
X44070Y-24618D01*
X44070Y-24818D01*
X44092Y-24871D01*
X44078Y-24877D01*
X44008Y-24947D01*
X43970Y-25039D01*
X43969Y-25076D01*
X44031Y-25138D01*
X44344Y-25138D01*
X44394Y-25138D01*
X44494Y-25138D01*
X44544Y-25138D01*
X44857Y-25138D01*
X44919Y-25076D01*
X44918Y-25039D01*
X44880Y-24947D01*
X44851Y-24918D01*
X45073Y-24918D01*
X45073Y-25534D01*
X45072Y-25539D01*
X45091Y-25627D01*
X45140Y-25702D01*
X45400Y-25961D01*
X45400Y-25979D01*
X45399Y-25984D01*
X45400Y-25988D01*
X45400Y-26143D01*
X45365Y-26129D01*
X45306Y-26129D01*
X44756Y-26129D01*
X44701Y-26152D01*
X44674Y-26179D01*
X44674Y-25937D01*
X44699Y-25937D01*
X44754Y-25914D01*
X44796Y-25872D01*
X44818Y-25817D01*
X44818Y-25758D01*
X44818Y-25558D01*
X44795Y-25504D01*
X44810Y-25499D01*
X44880Y-25429D01*
X44918Y-25337D01*
X44919Y-25300D01*
X44857Y-25238D01*
X44544Y-25238D01*
X44494Y-25238D01*
X44394Y-25238D01*
X44344Y-25238D01*
X44031Y-25238D01*
X43969Y-25300D01*
X43970Y-25337D01*
X44008Y-25429D01*
X44078Y-25499D01*
X44091Y-25504D01*
X44070Y-25559D01*
X44070Y-25618D01*
X44070Y-25818D01*
X44093Y-25873D01*
X44135Y-25915D01*
X44190Y-25937D01*
X44214Y-25937D01*
X44214Y-27707D01*
X44213Y-27712D01*
X44232Y-27800D01*
X44281Y-27875D01*
X44439Y-28033D01*
X44439Y-28095D01*
X44488Y-28215D01*
X44579Y-28306D01*
X44699Y-28356D01*
X44828Y-28356D01*
X44948Y-28307D01*
X44994Y-28261D01*
X46807Y-28261D01*
X46812Y-28262D01*
X46812Y-28261D01*
X46900Y-28243D01*
X46975Y-28194D01*
X47418Y-27750D01*
X48061Y-27750D01*
X48021Y-27848D01*
X48021Y-27977D01*
X48070Y-28097D01*
X48116Y-28143D01*
X48116Y-29708D01*
X47623Y-30201D01*
X47623Y-29948D01*
X47640Y-29931D01*
X47662Y-29876D01*
X47662Y-29817D01*
X47662Y-29317D01*
X47639Y-29262D01*
X47597Y-29220D01*
X47542Y-29198D01*
X47483Y-29198D01*
X47408Y-29198D01*
X47442Y-29164D01*
X47667Y-29164D01*
X47722Y-29141D01*
X47764Y-29099D01*
X47786Y-29044D01*
X47786Y-28985D01*
X47786Y-28435D01*
X47763Y-28380D01*
X47721Y-28338D01*
X47666Y-28316D01*
X47607Y-28316D01*
X47257Y-28316D01*
X47202Y-28339D01*
X47160Y-28381D01*
X47138Y-28436D01*
X47138Y-28495D01*
X47138Y-28931D01*
X47094Y-28975D01*
X47094Y-28971D01*
X47052Y-28910D01*
X47052Y-28909D01*
X47036Y-28893D01*
X47036Y-28435D01*
X47013Y-28380D01*
X46971Y-28338D01*
X46916Y-28316D01*
X46857Y-28316D01*
X46507Y-28316D01*
X46452Y-28339D01*
X46410Y-28381D01*
X46388Y-28436D01*
X46388Y-28495D01*
X46388Y-29045D01*
X46411Y-29100D01*
X46445Y-29134D01*
X46442Y-29136D01*
X46372Y-29206D01*
X46334Y-29297D01*
X46334Y-29396D01*
X46333Y-29485D01*
X46395Y-29547D01*
X46563Y-29547D01*
X46623Y-29547D01*
X46689Y-29547D01*
X46689Y-29877D01*
X46703Y-29910D01*
X46703Y-30035D01*
X46765Y-30097D01*
X46792Y-30096D01*
X46884Y-30058D01*
X46946Y-29996D01*
X47028Y-29996D01*
X47048Y-29987D01*
X47069Y-29996D01*
X47128Y-29996D01*
X47243Y-29996D01*
X47243Y-30311D01*
X47221Y-30345D01*
X47210Y-30396D01*
X47166Y-30288D01*
X47075Y-30197D01*
X46955Y-30147D01*
X46826Y-30147D01*
X46706Y-30196D01*
X46623Y-30279D01*
X46623Y-30035D01*
X46623Y-29647D01*
X46395Y-29647D01*
X46333Y-29709D01*
X46334Y-29798D01*
X46334Y-29897D01*
X46372Y-29988D01*
X46442Y-30058D01*
X46534Y-30096D01*
X46561Y-30097D01*
X46623Y-30035D01*
X46623Y-30279D01*
X46620Y-30282D01*
X46615Y-30282D01*
X46542Y-30296D01*
X46480Y-30338D01*
X45693Y-31126D01*
X45651Y-31187D01*
X45637Y-31260D01*
X45637Y-31348D01*
X45522Y-31348D01*
X45467Y-31371D01*
X45425Y-31413D01*
X45403Y-31468D01*
X45403Y-31527D01*
X45403Y-31877D01*
X45426Y-31932D01*
X45468Y-31974D01*
X45523Y-31996D01*
X45582Y-31996D01*
X46132Y-31996D01*
X46187Y-31973D01*
X46229Y-31931D01*
X46251Y-31876D01*
X46251Y-31817D01*
X46251Y-31467D01*
X46228Y-31412D01*
X46186Y-31370D01*
X46131Y-31348D01*
X46072Y-31348D01*
X46017Y-31348D01*
X46017Y-31338D01*
X46352Y-31003D01*
X46334Y-31047D01*
X46334Y-31146D01*
X46333Y-31235D01*
X46395Y-31297D01*
X46623Y-31297D01*
X46623Y-30909D01*
X46561Y-30847D01*
X46534Y-30848D01*
X46489Y-30866D01*
X46656Y-30698D01*
X46705Y-30747D01*
X46825Y-30797D01*
X46954Y-30797D01*
X46975Y-30788D01*
X46988Y-30800D01*
X46988Y-30948D01*
X46968Y-30948D01*
X46946Y-30948D01*
X46884Y-30886D01*
X46792Y-30848D01*
X46765Y-30847D01*
X46703Y-30909D01*
X46703Y-31033D01*
X46689Y-31068D01*
X46689Y-31127D01*
X46689Y-31397D01*
X46623Y-31397D01*
X46563Y-31397D01*
X46395Y-31397D01*
X46333Y-31459D01*
X46334Y-31548D01*
X46334Y-31647D01*
X46372Y-31738D01*
X46442Y-31808D01*
X46534Y-31846D01*
X46561Y-31847D01*
X46563Y-31845D01*
X46563Y-31847D01*
X46623Y-31847D01*
X46663Y-31847D01*
X46623Y-31887D01*
X46480Y-32031D01*
X46438Y-32092D01*
X46437Y-32096D01*
X46309Y-32096D01*
X46254Y-32119D01*
X46219Y-32153D01*
X46186Y-32120D01*
X46131Y-32098D01*
X46072Y-32098D01*
X45522Y-32098D01*
X45467Y-32121D01*
X45425Y-32163D01*
X45403Y-32218D01*
X45403Y-32277D01*
X45403Y-32627D01*
X45426Y-32682D01*
X45468Y-32724D01*
X45523Y-32746D01*
X45582Y-32746D01*
X46132Y-32746D01*
X46187Y-32723D01*
X46221Y-32688D01*
X46255Y-32722D01*
X46310Y-32744D01*
X46369Y-32744D01*
X46919Y-32744D01*
X46974Y-32721D01*
X47016Y-32679D01*
X47027Y-32650D01*
X47040Y-32680D01*
X47082Y-32722D01*
X47137Y-32744D01*
X47196Y-32744D01*
X47536Y-32744D01*
X47545Y-32753D01*
X47491Y-32807D01*
X47491Y-33120D01*
X47904Y-33120D01*
X47966Y-33058D01*
X47965Y-32986D01*
X48859Y-32986D01*
X49483Y-32986D01*
X49488Y-32987D01*
X49488Y-32986D01*
X49576Y-32968D01*
X49651Y-32919D01*
X50121Y-32447D01*
X50123Y-32446D01*
X50124Y-32446D01*
X50172Y-32371D01*
X50173Y-32371D01*
X50187Y-32298D01*
X50191Y-32284D01*
X50190Y-32283D01*
X50191Y-32283D01*
X50191Y-28969D01*
X50291Y-28969D01*
X50346Y-28946D01*
X50388Y-28904D01*
X50410Y-28849D01*
X50410Y-28790D01*
X50410Y-28190D01*
X50387Y-28135D01*
X50345Y-28093D01*
X50290Y-28071D01*
X50231Y-28071D01*
X49631Y-28071D01*
X49576Y-28094D01*
X49534Y-28136D01*
X49512Y-28191D01*
X49512Y-28250D01*
X49512Y-28850D01*
X49535Y-28905D01*
X49577Y-28947D01*
X49632Y-28969D01*
X49691Y-28969D01*
X49731Y-28969D01*
X49731Y-32187D01*
X49392Y-32526D01*
X48859Y-32526D01*
X48683Y-32526D01*
X48763Y-32493D01*
X48833Y-32423D01*
X48871Y-32331D01*
X48872Y-32219D01*
X48872Y-31995D01*
X48871Y-31883D01*
X48833Y-31791D01*
X48763Y-31721D01*
X48672Y-31683D01*
X48573Y-31683D01*
X48459Y-31682D01*
X48397Y-31744D01*
X48397Y-32057D01*
X48810Y-32057D01*
X48872Y-31995D01*
X48872Y-32219D01*
X48810Y-32157D01*
X48447Y-32157D01*
X48397Y-32157D01*
X48297Y-32157D01*
X48297Y-32057D01*
X48297Y-31744D01*
X48235Y-31682D01*
X48121Y-31683D01*
X48022Y-31683D01*
X47931Y-31721D01*
X47861Y-31791D01*
X47823Y-31883D01*
X47822Y-31995D01*
X47884Y-32057D01*
X48297Y-32057D01*
X48297Y-32157D01*
X48247Y-32157D01*
X47884Y-32157D01*
X47853Y-32187D01*
X47842Y-32160D01*
X47800Y-32118D01*
X47745Y-32096D01*
X47686Y-32096D01*
X47136Y-32096D01*
X47081Y-32119D01*
X47039Y-32161D01*
X47027Y-32189D01*
X47015Y-32160D01*
X46973Y-32118D01*
X46942Y-32105D01*
X47052Y-31996D01*
X47052Y-31995D01*
X47068Y-31970D01*
X47093Y-31934D01*
X47094Y-31934D01*
X47107Y-31862D01*
X47108Y-31861D01*
X47108Y-31746D01*
X47128Y-31746D01*
X47288Y-31746D01*
X47305Y-31738D01*
X47324Y-31746D01*
X47383Y-31746D01*
X47543Y-31746D01*
X47598Y-31723D01*
X47640Y-31681D01*
X47662Y-31626D01*
X47662Y-31567D01*
X47662Y-31067D01*
X47639Y-31012D01*
X47623Y-30996D01*
X47623Y-30664D01*
X48006Y-31047D01*
X47987Y-31056D01*
X47945Y-31098D01*
X47923Y-31153D01*
X47923Y-31212D01*
X47923Y-31562D01*
X47946Y-31617D01*
X47988Y-31659D01*
X48043Y-31681D01*
X48102Y-31681D01*
X48652Y-31681D01*
X48707Y-31658D01*
X48749Y-31616D01*
X48760Y-31587D01*
X49071Y-31587D01*
X49076Y-31588D01*
X49076Y-31587D01*
X49164Y-31569D01*
X49239Y-31520D01*
X49252Y-31506D01*
X49316Y-31506D01*
X49436Y-31457D01*
X49527Y-31366D01*
X49577Y-31246D01*
X49577Y-31117D01*
X49528Y-30997D01*
X49437Y-30906D01*
X49317Y-30856D01*
X49188Y-30856D01*
X49068Y-30905D01*
X48977Y-30996D01*
X48927Y-31116D01*
X48927Y-31127D01*
X48760Y-31127D01*
X48748Y-31097D01*
X48706Y-31055D01*
X48651Y-31033D01*
X48592Y-31033D01*
X48570Y-31033D01*
X48559Y-30975D01*
X48510Y-30900D01*
X48507Y-30898D01*
X48042Y-30432D01*
X48506Y-29968D01*
X48508Y-29967D01*
X48509Y-29967D01*
X48558Y-29892D01*
X48576Y-29804D01*
X48576Y-28143D01*
X48621Y-28098D01*
X48671Y-27978D01*
X48671Y-27849D01*
X48630Y-27750D01*
X49570Y-27750D01*
X49580Y-27774D01*
X49706Y-27900D01*
X49871Y-27969D01*
X50050Y-27969D01*
X50215Y-27901D01*
X50341Y-27775D01*
X50410Y-27610D01*
X50410Y-27431D01*
X50342Y-27266D01*
X50269Y-27193D01*
X50269Y-26898D01*
X49961Y-26591D01*
X49890Y-26661D01*
X49890Y-26520D01*
X49583Y-26212D01*
X49489Y-26239D01*
X49418Y-26441D01*
X49429Y-26654D01*
X49489Y-26801D01*
X49583Y-26828D01*
X49890Y-26520D01*
X49890Y-26661D01*
X49653Y-26898D01*
X49680Y-26992D01*
X49882Y-27063D01*
X50095Y-27052D01*
X50242Y-26992D01*
X50269Y-26898D01*
X50269Y-27193D01*
X50216Y-27140D01*
X50051Y-27071D01*
X49872Y-27071D01*
X49707Y-27139D01*
X49581Y-27265D01*
X49570Y-27290D01*
X48629Y-27290D01*
X48671Y-27191D01*
X48671Y-27062D01*
X48622Y-26942D01*
X48576Y-26896D01*
X48576Y-26704D01*
X48582Y-26719D01*
X48673Y-26810D01*
X48793Y-26860D01*
X48922Y-26860D01*
X49042Y-26811D01*
X49133Y-26720D01*
X49183Y-26600D01*
X49183Y-26478D01*
X50567Y-25095D01*
X50567Y-25094D01*
X50609Y-25033D01*
X50622Y-24960D01*
X50623Y-24960D01*
X50623Y-24514D01*
X50690Y-24581D01*
X50855Y-24650D01*
X51034Y-24650D01*
X51199Y-24582D01*
X51325Y-24456D01*
X51394Y-24291D01*
X51394Y-26027D01*
X51389Y-26032D01*
X51389Y-26470D01*
X51827Y-26470D01*
X51889Y-26408D01*
X51889Y-26632D01*
X51827Y-26570D01*
X51389Y-26570D01*
X51389Y-27008D01*
X51451Y-27070D01*
X51590Y-27069D01*
X51689Y-27069D01*
X51780Y-27031D01*
X51850Y-26961D01*
X51888Y-26869D01*
X51889Y-26632D01*
X51889Y-29600D01*
X51788Y-29915D01*
X51788Y-28610D01*
X51788Y-28431D01*
X51788Y-27610D01*
X51788Y-27431D01*
X51720Y-27266D01*
X51594Y-27140D01*
X51429Y-27071D01*
X51289Y-27071D01*
X51289Y-27008D01*
X51289Y-26570D01*
X51289Y-26470D01*
X51289Y-26032D01*
X51227Y-25970D01*
X51088Y-25971D01*
X50989Y-25971D01*
X50898Y-26009D01*
X50828Y-26079D01*
X50790Y-26171D01*
X50789Y-26408D01*
X50851Y-26470D01*
X51289Y-26470D01*
X51289Y-26570D01*
X50851Y-26570D01*
X50789Y-26632D01*
X50790Y-26869D01*
X50828Y-26961D01*
X50898Y-27031D01*
X50989Y-27069D01*
X51088Y-27069D01*
X51227Y-27070D01*
X51289Y-27008D01*
X51289Y-27071D01*
X51250Y-27071D01*
X51085Y-27139D01*
X50959Y-27265D01*
X50890Y-27430D01*
X50890Y-27609D01*
X50958Y-27774D01*
X51084Y-27900D01*
X51249Y-27969D01*
X51428Y-27969D01*
X51593Y-27901D01*
X51719Y-27775D01*
X51788Y-27610D01*
X51788Y-28431D01*
X51720Y-28266D01*
X51594Y-28140D01*
X51429Y-28071D01*
X51250Y-28071D01*
X51085Y-28139D01*
X50959Y-28265D01*
X50890Y-28430D01*
X50890Y-28609D01*
X50958Y-28774D01*
X51084Y-28900D01*
X51249Y-28969D01*
X51428Y-28969D01*
X51593Y-28901D01*
X51719Y-28775D01*
X51788Y-28610D01*
X51788Y-29915D01*
X50810Y-32962D01*
X50808Y-32974D01*
X50803Y-32988D01*
X50721Y-33397D01*
X50516Y-33702D01*
X50504Y-33710D01*
X50504Y-26599D01*
X50493Y-26386D01*
X50433Y-26239D01*
X50339Y-26212D01*
X50269Y-26282D01*
X50269Y-26142D01*
X50242Y-26048D01*
X50040Y-25977D01*
X49827Y-25988D01*
X49680Y-26048D01*
X49653Y-26142D01*
X49961Y-26449D01*
X50269Y-26142D01*
X50269Y-26282D01*
X50032Y-26520D01*
X50339Y-26828D01*
X50433Y-26801D01*
X50504Y-26599D01*
X50504Y-33710D01*
X50208Y-33909D01*
X49799Y-33991D01*
X49795Y-33992D01*
X49648Y-34021D01*
X49567Y-34055D01*
X49439Y-34140D01*
X49377Y-34201D01*
X49376Y-34202D01*
X49376Y-34203D01*
X49292Y-34330D01*
X49291Y-34330D01*
X49291Y-34331D01*
X49258Y-34412D01*
X49228Y-34562D01*
X49228Y-34650D01*
X49258Y-34800D01*
X49291Y-34881D01*
X49292Y-34882D01*
X49376Y-35009D01*
X49377Y-35011D01*
X49438Y-35071D01*
X49439Y-35072D01*
X49567Y-35157D01*
X49648Y-35191D01*
X49795Y-35219D01*
X49798Y-35220D01*
X49799Y-35221D01*
X49906Y-35241D01*
X49959Y-35277D01*
X49994Y-35330D01*
X50005Y-35384D01*
X48891Y-39075D01*
X48098Y-39018D01*
X48098Y-34511D01*
X48097Y-34510D01*
X48098Y-34510D01*
X48089Y-34424D01*
X48089Y-34423D01*
X47977Y-34055D01*
X47977Y-34054D01*
X47962Y-34027D01*
X47936Y-33977D01*
X47933Y-33974D01*
X47690Y-33679D01*
X47622Y-33623D01*
X47617Y-33621D01*
X47567Y-33594D01*
X47667Y-33594D01*
X47766Y-33594D01*
X47857Y-33556D01*
X47927Y-33486D01*
X47965Y-33394D01*
X47966Y-33282D01*
X47904Y-33220D01*
X47541Y-33220D01*
X47491Y-33220D01*
X47391Y-33220D01*
X47391Y-33120D01*
X47391Y-32807D01*
X47329Y-32745D01*
X47215Y-32746D01*
X47116Y-32746D01*
X47027Y-32782D01*
X46939Y-32746D01*
X46840Y-32746D01*
X46726Y-32745D01*
X46664Y-32807D01*
X46664Y-33120D01*
X46978Y-33120D01*
X47077Y-33120D01*
X47391Y-33120D01*
X47391Y-33220D01*
X47341Y-33220D01*
X47077Y-33220D01*
X46978Y-33220D01*
X46714Y-33220D01*
X46664Y-33220D01*
X46564Y-33220D01*
X46564Y-33120D01*
X46564Y-32807D01*
X46502Y-32745D01*
X46388Y-32746D01*
X46289Y-32746D01*
X46198Y-32784D01*
X46128Y-32854D01*
X46090Y-32946D01*
X46089Y-33058D01*
X46151Y-33120D01*
X46564Y-33120D01*
X46564Y-33220D01*
X46514Y-33220D01*
X46151Y-33220D01*
X46089Y-33282D01*
X46090Y-33394D01*
X46128Y-33486D01*
X46198Y-33556D01*
X46241Y-33573D01*
X45982Y-33787D01*
X45926Y-33855D01*
X45924Y-33859D01*
X45745Y-34194D01*
X45744Y-34196D01*
X45726Y-34254D01*
X45719Y-34279D01*
X45719Y-34280D01*
X45682Y-34663D01*
X45691Y-34751D01*
X45691Y-34752D01*
X45802Y-35118D01*
X45803Y-35120D01*
X45844Y-35197D01*
X46090Y-35495D01*
X46158Y-35551D01*
X46162Y-35552D01*
X46496Y-35731D01*
X46497Y-35732D01*
X46498Y-35733D01*
X46556Y-35750D01*
X46581Y-35758D01*
X46581Y-35757D01*
X46582Y-35758D01*
X46966Y-35795D01*
X47053Y-35786D01*
X47421Y-35674D01*
X47422Y-35674D01*
X47423Y-35674D01*
X47499Y-35633D01*
X47500Y-35633D01*
X47798Y-35387D01*
X47853Y-35319D01*
X47854Y-35319D01*
X47855Y-35314D01*
X48034Y-34980D01*
X48035Y-34980D01*
X48036Y-34979D01*
X48053Y-34921D01*
X48061Y-34896D01*
X48060Y-34895D01*
X48061Y-34895D01*
X48098Y-34511D01*
X48098Y-39018D01*
X43768Y-38707D01*
X43768Y-36165D01*
X43845Y-35776D01*
X44052Y-35468D01*
X44357Y-35263D01*
X44767Y-35182D01*
X44768Y-35182D01*
X44918Y-35152D01*
X44999Y-35119D01*
X44999Y-35118D01*
X45000Y-35118D01*
X45127Y-35034D01*
X45127Y-35033D01*
X45129Y-35033D01*
X45189Y-34972D01*
X45190Y-34971D01*
X45275Y-34843D01*
X45309Y-34762D01*
X45338Y-34612D01*
X45338Y-34610D01*
X45338Y-34524D01*
X45338Y-34522D01*
X45309Y-34372D01*
X45275Y-34291D01*
X45190Y-34163D01*
X45189Y-34162D01*
X45129Y-34101D01*
X45127Y-34100D01*
X45000Y-34016D01*
X44999Y-34015D01*
X44918Y-33982D01*
X44768Y-33952D01*
X44767Y-33952D01*
X44357Y-33870D01*
X44052Y-33665D01*
X43845Y-33357D01*
X43768Y-32968D01*
X43768Y-23572D01*
X43792Y-23630D01*
X43862Y-23700D01*
X43954Y-23738D01*
X44191Y-23739D01*
X44253Y-23677D01*
X44253Y-23289D01*
X44253Y-23239D01*
X44253Y-23139D01*
X44253Y-23089D01*
X44253Y-22701D01*
X44191Y-22639D01*
X43954Y-22640D01*
X43862Y-22678D01*
X43792Y-22748D01*
X43768Y-22805D01*
X43768Y-22607D01*
X54134Y-22607D01*
X54134Y-22607D01*
G37*
G54D21*
X54134Y-22607D02*
X53488Y-24619D01*
X53488Y-24280D01*
X53488Y-23280D01*
X53477Y-23067D01*
X53417Y-22920D01*
X53323Y-22893D01*
X53253Y-22963D01*
X53253Y-22823D01*
X53226Y-22729D01*
X53024Y-22658D01*
X52811Y-22669D01*
X52664Y-22729D01*
X52637Y-22823D01*
X52945Y-23130D01*
X53253Y-22823D01*
X53253Y-22963D01*
X53016Y-23201D01*
X53323Y-23509D01*
X53417Y-23482D01*
X53488Y-23280D01*
X53488Y-24280D01*
X53477Y-24067D01*
X53417Y-23920D01*
X53323Y-23893D01*
X53253Y-23963D01*
X53253Y-23823D01*
X53226Y-23729D01*
X53152Y-23703D01*
X53226Y-23673D01*
X53253Y-23579D01*
X52945Y-23272D01*
X52874Y-23342D01*
X52874Y-23201D01*
X52567Y-22893D01*
X52473Y-22920D01*
X52402Y-23122D01*
X52413Y-23335D01*
X52473Y-23482D01*
X52567Y-23509D01*
X52874Y-23201D01*
X52874Y-23342D01*
X52637Y-23579D01*
X52664Y-23673D01*
X52737Y-23698D01*
X52664Y-23729D01*
X52637Y-23823D01*
X52945Y-24130D01*
X53253Y-23823D01*
X53253Y-23963D01*
X53016Y-24201D01*
X53323Y-24509D01*
X53417Y-24482D01*
X53488Y-24280D01*
X53488Y-24619D01*
X53253Y-25351D01*
X53253Y-24579D01*
X52945Y-24272D01*
X52874Y-24342D01*
X52874Y-24201D01*
X52567Y-23893D01*
X52473Y-23920D01*
X52402Y-24122D01*
X52413Y-24335D01*
X52473Y-24482D01*
X52567Y-24509D01*
X52874Y-24201D01*
X52874Y-24342D01*
X52637Y-24579D01*
X52664Y-24673D01*
X52866Y-24744D01*
X53079Y-24733D01*
X53226Y-24673D01*
X53253Y-24579D01*
X53253Y-25351D01*
X52394Y-28027D01*
X52394Y-24291D01*
X52394Y-24112D01*
X52394Y-23291D01*
X52394Y-23112D01*
X52326Y-22947D01*
X52200Y-22821D01*
X52035Y-22752D01*
X51856Y-22752D01*
X51691Y-22820D01*
X51565Y-22946D01*
X51496Y-23111D01*
X51496Y-23290D01*
X51564Y-23455D01*
X51690Y-23581D01*
X51855Y-23650D01*
X52034Y-23650D01*
X52199Y-23582D01*
X52325Y-23456D01*
X52394Y-23291D01*
X52394Y-24112D01*
X52326Y-23947D01*
X52200Y-23821D01*
X52035Y-23752D01*
X51856Y-23752D01*
X51691Y-23820D01*
X51565Y-23946D01*
X51496Y-24111D01*
X51496Y-24290D01*
X51564Y-24455D01*
X51690Y-24581D01*
X51855Y-24650D01*
X52034Y-24650D01*
X52199Y-24582D01*
X52325Y-24456D01*
X52394Y-24291D01*
X52394Y-28027D01*
X51889Y-29600D01*
X51889Y-26632D01*
X51889Y-26408D01*
X51888Y-26171D01*
X51850Y-26079D01*
X51780Y-26009D01*
X51689Y-25971D01*
X51590Y-25971D01*
X51451Y-25970D01*
X51394Y-26027D01*
X51394Y-24291D01*
X51394Y-24112D01*
X51326Y-23947D01*
X51200Y-23821D01*
X51035Y-23752D01*
X50856Y-23752D01*
X50691Y-23820D01*
X50623Y-23888D01*
X50623Y-23791D01*
X50790Y-23623D01*
X50855Y-23650D01*
X51034Y-23650D01*
X51199Y-23582D01*
X51325Y-23456D01*
X51394Y-23291D01*
X51394Y-23112D01*
X51326Y-22947D01*
X51200Y-22821D01*
X51035Y-22752D01*
X50856Y-22752D01*
X50691Y-22820D01*
X50565Y-22946D01*
X50496Y-23111D01*
X50496Y-23290D01*
X50522Y-23355D01*
X50394Y-23483D01*
X50394Y-23291D01*
X50394Y-23112D01*
X50326Y-22947D01*
X50200Y-22821D01*
X50035Y-22752D01*
X49856Y-22752D01*
X49691Y-22820D01*
X49565Y-22946D01*
X49496Y-23111D01*
X49496Y-23290D01*
X49564Y-23455D01*
X49690Y-23581D01*
X49855Y-23650D01*
X50034Y-23650D01*
X50199Y-23582D01*
X50325Y-23456D01*
X50394Y-23291D01*
X50394Y-23483D01*
X50299Y-23579D01*
X50257Y-23640D01*
X50243Y-23713D01*
X50243Y-23864D01*
X50200Y-23821D01*
X50035Y-23752D01*
X49856Y-23752D01*
X49691Y-23820D01*
X49565Y-23946D01*
X49496Y-24111D01*
X49496Y-24290D01*
X49564Y-24455D01*
X49690Y-24581D01*
X49855Y-24650D01*
X50034Y-24650D01*
X50199Y-24582D01*
X50243Y-24538D01*
X50243Y-24881D01*
X48914Y-26210D01*
X48794Y-26210D01*
X48674Y-26259D01*
X48583Y-26350D01*
X48576Y-26366D01*
X48576Y-26238D01*
X49108Y-25706D01*
X49157Y-25631D01*
X49175Y-25543D01*
X49175Y-24650D01*
X49275Y-24650D01*
X49330Y-24627D01*
X49372Y-24585D01*
X49394Y-24530D01*
X49394Y-24471D01*
X49394Y-23871D01*
X49371Y-23816D01*
X49329Y-23774D01*
X49274Y-23752D01*
X49215Y-23752D01*
X49175Y-23752D01*
X49175Y-23591D01*
X49199Y-23582D01*
X49325Y-23456D01*
X49394Y-23291D01*
X49394Y-23112D01*
X49326Y-22947D01*
X49200Y-22821D01*
X49035Y-22752D01*
X48856Y-22752D01*
X48691Y-22820D01*
X48565Y-22946D01*
X48496Y-23111D01*
X48496Y-23290D01*
X48564Y-23455D01*
X48690Y-23581D01*
X48715Y-23591D01*
X48715Y-23752D01*
X48615Y-23752D01*
X48560Y-23775D01*
X48518Y-23817D01*
X48496Y-23872D01*
X48496Y-23931D01*
X48496Y-24531D01*
X48519Y-24586D01*
X48561Y-24628D01*
X48616Y-24650D01*
X48675Y-24650D01*
X48715Y-24650D01*
X48715Y-25447D01*
X48244Y-25918D01*
X48244Y-24530D01*
X48244Y-24471D01*
X48244Y-23871D01*
X48244Y-23291D01*
X48244Y-23112D01*
X48176Y-22947D01*
X48050Y-22821D01*
X47885Y-22752D01*
X47706Y-22752D01*
X47541Y-22820D01*
X47415Y-22946D01*
X47393Y-22998D01*
X47234Y-22998D01*
X47234Y-22923D01*
X47211Y-22868D01*
X47169Y-22826D01*
X47114Y-22804D01*
X47055Y-22804D01*
X46705Y-22804D01*
X46650Y-22827D01*
X46608Y-22869D01*
X46586Y-22924D01*
X46586Y-22983D01*
X46586Y-23533D01*
X46609Y-23588D01*
X46651Y-23630D01*
X46706Y-23652D01*
X46765Y-23652D01*
X47115Y-23652D01*
X47170Y-23629D01*
X47212Y-23587D01*
X47234Y-23532D01*
X47234Y-23473D01*
X47234Y-23458D01*
X47417Y-23458D01*
X47540Y-23581D01*
X47705Y-23650D01*
X47884Y-23650D01*
X48049Y-23582D01*
X48175Y-23456D01*
X48244Y-23291D01*
X48244Y-23871D01*
X48221Y-23816D01*
X48179Y-23774D01*
X48124Y-23752D01*
X48065Y-23752D01*
X47465Y-23752D01*
X47410Y-23775D01*
X47368Y-23817D01*
X47346Y-23872D01*
X47346Y-23931D01*
X47346Y-24531D01*
X47369Y-24586D01*
X47411Y-24628D01*
X47466Y-24650D01*
X47525Y-24650D01*
X48125Y-24650D01*
X48180Y-24627D01*
X48222Y-24585D01*
X48244Y-24530D01*
X48244Y-25918D01*
X48183Y-25979D01*
X48134Y-26054D01*
X48115Y-26142D01*
X48116Y-26146D01*
X48116Y-26896D01*
X48071Y-26941D01*
X48021Y-27061D01*
X48021Y-27190D01*
X48061Y-27290D01*
X47323Y-27290D01*
X47235Y-27308D01*
X47160Y-27357D01*
X47158Y-27359D01*
X46727Y-27790D01*
X46727Y-27315D01*
X46727Y-27091D01*
X46726Y-26979D01*
X46688Y-26887D01*
X46618Y-26817D01*
X46527Y-26779D01*
X46428Y-26779D01*
X46314Y-26778D01*
X46252Y-26840D01*
X46252Y-27153D01*
X46665Y-27153D01*
X46727Y-27091D01*
X46727Y-27315D01*
X46665Y-27253D01*
X46252Y-27253D01*
X46252Y-27566D01*
X46314Y-27628D01*
X46428Y-27627D01*
X46527Y-27627D01*
X46618Y-27589D01*
X46688Y-27519D01*
X46726Y-27427D01*
X46727Y-27315D01*
X46727Y-27790D01*
X46716Y-27801D01*
X46152Y-27801D01*
X46152Y-27566D01*
X46152Y-27253D01*
X46152Y-27153D01*
X46152Y-26840D01*
X46090Y-26778D01*
X45976Y-26779D01*
X45877Y-26779D01*
X45786Y-26817D01*
X45716Y-26887D01*
X45678Y-26979D01*
X45677Y-27091D01*
X45739Y-27153D01*
X46152Y-27153D01*
X46152Y-27253D01*
X45739Y-27253D01*
X45677Y-27315D01*
X45678Y-27427D01*
X45716Y-27519D01*
X45786Y-27589D01*
X45877Y-27627D01*
X45976Y-27627D01*
X46090Y-27628D01*
X46152Y-27566D01*
X46152Y-27801D01*
X45586Y-27801D01*
X45586Y-27315D01*
X45586Y-27091D01*
X45585Y-26979D01*
X45547Y-26887D01*
X45477Y-26817D01*
X45386Y-26779D01*
X45287Y-26779D01*
X45173Y-26778D01*
X45111Y-26840D01*
X45111Y-27153D01*
X45524Y-27153D01*
X45586Y-27091D01*
X45586Y-27315D01*
X45524Y-27253D01*
X45111Y-27253D01*
X45111Y-27566D01*
X45173Y-27628D01*
X45287Y-27627D01*
X45386Y-27627D01*
X45477Y-27589D01*
X45547Y-27519D01*
X45585Y-27427D01*
X45586Y-27315D01*
X45586Y-27801D01*
X44994Y-27801D01*
X44949Y-27756D01*
X44829Y-27706D01*
X44764Y-27706D01*
X44674Y-27616D01*
X44674Y-27601D01*
X44736Y-27627D01*
X44835Y-27627D01*
X44949Y-27628D01*
X45011Y-27566D01*
X45011Y-27303D01*
X45011Y-27253D01*
X45011Y-27153D01*
X45011Y-27103D01*
X45011Y-26840D01*
X44949Y-26778D01*
X44835Y-26779D01*
X44736Y-26779D01*
X44674Y-26804D01*
X44674Y-26727D01*
X44702Y-26755D01*
X44757Y-26777D01*
X44816Y-26777D01*
X45366Y-26777D01*
X45421Y-26754D01*
X45463Y-26712D01*
X45474Y-26683D01*
X45630Y-26683D01*
X45788Y-26683D01*
X45801Y-26713D01*
X45843Y-26755D01*
X45898Y-26777D01*
X45957Y-26777D01*
X46507Y-26777D01*
X46562Y-26754D01*
X46604Y-26712D01*
X46626Y-26657D01*
X46626Y-26598D01*
X46626Y-26248D01*
X46603Y-26193D01*
X46561Y-26151D01*
X46506Y-26129D01*
X46447Y-26129D01*
X45897Y-26129D01*
X45860Y-26144D01*
X45860Y-26079D01*
X46021Y-25918D01*
X46242Y-25918D01*
X46290Y-25937D01*
X46349Y-25937D01*
X46799Y-25937D01*
X46854Y-25914D01*
X46896Y-25872D01*
X46918Y-25817D01*
X46918Y-25758D01*
X46918Y-25558D01*
X46895Y-25504D01*
X46910Y-25499D01*
X46980Y-25429D01*
X47018Y-25337D01*
X47019Y-25300D01*
X47019Y-25076D01*
X47018Y-25039D01*
X46980Y-24947D01*
X46971Y-24938D01*
X46980Y-24929D01*
X47018Y-24837D01*
X47019Y-24800D01*
X46957Y-24738D01*
X46594Y-24738D01*
X46594Y-24900D01*
X46594Y-24976D01*
X46594Y-25138D01*
X46957Y-25138D01*
X47019Y-25076D01*
X47019Y-25300D01*
X46957Y-25238D01*
X46644Y-25238D01*
X46594Y-25238D01*
X46494Y-25238D01*
X46494Y-25138D01*
X46494Y-24976D01*
X46494Y-24900D01*
X46494Y-24738D01*
X46131Y-24738D01*
X46069Y-24800D01*
X46070Y-24837D01*
X46108Y-24929D01*
X46117Y-24938D01*
X46108Y-24947D01*
X46070Y-25039D01*
X46069Y-25076D01*
X46131Y-25138D01*
X46494Y-25138D01*
X46494Y-25238D01*
X46444Y-25238D01*
X46131Y-25238D01*
X46069Y-25300D01*
X46070Y-25337D01*
X46108Y-25429D01*
X46137Y-25458D01*
X45926Y-25458D01*
X45838Y-25476D01*
X45763Y-25525D01*
X45761Y-25527D01*
X45689Y-25599D01*
X45533Y-25443D01*
X45533Y-24832D01*
X45790Y-24574D01*
X45792Y-24573D01*
X45793Y-24573D01*
X45842Y-24498D01*
X45858Y-24418D01*
X46137Y-24418D01*
X46108Y-24447D01*
X46070Y-24539D01*
X46069Y-24576D01*
X46131Y-24638D01*
X46444Y-24638D01*
X46494Y-24638D01*
X46594Y-24638D01*
X46644Y-24638D01*
X46957Y-24638D01*
X47019Y-24576D01*
X47018Y-24539D01*
X46980Y-24447D01*
X46910Y-24377D01*
X46896Y-24371D01*
X46918Y-24317D01*
X46918Y-24258D01*
X46918Y-24058D01*
X46895Y-24003D01*
X46853Y-23961D01*
X46798Y-23939D01*
X46739Y-23939D01*
X46289Y-23939D01*
X46243Y-23958D01*
X45860Y-23958D01*
X45860Y-23700D01*
X45842Y-23612D01*
X45793Y-23537D01*
X45790Y-23535D01*
X45713Y-23458D01*
X45836Y-23458D01*
X45836Y-23533D01*
X45859Y-23588D01*
X45901Y-23630D01*
X45956Y-23652D01*
X46015Y-23652D01*
X46365Y-23652D01*
X46420Y-23629D01*
X46462Y-23587D01*
X46484Y-23532D01*
X46484Y-23473D01*
X46484Y-22923D01*
X46461Y-22868D01*
X46419Y-22826D01*
X46364Y-22804D01*
X46305Y-22804D01*
X45955Y-22804D01*
X45900Y-22827D01*
X45858Y-22869D01*
X45836Y-22924D01*
X45836Y-22983D01*
X45836Y-22998D01*
X45709Y-22998D01*
X45684Y-22935D01*
X45558Y-22809D01*
X45393Y-22740D01*
X45214Y-22740D01*
X45049Y-22808D01*
X44923Y-22934D01*
X44854Y-23099D01*
X44854Y-23278D01*
X44922Y-23443D01*
X45048Y-23569D01*
X45213Y-23638D01*
X45242Y-23638D01*
X45400Y-23795D01*
X45400Y-24043D01*
X45394Y-24029D01*
X45303Y-23938D01*
X45183Y-23888D01*
X45054Y-23888D01*
X44934Y-23937D01*
X44913Y-23958D01*
X44853Y-23958D01*
X44853Y-23301D01*
X44853Y-23077D01*
X44852Y-22938D01*
X44852Y-22839D01*
X44814Y-22748D01*
X44744Y-22678D01*
X44652Y-22640D01*
X44415Y-22639D01*
X44353Y-22701D01*
X44353Y-23139D01*
X44791Y-23139D01*
X44853Y-23077D01*
X44853Y-23301D01*
X44791Y-23239D01*
X44353Y-23239D01*
X44353Y-23677D01*
X44415Y-23739D01*
X44652Y-23738D01*
X44744Y-23700D01*
X44814Y-23630D01*
X44852Y-23539D01*
X44852Y-23440D01*
X44853Y-23301D01*
X44853Y-23958D01*
X44745Y-23958D01*
X44698Y-23939D01*
X44639Y-23939D01*
X44189Y-23939D01*
X44134Y-23962D01*
X44092Y-24004D01*
X44070Y-24059D01*
X44070Y-24118D01*
X44070Y-24318D01*
X44093Y-24373D01*
X44135Y-24415D01*
X44190Y-24437D01*
X44249Y-24437D01*
X44699Y-24437D01*
X44744Y-24418D01*
X44863Y-24418D01*
X44903Y-24458D01*
X44745Y-24458D01*
X44698Y-24439D01*
X44639Y-24439D01*
X44189Y-24439D01*
X44134Y-24462D01*
X44092Y-24504D01*
X44070Y-24559D01*
X44070Y-24618D01*
X44070Y-24818D01*
X44092Y-24871D01*
X44078Y-24877D01*
X44008Y-24947D01*
X43970Y-25039D01*
X43969Y-25076D01*
X44031Y-25138D01*
X44344Y-25138D01*
X44394Y-25138D01*
X44494Y-25138D01*
X44544Y-25138D01*
X44857Y-25138D01*
X44919Y-25076D01*
X44918Y-25039D01*
X44880Y-24947D01*
X44851Y-24918D01*
X45073Y-24918D01*
X45073Y-25534D01*
X45072Y-25539D01*
X45091Y-25627D01*
X45140Y-25702D01*
X45400Y-25961D01*
X45400Y-25979D01*
X45399Y-25984D01*
X45400Y-25988D01*
X45400Y-26143D01*
X45365Y-26129D01*
X45306Y-26129D01*
X44756Y-26129D01*
X44701Y-26152D01*
X44674Y-26179D01*
X44674Y-25937D01*
X44699Y-25937D01*
X44754Y-25914D01*
X44796Y-25872D01*
X44818Y-25817D01*
X44818Y-25758D01*
X44818Y-25558D01*
X44795Y-25504D01*
X44810Y-25499D01*
X44880Y-25429D01*
X44918Y-25337D01*
X44919Y-25300D01*
X44857Y-25238D01*
X44544Y-25238D01*
X44494Y-25238D01*
X44394Y-25238D01*
X44344Y-25238D01*
X44031Y-25238D01*
X43969Y-25300D01*
X43970Y-25337D01*
X44008Y-25429D01*
X44078Y-25499D01*
X44091Y-25504D01*
X44070Y-25559D01*
X44070Y-25618D01*
X44070Y-25818D01*
X44093Y-25873D01*
X44135Y-25915D01*
X44190Y-25937D01*
X44214Y-25937D01*
X44214Y-27707D01*
X44213Y-27712D01*
X44232Y-27800D01*
X44281Y-27875D01*
X44439Y-28033D01*
X44439Y-28095D01*
X44488Y-28215D01*
X44579Y-28306D01*
X44699Y-28356D01*
X44828Y-28356D01*
X44948Y-28307D01*
X44994Y-28261D01*
X46807Y-28261D01*
X46812Y-28262D01*
X46812Y-28261D01*
X46900Y-28243D01*
X46975Y-28194D01*
X47418Y-27750D01*
X48061Y-27750D01*
X48021Y-27848D01*
X48021Y-27977D01*
X48070Y-28097D01*
X48116Y-28143D01*
X48116Y-29708D01*
X47623Y-30201D01*
X47623Y-29948D01*
X47640Y-29931D01*
X47662Y-29876D01*
X47662Y-29817D01*
X47662Y-29317D01*
X47639Y-29262D01*
X47597Y-29220D01*
X47542Y-29198D01*
X47483Y-29198D01*
X47408Y-29198D01*
X47442Y-29164D01*
X47667Y-29164D01*
X47722Y-29141D01*
X47764Y-29099D01*
X47786Y-29044D01*
X47786Y-28985D01*
X47786Y-28435D01*
X47763Y-28380D01*
X47721Y-28338D01*
X47666Y-28316D01*
X47607Y-28316D01*
X47257Y-28316D01*
X47202Y-28339D01*
X47160Y-28381D01*
X47138Y-28436D01*
X47138Y-28495D01*
X47138Y-28931D01*
X47094Y-28975D01*
X47094Y-28971D01*
X47052Y-28910D01*
X47052Y-28909D01*
X47036Y-28893D01*
X47036Y-28435D01*
X47013Y-28380D01*
X46971Y-28338D01*
X46916Y-28316D01*
X46857Y-28316D01*
X46507Y-28316D01*
X46452Y-28339D01*
X46410Y-28381D01*
X46388Y-28436D01*
X46388Y-28495D01*
X46388Y-29045D01*
X46411Y-29100D01*
X46445Y-29134D01*
X46442Y-29136D01*
X46372Y-29206D01*
X46334Y-29297D01*
X46334Y-29396D01*
X46333Y-29485D01*
X46395Y-29547D01*
X46563Y-29547D01*
X46623Y-29547D01*
X46689Y-29547D01*
X46689Y-29877D01*
X46703Y-29910D01*
X46703Y-30035D01*
X46765Y-30097D01*
X46792Y-30096D01*
X46884Y-30058D01*
X46946Y-29996D01*
X47028Y-29996D01*
X47048Y-29987D01*
X47069Y-29996D01*
X47128Y-29996D01*
X47243Y-29996D01*
X47243Y-30311D01*
X47221Y-30345D01*
X47210Y-30396D01*
X47166Y-30288D01*
X47075Y-30197D01*
X46955Y-30147D01*
X46826Y-30147D01*
X46706Y-30196D01*
X46623Y-30279D01*
X46623Y-30035D01*
X46623Y-29647D01*
X46395Y-29647D01*
X46333Y-29709D01*
X46334Y-29798D01*
X46334Y-29897D01*
X46372Y-29988D01*
X46442Y-30058D01*
X46534Y-30096D01*
X46561Y-30097D01*
X46623Y-30035D01*
X46623Y-30279D01*
X46620Y-30282D01*
X46615Y-30282D01*
X46542Y-30296D01*
X46480Y-30338D01*
X45693Y-31126D01*
X45651Y-31187D01*
X45637Y-31260D01*
X45637Y-31348D01*
X45522Y-31348D01*
X45467Y-31371D01*
X45425Y-31413D01*
X45403Y-31468D01*
X45403Y-31527D01*
X45403Y-31877D01*
X45426Y-31932D01*
X45468Y-31974D01*
X45523Y-31996D01*
X45582Y-31996D01*
X46132Y-31996D01*
X46187Y-31973D01*
X46229Y-31931D01*
X46251Y-31876D01*
X46251Y-31817D01*
X46251Y-31467D01*
X46228Y-31412D01*
X46186Y-31370D01*
X46131Y-31348D01*
X46072Y-31348D01*
X46017Y-31348D01*
X46017Y-31338D01*
X46352Y-31003D01*
X46334Y-31047D01*
X46334Y-31146D01*
X46333Y-31235D01*
X46395Y-31297D01*
X46623Y-31297D01*
X46623Y-30909D01*
X46561Y-30847D01*
X46534Y-30848D01*
X46489Y-30866D01*
X46656Y-30698D01*
X46705Y-30747D01*
X46825Y-30797D01*
X46954Y-30797D01*
X46975Y-30788D01*
X46988Y-30800D01*
X46988Y-30948D01*
X46968Y-30948D01*
X46946Y-30948D01*
X46884Y-30886D01*
X46792Y-30848D01*
X46765Y-30847D01*
X46703Y-30909D01*
X46703Y-31033D01*
X46689Y-31068D01*
X46689Y-31127D01*
X46689Y-31397D01*
X46623Y-31397D01*
X46563Y-31397D01*
X46395Y-31397D01*
X46333Y-31459D01*
X46334Y-31548D01*
X46334Y-31647D01*
X46372Y-31738D01*
X46442Y-31808D01*
X46534Y-31846D01*
X46561Y-31847D01*
X46563Y-31845D01*
X46563Y-31847D01*
X46623Y-31847D01*
X46663Y-31847D01*
X46623Y-31887D01*
X46480Y-32031D01*
X46438Y-32092D01*
X46437Y-32096D01*
X46309Y-32096D01*
X46254Y-32119D01*
X46219Y-32153D01*
X46186Y-32120D01*
X46131Y-32098D01*
X46072Y-32098D01*
X45522Y-32098D01*
X45467Y-32121D01*
X45425Y-32163D01*
X45403Y-32218D01*
X45403Y-32277D01*
X45403Y-32627D01*
X45426Y-32682D01*
X45468Y-32724D01*
X45523Y-32746D01*
X45582Y-32746D01*
X46132Y-32746D01*
X46187Y-32723D01*
X46221Y-32688D01*
X46255Y-32722D01*
X46310Y-32744D01*
X46369Y-32744D01*
X46919Y-32744D01*
X46974Y-32721D01*
X47016Y-32679D01*
X47027Y-32650D01*
X47040Y-32680D01*
X47082Y-32722D01*
X47137Y-32744D01*
X47196Y-32744D01*
X47536Y-32744D01*
X47545Y-32753D01*
X47491Y-32807D01*
X47491Y-33120D01*
X47904Y-33120D01*
X47966Y-33058D01*
X47965Y-32986D01*
X48859Y-32986D01*
X49483Y-32986D01*
X49488Y-32987D01*
X49488Y-32986D01*
X49576Y-32968D01*
X49651Y-32919D01*
X50121Y-32447D01*
X50123Y-32446D01*
X50124Y-32446D01*
X50172Y-32371D01*
X50173Y-32371D01*
X50187Y-32298D01*
X50191Y-32284D01*
X50190Y-32283D01*
X50191Y-32283D01*
X50191Y-28969D01*
X50291Y-28969D01*
X50346Y-28946D01*
X50388Y-28904D01*
X50410Y-28849D01*
X50410Y-28790D01*
X50410Y-28190D01*
X50387Y-28135D01*
X50345Y-28093D01*
X50290Y-28071D01*
X50231Y-28071D01*
X49631Y-28071D01*
X49576Y-28094D01*
X49534Y-28136D01*
X49512Y-28191D01*
X49512Y-28250D01*
X49512Y-28850D01*
X49535Y-28905D01*
X49577Y-28947D01*
X49632Y-28969D01*
X49691Y-28969D01*
X49731Y-28969D01*
X49731Y-32187D01*
X49392Y-32526D01*
X48859Y-32526D01*
X48683Y-32526D01*
X48763Y-32493D01*
X48833Y-32423D01*
X48871Y-32331D01*
X48872Y-32219D01*
X48872Y-31995D01*
X48871Y-31883D01*
X48833Y-31791D01*
X48763Y-31721D01*
X48672Y-31683D01*
X48573Y-31683D01*
X48459Y-31682D01*
X48397Y-31744D01*
X48397Y-32057D01*
X48810Y-32057D01*
X48872Y-31995D01*
X48872Y-32219D01*
X48810Y-32157D01*
X48447Y-32157D01*
X48397Y-32157D01*
X48297Y-32157D01*
X48297Y-32057D01*
X48297Y-31744D01*
X48235Y-31682D01*
X48121Y-31683D01*
X48022Y-31683D01*
X47931Y-31721D01*
X47861Y-31791D01*
X47823Y-31883D01*
X47822Y-31995D01*
X47884Y-32057D01*
X48297Y-32057D01*
X48297Y-32157D01*
X48247Y-32157D01*
X47884Y-32157D01*
X47853Y-32187D01*
X47842Y-32160D01*
X47800Y-32118D01*
X47745Y-32096D01*
X47686Y-32096D01*
X47136Y-32096D01*
X47081Y-32119D01*
X47039Y-32161D01*
X47027Y-32189D01*
X47015Y-32160D01*
X46973Y-32118D01*
X46942Y-32105D01*
X47052Y-31996D01*
X47052Y-31995D01*
X47068Y-31970D01*
X47093Y-31934D01*
X47094Y-31934D01*
X47107Y-31862D01*
X47108Y-31861D01*
X47108Y-31746D01*
X47128Y-31746D01*
X47288Y-31746D01*
X47305Y-31738D01*
X47324Y-31746D01*
X47383Y-31746D01*
X47543Y-31746D01*
X47598Y-31723D01*
X47640Y-31681D01*
X47662Y-31626D01*
X47662Y-31567D01*
X47662Y-31067D01*
X47639Y-31012D01*
X47623Y-30996D01*
X47623Y-30664D01*
X48006Y-31047D01*
X47987Y-31056D01*
X47945Y-31098D01*
X47923Y-31153D01*
X47923Y-31212D01*
X47923Y-31562D01*
X47946Y-31617D01*
X47988Y-31659D01*
X48043Y-31681D01*
X48102Y-31681D01*
X48652Y-31681D01*
X48707Y-31658D01*
X48749Y-31616D01*
X48760Y-31587D01*
X49071Y-31587D01*
X49076Y-31588D01*
X49076Y-31587D01*
X49164Y-31569D01*
X49239Y-31520D01*
X49252Y-31506D01*
X49316Y-31506D01*
X49436Y-31457D01*
X49527Y-31366D01*
X49577Y-31246D01*
X49577Y-31117D01*
X49528Y-30997D01*
X49437Y-30906D01*
X49317Y-30856D01*
X49188Y-30856D01*
X49068Y-30905D01*
X48977Y-30996D01*
X48927Y-31116D01*
X48927Y-31127D01*
X48760Y-31127D01*
X48748Y-31097D01*
X48706Y-31055D01*
X48651Y-31033D01*
X48592Y-31033D01*
X48570Y-31033D01*
X48559Y-30975D01*
X48510Y-30900D01*
X48507Y-30898D01*
X48042Y-30432D01*
X48506Y-29968D01*
X48508Y-29967D01*
X48509Y-29967D01*
X48558Y-29892D01*
X48576Y-29804D01*
X48576Y-28143D01*
X48621Y-28098D01*
X48671Y-27978D01*
X48671Y-27849D01*
X48630Y-27750D01*
X49570Y-27750D01*
X49580Y-27774D01*
X49706Y-27900D01*
X49871Y-27969D01*
X50050Y-27969D01*
X50215Y-27901D01*
X50341Y-27775D01*
X50410Y-27610D01*
X50410Y-27431D01*
X50342Y-27266D01*
X50269Y-27193D01*
X50269Y-26898D01*
X49961Y-26591D01*
X49890Y-26661D01*
X49890Y-26520D01*
X49583Y-26212D01*
X49489Y-26239D01*
X49418Y-26441D01*
X49429Y-26654D01*
X49489Y-26801D01*
X49583Y-26828D01*
X49890Y-26520D01*
X49890Y-26661D01*
X49653Y-26898D01*
X49680Y-26992D01*
X49882Y-27063D01*
X50095Y-27052D01*
X50242Y-26992D01*
X50269Y-26898D01*
X50269Y-27193D01*
X50216Y-27140D01*
X50051Y-27071D01*
X49872Y-27071D01*
X49707Y-27139D01*
X49581Y-27265D01*
X49570Y-27290D01*
X48629Y-27290D01*
X48671Y-27191D01*
X48671Y-27062D01*
X48622Y-26942D01*
X48576Y-26896D01*
X48576Y-26704D01*
X48582Y-26719D01*
X48673Y-26810D01*
X48793Y-26860D01*
X48922Y-26860D01*
X49042Y-26811D01*
X49133Y-26720D01*
X49183Y-26600D01*
X49183Y-26478D01*
X50567Y-25095D01*
X50567Y-25094D01*
X50609Y-25033D01*
X50622Y-24960D01*
X50623Y-24960D01*
X50623Y-24514D01*
X50690Y-24581D01*
X50855Y-24650D01*
X51034Y-24650D01*
X51199Y-24582D01*
X51325Y-24456D01*
X51394Y-24291D01*
X51394Y-26027D01*
X51389Y-26032D01*
X51389Y-26470D01*
X51827Y-26470D01*
X51889Y-26408D01*
X51889Y-26632D01*
X51827Y-26570D01*
X51389Y-26570D01*
X51389Y-27008D01*
X51451Y-27070D01*
X51590Y-27069D01*
X51689Y-27069D01*
X51780Y-27031D01*
X51850Y-26961D01*
X51888Y-26869D01*
X51889Y-26632D01*
X51889Y-29600D01*
X51788Y-29915D01*
X51788Y-28610D01*
X51788Y-28431D01*
X51788Y-27610D01*
X51788Y-27431D01*
X51720Y-27266D01*
X51594Y-27140D01*
X51429Y-27071D01*
X51289Y-27071D01*
X51289Y-27008D01*
X51289Y-26570D01*
X51289Y-26470D01*
X51289Y-26032D01*
X51227Y-25970D01*
X51088Y-25971D01*
X50989Y-25971D01*
X50898Y-26009D01*
X50828Y-26079D01*
X50790Y-26171D01*
X50789Y-26408D01*
X50851Y-26470D01*
X51289Y-26470D01*
X51289Y-26570D01*
X50851Y-26570D01*
X50789Y-26632D01*
X50790Y-26869D01*
X50828Y-26961D01*
X50898Y-27031D01*
X50989Y-27069D01*
X51088Y-27069D01*
X51227Y-27070D01*
X51289Y-27008D01*
X51289Y-27071D01*
X51250Y-27071D01*
X51085Y-27139D01*
X50959Y-27265D01*
X50890Y-27430D01*
X50890Y-27609D01*
X50958Y-27774D01*
X51084Y-27900D01*
X51249Y-27969D01*
X51428Y-27969D01*
X51593Y-27901D01*
X51719Y-27775D01*
X51788Y-27610D01*
X51788Y-28431D01*
X51720Y-28266D01*
X51594Y-28140D01*
X51429Y-28071D01*
X51250Y-28071D01*
X51085Y-28139D01*
X50959Y-28265D01*
X50890Y-28430D01*
X50890Y-28609D01*
X50958Y-28774D01*
X51084Y-28900D01*
X51249Y-28969D01*
X51428Y-28969D01*
X51593Y-28901D01*
X51719Y-28775D01*
X51788Y-28610D01*
X51788Y-29915D01*
X50810Y-32962D01*
X50808Y-32974D01*
X50803Y-32988D01*
X50721Y-33397D01*
X50516Y-33702D01*
X50504Y-33710D01*
X50504Y-26599D01*
X50493Y-26386D01*
X50433Y-26239D01*
X50339Y-26212D01*
X50269Y-26282D01*
X50269Y-26142D01*
X50242Y-26048D01*
X50040Y-25977D01*
X49827Y-25988D01*
X49680Y-26048D01*
X49653Y-26142D01*
X49961Y-26449D01*
X50269Y-26142D01*
X50269Y-26282D01*
X50032Y-26520D01*
X50339Y-26828D01*
X50433Y-26801D01*
X50504Y-26599D01*
X50504Y-33710D01*
X50208Y-33909D01*
X49799Y-33991D01*
X49795Y-33992D01*
X49648Y-34021D01*
X49567Y-34055D01*
X49439Y-34140D01*
X49377Y-34201D01*
X49376Y-34202D01*
X49376Y-34203D01*
X49292Y-34330D01*
X49291Y-34330D01*
X49291Y-34331D01*
X49258Y-34412D01*
X49228Y-34562D01*
X49228Y-34650D01*
X49258Y-34800D01*
X49291Y-34881D01*
X49292Y-34882D01*
X49376Y-35009D01*
X49377Y-35011D01*
X49438Y-35071D01*
X49439Y-35072D01*
X49567Y-35157D01*
X49648Y-35191D01*
X49795Y-35219D01*
X49798Y-35220D01*
X49799Y-35221D01*
X49906Y-35241D01*
X49959Y-35277D01*
X49994Y-35330D01*
X50005Y-35384D01*
X48891Y-39075D01*
X48098Y-39018D01*
X48098Y-34511D01*
X48097Y-34510D01*
X48098Y-34510D01*
X48089Y-34424D01*
X48089Y-34423D01*
X47977Y-34055D01*
X47977Y-34054D01*
X47962Y-34027D01*
X47936Y-33977D01*
X47933Y-33974D01*
X47690Y-33679D01*
X47622Y-33623D01*
X47617Y-33621D01*
X47567Y-33594D01*
X47667Y-33594D01*
X47766Y-33594D01*
X47857Y-33556D01*
X47927Y-33486D01*
X47965Y-33394D01*
X47966Y-33282D01*
X47904Y-33220D01*
X47541Y-33220D01*
X47491Y-33220D01*
X47391Y-33220D01*
X47391Y-33120D01*
X47391Y-32807D01*
X47329Y-32745D01*
X47215Y-32746D01*
X47116Y-32746D01*
X47027Y-32782D01*
X46939Y-32746D01*
X46840Y-32746D01*
X46726Y-32745D01*
X46664Y-32807D01*
X46664Y-33120D01*
X46978Y-33120D01*
X47077Y-33120D01*
X47391Y-33120D01*
X47391Y-33220D01*
X47341Y-33220D01*
X47077Y-33220D01*
X46978Y-33220D01*
X46714Y-33220D01*
X46664Y-33220D01*
X46564Y-33220D01*
X46564Y-33120D01*
X46564Y-32807D01*
X46502Y-32745D01*
X46388Y-32746D01*
X46289Y-32746D01*
X46198Y-32784D01*
X46128Y-32854D01*
X46090Y-32946D01*
X46089Y-33058D01*
X46151Y-33120D01*
X46564Y-33120D01*
X46564Y-33220D01*
X46514Y-33220D01*
X46151Y-33220D01*
X46089Y-33282D01*
X46090Y-33394D01*
X46128Y-33486D01*
X46198Y-33556D01*
X46241Y-33573D01*
X45982Y-33787D01*
X45926Y-33855D01*
X45924Y-33859D01*
X45745Y-34194D01*
X45744Y-34196D01*
X45726Y-34254D01*
X45719Y-34279D01*
X45719Y-34280D01*
X45682Y-34663D01*
X45691Y-34751D01*
X45691Y-34752D01*
X45802Y-35118D01*
X45803Y-35120D01*
X45844Y-35197D01*
X46090Y-35495D01*
X46158Y-35551D01*
X46162Y-35552D01*
X46496Y-35731D01*
X46497Y-35732D01*
X46498Y-35733D01*
X46556Y-35750D01*
X46581Y-35758D01*
X46581Y-35757D01*
X46582Y-35758D01*
X46966Y-35795D01*
X47053Y-35786D01*
X47421Y-35674D01*
X47422Y-35674D01*
X47423Y-35674D01*
X47499Y-35633D01*
X47500Y-35633D01*
X47798Y-35387D01*
X47853Y-35319D01*
X47854Y-35319D01*
X47855Y-35314D01*
X48034Y-34980D01*
X48035Y-34980D01*
X48036Y-34979D01*
X48053Y-34921D01*
X48061Y-34896D01*
X48060Y-34895D01*
X48061Y-34895D01*
X48098Y-34511D01*
X48098Y-39018D01*
X43768Y-38707D01*
X43768Y-36165D01*
X43845Y-35776D01*
X44052Y-35468D01*
X44357Y-35263D01*
X44767Y-35182D01*
X44768Y-35182D01*
X44918Y-35152D01*
X44999Y-35119D01*
X44999Y-35118D01*
X45000Y-35118D01*
X45127Y-35034D01*
X45127Y-35033D01*
X45129Y-35033D01*
X45189Y-34972D01*
X45190Y-34971D01*
X45275Y-34843D01*
X45309Y-34762D01*
X45338Y-34612D01*
X45338Y-34610D01*
X45338Y-34524D01*
X45338Y-34522D01*
X45309Y-34372D01*
X45275Y-34291D01*
X45190Y-34163D01*
X45189Y-34162D01*
X45129Y-34101D01*
X45127Y-34100D01*
X45000Y-34016D01*
X44999Y-34015D01*
X44918Y-33982D01*
X44768Y-33952D01*
X44767Y-33952D01*
X44357Y-33870D01*
X44052Y-33665D01*
X43845Y-33357D01*
X43768Y-32968D01*
X43768Y-23572D01*
X43792Y-23630D01*
X43862Y-23700D01*
X43954Y-23738D01*
X44191Y-23739D01*
X44253Y-23677D01*
X44253Y-23289D01*
X44253Y-23239D01*
X44253Y-23139D01*
X44253Y-23089D01*
X44253Y-22701D01*
X44191Y-22639D01*
X43954Y-22640D01*
X43862Y-22678D01*
X43792Y-22748D01*
X43768Y-22805D01*
X43768Y-22607D01*
X54134Y-22607D01*
M02*
