M48
;DRILL file {Pcbnew (2012-01-19 BZR 3256)-stable} date 21-08-2012 09:31:04
;FORMAT={2:4/ absolute / inch / suppress leading zeros}
FMAT,2
INCH,TZ
T1C0.025
T2C0.040
%
G90
G05
M72
T1
X44094Y-29370
X44764Y-28031
X45118Y-24213
X46535Y-37165
X46890Y-30472
X47480Y-26614
X48346Y-27126
X48346Y-27913
X48858Y-26535
X48898Y-30354
X49252Y-31181
T2
X44303Y-23189
X45303Y-23189
X47795Y-23201
X47795Y-24201
X48945Y-23201
X48945Y-24201
X49945Y-23201
X49945Y-24201
X49961Y-26520
X49961Y-27520
X49961Y-28520
X50945Y-23201
X50945Y-24201
X51339Y-26520
X51339Y-27520
X51339Y-28520
X51945Y-23201
X51945Y-24201
X52945Y-23201
X52945Y-24201
T0
M30
