G04 (created by PCBNEW-RS274X (2012-01-19 BZR 3256)-stable) date 21-08-2012 09:30:58*
G01*
G70*
G90*
%MOIN*%
G04 Gerber Fmt 3.4, Leading zero omitted, Abs format*
%FSLAX34Y34*%
G04 APERTURE LIST*
%ADD10C,0.006000*%
%ADD11C,0.015000*%
%ADD12R,0.055000X0.035000*%
%ADD13R,0.086600X0.055100*%
%ADD14R,0.045000X0.020000*%
G04 APERTURE END LIST*
G54D10*
G54D11*
X50237Y-35394D02*
X50235Y-35360D01*
X50231Y-35326D01*
X50223Y-35293D01*
X50213Y-35260D01*
X50200Y-35228D01*
X50184Y-35198D01*
X50165Y-35169D01*
X50144Y-35141D01*
X50121Y-35116D01*
X50096Y-35093D01*
X50068Y-35072D01*
X50040Y-35053D01*
X50009Y-35037D01*
X49977Y-35024D01*
X49944Y-35014D01*
X49911Y-35006D01*
X49877Y-35002D01*
X49843Y-35000D01*
X49449Y-34606D02*
X49451Y-34640D01*
X49455Y-34674D01*
X49463Y-34707D01*
X49473Y-34740D01*
X49486Y-34772D01*
X49502Y-34802D01*
X49521Y-34831D01*
X49542Y-34859D01*
X49565Y-34884D01*
X49590Y-34907D01*
X49618Y-34928D01*
X49647Y-34947D01*
X49677Y-34963D01*
X49709Y-34976D01*
X49742Y-34986D01*
X49775Y-34994D01*
X49809Y-34998D01*
X49843Y-35000D01*
X49843Y-34212D02*
X49809Y-34214D01*
X49775Y-34218D01*
X49742Y-34226D01*
X49709Y-34236D01*
X49677Y-34249D01*
X49647Y-34265D01*
X49618Y-34284D01*
X49590Y-34305D01*
X49565Y-34328D01*
X49542Y-34353D01*
X49521Y-34381D01*
X49502Y-34410D01*
X49486Y-34440D01*
X49473Y-34472D01*
X49463Y-34505D01*
X49455Y-34538D01*
X49451Y-34572D01*
X49449Y-34606D01*
X49843Y-34212D02*
X49945Y-34207D01*
X50048Y-34194D01*
X50148Y-34171D01*
X50246Y-34140D01*
X50342Y-34101D01*
X50433Y-34053D01*
X50520Y-33998D01*
X50602Y-33935D01*
X50678Y-33866D01*
X50747Y-33790D01*
X50810Y-33708D01*
X50865Y-33621D01*
X50913Y-33530D01*
X50952Y-33434D01*
X50983Y-33336D01*
X51006Y-33236D01*
X51019Y-33133D01*
X51024Y-33031D01*
X44724Y-34961D02*
X44622Y-34966D01*
X44519Y-34979D01*
X44419Y-35002D01*
X44321Y-35033D01*
X44225Y-35072D01*
X44134Y-35120D01*
X44047Y-35175D01*
X43965Y-35238D01*
X43889Y-35307D01*
X43820Y-35383D01*
X43757Y-35465D01*
X43702Y-35552D01*
X43654Y-35643D01*
X43615Y-35739D01*
X43584Y-35837D01*
X43561Y-35937D01*
X43548Y-36040D01*
X43543Y-36142D01*
X44724Y-34961D02*
X44758Y-34959D01*
X44792Y-34955D01*
X44825Y-34947D01*
X44858Y-34937D01*
X44890Y-34924D01*
X44921Y-34908D01*
X44949Y-34889D01*
X44977Y-34868D01*
X45002Y-34845D01*
X45025Y-34820D01*
X45046Y-34792D01*
X45065Y-34763D01*
X45081Y-34733D01*
X45094Y-34701D01*
X45104Y-34668D01*
X45112Y-34635D01*
X45116Y-34601D01*
X45118Y-34567D01*
X45118Y-34567D02*
X45116Y-34533D01*
X45112Y-34499D01*
X45104Y-34466D01*
X45094Y-34433D01*
X45081Y-34401D01*
X45065Y-34371D01*
X45046Y-34342D01*
X45025Y-34314D01*
X45002Y-34289D01*
X44977Y-34266D01*
X44949Y-34245D01*
X44921Y-34226D01*
X44890Y-34210D01*
X44858Y-34197D01*
X44825Y-34187D01*
X44792Y-34179D01*
X44758Y-34175D01*
X44724Y-34173D01*
X43543Y-32992D02*
X43548Y-33094D01*
X43561Y-33197D01*
X43584Y-33297D01*
X43615Y-33395D01*
X43654Y-33491D01*
X43702Y-33582D01*
X43757Y-33669D01*
X43820Y-33751D01*
X43889Y-33827D01*
X43965Y-33896D01*
X44047Y-33959D01*
X44134Y-34014D01*
X44225Y-34062D01*
X44321Y-34101D01*
X44419Y-34132D01*
X44519Y-34155D01*
X44622Y-34168D01*
X44724Y-34173D01*
X51024Y-33031D02*
X54449Y-22382D01*
X43543Y-32992D02*
X43543Y-22382D01*
X43543Y-22382D02*
X54449Y-22382D01*
X47878Y-34587D02*
X47859Y-34778D01*
X47803Y-34963D01*
X47712Y-35133D01*
X47591Y-35283D01*
X47442Y-35406D01*
X47272Y-35497D01*
X47088Y-35554D01*
X46896Y-35574D01*
X46705Y-35557D01*
X46520Y-35503D01*
X46350Y-35413D01*
X46199Y-35292D01*
X46075Y-35145D01*
X45982Y-34976D01*
X45924Y-34792D01*
X45903Y-34600D01*
X45919Y-34409D01*
X45972Y-34224D01*
X46060Y-34052D01*
X46180Y-33901D01*
X46327Y-33776D01*
X46495Y-33682D01*
X46678Y-33623D01*
X46870Y-33600D01*
X47061Y-33615D01*
X47247Y-33666D01*
X47419Y-33753D01*
X47571Y-33872D01*
X47697Y-34018D01*
X47792Y-34186D01*
X47853Y-34369D01*
X47877Y-34560D01*
X47878Y-34587D01*
X50236Y-35394D02*
X49055Y-39311D01*
X43543Y-38917D02*
X43543Y-36102D01*
X43543Y-38917D02*
X49055Y-39311D01*
X74112Y-52578D02*
X74092Y-52772D01*
X74036Y-52960D01*
X73944Y-53133D01*
X73820Y-53284D01*
X73669Y-53409D01*
X73497Y-53502D01*
X73310Y-53560D01*
X73116Y-53580D01*
X72922Y-53563D01*
X72734Y-53507D01*
X72560Y-53417D01*
X72408Y-53294D01*
X72282Y-53144D01*
X72188Y-52973D01*
X72128Y-52786D01*
X72107Y-52592D01*
X72123Y-52397D01*
X72177Y-52209D01*
X72266Y-52035D01*
X72388Y-51882D01*
X72537Y-51755D01*
X72708Y-51659D01*
X72894Y-51599D01*
X73088Y-51576D01*
X73283Y-51591D01*
X73471Y-51643D01*
X73646Y-51732D01*
X73800Y-51852D01*
X73928Y-52000D01*
X74025Y-52171D01*
X74087Y-52356D01*
X74111Y-52550D01*
X74112Y-52578D01*
X68778Y-52184D02*
X67597Y-38011D01*
X69566Y-52184D02*
X68778Y-52184D01*
X69566Y-52971D02*
X69566Y-52184D01*
X68778Y-52971D02*
X69566Y-52971D01*
X70353Y-59664D02*
X68778Y-52971D01*
X76653Y-59664D02*
X70353Y-59664D01*
X78227Y-52971D02*
X76653Y-59664D01*
X77440Y-52971D02*
X78227Y-52971D01*
X77440Y-52184D02*
X77440Y-52971D01*
X78227Y-52184D02*
X77440Y-52184D01*
X79015Y-41948D02*
X78227Y-52184D01*
X75471Y-41948D02*
X79015Y-41948D01*
X75471Y-38011D02*
X75471Y-41948D01*
X67597Y-38011D02*
X75471Y-38011D01*
G54D12*
X44252Y-36830D03*
X44252Y-37580D03*
X49016Y-28643D03*
X49016Y-27893D03*
X48346Y-32420D03*
X48346Y-33170D03*
X49252Y-31790D03*
X49252Y-32540D03*
X48780Y-37580D03*
X48780Y-36830D03*
X44724Y-30531D03*
X44724Y-31281D03*
X44724Y-31948D03*
X44724Y-32698D03*
G54D13*
X45276Y-37698D03*
X47756Y-37698D03*
X45276Y-36714D03*
X47756Y-36714D03*
G54D14*
X48108Y-31776D03*
X48108Y-31276D03*
X48108Y-30776D03*
X48108Y-30276D03*
X48108Y-29776D03*
X48108Y-29276D03*
X48108Y-28776D03*
X46008Y-28776D03*
X46008Y-29276D03*
X46008Y-29776D03*
X46008Y-30276D03*
X46008Y-30776D03*
X46008Y-31276D03*
X46008Y-31776D03*
M02*
