G04 (created by PCBNEW-RS274X (2012-01-19 BZR 3256)-stable) date 21-08-2012 21:42:41*
G01*
G70*
G90*
%MOIN*%
G04 Gerber Fmt 3.4, Leading zero omitted, Abs format*
%FSLAX34Y34*%
G04 APERTURE LIST*
%ADD10C,0.006000*%
%ADD11C,0.015000*%
%ADD12R,0.055000X0.035000*%
%ADD13R,0.060000X0.060000*%
%ADD14C,0.060000*%
%ADD15R,0.086600X0.055100*%
%ADD16R,0.045000X0.020000*%
%ADD17C,0.035000*%
%ADD18C,0.016000*%
%ADD19C,0.008000*%
%ADD20C,0.010000*%
G04 APERTURE END LIST*
G54D10*
G54D11*
X50413Y-33996D02*
X50610Y-33819D01*
X50256Y-34114D02*
X50413Y-33996D01*
X50197Y-34154D02*
X50256Y-34114D01*
X50098Y-34193D02*
X50197Y-34154D01*
X49980Y-34213D02*
X50098Y-34193D01*
X49843Y-34213D02*
X49980Y-34213D01*
X50768Y-33602D02*
X50610Y-33819D01*
X50906Y-33327D02*
X50768Y-33602D01*
X51024Y-33031D02*
X50906Y-33327D01*
X49843Y-34212D02*
X49809Y-34214D01*
X49775Y-34218D01*
X49742Y-34226D01*
X49709Y-34236D01*
X49677Y-34249D01*
X49647Y-34265D01*
X49618Y-34284D01*
X49590Y-34305D01*
X49565Y-34328D01*
X49542Y-34353D01*
X49521Y-34381D01*
X49502Y-34410D01*
X49486Y-34440D01*
X49473Y-34472D01*
X49463Y-34505D01*
X49455Y-34538D01*
X49451Y-34572D01*
X49449Y-34606D01*
X50237Y-35394D02*
X50235Y-35360D01*
X50231Y-35326D01*
X50223Y-35293D01*
X50213Y-35260D01*
X50200Y-35228D01*
X50184Y-35198D01*
X50165Y-35169D01*
X50144Y-35141D01*
X50121Y-35116D01*
X50096Y-35093D01*
X50068Y-35072D01*
X50040Y-35053D01*
X50009Y-35037D01*
X49977Y-35024D01*
X49944Y-35014D01*
X49911Y-35006D01*
X49877Y-35002D01*
X49843Y-35000D01*
X49449Y-34606D02*
X49451Y-34640D01*
X49455Y-34674D01*
X49463Y-34707D01*
X49473Y-34740D01*
X49486Y-34772D01*
X49502Y-34802D01*
X49521Y-34831D01*
X49542Y-34859D01*
X49565Y-34884D01*
X49590Y-34907D01*
X49618Y-34928D01*
X49647Y-34947D01*
X49677Y-34963D01*
X49709Y-34976D01*
X49742Y-34986D01*
X49775Y-34994D01*
X49809Y-34998D01*
X49843Y-35000D01*
X44724Y-34961D02*
X44622Y-34966D01*
X44519Y-34979D01*
X44419Y-35002D01*
X44321Y-35033D01*
X44225Y-35072D01*
X44134Y-35120D01*
X44047Y-35175D01*
X43965Y-35238D01*
X43889Y-35307D01*
X43820Y-35383D01*
X43757Y-35465D01*
X43702Y-35552D01*
X43654Y-35643D01*
X43615Y-35739D01*
X43584Y-35837D01*
X43561Y-35937D01*
X43548Y-36040D01*
X43543Y-36142D01*
X44724Y-34961D02*
X44758Y-34959D01*
X44792Y-34955D01*
X44825Y-34947D01*
X44858Y-34937D01*
X44890Y-34924D01*
X44921Y-34908D01*
X44949Y-34889D01*
X44977Y-34868D01*
X45002Y-34845D01*
X45025Y-34820D01*
X45046Y-34792D01*
X45065Y-34763D01*
X45081Y-34733D01*
X45094Y-34701D01*
X45104Y-34668D01*
X45112Y-34635D01*
X45116Y-34601D01*
X45118Y-34567D01*
X45118Y-34567D02*
X45116Y-34533D01*
X45112Y-34499D01*
X45104Y-34466D01*
X45094Y-34433D01*
X45081Y-34401D01*
X45065Y-34371D01*
X45046Y-34342D01*
X45025Y-34314D01*
X45002Y-34289D01*
X44977Y-34266D01*
X44949Y-34245D01*
X44921Y-34226D01*
X44890Y-34210D01*
X44858Y-34197D01*
X44825Y-34187D01*
X44792Y-34179D01*
X44758Y-34175D01*
X44724Y-34173D01*
X43543Y-32992D02*
X43548Y-33094D01*
X43561Y-33197D01*
X43584Y-33297D01*
X43615Y-33395D01*
X43654Y-33491D01*
X43702Y-33582D01*
X43757Y-33669D01*
X43820Y-33751D01*
X43889Y-33827D01*
X43965Y-33896D01*
X44047Y-33959D01*
X44134Y-34014D01*
X44225Y-34062D01*
X44321Y-34101D01*
X44419Y-34132D01*
X44519Y-34155D01*
X44622Y-34168D01*
X44724Y-34173D01*
X51024Y-33031D02*
X54449Y-22382D01*
X43543Y-32992D02*
X43543Y-22382D01*
X43543Y-22382D02*
X54449Y-22382D01*
X47878Y-34587D02*
X47859Y-34778D01*
X47803Y-34963D01*
X47712Y-35133D01*
X47591Y-35283D01*
X47442Y-35406D01*
X47272Y-35497D01*
X47088Y-35554D01*
X46896Y-35574D01*
X46705Y-35557D01*
X46520Y-35503D01*
X46350Y-35413D01*
X46199Y-35292D01*
X46075Y-35145D01*
X45982Y-34976D01*
X45924Y-34792D01*
X45903Y-34600D01*
X45919Y-34409D01*
X45972Y-34224D01*
X46060Y-34052D01*
X46180Y-33901D01*
X46327Y-33776D01*
X46495Y-33682D01*
X46678Y-33623D01*
X46870Y-33600D01*
X47061Y-33615D01*
X47247Y-33666D01*
X47419Y-33753D01*
X47571Y-33872D01*
X47697Y-34018D01*
X47792Y-34186D01*
X47853Y-34369D01*
X47877Y-34560D01*
X47878Y-34587D01*
X50236Y-35394D02*
X49055Y-39311D01*
X43543Y-38917D02*
X43543Y-36102D01*
X43543Y-38917D02*
X49055Y-39311D01*
G54D12*
X44252Y-36830D03*
X44252Y-37580D03*
X49016Y-28643D03*
X49016Y-27893D03*
X48346Y-32420D03*
X48346Y-33170D03*
X49252Y-31790D03*
X49252Y-32540D03*
X48780Y-37580D03*
X48780Y-36830D03*
X44724Y-30531D03*
X44724Y-31281D03*
X44724Y-31948D03*
X44724Y-32698D03*
G54D13*
X44303Y-23189D03*
G54D14*
X45303Y-23189D03*
G54D13*
X51339Y-26520D03*
G54D14*
X51339Y-27520D03*
X51339Y-28520D03*
G54D15*
X45276Y-37698D03*
X47756Y-37698D03*
X45276Y-36714D03*
X47756Y-36714D03*
G54D16*
X48108Y-31776D03*
X48108Y-31276D03*
X48108Y-30776D03*
X48108Y-30276D03*
X48108Y-29776D03*
X48108Y-29276D03*
X48108Y-28776D03*
X46008Y-28776D03*
X46008Y-29276D03*
X46008Y-29776D03*
X46008Y-30276D03*
X46008Y-30776D03*
X46008Y-31276D03*
X46008Y-31776D03*
G54D13*
X49961Y-28520D03*
G54D14*
X49961Y-27520D03*
X49961Y-26520D03*
G54D13*
X47795Y-24201D03*
G54D14*
X47795Y-23201D03*
G54D13*
X48945Y-24201D03*
G54D14*
X48945Y-23201D03*
X49945Y-24201D03*
X49945Y-23201D03*
X50945Y-24201D03*
X50945Y-23201D03*
X51945Y-24201D03*
X51945Y-23201D03*
X52945Y-24201D03*
X52945Y-23201D03*
G54D17*
X48346Y-27913D03*
X48346Y-27126D03*
X49252Y-31181D03*
X45118Y-24213D03*
X46752Y-37126D03*
X47559Y-26594D03*
X49094Y-30295D03*
X44193Y-29193D03*
X48858Y-26535D03*
X44764Y-28031D03*
X46890Y-30472D03*
G54D18*
X49252Y-31790D02*
X48122Y-31790D01*
X50866Y-29567D02*
X51102Y-29331D01*
X51102Y-29331D02*
X51102Y-28757D01*
X48346Y-32420D02*
X48247Y-32420D01*
X48108Y-32281D02*
X48108Y-31776D01*
X48346Y-27913D02*
X48346Y-27126D01*
X48247Y-32420D02*
X48108Y-32281D01*
X49252Y-31181D02*
X50866Y-29567D01*
X48122Y-31790D02*
X48108Y-31776D01*
X49252Y-31181D02*
X49252Y-31790D01*
X51102Y-28757D02*
X51339Y-28520D01*
G54D19*
X46008Y-31276D02*
X44729Y-31276D01*
X44729Y-31276D02*
X44724Y-31281D01*
X44724Y-31948D02*
X44724Y-31281D01*
X48831Y-25315D02*
X49945Y-24201D01*
X45418Y-30157D02*
X45418Y-26181D01*
X46772Y-25315D02*
X48831Y-25315D01*
X45537Y-30276D02*
X45418Y-30157D01*
X46008Y-30276D02*
X45537Y-30276D01*
X45433Y-26181D02*
X46299Y-25315D01*
X45418Y-26181D02*
X45433Y-26181D01*
X46299Y-25315D02*
X46772Y-25315D01*
G54D18*
X47795Y-24201D02*
X45130Y-24201D01*
X45130Y-24201D02*
X45118Y-24213D01*
G54D19*
X45600Y-26299D02*
X45600Y-29646D01*
X46008Y-29776D02*
X45730Y-29776D01*
X47008Y-25551D02*
X46339Y-25551D01*
X45600Y-26290D02*
X46339Y-25551D01*
X49449Y-25551D02*
X50433Y-24567D01*
X47008Y-25551D02*
X49449Y-25551D01*
X50433Y-24567D02*
X50433Y-23689D01*
X45600Y-26299D02*
X45600Y-26290D01*
X45730Y-29776D02*
X45600Y-29646D01*
X50433Y-23689D02*
X49945Y-23201D01*
G54D18*
X52945Y-25520D02*
X52551Y-25914D01*
X52945Y-24201D02*
X52945Y-25520D01*
X49961Y-26520D02*
X51339Y-26520D01*
X49016Y-27465D02*
X49961Y-26520D01*
X49016Y-27893D02*
X49016Y-27465D01*
X52551Y-25914D02*
X51945Y-26520D01*
X51945Y-26520D02*
X51339Y-26520D01*
X52945Y-23201D02*
X52945Y-24201D01*
G54D19*
X51382Y-22638D02*
X51945Y-23201D01*
X46008Y-30776D02*
X45540Y-30776D01*
X48346Y-24686D02*
X48346Y-22992D01*
X47914Y-25118D02*
X48346Y-24686D01*
X45421Y-30776D02*
X45236Y-30591D01*
X45540Y-30776D02*
X45421Y-30776D01*
X45236Y-30591D02*
X45236Y-26102D01*
X48346Y-22992D02*
X48700Y-22638D01*
X48700Y-22638D02*
X51382Y-22638D01*
X46220Y-25118D02*
X47795Y-25118D01*
X45236Y-26102D02*
X46220Y-25118D01*
X47795Y-25118D02*
X47914Y-25118D01*
X46008Y-28776D02*
X46008Y-26394D01*
X46615Y-25787D02*
X46654Y-25748D01*
X50398Y-25748D02*
X51945Y-24201D01*
X46024Y-26377D02*
X46614Y-25787D01*
X46008Y-26394D02*
X46024Y-26378D01*
X47441Y-25748D02*
X50398Y-25748D01*
X46024Y-26378D02*
X46024Y-26377D01*
X47441Y-25748D02*
X47087Y-25748D01*
X46654Y-25748D02*
X47087Y-25748D01*
X46614Y-25787D02*
X46615Y-25787D01*
X48465Y-26535D02*
X48858Y-26535D01*
X48108Y-28776D02*
X47713Y-28776D01*
X47559Y-27441D02*
X48465Y-26535D01*
X48465Y-26535D02*
X48465Y-26535D01*
X47559Y-28622D02*
X47559Y-27441D01*
X47713Y-28776D02*
X47559Y-28622D01*
X45530Y-37698D02*
X46063Y-37165D01*
X45670Y-33740D02*
X45670Y-35551D01*
X45158Y-37580D02*
X45276Y-37698D01*
X44252Y-37580D02*
X45158Y-37580D01*
X47610Y-30776D02*
X48108Y-30776D01*
X47087Y-31299D02*
X47610Y-30776D01*
X46063Y-37165D02*
X46063Y-35945D01*
X45670Y-33740D02*
X47087Y-32323D01*
X45276Y-37698D02*
X45530Y-37698D01*
X47087Y-32323D02*
X47087Y-31299D01*
X45670Y-35552D02*
X46063Y-35945D01*
X45670Y-35551D02*
X45670Y-35552D01*
X45158Y-37580D02*
X45276Y-37698D01*
X48150Y-33976D02*
X47441Y-33267D01*
X47441Y-33267D02*
X47441Y-31496D01*
X47661Y-31276D02*
X48108Y-31276D01*
X47756Y-35670D02*
X48150Y-35276D01*
X47441Y-31496D02*
X47661Y-31276D01*
X47872Y-36830D02*
X47756Y-36714D01*
X48150Y-35276D02*
X48150Y-33976D01*
X47756Y-36714D02*
X47756Y-35670D01*
X47872Y-36830D02*
X47756Y-36714D01*
X48780Y-36830D02*
X47872Y-36830D01*
X50709Y-29173D02*
X50709Y-28150D01*
X48108Y-29776D02*
X50106Y-29776D01*
X50106Y-29776D02*
X50709Y-29173D01*
X50709Y-28150D02*
X51339Y-27520D01*
X52441Y-23937D02*
X52205Y-23701D01*
X52441Y-24488D02*
X52441Y-23937D01*
X46551Y-29276D02*
X46772Y-29055D01*
X47205Y-26063D02*
X47323Y-25945D01*
X47323Y-25945D02*
X47638Y-25945D01*
X46008Y-29276D02*
X46551Y-29276D01*
X47638Y-25945D02*
X50984Y-25945D01*
X51445Y-23701D02*
X50945Y-24201D01*
X46772Y-26535D02*
X46772Y-26496D01*
X50984Y-25945D02*
X52441Y-24488D01*
X46772Y-26496D02*
X47205Y-26063D01*
X46772Y-26535D02*
X46772Y-29055D01*
X52205Y-23701D02*
X51445Y-23701D01*
G54D18*
X49016Y-28643D02*
X49838Y-28643D01*
X49838Y-28643D02*
X49961Y-28520D01*
G54D19*
X44724Y-28071D02*
X44724Y-29567D01*
X44724Y-30531D02*
X44724Y-29567D01*
X44724Y-28071D02*
X44764Y-28031D01*
X47614Y-29276D02*
X46890Y-30000D01*
X48108Y-29276D02*
X47614Y-29276D01*
X46890Y-30000D02*
X46890Y-30472D01*
G54D10*
G36*
X54134Y-22607D02*
X53488Y-24619D01*
X53488Y-24280D01*
X53488Y-23280D01*
X53477Y-23067D01*
X53417Y-22920D01*
X53323Y-22893D01*
X53253Y-22963D01*
X53253Y-22823D01*
X53226Y-22729D01*
X53024Y-22658D01*
X52811Y-22669D01*
X52664Y-22729D01*
X52637Y-22823D01*
X52945Y-23130D01*
X53253Y-22823D01*
X53253Y-22963D01*
X53016Y-23201D01*
X53323Y-23509D01*
X53417Y-23482D01*
X53488Y-23280D01*
X53488Y-24280D01*
X53477Y-24067D01*
X53417Y-23920D01*
X53323Y-23893D01*
X53253Y-23963D01*
X53016Y-24201D01*
X53323Y-24509D01*
X53417Y-24482D01*
X53488Y-24280D01*
X53488Y-24619D01*
X53253Y-25351D01*
X51889Y-29599D01*
X51889Y-26632D01*
X51889Y-26408D01*
X51888Y-26171D01*
X51850Y-26079D01*
X51780Y-26009D01*
X51689Y-25971D01*
X51590Y-25971D01*
X51451Y-25970D01*
X51389Y-26032D01*
X51389Y-26470D01*
X51827Y-26470D01*
X51889Y-26408D01*
X51889Y-26632D01*
X51827Y-26570D01*
X51389Y-26570D01*
X51389Y-27008D01*
X51451Y-27070D01*
X51590Y-27069D01*
X51689Y-27069D01*
X51780Y-27031D01*
X51850Y-26961D01*
X51888Y-26869D01*
X51889Y-26632D01*
X51889Y-29599D01*
X51788Y-29914D01*
X51788Y-28610D01*
X51788Y-28431D01*
X51720Y-28266D01*
X51594Y-28140D01*
X51429Y-28071D01*
X51250Y-28071D01*
X51085Y-28139D01*
X50959Y-28265D01*
X50899Y-28408D01*
X50899Y-28228D01*
X51185Y-27942D01*
X51249Y-27969D01*
X51428Y-27969D01*
X51593Y-27901D01*
X51719Y-27775D01*
X51788Y-27610D01*
X51788Y-27431D01*
X51720Y-27266D01*
X51594Y-27140D01*
X51429Y-27071D01*
X51289Y-27071D01*
X51289Y-27008D01*
X51289Y-26570D01*
X50851Y-26570D01*
X50789Y-26632D01*
X50790Y-26869D01*
X50828Y-26961D01*
X50898Y-27031D01*
X50989Y-27069D01*
X51088Y-27069D01*
X51227Y-27070D01*
X51289Y-27008D01*
X51289Y-27071D01*
X51250Y-27071D01*
X51085Y-27139D01*
X50959Y-27265D01*
X50890Y-27430D01*
X50890Y-27609D01*
X50916Y-27673D01*
X50575Y-28016D01*
X50533Y-28077D01*
X50519Y-28150D01*
X50519Y-29094D01*
X50504Y-29109D01*
X50410Y-29203D01*
X50410Y-28849D01*
X50410Y-28790D01*
X50410Y-28190D01*
X50410Y-27610D01*
X50410Y-27431D01*
X50342Y-27266D01*
X50269Y-27193D01*
X50269Y-26898D01*
X49961Y-26591D01*
X49890Y-26661D01*
X49653Y-26898D01*
X49680Y-26992D01*
X49882Y-27063D01*
X50095Y-27052D01*
X50242Y-26992D01*
X50269Y-26898D01*
X50269Y-27193D01*
X50216Y-27140D01*
X50051Y-27071D01*
X49872Y-27071D01*
X49707Y-27139D01*
X49581Y-27265D01*
X49512Y-27430D01*
X49512Y-27601D01*
X49502Y-27577D01*
X49432Y-27507D01*
X49341Y-27469D01*
X49242Y-27469D01*
X49183Y-27468D01*
X49183Y-26600D01*
X49183Y-26471D01*
X49134Y-26351D01*
X49043Y-26260D01*
X48923Y-26210D01*
X48794Y-26210D01*
X48674Y-26259D01*
X48588Y-26345D01*
X48465Y-26345D01*
X48392Y-26359D01*
X48330Y-26401D01*
X47425Y-27307D01*
X47383Y-27368D01*
X47369Y-27441D01*
X47369Y-28622D01*
X47383Y-28695D01*
X47425Y-28756D01*
X47578Y-28910D01*
X47579Y-28910D01*
X47640Y-28952D01*
X47712Y-28965D01*
X47713Y-28966D01*
X47762Y-28966D01*
X47799Y-29003D01*
X47854Y-29025D01*
X47913Y-29025D01*
X48363Y-29025D01*
X48418Y-29002D01*
X48460Y-28960D01*
X48482Y-28905D01*
X48482Y-28846D01*
X48482Y-28646D01*
X48459Y-28591D01*
X48417Y-28549D01*
X48362Y-28527D01*
X48303Y-28527D01*
X47853Y-28527D01*
X47798Y-28550D01*
X47776Y-28571D01*
X47749Y-28543D01*
X47749Y-27519D01*
X48037Y-27230D01*
X48070Y-27310D01*
X48116Y-27356D01*
X48116Y-27683D01*
X48071Y-27728D01*
X48021Y-27848D01*
X48021Y-27977D01*
X48070Y-28097D01*
X48161Y-28188D01*
X48281Y-28238D01*
X48410Y-28238D01*
X48522Y-28191D01*
X48530Y-28209D01*
X48600Y-28279D01*
X48691Y-28317D01*
X48790Y-28317D01*
X48904Y-28318D01*
X48966Y-28256D01*
X48966Y-27993D01*
X48966Y-27943D01*
X48966Y-27843D01*
X48966Y-27793D01*
X48966Y-27530D01*
X48904Y-27468D01*
X48790Y-27469D01*
X48691Y-27469D01*
X48600Y-27507D01*
X48576Y-27531D01*
X48576Y-27356D01*
X48621Y-27311D01*
X48671Y-27191D01*
X48671Y-27062D01*
X48622Y-26942D01*
X48531Y-26851D01*
X48451Y-26817D01*
X48543Y-26725D01*
X48588Y-26725D01*
X48673Y-26810D01*
X48793Y-26860D01*
X48922Y-26860D01*
X49042Y-26811D01*
X49133Y-26720D01*
X49183Y-26600D01*
X49183Y-27468D01*
X49128Y-27468D01*
X49066Y-27530D01*
X49066Y-27843D01*
X49479Y-27843D01*
X49541Y-27781D01*
X49540Y-27677D01*
X49580Y-27774D01*
X49706Y-27900D01*
X49871Y-27969D01*
X50050Y-27969D01*
X50215Y-27901D01*
X50341Y-27775D01*
X50410Y-27610D01*
X50410Y-28190D01*
X50387Y-28135D01*
X50345Y-28093D01*
X50290Y-28071D01*
X50231Y-28071D01*
X49631Y-28071D01*
X49576Y-28094D01*
X49541Y-28129D01*
X49541Y-28005D01*
X49479Y-27943D01*
X49066Y-27943D01*
X49066Y-28256D01*
X49128Y-28318D01*
X49242Y-28317D01*
X49341Y-28317D01*
X49432Y-28279D01*
X49502Y-28209D01*
X49540Y-28117D01*
X49541Y-28005D01*
X49541Y-28129D01*
X49534Y-28136D01*
X49512Y-28191D01*
X49512Y-28250D01*
X49512Y-28413D01*
X49429Y-28413D01*
X49417Y-28383D01*
X49375Y-28341D01*
X49320Y-28319D01*
X49261Y-28319D01*
X48711Y-28319D01*
X48656Y-28342D01*
X48614Y-28384D01*
X48592Y-28439D01*
X48592Y-28498D01*
X48592Y-28848D01*
X48615Y-28903D01*
X48657Y-28945D01*
X48712Y-28967D01*
X48771Y-28967D01*
X49321Y-28967D01*
X49376Y-28944D01*
X49418Y-28902D01*
X49429Y-28873D01*
X49521Y-28873D01*
X49535Y-28905D01*
X49577Y-28947D01*
X49632Y-28969D01*
X49691Y-28969D01*
X50291Y-28969D01*
X50346Y-28946D01*
X50388Y-28904D01*
X50410Y-28849D01*
X50410Y-29203D01*
X50027Y-29586D01*
X48482Y-29586D01*
X48482Y-29405D01*
X48482Y-29346D01*
X48482Y-29146D01*
X48459Y-29091D01*
X48417Y-29049D01*
X48362Y-29027D01*
X48303Y-29027D01*
X47853Y-29027D01*
X47798Y-29050D01*
X47762Y-29086D01*
X47614Y-29086D01*
X47541Y-29100D01*
X47504Y-29125D01*
X47479Y-29142D01*
X46756Y-29866D01*
X46714Y-29927D01*
X46700Y-30000D01*
X46700Y-30202D01*
X46615Y-30287D01*
X46565Y-30407D01*
X46565Y-30536D01*
X46614Y-30656D01*
X46705Y-30747D01*
X46825Y-30797D01*
X46954Y-30797D01*
X47074Y-30748D01*
X47165Y-30657D01*
X47215Y-30537D01*
X47215Y-30408D01*
X47166Y-30288D01*
X47080Y-30202D01*
X47080Y-30078D01*
X47692Y-29466D01*
X47762Y-29466D01*
X47799Y-29503D01*
X47854Y-29525D01*
X47913Y-29525D01*
X48363Y-29525D01*
X48418Y-29502D01*
X48460Y-29460D01*
X48482Y-29405D01*
X48482Y-29586D01*
X48454Y-29586D01*
X48417Y-29549D01*
X48362Y-29527D01*
X48303Y-29527D01*
X47853Y-29527D01*
X47798Y-29550D01*
X47756Y-29592D01*
X47734Y-29647D01*
X47734Y-29706D01*
X47734Y-29906D01*
X47757Y-29961D01*
X47799Y-30003D01*
X47854Y-30025D01*
X47913Y-30025D01*
X48363Y-30025D01*
X48418Y-30002D01*
X48454Y-29966D01*
X50106Y-29966D01*
X50150Y-29957D01*
X49251Y-30856D01*
X49188Y-30856D01*
X49068Y-30905D01*
X48977Y-30996D01*
X48927Y-31116D01*
X48927Y-31245D01*
X48976Y-31365D01*
X49022Y-31411D01*
X49022Y-31466D01*
X48947Y-31466D01*
X48892Y-31489D01*
X48850Y-31531D01*
X48838Y-31560D01*
X48428Y-31560D01*
X48417Y-31549D01*
X48362Y-31527D01*
X48303Y-31527D01*
X47853Y-31527D01*
X47798Y-31550D01*
X47756Y-31592D01*
X47734Y-31647D01*
X47734Y-31706D01*
X47734Y-31906D01*
X47757Y-31961D01*
X47799Y-32003D01*
X47854Y-32025D01*
X47878Y-32025D01*
X47878Y-32276D01*
X47877Y-32281D01*
X47896Y-32369D01*
X47922Y-32408D01*
X47922Y-32625D01*
X47945Y-32680D01*
X47987Y-32722D01*
X48042Y-32744D01*
X48101Y-32744D01*
X48651Y-32744D01*
X48706Y-32721D01*
X48727Y-32699D01*
X48728Y-32764D01*
X48730Y-32771D01*
X48671Y-32746D01*
X48572Y-32746D01*
X48458Y-32745D01*
X48396Y-32807D01*
X48396Y-33120D01*
X48809Y-33120D01*
X48871Y-33058D01*
X48870Y-32946D01*
X48867Y-32938D01*
X48927Y-32964D01*
X49026Y-32964D01*
X49140Y-32965D01*
X49202Y-32903D01*
X49202Y-32640D01*
X49202Y-32590D01*
X49202Y-32490D01*
X49202Y-32440D01*
X49202Y-32177D01*
X49140Y-32115D01*
X49026Y-32116D01*
X48927Y-32116D01*
X48836Y-32154D01*
X48770Y-32220D01*
X48770Y-32215D01*
X48747Y-32160D01*
X48705Y-32118D01*
X48650Y-32096D01*
X48591Y-32096D01*
X48338Y-32096D01*
X48338Y-32025D01*
X48363Y-32025D01*
X48374Y-32020D01*
X48838Y-32020D01*
X48851Y-32050D01*
X48893Y-32092D01*
X48948Y-32114D01*
X49007Y-32114D01*
X49557Y-32114D01*
X49612Y-32091D01*
X49654Y-32049D01*
X49676Y-31994D01*
X49676Y-31935D01*
X49676Y-31585D01*
X49653Y-31530D01*
X49611Y-31488D01*
X49556Y-31466D01*
X49497Y-31466D01*
X49482Y-31466D01*
X49482Y-31411D01*
X49527Y-31366D01*
X49577Y-31246D01*
X49577Y-31181D01*
X51026Y-29731D01*
X51028Y-29730D01*
X51029Y-29730D01*
X51262Y-29495D01*
X51264Y-29494D01*
X51265Y-29494D01*
X51314Y-29419D01*
X51332Y-29332D01*
X51331Y-29331D01*
X51332Y-29331D01*
X51332Y-28969D01*
X51428Y-28969D01*
X51593Y-28901D01*
X51719Y-28775D01*
X51788Y-28610D01*
X51788Y-29914D01*
X50812Y-32954D01*
X50702Y-33229D01*
X50574Y-33485D01*
X50440Y-33668D01*
X50274Y-33818D01*
X50121Y-33934D01*
X50120Y-33934D01*
X50092Y-33953D01*
X50040Y-33974D01*
X49959Y-33988D01*
X49843Y-33988D01*
X49822Y-33992D01*
X49798Y-33992D01*
X49777Y-33996D01*
X49777Y-32652D01*
X49777Y-32428D01*
X49776Y-32316D01*
X49738Y-32224D01*
X49668Y-32154D01*
X49577Y-32116D01*
X49478Y-32116D01*
X49364Y-32115D01*
X49302Y-32177D01*
X49302Y-32490D01*
X49715Y-32490D01*
X49777Y-32428D01*
X49777Y-32652D01*
X49715Y-32590D01*
X49302Y-32590D01*
X49302Y-32903D01*
X49364Y-32965D01*
X49478Y-32964D01*
X49577Y-32964D01*
X49668Y-32926D01*
X49738Y-32856D01*
X49776Y-32764D01*
X49777Y-32652D01*
X49777Y-33996D01*
X49648Y-34021D01*
X49567Y-34055D01*
X49439Y-34140D01*
X49377Y-34201D01*
X49376Y-34202D01*
X49376Y-34203D01*
X49292Y-34330D01*
X49291Y-34330D01*
X49291Y-34331D01*
X49258Y-34412D01*
X49228Y-34562D01*
X49228Y-34650D01*
X49258Y-34800D01*
X49291Y-34881D01*
X49292Y-34882D01*
X49376Y-35009D01*
X49377Y-35011D01*
X49438Y-35071D01*
X49439Y-35072D01*
X49567Y-35157D01*
X49648Y-35191D01*
X49795Y-35219D01*
X49798Y-35220D01*
X49799Y-35221D01*
X49906Y-35241D01*
X49959Y-35277D01*
X49994Y-35330D01*
X50005Y-35384D01*
X49304Y-37705D01*
X49305Y-37692D01*
X49305Y-37468D01*
X49304Y-37356D01*
X49266Y-37264D01*
X49204Y-37202D01*
X49204Y-37034D01*
X49204Y-36975D01*
X49204Y-36625D01*
X49181Y-36570D01*
X49139Y-36528D01*
X49084Y-36506D01*
X49025Y-36506D01*
X48871Y-36506D01*
X48871Y-33282D01*
X48809Y-33220D01*
X48396Y-33220D01*
X48396Y-33533D01*
X48458Y-33595D01*
X48572Y-33594D01*
X48671Y-33594D01*
X48762Y-33556D01*
X48832Y-33486D01*
X48870Y-33394D01*
X48871Y-33282D01*
X48871Y-36506D01*
X48475Y-36506D01*
X48420Y-36529D01*
X48378Y-36571D01*
X48356Y-36626D01*
X48356Y-36640D01*
X48338Y-36640D01*
X48338Y-36409D01*
X48315Y-36354D01*
X48273Y-36312D01*
X48218Y-36290D01*
X48159Y-36290D01*
X47946Y-36290D01*
X47946Y-35748D01*
X48284Y-35410D01*
X48326Y-35349D01*
X48339Y-35276D01*
X48340Y-35276D01*
X48340Y-33976D01*
X48326Y-33903D01*
X48284Y-33842D01*
X48284Y-33841D01*
X48036Y-33594D01*
X48120Y-33594D01*
X48234Y-33595D01*
X48296Y-33533D01*
X48296Y-33220D01*
X48296Y-33120D01*
X48296Y-32807D01*
X48234Y-32745D01*
X48120Y-32746D01*
X48021Y-32746D01*
X47930Y-32784D01*
X47860Y-32854D01*
X47822Y-32946D01*
X47821Y-33058D01*
X47883Y-33120D01*
X48296Y-33120D01*
X48296Y-33220D01*
X47883Y-33220D01*
X47821Y-33282D01*
X47821Y-33379D01*
X47631Y-33188D01*
X47631Y-31574D01*
X47739Y-31466D01*
X47762Y-31466D01*
X47799Y-31503D01*
X47854Y-31525D01*
X47913Y-31525D01*
X48363Y-31525D01*
X48418Y-31502D01*
X48460Y-31460D01*
X48482Y-31405D01*
X48482Y-31346D01*
X48482Y-31146D01*
X48459Y-31091D01*
X48417Y-31049D01*
X48362Y-31027D01*
X48303Y-31027D01*
X47853Y-31027D01*
X47798Y-31050D01*
X47762Y-31086D01*
X47661Y-31086D01*
X47588Y-31100D01*
X47527Y-31142D01*
X47307Y-31362D01*
X47277Y-31405D01*
X47277Y-31377D01*
X47688Y-30966D01*
X47762Y-30966D01*
X47799Y-31003D01*
X47854Y-31025D01*
X47913Y-31025D01*
X48363Y-31025D01*
X48418Y-31002D01*
X48460Y-30960D01*
X48482Y-30905D01*
X48482Y-30846D01*
X48482Y-30646D01*
X48482Y-30405D01*
X48482Y-30346D01*
X48482Y-30146D01*
X48459Y-30091D01*
X48417Y-30049D01*
X48362Y-30027D01*
X48303Y-30027D01*
X47853Y-30027D01*
X47798Y-30050D01*
X47756Y-30092D01*
X47734Y-30147D01*
X47734Y-30206D01*
X47734Y-30406D01*
X47757Y-30461D01*
X47799Y-30503D01*
X47854Y-30525D01*
X47913Y-30525D01*
X48363Y-30525D01*
X48418Y-30502D01*
X48460Y-30460D01*
X48482Y-30405D01*
X48482Y-30646D01*
X48459Y-30591D01*
X48417Y-30549D01*
X48362Y-30527D01*
X48303Y-30527D01*
X47853Y-30527D01*
X47798Y-30550D01*
X47762Y-30586D01*
X47610Y-30586D01*
X47537Y-30600D01*
X47475Y-30642D01*
X46953Y-31165D01*
X46911Y-31226D01*
X46897Y-31299D01*
X46897Y-32244D01*
X46483Y-32658D01*
X46483Y-31888D01*
X46483Y-31664D01*
X46482Y-31627D01*
X46444Y-31535D01*
X46374Y-31465D01*
X46360Y-31459D01*
X46382Y-31405D01*
X46382Y-31346D01*
X46382Y-31146D01*
X46359Y-31091D01*
X46317Y-31049D01*
X46262Y-31027D01*
X46203Y-31027D01*
X45753Y-31027D01*
X45698Y-31050D01*
X45662Y-31086D01*
X45148Y-31086D01*
X45148Y-31076D01*
X45125Y-31021D01*
X45083Y-30979D01*
X45028Y-30957D01*
X44969Y-30957D01*
X44419Y-30957D01*
X44364Y-30980D01*
X44322Y-31022D01*
X44300Y-31077D01*
X44300Y-31136D01*
X44300Y-31486D01*
X44323Y-31541D01*
X44365Y-31583D01*
X44420Y-31605D01*
X44479Y-31605D01*
X44534Y-31605D01*
X44534Y-31624D01*
X44419Y-31624D01*
X44364Y-31647D01*
X44322Y-31689D01*
X44300Y-31744D01*
X44300Y-31803D01*
X44300Y-32153D01*
X44323Y-32208D01*
X44365Y-32250D01*
X44420Y-32272D01*
X44479Y-32272D01*
X45029Y-32272D01*
X45084Y-32249D01*
X45126Y-32207D01*
X45148Y-32152D01*
X45148Y-32093D01*
X45148Y-31743D01*
X45125Y-31688D01*
X45083Y-31646D01*
X45028Y-31624D01*
X44969Y-31624D01*
X44914Y-31624D01*
X44914Y-31605D01*
X45029Y-31605D01*
X45084Y-31582D01*
X45126Y-31540D01*
X45148Y-31485D01*
X45148Y-31466D01*
X45641Y-31466D01*
X45572Y-31535D01*
X45534Y-31627D01*
X45533Y-31664D01*
X45595Y-31726D01*
X45908Y-31726D01*
X45958Y-31726D01*
X46058Y-31726D01*
X46108Y-31726D01*
X46421Y-31726D01*
X46483Y-31664D01*
X46483Y-31888D01*
X46421Y-31826D01*
X46058Y-31826D01*
X46058Y-32064D01*
X46120Y-32126D01*
X46184Y-32125D01*
X46283Y-32125D01*
X46374Y-32087D01*
X46444Y-32017D01*
X46482Y-31925D01*
X46483Y-31888D01*
X46483Y-32658D01*
X45958Y-33183D01*
X45958Y-32064D01*
X45958Y-31826D01*
X45595Y-31826D01*
X45533Y-31888D01*
X45534Y-31925D01*
X45572Y-32017D01*
X45642Y-32087D01*
X45733Y-32125D01*
X45832Y-32125D01*
X45896Y-32126D01*
X45958Y-32064D01*
X45958Y-33183D01*
X45536Y-33606D01*
X45494Y-33667D01*
X45480Y-33740D01*
X45480Y-35551D01*
X45480Y-35552D01*
X45494Y-35625D01*
X45536Y-35686D01*
X45873Y-36023D01*
X45873Y-37086D01*
X45858Y-37101D01*
X45858Y-37018D01*
X45858Y-36959D01*
X45858Y-36409D01*
X45835Y-36354D01*
X45793Y-36312D01*
X45738Y-36290D01*
X45679Y-36290D01*
X44813Y-36290D01*
X44758Y-36313D01*
X44716Y-36355D01*
X44694Y-36410D01*
X44694Y-36469D01*
X44694Y-36470D01*
X44668Y-36444D01*
X44577Y-36406D01*
X44478Y-36406D01*
X44364Y-36405D01*
X44302Y-36467D01*
X44302Y-36730D01*
X44302Y-36780D01*
X44302Y-36880D01*
X44302Y-36930D01*
X44302Y-37193D01*
X44364Y-37255D01*
X44478Y-37254D01*
X44577Y-37254D01*
X44668Y-37216D01*
X44738Y-37146D01*
X44752Y-37109D01*
X44759Y-37116D01*
X44814Y-37138D01*
X44873Y-37138D01*
X45739Y-37138D01*
X45794Y-37115D01*
X45836Y-37073D01*
X45858Y-37018D01*
X45858Y-37101D01*
X45685Y-37274D01*
X45679Y-37274D01*
X44813Y-37274D01*
X44758Y-37297D01*
X44716Y-37339D01*
X44695Y-37390D01*
X44676Y-37390D01*
X44676Y-37375D01*
X44653Y-37320D01*
X44611Y-37278D01*
X44556Y-37256D01*
X44497Y-37256D01*
X43947Y-37256D01*
X43892Y-37279D01*
X43850Y-37321D01*
X43828Y-37376D01*
X43828Y-37435D01*
X43828Y-37785D01*
X43851Y-37840D01*
X43893Y-37882D01*
X43948Y-37904D01*
X44007Y-37904D01*
X44557Y-37904D01*
X44612Y-37881D01*
X44654Y-37839D01*
X44676Y-37784D01*
X44676Y-37770D01*
X44694Y-37770D01*
X44694Y-38003D01*
X44717Y-38058D01*
X44759Y-38100D01*
X44814Y-38122D01*
X44873Y-38122D01*
X45739Y-38122D01*
X45794Y-38099D01*
X45836Y-38057D01*
X45858Y-38002D01*
X45858Y-37943D01*
X45858Y-37638D01*
X46197Y-37300D01*
X46197Y-37299D01*
X46239Y-37238D01*
X46252Y-37166D01*
X46253Y-37165D01*
X46253Y-35945D01*
X46252Y-35944D01*
X46239Y-35872D01*
X46197Y-35811D01*
X46197Y-35810D01*
X45860Y-35473D01*
X45860Y-35216D01*
X46090Y-35495D01*
X46158Y-35551D01*
X46162Y-35552D01*
X46496Y-35731D01*
X46497Y-35732D01*
X46498Y-35733D01*
X46556Y-35750D01*
X46581Y-35758D01*
X46581Y-35757D01*
X46582Y-35758D01*
X46966Y-35795D01*
X47053Y-35786D01*
X47421Y-35674D01*
X47422Y-35674D01*
X47423Y-35674D01*
X47499Y-35633D01*
X47500Y-35633D01*
X47643Y-35514D01*
X47622Y-35536D01*
X47580Y-35597D01*
X47566Y-35670D01*
X47566Y-36290D01*
X47293Y-36290D01*
X47238Y-36313D01*
X47196Y-36355D01*
X47174Y-36410D01*
X47174Y-36469D01*
X47174Y-37019D01*
X47197Y-37074D01*
X47239Y-37116D01*
X47294Y-37138D01*
X47353Y-37138D01*
X48219Y-37138D01*
X48274Y-37115D01*
X48316Y-37073D01*
X48337Y-37020D01*
X48356Y-37020D01*
X48356Y-37035D01*
X48379Y-37090D01*
X48421Y-37132D01*
X48476Y-37154D01*
X48535Y-37154D01*
X49085Y-37154D01*
X49140Y-37131D01*
X49182Y-37089D01*
X49204Y-37034D01*
X49204Y-37202D01*
X49196Y-37194D01*
X49105Y-37156D01*
X49006Y-37156D01*
X48892Y-37155D01*
X48830Y-37217D01*
X48830Y-37530D01*
X49243Y-37530D01*
X49305Y-37468D01*
X49305Y-37692D01*
X49243Y-37630D01*
X48830Y-37630D01*
X48830Y-37943D01*
X48892Y-38005D01*
X49006Y-38004D01*
X49105Y-38004D01*
X49196Y-37966D01*
X49239Y-37922D01*
X48891Y-39075D01*
X48730Y-39063D01*
X48730Y-37943D01*
X48730Y-37680D01*
X48730Y-37630D01*
X48730Y-37530D01*
X48730Y-37480D01*
X48730Y-37217D01*
X48668Y-37155D01*
X48554Y-37156D01*
X48455Y-37156D01*
X48364Y-37194D01*
X48294Y-37264D01*
X48278Y-37301D01*
X48273Y-37296D01*
X48218Y-37274D01*
X48159Y-37274D01*
X47293Y-37274D01*
X47238Y-37297D01*
X47196Y-37339D01*
X47174Y-37394D01*
X47174Y-37453D01*
X47174Y-38003D01*
X47197Y-38058D01*
X47239Y-38100D01*
X47294Y-38122D01*
X47353Y-38122D01*
X48219Y-38122D01*
X48274Y-38099D01*
X48316Y-38057D01*
X48338Y-38002D01*
X48338Y-37943D01*
X48338Y-37940D01*
X48364Y-37966D01*
X48455Y-38004D01*
X48554Y-38004D01*
X48668Y-38005D01*
X48730Y-37943D01*
X48730Y-39063D01*
X43768Y-38707D01*
X43768Y-37148D01*
X43836Y-37216D01*
X43927Y-37254D01*
X44026Y-37254D01*
X44140Y-37255D01*
X44202Y-37193D01*
X44202Y-36930D01*
X44202Y-36880D01*
X44202Y-36780D01*
X44202Y-36730D01*
X44202Y-36467D01*
X44140Y-36405D01*
X44026Y-36406D01*
X43927Y-36406D01*
X43836Y-36444D01*
X43768Y-36512D01*
X43768Y-36165D01*
X43845Y-35776D01*
X44052Y-35468D01*
X44357Y-35263D01*
X44767Y-35182D01*
X44768Y-35182D01*
X44918Y-35152D01*
X44999Y-35119D01*
X44999Y-35118D01*
X45000Y-35118D01*
X45127Y-35034D01*
X45127Y-35033D01*
X45129Y-35033D01*
X45189Y-34972D01*
X45190Y-34971D01*
X45275Y-34843D01*
X45309Y-34762D01*
X45338Y-34612D01*
X45338Y-34610D01*
X45338Y-34524D01*
X45338Y-34522D01*
X45309Y-34372D01*
X45275Y-34291D01*
X45249Y-34251D01*
X45249Y-32810D01*
X45249Y-32586D01*
X45248Y-32474D01*
X45210Y-32382D01*
X45140Y-32312D01*
X45049Y-32274D01*
X44950Y-32274D01*
X44836Y-32273D01*
X44774Y-32335D01*
X44774Y-32648D01*
X45187Y-32648D01*
X45249Y-32586D01*
X45249Y-32810D01*
X45187Y-32748D01*
X44774Y-32748D01*
X44774Y-33061D01*
X44836Y-33123D01*
X44950Y-33122D01*
X45049Y-33122D01*
X45140Y-33084D01*
X45210Y-33014D01*
X45248Y-32922D01*
X45249Y-32810D01*
X45249Y-34251D01*
X45190Y-34163D01*
X45189Y-34162D01*
X45129Y-34101D01*
X45127Y-34100D01*
X45000Y-34016D01*
X44999Y-34015D01*
X44918Y-33982D01*
X44768Y-33952D01*
X44767Y-33952D01*
X44674Y-33933D01*
X44674Y-33061D01*
X44674Y-32748D01*
X44674Y-32648D01*
X44674Y-32335D01*
X44612Y-32273D01*
X44498Y-32274D01*
X44399Y-32274D01*
X44308Y-32312D01*
X44238Y-32382D01*
X44200Y-32474D01*
X44199Y-32586D01*
X44261Y-32648D01*
X44674Y-32648D01*
X44674Y-32748D01*
X44261Y-32748D01*
X44199Y-32810D01*
X44200Y-32922D01*
X44238Y-33014D01*
X44308Y-33084D01*
X44399Y-33122D01*
X44498Y-33122D01*
X44612Y-33123D01*
X44674Y-33061D01*
X44674Y-33933D01*
X44357Y-33870D01*
X44052Y-33665D01*
X43845Y-33357D01*
X43768Y-32968D01*
X43768Y-23572D01*
X43792Y-23630D01*
X43862Y-23700D01*
X43954Y-23738D01*
X44191Y-23739D01*
X44253Y-23677D01*
X44253Y-23289D01*
X44253Y-23239D01*
X44253Y-23139D01*
X44253Y-23089D01*
X44253Y-22701D01*
X44191Y-22639D01*
X43954Y-22640D01*
X43862Y-22678D01*
X43792Y-22748D01*
X43768Y-22805D01*
X43768Y-22607D01*
X48462Y-22607D01*
X48212Y-22858D01*
X48170Y-22919D01*
X48166Y-22937D01*
X48050Y-22821D01*
X47885Y-22752D01*
X47706Y-22752D01*
X47541Y-22820D01*
X47415Y-22946D01*
X47346Y-23111D01*
X47346Y-23290D01*
X47414Y-23455D01*
X47540Y-23581D01*
X47705Y-23650D01*
X47884Y-23650D01*
X48049Y-23582D01*
X48156Y-23475D01*
X48156Y-23764D01*
X48124Y-23752D01*
X48065Y-23752D01*
X47465Y-23752D01*
X47410Y-23775D01*
X47368Y-23817D01*
X47346Y-23872D01*
X47346Y-23931D01*
X47346Y-23971D01*
X45752Y-23971D01*
X45752Y-23279D01*
X45752Y-23100D01*
X45684Y-22935D01*
X45558Y-22809D01*
X45393Y-22740D01*
X45214Y-22740D01*
X45049Y-22808D01*
X44923Y-22934D01*
X44854Y-23099D01*
X44854Y-23278D01*
X44922Y-23443D01*
X45048Y-23569D01*
X45213Y-23638D01*
X45392Y-23638D01*
X45557Y-23570D01*
X45683Y-23444D01*
X45752Y-23279D01*
X45752Y-23971D01*
X45336Y-23971D01*
X45303Y-23938D01*
X45183Y-23888D01*
X45054Y-23888D01*
X44934Y-23937D01*
X44853Y-24018D01*
X44853Y-23301D01*
X44853Y-23077D01*
X44852Y-22938D01*
X44852Y-22839D01*
X44814Y-22748D01*
X44744Y-22678D01*
X44652Y-22640D01*
X44415Y-22639D01*
X44353Y-22701D01*
X44353Y-23139D01*
X44791Y-23139D01*
X44853Y-23077D01*
X44853Y-23301D01*
X44791Y-23239D01*
X44353Y-23239D01*
X44353Y-23677D01*
X44415Y-23739D01*
X44652Y-23738D01*
X44744Y-23700D01*
X44814Y-23630D01*
X44852Y-23539D01*
X44852Y-23440D01*
X44853Y-23301D01*
X44853Y-24018D01*
X44843Y-24028D01*
X44793Y-24148D01*
X44793Y-24277D01*
X44842Y-24397D01*
X44933Y-24488D01*
X45053Y-24538D01*
X45182Y-24538D01*
X45302Y-24489D01*
X45360Y-24431D01*
X47346Y-24431D01*
X47346Y-24531D01*
X47369Y-24586D01*
X47411Y-24628D01*
X47466Y-24650D01*
X47525Y-24650D01*
X48113Y-24650D01*
X47835Y-24928D01*
X47795Y-24928D01*
X46220Y-24928D01*
X46147Y-24942D01*
X46085Y-24984D01*
X45102Y-25968D01*
X45060Y-26029D01*
X45046Y-26102D01*
X45046Y-27861D01*
X45040Y-27847D01*
X44949Y-27756D01*
X44829Y-27706D01*
X44700Y-27706D01*
X44580Y-27755D01*
X44489Y-27846D01*
X44439Y-27966D01*
X44439Y-28095D01*
X44488Y-28215D01*
X44534Y-28261D01*
X44534Y-29567D01*
X44534Y-30207D01*
X44419Y-30207D01*
X44364Y-30230D01*
X44322Y-30272D01*
X44300Y-30327D01*
X44300Y-30386D01*
X44300Y-30736D01*
X44323Y-30791D01*
X44365Y-30833D01*
X44420Y-30855D01*
X44479Y-30855D01*
X45029Y-30855D01*
X45084Y-30832D01*
X45126Y-30790D01*
X45137Y-30760D01*
X45286Y-30910D01*
X45287Y-30910D01*
X45348Y-30952D01*
X45421Y-30966D01*
X45540Y-30966D01*
X45662Y-30966D01*
X45699Y-31003D01*
X45754Y-31025D01*
X45813Y-31025D01*
X46263Y-31025D01*
X46318Y-31002D01*
X46360Y-30960D01*
X46382Y-30905D01*
X46382Y-30846D01*
X46382Y-30646D01*
X46359Y-30591D01*
X46317Y-30549D01*
X46262Y-30527D01*
X46203Y-30527D01*
X45753Y-30527D01*
X45698Y-30550D01*
X45662Y-30586D01*
X45540Y-30586D01*
X45499Y-30586D01*
X45426Y-30512D01*
X45426Y-30426D01*
X45464Y-30452D01*
X45537Y-30466D01*
X45662Y-30466D01*
X45699Y-30503D01*
X45754Y-30525D01*
X45813Y-30525D01*
X46263Y-30525D01*
X46318Y-30502D01*
X46360Y-30460D01*
X46382Y-30405D01*
X46382Y-30346D01*
X46382Y-30146D01*
X46359Y-30091D01*
X46317Y-30049D01*
X46262Y-30027D01*
X46203Y-30027D01*
X45753Y-30027D01*
X45698Y-30050D01*
X45662Y-30086D01*
X45615Y-30086D01*
X45608Y-30078D01*
X45608Y-29918D01*
X45620Y-29926D01*
X45651Y-29947D01*
X45651Y-29948D01*
X45657Y-29961D01*
X45699Y-30003D01*
X45754Y-30025D01*
X45813Y-30025D01*
X46263Y-30025D01*
X46318Y-30002D01*
X46360Y-29960D01*
X46382Y-29905D01*
X46382Y-29846D01*
X46382Y-29646D01*
X46359Y-29591D01*
X46317Y-29549D01*
X46262Y-29527D01*
X46203Y-29527D01*
X45790Y-29527D01*
X45790Y-29525D01*
X45813Y-29525D01*
X46263Y-29525D01*
X46318Y-29502D01*
X46354Y-29466D01*
X46551Y-29466D01*
X46624Y-29452D01*
X46685Y-29410D01*
X46906Y-29190D01*
X46906Y-29189D01*
X46948Y-29128D01*
X46961Y-29055D01*
X46962Y-29055D01*
X46962Y-26574D01*
X47339Y-26198D01*
X47339Y-26197D01*
X47341Y-26194D01*
X47401Y-26135D01*
X47638Y-26135D01*
X49555Y-26135D01*
X49495Y-26195D01*
X49527Y-26227D01*
X49489Y-26239D01*
X49418Y-26441D01*
X49429Y-26654D01*
X49489Y-26801D01*
X49583Y-26828D01*
X49855Y-26555D01*
X49890Y-26520D01*
X49961Y-26449D01*
X50032Y-26520D01*
X50067Y-26555D01*
X50339Y-26828D01*
X50433Y-26801D01*
X50504Y-26599D01*
X50493Y-26386D01*
X50433Y-26239D01*
X50394Y-26227D01*
X50427Y-26195D01*
X50367Y-26135D01*
X50804Y-26135D01*
X50790Y-26171D01*
X50789Y-26408D01*
X50851Y-26470D01*
X51289Y-26470D01*
X51289Y-26032D01*
X51227Y-25970D01*
X52575Y-24623D01*
X52575Y-24622D01*
X52620Y-24667D01*
X52652Y-24634D01*
X52664Y-24673D01*
X52866Y-24744D01*
X53079Y-24733D01*
X53226Y-24673D01*
X53253Y-24579D01*
X52980Y-24307D01*
X52945Y-24272D01*
X52874Y-24201D01*
X52945Y-24130D01*
X52980Y-24095D01*
X53253Y-23823D01*
X53226Y-23729D01*
X53152Y-23703D01*
X53226Y-23673D01*
X53253Y-23579D01*
X52945Y-23272D01*
X52874Y-23342D01*
X52874Y-23201D01*
X52567Y-22893D01*
X52473Y-22920D01*
X52402Y-23122D01*
X52413Y-23335D01*
X52473Y-23482D01*
X52567Y-23509D01*
X52874Y-23201D01*
X52874Y-23342D01*
X52637Y-23579D01*
X52664Y-23673D01*
X52737Y-23698D01*
X52664Y-23729D01*
X52652Y-23767D01*
X52620Y-23735D01*
X52563Y-23791D01*
X52339Y-23567D01*
X52278Y-23525D01*
X52259Y-23521D01*
X52325Y-23456D01*
X52394Y-23291D01*
X52394Y-23112D01*
X52326Y-22947D01*
X52200Y-22821D01*
X52035Y-22752D01*
X51856Y-22752D01*
X51790Y-22778D01*
X51619Y-22607D01*
X54134Y-22607D01*
X54134Y-22607D01*
G37*
G54D20*
X54134Y-22607D02*
X53488Y-24619D01*
X53488Y-24280D01*
X53488Y-23280D01*
X53477Y-23067D01*
X53417Y-22920D01*
X53323Y-22893D01*
X53253Y-22963D01*
X53253Y-22823D01*
X53226Y-22729D01*
X53024Y-22658D01*
X52811Y-22669D01*
X52664Y-22729D01*
X52637Y-22823D01*
X52945Y-23130D01*
X53253Y-22823D01*
X53253Y-22963D01*
X53016Y-23201D01*
X53323Y-23509D01*
X53417Y-23482D01*
X53488Y-23280D01*
X53488Y-24280D01*
X53477Y-24067D01*
X53417Y-23920D01*
X53323Y-23893D01*
X53253Y-23963D01*
X53016Y-24201D01*
X53323Y-24509D01*
X53417Y-24482D01*
X53488Y-24280D01*
X53488Y-24619D01*
X53253Y-25351D01*
X51889Y-29599D01*
X51889Y-26632D01*
X51889Y-26408D01*
X51888Y-26171D01*
X51850Y-26079D01*
X51780Y-26009D01*
X51689Y-25971D01*
X51590Y-25971D01*
X51451Y-25970D01*
X51389Y-26032D01*
X51389Y-26470D01*
X51827Y-26470D01*
X51889Y-26408D01*
X51889Y-26632D01*
X51827Y-26570D01*
X51389Y-26570D01*
X51389Y-27008D01*
X51451Y-27070D01*
X51590Y-27069D01*
X51689Y-27069D01*
X51780Y-27031D01*
X51850Y-26961D01*
X51888Y-26869D01*
X51889Y-26632D01*
X51889Y-29599D01*
X51788Y-29914D01*
X51788Y-28610D01*
X51788Y-28431D01*
X51720Y-28266D01*
X51594Y-28140D01*
X51429Y-28071D01*
X51250Y-28071D01*
X51085Y-28139D01*
X50959Y-28265D01*
X50899Y-28408D01*
X50899Y-28228D01*
X51185Y-27942D01*
X51249Y-27969D01*
X51428Y-27969D01*
X51593Y-27901D01*
X51719Y-27775D01*
X51788Y-27610D01*
X51788Y-27431D01*
X51720Y-27266D01*
X51594Y-27140D01*
X51429Y-27071D01*
X51289Y-27071D01*
X51289Y-27008D01*
X51289Y-26570D01*
X50851Y-26570D01*
X50789Y-26632D01*
X50790Y-26869D01*
X50828Y-26961D01*
X50898Y-27031D01*
X50989Y-27069D01*
X51088Y-27069D01*
X51227Y-27070D01*
X51289Y-27008D01*
X51289Y-27071D01*
X51250Y-27071D01*
X51085Y-27139D01*
X50959Y-27265D01*
X50890Y-27430D01*
X50890Y-27609D01*
X50916Y-27673D01*
X50575Y-28016D01*
X50533Y-28077D01*
X50519Y-28150D01*
X50519Y-29094D01*
X50504Y-29109D01*
X50410Y-29203D01*
X50410Y-28849D01*
X50410Y-28790D01*
X50410Y-28190D01*
X50410Y-27610D01*
X50410Y-27431D01*
X50342Y-27266D01*
X50269Y-27193D01*
X50269Y-26898D01*
X49961Y-26591D01*
X49890Y-26661D01*
X49653Y-26898D01*
X49680Y-26992D01*
X49882Y-27063D01*
X50095Y-27052D01*
X50242Y-26992D01*
X50269Y-26898D01*
X50269Y-27193D01*
X50216Y-27140D01*
X50051Y-27071D01*
X49872Y-27071D01*
X49707Y-27139D01*
X49581Y-27265D01*
X49512Y-27430D01*
X49512Y-27601D01*
X49502Y-27577D01*
X49432Y-27507D01*
X49341Y-27469D01*
X49242Y-27469D01*
X49183Y-27468D01*
X49183Y-26600D01*
X49183Y-26471D01*
X49134Y-26351D01*
X49043Y-26260D01*
X48923Y-26210D01*
X48794Y-26210D01*
X48674Y-26259D01*
X48588Y-26345D01*
X48465Y-26345D01*
X48392Y-26359D01*
X48330Y-26401D01*
X47425Y-27307D01*
X47383Y-27368D01*
X47369Y-27441D01*
X47369Y-28622D01*
X47383Y-28695D01*
X47425Y-28756D01*
X47578Y-28910D01*
X47579Y-28910D01*
X47640Y-28952D01*
X47712Y-28965D01*
X47713Y-28966D01*
X47762Y-28966D01*
X47799Y-29003D01*
X47854Y-29025D01*
X47913Y-29025D01*
X48363Y-29025D01*
X48418Y-29002D01*
X48460Y-28960D01*
X48482Y-28905D01*
X48482Y-28846D01*
X48482Y-28646D01*
X48459Y-28591D01*
X48417Y-28549D01*
X48362Y-28527D01*
X48303Y-28527D01*
X47853Y-28527D01*
X47798Y-28550D01*
X47776Y-28571D01*
X47749Y-28543D01*
X47749Y-27519D01*
X48037Y-27230D01*
X48070Y-27310D01*
X48116Y-27356D01*
X48116Y-27683D01*
X48071Y-27728D01*
X48021Y-27848D01*
X48021Y-27977D01*
X48070Y-28097D01*
X48161Y-28188D01*
X48281Y-28238D01*
X48410Y-28238D01*
X48522Y-28191D01*
X48530Y-28209D01*
X48600Y-28279D01*
X48691Y-28317D01*
X48790Y-28317D01*
X48904Y-28318D01*
X48966Y-28256D01*
X48966Y-27993D01*
X48966Y-27943D01*
X48966Y-27843D01*
X48966Y-27793D01*
X48966Y-27530D01*
X48904Y-27468D01*
X48790Y-27469D01*
X48691Y-27469D01*
X48600Y-27507D01*
X48576Y-27531D01*
X48576Y-27356D01*
X48621Y-27311D01*
X48671Y-27191D01*
X48671Y-27062D01*
X48622Y-26942D01*
X48531Y-26851D01*
X48451Y-26817D01*
X48543Y-26725D01*
X48588Y-26725D01*
X48673Y-26810D01*
X48793Y-26860D01*
X48922Y-26860D01*
X49042Y-26811D01*
X49133Y-26720D01*
X49183Y-26600D01*
X49183Y-27468D01*
X49128Y-27468D01*
X49066Y-27530D01*
X49066Y-27843D01*
X49479Y-27843D01*
X49541Y-27781D01*
X49540Y-27677D01*
X49580Y-27774D01*
X49706Y-27900D01*
X49871Y-27969D01*
X50050Y-27969D01*
X50215Y-27901D01*
X50341Y-27775D01*
X50410Y-27610D01*
X50410Y-28190D01*
X50387Y-28135D01*
X50345Y-28093D01*
X50290Y-28071D01*
X50231Y-28071D01*
X49631Y-28071D01*
X49576Y-28094D01*
X49541Y-28129D01*
X49541Y-28005D01*
X49479Y-27943D01*
X49066Y-27943D01*
X49066Y-28256D01*
X49128Y-28318D01*
X49242Y-28317D01*
X49341Y-28317D01*
X49432Y-28279D01*
X49502Y-28209D01*
X49540Y-28117D01*
X49541Y-28005D01*
X49541Y-28129D01*
X49534Y-28136D01*
X49512Y-28191D01*
X49512Y-28250D01*
X49512Y-28413D01*
X49429Y-28413D01*
X49417Y-28383D01*
X49375Y-28341D01*
X49320Y-28319D01*
X49261Y-28319D01*
X48711Y-28319D01*
X48656Y-28342D01*
X48614Y-28384D01*
X48592Y-28439D01*
X48592Y-28498D01*
X48592Y-28848D01*
X48615Y-28903D01*
X48657Y-28945D01*
X48712Y-28967D01*
X48771Y-28967D01*
X49321Y-28967D01*
X49376Y-28944D01*
X49418Y-28902D01*
X49429Y-28873D01*
X49521Y-28873D01*
X49535Y-28905D01*
X49577Y-28947D01*
X49632Y-28969D01*
X49691Y-28969D01*
X50291Y-28969D01*
X50346Y-28946D01*
X50388Y-28904D01*
X50410Y-28849D01*
X50410Y-29203D01*
X50027Y-29586D01*
X48482Y-29586D01*
X48482Y-29405D01*
X48482Y-29346D01*
X48482Y-29146D01*
X48459Y-29091D01*
X48417Y-29049D01*
X48362Y-29027D01*
X48303Y-29027D01*
X47853Y-29027D01*
X47798Y-29050D01*
X47762Y-29086D01*
X47614Y-29086D01*
X47541Y-29100D01*
X47504Y-29125D01*
X47479Y-29142D01*
X46756Y-29866D01*
X46714Y-29927D01*
X46700Y-30000D01*
X46700Y-30202D01*
X46615Y-30287D01*
X46565Y-30407D01*
X46565Y-30536D01*
X46614Y-30656D01*
X46705Y-30747D01*
X46825Y-30797D01*
X46954Y-30797D01*
X47074Y-30748D01*
X47165Y-30657D01*
X47215Y-30537D01*
X47215Y-30408D01*
X47166Y-30288D01*
X47080Y-30202D01*
X47080Y-30078D01*
X47692Y-29466D01*
X47762Y-29466D01*
X47799Y-29503D01*
X47854Y-29525D01*
X47913Y-29525D01*
X48363Y-29525D01*
X48418Y-29502D01*
X48460Y-29460D01*
X48482Y-29405D01*
X48482Y-29586D01*
X48454Y-29586D01*
X48417Y-29549D01*
X48362Y-29527D01*
X48303Y-29527D01*
X47853Y-29527D01*
X47798Y-29550D01*
X47756Y-29592D01*
X47734Y-29647D01*
X47734Y-29706D01*
X47734Y-29906D01*
X47757Y-29961D01*
X47799Y-30003D01*
X47854Y-30025D01*
X47913Y-30025D01*
X48363Y-30025D01*
X48418Y-30002D01*
X48454Y-29966D01*
X50106Y-29966D01*
X50150Y-29957D01*
X49251Y-30856D01*
X49188Y-30856D01*
X49068Y-30905D01*
X48977Y-30996D01*
X48927Y-31116D01*
X48927Y-31245D01*
X48976Y-31365D01*
X49022Y-31411D01*
X49022Y-31466D01*
X48947Y-31466D01*
X48892Y-31489D01*
X48850Y-31531D01*
X48838Y-31560D01*
X48428Y-31560D01*
X48417Y-31549D01*
X48362Y-31527D01*
X48303Y-31527D01*
X47853Y-31527D01*
X47798Y-31550D01*
X47756Y-31592D01*
X47734Y-31647D01*
X47734Y-31706D01*
X47734Y-31906D01*
X47757Y-31961D01*
X47799Y-32003D01*
X47854Y-32025D01*
X47878Y-32025D01*
X47878Y-32276D01*
X47877Y-32281D01*
X47896Y-32369D01*
X47922Y-32408D01*
X47922Y-32625D01*
X47945Y-32680D01*
X47987Y-32722D01*
X48042Y-32744D01*
X48101Y-32744D01*
X48651Y-32744D01*
X48706Y-32721D01*
X48727Y-32699D01*
X48728Y-32764D01*
X48730Y-32771D01*
X48671Y-32746D01*
X48572Y-32746D01*
X48458Y-32745D01*
X48396Y-32807D01*
X48396Y-33120D01*
X48809Y-33120D01*
X48871Y-33058D01*
X48870Y-32946D01*
X48867Y-32938D01*
X48927Y-32964D01*
X49026Y-32964D01*
X49140Y-32965D01*
X49202Y-32903D01*
X49202Y-32640D01*
X49202Y-32590D01*
X49202Y-32490D01*
X49202Y-32440D01*
X49202Y-32177D01*
X49140Y-32115D01*
X49026Y-32116D01*
X48927Y-32116D01*
X48836Y-32154D01*
X48770Y-32220D01*
X48770Y-32215D01*
X48747Y-32160D01*
X48705Y-32118D01*
X48650Y-32096D01*
X48591Y-32096D01*
X48338Y-32096D01*
X48338Y-32025D01*
X48363Y-32025D01*
X48374Y-32020D01*
X48838Y-32020D01*
X48851Y-32050D01*
X48893Y-32092D01*
X48948Y-32114D01*
X49007Y-32114D01*
X49557Y-32114D01*
X49612Y-32091D01*
X49654Y-32049D01*
X49676Y-31994D01*
X49676Y-31935D01*
X49676Y-31585D01*
X49653Y-31530D01*
X49611Y-31488D01*
X49556Y-31466D01*
X49497Y-31466D01*
X49482Y-31466D01*
X49482Y-31411D01*
X49527Y-31366D01*
X49577Y-31246D01*
X49577Y-31181D01*
X51026Y-29731D01*
X51028Y-29730D01*
X51029Y-29730D01*
X51262Y-29495D01*
X51264Y-29494D01*
X51265Y-29494D01*
X51314Y-29419D01*
X51332Y-29332D01*
X51331Y-29331D01*
X51332Y-29331D01*
X51332Y-28969D01*
X51428Y-28969D01*
X51593Y-28901D01*
X51719Y-28775D01*
X51788Y-28610D01*
X51788Y-29914D01*
X50812Y-32954D01*
X50702Y-33229D01*
X50574Y-33485D01*
X50440Y-33668D01*
X50274Y-33818D01*
X50121Y-33934D01*
X50120Y-33934D01*
X50092Y-33953D01*
X50040Y-33974D01*
X49959Y-33988D01*
X49843Y-33988D01*
X49822Y-33992D01*
X49798Y-33992D01*
X49777Y-33996D01*
X49777Y-32652D01*
X49777Y-32428D01*
X49776Y-32316D01*
X49738Y-32224D01*
X49668Y-32154D01*
X49577Y-32116D01*
X49478Y-32116D01*
X49364Y-32115D01*
X49302Y-32177D01*
X49302Y-32490D01*
X49715Y-32490D01*
X49777Y-32428D01*
X49777Y-32652D01*
X49715Y-32590D01*
X49302Y-32590D01*
X49302Y-32903D01*
X49364Y-32965D01*
X49478Y-32964D01*
X49577Y-32964D01*
X49668Y-32926D01*
X49738Y-32856D01*
X49776Y-32764D01*
X49777Y-32652D01*
X49777Y-33996D01*
X49648Y-34021D01*
X49567Y-34055D01*
X49439Y-34140D01*
X49377Y-34201D01*
X49376Y-34202D01*
X49376Y-34203D01*
X49292Y-34330D01*
X49291Y-34330D01*
X49291Y-34331D01*
X49258Y-34412D01*
X49228Y-34562D01*
X49228Y-34650D01*
X49258Y-34800D01*
X49291Y-34881D01*
X49292Y-34882D01*
X49376Y-35009D01*
X49377Y-35011D01*
X49438Y-35071D01*
X49439Y-35072D01*
X49567Y-35157D01*
X49648Y-35191D01*
X49795Y-35219D01*
X49798Y-35220D01*
X49799Y-35221D01*
X49906Y-35241D01*
X49959Y-35277D01*
X49994Y-35330D01*
X50005Y-35384D01*
X49304Y-37705D01*
X49305Y-37692D01*
X49305Y-37468D01*
X49304Y-37356D01*
X49266Y-37264D01*
X49204Y-37202D01*
X49204Y-37034D01*
X49204Y-36975D01*
X49204Y-36625D01*
X49181Y-36570D01*
X49139Y-36528D01*
X49084Y-36506D01*
X49025Y-36506D01*
X48871Y-36506D01*
X48871Y-33282D01*
X48809Y-33220D01*
X48396Y-33220D01*
X48396Y-33533D01*
X48458Y-33595D01*
X48572Y-33594D01*
X48671Y-33594D01*
X48762Y-33556D01*
X48832Y-33486D01*
X48870Y-33394D01*
X48871Y-33282D01*
X48871Y-36506D01*
X48475Y-36506D01*
X48420Y-36529D01*
X48378Y-36571D01*
X48356Y-36626D01*
X48356Y-36640D01*
X48338Y-36640D01*
X48338Y-36409D01*
X48315Y-36354D01*
X48273Y-36312D01*
X48218Y-36290D01*
X48159Y-36290D01*
X47946Y-36290D01*
X47946Y-35748D01*
X48284Y-35410D01*
X48326Y-35349D01*
X48339Y-35276D01*
X48340Y-35276D01*
X48340Y-33976D01*
X48326Y-33903D01*
X48284Y-33842D01*
X48284Y-33841D01*
X48036Y-33594D01*
X48120Y-33594D01*
X48234Y-33595D01*
X48296Y-33533D01*
X48296Y-33220D01*
X48296Y-33120D01*
X48296Y-32807D01*
X48234Y-32745D01*
X48120Y-32746D01*
X48021Y-32746D01*
X47930Y-32784D01*
X47860Y-32854D01*
X47822Y-32946D01*
X47821Y-33058D01*
X47883Y-33120D01*
X48296Y-33120D01*
X48296Y-33220D01*
X47883Y-33220D01*
X47821Y-33282D01*
X47821Y-33379D01*
X47631Y-33188D01*
X47631Y-31574D01*
X47739Y-31466D01*
X47762Y-31466D01*
X47799Y-31503D01*
X47854Y-31525D01*
X47913Y-31525D01*
X48363Y-31525D01*
X48418Y-31502D01*
X48460Y-31460D01*
X48482Y-31405D01*
X48482Y-31346D01*
X48482Y-31146D01*
X48459Y-31091D01*
X48417Y-31049D01*
X48362Y-31027D01*
X48303Y-31027D01*
X47853Y-31027D01*
X47798Y-31050D01*
X47762Y-31086D01*
X47661Y-31086D01*
X47588Y-31100D01*
X47527Y-31142D01*
X47307Y-31362D01*
X47277Y-31405D01*
X47277Y-31377D01*
X47688Y-30966D01*
X47762Y-30966D01*
X47799Y-31003D01*
X47854Y-31025D01*
X47913Y-31025D01*
X48363Y-31025D01*
X48418Y-31002D01*
X48460Y-30960D01*
X48482Y-30905D01*
X48482Y-30846D01*
X48482Y-30646D01*
X48482Y-30405D01*
X48482Y-30346D01*
X48482Y-30146D01*
X48459Y-30091D01*
X48417Y-30049D01*
X48362Y-30027D01*
X48303Y-30027D01*
X47853Y-30027D01*
X47798Y-30050D01*
X47756Y-30092D01*
X47734Y-30147D01*
X47734Y-30206D01*
X47734Y-30406D01*
X47757Y-30461D01*
X47799Y-30503D01*
X47854Y-30525D01*
X47913Y-30525D01*
X48363Y-30525D01*
X48418Y-30502D01*
X48460Y-30460D01*
X48482Y-30405D01*
X48482Y-30646D01*
X48459Y-30591D01*
X48417Y-30549D01*
X48362Y-30527D01*
X48303Y-30527D01*
X47853Y-30527D01*
X47798Y-30550D01*
X47762Y-30586D01*
X47610Y-30586D01*
X47537Y-30600D01*
X47475Y-30642D01*
X46953Y-31165D01*
X46911Y-31226D01*
X46897Y-31299D01*
X46897Y-32244D01*
X46483Y-32658D01*
X46483Y-31888D01*
X46483Y-31664D01*
X46482Y-31627D01*
X46444Y-31535D01*
X46374Y-31465D01*
X46360Y-31459D01*
X46382Y-31405D01*
X46382Y-31346D01*
X46382Y-31146D01*
X46359Y-31091D01*
X46317Y-31049D01*
X46262Y-31027D01*
X46203Y-31027D01*
X45753Y-31027D01*
X45698Y-31050D01*
X45662Y-31086D01*
X45148Y-31086D01*
X45148Y-31076D01*
X45125Y-31021D01*
X45083Y-30979D01*
X45028Y-30957D01*
X44969Y-30957D01*
X44419Y-30957D01*
X44364Y-30980D01*
X44322Y-31022D01*
X44300Y-31077D01*
X44300Y-31136D01*
X44300Y-31486D01*
X44323Y-31541D01*
X44365Y-31583D01*
X44420Y-31605D01*
X44479Y-31605D01*
X44534Y-31605D01*
X44534Y-31624D01*
X44419Y-31624D01*
X44364Y-31647D01*
X44322Y-31689D01*
X44300Y-31744D01*
X44300Y-31803D01*
X44300Y-32153D01*
X44323Y-32208D01*
X44365Y-32250D01*
X44420Y-32272D01*
X44479Y-32272D01*
X45029Y-32272D01*
X45084Y-32249D01*
X45126Y-32207D01*
X45148Y-32152D01*
X45148Y-32093D01*
X45148Y-31743D01*
X45125Y-31688D01*
X45083Y-31646D01*
X45028Y-31624D01*
X44969Y-31624D01*
X44914Y-31624D01*
X44914Y-31605D01*
X45029Y-31605D01*
X45084Y-31582D01*
X45126Y-31540D01*
X45148Y-31485D01*
X45148Y-31466D01*
X45641Y-31466D01*
X45572Y-31535D01*
X45534Y-31627D01*
X45533Y-31664D01*
X45595Y-31726D01*
X45908Y-31726D01*
X45958Y-31726D01*
X46058Y-31726D01*
X46108Y-31726D01*
X46421Y-31726D01*
X46483Y-31664D01*
X46483Y-31888D01*
X46421Y-31826D01*
X46058Y-31826D01*
X46058Y-32064D01*
X46120Y-32126D01*
X46184Y-32125D01*
X46283Y-32125D01*
X46374Y-32087D01*
X46444Y-32017D01*
X46482Y-31925D01*
X46483Y-31888D01*
X46483Y-32658D01*
X45958Y-33183D01*
X45958Y-32064D01*
X45958Y-31826D01*
X45595Y-31826D01*
X45533Y-31888D01*
X45534Y-31925D01*
X45572Y-32017D01*
X45642Y-32087D01*
X45733Y-32125D01*
X45832Y-32125D01*
X45896Y-32126D01*
X45958Y-32064D01*
X45958Y-33183D01*
X45536Y-33606D01*
X45494Y-33667D01*
X45480Y-33740D01*
X45480Y-35551D01*
X45480Y-35552D01*
X45494Y-35625D01*
X45536Y-35686D01*
X45873Y-36023D01*
X45873Y-37086D01*
X45858Y-37101D01*
X45858Y-37018D01*
X45858Y-36959D01*
X45858Y-36409D01*
X45835Y-36354D01*
X45793Y-36312D01*
X45738Y-36290D01*
X45679Y-36290D01*
X44813Y-36290D01*
X44758Y-36313D01*
X44716Y-36355D01*
X44694Y-36410D01*
X44694Y-36469D01*
X44694Y-36470D01*
X44668Y-36444D01*
X44577Y-36406D01*
X44478Y-36406D01*
X44364Y-36405D01*
X44302Y-36467D01*
X44302Y-36730D01*
X44302Y-36780D01*
X44302Y-36880D01*
X44302Y-36930D01*
X44302Y-37193D01*
X44364Y-37255D01*
X44478Y-37254D01*
X44577Y-37254D01*
X44668Y-37216D01*
X44738Y-37146D01*
X44752Y-37109D01*
X44759Y-37116D01*
X44814Y-37138D01*
X44873Y-37138D01*
X45739Y-37138D01*
X45794Y-37115D01*
X45836Y-37073D01*
X45858Y-37018D01*
X45858Y-37101D01*
X45685Y-37274D01*
X45679Y-37274D01*
X44813Y-37274D01*
X44758Y-37297D01*
X44716Y-37339D01*
X44695Y-37390D01*
X44676Y-37390D01*
X44676Y-37375D01*
X44653Y-37320D01*
X44611Y-37278D01*
X44556Y-37256D01*
X44497Y-37256D01*
X43947Y-37256D01*
X43892Y-37279D01*
X43850Y-37321D01*
X43828Y-37376D01*
X43828Y-37435D01*
X43828Y-37785D01*
X43851Y-37840D01*
X43893Y-37882D01*
X43948Y-37904D01*
X44007Y-37904D01*
X44557Y-37904D01*
X44612Y-37881D01*
X44654Y-37839D01*
X44676Y-37784D01*
X44676Y-37770D01*
X44694Y-37770D01*
X44694Y-38003D01*
X44717Y-38058D01*
X44759Y-38100D01*
X44814Y-38122D01*
X44873Y-38122D01*
X45739Y-38122D01*
X45794Y-38099D01*
X45836Y-38057D01*
X45858Y-38002D01*
X45858Y-37943D01*
X45858Y-37638D01*
X46197Y-37300D01*
X46197Y-37299D01*
X46239Y-37238D01*
X46252Y-37166D01*
X46253Y-37165D01*
X46253Y-35945D01*
X46252Y-35944D01*
X46239Y-35872D01*
X46197Y-35811D01*
X46197Y-35810D01*
X45860Y-35473D01*
X45860Y-35216D01*
X46090Y-35495D01*
X46158Y-35551D01*
X46162Y-35552D01*
X46496Y-35731D01*
X46497Y-35732D01*
X46498Y-35733D01*
X46556Y-35750D01*
X46581Y-35758D01*
X46581Y-35757D01*
X46582Y-35758D01*
X46966Y-35795D01*
X47053Y-35786D01*
X47421Y-35674D01*
X47422Y-35674D01*
X47423Y-35674D01*
X47499Y-35633D01*
X47500Y-35633D01*
X47643Y-35514D01*
X47622Y-35536D01*
X47580Y-35597D01*
X47566Y-35670D01*
X47566Y-36290D01*
X47293Y-36290D01*
X47238Y-36313D01*
X47196Y-36355D01*
X47174Y-36410D01*
X47174Y-36469D01*
X47174Y-37019D01*
X47197Y-37074D01*
X47239Y-37116D01*
X47294Y-37138D01*
X47353Y-37138D01*
X48219Y-37138D01*
X48274Y-37115D01*
X48316Y-37073D01*
X48337Y-37020D01*
X48356Y-37020D01*
X48356Y-37035D01*
X48379Y-37090D01*
X48421Y-37132D01*
X48476Y-37154D01*
X48535Y-37154D01*
X49085Y-37154D01*
X49140Y-37131D01*
X49182Y-37089D01*
X49204Y-37034D01*
X49204Y-37202D01*
X49196Y-37194D01*
X49105Y-37156D01*
X49006Y-37156D01*
X48892Y-37155D01*
X48830Y-37217D01*
X48830Y-37530D01*
X49243Y-37530D01*
X49305Y-37468D01*
X49305Y-37692D01*
X49243Y-37630D01*
X48830Y-37630D01*
X48830Y-37943D01*
X48892Y-38005D01*
X49006Y-38004D01*
X49105Y-38004D01*
X49196Y-37966D01*
X49239Y-37922D01*
X48891Y-39075D01*
X48730Y-39063D01*
X48730Y-37943D01*
X48730Y-37680D01*
X48730Y-37630D01*
X48730Y-37530D01*
X48730Y-37480D01*
X48730Y-37217D01*
X48668Y-37155D01*
X48554Y-37156D01*
X48455Y-37156D01*
X48364Y-37194D01*
X48294Y-37264D01*
X48278Y-37301D01*
X48273Y-37296D01*
X48218Y-37274D01*
X48159Y-37274D01*
X47293Y-37274D01*
X47238Y-37297D01*
X47196Y-37339D01*
X47174Y-37394D01*
X47174Y-37453D01*
X47174Y-38003D01*
X47197Y-38058D01*
X47239Y-38100D01*
X47294Y-38122D01*
X47353Y-38122D01*
X48219Y-38122D01*
X48274Y-38099D01*
X48316Y-38057D01*
X48338Y-38002D01*
X48338Y-37943D01*
X48338Y-37940D01*
X48364Y-37966D01*
X48455Y-38004D01*
X48554Y-38004D01*
X48668Y-38005D01*
X48730Y-37943D01*
X48730Y-39063D01*
X43768Y-38707D01*
X43768Y-37148D01*
X43836Y-37216D01*
X43927Y-37254D01*
X44026Y-37254D01*
X44140Y-37255D01*
X44202Y-37193D01*
X44202Y-36930D01*
X44202Y-36880D01*
X44202Y-36780D01*
X44202Y-36730D01*
X44202Y-36467D01*
X44140Y-36405D01*
X44026Y-36406D01*
X43927Y-36406D01*
X43836Y-36444D01*
X43768Y-36512D01*
X43768Y-36165D01*
X43845Y-35776D01*
X44052Y-35468D01*
X44357Y-35263D01*
X44767Y-35182D01*
X44768Y-35182D01*
X44918Y-35152D01*
X44999Y-35119D01*
X44999Y-35118D01*
X45000Y-35118D01*
X45127Y-35034D01*
X45127Y-35033D01*
X45129Y-35033D01*
X45189Y-34972D01*
X45190Y-34971D01*
X45275Y-34843D01*
X45309Y-34762D01*
X45338Y-34612D01*
X45338Y-34610D01*
X45338Y-34524D01*
X45338Y-34522D01*
X45309Y-34372D01*
X45275Y-34291D01*
X45249Y-34251D01*
X45249Y-32810D01*
X45249Y-32586D01*
X45248Y-32474D01*
X45210Y-32382D01*
X45140Y-32312D01*
X45049Y-32274D01*
X44950Y-32274D01*
X44836Y-32273D01*
X44774Y-32335D01*
X44774Y-32648D01*
X45187Y-32648D01*
X45249Y-32586D01*
X45249Y-32810D01*
X45187Y-32748D01*
X44774Y-32748D01*
X44774Y-33061D01*
X44836Y-33123D01*
X44950Y-33122D01*
X45049Y-33122D01*
X45140Y-33084D01*
X45210Y-33014D01*
X45248Y-32922D01*
X45249Y-32810D01*
X45249Y-34251D01*
X45190Y-34163D01*
X45189Y-34162D01*
X45129Y-34101D01*
X45127Y-34100D01*
X45000Y-34016D01*
X44999Y-34015D01*
X44918Y-33982D01*
X44768Y-33952D01*
X44767Y-33952D01*
X44674Y-33933D01*
X44674Y-33061D01*
X44674Y-32748D01*
X44674Y-32648D01*
X44674Y-32335D01*
X44612Y-32273D01*
X44498Y-32274D01*
X44399Y-32274D01*
X44308Y-32312D01*
X44238Y-32382D01*
X44200Y-32474D01*
X44199Y-32586D01*
X44261Y-32648D01*
X44674Y-32648D01*
X44674Y-32748D01*
X44261Y-32748D01*
X44199Y-32810D01*
X44200Y-32922D01*
X44238Y-33014D01*
X44308Y-33084D01*
X44399Y-33122D01*
X44498Y-33122D01*
X44612Y-33123D01*
X44674Y-33061D01*
X44674Y-33933D01*
X44357Y-33870D01*
X44052Y-33665D01*
X43845Y-33357D01*
X43768Y-32968D01*
X43768Y-23572D01*
X43792Y-23630D01*
X43862Y-23700D01*
X43954Y-23738D01*
X44191Y-23739D01*
X44253Y-23677D01*
X44253Y-23289D01*
X44253Y-23239D01*
X44253Y-23139D01*
X44253Y-23089D01*
X44253Y-22701D01*
X44191Y-22639D01*
X43954Y-22640D01*
X43862Y-22678D01*
X43792Y-22748D01*
X43768Y-22805D01*
X43768Y-22607D01*
X48462Y-22607D01*
X48212Y-22858D01*
X48170Y-22919D01*
X48166Y-22937D01*
X48050Y-22821D01*
X47885Y-22752D01*
X47706Y-22752D01*
X47541Y-22820D01*
X47415Y-22946D01*
X47346Y-23111D01*
X47346Y-23290D01*
X47414Y-23455D01*
X47540Y-23581D01*
X47705Y-23650D01*
X47884Y-23650D01*
X48049Y-23582D01*
X48156Y-23475D01*
X48156Y-23764D01*
X48124Y-23752D01*
X48065Y-23752D01*
X47465Y-23752D01*
X47410Y-23775D01*
X47368Y-23817D01*
X47346Y-23872D01*
X47346Y-23931D01*
X47346Y-23971D01*
X45752Y-23971D01*
X45752Y-23279D01*
X45752Y-23100D01*
X45684Y-22935D01*
X45558Y-22809D01*
X45393Y-22740D01*
X45214Y-22740D01*
X45049Y-22808D01*
X44923Y-22934D01*
X44854Y-23099D01*
X44854Y-23278D01*
X44922Y-23443D01*
X45048Y-23569D01*
X45213Y-23638D01*
X45392Y-23638D01*
X45557Y-23570D01*
X45683Y-23444D01*
X45752Y-23279D01*
X45752Y-23971D01*
X45336Y-23971D01*
X45303Y-23938D01*
X45183Y-23888D01*
X45054Y-23888D01*
X44934Y-23937D01*
X44853Y-24018D01*
X44853Y-23301D01*
X44853Y-23077D01*
X44852Y-22938D01*
X44852Y-22839D01*
X44814Y-22748D01*
X44744Y-22678D01*
X44652Y-22640D01*
X44415Y-22639D01*
X44353Y-22701D01*
X44353Y-23139D01*
X44791Y-23139D01*
X44853Y-23077D01*
X44853Y-23301D01*
X44791Y-23239D01*
X44353Y-23239D01*
X44353Y-23677D01*
X44415Y-23739D01*
X44652Y-23738D01*
X44744Y-23700D01*
X44814Y-23630D01*
X44852Y-23539D01*
X44852Y-23440D01*
X44853Y-23301D01*
X44853Y-24018D01*
X44843Y-24028D01*
X44793Y-24148D01*
X44793Y-24277D01*
X44842Y-24397D01*
X44933Y-24488D01*
X45053Y-24538D01*
X45182Y-24538D01*
X45302Y-24489D01*
X45360Y-24431D01*
X47346Y-24431D01*
X47346Y-24531D01*
X47369Y-24586D01*
X47411Y-24628D01*
X47466Y-24650D01*
X47525Y-24650D01*
X48113Y-24650D01*
X47835Y-24928D01*
X47795Y-24928D01*
X46220Y-24928D01*
X46147Y-24942D01*
X46085Y-24984D01*
X45102Y-25968D01*
X45060Y-26029D01*
X45046Y-26102D01*
X45046Y-27861D01*
X45040Y-27847D01*
X44949Y-27756D01*
X44829Y-27706D01*
X44700Y-27706D01*
X44580Y-27755D01*
X44489Y-27846D01*
X44439Y-27966D01*
X44439Y-28095D01*
X44488Y-28215D01*
X44534Y-28261D01*
X44534Y-29567D01*
X44534Y-30207D01*
X44419Y-30207D01*
X44364Y-30230D01*
X44322Y-30272D01*
X44300Y-30327D01*
X44300Y-30386D01*
X44300Y-30736D01*
X44323Y-30791D01*
X44365Y-30833D01*
X44420Y-30855D01*
X44479Y-30855D01*
X45029Y-30855D01*
X45084Y-30832D01*
X45126Y-30790D01*
X45137Y-30760D01*
X45286Y-30910D01*
X45287Y-30910D01*
X45348Y-30952D01*
X45421Y-30966D01*
X45540Y-30966D01*
X45662Y-30966D01*
X45699Y-31003D01*
X45754Y-31025D01*
X45813Y-31025D01*
X46263Y-31025D01*
X46318Y-31002D01*
X46360Y-30960D01*
X46382Y-30905D01*
X46382Y-30846D01*
X46382Y-30646D01*
X46359Y-30591D01*
X46317Y-30549D01*
X46262Y-30527D01*
X46203Y-30527D01*
X45753Y-30527D01*
X45698Y-30550D01*
X45662Y-30586D01*
X45540Y-30586D01*
X45499Y-30586D01*
X45426Y-30512D01*
X45426Y-30426D01*
X45464Y-30452D01*
X45537Y-30466D01*
X45662Y-30466D01*
X45699Y-30503D01*
X45754Y-30525D01*
X45813Y-30525D01*
X46263Y-30525D01*
X46318Y-30502D01*
X46360Y-30460D01*
X46382Y-30405D01*
X46382Y-30346D01*
X46382Y-30146D01*
X46359Y-30091D01*
X46317Y-30049D01*
X46262Y-30027D01*
X46203Y-30027D01*
X45753Y-30027D01*
X45698Y-30050D01*
X45662Y-30086D01*
X45615Y-30086D01*
X45608Y-30078D01*
X45608Y-29918D01*
X45620Y-29926D01*
X45651Y-29947D01*
X45651Y-29948D01*
X45657Y-29961D01*
X45699Y-30003D01*
X45754Y-30025D01*
X45813Y-30025D01*
X46263Y-30025D01*
X46318Y-30002D01*
X46360Y-29960D01*
X46382Y-29905D01*
X46382Y-29846D01*
X46382Y-29646D01*
X46359Y-29591D01*
X46317Y-29549D01*
X46262Y-29527D01*
X46203Y-29527D01*
X45790Y-29527D01*
X45790Y-29525D01*
X45813Y-29525D01*
X46263Y-29525D01*
X46318Y-29502D01*
X46354Y-29466D01*
X46551Y-29466D01*
X46624Y-29452D01*
X46685Y-29410D01*
X46906Y-29190D01*
X46906Y-29189D01*
X46948Y-29128D01*
X46961Y-29055D01*
X46962Y-29055D01*
X46962Y-26574D01*
X47339Y-26198D01*
X47339Y-26197D01*
X47341Y-26194D01*
X47401Y-26135D01*
X47638Y-26135D01*
X49555Y-26135D01*
X49495Y-26195D01*
X49527Y-26227D01*
X49489Y-26239D01*
X49418Y-26441D01*
X49429Y-26654D01*
X49489Y-26801D01*
X49583Y-26828D01*
X49855Y-26555D01*
X49890Y-26520D01*
X49961Y-26449D01*
X50032Y-26520D01*
X50067Y-26555D01*
X50339Y-26828D01*
X50433Y-26801D01*
X50504Y-26599D01*
X50493Y-26386D01*
X50433Y-26239D01*
X50394Y-26227D01*
X50427Y-26195D01*
X50367Y-26135D01*
X50804Y-26135D01*
X50790Y-26171D01*
X50789Y-26408D01*
X50851Y-26470D01*
X51289Y-26470D01*
X51289Y-26032D01*
X51227Y-25970D01*
X52575Y-24623D01*
X52575Y-24622D01*
X52620Y-24667D01*
X52652Y-24634D01*
X52664Y-24673D01*
X52866Y-24744D01*
X53079Y-24733D01*
X53226Y-24673D01*
X53253Y-24579D01*
X52980Y-24307D01*
X52945Y-24272D01*
X52874Y-24201D01*
X52945Y-24130D01*
X52980Y-24095D01*
X53253Y-23823D01*
X53226Y-23729D01*
X53152Y-23703D01*
X53226Y-23673D01*
X53253Y-23579D01*
X52945Y-23272D01*
X52874Y-23342D01*
X52874Y-23201D01*
X52567Y-22893D01*
X52473Y-22920D01*
X52402Y-23122D01*
X52413Y-23335D01*
X52473Y-23482D01*
X52567Y-23509D01*
X52874Y-23201D01*
X52874Y-23342D01*
X52637Y-23579D01*
X52664Y-23673D01*
X52737Y-23698D01*
X52664Y-23729D01*
X52652Y-23767D01*
X52620Y-23735D01*
X52563Y-23791D01*
X52339Y-23567D01*
X52278Y-23525D01*
X52259Y-23521D01*
X52325Y-23456D01*
X52394Y-23291D01*
X52394Y-23112D01*
X52326Y-22947D01*
X52200Y-22821D01*
X52035Y-22752D01*
X51856Y-22752D01*
X51790Y-22778D01*
X51619Y-22607D01*
X54134Y-22607D01*
M02*
