<?xml version="1.0" standalone="no"?>
<!DOCTYPE svg PUBLIC "-//W3C//DTD SVG 20010904//EN" 
"http://www.w3.org/TR/2001/REC-SVG-20010904/DTD/svg10.dtd"> 
<svg xmlns="http://www.w3.org/2000/svg" xmlns:xlink="http://www.w3.org/1999/xlink" 
    width="42.00cm" height="29.72cm" viewBox="0 0 165350 117000 "> 
<title>SVG Picture created as N64_USB_FTW-SilkS_Front.svg </title>
<desc>Picture generated by wxSVG v0100 </desc>
<g style="fill:black; stroke:black; stroke-width:1">
</g>
<g style="fill:#000000; fill-opacity:0.0; stroke:#0000C0; stroke-opacity:1.00; stroke-linecap:round; stroke-linejoin:round; stroke-width:0" 
   transform="translate(0.00 0.00) scale(1.00 1.00)">
<path d="M47557 58740 L47561 58740" /> 
<path d="M47559 58738 L47559 58742" /> 
</g>
<g style="fill:#00A0A0; fill-opacity:0.0; stroke:#00A0A0; stroke-opacity:1.00; stroke-linecap:round; stroke-linejoin:round; stroke-width:120" 
   transform="translate(0.00 0.00) scale(1.00 1.00)">
<path d="M47559 58988 L47587 59026" /> 
<path d="M47587 59026 L47559 59064" /> 
<path d="M47559 59064 L47530 59026" /> 
<path d="M47530 59026 L47559 58988" /> 
<path d="M47559 58988 L47559 59064" /> 
<g style = "stroke-linecap:round;" > 
<path d="M47559 59064 L47559 59064" /> 
</g></g>
<g style="fill:#00A0A0; fill-opacity:0.0; stroke:#0000C0; stroke-opacity:1.00; stroke-linecap:round; stroke-linejoin:round; stroke-width:0" 
   transform="translate(0.00 0.00) scale(1.00 1.00)">
<path d="M49762 54528 L49766 54528" /> 
<path d="M49764 54526 L49764 54530" /> 
</g>
<g style="fill:#00A0A0; fill-opacity:0.0; stroke:#00A0A0; stroke-opacity:1.00; stroke-linecap:round; stroke-linejoin:round; stroke-width:120" 
   transform="translate(0.00 0.00) scale(1.00 1.00)">
<path d="M49764 54776 L49792 54814" /> 
<path d="M49792 54814 L49764 54852" /> 
<path d="M49764 54852 L49735 54814" /> 
<path d="M49735 54814 L49764 54776" /> 
<path d="M49764 54776 L49764 54852" /> 
<g style = "stroke-linecap:round;" > 
<path d="M49764 54852 L49764 54852" /> 
</g></g>
<g style="fill:#FFFF00; fill-opacity:0.0; stroke:#FFFF00; stroke-opacity:1.00; stroke-linecap:round; stroke-linejoin:round; stroke-width:150" 
   transform="translate(0.00 0.00) scale(1.00 1.00)">
<path d="M51378 59449 A1181.00 1181.00 0.0 0 0 52559 58268 L51378 58268 z  " /> 
<path d="M52559 40945 A1181.00 1181.00 0.0 0 0 51378 39764 L51378 40945 z  " /> 
<path d="M32874 58268 A1181.00 1181.00 0.0 0 0 34055 59449 L34055 58268 z  " /> 
<path d="M34055 39764 A1181.00 1181.00 0.0 0 0 32874 40945 L34055 40945 z  " /> 
<path d="M32874 58268 L32874 40945" /> 
<path d="M51378 59449 L34055 59449" /> 
<path d="M52559 40945 L52559 58268" /> 
<path d="M34055 39764 L51378 39764" /> 
</g>
<g style="fill:#FFFF00; fill-opacity:0.0; stroke:#0000C0; stroke-opacity:1.00; stroke-linecap:round; stroke-linejoin:round; stroke-width:0" 
   transform="translate(0.00 0.00) scale(1.00 1.00)">
<path d="M40904 51299 L40908 51299" /> 
<path d="M40906 51297 L40906 51301" /> 
</g>
<g style="fill:#C0C0C0; fill-opacity:0.0; stroke:#C0C0C0; stroke-opacity:1.00; stroke-linecap:round; stroke-linejoin:round; stroke-width:80" 
   transform="translate(0.00 0.00) scale(1.00 1.00)">
<path d="M40516 51501 L40516 51001" /> 
<g style = "stroke-linecap:round;" > 
<path d="M40516 51001 L40516 51001" /> 
</g><path d="M40935 51454 L40916 51478" /> 
<path d="M40916 51478 L40859 51501" /> 
<path d="M40859 51501 L40821 51501" /> 
<path d="M40821 51501 L40763 51478" /> 
<path d="M40763 51478 L40725 51430" /> 
<path d="M40725 51430 L40706 51382" /> 
<path d="M40706 51382 L40687 51287" /> 
<path d="M40687 51287 L40687 51216" /> 
<path d="M40687 51216 L40706 51120" /> 
<path d="M40706 51120 L40725 51073" /> 
<path d="M40725 51073 L40763 51025" /> 
<path d="M40763 51025 L40821 51001" /> 
<path d="M40821 51001 L40859 51001" /> 
<path d="M40859 51001 L40916 51025" /> 
<path d="M40916 51025 L40935 51049" /> 
<g style = "stroke-linecap:round;" > 
<path d="M40935 51049 L40935 51049" /> 
</g><path d="M41316 51501 L41087 51501" /> 
<g style = "stroke-linecap:round;" > 
<path d="M41087 51501 L41087 51501" /> 
</g><path d="M41201 51501 L41201 51001" /> 
<path d="M41201 51001 L41163 51073" /> 
<path d="M41163 51073 L41125 51120" /> 
<path d="M41125 51120 L41087 51144" /> 
<g style = "stroke-linecap:round;" > 
<path d="M41087 51144 L41087 51144" /> 
</g></g>
<g style="fill:#C0C0C0; fill-opacity:0.0; stroke:#0000C0; stroke-opacity:1.00; stroke-linecap:round; stroke-linejoin:round; stroke-width:0" 
   transform="translate(0.00 0.00) scale(1.00 1.00)">
<path d="M38305 53248 L38309 53248" /> 
<path d="M38307 53246 L38307 53250" /> 
</g>
<g style="fill:#C0C0C0; fill-opacity:0.0; stroke:#C0C0C0; stroke-opacity:1.00; stroke-linecap:round; stroke-linejoin:round; stroke-width:80" 
   transform="translate(0.00 0.00) scale(1.00 1.00)">
<path d="M38367 54981 L38367 54790" /> 
<g style = "stroke-linecap:round;" > 
<path d="M38367 54790 L38367 54790" /> 
</g><path d="M38509 55019 L38009 54886" /> 
<path d="M38009 54886 L38509 54752" /> 
<g style = "stroke-linecap:round;" > 
<path d="M38509 54752 L38509 54752" /> 
</g><path d="M38009 54676 L38009 54447" /> 
<g style = "stroke-linecap:round;" > 
<path d="M38009 54447 L38009 54447" /> 
</g><path d="M38509 54562 L38009 54562" /> 
<g style = "stroke-linecap:round;" > 
<path d="M38009 54562 L38009 54562" /> 
</g><path d="M38509 54314 L38009 54314" /> 
<path d="M38009 54314 L38367 54180" /> 
<path d="M38367 54180 L38009 54047" /> 
<path d="M38009 54047 L38509 54047" /> 
<g style = "stroke-linecap:round;" > 
<path d="M38509 54047 L38509 54047" /> 
</g><path d="M38247 53857 L38247 53723" /> 
<g style = "stroke-linecap:round;" > 
<path d="M38247 53723 L38247 53723" /> 
</g><path d="M38509 53666 L38509 53857" /> 
<path d="M38509 53857 L38009 53857" /> 
<path d="M38009 53857 L38009 53666" /> 
<g style = "stroke-linecap:round;" > 
<path d="M38009 53666 L38009 53666" /> 
</g><path d="M38033 53285 L38009 53323" /> 
<path d="M38009 53323 L38009 53380" /> 
<path d="M38009 53380 L38033 53438" /> 
<path d="M38033 53438 L38081 53476" /> 
<path d="M38081 53476 L38128 53495" /> 
<path d="M38128 53495 L38224 53514" /> 
<path d="M38224 53514 L38295 53514" /> 
<path d="M38295 53514 L38390 53495" /> 
<path d="M38390 53495 L38438 53476" /> 
<path d="M38438 53476 L38486 53438" /> 
<path d="M38486 53438 L38509 53380" /> 
<path d="M38509 53380 L38509 53342" /> 
<path d="M38509 53342 L38486 53285" /> 
<path d="M38486 53285 L38462 53266" /> 
<path d="M38462 53266 L38295 53266" /> 
<path d="M38295 53266 L38295 53342" /> 
<g style = "stroke-linecap:round;" > 
<path d="M38295 53342 L38295 53342" /> 
</g><path d="M38367 53114 L38367 52923" /> 
<g style = "stroke-linecap:round;" > 
<path d="M38367 52923 L38367 52923" /> 
</g><path d="M38509 53152 L38009 53019" /> 
<path d="M38009 53019 L38509 52885" /> 
<g style = "stroke-linecap:round;" > 
<path d="M38509 52885 L38509 52885" /> 
</g><path d="M38224 52695 L38200 52733" /> 
<path d="M38200 52733 L38176 52752" /> 
<path d="M38176 52752 L38128 52771" /> 
<path d="M38128 52771 L38105 52771" /> 
<path d="M38105 52771 L38057 52752" /> 
<path d="M38057 52752 L38033 52733" /> 
<path d="M38033 52733 L38009 52695" /> 
<path d="M38009 52695 L38009 52618" /> 
<path d="M38009 52618 L38033 52580" /> 
<path d="M38033 52580 L38057 52561" /> 
<path d="M38057 52561 L38105 52542" /> 
<path d="M38105 52542 L38128 52542" /> 
<path d="M38128 52542 L38176 52561" /> 
<path d="M38176 52561 L38200 52580" /> 
<path d="M38200 52580 L38224 52618" /> 
<path d="M38224 52618 L38224 52695" /> 
<path d="M38224 52695 L38247 52733" /> 
<path d="M38247 52733 L38271 52752" /> 
<path d="M38271 52752 L38319 52771" /> 
<path d="M38319 52771 L38414 52771" /> 
<path d="M38414 52771 L38462 52752" /> 
<path d="M38462 52752 L38486 52733" /> 
<path d="M38486 52733 L38509 52695" /> 
<path d="M38509 52695 L38509 52618" /> 
<path d="M38509 52618 L38486 52580" /> 
<path d="M38486 52580 L38462 52561" /> 
<path d="M38462 52561 L38414 52542" /> 
<path d="M38414 52542 L38319 52542" /> 
<path d="M38319 52542 L38271 52561" /> 
<path d="M38271 52561 L38247 52580" /> 
<path d="M38247 52580 L38224 52618" /> 
<g style = "stroke-linecap:round;" > 
<path d="M38224 52618 L38224 52618" /> 
</g><path d="M38319 52371 L38319 52066" /> 
<g style = "stroke-linecap:round;" > 
<path d="M38319 52066 L38319 52066" /> 
</g><path d="M38367 51895 L38367 51704" /> 
<g style = "stroke-linecap:round;" > 
<path d="M38367 51704 L38367 51704" /> 
</g><path d="M38509 51933 L38009 51800" /> 
<path d="M38009 51800 L38509 51666" /> 
<g style = "stroke-linecap:round;" > 
<path d="M38509 51666 L38509 51666" /> 
</g><path d="M38509 51533 L38009 51533" /> 
<g style = "stroke-linecap:round;" > 
<path d="M38009 51533 L38009 51533" /> 
</g></g>
<g style="fill:#C0C0C0; fill-opacity:0.0; stroke:#00A0A0; stroke-opacity:1.00; stroke-linecap:round; stroke-linejoin:round; stroke-width:60" 
   transform="translate(0.00 0.00) scale(1.00 1.00)">
<path d="M36997 48319 L37447 48319" /> 
<path d="M36997 50499 L37437 50499" /> 
<path d="M36997 48319 L36997 50499" /> 
<path d="M37877 47849 L37877 47419" /> 
<path d="M40087 47839 L40087 47419" /> 
<path d="M40097 47419 L37877 47409" /> 
<path d="M40077 51389 L37907 51399" /> 
<path d="M40507 50699 L40507 47869" /> 
<path d="M37897 51389 L37897 50979" /> 
<path d="M40257 50939 L37477 50939" /> 
<path d="M37457 47859 L37457 50899" /> 
<path d="M40507 47859 L37507 47859" /> 
<path d="M40957 50529 L40957 48309" /> 
<path d="M40957 48309 L40507 48309" /> 
<path d="M40503 50709 L40273 50939" /> 
<path d="M40955 50529 L40503 50529" /> 
<path d="M40077 50939 L40077 51391" /> 
</g>
<g style="fill:#00A0A0; fill-opacity:0.0; stroke:#00A0A0; stroke-opacity:1.00; stroke-linecap:round; stroke-linejoin:round; stroke-width:60" 
   transform="translate(0.00 0.00) scale(1.00 1.00)">
<ellipse cx="40095" cy="50535" rx="188" ry="188"  /> 
</g>
<g style="fill:#00A0A0; fill-opacity:0.0; stroke:#0000C0; stroke-opacity:1.00; stroke-linecap:round; stroke-linejoin:round; stroke-width:0" 
   transform="translate(0.00 0.00) scale(1.00 1.00)">
<path d="M36376 53189 L36380 53189" /> 
<path d="M36378 53187 L36378 53191" /> 
</g>
<g style="fill:#C0C0C0; fill-opacity:0.0; stroke:#C0C0C0; stroke-opacity:1.00; stroke-linecap:round; stroke-linejoin:round; stroke-width:30" 
   transform="translate(0.00 0.00) scale(1.00 1.00)">
<path d="M36156 53310 L36156 53010" /> 
<path d="M36156 53010 L36228 53010" /> 
<path d="M36228 53010 L36271 53025" /> 
<path d="M36271 53025 L36299 53053" /> 
<path d="M36299 53053 L36314 53082" /> 
<path d="M36314 53082 L36328 53139" /> 
<path d="M36328 53139 L36328 53182" /> 
<path d="M36328 53182 L36314 53239" /> 
<path d="M36314 53239 L36299 53268" /> 
<path d="M36299 53268 L36271 53296" /> 
<path d="M36271 53296 L36228 53310" /> 
<path d="M36228 53310 L36156 53310" /> 
<path d="M36614 53310 L36442 53310" /> 
<g style = "stroke-linecap:round;" > 
<path d="M36442 53310 L36442 53310" /> 
</g><path d="M36528 53310 L36528 53010" /> 
<path d="M36528 53010 L36499 53053" /> 
<path d="M36499 53053 L36471 53082" /> 
<path d="M36471 53082 L36442 53096" /> 
<g style = "stroke-linecap:round;" > 
<path d="M36442 53096 L36442 53096" /> 
</g></g>
<g style="fill:#C0C0C0; fill-opacity:0.0; stroke:#0000C0; stroke-opacity:1.00; stroke-linecap:round; stroke-linejoin:round; stroke-width:0" 
   transform="translate(0.00 0.00) scale(1.00 1.00)">
<path d="M37518 53189 L37522 53189" /> 
<path d="M37520 53187 L37520 53191" /> 
</g>
<g style="fill:#C0C0C0; fill-opacity:0.0; stroke:#C0C0C0; stroke-opacity:1.00; stroke-linecap:round; stroke-linejoin:round; stroke-width:30" 
   transform="translate(0.00 0.00) scale(1.00 1.00)">
<path d="M37238 53071 L37360 53071" /> 
<path d="M37360 53071 L37294 53146" /> 
<path d="M37294 53146 L37323 53146" /> 
<path d="M37323 53146 L37341 53156" /> 
<path d="M37341 53156 L37351 53165" /> 
<path d="M37351 53165 L37360 53184" /> 
<path d="M37360 53184 L37360 53231" /> 
<path d="M37360 53231 L37351 53249" /> 
<path d="M37351 53249 L37341 53259" /> 
<path d="M37341 53259 L37323 53268" /> 
<path d="M37323 53268 L37266 53268" /> 
<path d="M37266 53268 L37248 53259" /> 
<path d="M37248 53259 L37238 53249" /> 
<g style = "stroke-linecap:round;" > 
<path d="M37238 53249 L37238 53249" /> 
</g><path d="M37445 53249 L37454 53259" /> 
<path d="M37454 53259 L37445 53268" /> 
<path d="M37445 53268 L37436 53259" /> 
<path d="M37436 53259 L37445 53249" /> 
<path d="M37445 53249 L37445 53268" /> 
<g style = "stroke-linecap:round;" > 
<path d="M37445 53268 L37445 53268" /> 
</g><path d="M37623 53071 L37586 53071" /> 
<path d="M37586 53071 L37567 53081" /> 
<path d="M37567 53081 L37558 53090" /> 
<path d="M37558 53090 L37539 53118" /> 
<path d="M37539 53118 L37530 53156" /> 
<path d="M37530 53156 L37530 53231" /> 
<path d="M37530 53231 L37539 53249" /> 
<path d="M37539 53249 L37548 53259" /> 
<path d="M37548 53259 L37567 53268" /> 
<path d="M37567 53268 L37605 53268" /> 
<path d="M37605 53268 L37623 53259" /> 
<path d="M37623 53259 L37633 53249" /> 
<path d="M37633 53249 L37642 53231" /> 
<path d="M37642 53231 L37642 53184" /> 
<path d="M37642 53184 L37633 53165" /> 
<path d="M37633 53165 L37623 53156" /> 
<path d="M37623 53156 L37605 53146" /> 
<path d="M37605 53146 L37567 53146" /> 
<path d="M37567 53146 L37548 53156" /> 
<path d="M37548 53156 L37539 53165" /> 
<path d="M37539 53165 L37530 53184" /> 
<g style = "stroke-linecap:round;" > 
<path d="M37530 53184 L37530 53184" /> 
</g><path d="M37708 53137 L37755 53268" /> 
<path d="M37755 53268 L37802 53137" /> 
<g style = "stroke-linecap:round;" > 
<path d="M37802 53137 L37802 53137" /> 
</g></g>
<g style="fill:#C0C0C0; fill-opacity:0.0; stroke:#00A0A0; stroke-opacity:1.00; stroke-linecap:round; stroke-linejoin:round; stroke-width:50" 
   transform="translate(0.00 0.00) scale(1.00 1.00)">
<path d="M37129 52298 L37429 52498" /> 
<path d="M36429 52298 L37454 52298" /> 
<path d="M37454 52298 L37454 52898" /> 
<path d="M37454 52898 L36429 52898" /> 
<path d="M36429 52898 L36429 52298" /> 
</g>
<g style="fill:#C0C0C0; fill-opacity:0.0; stroke:#0000C0; stroke-opacity:1.00; stroke-linecap:round; stroke-linejoin:round; stroke-width:0" 
   transform="translate(0.00 0.00) scale(1.00 1.00)">
<path d="M34486 53189 L34490 53189" /> 
<path d="M34488 53187 L34488 53191" /> 
</g>
<g style="fill:#C0C0C0; fill-opacity:0.0; stroke:#C0C0C0; stroke-opacity:1.00; stroke-linecap:round; stroke-linejoin:round; stroke-width:30" 
   transform="translate(0.00 0.00) scale(1.00 1.00)">
<path d="M34266 53310 L34266 53010" /> 
<path d="M34266 53010 L34338 53010" /> 
<path d="M34338 53010 L34381 53025" /> 
<path d="M34381 53025 L34409 53053" /> 
<path d="M34409 53053 L34424 53082" /> 
<path d="M34424 53082 L34438 53139" /> 
<path d="M34438 53139 L34438 53182" /> 
<path d="M34438 53182 L34424 53239" /> 
<path d="M34424 53239 L34409 53268" /> 
<path d="M34409 53268 L34381 53296" /> 
<path d="M34381 53296 L34338 53310" /> 
<path d="M34338 53310 L34266 53310" /> 
<path d="M34552 53039 L34566 53025" /> 
<path d="M34566 53025 L34595 53010" /> 
<path d="M34595 53010 L34666 53010" /> 
<path d="M34666 53010 L34695 53025" /> 
<path d="M34695 53025 L34709 53039" /> 
<path d="M34709 53039 L34724 53068" /> 
<path d="M34724 53068 L34724 53096" /> 
<path d="M34724 53096 L34709 53139" /> 
<path d="M34709 53139 L34538 53310" /> 
<path d="M34538 53310 L34724 53310" /> 
<g style = "stroke-linecap:round;" > 
<path d="M34724 53310 L34724 53310" /> 
</g></g>
<g style="fill:#C0C0C0; fill-opacity:0.0; stroke:#0000C0; stroke-opacity:1.00; stroke-linecap:round; stroke-linejoin:round; stroke-width:0" 
   transform="translate(0.00 0.00) scale(1.00 1.00)">
<path d="M35628 53189 L35632 53189" /> 
<path d="M35630 53187 L35630 53191" /> 
</g>
<g style="fill:#C0C0C0; fill-opacity:0.0; stroke:#C0C0C0; stroke-opacity:1.00; stroke-linecap:round; stroke-linejoin:round; stroke-width:30" 
   transform="translate(0.00 0.00) scale(1.00 1.00)">
<path d="M35348 53071 L35470 53071" /> 
<path d="M35470 53071 L35404 53146" /> 
<path d="M35404 53146 L35433 53146" /> 
<path d="M35433 53146 L35451 53156" /> 
<path d="M35451 53156 L35461 53165" /> 
<path d="M35461 53165 L35470 53184" /> 
<path d="M35470 53184 L35470 53231" /> 
<path d="M35470 53231 L35461 53249" /> 
<path d="M35461 53249 L35451 53259" /> 
<path d="M35451 53259 L35433 53268" /> 
<path d="M35433 53268 L35376 53268" /> 
<path d="M35376 53268 L35358 53259" /> 
<path d="M35358 53259 L35348 53249" /> 
<g style = "stroke-linecap:round;" > 
<path d="M35348 53249 L35348 53249" /> 
</g><path d="M35555 53249 L35564 53259" /> 
<path d="M35564 53259 L35555 53268" /> 
<path d="M35555 53268 L35546 53259" /> 
<path d="M35546 53259 L35555 53249" /> 
<path d="M35555 53249 L35555 53268" /> 
<g style = "stroke-linecap:round;" > 
<path d="M35555 53268 L35555 53268" /> 
</g><path d="M35733 53071 L35696 53071" /> 
<path d="M35696 53071 L35677 53081" /> 
<path d="M35677 53081 L35668 53090" /> 
<path d="M35668 53090 L35649 53118" /> 
<path d="M35649 53118 L35640 53156" /> 
<path d="M35640 53156 L35640 53231" /> 
<path d="M35640 53231 L35649 53249" /> 
<path d="M35649 53249 L35658 53259" /> 
<path d="M35658 53259 L35677 53268" /> 
<path d="M35677 53268 L35715 53268" /> 
<path d="M35715 53268 L35733 53259" /> 
<path d="M35733 53259 L35743 53249" /> 
<path d="M35743 53249 L35752 53231" /> 
<path d="M35752 53231 L35752 53184" /> 
<path d="M35752 53184 L35743 53165" /> 
<path d="M35743 53165 L35733 53156" /> 
<path d="M35733 53156 L35715 53146" /> 
<path d="M35715 53146 L35677 53146" /> 
<path d="M35677 53146 L35658 53156" /> 
<path d="M35658 53156 L35649 53165" /> 
<path d="M35649 53165 L35640 53184" /> 
<g style = "stroke-linecap:round;" > 
<path d="M35640 53184 L35640 53184" /> 
</g><path d="M35818 53137 L35865 53268" /> 
<path d="M35865 53268 L35912 53137" /> 
<g style = "stroke-linecap:round;" > 
<path d="M35912 53137 L35912 53137" /> 
</g></g>
<g style="fill:#C0C0C0; fill-opacity:0.0; stroke:#00A0A0; stroke-opacity:1.00; stroke-linecap:round; stroke-linejoin:round; stroke-width:50" 
   transform="translate(0.00 0.00) scale(1.00 1.00)">
<path d="M35239 52298 L35539 52498" /> 
<path d="M34539 52298 L35564 52298" /> 
<path d="M35564 52298 L35564 52898" /> 
<path d="M35564 52898 L34539 52898" /> 
<path d="M34539 52898 L34539 52298" /> 
</g>
<g style="fill:#C0C0C0; fill-opacity:0.0; stroke:#0000C0; stroke-opacity:1.00; stroke-linecap:round; stroke-linejoin:round; stroke-width:0" 
   transform="translate(0.00 0.00) scale(1.00 1.00)">
<path d="M40549 42677 L40553 42677" /> 
<path d="M40551 42675 L40551 42679" /> 
</g>
<g style="fill:#C0C0C0; fill-opacity:0.0; stroke:#C0C0C0; stroke-opacity:1.00; stroke-linecap:round; stroke-linejoin:round; stroke-width:80" 
   transform="translate(0.00 0.00) scale(1.00 1.00)">
<path d="M40246 42439 L40246 42763" /> 
<path d="M40246 42763 L40265 42801" /> 
<path d="M40265 42801 L40284 42820" /> 
<path d="M40284 42820 L40322 42839" /> 
<path d="M40322 42839 L40399 42839" /> 
<path d="M40399 42839 L40437 42820" /> 
<path d="M40437 42820 L40456 42801" /> 
<path d="M40456 42801 L40475 42763" /> 
<path d="M40475 42763 L40475 42439" /> 
<g style = "stroke-linecap:round;" > 
<path d="M40475 42439 L40475 42439" /> 
</g><path d="M40875 42839 L40646 42839" /> 
<g style = "stroke-linecap:round;" > 
<path d="M40646 42839 L40646 42839" /> 
</g><path d="M40760 42839 L40760 42439" /> 
<path d="M40760 42439 L40722 42496" /> 
<path d="M40722 42496 L40684 42534" /> 
<path d="M40684 42534 L40646 42553" /> 
<g style = "stroke-linecap:round;" > 
<path d="M40646 42553 L40646 42553" /> 
</g></g>
<g style="fill:#C0C0C0; fill-opacity:0.0; stroke:#0000C0; stroke-opacity:1.00; stroke-linecap:round; stroke-linejoin:round; stroke-width:0" 
   transform="translate(0.00 0.00) scale(1.00 1.00)">
<path d="M37872 40787 L37876 40787" /> 
<path d="M37874 40785 L37874 40789" /> 
</g>
<g style="fill:#C0C0C0; fill-opacity:0.0; stroke:#C0C0C0; stroke-opacity:1.00; stroke-linecap:round; stroke-linejoin:round; stroke-width:80" 
   transform="translate(0.00 0.00) scale(1.00 1.00)">
<path d="M37008 40949 L36817 40949" /> 
<path d="M36817 40949 L36817 40549" /> 
<g style = "stroke-linecap:round;" > 
<path d="M36817 40549 L36817 40549" /> 
</g><path d="M37141 40949 L37141 40549" /> 
<path d="M37141 40549 L37275 40835" /> 
<path d="M37275 40835 L37408 40549" /> 
<path d="M37408 40549 L37408 40949" /> 
<g style = "stroke-linecap:round;" > 
<path d="M37408 40949 L37408 40949" /> 
</g><path d="M37808 40949 L37579 40949" /> 
<g style = "stroke-linecap:round;" > 
<path d="M37579 40949 L37579 40949" /> 
</g><path d="M37693 40949 L37693 40549" /> 
<path d="M37693 40549 L37655 40606" /> 
<path d="M37655 40606 L37617 40644" /> 
<path d="M37617 40644 L37579 40663" /> 
<g style = "stroke-linecap:round;" > 
<path d="M37579 40663 L37579 40663" /> 
</g><path d="M38189 40949 L37960 40949" /> 
<g style = "stroke-linecap:round;" > 
<path d="M37960 40949 L37960 40949" /> 
</g><path d="M38074 40949 L38074 40549" /> 
<path d="M38074 40549 L38036 40606" /> 
<path d="M38036 40606 L37998 40644" /> 
<path d="M37998 40644 L37960 40663" /> 
<g style = "stroke-linecap:round;" > 
<path d="M37960 40663 L37960 40663" /> 
</g><path d="M38570 40949 L38341 40949" /> 
<g style = "stroke-linecap:round;" > 
<path d="M38341 40949 L38341 40949" /> 
</g><path d="M38455 40949 L38455 40549" /> 
<path d="M38455 40549 L38417 40606" /> 
<path d="M38417 40606 L38379 40644" /> 
<path d="M38379 40644 L38341 40663" /> 
<g style = "stroke-linecap:round;" > 
<path d="M38341 40663 L38341 40663" /> 
</g><path d="M38703 40549 L38970 40549" /> 
<path d="M38970 40549 L38798 40949" /> 
<g style = "stroke-linecap:round;" > 
<path d="M38798 40949 L38798 40949" /> 
</g></g>
<g style="fill:#C0C0C0; fill-opacity:0.0; stroke:#00A0A0; stroke-opacity:1.00; stroke-linecap:round; stroke-linejoin:round; stroke-width:80" 
   transform="translate(0.00 0.00) scale(1.00 1.00)">
<path d="M37628 41238 L36428 41238" /> 
<path d="M36428 41238 L36428 44038" /> 
<path d="M36428 44038 L37628 44038" /> 
<path d="M38828 41238 L39128 41238" /> 
<path d="M39128 41238 L40028 41838" /> 
<path d="M40028 41838 L40028 43438" /> 
<path d="M40028 43438 L39128 44038" /> 
<path d="M39128 44038 L38828 44038" /> 
</g>
<g style="fill:#C0C0C0; fill-opacity:0.0; stroke:#0000C0; stroke-opacity:1.00; stroke-linecap:round; stroke-linejoin:round; stroke-width:0" 
   transform="translate(0.00 0.00) scale(1.00 1.00)">
<path d="M34486 45157 L34490 45157" /> 
<path d="M34488 45155 L34488 45159" /> 
</g>
<g style="fill:#C0C0C0; fill-opacity:0.0; stroke:#C0C0C0; stroke-opacity:1.00; stroke-linecap:round; stroke-linejoin:round; stroke-width:50" 
   transform="translate(0.00 0.00) scale(1.00 1.00)">
<path d="M34446 45234 L34434 45246" /> 
<path d="M34434 45246 L34399 45258" /> 
<path d="M34399 45258 L34375 45258" /> 
<path d="M34375 45258 L34339 45246" /> 
<path d="M34339 45246 L34315 45222" /> 
<path d="M34315 45222 L34304 45199" /> 
<path d="M34304 45199 L34292 45151" /> 
<path d="M34292 45151 L34292 45115" /> 
<path d="M34292 45115 L34304 45068" /> 
<path d="M34304 45068 L34315 45044" /> 
<path d="M34315 45044 L34339 45020" /> 
<path d="M34339 45020 L34375 45008" /> 
<path d="M34375 45008 L34399 45008" /> 
<path d="M34399 45008 L34434 45020" /> 
<path d="M34434 45020 L34446 45032" /> 
<g style = "stroke-linecap:round;" > 
<path d="M34446 45032 L34446 45032" /> 
</g><path d="M34661 45092 L34661 45258" /> 
<g style = "stroke-linecap:round;" > 
<path d="M34661 45258 L34661 45258" /> 
</g><path d="M34601 44996 L34542 45175" /> 
<path d="M34542 45175 L34696 45175" /> 
<g style = "stroke-linecap:round;" > 
<path d="M34696 45175 L34696 45175" /> 
</g></g>
<g style="fill:#00A0A0; fill-opacity:0.0; stroke:#00A0A0; stroke-opacity:1.00; stroke-linecap:round; stroke-linejoin:round; stroke-width:50" 
   transform="translate(0.00 0.00) scale(1.00 1.00)">
<ellipse cx="36123" cy="45133" rx="50" ry="50"  /> 
<path d="M35673 45133 L36073 45133" /> 
<path d="M36073 45133 L36073 45733" /> 
<path d="M36073 45733 L35673 45733" /> 
<path d="M35273 45733 L34873 45733" /> 
<path d="M34873 45733 L34873 45133" /> 
<path d="M34873 45133 L35273 45133" /> 
</g>
<g style="fill:#00A0A0; fill-opacity:0.0; stroke:#0000C0; stroke-opacity:1.00; stroke-linecap:round; stroke-linejoin:round; stroke-width:0" 
   transform="translate(0.00 0.00) scale(1.00 1.00)">
<path d="M34447 46063 L34451 46063" /> 
<path d="M34449 46061 L34449 46065" /> 
</g>
<g style="fill:#C0C0C0; fill-opacity:0.0; stroke:#C0C0C0; stroke-opacity:1.00; stroke-linecap:round; stroke-linejoin:round; stroke-width:50" 
   transform="translate(0.00 0.00) scale(1.00 1.00)">
<path d="M34407 46164 L34324 46045" /> 
<g style = "stroke-linecap:round;" > 
<path d="M34324 46045 L34324 46045" /> 
</g><path d="M34265 46164 L34265 45914" /> 
<path d="M34265 45914 L34360 45914" /> 
<path d="M34360 45914 L34384 45926" /> 
<path d="M34384 45926 L34395 45938" /> 
<path d="M34395 45938 L34407 45962" /> 
<path d="M34407 45962 L34407 45998" /> 
<path d="M34407 45998 L34395 46021" /> 
<path d="M34395 46021 L34384 46033" /> 
<path d="M34384 46033 L34360 46045" /> 
<path d="M34360 46045 L34265 46045" /> 
<g style = "stroke-linecap:round;" > 
<path d="M34265 46045 L34265 46045" /> 
</g><path d="M34645 46164 L34503 46164" /> 
<g style = "stroke-linecap:round;" > 
<path d="M34503 46164 L34503 46164" /> 
</g><path d="M34574 46164 L34574 45914" /> 
<path d="M34574 45914 L34550 45950" /> 
<path d="M34550 45950 L34526 45974" /> 
<path d="M34526 45974 L34503 45986" /> 
<g style = "stroke-linecap:round;" > 
<path d="M34503 45986 L34503 45986" /> 
</g></g>
<g style="fill:#00A0A0; fill-opacity:0.0; stroke:#00A0A0; stroke-opacity:1.00; stroke-linecap:round; stroke-linejoin:round; stroke-width:50" 
   transform="translate(0.00 0.00) scale(1.00 1.00)">
<ellipse cx="36122" cy="46039" rx="50" ry="50"  /> 
<path d="M35672 46039 L36072 46039" /> 
<path d="M36072 46039 L36072 46639" /> 
<path d="M36072 46639 L35672 46639" /> 
<path d="M35272 46639 L34872 46639" /> 
<path d="M34872 46639 L34872 46039" /> 
<path d="M34872 46039 L35272 46039" /> 
</g>
<g style="fill:#00A0A0; fill-opacity:0.0; stroke:#0000C0; stroke-opacity:1.00; stroke-linecap:round; stroke-linejoin:round; stroke-width:0" 
   transform="translate(0.00 0.00) scale(1.00 1.00)">
<path d="M39565 53701 L39569 53701" /> 
<path d="M39567 53699 L39567 53703" /> 
</g>
<g style="fill:#C0C0C0; fill-opacity:0.0; stroke:#C0C0C0; stroke-opacity:1.00; stroke-linecap:round; stroke-linejoin:round; stroke-width:50" 
   transform="translate(0.00 0.00) scale(1.00 1.00)">
<path d="M39668 53743 L39549 53826" /> 
<g style = "stroke-linecap:round;" > 
<path d="M39549 53826 L39549 53826" /> 
</g><path d="M39668 53885 L39418 53885" /> 
<path d="M39418 53885 L39418 53790" /> 
<path d="M39418 53790 L39430 53766" /> 
<path d="M39430 53766 L39442 53755" /> 
<path d="M39442 53755 L39466 53743" /> 
<path d="M39466 53743 L39502 53743" /> 
<path d="M39502 53743 L39525 53755" /> 
<path d="M39525 53755 L39537 53766" /> 
<path d="M39537 53766 L39549 53790" /> 
<path d="M39549 53790 L39549 53885" /> 
<g style = "stroke-linecap:round;" > 
<path d="M39549 53885 L39549 53885" /> 
</g><path d="M39418 53659 L39418 53505" /> 
<path d="M39418 53505 L39513 53588" /> 
<path d="M39513 53588 L39513 53552" /> 
<path d="M39513 53552 L39525 53528" /> 
<path d="M39525 53528 L39537 53516" /> 
<path d="M39537 53516 L39561 53505" /> 
<path d="M39561 53505 L39621 53505" /> 
<path d="M39621 53505 L39644 53516" /> 
<path d="M39644 53516 L39656 53528" /> 
<path d="M39656 53528 L39668 53552" /> 
<path d="M39668 53552 L39668 53624" /> 
<path d="M39668 53624 L39656 53647" /> 
<path d="M39656 53647 L39644 53659" /> 
<g style = "stroke-linecap:round;" > 
<path d="M39644 53659 L39644 53659" /> 
</g></g>
<g style="fill:#00A0A0; fill-opacity:0.0; stroke:#00A0A0; stroke-opacity:1.00; stroke-linecap:round; stroke-linejoin:round; stroke-width:50" 
   transform="translate(0.00 0.00) scale(1.00 1.00)">
<ellipse cx="39867" cy="53406" rx="50" ry="50"  /> 
<path d="M39867 52956 L39867 53356" /> 
<path d="M39867 53356 L39267 53356" /> 
<path d="M39267 53356 L39267 52956" /> 
<path d="M39267 52556 L39267 52156" /> 
<path d="M39267 52156 L39867 52156" /> 
<path d="M39867 52156 L39867 52556" /> 
</g>
<g style="fill:#00A0A0; fill-opacity:0.0; stroke:#0000C0; stroke-opacity:1.00; stroke-linecap:round; stroke-linejoin:round; stroke-width:0" 
   transform="translate(0.00 0.00) scale(1.00 1.00)">
<path d="M40589 53701 L40593 53701" /> 
<path d="M40591 53699 L40591 53703" /> 
</g>
<g style="fill:#C0C0C0; fill-opacity:0.0; stroke:#C0C0C0; stroke-opacity:1.00; stroke-linecap:round; stroke-linejoin:round; stroke-width:50" 
   transform="translate(0.00 0.00) scale(1.00 1.00)">
<path d="M40692 53743 L40573 53826" /> 
<g style = "stroke-linecap:round;" > 
<path d="M40573 53826 L40573 53826" /> 
</g><path d="M40692 53885 L40442 53885" /> 
<path d="M40442 53885 L40442 53790" /> 
<path d="M40442 53790 L40454 53766" /> 
<path d="M40454 53766 L40466 53755" /> 
<path d="M40466 53755 L40490 53743" /> 
<path d="M40490 53743 L40526 53743" /> 
<path d="M40526 53743 L40549 53755" /> 
<path d="M40549 53755 L40561 53766" /> 
<path d="M40561 53766 L40573 53790" /> 
<path d="M40573 53790 L40573 53885" /> 
<g style = "stroke-linecap:round;" > 
<path d="M40573 53885 L40573 53885" /> 
</g><path d="M40466 53647 L40454 53635" /> 
<path d="M40454 53635 L40442 53612" /> 
<path d="M40442 53612 L40442 53552" /> 
<path d="M40442 53552 L40454 53528" /> 
<path d="M40454 53528 L40466 53516" /> 
<path d="M40466 53516 L40490 53505" /> 
<path d="M40490 53505 L40514 53505" /> 
<path d="M40514 53505 L40549 53516" /> 
<path d="M40549 53516 L40692 53659" /> 
<path d="M40692 53659 L40692 53505" /> 
<g style = "stroke-linecap:round;" > 
<path d="M40692 53505 L40692 53505" /> 
</g></g>
<g style="fill:#00A0A0; fill-opacity:0.0; stroke:#00A0A0; stroke-opacity:1.00; stroke-linecap:round; stroke-linejoin:round; stroke-width:50" 
   transform="translate(0.00 0.00) scale(1.00 1.00)">
<ellipse cx="40851" cy="53406" rx="50" ry="50"  /> 
<path d="M40851 52956 L40851 53356" /> 
<path d="M40851 53356 L40251 53356" /> 
<path d="M40251 53356 L40251 52956" /> 
<path d="M40251 52556 L40251 52156" /> 
<path d="M40251 52156 L40851 52156" /> 
<path d="M40851 52156 L40851 52556" /> 
</g>
<g style="fill:#00A0A0; fill-opacity:0.0; stroke:#0000C0; stroke-opacity:1.00; stroke-linecap:round; stroke-linejoin:round; stroke-width:0" 
   transform="translate(0.00 0.00) scale(1.00 1.00)">
<path d="M42203 51732 L42207 51732" /> 
<path d="M42205 51730 L42205 51734" /> 
</g>
<g style="fill:#C0C0C0; fill-opacity:0.0; stroke:#C0C0C0; stroke-opacity:1.00; stroke-linecap:round; stroke-linejoin:round; stroke-width:50" 
   transform="translate(0.00 0.00) scale(1.00 1.00)">
<path d="M42282 52125 L42294 52137" /> 
<path d="M42294 52137 L42306 52172" /> 
<path d="M42306 52172 L42306 52196" /> 
<path d="M42306 52196 L42294 52232" /> 
<path d="M42294 52232 L42270 52256" /> 
<path d="M42270 52256 L42247 52267" /> 
<path d="M42247 52267 L42199 52279" /> 
<path d="M42199 52279 L42163 52279" /> 
<path d="M42163 52279 L42116 52267" /> 
<path d="M42116 52267 L42092 52256" /> 
<path d="M42092 52256 L42068 52232" /> 
<path d="M42068 52232 L42056 52196" /> 
<path d="M42056 52196 L42056 52172" /> 
<path d="M42056 52172 L42068 52137" /> 
<path d="M42068 52137 L42080 52125" /> 
<g style = "stroke-linecap:round;" > 
<path d="M42080 52125 L42080 52125" /> 
</g><path d="M42306 51887 L42306 52029" /> 
<g style = "stroke-linecap:round;" > 
<path d="M42306 52029 L42306 52029" /> 
</g><path d="M42306 51958 L42056 51958" /> 
<path d="M42056 51958 L42092 51982" /> 
<path d="M42092 51982 L42116 52006" /> 
<path d="M42116 52006 L42128 52029" /> 
<g style = "stroke-linecap:round;" > 
<path d="M42128 52029 L42128 52029" /> 
</g><path d="M42140 51672 L42306 51672" /> 
<g style = "stroke-linecap:round;" > 
<path d="M42306 51672 L42306 51672" /> 
</g><path d="M42044 51732 L42223 51791" /> 
<path d="M42223 51791 L42223 51637" /> 
<g style = "stroke-linecap:round;" > 
<path d="M42223 51637 L42223 51637" /> 
</g><path d="M42306 51434 L42175 51434" /> 
<path d="M42175 51434 L42151 51446" /> 
<path d="M42151 51446 L42140 51470" /> 
<path d="M42140 51470 L42140 51518" /> 
<path d="M42140 51518 L42151 51541" /> 
<g style = "stroke-linecap:round;" > 
<path d="M42151 51541 L42151 51541" /> 
</g><path d="M42294 51434 L42306 51458" /> 
<path d="M42306 51458 L42306 51518" /> 
<path d="M42306 51518 L42294 51541" /> 
<path d="M42294 51541 L42270 51553" /> 
<path d="M42270 51553 L42247 51553" /> 
<path d="M42247 51553 L42223 51541" /> 
<path d="M42223 51541 L42211 51518" /> 
<path d="M42211 51518 L42211 51458" /> 
<path d="M42211 51458 L42199 51434" /> 
<g style = "stroke-linecap:round;" > 
<path d="M42199 51434 L42199 51434" /> 
</g><path d="M42306 51185 L42306 51327" /> 
<g style = "stroke-linecap:round;" > 
<path d="M42306 51327 L42306 51327" /> 
</g><path d="M42306 51256 L42056 51256" /> 
<path d="M42056 51256 L42092 51280" /> 
<path d="M42092 51280 L42116 51304" /> 
<path d="M42116 51304 L42128 51327" /> 
<g style = "stroke-linecap:round;" > 
<path d="M42128 51327 L42128 51327" /> 
</g></g>
<g style="fill:#00A0A0; fill-opacity:0.0; stroke:#00A0A0; stroke-opacity:1.00; stroke-linecap:round; stroke-linejoin:round; stroke-width:50" 
   transform="translate(0.00 0.00) scale(1.00 1.00)">
<ellipse cx="42220" cy="49842" rx="50" ry="50"  /> 
<path d="M42220 50292 L42220 49892" /> 
<path d="M42220 49892 L42820 49892" /> 
<path d="M42820 49892 L42820 50292" /> 
<path d="M42820 50692 L42820 51092" /> 
<path d="M42820 51092 L42220 51092" /> 
<path d="M42220 51092 L42220 50692" /> 
</g>
<g style="fill:#00A0A0; fill-opacity:0.0; stroke:#0000C0; stroke-opacity:1.00; stroke-linecap:round; stroke-linejoin:round; stroke-width:0" 
   transform="translate(0.00 0.00) scale(1.00 1.00)">
<path d="M50038 47087 L50042 47087" /> 
<path d="M50040 47085 L50040 47089" /> 
</g>
<g style="fill:#C0C0C0; fill-opacity:0.0; stroke:#C0C0C0; stroke-opacity:1.00; stroke-linecap:round; stroke-linejoin:round; stroke-width:50" 
   transform="translate(0.00 0.00) scale(1.00 1.00)">
<path d="M50141 47129 L50022 47212" /> 
<g style = "stroke-linecap:round;" > 
<path d="M50022 47212 L50022 47212" /> 
</g><path d="M50141 47271 L49891 47271" /> 
<path d="M49891 47271 L49891 47176" /> 
<path d="M49891 47176 L49903 47152" /> 
<path d="M49903 47152 L49915 47141" /> 
<path d="M49915 47141 L49939 47129" /> 
<path d="M49939 47129 L49975 47129" /> 
<path d="M49975 47129 L49998 47141" /> 
<path d="M49998 47141 L50010 47152" /> 
<path d="M50010 47152 L50022 47176" /> 
<path d="M50022 47176 L50022 47271" /> 
<g style = "stroke-linecap:round;" > 
<path d="M50022 47271 L50022 47271" /> 
</g><path d="M49975 46914 L50141 46914" /> 
<g style = "stroke-linecap:round;" > 
<path d="M50141 46914 L50141 46914" /> 
</g><path d="M49879 46974 L50058 47033" /> 
<path d="M50058 47033 L50058 46879" /> 
<g style = "stroke-linecap:round;" > 
<path d="M50058 46879 L50058 46879" /> 
</g></g>
<g style="fill:#00A0A0; fill-opacity:0.0; stroke:#00A0A0; stroke-opacity:1.00; stroke-linecap:round; stroke-linejoin:round; stroke-width:50" 
   transform="translate(0.00 0.00) scale(1.00 1.00)">
<ellipse cx="50891" cy="47107" rx="50" ry="50"  /> 
<path d="M50891 46657 L50891 47057" /> 
<path d="M50891 47057 L50291 47057" /> 
<path d="M50291 47057 L50291 46657" /> 
<path d="M50291 46257 L50291 45857" /> 
<path d="M50291 45857 L50891 45857" /> 
<path d="M50891 45857 L50891 46257" /> 
</g>
<g style="fill:#00A0A0; fill-opacity:0.0; stroke:#0000C0; stroke-opacity:1.00; stroke-linecap:round; stroke-linejoin:round; stroke-width:0" 
   transform="translate(0.00 0.00) scale(1.00 1.00)">
<path d="M45077 46417 L45081 46417" /> 
<path d="M45079 46415 L45079 46419" /> 
</g>
<g style="fill:#C0C0C0; fill-opacity:0.0; stroke:#C0C0C0; stroke-opacity:1.00; stroke-linecap:round; stroke-linejoin:round; stroke-width:50" 
   transform="translate(0.00 0.00) scale(1.00 1.00)">
<path d="M45156 46459 L45168 46471" /> 
<path d="M45168 46471 L45180 46506" /> 
<path d="M45180 46506 L45180 46530" /> 
<path d="M45180 46530 L45168 46566" /> 
<path d="M45168 46566 L45144 46590" /> 
<path d="M45144 46590 L45121 46601" /> 
<path d="M45121 46601 L45073 46613" /> 
<path d="M45073 46613 L45037 46613" /> 
<path d="M45037 46613 L44990 46601" /> 
<path d="M44990 46601 L44966 46590" /> 
<path d="M44966 46590 L44942 46566" /> 
<path d="M44942 46566 L44930 46530" /> 
<path d="M44930 46530 L44930 46506" /> 
<path d="M44930 46506 L44942 46471" /> 
<path d="M44942 46471 L44954 46459" /> 
<g style = "stroke-linecap:round;" > 
<path d="M44954 46459 L44954 46459" /> 
</g><path d="M44930 46375 L44930 46221" /> 
<path d="M44930 46221 L45025 46304" /> 
<path d="M45025 46304 L45025 46268" /> 
<path d="M45025 46268 L45037 46244" /> 
<path d="M45037 46244 L45049 46232" /> 
<path d="M45049 46232 L45073 46221" /> 
<path d="M45073 46221 L45133 46221" /> 
<path d="M45133 46221 L45156 46232" /> 
<path d="M45156 46232 L45168 46244" /> 
<path d="M45168 46244 L45180 46268" /> 
<path d="M45180 46268 L45180 46340" /> 
<path d="M45180 46340 L45168 46363" /> 
<path d="M45168 46363 L45156 46375" /> 
<g style = "stroke-linecap:round;" > 
<path d="M45156 46375 L45156 46375" /> 
</g></g>
<g style="fill:#00A0A0; fill-opacity:0.0; stroke:#00A0A0; stroke-opacity:1.00; stroke-linecap:round; stroke-linejoin:round; stroke-width:50" 
   transform="translate(0.00 0.00) scale(1.00 1.00)">
<ellipse cx="45340" cy="46083" rx="50" ry="50"  /> 
<path d="M45340 45633 L45340 46033" /> 
<path d="M45340 46033 L44740 46033" /> 
<path d="M44740 46033 L44740 45633" /> 
<path d="M44740 45233 L44740 44833" /> 
<path d="M44740 44833 L45340 44833" /> 
<path d="M45340 44833 L45340 45233" /> 
</g>
<g style="fill:#00A0A0; fill-opacity:0.0; stroke:#0000C0; stroke-opacity:1.00; stroke-linecap:round; stroke-linejoin:round; stroke-width:0" 
   transform="translate(0.00 0.00) scale(1.00 1.00)">
<path d="M40352 46654 L40356 46654" /> 
<path d="M40354 46652 L40354 46656" /> 
</g>
<g style="fill:#C0C0C0; fill-opacity:0.0; stroke:#C0C0C0; stroke-opacity:1.00; stroke-linecap:round; stroke-linejoin:round; stroke-width:50" 
   transform="translate(0.00 0.00) scale(1.00 1.00)">
<path d="M40431 46696 L40443 46708" /> 
<path d="M40443 46708 L40455 46743" /> 
<path d="M40455 46743 L40455 46767" /> 
<path d="M40455 46767 L40443 46803" /> 
<path d="M40443 46803 L40419 46827" /> 
<path d="M40419 46827 L40396 46838" /> 
<path d="M40396 46838 L40348 46850" /> 
<path d="M40348 46850 L40312 46850" /> 
<path d="M40312 46850 L40265 46838" /> 
<path d="M40265 46838 L40241 46827" /> 
<path d="M40241 46827 L40217 46803" /> 
<path d="M40217 46803 L40205 46767" /> 
<path d="M40205 46767 L40205 46743" /> 
<path d="M40205 46743 L40217 46708" /> 
<path d="M40217 46708 L40229 46696" /> 
<g style = "stroke-linecap:round;" > 
<path d="M40229 46696 L40229 46696" /> 
</g><path d="M40229 46600 L40217 46588" /> 
<path d="M40217 46588 L40205 46565" /> 
<path d="M40205 46565 L40205 46505" /> 
<path d="M40205 46505 L40217 46481" /> 
<path d="M40217 46481 L40229 46469" /> 
<path d="M40229 46469 L40253 46458" /> 
<path d="M40253 46458 L40277 46458" /> 
<path d="M40277 46458 L40312 46469" /> 
<path d="M40312 46469 L40455 46612" /> 
<path d="M40455 46612 L40455 46458" /> 
<g style = "stroke-linecap:round;" > 
<path d="M40455 46458 L40455 46458" /> 
</g></g>
<g style="fill:#00A0A0; fill-opacity:0.0; stroke:#00A0A0; stroke-opacity:1.00; stroke-linecap:round; stroke-linejoin:round; stroke-width:50" 
   transform="translate(0.00 0.00) scale(1.00 1.00)">
<ellipse cx="40054" cy="45019" rx="50" ry="50"  /> 
<path d="M40054 45469 L40054 45069" /> 
<path d="M40054 45069 L40654 45069" /> 
<path d="M40654 45069 L40654 45469" /> 
<path d="M40654 45869 L40654 46269" /> 
<path d="M40654 46269 L40054 46269" /> 
<path d="M40054 46269 L40054 45869" /> 
</g>
<g style="fill:#00A0A0; fill-opacity:0.0; stroke:#0000C0; stroke-opacity:1.00; stroke-linecap:round; stroke-linejoin:round; stroke-width:0" 
   transform="translate(0.00 0.00) scale(1.00 1.00)">
<path d="M36612 44764 L36616 44764" /> 
<path d="M36614 44762 L36614 44766" /> 
</g>
<g style="fill:#C0C0C0; fill-opacity:0.0; stroke:#C0C0C0; stroke-opacity:1.00; stroke-linecap:round; stroke-linejoin:round; stroke-width:50" 
   transform="translate(0.00 0.00) scale(1.00 1.00)">
<path d="M36572 44841 L36560 44853" /> 
<path d="M36560 44853 L36525 44865" /> 
<path d="M36525 44865 L36501 44865" /> 
<path d="M36501 44865 L36465 44853" /> 
<path d="M36465 44853 L36441 44829" /> 
<path d="M36441 44829 L36430 44806" /> 
<path d="M36430 44806 L36418 44758" /> 
<path d="M36418 44758 L36418 44722" /> 
<path d="M36418 44722 L36430 44675" /> 
<path d="M36430 44675 L36441 44651" /> 
<path d="M36441 44651 L36465 44627" /> 
<path d="M36465 44627 L36501 44615" /> 
<path d="M36501 44615 L36525 44615" /> 
<path d="M36525 44615 L36560 44627" /> 
<path d="M36560 44627 L36572 44639" /> 
<g style = "stroke-linecap:round;" > 
<path d="M36572 44639 L36572 44639" /> 
</g><path d="M36799 44615 L36680 44615" /> 
<path d="M36680 44615 L36668 44734" /> 
<path d="M36668 44734 L36680 44722" /> 
<path d="M36680 44722 L36703 44710" /> 
<path d="M36703 44710 L36763 44710" /> 
<path d="M36763 44710 L36787 44722" /> 
<path d="M36787 44722 L36799 44734" /> 
<path d="M36799 44734 L36810 44758" /> 
<path d="M36810 44758 L36810 44818" /> 
<path d="M36810 44818 L36799 44841" /> 
<path d="M36799 44841 L36787 44853" /> 
<path d="M36787 44853 L36763 44865" /> 
<path d="M36763 44865 L36703 44865" /> 
<path d="M36703 44865 L36680 44853" /> 
<path d="M36680 44853 L36668 44841" /> 
<g style = "stroke-linecap:round;" > 
<path d="M36668 44841 L36668 44841" /> 
</g></g>
<g style="fill:#00A0A0; fill-opacity:0.0; stroke:#00A0A0; stroke-opacity:1.00; stroke-linecap:round; stroke-linejoin:round; stroke-width:50" 
   transform="translate(0.00 0.00) scale(1.00 1.00)">
<ellipse cx="38209" cy="44464" rx="50" ry="50"  /> 
<path d="M37759 44464 L38159 44464" /> 
<path d="M38159 44464 L38159 45064" /> 
<path d="M38159 45064 L37759 45064" /> 
<path d="M37359 45064 L36959 45064" /> 
<path d="M36959 45064 L36959 44464" /> 
<path d="M36959 44464 L37359 44464" /> 
</g>
<g style="fill:#00A0A0; fill-opacity:0.0; stroke:#0000C0; stroke-opacity:1.00; stroke-linecap:round; stroke-linejoin:round; stroke-width:0" 
   transform="translate(0.00 0.00) scale(1.00 1.00)">
<path d="M43620 51535 L43624 51535" /> 
<path d="M43622 51533 L43622 51537" /> 
</g>
<g style="fill:#C0C0C0; fill-opacity:0.0; stroke:#C0C0C0; stroke-opacity:1.00; stroke-linecap:round; stroke-linejoin:round; stroke-width:50" 
   transform="translate(0.00 0.00) scale(1.00 1.00)">
<path d="M43699 51696 L43711 51708" /> 
<path d="M43711 51708 L43723 51743" /> 
<path d="M43723 51743 L43723 51767" /> 
<path d="M43723 51767 L43711 51803" /> 
<path d="M43711 51803 L43687 51827" /> 
<path d="M43687 51827 L43664 51838" /> 
<path d="M43664 51838 L43616 51850" /> 
<path d="M43616 51850 L43580 51850" /> 
<path d="M43580 51850 L43533 51838" /> 
<path d="M43533 51838 L43509 51827" /> 
<path d="M43509 51827 L43485 51803" /> 
<path d="M43485 51803 L43473 51767" /> 
<path d="M43473 51767 L43473 51743" /> 
<path d="M43473 51743 L43485 51708" /> 
<path d="M43485 51708 L43497 51696" /> 
<g style = "stroke-linecap:round;" > 
<path d="M43497 51696 L43497 51696" /> 
</g><path d="M43723 51458 L43723 51600" /> 
<g style = "stroke-linecap:round;" > 
<path d="M43723 51600 L43723 51600" /> 
</g><path d="M43723 51529 L43473 51529" /> 
<path d="M43473 51529 L43509 51553" /> 
<path d="M43509 51553 L43533 51577" /> 
<path d="M43533 51577 L43545 51600" /> 
<g style = "stroke-linecap:round;" > 
<path d="M43545 51600 L43545 51600" /> 
</g><path d="M43557 51243 L43723 51243" /> 
<g style = "stroke-linecap:round;" > 
<path d="M43723 51243 L43723 51243" /> 
</g><path d="M43461 51303 L43640 51362" /> 
<path d="M43640 51362 L43640 51208" /> 
<g style = "stroke-linecap:round;" > 
<path d="M43640 51208 L43640 51208" /> 
</g></g>
<g style="fill:#00A0A0; fill-opacity:0.0; stroke:#00A0A0; stroke-opacity:1.00; stroke-linecap:round; stroke-linejoin:round; stroke-width:50" 
   transform="translate(0.00 0.00) scale(1.00 1.00)">
<ellipse cx="43499" cy="49842" rx="50" ry="50"  /> 
<path d="M43499 50292 L43499 49892" /> 
<path d="M43499 49892 L44099 49892" /> 
<path d="M44099 49892 L44099 50292" /> 
<path d="M44099 50692 L44099 51092" /> 
<path d="M44099 51092 L43499 51092" /> 
<path d="M43499 51092 L43499 50692" /> 
</g>
<g style="fill:#00A0A0; fill-opacity:0.0; stroke:#0000C0; stroke-opacity:1.00; stroke-linecap:round; stroke-linejoin:round; stroke-width:0" 
   transform="translate(0.00 0.00) scale(1.00 1.00)">
<path d="M42203 48071 L42207 48071" /> 
<path d="M42205 48069 L42205 48073" /> 
</g>
<g style="fill:#C0C0C0; fill-opacity:0.0; stroke:#C0C0C0; stroke-opacity:1.00; stroke-linecap:round; stroke-linejoin:round; stroke-width:50" 
   transform="translate(0.00 0.00) scale(1.00 1.00)">
<path d="M42282 48232 L42294 48244" /> 
<path d="M42294 48244 L42306 48279" /> 
<path d="M42306 48279 L42306 48303" /> 
<path d="M42306 48303 L42294 48339" /> 
<path d="M42294 48339 L42270 48363" /> 
<path d="M42270 48363 L42247 48374" /> 
<path d="M42247 48374 L42199 48386" /> 
<path d="M42199 48386 L42163 48386" /> 
<path d="M42163 48386 L42116 48374" /> 
<path d="M42116 48374 L42092 48363" /> 
<path d="M42092 48363 L42068 48339" /> 
<path d="M42068 48339 L42056 48303" /> 
<path d="M42056 48303 L42056 48279" /> 
<path d="M42056 48279 L42068 48244" /> 
<path d="M42068 48244 L42080 48232" /> 
<g style = "stroke-linecap:round;" > 
<path d="M42080 48232 L42080 48232" /> 
</g><path d="M42306 47994 L42306 48136" /> 
<g style = "stroke-linecap:round;" > 
<path d="M42306 48136 L42306 48136" /> 
</g><path d="M42306 48065 L42056 48065" /> 
<path d="M42056 48065 L42092 48089" /> 
<path d="M42092 48089 L42116 48113" /> 
<path d="M42116 48113 L42128 48136" /> 
<g style = "stroke-linecap:round;" > 
<path d="M42128 48136 L42128 48136" /> 
</g><path d="M42056 47779 L42056 47827" /> 
<path d="M42056 47827 L42068 47851" /> 
<path d="M42068 47851 L42080 47863" /> 
<path d="M42080 47863 L42116 47886" /> 
<path d="M42116 47886 L42163 47898" /> 
<path d="M42163 47898 L42259 47898" /> 
<path d="M42259 47898 L42282 47886" /> 
<path d="M42282 47886 L42294 47875" /> 
<path d="M42294 47875 L42306 47851" /> 
<path d="M42306 47851 L42306 47803" /> 
<path d="M42306 47803 L42294 47779" /> 
<path d="M42294 47779 L42282 47767" /> 
<path d="M42282 47767 L42259 47756" /> 
<path d="M42259 47756 L42199 47756" /> 
<path d="M42199 47756 L42175 47767" /> 
<path d="M42175 47767 L42163 47779" /> 
<path d="M42163 47779 L42151 47803" /> 
<path d="M42151 47803 L42151 47851" /> 
<path d="M42151 47851 L42163 47875" /> 
<path d="M42163 47875 L42175 47886" /> 
<path d="M42175 47886 L42199 47898" /> 
<g style = "stroke-linecap:round;" > 
<path d="M42199 47898 L42199 47898" /> 
</g></g>
<g style="fill:#00A0A0; fill-opacity:0.0; stroke:#00A0A0; stroke-opacity:1.00; stroke-linecap:round; stroke-linejoin:round; stroke-width:50" 
   transform="translate(0.00 0.00) scale(1.00 1.00)">
<ellipse cx="43135" cy="49154" rx="50" ry="50"  /> 
<path d="M43135 48704 L43135 49104" /> 
<path d="M43135 49104 L42535 49104" /> 
<path d="M42535 49104 L42535 48704" /> 
<path d="M42535 48304 L42535 47904" /> 
<path d="M42535 47904 L43135 47904" /> 
<path d="M43135 47904 L43135 48304" /> 
</g>
<g style="fill:#00A0A0; fill-opacity:0.0; stroke:#0000C0; stroke-opacity:1.00; stroke-linecap:round; stroke-linejoin:round; stroke-width:0" 
   transform="translate(0.00 0.00) scale(1.00 1.00)">
<path d="M44762 47874 L44766 47874" /> 
<path d="M44764 47872 L44764 47876" /> 
</g>
<g style="fill:#C0C0C0; fill-opacity:0.0; stroke:#C0C0C0; stroke-opacity:1.00; stroke-linecap:round; stroke-linejoin:round; stroke-width:50" 
   transform="translate(0.00 0.00) scale(1.00 1.00)">
<path d="M44865 47916 L44746 47999" /> 
<g style = "stroke-linecap:round;" > 
<path d="M44746 47999 L44746 47999" /> 
</g><path d="M44865 48058 L44615 48058" /> 
<path d="M44615 48058 L44615 47963" /> 
<path d="M44615 47963 L44627 47939" /> 
<path d="M44627 47939 L44639 47928" /> 
<path d="M44639 47928 L44663 47916" /> 
<path d="M44663 47916 L44699 47916" /> 
<path d="M44699 47916 L44722 47928" /> 
<path d="M44722 47928 L44734 47939" /> 
<path d="M44734 47939 L44746 47963" /> 
<path d="M44746 47963 L44746 48058" /> 
<g style = "stroke-linecap:round;" > 
<path d="M44746 48058 L44746 48058" /> 
</g><path d="M44615 47689 L44615 47808" /> 
<path d="M44615 47808 L44734 47820" /> 
<path d="M44734 47820 L44722 47808" /> 
<path d="M44722 47808 L44710 47785" /> 
<path d="M44710 47785 L44710 47725" /> 
<path d="M44710 47725 L44722 47701" /> 
<path d="M44722 47701 L44734 47689" /> 
<path d="M44734 47689 L44758 47678" /> 
<path d="M44758 47678 L44818 47678" /> 
<path d="M44818 47678 L44841 47689" /> 
<path d="M44841 47689 L44853 47701" /> 
<path d="M44853 47701 L44865 47725" /> 
<path d="M44865 47725 L44865 47785" /> 
<path d="M44865 47785 L44853 47808" /> 
<path d="M44853 47808 L44841 47820" /> 
<g style = "stroke-linecap:round;" > 
<path d="M44841 47820 L44841 47820" /> 
</g></g>
<g style="fill:#00A0A0; fill-opacity:0.0; stroke:#00A0A0; stroke-opacity:1.00; stroke-linecap:round; stroke-linejoin:round; stroke-width:50" 
   transform="translate(0.00 0.00) scale(1.00 1.00)">
<ellipse cx="44464" cy="48248" rx="50" ry="50"  /> 
<path d="M44464 48698 L44464 48298" /> 
<path d="M44464 48298 L45064 48298" /> 
<path d="M45064 48298 L45064 48698" /> 
<path d="M45064 49098 L45064 49498" /> 
<path d="M45064 49498 L44464 49498" /> 
<path d="M44464 49498 L44464 49098" /> 
</g>
<g style="fill:#00A0A0; fill-opacity:0.0; stroke:#0000C0; stroke-opacity:1.00; stroke-linecap:round; stroke-linejoin:round; stroke-width:0" 
   transform="translate(0.00 0.00) scale(1.00 1.00)">
<path d="M34447 44213 L34451 44213" /> 
<path d="M34449 44211 L34449 44215" /> 
</g>
<g style="fill:#C0C0C0; fill-opacity:0.0; stroke:#C0C0C0; stroke-opacity:1.00; stroke-linecap:round; stroke-linejoin:round; stroke-width:50" 
   transform="translate(0.00 0.00) scale(1.00 1.00)">
<path d="M34407 44290 L34395 44302" /> 
<path d="M34395 44302 L34360 44314" /> 
<path d="M34360 44314 L34336 44314" /> 
<path d="M34336 44314 L34300 44302" /> 
<path d="M34300 44302 L34276 44278" /> 
<path d="M34276 44278 L34265 44255" /> 
<path d="M34265 44255 L34253 44207" /> 
<path d="M34253 44207 L34253 44171" /> 
<path d="M34253 44171 L34265 44124" /> 
<path d="M34265 44124 L34276 44100" /> 
<path d="M34276 44100 L34300 44076" /> 
<path d="M34300 44076 L34336 44064" /> 
<path d="M34336 44064 L34360 44064" /> 
<path d="M34360 44064 L34395 44076" /> 
<path d="M34395 44076 L34407 44088" /> 
<g style = "stroke-linecap:round;" > 
<path d="M34407 44088 L34407 44088" /> 
</g><path d="M34645 44314 L34503 44314" /> 
<g style = "stroke-linecap:round;" > 
<path d="M34503 44314 L34503 44314" /> 
</g><path d="M34574 44314 L34574 44064" /> 
<path d="M34574 44064 L34550 44100" /> 
<path d="M34550 44100 L34526 44124" /> 
<path d="M34526 44124 L34503 44136" /> 
<g style = "stroke-linecap:round;" > 
<path d="M34503 44136 L34503 44136" /> 
</g></g>
<g style="fill:#00A0A0; fill-opacity:0.0; stroke:#00A0A0; stroke-opacity:1.00; stroke-linecap:round; stroke-linejoin:round; stroke-width:50" 
   transform="translate(0.00 0.00) scale(1.00 1.00)">
<ellipse cx="36123" cy="44228" rx="50" ry="50"  /> 
<path d="M35673 44228 L36073 44228" /> 
<path d="M36073 44228 L36073 44828" /> 
<path d="M36073 44828 L35673 44828" /> 
<path d="M35273 44828 L34873 44828" /> 
<path d="M34873 44828 L34873 44228" /> 
<path d="M34873 44228 L35273 44228" /> 
</g>
<g style="fill:#00A0A0; fill-opacity:0.0; stroke:#0000C0; stroke-opacity:1.00; stroke-linecap:round; stroke-linejoin:round; stroke-width:0" 
   transform="translate(0.00 0.00) scale(1.00 1.00)">
<path d="M36612 45669 L36616 45669" /> 
<path d="M36614 45667 L36614 45671" /> 
</g>
<g style="fill:#C0C0C0; fill-opacity:0.0; stroke:#C0C0C0; stroke-opacity:1.00; stroke-linecap:round; stroke-linejoin:round; stroke-width:50" 
   transform="translate(0.00 0.00) scale(1.00 1.00)">
<path d="M36572 45746 L36560 45758" /> 
<path d="M36560 45758 L36525 45770" /> 
<path d="M36525 45770 L36501 45770" /> 
<path d="M36501 45770 L36465 45758" /> 
<path d="M36465 45758 L36441 45734" /> 
<path d="M36441 45734 L36430 45711" /> 
<path d="M36430 45711 L36418 45663" /> 
<path d="M36418 45663 L36418 45627" /> 
<path d="M36418 45627 L36430 45580" /> 
<path d="M36430 45580 L36441 45556" /> 
<path d="M36441 45556 L36465 45532" /> 
<path d="M36465 45532 L36501 45520" /> 
<path d="M36501 45520 L36525 45520" /> 
<path d="M36525 45520 L36560 45532" /> 
<path d="M36560 45532 L36572 45544" /> 
<g style = "stroke-linecap:round;" > 
<path d="M36572 45544 L36572 45544" /> 
</g><path d="M36787 45520 L36739 45520" /> 
<path d="M36739 45520 L36715 45532" /> 
<path d="M36715 45532 L36703 45544" /> 
<path d="M36703 45544 L36680 45580" /> 
<path d="M36680 45580 L36668 45627" /> 
<path d="M36668 45627 L36668 45723" /> 
<path d="M36668 45723 L36680 45746" /> 
<path d="M36680 45746 L36691 45758" /> 
<path d="M36691 45758 L36715 45770" /> 
<path d="M36715 45770 L36763 45770" /> 
<path d="M36763 45770 L36787 45758" /> 
<path d="M36787 45758 L36799 45746" /> 
<path d="M36799 45746 L36810 45723" /> 
<path d="M36810 45723 L36810 45663" /> 
<path d="M36810 45663 L36799 45639" /> 
<path d="M36799 45639 L36787 45627" /> 
<path d="M36787 45627 L36763 45615" /> 
<path d="M36763 45615 L36715 45615" /> 
<path d="M36715 45615 L36691 45627" /> 
<path d="M36691 45627 L36680 45639" /> 
<path d="M36680 45639 L36668 45663" /> 
<g style = "stroke-linecap:round;" > 
<path d="M36668 45663 L36668 45663" /> 
</g></g>
<g style="fill:#00A0A0; fill-opacity:0.0; stroke:#00A0A0; stroke-opacity:1.00; stroke-linecap:round; stroke-linejoin:round; stroke-width:50" 
   transform="translate(0.00 0.00) scale(1.00 1.00)">
<ellipse cx="38209" cy="45369" rx="50" ry="50"  /> 
<path d="M37759 45369 L38159 45369" /> 
<path d="M38159 45369 L38159 45969" /> 
<path d="M38159 45969 L37759 45969" /> 
<path d="M37359 45969 L36959 45969" /> 
<path d="M36959 45969 L36959 45369" /> 
<path d="M36959 45369 L37359 45369" /> 
</g>
<g style="fill:#808000; fill-opacity:0.0; stroke:#808000; stroke-opacity:1.00; stroke-linecap:round; stroke-linejoin:round; stroke-width:4" 
   transform="translate(0.00 0.00) scale(1.00 1.00)">
<ellipse cx="34843" cy="48504" rx="277" ry="277"  /> 
<ellipse cx="34843" cy="50236" rx="277" ry="277"  /> 
</g>
<g style="fill:#808000; fill-opacity:0.0; stroke:#0000C0; stroke-opacity:1.00; stroke-linecap:round; stroke-linejoin:round; stroke-width:0" 
   transform="translate(0.00 0.00) scale(1.00 1.00)">
<path d="M33542 49370 L33546 49370" /> 
<path d="M33544 49368 L33544 49372" /> 
</g>
<g style="fill:#C0C0C0; fill-opacity:0.0; stroke:#C0C0C0; stroke-opacity:1.00; stroke-linecap:round; stroke-linejoin:round; stroke-width:35" 
   transform="translate(0.00 0.00) scale(1.00 1.00)">
<path d="M33139 49072 L33473 49572" /> 
<g style = "stroke-linecap:round;" > 
<path d="M33473 49572 L33473 49572" /> 
</g><path d="M33473 49072 L33139 49572" /> 
<g style = "stroke-linecap:round;" > 
<path d="M33139 49572 L33139 49572" /> 
</g><path d="M33639 49120 L33663 49096" /> 
<path d="M33663 49096 L33711 49072" /> 
<path d="M33711 49072 L33830 49072" /> 
<path d="M33830 49072 L33877 49096" /> 
<path d="M33877 49096 L33901 49120" /> 
<path d="M33901 49120 L33925 49168" /> 
<path d="M33925 49168 L33925 49215" /> 
<path d="M33925 49215 L33901 49287" /> 
<path d="M33901 49287 L33615 49572" /> 
<path d="M33615 49572 L33925 49572" /> 
<g style = "stroke-linecap:round;" > 
<path d="M33925 49572 L33925 49572" /> 
</g></g>
<g style="fill:#C0C0C0; fill-opacity:0.0; stroke:#0000C0; stroke-opacity:1.00; stroke-linecap:round; stroke-linejoin:round; stroke-width:0" 
   transform="translate(0.00 0.00) scale(1.00 1.00)">
<path d="M33738 52441 L33742 52441" /> 
<path d="M33740 52439 L33740 52443" /> 
</g>
<g style="fill:#C0C0C0; fill-opacity:0.0; stroke:#C0C0C0; stroke-opacity:1.00; stroke-linecap:round; stroke-linejoin:round; stroke-width:100" 
   transform="translate(0.00 0.00) scale(1.00 1.00)">
<path d="M33502 52946 L33826 52946" /> 
<path d="M33826 52946 L33864 52927" /> 
<path d="M33864 52927 L33883 52908" /> 
<path d="M33883 52908 L33902 52870" /> 
<path d="M33902 52870 L33902 52793" /> 
<path d="M33902 52793 L33883 52755" /> 
<path d="M33883 52755 L33864 52736" /> 
<path d="M33864 52736 L33826 52717" /> 
<path d="M33826 52717 L33502 52717" /> 
<g style = "stroke-linecap:round;" > 
<path d="M33502 52717 L33502 52717" /> 
</g><path d="M33883 52546 L33902 52489" /> 
<path d="M33902 52489 L33902 52393" /> 
<path d="M33902 52393 L33883 52355" /> 
<path d="M33883 52355 L33864 52336" /> 
<path d="M33864 52336 L33826 52317" /> 
<path d="M33826 52317 L33788 52317" /> 
<path d="M33788 52317 L33750 52336" /> 
<path d="M33750 52336 L33730 52355" /> 
<path d="M33730 52355 L33711 52393" /> 
<path d="M33711 52393 L33692 52470" /> 
<path d="M33692 52470 L33673 52508" /> 
<path d="M33673 52508 L33654 52527" /> 
<path d="M33654 52527 L33616 52546" /> 
<path d="M33616 52546 L33578 52546" /> 
<path d="M33578 52546 L33540 52527" /> 
<path d="M33540 52527 L33521 52508" /> 
<path d="M33521 52508 L33502 52470" /> 
<path d="M33502 52470 L33502 52374" /> 
<path d="M33502 52374 L33521 52317" /> 
<g style = "stroke-linecap:round;" > 
<path d="M33521 52317 L33521 52317" /> 
</g><path d="M33692 52012 L33711 51955" /> 
<path d="M33711 51955 L33730 51936" /> 
<path d="M33730 51936 L33769 51917" /> 
<path d="M33769 51917 L33826 51917" /> 
<path d="M33826 51917 L33864 51936" /> 
<path d="M33864 51936 L33883 51955" /> 
<path d="M33883 51955 L33902 51993" /> 
<path d="M33902 51993 L33902 52146" /> 
<path d="M33902 52146 L33502 52146" /> 
<path d="M33502 52146 L33502 52012" /> 
<path d="M33502 52012 L33521 51974" /> 
<path d="M33521 51974 L33540 51955" /> 
<path d="M33540 51955 L33578 51936" /> 
<path d="M33578 51936 L33616 51936" /> 
<path d="M33616 51936 L33654 51955" /> 
<path d="M33654 51955 L33673 51974" /> 
<path d="M33673 51974 L33692 52012" /> 
<path d="M33692 52012 L33692 52146" /> 
<g style = "stroke-linecap:round;" > 
<path d="M33692 52146 L33692 52146" /> 
</g></g>
<g style="fill:#C0C0C0; fill-opacity:0.0; stroke:#00A0A0; stroke-opacity:1.00; stroke-linecap:round; stroke-linejoin:round; stroke-width:50" 
   transform="translate(0.00 0.00) scale(1.00 1.00)">
<path d="M32501 47855 L32501 50885" /> 
<path d="M32501 47855 L36142 47855" /> 
<path d="M36142 47855 L36142 50885" /> 
<path d="M36142 50885 L32501 50885" /> 
<path d="M33027 48870 L34277 49120" /> 
<path d="M34277 49120 L34277 49620" /> 
<path d="M34277 49620 L33027 49870" /> 
<path d="M34027 50620 L33027 50495" /> 
<path d="M33027 50495 L33027 50245" /> 
<path d="M33027 50245 L34027 50120" /> 
<path d="M34027 48120 L33027 48245" /> 
<path d="M33027 48245 L33027 48495" /> 
<path d="M33027 48495 L34027 48620" /> 
</g>
<g style="fill:#C0C0C0; fill-opacity:0.0; stroke:#0000C0; stroke-opacity:1.00; stroke-linecap:round; stroke-linejoin:round; stroke-width:0" 
   transform="translate(0.00 0.00) scale(1.00 1.00)">
<path d="M44171 51299 L44175 51299" /> 
<path d="M44173 51297 L44173 51301" /> 
</g>
<g style="fill:#C0C0C0; fill-opacity:0.0; stroke:#C0C0C0; stroke-opacity:1.00; stroke-linecap:round; stroke-linejoin:round; stroke-width:50" 
   transform="translate(0.00 0.00) scale(1.00 1.00)">
<path d="M44131 51400 L44048 51281" /> 
<g style = "stroke-linecap:round;" > 
<path d="M44048 51281 L44048 51281" /> 
</g><path d="M43989 51400 L43989 51150" /> 
<path d="M43989 51150 L44084 51150" /> 
<path d="M44084 51150 L44108 51162" /> 
<path d="M44108 51162 L44119 51174" /> 
<path d="M44119 51174 L44131 51198" /> 
<path d="M44131 51198 L44131 51234" /> 
<path d="M44131 51234 L44119 51257" /> 
<path d="M44119 51257 L44108 51269" /> 
<path d="M44108 51269 L44084 51281" /> 
<path d="M44084 51281 L43989 51281" /> 
<g style = "stroke-linecap:round;" > 
<path d="M43989 51281 L43989 51281" /> 
</g><path d="M44346 51150 L44298 51150" /> 
<path d="M44298 51150 L44274 51162" /> 
<path d="M44274 51162 L44262 51174" /> 
<path d="M44262 51174 L44239 51210" /> 
<path d="M44239 51210 L44227 51257" /> 
<path d="M44227 51257 L44227 51353" /> 
<path d="M44227 51353 L44239 51376" /> 
<path d="M44239 51376 L44250 51388" /> 
<path d="M44250 51388 L44274 51400" /> 
<path d="M44274 51400 L44322 51400" /> 
<path d="M44322 51400 L44346 51388" /> 
<path d="M44346 51388 L44358 51376" /> 
<path d="M44358 51376 L44369 51353" /> 
<path d="M44369 51353 L44369 51293" /> 
<path d="M44369 51293 L44358 51269" /> 
<path d="M44358 51269 L44346 51257" /> 
<path d="M44346 51257 L44322 51245" /> 
<path d="M44322 51245 L44274 51245" /> 
<path d="M44274 51245 L44250 51257" /> 
<path d="M44250 51257 L44239 51269" /> 
<path d="M44239 51269 L44227 51293" /> 
<g style = "stroke-linecap:round;" > 
<path d="M44227 51293 L44227 51293" /> 
</g></g>
<g style="fill:#00A0A0; fill-opacity:0.0; stroke:#00A0A0; stroke-opacity:1.00; stroke-linecap:round; stroke-linejoin:round; stroke-width:50" 
   transform="translate(0.00 0.00) scale(1.00 1.00)">
<ellipse cx="45729" cy="51039" rx="50" ry="50"  /> 
<path d="M45279 51039 L45679 51039" /> 
<path d="M45679 51039 L45679 51639" /> 
<path d="M45679 51639 L45279 51639" /> 
<path d="M44879 51639 L44479 51639" /> 
<path d="M44479 51639 L44479 51039" /> 
<path d="M44479 51039 L44879 51039" /> 
</g>
<g style="fill:#00A0A0; fill-opacity:0.0; stroke:#0000C0; stroke-opacity:1.00; stroke-linecap:round; stroke-linejoin:round; stroke-width:0" 
   transform="translate(0.00 0.00) scale(1.00 1.00)">
<path d="M44132 52520 L44136 52520" /> 
<path d="M44134 52518 L44134 52522" /> 
</g>
<g style="fill:#C0C0C0; fill-opacity:0.0; stroke:#C0C0C0; stroke-opacity:1.00; stroke-linecap:round; stroke-linejoin:round; stroke-width:50" 
   transform="translate(0.00 0.00) scale(1.00 1.00)">
<path d="M44092 52621 L44009 52502" /> 
<g style = "stroke-linecap:round;" > 
<path d="M44009 52502 L44009 52502" /> 
</g><path d="M43950 52621 L43950 52371" /> 
<path d="M43950 52371 L44045 52371" /> 
<path d="M44045 52371 L44069 52383" /> 
<path d="M44069 52383 L44080 52395" /> 
<path d="M44080 52395 L44092 52419" /> 
<path d="M44092 52419 L44092 52455" /> 
<path d="M44092 52455 L44080 52478" /> 
<path d="M44080 52478 L44069 52490" /> 
<path d="M44069 52490 L44045 52502" /> 
<path d="M44045 52502 L43950 52502" /> 
<g style = "stroke-linecap:round;" > 
<path d="M43950 52502 L43950 52502" /> 
</g><path d="M44211 52621 L44259 52621" /> 
<path d="M44259 52621 L44283 52609" /> 
<path d="M44283 52609 L44295 52597" /> 
<path d="M44295 52597 L44319 52562" /> 
<path d="M44319 52562 L44330 52514" /> 
<path d="M44330 52514 L44330 52419" /> 
<path d="M44330 52419 L44319 52395" /> 
<path d="M44319 52395 L44307 52383" /> 
<path d="M44307 52383 L44283 52371" /> 
<path d="M44283 52371 L44235 52371" /> 
<path d="M44235 52371 L44211 52383" /> 
<path d="M44211 52383 L44200 52395" /> 
<path d="M44200 52395 L44188 52419" /> 
<path d="M44188 52419 L44188 52478" /> 
<path d="M44188 52478 L44200 52502" /> 
<path d="M44200 52502 L44211 52514" /> 
<path d="M44211 52514 L44235 52526" /> 
<path d="M44235 52526 L44283 52526" /> 
<path d="M44283 52526 L44307 52514" /> 
<path d="M44307 52514 L44319 52502" /> 
<path d="M44319 52502 L44330 52478" /> 
<g style = "stroke-linecap:round;" > 
<path d="M44330 52478 L44330 52478" /> 
</g></g>
<g style="fill:#00A0A0; fill-opacity:0.0; stroke:#00A0A0; stroke-opacity:1.00; stroke-linecap:round; stroke-linejoin:round; stroke-width:50" 
   transform="translate(0.00 0.00) scale(1.00 1.00)">
<ellipse cx="45729" cy="51905" rx="50" ry="50"  /> 
<path d="M45279 51905 L45679 51905" /> 
<path d="M45679 51905 L45679 52505" /> 
<path d="M45679 52505 L45279 52505" /> 
<path d="M44879 52505 L44479 52505" /> 
<path d="M44479 52505 L44479 51905" /> 
<path d="M44479 51905 L44879 51905" /> 
</g>
<g style="fill:#00A0A0; fill-opacity:0.0; stroke:#0000C0; stroke-opacity:1.00; stroke-linecap:round; stroke-linejoin:round; stroke-width:0" 
   transform="translate(0.00 0.00) scale(1.00 1.00)">
<path d="M44053 53190 L44057 53190" /> 
<path d="M44055 53188 L44055 53192" /> 
</g>
<g style="fill:#C0C0C0; fill-opacity:0.0; stroke:#C0C0C0; stroke-opacity:1.00; stroke-linecap:round; stroke-linejoin:round; stroke-width:50" 
   transform="translate(0.00 0.00) scale(1.00 1.00)">
<path d="M43894 53291 L43811 53172" /> 
<g style = "stroke-linecap:round;" > 
<path d="M43811 53172 L43811 53172" /> 
</g><path d="M43752 53291 L43752 53041" /> 
<path d="M43752 53041 L43847 53041" /> 
<path d="M43847 53041 L43871 53053" /> 
<path d="M43871 53053 L43882 53065" /> 
<path d="M43882 53065 L43894 53089" /> 
<path d="M43894 53089 L43894 53125" /> 
<path d="M43894 53125 L43882 53148" /> 
<path d="M43882 53148 L43871 53160" /> 
<path d="M43871 53160 L43847 53172" /> 
<path d="M43847 53172 L43752 53172" /> 
<g style = "stroke-linecap:round;" > 
<path d="M43752 53172 L43752 53172" /> 
</g><path d="M44132 53291 L43990 53291" /> 
<g style = "stroke-linecap:round;" > 
<path d="M43990 53291 L43990 53291" /> 
</g><path d="M44061 53291 L44061 53041" /> 
<path d="M44061 53041 L44037 53077" /> 
<path d="M44037 53077 L44013 53101" /> 
<path d="M44013 53101 L43990 53113" /> 
<g style = "stroke-linecap:round;" > 
<path d="M43990 53113 L43990 53113" /> 
</g><path d="M44287 53041 L44311 53041" /> 
<path d="M44311 53041 L44335 53053" /> 
<path d="M44335 53053 L44347 53065" /> 
<path d="M44347 53065 L44359 53089" /> 
<path d="M44359 53089 L44370 53136" /> 
<path d="M44370 53136 L44370 53196" /> 
<path d="M44370 53196 L44359 53244" /> 
<path d="M44359 53244 L44347 53267" /> 
<path d="M44347 53267 L44335 53279" /> 
<path d="M44335 53279 L44311 53291" /> 
<path d="M44311 53291 L44287 53291" /> 
<path d="M44287 53291 L44263 53279" /> 
<path d="M44263 53279 L44251 53267" /> 
<path d="M44251 53267 L44240 53244" /> 
<path d="M44240 53244 L44228 53196" /> 
<path d="M44228 53196 L44228 53136" /> 
<path d="M44228 53136 L44240 53089" /> 
<path d="M44240 53089 L44251 53065" /> 
<path d="M44251 53065 L44263 53053" /> 
<path d="M44263 53053 L44287 53041" /> 
</g>
<g style="fill:#00A0A0; fill-opacity:0.0; stroke:#00A0A0; stroke-opacity:1.00; stroke-linecap:round; stroke-linejoin:round; stroke-width:50" 
   transform="translate(0.00 0.00) scale(1.00 1.00)">
<ellipse cx="45729" cy="52771" rx="50" ry="50"  /> 
<path d="M45279 52771 L45679 52771" /> 
<path d="M45679 52771 L45679 53371" /> 
<path d="M45679 53371 L45279 53371" /> 
<path d="M44879 53371 L44479 53371" /> 
<path d="M44479 53371 L44479 52771" /> 
<path d="M44479 52771 L44879 52771" /> 
</g>
<g style="fill:#808000; fill-opacity:0.0; stroke:#808000; stroke-opacity:1.00; stroke-linecap:round; stroke-linejoin:round; stroke-width:4" 
   transform="translate(0.00 0.00) scale(1.00 1.00)">
<path d="M51300 49209 L51850 49209" /> 
<path d="M51850 49209 L51850 49759" /> 
<path d="M51850 49759 L51300 49759" /> 
<path d="M51300 49209 L51300 49759" /> 
<ellipse cx="51575" cy="50484" rx="275" ry="275"  /> 
<ellipse cx="51575" cy="51484" rx="275" ry="275"  /> 
<ellipse cx="51575" cy="52484" rx="275" ry="275"  /> 
</g>
<g style="fill:#808000; fill-opacity:0.0; stroke:#0000C0; stroke-opacity:1.00; stroke-linecap:round; stroke-linejoin:round; stroke-width:0" 
   transform="translate(0.00 0.00) scale(1.00 1.00)">
<path d="M50628 52402 L50632 52402" /> 
<path d="M50630 52400 L50630 52404" /> 
</g>
<g style="fill:#C0C0C0; fill-opacity:0.0; stroke:#C0C0C0; stroke-opacity:1.00; stroke-linecap:round; stroke-linejoin:round; stroke-width:107" 
   transform="translate(0.00 0.00) scale(1.00 1.00)">
<path d="M50255 52708 L50223 52749" /> 
<path d="M50223 52749 L50223 52810" /> 
<path d="M50223 52810 L50255 52871" /> 
<path d="M50255 52871 L50321 52912" /> 
<path d="M50321 52912 L50386 52932" /> 
<path d="M50386 52932 L50516 52952" /> 
<path d="M50516 52952 L50613 52952" /> 
<path d="M50613 52952 L50743 52932" /> 
<path d="M50743 52932 L50808 52912" /> 
<path d="M50808 52912 L50873 52871" /> 
<path d="M50873 52871 L50906 52810" /> 
<path d="M50906 52810 L50906 52769" /> 
<path d="M50906 52769 L50873 52708" /> 
<path d="M50873 52708 L50841 52688" /> 
<path d="M50841 52688 L50613 52688" /> 
<path d="M50613 52688 L50613 52769" /> 
<g style = "stroke-linecap:round;" > 
<path d="M50613 52769 L50613 52769" /> 
</g><path d="M50841 52260 L50873 52280" /> 
<path d="M50873 52280 L50906 52341" /> 
<path d="M50906 52341 L50906 52382" /> 
<path d="M50906 52382 L50873 52443" /> 
<path d="M50873 52443 L50808 52484" /> 
<path d="M50808 52484 L50743 52504" /> 
<path d="M50743 52504 L50613 52524" /> 
<path d="M50613 52524 L50516 52524" /> 
<path d="M50516 52524 L50386 52504" /> 
<path d="M50386 52504 L50321 52484" /> 
<path d="M50321 52484 L50255 52443" /> 
<path d="M50255 52443 L50223 52382" /> 
<path d="M50223 52382 L50223 52341" /> 
<path d="M50223 52341 L50255 52280" /> 
<path d="M50255 52280 L50288 52260" /> 
<g style = "stroke-linecap:round;" > 
<path d="M50288 52260 L50288 52260" /> 
</g><path d="M50906 51852 L50906 52096" /> 
<g style = "stroke-linecap:round;" > 
<path d="M50906 52096 L50906 52096" /> 
</g><path d="M50906 51974 L50223 51974" /> 
<path d="M50223 51974 L50321 52015" /> 
<path d="M50321 52015 L50386 52056" /> 
<path d="M50386 52056 L50418 52096" /> 
<g style = "stroke-linecap:round;" > 
<path d="M50418 52096 L50418 52096" /> 
</g></g>
<g style="fill:#C0C0C0; fill-opacity:0.0; stroke:#00A0A0; stroke-opacity:1.00; stroke-linecap:round; stroke-linejoin:round; stroke-width:120" 
   transform="translate(0.00 0.00) scale(1.00 1.00)">
<path d="M52075 48984 L52075 48984" /> 
<path d="M51075 48984 L52075 48984" /> 
<path d="M52075 48984 L52075 48984" /> 
<path d="M52075 48984 L52075 52984" /> 
<path d="M52075 52984 L51075 52984" /> 
<path d="M51075 52984 L51075 48984" /> 
<path d="M51075 49984 L52075 49984" /> 
</g>
<g style="fill:#808000; fill-opacity:0.0; stroke:#808000; stroke-opacity:1.00; stroke-linecap:round; stroke-linejoin:round; stroke-width:4" 
   transform="translate(0.00 0.00) scale(1.00 1.00)">
<path d="M47178 58599 L46578 58599" /> 
<path d="M46578 58599 L46578 57999" /> 
<path d="M46578 57999 L47178 57999" /> 
<path d="M47178 58599 L47178 57999" /> 
<ellipse cx="45878" cy="58299" rx="300" ry="300"  /> 
<ellipse cx="46878" cy="57299" rx="300" ry="300"  /> 
<ellipse cx="45878" cy="57299" rx="300" ry="300"  /> 
<ellipse cx="46878" cy="56299" rx="300" ry="300"  /> 
<ellipse cx="45878" cy="56299" rx="300" ry="300"  /> 
<ellipse cx="46878" cy="55299" rx="300" ry="300"  /> 
<ellipse cx="45878" cy="55299" rx="300" ry="300"  /> 
<ellipse cx="46878" cy="54299" rx="300" ry="300"  /> 
<ellipse cx="45878" cy="54299" rx="300" ry="300"  /> 
</g>
<g style="fill:#808000; fill-opacity:0.0; stroke:#0000C0; stroke-opacity:1.00; stroke-linecap:round; stroke-linejoin:round; stroke-width:0" 
   transform="translate(0.00 0.00) scale(1.00 1.00)">
<path d="M47911 56142 L47915 56142" /> 
<path d="M47913 56140 L47913 56144" /> 
</g>
<g style="fill:#C0C0C0; fill-opacity:0.0; stroke:#C0C0C0; stroke-opacity:1.00; stroke-linecap:round; stroke-linejoin:round; stroke-width:80" 
   transform="translate(0.00 0.00) scale(1.00 1.00)">
<path d="M48075 56818 L47675 56818" /> 
<path d="M47675 56818 L48075 56589" /> 
<path d="M48075 56589 L47675 56589" /> 
<g style = "stroke-linecap:round;" > 
<path d="M47675 56589 L47675 56589" /> 
</g><path d="M48075 56170 L47884 56304" /> 
<g style = "stroke-linecap:round;" > 
<path d="M47884 56304 L47884 56304" /> 
</g><path d="M48075 56399 L47675 56399" /> 
<path d="M47675 56399 L47675 56246" /> 
<path d="M47675 56246 L47694 56208" /> 
<path d="M47694 56208 L47713 56189" /> 
<path d="M47713 56189 L47751 56170" /> 
<path d="M47751 56170 L47808 56170" /> 
<path d="M47808 56170 L47846 56189" /> 
<path d="M47846 56189 L47865 56208" /> 
<path d="M47865 56208 L47884 56246" /> 
<path d="M47884 56246 L47884 56399" /> 
<g style = "stroke-linecap:round;" > 
<path d="M47884 56399 L47884 56399" /> 
</g><path d="M47865 55865 L47865 55999" /> 
<g style = "stroke-linecap:round;" > 
<path d="M47865 55999 L47865 55999" /> 
</g><path d="M48075 55999 L47675 55999" /> 
<path d="M47675 55999 L47675 55808" /> 
<g style = "stroke-linecap:round;" > 
<path d="M47675 55808 L47675 55808" /> 
</g><path d="M48075 55446 L48075 55675" /> 
<g style = "stroke-linecap:round;" > 
<path d="M48075 55675 L48075 55675" /> 
</g><path d="M48075 55561 L47675 55561" /> 
<path d="M47675 55561 L47732 55599" /> 
<path d="M47732 55599 L47770 55637" /> 
<path d="M47770 55637 L47789 55675" /> 
<g style = "stroke-linecap:round;" > 
<path d="M47789 55675 L47789 55675" /> 
</g></g>
<g style="fill:#C0C0C0; fill-opacity:0.0; stroke:#00A0A0; stroke-opacity:1.00; stroke-linecap:round; stroke-linejoin:round; stroke-width:120" 
   transform="translate(0.00 0.00) scale(1.00 1.00)">
<path d="M45378 58799 L45378 53799" /> 
<path d="M45378 53799 L47378 53799" /> 
<path d="M47378 53799 L47378 58799" /> 
<path d="M47378 58799 L45378 58799" /> 
</g>
<g style="fill:#808000; fill-opacity:0.0; stroke:#808000; stroke-opacity:1.00; stroke-linecap:round; stroke-linejoin:round; stroke-width:4" 
   transform="translate(0.00 0.00) scale(1.00 1.00)">
<path d="M50263 53739 L50863 53739" /> 
<path d="M50863 53739 L50863 54339" /> 
<path d="M50863 54339 L50263 54339" /> 
<path d="M50263 53739 L50263 54339" /> 
<ellipse cx="51563" cy="54039" rx="300" ry="300"  /> 
<ellipse cx="50563" cy="55039" rx="300" ry="300"  /> 
<ellipse cx="51563" cy="55039" rx="300" ry="300"  /> 
<ellipse cx="50563" cy="56039" rx="300" ry="300"  /> 
<ellipse cx="51563" cy="56039" rx="300" ry="300"  /> 
</g>
<g style="fill:#808000; fill-opacity:0.0; stroke:#0000C0; stroke-opacity:1.00; stroke-linecap:round; stroke-linejoin:round; stroke-width:0" 
   transform="translate(0.00 0.00) scale(1.00 1.00)">
<path d="M49683 55039 L49687 55039" /> 
<path d="M49685 55037 L49685 55041" /> 
</g>
<g style="fill:#C0C0C0; fill-opacity:0.0; stroke:#C0C0C0; stroke-opacity:1.00; stroke-linecap:round; stroke-linejoin:round; stroke-width:80" 
   transform="translate(0.00 0.00) scale(1.00 1.00)">
<path d="M49847 55944 L49447 55944" /> 
<path d="M49447 55944 L49447 55791" /> 
<path d="M49447 55791 L49466 55753" /> 
<path d="M49466 55753 L49485 55734" /> 
<path d="M49485 55734 L49523 55715" /> 
<path d="M49523 55715 L49580 55715" /> 
<path d="M49580 55715 L49618 55734" /> 
<path d="M49618 55734 L49637 55753" /> 
<path d="M49637 55753 L49656 55791" /> 
<path d="M49656 55791 L49656 55944" /> 
<g style = "stroke-linecap:round;" > 
<path d="M49656 55944 L49656 55944" /> 
</g><path d="M49847 55315 L49656 55449" /> 
<g style = "stroke-linecap:round;" > 
<path d="M49656 55449 L49656 55449" /> 
</g><path d="M49847 55544 L49447 55544" /> 
<path d="M49447 55544 L49447 55391" /> 
<path d="M49447 55391 L49466 55353" /> 
<path d="M49466 55353 L49485 55334" /> 
<path d="M49485 55334 L49523 55315" /> 
<path d="M49523 55315 L49580 55315" /> 
<path d="M49580 55315 L49618 55334" /> 
<path d="M49618 55334 L49637 55353" /> 
<path d="M49637 55353 L49656 55391" /> 
<path d="M49656 55391 L49656 55544" /> 
<g style = "stroke-linecap:round;" > 
<path d="M49656 55544 L49656 55544" /> 
</g><path d="M49447 55068 L49447 54991" /> 
<path d="M49447 54991 L49466 54953" /> 
<path d="M49466 54953 L49504 54915" /> 
<path d="M49504 54915 L49580 54896" /> 
<path d="M49580 54896 L49714 54896" /> 
<path d="M49714 54896 L49790 54915" /> 
<path d="M49790 54915 L49828 54953" /> 
<path d="M49828 54953 L49847 54991" /> 
<path d="M49847 54991 L49847 55068" /> 
<path d="M49847 55068 L49828 55106" /> 
<path d="M49828 55106 L49790 55144" /> 
<path d="M49790 55144 L49714 55163" /> 
<path d="M49714 55163 L49580 55163" /> 
<path d="M49580 55163 L49504 55144" /> 
<path d="M49504 55144 L49466 55106" /> 
<path d="M49466 55106 L49447 55068" /> 
<path d="M49466 54515 L49447 54553" /> 
<path d="M49447 54553 L49447 54610" /> 
<path d="M49447 54610 L49466 54668" /> 
<path d="M49466 54668 L49504 54706" /> 
<path d="M49504 54706 L49542 54725" /> 
<path d="M49542 54725 L49618 54744" /> 
<path d="M49618 54744 L49675 54744" /> 
<path d="M49675 54744 L49752 54725" /> 
<path d="M49752 54725 L49790 54706" /> 
<path d="M49790 54706 L49828 54668" /> 
<path d="M49828 54668 L49847 54610" /> 
<path d="M49847 54610 L49847 54572" /> 
<path d="M49847 54572 L49828 54515" /> 
<path d="M49828 54515 L49809 54496" /> 
<path d="M49809 54496 L49675 54496" /> 
<path d="M49675 54496 L49675 54572" /> 
<g style = "stroke-linecap:round;" > 
<path d="M49675 54572 L49675 54572" /> 
</g><path d="M49847 54115 L49847 54344" /> 
<g style = "stroke-linecap:round;" > 
<path d="M49847 54344 L49847 54344" /> 
</g><path d="M49847 54230 L49447 54230" /> 
<path d="M49447 54230 L49504 54268" /> 
<path d="M49504 54268 L49542 54306" /> 
<path d="M49542 54306 L49561 54344" /> 
<g style = "stroke-linecap:round;" > 
<path d="M49561 54344 L49561 54344" /> 
</g></g>
<g style="fill:#C0C0C0; fill-opacity:0.0; stroke:#00A0A0; stroke-opacity:1.00; stroke-linecap:round; stroke-linejoin:round; stroke-width:80" 
   transform="translate(0.00 0.00) scale(1.00 1.00)">
<path d="M50063 56539 L50063 53539" /> 
<path d="M52063 53539 L52063 56539" /> 
<path d="M52063 56539 L50063 56539" /> 
<path d="M50063 53539 L52063 53539" /> 
</g>
<g style="fill:#808000; fill-opacity:0.0; stroke:#808000; stroke-opacity:1.00; stroke-linecap:round; stroke-linejoin:round; stroke-width:4" 
   transform="translate(0.00 0.00) scale(1.00 1.00)">
<path d="M46178 43256 L46728 43256" /> 
<path d="M46728 43256 L46728 43806" /> 
<path d="M46728 43806 L46178 43806" /> 
<path d="M46178 43256 L46178 43806" /> 
<ellipse cx="46453" cy="44531" rx="275" ry="275"  /> 
<ellipse cx="46453" cy="45531" rx="275" ry="275"  /> 
<ellipse cx="46453" cy="46531" rx="275" ry="275"  /> 
<ellipse cx="46453" cy="47531" rx="275" ry="275"  /> 
<ellipse cx="46453" cy="48531" rx="275" ry="275"  /> 
<ellipse cx="46453" cy="49531" rx="275" ry="275"  /> 
<ellipse cx="46453" cy="50531" rx="275" ry="275"  /> 
<ellipse cx="46453" cy="51531" rx="275" ry="275"  /> 
<ellipse cx="46453" cy="52531" rx="275" ry="275"  /> 
<ellipse cx="49453" cy="52531" rx="275" ry="275"  /> 
<ellipse cx="49453" cy="51531" rx="275" ry="275"  /> 
<ellipse cx="49453" cy="50531" rx="275" ry="275"  /> 
<ellipse cx="49453" cy="49531" rx="275" ry="275"  /> 
<ellipse cx="49453" cy="48531" rx="275" ry="275"  /> 
<ellipse cx="49453" cy="47531" rx="275" ry="275"  /> 
<ellipse cx="49453" cy="46531" rx="275" ry="275"  /> 
<ellipse cx="49453" cy="45531" rx="275" ry="275"  /> 
<ellipse cx="49453" cy="44531" rx="275" ry="275"  /> 
<ellipse cx="49453" cy="43531" rx="275" ry="275"  /> 
</g>
<g style="fill:#808000; fill-opacity:0.0; stroke:#0000C0; stroke-opacity:1.00; stroke-linecap:round; stroke-linejoin:round; stroke-width:0" 
   transform="translate(0.00 0.00) scale(1.00 1.00)">
<path d="M47951 41457 L47955 41457" /> 
<path d="M47953 41455 L47953 41459" /> 
</g>
<g style="fill:#C0C0C0; fill-opacity:0.0; stroke:#C0C0C0; stroke-opacity:1.00; stroke-linecap:round; stroke-linejoin:round; stroke-width:113" 
   transform="translate(0.00 0.00) scale(1.00 1.00)">
<path d="M47353 41374 L47417 41407" /> 
<path d="M47417 41407 L47439 41440" /> 
<path d="M47439 41440 L47460 41507" /> 
<path d="M47460 41507 L47460 41607" /> 
<path d="M47460 41607 L47439 41674" /> 
<path d="M47439 41674 L47417 41707" /> 
<path d="M47417 41707 L47375 41740" /> 
<path d="M47375 41740 L47203 41740" /> 
<path d="M47203 41740 L47203 41040" /> 
<path d="M47203 41040 L47353 41040" /> 
<path d="M47353 41040 L47396 41074" /> 
<path d="M47396 41074 L47417 41107" /> 
<path d="M47417 41107 L47439 41174" /> 
<path d="M47439 41174 L47439 41240" /> 
<path d="M47439 41240 L47417 41307" /> 
<path d="M47417 41307 L47396 41340" /> 
<path d="M47396 41340 L47353 41374" /> 
<path d="M47353 41374 L47203 41374" /> 
<g style = "stroke-linecap:round;" > 
<path d="M47203 41374 L47203 41374" /> 
</g><path d="M47632 41540 L47846 41540" /> 
<g style = "stroke-linecap:round;" > 
<path d="M47846 41540 L47846 41540" /> 
</g><path d="M47589 41740 L47739 41040" /> 
<path d="M47739 41040 L47889 41740" /> 
<g style = "stroke-linecap:round;" > 
<path d="M47889 41740 L47889 41740" /> 
</g><path d="M48296 41740 L48146 41407" /> 
<g style = "stroke-linecap:round;" > 
<path d="M48146 41407 L48146 41407" /> 
</g><path d="M48039 41740 L48039 41040" /> 
<path d="M48039 41040 L48211 41040" /> 
<path d="M48211 41040 L48253 41074" /> 
<path d="M48253 41074 L48275 41107" /> 
<path d="M48275 41107 L48296 41174" /> 
<path d="M48296 41174 L48296 41274" /> 
<path d="M48296 41274 L48275 41340" /> 
<path d="M48275 41340 L48253 41374" /> 
<path d="M48253 41374 L48211 41407" /> 
<path d="M48211 41407 L48039 41407" /> 
<g style = "stroke-linecap:round;" > 
<path d="M48039 41407 L48039 41407" /> 
</g><path d="M48725 41740 L48468 41740" /> 
<g style = "stroke-linecap:round;" > 
<path d="M48468 41740 L48468 41740" /> 
</g><path d="M48596 41740 L48596 41040" /> 
<path d="M48596 41040 L48553 41140" /> 
<path d="M48553 41140 L48511 41207" /> 
<path d="M48511 41207 L48468 41240" /> 
<g style = "stroke-linecap:round;" > 
<path d="M48468 41240 L48468 41240" /> 
</g></g>
<g style="fill:#C0C0C0; fill-opacity:0.0; stroke:#0000C0; stroke-opacity:1.00; stroke-linecap:round; stroke-linejoin:round; stroke-width:0" 
   transform="translate(0.00 0.00) scale(1.00 1.00)">
<path d="M47990 49646 L47994 49646" /> 
<path d="M47992 49644 L47992 49648" /> 
</g>
<g style="fill:#C0C0C0; fill-opacity:0.0; stroke:#C0C0C0; stroke-opacity:1.00; stroke-linecap:round; stroke-linejoin:round; stroke-width:113" 
   transform="translate(0.00 0.00) scale(1.00 1.00)">
<path d="M48275 51307 L47575 51307" /> 
<path d="M47575 51307 L47575 51200" /> 
<path d="M47575 51200 L47609 51135" /> 
<path d="M47609 51135 L47675 51093" /> 
<path d="M47675 51093 L47742 51071" /> 
<path d="M47742 51071 L47875 51050" /> 
<path d="M47875 51050 L47975 51050" /> 
<path d="M47975 51050 L48109 51071" /> 
<path d="M48109 51071 L48175 51093" /> 
<path d="M48175 51093 L48242 51135" /> 
<path d="M48242 51135 L48275 51200" /> 
<path d="M48275 51200 L48275 51307" /> 
<path d="M47575 50771 L47575 50685" /> 
<path d="M47575 50685 L47609 50643" /> 
<path d="M47609 50643 L47675 50600" /> 
<path d="M47675 50600 L47809 50578" /> 
<path d="M47809 50578 L48042 50578" /> 
<path d="M48042 50578 L48175 50600" /> 
<path d="M48175 50600 L48242 50643" /> 
<path d="M48242 50643 L48275 50685" /> 
<path d="M48275 50685 L48275 50771" /> 
<path d="M48275 50771 L48242 50814" /> 
<path d="M48242 50814 L48175 50857" /> 
<path d="M48175 50857 L48042 50878" /> 
<path d="M48042 50878 L47809 50878" /> 
<path d="M47809 50878 L47675 50857" /> 
<path d="M47675 50857 L47609 50814" /> 
<path d="M47609 50814 L47575 50771" /> 
<path d="M47575 50450 L47575 50193" /> 
<g style = "stroke-linecap:round;" > 
<path d="M47575 50193 L47575 50193" /> 
</g><path d="M48275 50322 L47575 50322" /> 
<g style = "stroke-linecap:round;" > 
<path d="M47575 50322 L47575 50322" /> 
</g><path d="M48009 50043 L48009 49700" /> 
<g style = "stroke-linecap:round;" > 
<path d="M48009 49700 L48009 49700" /> 
</g><path d="M47909 49336 L47942 49272" /> 
<path d="M47942 49272 L47975 49250" /> 
<path d="M47975 49250 L48042 49229" /> 
<path d="M48042 49229 L48142 49229" /> 
<path d="M48142 49229 L48209 49250" /> 
<path d="M48209 49250 L48242 49272" /> 
<path d="M48242 49272 L48275 49314" /> 
<path d="M48275 49314 L48275 49486" /> 
<path d="M48275 49486 L47575 49486" /> 
<path d="M47575 49486 L47575 49336" /> 
<path d="M47575 49336 L47609 49293" /> 
<path d="M47609 49293 L47642 49272" /> 
<path d="M47642 49272 L47709 49250" /> 
<path d="M47709 49250 L47775 49250" /> 
<path d="M47775 49250 L47842 49272" /> 
<path d="M47842 49272 L47875 49293" /> 
<path d="M47875 49293 L47909 49336" /> 
<path d="M47909 49336 L47909 49486" /> 
<g style = "stroke-linecap:round;" > 
<path d="M47909 49486 L47909 49486" /> 
</g><path d="M48075 49057 L48075 48843" /> 
<g style = "stroke-linecap:round;" > 
<path d="M48075 48843 L48075 48843" /> 
</g><path d="M48275 49100 L47575 48950" /> 
<path d="M47575 48950 L48275 48800" /> 
<g style = "stroke-linecap:round;" > 
<path d="M48275 48800 L48275 48800" /> 
</g><path d="M48275 48393 L47942 48543" /> 
<g style = "stroke-linecap:round;" > 
<path d="M47942 48543 L47942 48543" /> 
</g><path d="M48275 48650 L47575 48650" /> 
<path d="M47575 48650 L47575 48478" /> 
<path d="M47575 48478 L47609 48436" /> 
<path d="M47609 48436 L47642 48414" /> 
<path d="M47642 48414 L47709 48393" /> 
<path d="M47709 48393 L47809 48393" /> 
<path d="M47809 48393 L47875 48414" /> 
<path d="M47875 48414 L47909 48436" /> 
<path d="M47909 48436 L47942 48478" /> 
<path d="M47942 48478 L47942 48650" /> 
<g style = "stroke-linecap:round;" > 
<path d="M47942 48650 L47942 48650" /> 
</g><path d="M47642 48221 L47609 48200" /> 
<path d="M47609 48200 L47575 48157" /> 
<path d="M47575 48157 L47575 48050" /> 
<path d="M47575 48050 L47609 48007" /> 
<path d="M47609 48007 L47642 47986" /> 
<path d="M47642 47986 L47709 47964" /> 
<path d="M47709 47964 L47775 47964" /> 
<path d="M47775 47964 L47875 47986" /> 
<path d="M47875 47986 L48275 48243" /> 
<path d="M48275 48243 L48275 47964" /> 
<g style = "stroke-linecap:round;" > 
<path d="M48275 47964 L48275 47964" /> 
</g></g>
<g style="fill:#C0C0C0; fill-opacity:0.0; stroke:#00A0A0; stroke-opacity:1.00; stroke-linecap:round; stroke-linejoin:round; stroke-width:150" 
   transform="translate(0.00 0.00) scale(1.00 1.00)">
<path d="M48453 42531 L48453 43031" /> 
<path d="M48453 43031 L47453 43031" /> 
<path d="M47453 43031 L47453 42531" /> 
<path d="M48953 42531 L48953 53531" /> 
<path d="M48953 53531 L46953 53531" /> 
<path d="M46953 53531 L46953 42531" /> 
<path d="M46953 42531 L48953 42531" /> 
</g>
<g style="fill:#C0C0C0; fill-opacity:0.0; stroke:#0000C0; stroke-opacity:1.00; stroke-linecap:round; stroke-linejoin:round; stroke-width:0" 
   transform="translate(0.00 0.00) scale(1.00 1.00)">
<path d="M39526 45709 L39530 45709" /> 
<path d="M39528 45707 L39528 45711" /> 
</g>
<g style="fill:#C0C0C0; fill-opacity:0.0; stroke:#C0C0C0; stroke-opacity:1.00; stroke-linecap:round; stroke-linejoin:round; stroke-width:30" 
   transform="translate(0.00 0.00) scale(1.00 1.00)">
<path d="M39429 45638 L39429 45723" /> 
<path d="M39429 45723 L39423 45740" /> 
<path d="M39423 45740 L39412 45752" /> 
<path d="M39412 45752 L39395 45758" /> 
<path d="M39395 45758 L39383 45758" /> 
<g style = "stroke-linecap:round;" > 
<path d="M39383 45758 L39383 45758" /> 
</g><path d="M39486 45758 L39486 45638" /> 
<path d="M39486 45638 L39531 45638" /> 
<path d="M39531 45638 L39543 45643" /> 
<path d="M39543 45643 L39548 45649" /> 
<path d="M39548 45649 L39554 45660" /> 
<path d="M39554 45660 L39554 45678" /> 
<path d="M39554 45678 L39548 45689" /> 
<path d="M39548 45689 L39543 45695" /> 
<path d="M39543 45695 L39531 45700" /> 
<path d="M39531 45700 L39486 45700" /> 
<g style = "stroke-linecap:round;" > 
<path d="M39486 45700 L39486 45700" /> 
</g><path d="M39600 45649 L39606 45643" /> 
<path d="M39606 45643 L39617 45638" /> 
<path d="M39617 45638 L39646 45638" /> 
<path d="M39646 45638 L39657 45643" /> 
<path d="M39657 45643 L39663 45649" /> 
<path d="M39663 45649 L39668 45660" /> 
<path d="M39668 45660 L39668 45672" /> 
<path d="M39668 45672 L39663 45689" /> 
<path d="M39663 45689 L39594 45758" /> 
<path d="M39594 45758 L39668 45758" /> 
<g style = "stroke-linecap:round;" > 
<path d="M39668 45758 L39668 45758" /> 
</g></g>
<g style="fill:#C0C0C0; fill-opacity:0.0; stroke:#00A0A0; stroke-opacity:1.00; stroke-linecap:round; stroke-linejoin:round; stroke-width:50" 
   transform="translate(0.00 0.00) scale(1.00 1.00)">
<path d="M38916 45559 L38716 45559" /> 
<path d="M38716 45559 L38716 45859" /> 
<path d="M38716 45859 L38916 45859" /> 
<path d="M39116 45559 L39316 45559" /> 
<path d="M39316 45559 L39316 45859" /> 
<path d="M39316 45859 L39116 45859" /> 
</g>
<g style="fill:#C0C0C0; fill-opacity:0.0; stroke:#0000C0; stroke-opacity:1.00; stroke-linecap:round; stroke-linejoin:round; stroke-width:0" 
   transform="translate(0.00 0.00) scale(1.00 1.00)">
<path d="M39565 46417 L39569 46417" /> 
<path d="M39567 46415 L39567 46419" /> 
</g>
<g style="fill:#C0C0C0; fill-opacity:0.0; stroke:#C0C0C0; stroke-opacity:1.00; stroke-linecap:round; stroke-linejoin:round; stroke-width:30" 
   transform="translate(0.00 0.00) scale(1.00 1.00)">
<path d="M39468 46346 L39468 46431" /> 
<path d="M39468 46431 L39462 46448" /> 
<path d="M39462 46448 L39451 46460" /> 
<path d="M39451 46460 L39434 46466" /> 
<path d="M39434 46466 L39422 46466" /> 
<g style = "stroke-linecap:round;" > 
<path d="M39422 46466 L39422 46466" /> 
</g><path d="M39525 46466 L39525 46346" /> 
<path d="M39525 46346 L39570 46346" /> 
<path d="M39570 46346 L39582 46351" /> 
<path d="M39582 46351 L39587 46357" /> 
<path d="M39587 46357 L39593 46368" /> 
<path d="M39593 46368 L39593 46386" /> 
<path d="M39593 46386 L39587 46397" /> 
<path d="M39587 46397 L39582 46403" /> 
<path d="M39582 46403 L39570 46408" /> 
<path d="M39570 46408 L39525 46408" /> 
<g style = "stroke-linecap:round;" > 
<path d="M39525 46408 L39525 46408" /> 
</g><path d="M39707 46466 L39639 46466" /> 
<g style = "stroke-linecap:round;" > 
<path d="M39639 46466 L39639 46466" /> 
</g><path d="M39673 46466 L39673 46346" /> 
<path d="M39673 46346 L39662 46363" /> 
<path d="M39662 46363 L39650 46374" /> 
<path d="M39650 46374 L39639 46380" /> 
<g style = "stroke-linecap:round;" > 
<path d="M39639 46380 L39639 46380" /> 
</g></g>
<g style="fill:#C0C0C0; fill-opacity:0.0; stroke:#00A0A0; stroke-opacity:1.00; stroke-linecap:round; stroke-linejoin:round; stroke-width:50" 
   transform="translate(0.00 0.00) scale(1.00 1.00)">
<path d="M38916 46267 L38716 46267" /> 
<path d="M38716 46267 L38716 46567" /> 
<path d="M38716 46567 L38916 46567" /> 
<path d="M39116 46267 L39316 46267" /> 
<path d="M39316 46267 L39316 46567" /> 
<path d="M39316 46567 L39116 46567" /> 
</g>
<g style="fill:#808000; fill-opacity:0.0; stroke:#808000; stroke-opacity:1.00; stroke-linecap:round; stroke-linejoin:round; stroke-width:4" 
   transform="translate(0.00 0.00) scale(1.00 1.00)">
<path d="M51300 45182 L51850 45182" /> 
<path d="M51850 45182 L51850 45732" /> 
<path d="M51850 45732 L51300 45732" /> 
<path d="M51300 45182 L51300 45732" /> 
<ellipse cx="51575" cy="46457" rx="275" ry="275"  /> 
<ellipse cx="51575" cy="47457" rx="275" ry="275"  /> 
</g>
<g style="fill:#808000; fill-opacity:0.0; stroke:#0000C0; stroke-opacity:1.00; stroke-linecap:round; stroke-linejoin:round; stroke-width:0" 
   transform="translate(0.00 0.00) scale(1.00 1.00)">
<path d="M51652 44094 L51656 44094" /> 
<path d="M51654 44092 L51654 44096" /> 
</g>
<g style="fill:#C0C0C0; fill-opacity:0.0; stroke:#C0C0C0; stroke-opacity:1.00; stroke-linecap:round; stroke-linejoin:round; stroke-width:106" 
   transform="translate(0.00 0.00) scale(1.00 1.00)">
<path d="M51939 44619 L51234 44619" /> 
<path d="M51234 44619 L51939 44377" /> 
<path d="M51939 44377 L51234 44377" /> 
<g style = "stroke-linecap:round;" > 
<path d="M51234 44377 L51234 44377" /> 
</g><path d="M51234 43993 L51234 44074" /> 
<path d="M51234 44074 L51267 44114" /> 
<path d="M51267 44114 L51301 44135" /> 
<path d="M51301 44135 L51402 44175" /> 
<path d="M51402 44175 L51536 44195" /> 
<path d="M51536 44195 L51805 44195" /> 
<path d="M51805 44195 L51872 44175" /> 
<path d="M51872 44175 L51905 44155" /> 
<path d="M51905 44155 L51939 44114" /> 
<path d="M51939 44114 L51939 44034" /> 
<path d="M51939 44034 L51905 43993" /> 
<path d="M51905 43993 L51872 43973" /> 
<path d="M51872 43973 L51805 43953" /> 
<path d="M51805 43953 L51637 43953" /> 
<path d="M51637 43953 L51570 43973" /> 
<path d="M51570 43973 L51536 43993" /> 
<path d="M51536 43993 L51502 44034" /> 
<path d="M51502 44034 L51502 44114" /> 
<path d="M51502 44114 L51536 44155" /> 
<path d="M51536 44155 L51570 44175" /> 
<path d="M51570 44175 L51637 44195" /> 
<g style = "stroke-linecap:round;" > 
<path d="M51637 44195 L51637 44195" /> 
</g><path d="M51469 43589 L51939 43589" /> 
<g style = "stroke-linecap:round;" > 
<path d="M51939 43589 L51939 43589" /> 
</g><path d="M51200 43690 L51704 43791" /> 
<path d="M51704 43791 L51704 43529" /> 
<g style = "stroke-linecap:round;" > 
<path d="M51704 43529 L51704 43529" /> 
</g></g>
<g style="fill:#C0C0C0; fill-opacity:0.0; stroke:#00A0A0; stroke-opacity:1.00; stroke-linecap:round; stroke-linejoin:round; stroke-width:120" 
   transform="translate(0.00 0.00) scale(1.00 1.00)">
<path d="M51075 44957 L52075 44957" /> 
<path d="M52075 44957 L52075 47957" /> 
<path d="M52075 47957 L51075 47957" /> 
<path d="M51075 47957 L51075 44957" /> 
<path d="M52075 45957 L51075 45957" /> 
</g>
<g style="fill:#C0C0C0; fill-opacity:0.0; stroke:#0000C0; stroke-opacity:1.00; stroke-linecap:round; stroke-linejoin:round; stroke-width:0" 
   transform="translate(0.00 0.00) scale(1.00 1.00)">
<path d="M42813 43051 L42817 43051" /> 
<path d="M42815 43049 L42815 43053" /> 
</g>
<g style="fill:#C0C0C0; fill-opacity:0.0; stroke:#C0C0C0; stroke-opacity:1.00; stroke-linecap:round; stroke-linejoin:round; stroke-width:62" 
   transform="translate(0.00 0.00) scale(1.00 1.00)">
<path d="M42496 42813 L42759 43213" /> 
<g style = "stroke-linecap:round;" > 
<path d="M42759 43213 L42759 43213" /> 
</g><path d="M42759 42813 L42496 43213" /> 
<g style = "stroke-linecap:round;" > 
<path d="M42496 43213 L42496 43213" /> 
</g><path d="M43115 43213 L42890 43213" /> 
<g style = "stroke-linecap:round;" > 
<path d="M42890 43213 L42890 43213" /> 
</g><path d="M43003 43213 L43003 42813" /> 
<path d="M43003 42813 L42965 42870" /> 
<path d="M42965 42870 L42928 42908" /> 
<path d="M42928 42908 L42890 42927" /> 
<g style = "stroke-linecap:round;" > 
<path d="M42890 42927 L42890 42927" /> 
</g></g>
<g style="fill:#C0C0C0; fill-opacity:0.0; stroke:#0000C0; stroke-opacity:1.00; stroke-linecap:round; stroke-linejoin:round; stroke-width:0" 
   transform="translate(0.00 0.00) scale(1.00 1.00)">
<path d="M42892 43642 L42896 43642" /> 
<path d="M42894 43640 L42894 43644" /> 
</g>
<g style="fill:#C0C0C0; fill-opacity:0.0; stroke:#C0C0C0; stroke-opacity:1.00; stroke-linecap:round; stroke-linejoin:round; stroke-width:80" 
   transform="translate(0.00 0.00) scale(1.00 1.00)">
<path d="M42219 43804 L41994 43804" /> 
<g style = "stroke-linecap:round;" > 
<path d="M41994 43804 L41994 43804" /> 
</g><path d="M42107 43804 L42107 43404" /> 
<path d="M42107 43404 L42069 43461" /> 
<path d="M42069 43461 L42032 43499" /> 
<path d="M42032 43499 L41994 43518" /> 
<g style = "stroke-linecap:round;" > 
<path d="M41994 43518 L41994 43518" /> 
</g><path d="M42369 43442 L42388 43423" /> 
<path d="M42388 43423 L42425 43404" /> 
<path d="M42425 43404 L42519 43404" /> 
<path d="M42519 43404 L42557 43423" /> 
<path d="M42557 43423 L42575 43442" /> 
<path d="M42575 43442 L42594 43480" /> 
<path d="M42594 43480 L42594 43518" /> 
<path d="M42594 43518 L42575 43575" /> 
<path d="M42575 43575 L42350 43804" /> 
<path d="M42350 43804 L42594 43804" /> 
<g style = "stroke-linecap:round;" > 
<path d="M42594 43804 L42594 43804" /> 
</g><path d="M42763 43804 L42763 43537" /> 
<g style = "stroke-linecap:round;" > 
<path d="M42763 43537 L42763 43537" /> 
</g><path d="M42763 43575 L42782 43556" /> 
<path d="M42782 43556 L42819 43537" /> 
<path d="M42819 43537 L42875 43537" /> 
<path d="M42875 43537 L42913 43556" /> 
<path d="M42913 43556 L42932 43594" /> 
<path d="M42932 43594 L42932 43804" /> 
<g style = "stroke-linecap:round;" > 
<path d="M42932 43804 L42932 43804" /> 
</g><path d="M42932 43594 L42950 43556" /> 
<path d="M42950 43556 L42988 43537" /> 
<path d="M42988 43537 L43044 43537" /> 
<path d="M43044 43537 L43082 43556" /> 
<path d="M43082 43556 L43101 43594" /> 
<path d="M43101 43594 L43101 43804" /> 
<g style = "stroke-linecap:round;" > 
<path d="M43101 43804 L43101 43804" /> 
</g><path d="M43288 43804 L43288 43404" /> 
<g style = "stroke-linecap:round;" > 
<path d="M43288 43404 L43288 43404" /> 
</g><path d="M43457 43804 L43457 43594" /> 
<path d="M43457 43594 L43438 43556" /> 
<path d="M43438 43556 L43400 43537" /> 
<path d="M43400 43537 L43344 43537" /> 
<path d="M43344 43537 L43307 43556" /> 
<path d="M43307 43556 L43288 43575" /> 
<g style = "stroke-linecap:round;" > 
<path d="M43288 43575 L43288 43575" /> 
</g><path d="M43606 43537 L43813 43537" /> 
<path d="M43813 43537 L43606 43804" /> 
<path d="M43606 43804 L43813 43804" /> 
<g style = "stroke-linecap:round;" > 
<path d="M43813 43804 L43813 43804" /> 
</g></g>
<g style="fill:#C0C0C0; fill-opacity:0.0; stroke:#00A0A0; stroke-opacity:1.00; stroke-linecap:round; stroke-linejoin:round; stroke-width:150" 
   transform="translate(0.00 0.00) scale(1.00 1.00)">
<path d="M41241 46555 L41241 44547" /> 
<path d="M41241 44547 L44193 44547" /> 
<path d="M44193 44547 L44193 46555" /> 
<path d="M44193 46555 L41241 46555" /> 
</g>
<g style="fill:#808000; fill-opacity:0.0; stroke:#808000; stroke-opacity:1.00; stroke-linecap:round; stroke-linejoin:round; stroke-width:4" 
   transform="translate(0.00 0.00) scale(1.00 1.00)">
<ellipse cx="34213" cy="41142" rx="800" ry="800"  /> 
</g>
<g style="fill:#808000; fill-opacity:0.0; stroke:#0000C0; stroke-opacity:1.00; stroke-linecap:round; stroke-linejoin:round; stroke-width:0" 
   transform="translate(0.00 0.00) scale(1.00 1.00)">
<path d="M34211 39942 L34215 39942" /> 
<path d="M34213 39940 L34213 39944" /> 
</g>
<g style="fill:#00A0A0; fill-opacity:0.0; stroke:#00A0A0; stroke-opacity:1.00; stroke-linecap:round; stroke-linejoin:round; stroke-width:150" 
   transform="translate(0.00 0.00) scale(1.00 1.00)">
<ellipse cx="34213" cy="41142" rx="900" ry="900"  /> 
</g>
<g style="fill:#808000; fill-opacity:0.0; stroke:#808000; stroke-opacity:1.00; stroke-linecap:round; stroke-linejoin:round; stroke-width:4" 
   transform="translate(0.00 0.00) scale(1.00 1.00)">
<ellipse cx="51142" cy="41142" rx="800" ry="800"  /> 
</g>
<g style="fill:#808000; fill-opacity:0.0; stroke:#0000C0; stroke-opacity:1.00; stroke-linecap:round; stroke-linejoin:round; stroke-width:0" 
   transform="translate(0.00 0.00) scale(1.00 1.00)">
<path d="M51140 39942 L51144 39942" /> 
<path d="M51142 39940 L51142 39944" /> 
</g>
<g style="fill:#00A0A0; fill-opacity:0.0; stroke:#00A0A0; stroke-opacity:1.00; stroke-linecap:round; stroke-linejoin:round; stroke-width:150" 
   transform="translate(0.00 0.00) scale(1.00 1.00)">
<ellipse cx="51142" cy="41142" rx="900" ry="900"  /> 
</g>
<g style="fill:#808000; fill-opacity:0.0; stroke:#808000; stroke-opacity:1.00; stroke-linecap:round; stroke-linejoin:round; stroke-width:4" 
   transform="translate(0.00 0.00) scale(1.00 1.00)">
<ellipse cx="51142" cy="58071" rx="800" ry="800"  /> 
</g>
<g style="fill:#808000; fill-opacity:0.0; stroke:#0000C0; stroke-opacity:1.00; stroke-linecap:round; stroke-linejoin:round; stroke-width:0" 
   transform="translate(0.00 0.00) scale(1.00 1.00)">
<path d="M51140 56871 L51144 56871" /> 
<path d="M51142 56869 L51142 56873" /> 
</g>
<g style="fill:#00A0A0; fill-opacity:0.0; stroke:#00A0A0; stroke-opacity:1.00; stroke-linecap:round; stroke-linejoin:round; stroke-width:150" 
   transform="translate(0.00 0.00) scale(1.00 1.00)">
<ellipse cx="51142" cy="58071" rx="900" ry="900"  /> 
</g> 
</svg> 
