<?xml version="1.0" standalone="no"?>
<!DOCTYPE svg PUBLIC "-//W3C//DTD SVG 20010904//EN" 
"http://www.w3.org/TR/2001/REC-SVG-20010904/DTD/svg10.dtd"> 
<svg xmlns="http://www.w3.org/2000/svg" xmlns:xlink="http://www.w3.org/1999/xlink" 
    width="42.00cm" height="29.72cm" viewBox="0 0 165350 117000 "> 
<title>SVG Picture created as N64_USB_FTW-PCB_Edges.svg </title>
<desc>Picture generated by wxSVG v0100 </desc>
<g style="fill:black; stroke:black; stroke-width:1">
</g>
<g style="fill:#FFFF00; fill-opacity:0.0; stroke:#FFFF00; stroke-opacity:1.00; stroke-linecap:round; stroke-linejoin:round; stroke-width:150" 
   transform="translate(0.00 0.00) scale(1.00 1.00)">
<path d="M51378 59449 A1181.00 1181.00 0.0 0 0 52559 58268 L51378 58268 z  " /> 
<path d="M52559 40945 A1181.00 1181.00 0.0 0 0 51378 39764 L51378 40945 z  " /> 
<path d="M32874 58268 A1181.00 1181.00 0.0 0 0 34055 59449 L34055 58268 z  " /> 
<path d="M34055 39764 A1181.00 1181.00 0.0 0 0 32874 40945 L34055 40945 z  " /> 
<path d="M32874 58268 L32874 40945" /> 
<path d="M51378 59449 L34055 59449" /> 
<path d="M52559 40945 L52559 58268" /> 
<path d="M34055 39764 L51378 39764" /> 
</g> 
</svg> 
