G04 (created by PCBNEW-RS274X (2012-01-19 BZR 3256)-stable) date 21-08-2012 21:52:41*
G01*
G70*
G90*
%MOIN*%
G04 Gerber Fmt 3.4, Leading zero omitted, Abs format*
%FSLAX34Y34*%
G04 APERTURE LIST*
%ADD10C,0.006000*%
%ADD11C,0.012000*%
%ADD12C,0.015000*%
%ADD13C,0.000100*%
%ADD14R,0.075000X0.075000*%
%ADD15C,0.075000*%
%ADD16R,0.080000X0.080000*%
%ADD17C,0.080000*%
%ADD18C,0.180000*%
G04 APERTURE END LIST*
G54D10*
G54D11*
X37348Y-56453D02*
X37234Y-56453D01*
X37176Y-56491D01*
X37119Y-56567D01*
X37091Y-56719D01*
X37091Y-56986D01*
X37119Y-57139D01*
X37176Y-57215D01*
X37234Y-57253D01*
X37348Y-57253D01*
X37405Y-57215D01*
X37462Y-57139D01*
X37491Y-56986D01*
X37491Y-56719D01*
X37462Y-56567D01*
X37405Y-56491D01*
X37348Y-56453D01*
X36862Y-57215D02*
X36776Y-57253D01*
X36633Y-57253D01*
X36576Y-57215D01*
X36547Y-57177D01*
X36519Y-57100D01*
X36519Y-57024D01*
X36547Y-56948D01*
X36576Y-56910D01*
X36633Y-56872D01*
X36747Y-56834D01*
X36805Y-56796D01*
X36833Y-56758D01*
X36862Y-56681D01*
X36862Y-56605D01*
X36833Y-56529D01*
X36805Y-56491D01*
X36747Y-56453D01*
X36605Y-56453D01*
X36519Y-56491D01*
X36291Y-57024D02*
X36005Y-57024D01*
X36348Y-57253D02*
X36148Y-56453D01*
X35948Y-57253D01*
X35777Y-57024D02*
X35491Y-57024D01*
X35834Y-57253D02*
X35634Y-56453D01*
X35434Y-57253D01*
X35234Y-57177D02*
X35206Y-57215D01*
X35234Y-57253D01*
X35263Y-57215D01*
X35234Y-57177D01*
X35234Y-57253D01*
X34948Y-57253D02*
X34948Y-56453D01*
X34805Y-56453D01*
X34720Y-56491D01*
X34662Y-56567D01*
X34634Y-56643D01*
X34605Y-56796D01*
X34605Y-56910D01*
X34634Y-57062D01*
X34662Y-57139D01*
X34720Y-57215D01*
X34805Y-57253D01*
X34948Y-57253D01*
X34348Y-57253D02*
X34348Y-56453D01*
X34005Y-57253D02*
X34262Y-56796D01*
X34005Y-56453D02*
X34348Y-56910D01*
X45089Y-58985D02*
X45089Y-58185D01*
X44746Y-58985D01*
X44746Y-58185D01*
X44460Y-58985D02*
X44460Y-58451D01*
X44460Y-58185D02*
X44489Y-58223D01*
X44460Y-58261D01*
X44432Y-58223D01*
X44460Y-58185D01*
X44460Y-58261D01*
X43917Y-58947D02*
X43974Y-58985D01*
X44088Y-58985D01*
X44146Y-58947D01*
X44174Y-58909D01*
X44203Y-58832D01*
X44203Y-58604D01*
X44174Y-58528D01*
X44146Y-58490D01*
X44088Y-58451D01*
X43974Y-58451D01*
X43917Y-58490D01*
X43432Y-58947D02*
X43489Y-58985D01*
X43603Y-58985D01*
X43660Y-58947D01*
X43689Y-58871D01*
X43689Y-58566D01*
X43660Y-58490D01*
X43603Y-58451D01*
X43489Y-58451D01*
X43432Y-58490D01*
X43403Y-58566D01*
X43403Y-58642D01*
X43689Y-58718D01*
X42889Y-58985D02*
X42889Y-58185D01*
X42889Y-58947D02*
X42946Y-58985D01*
X43060Y-58985D01*
X43118Y-58947D01*
X43146Y-58909D01*
X43175Y-58832D01*
X43175Y-58604D01*
X43146Y-58528D01*
X43118Y-58490D01*
X43060Y-58451D01*
X42946Y-58451D01*
X42889Y-58490D01*
X42346Y-58451D02*
X42346Y-58985D01*
X42603Y-58451D02*
X42603Y-58871D01*
X42575Y-58947D01*
X42517Y-58985D01*
X42432Y-58985D01*
X42375Y-58947D01*
X42346Y-58909D01*
X41803Y-58985D02*
X41803Y-58185D01*
X41803Y-58947D02*
X41860Y-58985D01*
X41974Y-58985D01*
X42032Y-58947D01*
X42060Y-58909D01*
X42089Y-58832D01*
X42089Y-58604D01*
X42060Y-58528D01*
X42032Y-58490D01*
X41974Y-58451D01*
X41860Y-58451D01*
X41803Y-58490D01*
X41289Y-58947D02*
X41346Y-58985D01*
X41460Y-58985D01*
X41517Y-58947D01*
X41546Y-58871D01*
X41546Y-58566D01*
X41517Y-58490D01*
X41460Y-58451D01*
X41346Y-58451D01*
X41289Y-58490D01*
X41260Y-58566D01*
X41260Y-58642D01*
X41546Y-58718D01*
X44235Y-57962D02*
X44435Y-57581D01*
X44578Y-57962D02*
X44578Y-57162D01*
X44350Y-57162D01*
X44292Y-57200D01*
X44264Y-57238D01*
X44235Y-57314D01*
X44235Y-57428D01*
X44264Y-57505D01*
X44292Y-57543D01*
X44350Y-57581D01*
X44578Y-57581D01*
X43892Y-57962D02*
X43950Y-57924D01*
X43978Y-57886D01*
X44007Y-57809D01*
X44007Y-57581D01*
X43978Y-57505D01*
X43950Y-57467D01*
X43892Y-57428D01*
X43807Y-57428D01*
X43750Y-57467D01*
X43721Y-57505D01*
X43692Y-57581D01*
X43692Y-57809D01*
X43721Y-57886D01*
X43750Y-57924D01*
X43807Y-57962D01*
X43892Y-57962D01*
X43435Y-57962D02*
X43435Y-57162D01*
X43435Y-57467D02*
X43378Y-57428D01*
X43264Y-57428D01*
X43207Y-57467D01*
X43178Y-57505D01*
X43149Y-57581D01*
X43149Y-57809D01*
X43178Y-57886D01*
X43207Y-57924D01*
X43264Y-57962D01*
X43378Y-57962D01*
X43435Y-57924D01*
X42806Y-57962D02*
X42864Y-57924D01*
X42892Y-57886D01*
X42921Y-57809D01*
X42921Y-57581D01*
X42892Y-57505D01*
X42864Y-57467D01*
X42806Y-57428D01*
X42721Y-57428D01*
X42664Y-57467D01*
X42635Y-57505D01*
X42606Y-57581D01*
X42606Y-57809D01*
X42635Y-57886D01*
X42664Y-57924D01*
X42721Y-57962D01*
X42806Y-57962D01*
X42435Y-57428D02*
X42206Y-57428D01*
X42349Y-57162D02*
X42349Y-57848D01*
X42321Y-57924D01*
X42263Y-57962D01*
X42206Y-57962D01*
X42092Y-57428D02*
X41863Y-57428D01*
X42006Y-57162D02*
X42006Y-57848D01*
X41978Y-57924D01*
X41920Y-57962D01*
X41863Y-57962D01*
X41577Y-57962D02*
X41635Y-57924D01*
X41663Y-57886D01*
X41692Y-57809D01*
X41692Y-57581D01*
X41663Y-57505D01*
X41635Y-57467D01*
X41577Y-57428D01*
X41492Y-57428D01*
X41435Y-57467D01*
X41406Y-57505D01*
X41377Y-57581D01*
X41377Y-57809D01*
X41406Y-57886D01*
X41435Y-57924D01*
X41492Y-57962D01*
X41577Y-57962D01*
X33382Y-42574D02*
X34182Y-42717D01*
X33610Y-42831D01*
X34182Y-42945D01*
X33382Y-43088D01*
X34182Y-43317D02*
X33648Y-43317D01*
X33382Y-43317D02*
X33420Y-43288D01*
X33458Y-43317D01*
X33420Y-43345D01*
X33382Y-43317D01*
X33458Y-43317D01*
X34182Y-43603D02*
X33648Y-43603D01*
X33801Y-43603D02*
X33725Y-43631D01*
X33687Y-43660D01*
X33648Y-43717D01*
X33648Y-43774D01*
X34144Y-44202D02*
X34182Y-44145D01*
X34182Y-44031D01*
X34144Y-43974D01*
X34068Y-43945D01*
X33763Y-43945D01*
X33687Y-43974D01*
X33648Y-44031D01*
X33648Y-44145D01*
X33687Y-44202D01*
X33763Y-44231D01*
X33839Y-44231D01*
X33915Y-43945D01*
X34182Y-44574D02*
X34144Y-44516D01*
X34068Y-44488D01*
X33382Y-44488D01*
X34144Y-45030D02*
X34182Y-44973D01*
X34182Y-44859D01*
X34144Y-44802D01*
X34068Y-44773D01*
X33763Y-44773D01*
X33687Y-44802D01*
X33648Y-44859D01*
X33648Y-44973D01*
X33687Y-45030D01*
X33763Y-45059D01*
X33839Y-45059D01*
X33915Y-44773D01*
X34144Y-45287D02*
X34182Y-45344D01*
X34182Y-45459D01*
X34144Y-45516D01*
X34068Y-45544D01*
X34029Y-45544D01*
X33953Y-45516D01*
X33915Y-45459D01*
X33915Y-45373D01*
X33877Y-45316D01*
X33801Y-45287D01*
X33763Y-45287D01*
X33687Y-45316D01*
X33648Y-45373D01*
X33648Y-45459D01*
X33687Y-45516D01*
X34144Y-45773D02*
X34182Y-45830D01*
X34182Y-45945D01*
X34144Y-46002D01*
X34068Y-46030D01*
X34029Y-46030D01*
X33953Y-46002D01*
X33915Y-45945D01*
X33915Y-45859D01*
X33877Y-45802D01*
X33801Y-45773D01*
X33763Y-45773D01*
X33687Y-45802D01*
X33648Y-45859D01*
X33648Y-45945D01*
X33687Y-46002D01*
X34182Y-46745D02*
X33382Y-46745D01*
X34182Y-47088D01*
X33382Y-47088D01*
X34182Y-47374D02*
X33648Y-47374D01*
X33382Y-47374D02*
X33420Y-47345D01*
X33458Y-47374D01*
X33420Y-47402D01*
X33382Y-47374D01*
X33458Y-47374D01*
X33648Y-47660D02*
X34182Y-47660D01*
X33725Y-47660D02*
X33687Y-47688D01*
X33648Y-47746D01*
X33648Y-47831D01*
X33687Y-47888D01*
X33763Y-47917D01*
X34182Y-47917D01*
X33648Y-48117D02*
X33648Y-48346D01*
X33382Y-48203D02*
X34068Y-48203D01*
X34144Y-48231D01*
X34182Y-48289D01*
X34182Y-48346D01*
X34144Y-48774D02*
X34182Y-48717D01*
X34182Y-48603D01*
X34144Y-48546D01*
X34068Y-48517D01*
X33763Y-48517D01*
X33687Y-48546D01*
X33648Y-48603D01*
X33648Y-48717D01*
X33687Y-48774D01*
X33763Y-48803D01*
X33839Y-48803D01*
X33915Y-48517D01*
X33648Y-49060D02*
X34182Y-49060D01*
X33725Y-49060D02*
X33687Y-49088D01*
X33648Y-49146D01*
X33648Y-49231D01*
X33687Y-49288D01*
X33763Y-49317D01*
X34182Y-49317D01*
X34182Y-49860D02*
X33382Y-49860D01*
X34144Y-49860D02*
X34182Y-49803D01*
X34182Y-49689D01*
X34144Y-49631D01*
X34106Y-49603D01*
X34029Y-49574D01*
X33801Y-49574D01*
X33725Y-49603D01*
X33687Y-49631D01*
X33648Y-49689D01*
X33648Y-49803D01*
X33687Y-49860D01*
X34182Y-50232D02*
X34144Y-50174D01*
X34106Y-50146D01*
X34029Y-50117D01*
X33801Y-50117D01*
X33725Y-50146D01*
X33687Y-50174D01*
X33648Y-50232D01*
X33648Y-50317D01*
X33687Y-50374D01*
X33725Y-50403D01*
X33801Y-50432D01*
X34029Y-50432D01*
X34106Y-50403D01*
X34144Y-50374D01*
X34182Y-50317D01*
X34182Y-50232D01*
X33763Y-51346D02*
X33763Y-51146D01*
X34182Y-51146D02*
X33382Y-51146D01*
X33382Y-51432D01*
X33382Y-51574D02*
X33382Y-51917D01*
X34182Y-51746D02*
X33382Y-51746D01*
X33382Y-52060D02*
X34182Y-52203D01*
X33610Y-52317D01*
X34182Y-52431D01*
X33382Y-52574D01*
X34106Y-52803D02*
X34144Y-52831D01*
X34182Y-52803D01*
X34144Y-52774D01*
X34106Y-52803D01*
X34182Y-52803D01*
X33877Y-52803D02*
X33420Y-52774D01*
X33382Y-52803D01*
X33420Y-52831D01*
X33877Y-52803D01*
X33382Y-52803D01*
G54D12*
X51378Y-59449D02*
X51480Y-59444D01*
X51583Y-59431D01*
X51683Y-59408D01*
X51781Y-59377D01*
X51877Y-59338D01*
X51968Y-59290D01*
X52055Y-59235D01*
X52137Y-59172D01*
X52213Y-59103D01*
X52282Y-59027D01*
X52345Y-58945D01*
X52400Y-58858D01*
X52448Y-58767D01*
X52487Y-58671D01*
X52518Y-58573D01*
X52541Y-58473D01*
X52554Y-58370D01*
X52559Y-58268D01*
X52559Y-40945D02*
X52554Y-40843D01*
X52541Y-40740D01*
X52518Y-40640D01*
X52487Y-40542D01*
X52448Y-40446D01*
X52400Y-40355D01*
X52345Y-40268D01*
X52282Y-40186D01*
X52213Y-40110D01*
X52137Y-40041D01*
X52055Y-39978D01*
X51968Y-39923D01*
X51877Y-39875D01*
X51781Y-39836D01*
X51683Y-39805D01*
X51583Y-39782D01*
X51480Y-39769D01*
X51378Y-39764D01*
X32874Y-58268D02*
X32879Y-58370D01*
X32892Y-58473D01*
X32915Y-58573D01*
X32946Y-58671D01*
X32985Y-58767D01*
X33033Y-58858D01*
X33088Y-58945D01*
X33151Y-59027D01*
X33220Y-59103D01*
X33296Y-59172D01*
X33378Y-59235D01*
X33465Y-59290D01*
X33556Y-59338D01*
X33652Y-59377D01*
X33750Y-59408D01*
X33850Y-59431D01*
X33953Y-59444D01*
X34055Y-59449D01*
X34055Y-39764D02*
X33953Y-39769D01*
X33850Y-39782D01*
X33750Y-39805D01*
X33652Y-39836D01*
X33556Y-39875D01*
X33465Y-39923D01*
X33378Y-39978D01*
X33296Y-40041D01*
X33220Y-40110D01*
X33151Y-40186D01*
X33088Y-40268D01*
X33033Y-40355D01*
X32985Y-40446D01*
X32946Y-40542D01*
X32915Y-40640D01*
X32892Y-40740D01*
X32879Y-40843D01*
X32874Y-40945D01*
X32874Y-58268D02*
X32874Y-40945D01*
X51378Y-59449D02*
X34055Y-59449D01*
X52559Y-40945D02*
X52559Y-58268D01*
X34055Y-39764D02*
X51378Y-39764D01*
G54D13*
G36*
X44860Y-57017D02*
X44835Y-57029D01*
X44799Y-57019D01*
X44703Y-56990D01*
X44551Y-56943D01*
X44348Y-56879D01*
X44098Y-56801D01*
X43805Y-56708D01*
X43472Y-56604D01*
X43105Y-56487D01*
X42706Y-56361D01*
X42281Y-56226D01*
X41833Y-56083D01*
X41366Y-55935D01*
X41210Y-55885D01*
X40738Y-55735D01*
X40283Y-55590D01*
X39849Y-55452D01*
X39442Y-55322D01*
X39063Y-55201D01*
X38719Y-55091D01*
X38413Y-54993D01*
X38148Y-54909D01*
X37929Y-54839D01*
X37760Y-54785D01*
X37646Y-54748D01*
X37589Y-54730D01*
X37584Y-54729D01*
X37596Y-54704D01*
X37650Y-54642D01*
X37739Y-54550D01*
X37855Y-54435D01*
X37991Y-54305D01*
X38138Y-54167D01*
X38290Y-54028D01*
X38439Y-53895D01*
X38577Y-53776D01*
X38583Y-53771D01*
X38674Y-53694D01*
X39148Y-53845D01*
X39340Y-53904D01*
X39478Y-53943D01*
X39573Y-53964D01*
X39634Y-53968D01*
X39670Y-53958D01*
X39675Y-53955D01*
X39719Y-53917D01*
X39800Y-53845D01*
X39910Y-53746D01*
X40040Y-53628D01*
X40181Y-53499D01*
X40326Y-53366D01*
X40466Y-53237D01*
X40593Y-53119D01*
X40698Y-53022D01*
X40772Y-52951D01*
X40808Y-52915D01*
X40810Y-52913D01*
X40803Y-52878D01*
X40785Y-52789D01*
X40757Y-52660D01*
X40723Y-52501D01*
X40708Y-52431D01*
X40672Y-52262D01*
X40643Y-52115D01*
X40623Y-52004D01*
X40615Y-51941D01*
X40616Y-51932D01*
X40626Y-51917D01*
X40652Y-51889D01*
X40698Y-51843D01*
X40769Y-51775D01*
X40870Y-51681D01*
X41005Y-51557D01*
X41179Y-51399D01*
X41396Y-51202D01*
X41486Y-51120D01*
X41773Y-50859D01*
X42683Y-51148D01*
X42918Y-51223D01*
X43133Y-51293D01*
X43319Y-51355D01*
X43467Y-51406D01*
X43571Y-51443D01*
X43620Y-51463D01*
X43623Y-51465D01*
X43637Y-51503D01*
X43663Y-51595D01*
X43697Y-51730D01*
X43738Y-51896D01*
X43782Y-52082D01*
X43828Y-52277D01*
X43871Y-52469D01*
X43911Y-52647D01*
X43943Y-52801D01*
X43966Y-52918D01*
X43977Y-52987D01*
X43978Y-52995D01*
X43955Y-53035D01*
X43891Y-53111D01*
X43795Y-53214D01*
X43676Y-53334D01*
X43609Y-53398D01*
X43239Y-53748D01*
X43416Y-54546D01*
X43593Y-55345D01*
X44066Y-55496D01*
X44234Y-55551D01*
X44378Y-55600D01*
X44487Y-55639D01*
X44550Y-55664D01*
X44560Y-55669D01*
X44573Y-55707D01*
X44598Y-55800D01*
X44631Y-55936D01*
X44671Y-56105D01*
X44711Y-56286D01*
X44754Y-56481D01*
X44793Y-56658D01*
X44826Y-56805D01*
X44849Y-56909D01*
X44860Y-56956D01*
X44860Y-57017D01*
X44860Y-57017D01*
X44860Y-57017D01*
G37*
G36*
X51536Y-51647D02*
X51513Y-51670D01*
X51445Y-51736D01*
X51333Y-51840D01*
X51181Y-51980D01*
X50993Y-52154D01*
X50771Y-52358D01*
X50519Y-52590D01*
X50240Y-52846D01*
X49937Y-53124D01*
X49613Y-53421D01*
X49271Y-53733D01*
X48914Y-54059D01*
X48886Y-54085D01*
X48525Y-54414D01*
X48175Y-54734D01*
X47841Y-55039D01*
X47525Y-55328D01*
X47230Y-55597D01*
X46961Y-55843D01*
X46721Y-56063D01*
X46512Y-56253D01*
X46339Y-56411D01*
X46206Y-56534D01*
X46114Y-56618D01*
X46069Y-56659D01*
X45973Y-56741D01*
X45916Y-56772D01*
X45896Y-56760D01*
X45884Y-56715D01*
X45861Y-56615D01*
X45828Y-56471D01*
X45789Y-56295D01*
X45745Y-56098D01*
X45741Y-56079D01*
X45602Y-55444D01*
X45813Y-55246D01*
X45939Y-55127D01*
X46073Y-55000D01*
X46188Y-54890D01*
X46197Y-54881D01*
X46369Y-54715D01*
X46196Y-53940D01*
X46146Y-53721D01*
X46099Y-53523D01*
X46058Y-53357D01*
X46024Y-53231D01*
X46000Y-53154D01*
X45992Y-53136D01*
X45950Y-53116D01*
X45856Y-53081D01*
X45724Y-53035D01*
X45566Y-52984D01*
X45510Y-52966D01*
X45346Y-52914D01*
X45206Y-52867D01*
X45101Y-52830D01*
X45043Y-52807D01*
X45036Y-52803D01*
X45023Y-52765D01*
X44998Y-52672D01*
X44963Y-52532D01*
X44921Y-52354D01*
X44874Y-52149D01*
X44842Y-52001D01*
X44671Y-51222D01*
X44749Y-51148D01*
X44800Y-51100D01*
X44891Y-51017D01*
X45013Y-50906D01*
X45157Y-50774D01*
X45315Y-50631D01*
X45478Y-50483D01*
X45637Y-50339D01*
X45783Y-50207D01*
X45909Y-50094D01*
X46004Y-50009D01*
X46060Y-49959D01*
X46067Y-49953D01*
X46090Y-49936D01*
X46116Y-49925D01*
X46154Y-49922D01*
X46211Y-49929D01*
X46294Y-49949D01*
X46411Y-49982D01*
X46569Y-50031D01*
X46777Y-50096D01*
X46999Y-50167D01*
X47226Y-50240D01*
X47431Y-50306D01*
X47606Y-50362D01*
X47742Y-50406D01*
X47832Y-50435D01*
X47866Y-50446D01*
X47867Y-50447D01*
X47876Y-50479D01*
X47897Y-50564D01*
X47926Y-50693D01*
X47963Y-50853D01*
X47984Y-50947D01*
X48094Y-51444D01*
X48860Y-51687D01*
X49075Y-51755D01*
X49268Y-51816D01*
X49431Y-51866D01*
X49554Y-51904D01*
X49629Y-51926D01*
X49649Y-51931D01*
X49680Y-51910D01*
X49751Y-51851D01*
X49852Y-51763D01*
X49975Y-51654D01*
X50035Y-51599D01*
X50399Y-51268D01*
X50963Y-51453D01*
X51145Y-51513D01*
X51303Y-51566D01*
X51428Y-51608D01*
X51509Y-51637D01*
X51536Y-51647D01*
X51536Y-51647D01*
X51536Y-51647D01*
G37*
G36*
X41043Y-50050D02*
X41020Y-50081D01*
X40956Y-50148D01*
X40858Y-50244D01*
X40737Y-50362D01*
X40599Y-50494D01*
X40453Y-50631D01*
X40308Y-50767D01*
X40171Y-50892D01*
X40051Y-51000D01*
X39956Y-51083D01*
X39909Y-51121D01*
X39875Y-51134D01*
X39818Y-51131D01*
X39728Y-51112D01*
X39594Y-51075D01*
X39409Y-51016D01*
X39231Y-50959D01*
X39105Y-50921D01*
X39020Y-50901D01*
X38964Y-50896D01*
X38927Y-50904D01*
X38897Y-50924D01*
X38894Y-50926D01*
X38802Y-51005D01*
X38684Y-51110D01*
X38548Y-51234D01*
X38401Y-51368D01*
X38254Y-51505D01*
X38112Y-51637D01*
X37986Y-51757D01*
X37882Y-51857D01*
X37810Y-51929D01*
X37778Y-51966D01*
X37777Y-51968D01*
X37783Y-52011D01*
X37801Y-52104D01*
X37827Y-52231D01*
X37858Y-52376D01*
X37890Y-52524D01*
X37920Y-52660D01*
X37944Y-52767D01*
X37960Y-52831D01*
X37962Y-52835D01*
X37949Y-52873D01*
X37893Y-52943D01*
X37794Y-53047D01*
X37648Y-53188D01*
X37452Y-53369D01*
X37294Y-53513D01*
X37149Y-53644D01*
X37027Y-53753D01*
X36936Y-53835D01*
X36883Y-53881D01*
X36876Y-53887D01*
X36867Y-53887D01*
X36855Y-53872D01*
X36841Y-53839D01*
X36822Y-53784D01*
X36799Y-53705D01*
X36771Y-53597D01*
X36736Y-53457D01*
X36694Y-53283D01*
X36645Y-53070D01*
X36586Y-52815D01*
X36519Y-52516D01*
X36441Y-52169D01*
X36352Y-51769D01*
X36252Y-51315D01*
X36139Y-50803D01*
X36012Y-50229D01*
X36003Y-50187D01*
X35896Y-49700D01*
X35793Y-49231D01*
X35695Y-48784D01*
X35603Y-48364D01*
X35518Y-47975D01*
X35441Y-47620D01*
X35372Y-47305D01*
X35313Y-47032D01*
X35264Y-46806D01*
X35226Y-46631D01*
X35201Y-46512D01*
X35188Y-46451D01*
X35187Y-46445D01*
X35225Y-46450D01*
X35314Y-46475D01*
X35442Y-46516D01*
X35600Y-46568D01*
X35775Y-46628D01*
X35957Y-46691D01*
X36134Y-46755D01*
X36295Y-46814D01*
X36429Y-46866D01*
X36525Y-46905D01*
X36571Y-46929D01*
X36574Y-46931D01*
X36589Y-46981D01*
X36615Y-47082D01*
X36647Y-47222D01*
X36683Y-47386D01*
X36693Y-47431D01*
X36727Y-47595D01*
X36757Y-47734D01*
X36780Y-47835D01*
X36792Y-47887D01*
X36794Y-47891D01*
X36826Y-47903D01*
X36913Y-47932D01*
X37047Y-47976D01*
X37218Y-48032D01*
X37417Y-48096D01*
X37580Y-48148D01*
X38359Y-48395D01*
X38460Y-48303D01*
X38526Y-48242D01*
X38627Y-48150D01*
X38746Y-48041D01*
X38836Y-47959D01*
X39111Y-47707D01*
X39865Y-47951D01*
X40077Y-48021D01*
X40268Y-48084D01*
X40428Y-48138D01*
X40548Y-48179D01*
X40620Y-48205D01*
X40636Y-48213D01*
X40647Y-48248D01*
X40670Y-48339D01*
X40702Y-48474D01*
X40741Y-48644D01*
X40785Y-48838D01*
X40832Y-49046D01*
X40879Y-49259D01*
X40924Y-49466D01*
X40965Y-49656D01*
X40999Y-49820D01*
X41025Y-49948D01*
X41040Y-50028D01*
X41043Y-50050D01*
X41043Y-50050D01*
X41043Y-50050D01*
G37*
G36*
X51870Y-50609D02*
X51839Y-50629D01*
X51793Y-50617D01*
X51696Y-50588D01*
X51560Y-50544D01*
X51396Y-50490D01*
X51287Y-50454D01*
X51115Y-50394D01*
X50965Y-50341D01*
X50849Y-50298D01*
X50778Y-50270D01*
X50762Y-50262D01*
X50748Y-50224D01*
X50724Y-50133D01*
X50691Y-50000D01*
X50653Y-49837D01*
X50632Y-49747D01*
X50586Y-49552D01*
X50543Y-49395D01*
X50507Y-49284D01*
X50479Y-49228D01*
X50474Y-49224D01*
X50430Y-49207D01*
X50331Y-49172D01*
X50189Y-49125D01*
X50011Y-49067D01*
X49809Y-49002D01*
X49695Y-48966D01*
X49461Y-48892D01*
X49281Y-48837D01*
X49149Y-48798D01*
X49054Y-48775D01*
X48989Y-48764D01*
X48946Y-48765D01*
X48915Y-48775D01*
X48890Y-48791D01*
X48838Y-48835D01*
X48749Y-48913D01*
X48635Y-49016D01*
X48509Y-49132D01*
X48494Y-49145D01*
X48173Y-49442D01*
X47300Y-49160D01*
X46428Y-48878D01*
X46238Y-48029D01*
X46186Y-47795D01*
X46138Y-47578D01*
X46096Y-47387D01*
X46062Y-47232D01*
X46038Y-47124D01*
X46029Y-47077D01*
X46024Y-47041D01*
X46029Y-47006D01*
X46050Y-46965D01*
X46093Y-46911D01*
X46163Y-46838D01*
X46267Y-46740D01*
X46409Y-46608D01*
X46551Y-46479D01*
X46718Y-46327D01*
X46875Y-46184D01*
X47015Y-46056D01*
X47126Y-45954D01*
X47200Y-45886D01*
X47214Y-45873D01*
X47335Y-45759D01*
X47824Y-45914D01*
X47996Y-45967D01*
X48148Y-46011D01*
X48267Y-46042D01*
X48341Y-46058D01*
X48358Y-46058D01*
X48390Y-46035D01*
X48462Y-45976D01*
X48567Y-45886D01*
X48695Y-45775D01*
X48839Y-45649D01*
X48990Y-45516D01*
X49140Y-45383D01*
X49280Y-45258D01*
X49402Y-45147D01*
X49498Y-45059D01*
X49558Y-45001D01*
X49577Y-44981D01*
X49570Y-44948D01*
X49550Y-44862D01*
X49521Y-44732D01*
X49485Y-44572D01*
X49460Y-44462D01*
X49343Y-43948D01*
X49501Y-43802D01*
X49710Y-43610D01*
X49875Y-43459D01*
X50001Y-43344D01*
X50095Y-43263D01*
X50160Y-43209D01*
X50204Y-43180D01*
X50230Y-43171D01*
X50244Y-43178D01*
X50252Y-43196D01*
X50254Y-43206D01*
X50264Y-43248D01*
X50287Y-43350D01*
X50321Y-43507D01*
X50367Y-43713D01*
X50422Y-43965D01*
X50486Y-44256D01*
X50558Y-44581D01*
X50636Y-44936D01*
X50720Y-45315D01*
X50807Y-45714D01*
X50898Y-46126D01*
X50991Y-46548D01*
X51084Y-46973D01*
X51177Y-47398D01*
X51269Y-47816D01*
X51359Y-48222D01*
X51444Y-48612D01*
X51525Y-48981D01*
X51600Y-49322D01*
X51668Y-49632D01*
X51728Y-49905D01*
X51778Y-50136D01*
X51819Y-50320D01*
X51847Y-50452D01*
X51863Y-50526D01*
X51866Y-50540D01*
X51870Y-50609D01*
X51870Y-50609D01*
X51870Y-50609D01*
G37*
G36*
X42403Y-45833D02*
X42215Y-46009D01*
X42141Y-46077D01*
X42067Y-46146D01*
X41985Y-46222D01*
X41887Y-46312D01*
X41766Y-46423D01*
X41615Y-46561D01*
X41427Y-46732D01*
X41277Y-46870D01*
X40927Y-47189D01*
X40193Y-46954D01*
X39985Y-46888D01*
X39798Y-46828D01*
X39644Y-46778D01*
X39530Y-46741D01*
X39465Y-46720D01*
X39453Y-46716D01*
X39444Y-46684D01*
X39424Y-46598D01*
X39393Y-46470D01*
X39357Y-46309D01*
X39333Y-46205D01*
X39294Y-46030D01*
X39258Y-45880D01*
X39230Y-45766D01*
X39212Y-45698D01*
X39206Y-45686D01*
X39171Y-45672D01*
X39084Y-45642D01*
X38953Y-45600D01*
X38792Y-45548D01*
X38610Y-45490D01*
X38418Y-45429D01*
X38227Y-45369D01*
X38047Y-45313D01*
X37890Y-45264D01*
X37766Y-45227D01*
X37686Y-45204D01*
X37662Y-45198D01*
X37629Y-45219D01*
X37557Y-45279D01*
X37455Y-45368D01*
X37331Y-45480D01*
X37264Y-45542D01*
X36893Y-45886D01*
X36214Y-45667D01*
X36014Y-45601D01*
X35837Y-45541D01*
X35692Y-45491D01*
X35588Y-45452D01*
X35536Y-45429D01*
X35531Y-45425D01*
X35554Y-45399D01*
X35623Y-45331D01*
X35733Y-45226D01*
X35882Y-45087D01*
X36064Y-44917D01*
X36278Y-44720D01*
X36518Y-44499D01*
X36781Y-44258D01*
X37063Y-44000D01*
X37361Y-43728D01*
X37671Y-43445D01*
X37989Y-43156D01*
X38310Y-42864D01*
X38633Y-42571D01*
X38952Y-42282D01*
X39264Y-42000D01*
X39565Y-41728D01*
X39852Y-41470D01*
X40121Y-41228D01*
X40367Y-41008D01*
X40588Y-40811D01*
X40779Y-40641D01*
X40936Y-40502D01*
X41057Y-40398D01*
X41137Y-40330D01*
X41172Y-40304D01*
X41173Y-40304D01*
X41184Y-40348D01*
X41208Y-40446D01*
X41241Y-40588D01*
X41281Y-40762D01*
X41325Y-40959D01*
X41330Y-40979D01*
X41473Y-41615D01*
X41366Y-41715D01*
X41296Y-41779D01*
X41193Y-41874D01*
X41072Y-41985D01*
X40985Y-42065D01*
X40712Y-42315D01*
X40886Y-43104D01*
X40935Y-43324D01*
X40980Y-43522D01*
X41019Y-43688D01*
X41050Y-43814D01*
X41070Y-43891D01*
X41077Y-43910D01*
X41113Y-43925D01*
X41201Y-43957D01*
X41330Y-44001D01*
X41487Y-44052D01*
X41559Y-44076D01*
X41767Y-44145D01*
X41914Y-44201D01*
X42006Y-44246D01*
X42048Y-44282D01*
X42050Y-44286D01*
X42064Y-44336D01*
X42091Y-44440D01*
X42126Y-44589D01*
X42168Y-44773D01*
X42215Y-44981D01*
X42239Y-45090D01*
X42403Y-45833D01*
X42403Y-45833D01*
X42403Y-45833D01*
G37*
G36*
X49507Y-42362D02*
X49483Y-42390D01*
X49417Y-42453D01*
X49321Y-42542D01*
X49204Y-42648D01*
X49076Y-42763D01*
X48947Y-42877D01*
X48826Y-42983D01*
X48724Y-43070D01*
X48650Y-43132D01*
X48614Y-43158D01*
X48613Y-43158D01*
X48571Y-43152D01*
X48478Y-43130D01*
X48347Y-43093D01*
X48191Y-43046D01*
X48150Y-43033D01*
X47988Y-42983D01*
X47848Y-42942D01*
X47742Y-42912D01*
X47683Y-42898D01*
X47677Y-42898D01*
X47641Y-42919D01*
X47564Y-42979D01*
X47455Y-43071D01*
X47321Y-43187D01*
X47171Y-43322D01*
X47151Y-43340D01*
X46993Y-43483D01*
X46845Y-43618D01*
X46715Y-43735D01*
X46615Y-43826D01*
X46554Y-43881D01*
X46553Y-43881D01*
X46440Y-43981D01*
X46545Y-44441D01*
X46581Y-44610D01*
X46610Y-44758D01*
X46628Y-44871D01*
X46633Y-44937D01*
X46632Y-44946D01*
X46602Y-44982D01*
X46532Y-45054D01*
X46427Y-45155D01*
X46296Y-45278D01*
X46148Y-45415D01*
X45990Y-45560D01*
X45829Y-45706D01*
X45675Y-45844D01*
X45534Y-45968D01*
X45416Y-46071D01*
X45327Y-46145D01*
X45275Y-46183D01*
X45268Y-46187D01*
X45226Y-46178D01*
X45130Y-46152D01*
X44987Y-46109D01*
X44807Y-46054D01*
X44597Y-45988D01*
X44365Y-45915D01*
X44328Y-45903D01*
X43429Y-45613D01*
X43252Y-44814D01*
X43075Y-44015D01*
X43201Y-43898D01*
X43281Y-43824D01*
X43393Y-43722D01*
X43517Y-43607D01*
X43584Y-43546D01*
X43842Y-43310D01*
X43667Y-42512D01*
X43492Y-41715D01*
X42992Y-41548D01*
X42493Y-41381D01*
X42348Y-40721D01*
X42305Y-40521D01*
X42268Y-40343D01*
X42240Y-40198D01*
X42223Y-40096D01*
X42218Y-40047D01*
X42219Y-40045D01*
X42252Y-40052D01*
X42344Y-40079D01*
X42489Y-40122D01*
X42683Y-40182D01*
X42922Y-40256D01*
X43199Y-40342D01*
X43511Y-40440D01*
X43852Y-40547D01*
X44218Y-40662D01*
X44604Y-40784D01*
X45004Y-40911D01*
X45415Y-41041D01*
X45831Y-41173D01*
X46247Y-41305D01*
X46659Y-41437D01*
X47061Y-41565D01*
X47449Y-41689D01*
X47818Y-41808D01*
X48164Y-41919D01*
X48481Y-42021D01*
X48764Y-42113D01*
X49008Y-42193D01*
X49210Y-42259D01*
X49363Y-42310D01*
X49464Y-42345D01*
X49506Y-42361D01*
X49507Y-42362D01*
X49507Y-42362D01*
X49507Y-42362D01*
G37*
G54D11*
%LPC*%
G54D14*
X51575Y-49484D03*
G54D15*
X51575Y-50484D03*
X51575Y-51484D03*
X51575Y-52484D03*
G54D16*
X46878Y-58299D03*
G54D17*
X45878Y-58299D03*
X46878Y-57299D03*
X45878Y-57299D03*
X46878Y-56299D03*
X45878Y-56299D03*
X46878Y-55299D03*
X45878Y-55299D03*
X46878Y-54299D03*
X45878Y-54299D03*
G54D16*
X50484Y-55496D03*
G54D17*
X51484Y-55496D03*
X50484Y-56496D03*
X51484Y-56496D03*
X50484Y-57496D03*
X51484Y-57496D03*
G54D14*
X46453Y-43531D03*
G54D15*
X46453Y-44531D03*
X46453Y-45531D03*
X46453Y-46531D03*
X46453Y-47531D03*
X46453Y-48531D03*
X46453Y-49531D03*
X46453Y-50531D03*
X46453Y-51531D03*
X46453Y-52531D03*
X49453Y-52531D03*
X49453Y-51531D03*
X49453Y-50531D03*
X49453Y-49531D03*
X49453Y-48531D03*
X49453Y-47531D03*
X49453Y-46531D03*
X49453Y-45531D03*
X49453Y-44531D03*
X49453Y-43531D03*
G54D14*
X51575Y-45457D03*
G54D15*
X51575Y-46457D03*
X51575Y-47457D03*
G54D18*
X34882Y-41378D03*
X51103Y-41378D03*
X40197Y-57795D03*
M02*
