G04 (created by PCBNEW-RS274X (2012-01-19 BZR 3256)-stable) date 21-08-2012 21:52:41*
G01*
G70*
G90*
%MOIN*%
G04 Gerber Fmt 3.4, Leading zero omitted, Abs format*
%FSLAX34Y34*%
G04 APERTURE LIST*
%ADD10C,0.006000*%
%ADD11C,0.012000*%
%ADD12C,0.015000*%
%ADD13C,0.005000*%
%ADD14C,0.008000*%
%ADD15C,0.003000*%
%ADD16C,0.003500*%
%ADD17C,0.010000*%
%ADD18C,0.010700*%
%ADD19C,0.011300*%
%ADD20C,0.010600*%
%ADD21C,0.006200*%
%ADD22R,0.098700X0.037700*%
%ADD23R,0.037700X0.098700*%
%ADD24R,0.047600X0.059400*%
%ADD25R,0.164000X0.100000*%
%ADD26R,0.060000X0.100000*%
%ADD27R,0.055000X0.075000*%
%ADD28R,0.075000X0.055000*%
%ADD29R,0.118400X0.039600*%
%ADD30R,0.118400X0.098700*%
%ADD31C,0.075400*%
%ADD32R,0.075000X0.075000*%
%ADD33C,0.075000*%
%ADD34R,0.080000X0.080000*%
%ADD35C,0.080000*%
%ADD36R,0.035700X0.043600*%
%ADD37C,0.180000*%
%ADD38R,0.106600X0.075100*%
G04 APERTURE END LIST*
G54D10*
G54D11*
X47559Y-58988D02*
X47587Y-59026D01*
X47559Y-59064D01*
X47530Y-59026D01*
X47559Y-58988D01*
X47559Y-59064D01*
X49764Y-54776D02*
X49792Y-54814D01*
X49764Y-54852D01*
X49735Y-54814D01*
X49764Y-54776D01*
X49764Y-54852D01*
G54D12*
X51378Y-59449D02*
X51480Y-59444D01*
X51583Y-59431D01*
X51683Y-59408D01*
X51781Y-59377D01*
X51877Y-59338D01*
X51968Y-59290D01*
X52055Y-59235D01*
X52137Y-59172D01*
X52213Y-59103D01*
X52282Y-59027D01*
X52345Y-58945D01*
X52400Y-58858D01*
X52448Y-58767D01*
X52487Y-58671D01*
X52518Y-58573D01*
X52541Y-58473D01*
X52554Y-58370D01*
X52559Y-58268D01*
X52559Y-40945D02*
X52554Y-40843D01*
X52541Y-40740D01*
X52518Y-40640D01*
X52487Y-40542D01*
X52448Y-40446D01*
X52400Y-40355D01*
X52345Y-40268D01*
X52282Y-40186D01*
X52213Y-40110D01*
X52137Y-40041D01*
X52055Y-39978D01*
X51968Y-39923D01*
X51877Y-39875D01*
X51781Y-39836D01*
X51683Y-39805D01*
X51583Y-39782D01*
X51480Y-39769D01*
X51378Y-39764D01*
X32874Y-58268D02*
X32879Y-58370D01*
X32892Y-58473D01*
X32915Y-58573D01*
X32946Y-58671D01*
X32985Y-58767D01*
X33033Y-58858D01*
X33088Y-58945D01*
X33151Y-59027D01*
X33220Y-59103D01*
X33296Y-59172D01*
X33378Y-59235D01*
X33465Y-59290D01*
X33556Y-59338D01*
X33652Y-59377D01*
X33750Y-59408D01*
X33850Y-59431D01*
X33953Y-59444D01*
X34055Y-59449D01*
X34055Y-39764D02*
X33953Y-39769D01*
X33850Y-39782D01*
X33750Y-39805D01*
X33652Y-39836D01*
X33556Y-39875D01*
X33465Y-39923D01*
X33378Y-39978D01*
X33296Y-40041D01*
X33220Y-40110D01*
X33151Y-40186D01*
X33088Y-40268D01*
X33033Y-40355D01*
X32985Y-40446D01*
X32946Y-40542D01*
X32915Y-40640D01*
X32892Y-40740D01*
X32879Y-40843D01*
X32874Y-40945D01*
X32874Y-58268D02*
X32874Y-40945D01*
X51378Y-59449D02*
X34055Y-59449D01*
X52559Y-40945D02*
X52559Y-58268D01*
X34055Y-39764D02*
X51378Y-39764D01*
G54D10*
X36997Y-48319D02*
X37447Y-48319D01*
X36997Y-50499D02*
X37437Y-50499D01*
X36997Y-48319D02*
X36997Y-50499D01*
X37877Y-47849D02*
X37877Y-47419D01*
X40087Y-47839D02*
X40087Y-47419D01*
X40097Y-47419D02*
X37877Y-47409D01*
X40077Y-51389D02*
X37907Y-51399D01*
X40507Y-50699D02*
X40507Y-47869D01*
X37897Y-51389D02*
X37897Y-50979D01*
X40257Y-50939D02*
X37477Y-50939D01*
X37457Y-47859D02*
X37457Y-50899D01*
X40507Y-47859D02*
X37507Y-47859D01*
X40957Y-50529D02*
X40957Y-48309D01*
X40957Y-48309D02*
X40507Y-48309D01*
X40503Y-50709D02*
X40273Y-50939D01*
X40955Y-50529D02*
X40503Y-50529D01*
X40077Y-50939D02*
X40077Y-51391D01*
X40283Y-50535D02*
X40279Y-50571D01*
X40268Y-50606D01*
X40251Y-50639D01*
X40228Y-50667D01*
X40200Y-50690D01*
X40167Y-50708D01*
X40132Y-50719D01*
X40096Y-50722D01*
X40060Y-50719D01*
X40025Y-50709D01*
X39993Y-50692D01*
X39964Y-50669D01*
X39940Y-50641D01*
X39923Y-50609D01*
X39912Y-50574D01*
X39908Y-50537D01*
X39911Y-50502D01*
X39921Y-50466D01*
X39937Y-50434D01*
X39960Y-50405D01*
X39988Y-50381D01*
X40020Y-50363D01*
X40055Y-50352D01*
X40092Y-50348D01*
X40127Y-50350D01*
X40162Y-50360D01*
X40195Y-50377D01*
X40224Y-50399D01*
X40248Y-50427D01*
X40266Y-50459D01*
X40278Y-50494D01*
X40282Y-50530D01*
X40283Y-50535D01*
G54D13*
X37129Y-52298D02*
X37429Y-52498D01*
X36429Y-52298D02*
X37454Y-52298D01*
X37454Y-52298D02*
X37454Y-52898D01*
X37454Y-52898D02*
X36429Y-52898D01*
X36429Y-52898D02*
X36429Y-52298D01*
X35239Y-52298D02*
X35539Y-52498D01*
X34539Y-52298D02*
X35564Y-52298D01*
X35564Y-52298D02*
X35564Y-52898D01*
X35564Y-52898D02*
X34539Y-52898D01*
X34539Y-52898D02*
X34539Y-52298D01*
G54D14*
X37381Y-42805D02*
X37381Y-44005D01*
X37381Y-44005D02*
X40181Y-44005D01*
X40181Y-44005D02*
X40181Y-42805D01*
X37381Y-41605D02*
X37381Y-41305D01*
X37381Y-41305D02*
X37981Y-40405D01*
X37981Y-40405D02*
X39581Y-40405D01*
X39581Y-40405D02*
X40181Y-41305D01*
X40181Y-41305D02*
X40181Y-41605D01*
G54D13*
X36173Y-45133D02*
X36172Y-45142D01*
X36169Y-45152D01*
X36164Y-45160D01*
X36158Y-45168D01*
X36150Y-45174D01*
X36142Y-45179D01*
X36133Y-45181D01*
X36123Y-45182D01*
X36114Y-45182D01*
X36105Y-45179D01*
X36096Y-45174D01*
X36089Y-45168D01*
X36082Y-45161D01*
X36078Y-45152D01*
X36075Y-45143D01*
X36074Y-45133D01*
X36074Y-45124D01*
X36077Y-45115D01*
X36081Y-45106D01*
X36088Y-45099D01*
X36095Y-45092D01*
X36103Y-45088D01*
X36113Y-45085D01*
X36122Y-45084D01*
X36131Y-45084D01*
X36141Y-45087D01*
X36149Y-45091D01*
X36157Y-45097D01*
X36163Y-45105D01*
X36168Y-45113D01*
X36171Y-45122D01*
X36172Y-45132D01*
X36173Y-45133D01*
X35673Y-45133D02*
X36073Y-45133D01*
X36073Y-45133D02*
X36073Y-45733D01*
X36073Y-45733D02*
X35673Y-45733D01*
X35273Y-45733D02*
X34873Y-45733D01*
X34873Y-45733D02*
X34873Y-45133D01*
X34873Y-45133D02*
X35273Y-45133D01*
X36172Y-46039D02*
X36171Y-46048D01*
X36168Y-46058D01*
X36163Y-46066D01*
X36157Y-46074D01*
X36149Y-46080D01*
X36141Y-46085D01*
X36132Y-46087D01*
X36122Y-46088D01*
X36113Y-46088D01*
X36104Y-46085D01*
X36095Y-46080D01*
X36088Y-46074D01*
X36081Y-46067D01*
X36077Y-46058D01*
X36074Y-46049D01*
X36073Y-46039D01*
X36073Y-46030D01*
X36076Y-46021D01*
X36080Y-46012D01*
X36087Y-46005D01*
X36094Y-45998D01*
X36102Y-45994D01*
X36112Y-45991D01*
X36121Y-45990D01*
X36130Y-45990D01*
X36140Y-45993D01*
X36148Y-45997D01*
X36156Y-46003D01*
X36162Y-46011D01*
X36167Y-46019D01*
X36170Y-46028D01*
X36171Y-46038D01*
X36172Y-46039D01*
X35672Y-46039D02*
X36072Y-46039D01*
X36072Y-46039D02*
X36072Y-46639D01*
X36072Y-46639D02*
X35672Y-46639D01*
X35272Y-46639D02*
X34872Y-46639D01*
X34872Y-46639D02*
X34872Y-46039D01*
X34872Y-46039D02*
X35272Y-46039D01*
X39917Y-53406D02*
X39916Y-53415D01*
X39913Y-53425D01*
X39908Y-53433D01*
X39902Y-53441D01*
X39894Y-53447D01*
X39886Y-53452D01*
X39877Y-53454D01*
X39867Y-53455D01*
X39858Y-53455D01*
X39849Y-53452D01*
X39840Y-53447D01*
X39833Y-53441D01*
X39826Y-53434D01*
X39822Y-53425D01*
X39819Y-53416D01*
X39818Y-53406D01*
X39818Y-53397D01*
X39821Y-53388D01*
X39825Y-53379D01*
X39832Y-53372D01*
X39839Y-53365D01*
X39847Y-53361D01*
X39857Y-53358D01*
X39866Y-53357D01*
X39875Y-53357D01*
X39885Y-53360D01*
X39893Y-53364D01*
X39901Y-53370D01*
X39907Y-53378D01*
X39912Y-53386D01*
X39915Y-53395D01*
X39916Y-53405D01*
X39917Y-53406D01*
X39867Y-52956D02*
X39867Y-53356D01*
X39867Y-53356D02*
X39267Y-53356D01*
X39267Y-53356D02*
X39267Y-52956D01*
X39267Y-52556D02*
X39267Y-52156D01*
X39267Y-52156D02*
X39867Y-52156D01*
X39867Y-52156D02*
X39867Y-52556D01*
X40901Y-53406D02*
X40900Y-53415D01*
X40897Y-53425D01*
X40892Y-53433D01*
X40886Y-53441D01*
X40878Y-53447D01*
X40870Y-53452D01*
X40861Y-53454D01*
X40851Y-53455D01*
X40842Y-53455D01*
X40833Y-53452D01*
X40824Y-53447D01*
X40817Y-53441D01*
X40810Y-53434D01*
X40806Y-53425D01*
X40803Y-53416D01*
X40802Y-53406D01*
X40802Y-53397D01*
X40805Y-53388D01*
X40809Y-53379D01*
X40816Y-53372D01*
X40823Y-53365D01*
X40831Y-53361D01*
X40841Y-53358D01*
X40850Y-53357D01*
X40859Y-53357D01*
X40869Y-53360D01*
X40877Y-53364D01*
X40885Y-53370D01*
X40891Y-53378D01*
X40896Y-53386D01*
X40899Y-53395D01*
X40900Y-53405D01*
X40901Y-53406D01*
X40851Y-52956D02*
X40851Y-53356D01*
X40851Y-53356D02*
X40251Y-53356D01*
X40251Y-53356D02*
X40251Y-52956D01*
X40251Y-52556D02*
X40251Y-52156D01*
X40251Y-52156D02*
X40851Y-52156D01*
X40851Y-52156D02*
X40851Y-52556D01*
X42270Y-49842D02*
X42269Y-49851D01*
X42266Y-49861D01*
X42261Y-49869D01*
X42255Y-49877D01*
X42247Y-49883D01*
X42239Y-49888D01*
X42230Y-49890D01*
X42220Y-49891D01*
X42211Y-49891D01*
X42202Y-49888D01*
X42193Y-49883D01*
X42186Y-49877D01*
X42179Y-49870D01*
X42175Y-49861D01*
X42172Y-49852D01*
X42171Y-49842D01*
X42171Y-49833D01*
X42174Y-49824D01*
X42178Y-49815D01*
X42185Y-49808D01*
X42192Y-49801D01*
X42200Y-49797D01*
X42210Y-49794D01*
X42219Y-49793D01*
X42228Y-49793D01*
X42238Y-49796D01*
X42246Y-49800D01*
X42254Y-49806D01*
X42260Y-49814D01*
X42265Y-49822D01*
X42268Y-49831D01*
X42269Y-49841D01*
X42270Y-49842D01*
X42220Y-50292D02*
X42220Y-49892D01*
X42220Y-49892D02*
X42820Y-49892D01*
X42820Y-49892D02*
X42820Y-50292D01*
X42820Y-50692D02*
X42820Y-51092D01*
X42820Y-51092D02*
X42220Y-51092D01*
X42220Y-51092D02*
X42220Y-50692D01*
X50941Y-47107D02*
X50940Y-47116D01*
X50937Y-47126D01*
X50932Y-47134D01*
X50926Y-47142D01*
X50918Y-47148D01*
X50910Y-47153D01*
X50901Y-47155D01*
X50891Y-47156D01*
X50882Y-47156D01*
X50873Y-47153D01*
X50864Y-47148D01*
X50857Y-47142D01*
X50850Y-47135D01*
X50846Y-47126D01*
X50843Y-47117D01*
X50842Y-47107D01*
X50842Y-47098D01*
X50845Y-47089D01*
X50849Y-47080D01*
X50856Y-47073D01*
X50863Y-47066D01*
X50871Y-47062D01*
X50881Y-47059D01*
X50890Y-47058D01*
X50899Y-47058D01*
X50909Y-47061D01*
X50917Y-47065D01*
X50925Y-47071D01*
X50931Y-47079D01*
X50936Y-47087D01*
X50939Y-47096D01*
X50940Y-47106D01*
X50941Y-47107D01*
X50891Y-46657D02*
X50891Y-47057D01*
X50891Y-47057D02*
X50291Y-47057D01*
X50291Y-47057D02*
X50291Y-46657D01*
X50291Y-46257D02*
X50291Y-45857D01*
X50291Y-45857D02*
X50891Y-45857D01*
X50891Y-45857D02*
X50891Y-46257D01*
X45390Y-46083D02*
X45389Y-46092D01*
X45386Y-46102D01*
X45381Y-46110D01*
X45375Y-46118D01*
X45367Y-46124D01*
X45359Y-46129D01*
X45350Y-46131D01*
X45340Y-46132D01*
X45331Y-46132D01*
X45322Y-46129D01*
X45313Y-46124D01*
X45306Y-46118D01*
X45299Y-46111D01*
X45295Y-46102D01*
X45292Y-46093D01*
X45291Y-46083D01*
X45291Y-46074D01*
X45294Y-46065D01*
X45298Y-46056D01*
X45305Y-46049D01*
X45312Y-46042D01*
X45320Y-46038D01*
X45330Y-46035D01*
X45339Y-46034D01*
X45348Y-46034D01*
X45358Y-46037D01*
X45366Y-46041D01*
X45374Y-46047D01*
X45380Y-46055D01*
X45385Y-46063D01*
X45388Y-46072D01*
X45389Y-46082D01*
X45390Y-46083D01*
X45340Y-45633D02*
X45340Y-46033D01*
X45340Y-46033D02*
X44740Y-46033D01*
X44740Y-46033D02*
X44740Y-45633D01*
X44740Y-45233D02*
X44740Y-44833D01*
X44740Y-44833D02*
X45340Y-44833D01*
X45340Y-44833D02*
X45340Y-45233D01*
X40104Y-45019D02*
X40103Y-45028D01*
X40100Y-45038D01*
X40095Y-45046D01*
X40089Y-45054D01*
X40081Y-45060D01*
X40073Y-45065D01*
X40064Y-45067D01*
X40054Y-45068D01*
X40045Y-45068D01*
X40036Y-45065D01*
X40027Y-45060D01*
X40020Y-45054D01*
X40013Y-45047D01*
X40009Y-45038D01*
X40006Y-45029D01*
X40005Y-45019D01*
X40005Y-45010D01*
X40008Y-45001D01*
X40012Y-44992D01*
X40019Y-44985D01*
X40026Y-44978D01*
X40034Y-44974D01*
X40044Y-44971D01*
X40053Y-44970D01*
X40062Y-44970D01*
X40072Y-44973D01*
X40080Y-44977D01*
X40088Y-44983D01*
X40094Y-44991D01*
X40099Y-44999D01*
X40102Y-45008D01*
X40103Y-45018D01*
X40104Y-45019D01*
X40054Y-45469D02*
X40054Y-45069D01*
X40054Y-45069D02*
X40654Y-45069D01*
X40654Y-45069D02*
X40654Y-45469D01*
X40654Y-45869D02*
X40654Y-46269D01*
X40654Y-46269D02*
X40054Y-46269D01*
X40054Y-46269D02*
X40054Y-45869D01*
X36405Y-42736D02*
X36404Y-42745D01*
X36401Y-42755D01*
X36396Y-42763D01*
X36390Y-42771D01*
X36382Y-42777D01*
X36374Y-42782D01*
X36365Y-42784D01*
X36355Y-42785D01*
X36346Y-42785D01*
X36337Y-42782D01*
X36328Y-42777D01*
X36321Y-42771D01*
X36314Y-42764D01*
X36310Y-42755D01*
X36307Y-42746D01*
X36306Y-42736D01*
X36306Y-42727D01*
X36309Y-42718D01*
X36313Y-42709D01*
X36320Y-42702D01*
X36327Y-42695D01*
X36335Y-42691D01*
X36345Y-42688D01*
X36354Y-42687D01*
X36363Y-42687D01*
X36373Y-42690D01*
X36381Y-42694D01*
X36389Y-42700D01*
X36395Y-42708D01*
X36400Y-42716D01*
X36403Y-42725D01*
X36404Y-42735D01*
X36405Y-42736D01*
X36355Y-43186D02*
X36355Y-42786D01*
X36355Y-42786D02*
X36955Y-42786D01*
X36955Y-42786D02*
X36955Y-43186D01*
X36955Y-43586D02*
X36955Y-43986D01*
X36955Y-43986D02*
X36355Y-43986D01*
X36355Y-43986D02*
X36355Y-43586D01*
X36405Y-41240D02*
X36404Y-41249D01*
X36401Y-41259D01*
X36396Y-41267D01*
X36390Y-41275D01*
X36382Y-41281D01*
X36374Y-41286D01*
X36365Y-41288D01*
X36355Y-41289D01*
X36346Y-41289D01*
X36337Y-41286D01*
X36328Y-41281D01*
X36321Y-41275D01*
X36314Y-41268D01*
X36310Y-41259D01*
X36307Y-41250D01*
X36306Y-41240D01*
X36306Y-41231D01*
X36309Y-41222D01*
X36313Y-41213D01*
X36320Y-41206D01*
X36327Y-41199D01*
X36335Y-41195D01*
X36345Y-41192D01*
X36354Y-41191D01*
X36363Y-41191D01*
X36373Y-41194D01*
X36381Y-41198D01*
X36389Y-41204D01*
X36395Y-41212D01*
X36400Y-41220D01*
X36403Y-41229D01*
X36404Y-41239D01*
X36405Y-41240D01*
X36355Y-41690D02*
X36355Y-41290D01*
X36355Y-41290D02*
X36955Y-41290D01*
X36955Y-41290D02*
X36955Y-41690D01*
X36955Y-42090D02*
X36955Y-42490D01*
X36955Y-42490D02*
X36355Y-42490D01*
X36355Y-42490D02*
X36355Y-42090D01*
X36732Y-44862D02*
X36731Y-44871D01*
X36728Y-44881D01*
X36723Y-44889D01*
X36717Y-44897D01*
X36709Y-44903D01*
X36701Y-44908D01*
X36692Y-44910D01*
X36682Y-44911D01*
X36673Y-44911D01*
X36664Y-44908D01*
X36655Y-44903D01*
X36648Y-44897D01*
X36641Y-44890D01*
X36637Y-44881D01*
X36634Y-44872D01*
X36633Y-44862D01*
X36633Y-44853D01*
X36636Y-44844D01*
X36640Y-44835D01*
X36647Y-44828D01*
X36654Y-44821D01*
X36662Y-44817D01*
X36672Y-44814D01*
X36681Y-44813D01*
X36690Y-44813D01*
X36700Y-44816D01*
X36708Y-44820D01*
X36716Y-44826D01*
X36722Y-44834D01*
X36727Y-44842D01*
X36730Y-44851D01*
X36731Y-44861D01*
X36732Y-44862D01*
X36682Y-45312D02*
X36682Y-44912D01*
X36682Y-44912D02*
X37282Y-44912D01*
X37282Y-44912D02*
X37282Y-45312D01*
X37282Y-45712D02*
X37282Y-46112D01*
X37282Y-46112D02*
X36682Y-46112D01*
X36682Y-46112D02*
X36682Y-45712D01*
X43549Y-49842D02*
X43548Y-49851D01*
X43545Y-49861D01*
X43540Y-49869D01*
X43534Y-49877D01*
X43526Y-49883D01*
X43518Y-49888D01*
X43509Y-49890D01*
X43499Y-49891D01*
X43490Y-49891D01*
X43481Y-49888D01*
X43472Y-49883D01*
X43465Y-49877D01*
X43458Y-49870D01*
X43454Y-49861D01*
X43451Y-49852D01*
X43450Y-49842D01*
X43450Y-49833D01*
X43453Y-49824D01*
X43457Y-49815D01*
X43464Y-49808D01*
X43471Y-49801D01*
X43479Y-49797D01*
X43489Y-49794D01*
X43498Y-49793D01*
X43507Y-49793D01*
X43517Y-49796D01*
X43525Y-49800D01*
X43533Y-49806D01*
X43539Y-49814D01*
X43544Y-49822D01*
X43547Y-49831D01*
X43548Y-49841D01*
X43549Y-49842D01*
X43499Y-50292D02*
X43499Y-49892D01*
X43499Y-49892D02*
X44099Y-49892D01*
X44099Y-49892D02*
X44099Y-50292D01*
X44099Y-50692D02*
X44099Y-51092D01*
X44099Y-51092D02*
X43499Y-51092D01*
X43499Y-51092D02*
X43499Y-50692D01*
X43185Y-49154D02*
X43184Y-49163D01*
X43181Y-49173D01*
X43176Y-49181D01*
X43170Y-49189D01*
X43162Y-49195D01*
X43154Y-49200D01*
X43145Y-49202D01*
X43135Y-49203D01*
X43126Y-49203D01*
X43117Y-49200D01*
X43108Y-49195D01*
X43101Y-49189D01*
X43094Y-49182D01*
X43090Y-49173D01*
X43087Y-49164D01*
X43086Y-49154D01*
X43086Y-49145D01*
X43089Y-49136D01*
X43093Y-49127D01*
X43100Y-49120D01*
X43107Y-49113D01*
X43115Y-49109D01*
X43125Y-49106D01*
X43134Y-49105D01*
X43143Y-49105D01*
X43153Y-49108D01*
X43161Y-49112D01*
X43169Y-49118D01*
X43175Y-49126D01*
X43180Y-49134D01*
X43183Y-49143D01*
X43184Y-49153D01*
X43185Y-49154D01*
X43135Y-48704D02*
X43135Y-49104D01*
X43135Y-49104D02*
X42535Y-49104D01*
X42535Y-49104D02*
X42535Y-48704D01*
X42535Y-48304D02*
X42535Y-47904D01*
X42535Y-47904D02*
X43135Y-47904D01*
X43135Y-47904D02*
X43135Y-48304D01*
X44514Y-48248D02*
X44513Y-48257D01*
X44510Y-48267D01*
X44505Y-48275D01*
X44499Y-48283D01*
X44491Y-48289D01*
X44483Y-48294D01*
X44474Y-48296D01*
X44464Y-48297D01*
X44455Y-48297D01*
X44446Y-48294D01*
X44437Y-48289D01*
X44430Y-48283D01*
X44423Y-48276D01*
X44419Y-48267D01*
X44416Y-48258D01*
X44415Y-48248D01*
X44415Y-48239D01*
X44418Y-48230D01*
X44422Y-48221D01*
X44429Y-48214D01*
X44436Y-48207D01*
X44444Y-48203D01*
X44454Y-48200D01*
X44463Y-48199D01*
X44472Y-48199D01*
X44482Y-48202D01*
X44490Y-48206D01*
X44498Y-48212D01*
X44504Y-48220D01*
X44509Y-48228D01*
X44512Y-48237D01*
X44513Y-48247D01*
X44514Y-48248D01*
X44464Y-48698D02*
X44464Y-48298D01*
X44464Y-48298D02*
X45064Y-48298D01*
X45064Y-48298D02*
X45064Y-48698D01*
X45064Y-49098D02*
X45064Y-49498D01*
X45064Y-49498D02*
X44464Y-49498D01*
X44464Y-49498D02*
X44464Y-49098D01*
X36173Y-44228D02*
X36172Y-44237D01*
X36169Y-44247D01*
X36164Y-44255D01*
X36158Y-44263D01*
X36150Y-44269D01*
X36142Y-44274D01*
X36133Y-44276D01*
X36123Y-44277D01*
X36114Y-44277D01*
X36105Y-44274D01*
X36096Y-44269D01*
X36089Y-44263D01*
X36082Y-44256D01*
X36078Y-44247D01*
X36075Y-44238D01*
X36074Y-44228D01*
X36074Y-44219D01*
X36077Y-44210D01*
X36081Y-44201D01*
X36088Y-44194D01*
X36095Y-44187D01*
X36103Y-44183D01*
X36113Y-44180D01*
X36122Y-44179D01*
X36131Y-44179D01*
X36141Y-44182D01*
X36149Y-44186D01*
X36157Y-44192D01*
X36163Y-44200D01*
X36168Y-44208D01*
X36171Y-44217D01*
X36172Y-44227D01*
X36173Y-44228D01*
X35673Y-44228D02*
X36073Y-44228D01*
X36073Y-44228D02*
X36073Y-44828D01*
X36073Y-44828D02*
X35673Y-44828D01*
X35273Y-44828D02*
X34873Y-44828D01*
X34873Y-44828D02*
X34873Y-44228D01*
X34873Y-44228D02*
X35273Y-44228D01*
X37716Y-44862D02*
X37715Y-44871D01*
X37712Y-44881D01*
X37707Y-44889D01*
X37701Y-44897D01*
X37693Y-44903D01*
X37685Y-44908D01*
X37676Y-44910D01*
X37666Y-44911D01*
X37657Y-44911D01*
X37648Y-44908D01*
X37639Y-44903D01*
X37632Y-44897D01*
X37625Y-44890D01*
X37621Y-44881D01*
X37618Y-44872D01*
X37617Y-44862D01*
X37617Y-44853D01*
X37620Y-44844D01*
X37624Y-44835D01*
X37631Y-44828D01*
X37638Y-44821D01*
X37646Y-44817D01*
X37656Y-44814D01*
X37665Y-44813D01*
X37674Y-44813D01*
X37684Y-44816D01*
X37692Y-44820D01*
X37700Y-44826D01*
X37706Y-44834D01*
X37711Y-44842D01*
X37714Y-44851D01*
X37715Y-44861D01*
X37716Y-44862D01*
X37666Y-45312D02*
X37666Y-44912D01*
X37666Y-44912D02*
X38266Y-44912D01*
X38266Y-44912D02*
X38266Y-45312D01*
X38266Y-45712D02*
X38266Y-46112D01*
X38266Y-46112D02*
X37666Y-46112D01*
X37666Y-46112D02*
X37666Y-45712D01*
X32501Y-47855D02*
X32501Y-50885D01*
X32501Y-47855D02*
X36142Y-47855D01*
X36142Y-47855D02*
X36142Y-50885D01*
X36142Y-50885D02*
X32501Y-50885D01*
X33027Y-48870D02*
X34277Y-49120D01*
X34277Y-49120D02*
X34277Y-49620D01*
X34277Y-49620D02*
X33027Y-49870D01*
X34027Y-50620D02*
X33027Y-50495D01*
X33027Y-50495D02*
X33027Y-50245D01*
X33027Y-50245D02*
X34027Y-50120D01*
X34027Y-48120D02*
X33027Y-48245D01*
X33027Y-48245D02*
X33027Y-48495D01*
X33027Y-48495D02*
X34027Y-48620D01*
X45779Y-51039D02*
X45778Y-51048D01*
X45775Y-51058D01*
X45770Y-51066D01*
X45764Y-51074D01*
X45756Y-51080D01*
X45748Y-51085D01*
X45739Y-51087D01*
X45729Y-51088D01*
X45720Y-51088D01*
X45711Y-51085D01*
X45702Y-51080D01*
X45695Y-51074D01*
X45688Y-51067D01*
X45684Y-51058D01*
X45681Y-51049D01*
X45680Y-51039D01*
X45680Y-51030D01*
X45683Y-51021D01*
X45687Y-51012D01*
X45694Y-51005D01*
X45701Y-50998D01*
X45709Y-50994D01*
X45719Y-50991D01*
X45728Y-50990D01*
X45737Y-50990D01*
X45747Y-50993D01*
X45755Y-50997D01*
X45763Y-51003D01*
X45769Y-51011D01*
X45774Y-51019D01*
X45777Y-51028D01*
X45778Y-51038D01*
X45779Y-51039D01*
X45279Y-51039D02*
X45679Y-51039D01*
X45679Y-51039D02*
X45679Y-51639D01*
X45679Y-51639D02*
X45279Y-51639D01*
X44879Y-51639D02*
X44479Y-51639D01*
X44479Y-51639D02*
X44479Y-51039D01*
X44479Y-51039D02*
X44879Y-51039D01*
X45779Y-51905D02*
X45778Y-51914D01*
X45775Y-51924D01*
X45770Y-51932D01*
X45764Y-51940D01*
X45756Y-51946D01*
X45748Y-51951D01*
X45739Y-51953D01*
X45729Y-51954D01*
X45720Y-51954D01*
X45711Y-51951D01*
X45702Y-51946D01*
X45695Y-51940D01*
X45688Y-51933D01*
X45684Y-51924D01*
X45681Y-51915D01*
X45680Y-51905D01*
X45680Y-51896D01*
X45683Y-51887D01*
X45687Y-51878D01*
X45694Y-51871D01*
X45701Y-51864D01*
X45709Y-51860D01*
X45719Y-51857D01*
X45728Y-51856D01*
X45737Y-51856D01*
X45747Y-51859D01*
X45755Y-51863D01*
X45763Y-51869D01*
X45769Y-51877D01*
X45774Y-51885D01*
X45777Y-51894D01*
X45778Y-51904D01*
X45779Y-51905D01*
X45279Y-51905D02*
X45679Y-51905D01*
X45679Y-51905D02*
X45679Y-52505D01*
X45679Y-52505D02*
X45279Y-52505D01*
X44879Y-52505D02*
X44479Y-52505D01*
X44479Y-52505D02*
X44479Y-51905D01*
X44479Y-51905D02*
X44879Y-51905D01*
X45779Y-52771D02*
X45778Y-52780D01*
X45775Y-52790D01*
X45770Y-52798D01*
X45764Y-52806D01*
X45756Y-52812D01*
X45748Y-52817D01*
X45739Y-52819D01*
X45729Y-52820D01*
X45720Y-52820D01*
X45711Y-52817D01*
X45702Y-52812D01*
X45695Y-52806D01*
X45688Y-52799D01*
X45684Y-52790D01*
X45681Y-52781D01*
X45680Y-52771D01*
X45680Y-52762D01*
X45683Y-52753D01*
X45687Y-52744D01*
X45694Y-52737D01*
X45701Y-52730D01*
X45709Y-52726D01*
X45719Y-52723D01*
X45728Y-52722D01*
X45737Y-52722D01*
X45747Y-52725D01*
X45755Y-52729D01*
X45763Y-52735D01*
X45769Y-52743D01*
X45774Y-52751D01*
X45777Y-52760D01*
X45778Y-52770D01*
X45779Y-52771D01*
X45279Y-52771D02*
X45679Y-52771D01*
X45679Y-52771D02*
X45679Y-53371D01*
X45679Y-53371D02*
X45279Y-53371D01*
X44879Y-53371D02*
X44479Y-53371D01*
X44479Y-53371D02*
X44479Y-52771D01*
X44479Y-52771D02*
X44879Y-52771D01*
G54D11*
X52075Y-48984D02*
X52075Y-48984D01*
X51075Y-48984D02*
X52075Y-48984D01*
X52075Y-48984D02*
X52075Y-48984D01*
X52075Y-48984D02*
X52075Y-52984D01*
X52075Y-52984D02*
X51075Y-52984D01*
X51075Y-52984D02*
X51075Y-48984D01*
X51075Y-49984D02*
X52075Y-49984D01*
X45378Y-58799D02*
X45378Y-53799D01*
X45378Y-53799D02*
X47378Y-53799D01*
X47378Y-53799D02*
X47378Y-58799D01*
X47378Y-58799D02*
X45378Y-58799D01*
G54D14*
X49984Y-57996D02*
X49984Y-54996D01*
X51984Y-54996D02*
X51984Y-57996D01*
X51984Y-57996D02*
X49984Y-57996D01*
X49984Y-54996D02*
X51984Y-54996D01*
G54D12*
X48453Y-42531D02*
X48453Y-43031D01*
X48453Y-43031D02*
X47453Y-43031D01*
X47453Y-43031D02*
X47453Y-42531D01*
X48953Y-42531D02*
X48953Y-53531D01*
X48953Y-53531D02*
X46953Y-53531D01*
X46953Y-53531D02*
X46953Y-42531D01*
X46953Y-42531D02*
X48953Y-42531D01*
G54D13*
X38916Y-45559D02*
X38716Y-45559D01*
X38716Y-45559D02*
X38716Y-45859D01*
X38716Y-45859D02*
X38916Y-45859D01*
X39116Y-45559D02*
X39316Y-45559D01*
X39316Y-45559D02*
X39316Y-45859D01*
X39316Y-45859D02*
X39116Y-45859D01*
X38916Y-46267D02*
X38716Y-46267D01*
X38716Y-46267D02*
X38716Y-46567D01*
X38716Y-46567D02*
X38916Y-46567D01*
X39116Y-46267D02*
X39316Y-46267D01*
X39316Y-46267D02*
X39316Y-46567D01*
X39316Y-46567D02*
X39116Y-46567D01*
G54D11*
X51075Y-44957D02*
X52075Y-44957D01*
X52075Y-44957D02*
X52075Y-47957D01*
X52075Y-47957D02*
X51075Y-47957D01*
X51075Y-47957D02*
X51075Y-44957D01*
X52075Y-45957D02*
X51075Y-45957D01*
G54D12*
X35782Y-41378D02*
X35764Y-41552D01*
X35714Y-41720D01*
X35631Y-41876D01*
X35520Y-42012D01*
X35385Y-42124D01*
X35230Y-42207D01*
X35062Y-42259D01*
X34888Y-42277D01*
X34714Y-42262D01*
X34545Y-42212D01*
X34390Y-42131D01*
X34253Y-42021D01*
X34140Y-41886D01*
X34055Y-41732D01*
X34002Y-41565D01*
X33983Y-41390D01*
X33997Y-41216D01*
X34046Y-41047D01*
X34126Y-40891D01*
X34235Y-40753D01*
X34369Y-40639D01*
X34522Y-40554D01*
X34689Y-40499D01*
X34864Y-40479D01*
X35038Y-40492D01*
X35207Y-40539D01*
X35364Y-40619D01*
X35502Y-40727D01*
X35617Y-40860D01*
X35704Y-41012D01*
X35759Y-41179D01*
X35781Y-41353D01*
X35782Y-41378D01*
X52003Y-41378D02*
X51985Y-41552D01*
X51935Y-41720D01*
X51852Y-41876D01*
X51741Y-42012D01*
X51606Y-42124D01*
X51451Y-42207D01*
X51283Y-42259D01*
X51109Y-42277D01*
X50935Y-42262D01*
X50766Y-42212D01*
X50611Y-42131D01*
X50474Y-42021D01*
X50361Y-41886D01*
X50276Y-41732D01*
X50223Y-41565D01*
X50204Y-41390D01*
X50218Y-41216D01*
X50267Y-41047D01*
X50347Y-40891D01*
X50456Y-40753D01*
X50590Y-40639D01*
X50743Y-40554D01*
X50910Y-40499D01*
X51085Y-40479D01*
X51259Y-40492D01*
X51428Y-40539D01*
X51585Y-40619D01*
X51723Y-40727D01*
X51838Y-40860D01*
X51925Y-41012D01*
X51980Y-41179D01*
X52002Y-41353D01*
X52003Y-41378D01*
X41097Y-57795D02*
X41079Y-57969D01*
X41029Y-58137D01*
X40946Y-58293D01*
X40835Y-58429D01*
X40700Y-58541D01*
X40545Y-58624D01*
X40377Y-58676D01*
X40203Y-58694D01*
X40029Y-58679D01*
X39860Y-58629D01*
X39705Y-58548D01*
X39568Y-58438D01*
X39455Y-58303D01*
X39370Y-58149D01*
X39317Y-57982D01*
X39298Y-57807D01*
X39312Y-57633D01*
X39361Y-57464D01*
X39441Y-57308D01*
X39550Y-57170D01*
X39684Y-57056D01*
X39837Y-56971D01*
X40004Y-56916D01*
X40179Y-56896D01*
X40353Y-56909D01*
X40522Y-56956D01*
X40679Y-57036D01*
X40817Y-57144D01*
X40932Y-57277D01*
X41019Y-57429D01*
X41074Y-57596D01*
X41096Y-57770D01*
X41097Y-57795D01*
X41241Y-46555D02*
X41241Y-44547D01*
X41241Y-44547D02*
X44193Y-44547D01*
X44193Y-44547D02*
X44193Y-46555D01*
X44193Y-46555D02*
X41241Y-46555D01*
G54D14*
X40516Y-51501D02*
X40516Y-51001D01*
X40935Y-51454D02*
X40916Y-51478D01*
X40859Y-51501D01*
X40821Y-51501D01*
X40763Y-51478D01*
X40725Y-51430D01*
X40706Y-51382D01*
X40687Y-51287D01*
X40687Y-51216D01*
X40706Y-51120D01*
X40725Y-51073D01*
X40763Y-51025D01*
X40821Y-51001D01*
X40859Y-51001D01*
X40916Y-51025D01*
X40935Y-51049D01*
X41316Y-51501D02*
X41087Y-51501D01*
X41201Y-51501D02*
X41201Y-51001D01*
X41163Y-51073D01*
X41125Y-51120D01*
X41087Y-51144D01*
X38367Y-54467D02*
X38367Y-54276D01*
X38509Y-54505D02*
X38009Y-54372D01*
X38509Y-54238D01*
X38009Y-54162D02*
X38009Y-53933D01*
X38509Y-54048D02*
X38009Y-54048D01*
X38509Y-53800D02*
X38009Y-53800D01*
X38367Y-53666D01*
X38009Y-53533D01*
X38509Y-53533D01*
X38247Y-53343D02*
X38247Y-53209D01*
X38509Y-53152D02*
X38509Y-53343D01*
X38009Y-53343D01*
X38009Y-53152D01*
X38033Y-52771D02*
X38009Y-52809D01*
X38009Y-52866D01*
X38033Y-52924D01*
X38081Y-52962D01*
X38128Y-52981D01*
X38224Y-53000D01*
X38295Y-53000D01*
X38390Y-52981D01*
X38438Y-52962D01*
X38486Y-52924D01*
X38509Y-52866D01*
X38509Y-52828D01*
X38486Y-52771D01*
X38462Y-52752D01*
X38295Y-52752D01*
X38295Y-52828D01*
X38367Y-52600D02*
X38367Y-52409D01*
X38509Y-52638D02*
X38009Y-52505D01*
X38509Y-52371D01*
X38224Y-52181D02*
X38200Y-52219D01*
X38176Y-52238D01*
X38128Y-52257D01*
X38105Y-52257D01*
X38057Y-52238D01*
X38033Y-52219D01*
X38009Y-52181D01*
X38009Y-52104D01*
X38033Y-52066D01*
X38057Y-52047D01*
X38105Y-52028D01*
X38128Y-52028D01*
X38176Y-52047D01*
X38200Y-52066D01*
X38224Y-52104D01*
X38224Y-52181D01*
X38247Y-52219D01*
X38271Y-52238D01*
X38319Y-52257D01*
X38414Y-52257D01*
X38462Y-52238D01*
X38486Y-52219D01*
X38509Y-52181D01*
X38509Y-52104D01*
X38486Y-52066D01*
X38462Y-52047D01*
X38414Y-52028D01*
X38319Y-52028D01*
X38271Y-52047D01*
X38247Y-52066D01*
X38224Y-52104D01*
G54D15*
X36156Y-53310D02*
X36156Y-53010D01*
X36228Y-53010D01*
X36271Y-53025D01*
X36299Y-53053D01*
X36314Y-53082D01*
X36328Y-53139D01*
X36328Y-53182D01*
X36314Y-53239D01*
X36299Y-53268D01*
X36271Y-53296D01*
X36228Y-53310D01*
X36156Y-53310D01*
X36614Y-53310D02*
X36442Y-53310D01*
X36528Y-53310D02*
X36528Y-53010D01*
X36499Y-53053D01*
X36471Y-53082D01*
X36442Y-53096D01*
X37238Y-53071D02*
X37360Y-53071D01*
X37294Y-53146D01*
X37323Y-53146D01*
X37341Y-53156D01*
X37351Y-53165D01*
X37360Y-53184D01*
X37360Y-53231D01*
X37351Y-53249D01*
X37341Y-53259D01*
X37323Y-53268D01*
X37266Y-53268D01*
X37248Y-53259D01*
X37238Y-53249D01*
X37445Y-53249D02*
X37454Y-53259D01*
X37445Y-53268D01*
X37436Y-53259D01*
X37445Y-53249D01*
X37445Y-53268D01*
X37623Y-53071D02*
X37586Y-53071D01*
X37567Y-53081D01*
X37558Y-53090D01*
X37539Y-53118D01*
X37530Y-53156D01*
X37530Y-53231D01*
X37539Y-53249D01*
X37548Y-53259D01*
X37567Y-53268D01*
X37605Y-53268D01*
X37623Y-53259D01*
X37633Y-53249D01*
X37642Y-53231D01*
X37642Y-53184D01*
X37633Y-53165D01*
X37623Y-53156D01*
X37605Y-53146D01*
X37567Y-53146D01*
X37548Y-53156D01*
X37539Y-53165D01*
X37530Y-53184D01*
X37708Y-53137D02*
X37755Y-53268D01*
X37802Y-53137D01*
X34266Y-53310D02*
X34266Y-53010D01*
X34338Y-53010D01*
X34381Y-53025D01*
X34409Y-53053D01*
X34424Y-53082D01*
X34438Y-53139D01*
X34438Y-53182D01*
X34424Y-53239D01*
X34409Y-53268D01*
X34381Y-53296D01*
X34338Y-53310D01*
X34266Y-53310D01*
X34552Y-53039D02*
X34566Y-53025D01*
X34595Y-53010D01*
X34666Y-53010D01*
X34695Y-53025D01*
X34709Y-53039D01*
X34724Y-53068D01*
X34724Y-53096D01*
X34709Y-53139D01*
X34538Y-53310D01*
X34724Y-53310D01*
X35348Y-53071D02*
X35470Y-53071D01*
X35404Y-53146D01*
X35433Y-53146D01*
X35451Y-53156D01*
X35461Y-53165D01*
X35470Y-53184D01*
X35470Y-53231D01*
X35461Y-53249D01*
X35451Y-53259D01*
X35433Y-53268D01*
X35376Y-53268D01*
X35358Y-53259D01*
X35348Y-53249D01*
X35555Y-53249D02*
X35564Y-53259D01*
X35555Y-53268D01*
X35546Y-53259D01*
X35555Y-53249D01*
X35555Y-53268D01*
X35733Y-53071D02*
X35696Y-53071D01*
X35677Y-53081D01*
X35668Y-53090D01*
X35649Y-53118D01*
X35640Y-53156D01*
X35640Y-53231D01*
X35649Y-53249D01*
X35658Y-53259D01*
X35677Y-53268D01*
X35715Y-53268D01*
X35733Y-53259D01*
X35743Y-53249D01*
X35752Y-53231D01*
X35752Y-53184D01*
X35743Y-53165D01*
X35733Y-53156D01*
X35715Y-53146D01*
X35677Y-53146D01*
X35658Y-53156D01*
X35649Y-53165D01*
X35640Y-53184D01*
X35818Y-53137D02*
X35865Y-53268D01*
X35912Y-53137D01*
G54D14*
X40353Y-43927D02*
X40677Y-43927D01*
X40715Y-43908D01*
X40734Y-43889D01*
X40753Y-43851D01*
X40753Y-43774D01*
X40734Y-43736D01*
X40715Y-43717D01*
X40677Y-43698D01*
X40353Y-43698D01*
X40753Y-43298D02*
X40753Y-43527D01*
X40753Y-43413D02*
X40353Y-43413D01*
X40410Y-43451D01*
X40448Y-43489D01*
X40467Y-43527D01*
X40714Y-42920D02*
X40714Y-43111D01*
X40314Y-43111D01*
X40714Y-42787D02*
X40314Y-42787D01*
X40600Y-42653D01*
X40314Y-42520D01*
X40714Y-42520D01*
X40314Y-42368D02*
X40314Y-42120D01*
X40466Y-42254D01*
X40466Y-42196D01*
X40485Y-42158D01*
X40504Y-42139D01*
X40542Y-42120D01*
X40638Y-42120D01*
X40676Y-42139D01*
X40695Y-42158D01*
X40714Y-42196D01*
X40714Y-42311D01*
X40695Y-42349D01*
X40676Y-42368D01*
X40714Y-41739D02*
X40714Y-41968D01*
X40714Y-41854D02*
X40314Y-41854D01*
X40371Y-41892D01*
X40409Y-41930D01*
X40428Y-41968D01*
X40314Y-41606D02*
X40314Y-41339D01*
X40714Y-41511D01*
G54D13*
X34446Y-45234D02*
X34434Y-45246D01*
X34399Y-45258D01*
X34375Y-45258D01*
X34339Y-45246D01*
X34315Y-45222D01*
X34304Y-45199D01*
X34292Y-45151D01*
X34292Y-45115D01*
X34304Y-45068D01*
X34315Y-45044D01*
X34339Y-45020D01*
X34375Y-45008D01*
X34399Y-45008D01*
X34434Y-45020D01*
X34446Y-45032D01*
X34661Y-45092D02*
X34661Y-45258D01*
X34601Y-44996D02*
X34542Y-45175D01*
X34696Y-45175D01*
X34336Y-45652D02*
X34194Y-45652D01*
X34265Y-45652D02*
X34265Y-45402D01*
X34241Y-45438D01*
X34217Y-45462D01*
X34194Y-45474D01*
X34551Y-45486D02*
X34551Y-45652D01*
X34444Y-45486D02*
X34444Y-45616D01*
X34455Y-45640D01*
X34479Y-45652D01*
X34515Y-45652D01*
X34539Y-45640D01*
X34551Y-45628D01*
X34634Y-45486D02*
X34729Y-45486D01*
X34670Y-45652D02*
X34670Y-45438D01*
X34681Y-45414D01*
X34705Y-45402D01*
X34729Y-45402D01*
X34407Y-46164D02*
X34324Y-46045D01*
X34265Y-46164D02*
X34265Y-45914D01*
X34360Y-45914D01*
X34384Y-45926D01*
X34395Y-45938D01*
X34407Y-45962D01*
X34407Y-45998D01*
X34395Y-46021D01*
X34384Y-46033D01*
X34360Y-46045D01*
X34265Y-46045D01*
X34645Y-46164D02*
X34503Y-46164D01*
X34574Y-46164D02*
X34574Y-45914D01*
X34550Y-45950D01*
X34526Y-45974D01*
X34503Y-45986D01*
X34201Y-46518D02*
X34059Y-46518D01*
X34130Y-46518D02*
X34130Y-46268D01*
X34106Y-46304D01*
X34082Y-46328D01*
X34059Y-46340D01*
X34309Y-46494D02*
X34320Y-46506D01*
X34309Y-46518D01*
X34297Y-46506D01*
X34309Y-46494D01*
X34309Y-46518D01*
X34547Y-46268D02*
X34428Y-46268D01*
X34416Y-46387D01*
X34428Y-46375D01*
X34451Y-46363D01*
X34511Y-46363D01*
X34535Y-46375D01*
X34547Y-46387D01*
X34558Y-46411D01*
X34558Y-46471D01*
X34547Y-46494D01*
X34535Y-46506D01*
X34511Y-46518D01*
X34451Y-46518D01*
X34428Y-46506D01*
X34416Y-46494D01*
X34666Y-46518D02*
X34666Y-46268D01*
X34689Y-46423D02*
X34761Y-46518D01*
X34761Y-46352D02*
X34666Y-46447D01*
X39668Y-53743D02*
X39549Y-53826D01*
X39668Y-53885D02*
X39418Y-53885D01*
X39418Y-53790D01*
X39430Y-53766D01*
X39442Y-53755D01*
X39466Y-53743D01*
X39502Y-53743D01*
X39525Y-53755D01*
X39537Y-53766D01*
X39549Y-53790D01*
X39549Y-53885D01*
X39418Y-53659D02*
X39418Y-53505D01*
X39513Y-53588D01*
X39513Y-53552D01*
X39525Y-53528D01*
X39537Y-53516D01*
X39561Y-53505D01*
X39621Y-53505D01*
X39644Y-53516D01*
X39656Y-53528D01*
X39668Y-53552D01*
X39668Y-53624D01*
X39656Y-53647D01*
X39644Y-53659D01*
X38828Y-53102D02*
X38828Y-53150D01*
X38840Y-53174D01*
X38852Y-53186D01*
X38888Y-53209D01*
X38935Y-53221D01*
X39031Y-53221D01*
X39054Y-53209D01*
X39066Y-53198D01*
X39078Y-53174D01*
X39078Y-53126D01*
X39066Y-53102D01*
X39054Y-53090D01*
X39031Y-53079D01*
X38971Y-53079D01*
X38947Y-53090D01*
X38935Y-53102D01*
X38923Y-53126D01*
X38923Y-53174D01*
X38935Y-53198D01*
X38947Y-53209D01*
X38971Y-53221D01*
X38935Y-52936D02*
X38923Y-52960D01*
X38912Y-52971D01*
X38888Y-52983D01*
X38876Y-52983D01*
X38852Y-52971D01*
X38840Y-52960D01*
X38828Y-52936D01*
X38828Y-52888D01*
X38840Y-52864D01*
X38852Y-52852D01*
X38876Y-52841D01*
X38888Y-52841D01*
X38912Y-52852D01*
X38923Y-52864D01*
X38935Y-52888D01*
X38935Y-52936D01*
X38947Y-52960D01*
X38959Y-52971D01*
X38983Y-52983D01*
X39031Y-52983D01*
X39054Y-52971D01*
X39066Y-52960D01*
X39078Y-52936D01*
X39078Y-52888D01*
X39066Y-52864D01*
X39054Y-52852D01*
X39031Y-52841D01*
X38983Y-52841D01*
X38959Y-52852D01*
X38947Y-52864D01*
X38935Y-52888D01*
X40692Y-53743D02*
X40573Y-53826D01*
X40692Y-53885D02*
X40442Y-53885D01*
X40442Y-53790D01*
X40454Y-53766D01*
X40466Y-53755D01*
X40490Y-53743D01*
X40526Y-53743D01*
X40549Y-53755D01*
X40561Y-53766D01*
X40573Y-53790D01*
X40573Y-53885D01*
X40466Y-53647D02*
X40454Y-53635D01*
X40442Y-53612D01*
X40442Y-53552D01*
X40454Y-53528D01*
X40466Y-53516D01*
X40490Y-53505D01*
X40514Y-53505D01*
X40549Y-53516D01*
X40692Y-53659D01*
X40692Y-53505D01*
X41072Y-52512D02*
X41072Y-52560D01*
X41084Y-52584D01*
X41096Y-52596D01*
X41132Y-52619D01*
X41179Y-52631D01*
X41275Y-52631D01*
X41298Y-52619D01*
X41310Y-52608D01*
X41322Y-52584D01*
X41322Y-52536D01*
X41310Y-52512D01*
X41298Y-52500D01*
X41275Y-52489D01*
X41215Y-52489D01*
X41191Y-52500D01*
X41179Y-52512D01*
X41167Y-52536D01*
X41167Y-52584D01*
X41179Y-52608D01*
X41191Y-52619D01*
X41215Y-52631D01*
X41179Y-52346D02*
X41167Y-52370D01*
X41156Y-52381D01*
X41132Y-52393D01*
X41120Y-52393D01*
X41096Y-52381D01*
X41084Y-52370D01*
X41072Y-52346D01*
X41072Y-52298D01*
X41084Y-52274D01*
X41096Y-52262D01*
X41120Y-52251D01*
X41132Y-52251D01*
X41156Y-52262D01*
X41167Y-52274D01*
X41179Y-52298D01*
X41179Y-52346D01*
X41191Y-52370D01*
X41203Y-52381D01*
X41227Y-52393D01*
X41275Y-52393D01*
X41298Y-52381D01*
X41310Y-52370D01*
X41322Y-52346D01*
X41322Y-52298D01*
X41310Y-52274D01*
X41298Y-52262D01*
X41275Y-52251D01*
X41227Y-52251D01*
X41203Y-52262D01*
X41191Y-52274D01*
X41179Y-52298D01*
X42282Y-52125D02*
X42294Y-52137D01*
X42306Y-52172D01*
X42306Y-52196D01*
X42294Y-52232D01*
X42270Y-52256D01*
X42247Y-52267D01*
X42199Y-52279D01*
X42163Y-52279D01*
X42116Y-52267D01*
X42092Y-52256D01*
X42068Y-52232D01*
X42056Y-52196D01*
X42056Y-52172D01*
X42068Y-52137D01*
X42080Y-52125D01*
X42306Y-51887D02*
X42306Y-52029D01*
X42306Y-51958D02*
X42056Y-51958D01*
X42092Y-51982D01*
X42116Y-52006D01*
X42128Y-52029D01*
X42140Y-51672D02*
X42306Y-51672D01*
X42044Y-51732D02*
X42223Y-51791D01*
X42223Y-51637D01*
X42306Y-51434D02*
X42175Y-51434D01*
X42151Y-51446D01*
X42140Y-51470D01*
X42140Y-51518D01*
X42151Y-51541D01*
X42294Y-51434D02*
X42306Y-51458D01*
X42306Y-51518D01*
X42294Y-51541D01*
X42270Y-51553D01*
X42247Y-51553D01*
X42223Y-51541D01*
X42211Y-51518D01*
X42211Y-51458D01*
X42199Y-51434D01*
X42306Y-51185D02*
X42306Y-51327D01*
X42306Y-51256D02*
X42056Y-51256D01*
X42092Y-51280D01*
X42116Y-51304D01*
X42128Y-51327D01*
X42070Y-50783D02*
X42070Y-50925D01*
X42070Y-50854D02*
X41820Y-50854D01*
X41856Y-50878D01*
X41880Y-50902D01*
X41892Y-50925D01*
X41820Y-50628D02*
X41820Y-50604D01*
X41832Y-50580D01*
X41844Y-50568D01*
X41868Y-50556D01*
X41915Y-50545D01*
X41975Y-50545D01*
X42023Y-50556D01*
X42046Y-50568D01*
X42058Y-50580D01*
X42070Y-50604D01*
X42070Y-50628D01*
X42058Y-50652D01*
X42046Y-50664D01*
X42023Y-50675D01*
X41975Y-50687D01*
X41915Y-50687D01*
X41868Y-50675D01*
X41844Y-50664D01*
X41832Y-50652D01*
X41820Y-50628D01*
X41904Y-50330D02*
X42070Y-50330D01*
X41904Y-50437D02*
X42034Y-50437D01*
X42058Y-50426D01*
X42070Y-50402D01*
X42070Y-50366D01*
X42058Y-50342D01*
X42046Y-50330D01*
X41904Y-50247D02*
X41904Y-50152D01*
X42070Y-50211D02*
X41856Y-50211D01*
X41832Y-50200D01*
X41820Y-50176D01*
X41820Y-50152D01*
X50141Y-47129D02*
X50022Y-47212D01*
X50141Y-47271D02*
X49891Y-47271D01*
X49891Y-47176D01*
X49903Y-47152D01*
X49915Y-47141D01*
X49939Y-47129D01*
X49975Y-47129D01*
X49998Y-47141D01*
X50010Y-47152D01*
X50022Y-47176D01*
X50022Y-47271D01*
X49975Y-46914D02*
X50141Y-46914D01*
X49879Y-46974D02*
X50058Y-47033D01*
X50058Y-46879D01*
X50101Y-46487D02*
X50101Y-46629D01*
X50101Y-46558D02*
X49851Y-46558D01*
X49887Y-46582D01*
X49911Y-46606D01*
X49923Y-46629D01*
X50101Y-46379D02*
X49851Y-46379D01*
X50006Y-46356D02*
X50101Y-46284D01*
X49935Y-46284D02*
X50030Y-46379D01*
X45156Y-46459D02*
X45168Y-46471D01*
X45180Y-46506D01*
X45180Y-46530D01*
X45168Y-46566D01*
X45144Y-46590D01*
X45121Y-46601D01*
X45073Y-46613D01*
X45037Y-46613D01*
X44990Y-46601D01*
X44966Y-46590D01*
X44942Y-46566D01*
X44930Y-46530D01*
X44930Y-46506D01*
X44942Y-46471D01*
X44954Y-46459D01*
X44930Y-46375D02*
X44930Y-46221D01*
X45025Y-46304D01*
X45025Y-46268D01*
X45037Y-46244D01*
X45049Y-46232D01*
X45073Y-46221D01*
X45133Y-46221D01*
X45156Y-46232D01*
X45168Y-46244D01*
X45180Y-46268D01*
X45180Y-46340D01*
X45168Y-46363D01*
X45156Y-46375D01*
X45141Y-44523D02*
X45141Y-44665D01*
X45141Y-44594D02*
X44891Y-44594D01*
X44927Y-44618D01*
X44951Y-44642D01*
X44963Y-44665D01*
X44915Y-44427D02*
X44903Y-44415D01*
X44891Y-44392D01*
X44891Y-44332D01*
X44903Y-44308D01*
X44915Y-44296D01*
X44939Y-44285D01*
X44963Y-44285D01*
X44998Y-44296D01*
X45141Y-44439D01*
X45141Y-44285D01*
X44975Y-44177D02*
X45225Y-44177D01*
X44986Y-44177D02*
X44975Y-44154D01*
X44975Y-44106D01*
X44986Y-44082D01*
X44998Y-44070D01*
X45022Y-44058D01*
X45094Y-44058D01*
X45117Y-44070D01*
X45129Y-44082D01*
X45141Y-44106D01*
X45141Y-44154D01*
X45129Y-44177D01*
X44975Y-43987D02*
X44975Y-43892D01*
X45141Y-43951D02*
X44927Y-43951D01*
X44903Y-43940D01*
X44891Y-43916D01*
X44891Y-43892D01*
X40431Y-46696D02*
X40443Y-46708D01*
X40455Y-46743D01*
X40455Y-46767D01*
X40443Y-46803D01*
X40419Y-46827D01*
X40396Y-46838D01*
X40348Y-46850D01*
X40312Y-46850D01*
X40265Y-46838D01*
X40241Y-46827D01*
X40217Y-46803D01*
X40205Y-46767D01*
X40205Y-46743D01*
X40217Y-46708D01*
X40229Y-46696D01*
X40229Y-46600D02*
X40217Y-46588D01*
X40205Y-46565D01*
X40205Y-46505D01*
X40217Y-46481D01*
X40229Y-46469D01*
X40253Y-46458D01*
X40277Y-46458D01*
X40312Y-46469D01*
X40455Y-46612D01*
X40455Y-46458D01*
X40416Y-44799D02*
X40416Y-44941D01*
X40416Y-44870D02*
X40166Y-44870D01*
X40202Y-44894D01*
X40226Y-44918D01*
X40238Y-44941D01*
X40190Y-44703D02*
X40178Y-44691D01*
X40166Y-44668D01*
X40166Y-44608D01*
X40178Y-44584D01*
X40190Y-44572D01*
X40214Y-44561D01*
X40238Y-44561D01*
X40273Y-44572D01*
X40416Y-44715D01*
X40416Y-44561D01*
X40250Y-44453D02*
X40500Y-44453D01*
X40261Y-44453D02*
X40250Y-44430D01*
X40250Y-44382D01*
X40261Y-44358D01*
X40273Y-44346D01*
X40297Y-44334D01*
X40369Y-44334D01*
X40392Y-44346D01*
X40404Y-44358D01*
X40416Y-44382D01*
X40416Y-44430D01*
X40404Y-44453D01*
X40250Y-44263D02*
X40250Y-44168D01*
X40416Y-44227D02*
X40202Y-44227D01*
X40178Y-44216D01*
X40166Y-44192D01*
X40166Y-44168D01*
X36047Y-43782D02*
X35928Y-43865D01*
X36047Y-43924D02*
X35797Y-43924D01*
X35797Y-43829D01*
X35809Y-43805D01*
X35821Y-43794D01*
X35845Y-43782D01*
X35881Y-43782D01*
X35904Y-43794D01*
X35916Y-43805D01*
X35928Y-43829D01*
X35928Y-43924D01*
X35904Y-43639D02*
X35892Y-43663D01*
X35881Y-43674D01*
X35857Y-43686D01*
X35845Y-43686D01*
X35821Y-43674D01*
X35809Y-43663D01*
X35797Y-43639D01*
X35797Y-43591D01*
X35809Y-43567D01*
X35821Y-43555D01*
X35845Y-43544D01*
X35857Y-43544D01*
X35881Y-43555D01*
X35892Y-43567D01*
X35904Y-43591D01*
X35904Y-43639D01*
X35916Y-43663D01*
X35928Y-43674D01*
X35952Y-43686D01*
X36000Y-43686D01*
X36023Y-43674D01*
X36035Y-43663D01*
X36047Y-43639D01*
X36047Y-43591D01*
X36035Y-43567D01*
X36023Y-43555D01*
X36000Y-43544D01*
X35952Y-43544D01*
X35928Y-43555D01*
X35916Y-43567D01*
X35904Y-43591D01*
X35821Y-43341D02*
X35809Y-43329D01*
X35797Y-43306D01*
X35797Y-43246D01*
X35809Y-43222D01*
X35821Y-43210D01*
X35845Y-43199D01*
X35869Y-43199D01*
X35904Y-43210D01*
X36047Y-43353D01*
X36047Y-43199D01*
X35797Y-43044D02*
X35797Y-43020D01*
X35809Y-42996D01*
X35821Y-42984D01*
X35845Y-42972D01*
X35892Y-42961D01*
X35952Y-42961D01*
X36000Y-42972D01*
X36023Y-42984D01*
X36035Y-42996D01*
X36047Y-43020D01*
X36047Y-43044D01*
X36035Y-43068D01*
X36023Y-43080D01*
X36000Y-43091D01*
X35952Y-43103D01*
X35892Y-43103D01*
X35845Y-43091D01*
X35821Y-43080D01*
X35809Y-43068D01*
X35797Y-43044D01*
X35797Y-42806D02*
X35797Y-42782D01*
X35809Y-42758D01*
X35821Y-42746D01*
X35845Y-42734D01*
X35892Y-42723D01*
X35952Y-42723D01*
X36000Y-42734D01*
X36023Y-42746D01*
X36035Y-42758D01*
X36047Y-42782D01*
X36047Y-42806D01*
X36035Y-42830D01*
X36023Y-42842D01*
X36000Y-42853D01*
X35952Y-42865D01*
X35892Y-42865D01*
X35845Y-42853D01*
X35821Y-42842D01*
X35809Y-42830D01*
X35797Y-42806D01*
X36598Y-40751D02*
X36479Y-40834D01*
X36598Y-40893D02*
X36348Y-40893D01*
X36348Y-40798D01*
X36360Y-40774D01*
X36372Y-40763D01*
X36396Y-40751D01*
X36432Y-40751D01*
X36455Y-40763D01*
X36467Y-40774D01*
X36479Y-40798D01*
X36479Y-40893D01*
X36348Y-40667D02*
X36348Y-40501D01*
X36598Y-40608D01*
X36992Y-40915D02*
X36992Y-41057D01*
X36992Y-40986D02*
X36742Y-40986D01*
X36778Y-41010D01*
X36802Y-41034D01*
X36814Y-41057D01*
X36766Y-40819D02*
X36754Y-40807D01*
X36742Y-40784D01*
X36742Y-40724D01*
X36754Y-40700D01*
X36766Y-40688D01*
X36790Y-40677D01*
X36814Y-40677D01*
X36849Y-40688D01*
X36992Y-40831D01*
X36992Y-40677D01*
X36742Y-40522D02*
X36742Y-40498D01*
X36754Y-40474D01*
X36766Y-40462D01*
X36790Y-40450D01*
X36837Y-40439D01*
X36897Y-40439D01*
X36945Y-40450D01*
X36968Y-40462D01*
X36980Y-40474D01*
X36992Y-40498D01*
X36992Y-40522D01*
X36980Y-40546D01*
X36968Y-40558D01*
X36945Y-40569D01*
X36897Y-40581D01*
X36837Y-40581D01*
X36790Y-40569D01*
X36766Y-40558D01*
X36754Y-40546D01*
X36742Y-40522D01*
X36475Y-45967D02*
X36487Y-45979D01*
X36499Y-46014D01*
X36499Y-46038D01*
X36487Y-46074D01*
X36463Y-46098D01*
X36440Y-46109D01*
X36392Y-46121D01*
X36356Y-46121D01*
X36309Y-46109D01*
X36285Y-46098D01*
X36261Y-46074D01*
X36249Y-46038D01*
X36249Y-46014D01*
X36261Y-45979D01*
X36273Y-45967D01*
X36249Y-45740D02*
X36249Y-45859D01*
X36368Y-45871D01*
X36356Y-45859D01*
X36344Y-45836D01*
X36344Y-45776D01*
X36356Y-45752D01*
X36368Y-45740D01*
X36392Y-45729D01*
X36452Y-45729D01*
X36475Y-45740D01*
X36487Y-45752D01*
X36499Y-45776D01*
X36499Y-45836D01*
X36487Y-45859D01*
X36475Y-45871D01*
X36292Y-45571D02*
X36280Y-45559D01*
X36268Y-45536D01*
X36268Y-45476D01*
X36280Y-45452D01*
X36292Y-45440D01*
X36316Y-45429D01*
X36340Y-45429D01*
X36375Y-45440D01*
X36518Y-45583D01*
X36518Y-45429D01*
X36292Y-45333D02*
X36280Y-45321D01*
X36268Y-45298D01*
X36268Y-45238D01*
X36280Y-45214D01*
X36292Y-45202D01*
X36316Y-45191D01*
X36340Y-45191D01*
X36375Y-45202D01*
X36518Y-45345D01*
X36518Y-45191D01*
X36352Y-44976D02*
X36518Y-44976D01*
X36352Y-45083D02*
X36482Y-45083D01*
X36506Y-45072D01*
X36518Y-45048D01*
X36518Y-45012D01*
X36506Y-44988D01*
X36494Y-44976D01*
X36352Y-44893D02*
X36352Y-44798D01*
X36518Y-44857D02*
X36304Y-44857D01*
X36280Y-44846D01*
X36268Y-44822D01*
X36268Y-44798D01*
X43699Y-51696D02*
X43711Y-51708D01*
X43723Y-51743D01*
X43723Y-51767D01*
X43711Y-51803D01*
X43687Y-51827D01*
X43664Y-51838D01*
X43616Y-51850D01*
X43580Y-51850D01*
X43533Y-51838D01*
X43509Y-51827D01*
X43485Y-51803D01*
X43473Y-51767D01*
X43473Y-51743D01*
X43485Y-51708D01*
X43497Y-51696D01*
X43723Y-51458D02*
X43723Y-51600D01*
X43723Y-51529D02*
X43473Y-51529D01*
X43509Y-51553D01*
X43533Y-51577D01*
X43545Y-51600D01*
X43557Y-51243D02*
X43723Y-51243D01*
X43461Y-51303D02*
X43640Y-51362D01*
X43640Y-51208D01*
X43369Y-50752D02*
X43369Y-50894D01*
X43369Y-50823D02*
X43119Y-50823D01*
X43155Y-50847D01*
X43179Y-50871D01*
X43191Y-50894D01*
X43119Y-50597D02*
X43119Y-50573D01*
X43131Y-50549D01*
X43143Y-50537D01*
X43167Y-50525D01*
X43214Y-50514D01*
X43274Y-50514D01*
X43322Y-50525D01*
X43345Y-50537D01*
X43357Y-50549D01*
X43369Y-50573D01*
X43369Y-50597D01*
X43357Y-50621D01*
X43345Y-50633D01*
X43322Y-50644D01*
X43274Y-50656D01*
X43214Y-50656D01*
X43167Y-50644D01*
X43143Y-50633D01*
X43131Y-50621D01*
X43119Y-50597D01*
X43119Y-50359D02*
X43119Y-50335D01*
X43131Y-50311D01*
X43143Y-50299D01*
X43167Y-50287D01*
X43214Y-50276D01*
X43274Y-50276D01*
X43322Y-50287D01*
X43345Y-50299D01*
X43357Y-50311D01*
X43369Y-50335D01*
X43369Y-50359D01*
X43357Y-50383D01*
X43345Y-50395D01*
X43322Y-50406D01*
X43274Y-50418D01*
X43214Y-50418D01*
X43167Y-50406D01*
X43143Y-50395D01*
X43131Y-50383D01*
X43119Y-50359D01*
X43203Y-50168D02*
X43369Y-50168D01*
X43226Y-50168D02*
X43214Y-50157D01*
X43203Y-50133D01*
X43203Y-50097D01*
X43214Y-50073D01*
X43238Y-50061D01*
X43369Y-50061D01*
X42282Y-48232D02*
X42294Y-48244D01*
X42306Y-48279D01*
X42306Y-48303D01*
X42294Y-48339D01*
X42270Y-48363D01*
X42247Y-48374D01*
X42199Y-48386D01*
X42163Y-48386D01*
X42116Y-48374D01*
X42092Y-48363D01*
X42068Y-48339D01*
X42056Y-48303D01*
X42056Y-48279D01*
X42068Y-48244D01*
X42080Y-48232D01*
X42306Y-47994D02*
X42306Y-48136D01*
X42306Y-48065D02*
X42056Y-48065D01*
X42092Y-48089D01*
X42116Y-48113D01*
X42128Y-48136D01*
X42056Y-47779D02*
X42056Y-47827D01*
X42068Y-47851D01*
X42080Y-47863D01*
X42116Y-47886D01*
X42163Y-47898D01*
X42259Y-47898D01*
X42282Y-47886D01*
X42294Y-47875D01*
X42306Y-47851D01*
X42306Y-47803D01*
X42294Y-47779D01*
X42282Y-47767D01*
X42259Y-47756D01*
X42199Y-47756D01*
X42175Y-47767D01*
X42163Y-47779D01*
X42151Y-47803D01*
X42151Y-47851D01*
X42163Y-47875D01*
X42175Y-47886D01*
X42199Y-47898D01*
X42306Y-49296D02*
X42306Y-49438D01*
X42306Y-49367D02*
X42056Y-49367D01*
X42092Y-49391D01*
X42116Y-49415D01*
X42128Y-49438D01*
X42056Y-49141D02*
X42056Y-49117D01*
X42068Y-49093D01*
X42080Y-49081D01*
X42104Y-49069D01*
X42151Y-49058D01*
X42211Y-49058D01*
X42259Y-49069D01*
X42282Y-49081D01*
X42294Y-49093D01*
X42306Y-49117D01*
X42306Y-49141D01*
X42294Y-49165D01*
X42282Y-49177D01*
X42259Y-49188D01*
X42211Y-49200D01*
X42151Y-49200D01*
X42104Y-49188D01*
X42080Y-49177D01*
X42068Y-49165D01*
X42056Y-49141D01*
X42056Y-48903D02*
X42056Y-48879D01*
X42068Y-48855D01*
X42080Y-48843D01*
X42104Y-48831D01*
X42151Y-48820D01*
X42211Y-48820D01*
X42259Y-48831D01*
X42282Y-48843D01*
X42294Y-48855D01*
X42306Y-48879D01*
X42306Y-48903D01*
X42294Y-48927D01*
X42282Y-48939D01*
X42259Y-48950D01*
X42211Y-48962D01*
X42151Y-48962D01*
X42104Y-48950D01*
X42080Y-48939D01*
X42068Y-48927D01*
X42056Y-48903D01*
X42140Y-48712D02*
X42306Y-48712D01*
X42163Y-48712D02*
X42151Y-48701D01*
X42140Y-48677D01*
X42140Y-48641D01*
X42151Y-48617D01*
X42175Y-48605D01*
X42306Y-48605D01*
X44865Y-47916D02*
X44746Y-47999D01*
X44865Y-48058D02*
X44615Y-48058D01*
X44615Y-47963D01*
X44627Y-47939D01*
X44639Y-47928D01*
X44663Y-47916D01*
X44699Y-47916D01*
X44722Y-47928D01*
X44734Y-47939D01*
X44746Y-47963D01*
X44746Y-48058D01*
X44615Y-47689D02*
X44615Y-47808D01*
X44734Y-47820D01*
X44722Y-47808D01*
X44710Y-47785D01*
X44710Y-47725D01*
X44722Y-47701D01*
X44734Y-47689D01*
X44758Y-47678D01*
X44818Y-47678D01*
X44841Y-47689D01*
X44853Y-47701D01*
X44865Y-47725D01*
X44865Y-47785D01*
X44853Y-47808D01*
X44841Y-47820D01*
X45093Y-48024D02*
X45259Y-48024D01*
X44997Y-48084D02*
X45176Y-48143D01*
X45176Y-47989D01*
X45009Y-47846D02*
X45009Y-47822D01*
X45021Y-47798D01*
X45033Y-47786D01*
X45057Y-47774D01*
X45104Y-47763D01*
X45164Y-47763D01*
X45212Y-47774D01*
X45235Y-47786D01*
X45247Y-47798D01*
X45259Y-47822D01*
X45259Y-47846D01*
X45247Y-47870D01*
X45235Y-47882D01*
X45212Y-47893D01*
X45164Y-47905D01*
X45104Y-47905D01*
X45057Y-47893D01*
X45033Y-47882D01*
X45021Y-47870D01*
X45009Y-47846D01*
X34407Y-44290D02*
X34395Y-44302D01*
X34360Y-44314D01*
X34336Y-44314D01*
X34300Y-44302D01*
X34276Y-44278D01*
X34265Y-44255D01*
X34253Y-44207D01*
X34253Y-44171D01*
X34265Y-44124D01*
X34276Y-44100D01*
X34300Y-44076D01*
X34336Y-44064D01*
X34360Y-44064D01*
X34395Y-44076D01*
X34407Y-44088D01*
X34645Y-44314D02*
X34503Y-44314D01*
X34574Y-44314D02*
X34574Y-44064D01*
X34550Y-44100D01*
X34526Y-44124D01*
X34503Y-44136D01*
X34011Y-44668D02*
X33869Y-44668D01*
X33940Y-44668D02*
X33940Y-44418D01*
X33916Y-44454D01*
X33892Y-44478D01*
X33869Y-44490D01*
X34166Y-44418D02*
X34190Y-44418D01*
X34214Y-44430D01*
X34226Y-44442D01*
X34238Y-44466D01*
X34249Y-44513D01*
X34249Y-44573D01*
X34238Y-44621D01*
X34226Y-44644D01*
X34214Y-44656D01*
X34190Y-44668D01*
X34166Y-44668D01*
X34142Y-44656D01*
X34130Y-44644D01*
X34119Y-44621D01*
X34107Y-44573D01*
X34107Y-44513D01*
X34119Y-44466D01*
X34130Y-44442D01*
X34142Y-44430D01*
X34166Y-44418D01*
X34404Y-44418D02*
X34428Y-44418D01*
X34452Y-44430D01*
X34464Y-44442D01*
X34476Y-44466D01*
X34487Y-44513D01*
X34487Y-44573D01*
X34476Y-44621D01*
X34464Y-44644D01*
X34452Y-44656D01*
X34428Y-44668D01*
X34404Y-44668D01*
X34380Y-44656D01*
X34368Y-44644D01*
X34357Y-44621D01*
X34345Y-44573D01*
X34345Y-44513D01*
X34357Y-44466D01*
X34368Y-44442D01*
X34380Y-44430D01*
X34404Y-44418D01*
X34595Y-44502D02*
X34595Y-44668D01*
X34595Y-44525D02*
X34606Y-44513D01*
X34630Y-44502D01*
X34666Y-44502D01*
X34690Y-44513D01*
X34702Y-44537D01*
X34702Y-44668D01*
X37734Y-44664D02*
X37722Y-44676D01*
X37687Y-44688D01*
X37663Y-44688D01*
X37627Y-44676D01*
X37603Y-44652D01*
X37592Y-44629D01*
X37580Y-44581D01*
X37580Y-44545D01*
X37592Y-44498D01*
X37603Y-44474D01*
X37627Y-44450D01*
X37663Y-44438D01*
X37687Y-44438D01*
X37722Y-44450D01*
X37734Y-44462D01*
X37949Y-44438D02*
X37901Y-44438D01*
X37877Y-44450D01*
X37865Y-44462D01*
X37842Y-44498D01*
X37830Y-44545D01*
X37830Y-44641D01*
X37842Y-44664D01*
X37853Y-44676D01*
X37877Y-44688D01*
X37925Y-44688D01*
X37949Y-44676D01*
X37961Y-44664D01*
X37972Y-44641D01*
X37972Y-44581D01*
X37961Y-44557D01*
X37949Y-44545D01*
X37925Y-44533D01*
X37877Y-44533D01*
X37853Y-44545D01*
X37842Y-44557D01*
X37830Y-44581D01*
X38263Y-44688D02*
X38121Y-44688D01*
X38192Y-44688D02*
X38192Y-44438D01*
X38168Y-44474D01*
X38144Y-44498D01*
X38121Y-44510D01*
X38418Y-44438D02*
X38442Y-44438D01*
X38466Y-44450D01*
X38478Y-44462D01*
X38490Y-44486D01*
X38501Y-44533D01*
X38501Y-44593D01*
X38490Y-44641D01*
X38478Y-44664D01*
X38466Y-44676D01*
X38442Y-44688D01*
X38418Y-44688D01*
X38394Y-44676D01*
X38382Y-44664D01*
X38371Y-44641D01*
X38359Y-44593D01*
X38359Y-44533D01*
X38371Y-44486D01*
X38382Y-44462D01*
X38394Y-44450D01*
X38418Y-44438D01*
X38656Y-44438D02*
X38680Y-44438D01*
X38704Y-44450D01*
X38716Y-44462D01*
X38728Y-44486D01*
X38739Y-44533D01*
X38739Y-44593D01*
X38728Y-44641D01*
X38716Y-44664D01*
X38704Y-44676D01*
X38680Y-44688D01*
X38656Y-44688D01*
X38632Y-44676D01*
X38620Y-44664D01*
X38609Y-44641D01*
X38597Y-44593D01*
X38597Y-44533D01*
X38609Y-44486D01*
X38620Y-44462D01*
X38632Y-44450D01*
X38656Y-44438D01*
X38847Y-44522D02*
X38847Y-44688D01*
X38847Y-44545D02*
X38858Y-44533D01*
X38882Y-44522D01*
X38918Y-44522D01*
X38942Y-44533D01*
X38954Y-44557D01*
X38954Y-44688D01*
G54D16*
X33139Y-49072D02*
X33473Y-49572D01*
X33473Y-49072D02*
X33139Y-49572D01*
X33639Y-49120D02*
X33663Y-49096D01*
X33711Y-49072D01*
X33830Y-49072D01*
X33877Y-49096D01*
X33901Y-49120D01*
X33925Y-49168D01*
X33925Y-49215D01*
X33901Y-49287D01*
X33615Y-49572D01*
X33925Y-49572D01*
G54D17*
X33502Y-52946D02*
X33826Y-52946D01*
X33864Y-52927D01*
X33883Y-52908D01*
X33902Y-52870D01*
X33902Y-52793D01*
X33883Y-52755D01*
X33864Y-52736D01*
X33826Y-52717D01*
X33502Y-52717D01*
X33883Y-52546D02*
X33902Y-52489D01*
X33902Y-52393D01*
X33883Y-52355D01*
X33864Y-52336D01*
X33826Y-52317D01*
X33788Y-52317D01*
X33750Y-52336D01*
X33730Y-52355D01*
X33711Y-52393D01*
X33692Y-52470D01*
X33673Y-52508D01*
X33654Y-52527D01*
X33616Y-52546D01*
X33578Y-52546D01*
X33540Y-52527D01*
X33521Y-52508D01*
X33502Y-52470D01*
X33502Y-52374D01*
X33521Y-52317D01*
X33692Y-52012D02*
X33711Y-51955D01*
X33730Y-51936D01*
X33769Y-51917D01*
X33826Y-51917D01*
X33864Y-51936D01*
X33883Y-51955D01*
X33902Y-51993D01*
X33902Y-52146D01*
X33502Y-52146D01*
X33502Y-52012D01*
X33521Y-51974D01*
X33540Y-51955D01*
X33578Y-51936D01*
X33616Y-51936D01*
X33654Y-51955D01*
X33673Y-51974D01*
X33692Y-52012D01*
X33692Y-52146D01*
G54D13*
X44131Y-51400D02*
X44048Y-51281D01*
X43989Y-51400D02*
X43989Y-51150D01*
X44084Y-51150D01*
X44108Y-51162D01*
X44119Y-51174D01*
X44131Y-51198D01*
X44131Y-51234D01*
X44119Y-51257D01*
X44108Y-51269D01*
X44084Y-51281D01*
X43989Y-51281D01*
X44346Y-51150D02*
X44298Y-51150D01*
X44274Y-51162D01*
X44262Y-51174D01*
X44239Y-51210D01*
X44227Y-51257D01*
X44227Y-51353D01*
X44239Y-51376D01*
X44250Y-51388D01*
X44274Y-51400D01*
X44322Y-51400D01*
X44346Y-51388D01*
X44358Y-51376D01*
X44369Y-51353D01*
X44369Y-51293D01*
X44358Y-51269D01*
X44346Y-51257D01*
X44322Y-51245D01*
X44274Y-51245D01*
X44250Y-51257D01*
X44239Y-51269D01*
X44227Y-51293D01*
X45677Y-50723D02*
X45677Y-50889D01*
X45617Y-50627D02*
X45558Y-50806D01*
X45712Y-50806D01*
X45855Y-50639D02*
X45879Y-50639D01*
X45903Y-50651D01*
X45915Y-50663D01*
X45927Y-50687D01*
X45938Y-50734D01*
X45938Y-50794D01*
X45927Y-50842D01*
X45915Y-50865D01*
X45903Y-50877D01*
X45879Y-50889D01*
X45855Y-50889D01*
X45831Y-50877D01*
X45819Y-50865D01*
X45808Y-50842D01*
X45796Y-50794D01*
X45796Y-50734D01*
X45808Y-50687D01*
X45819Y-50663D01*
X45831Y-50651D01*
X45855Y-50639D01*
X44092Y-52621D02*
X44009Y-52502D01*
X43950Y-52621D02*
X43950Y-52371D01*
X44045Y-52371D01*
X44069Y-52383D01*
X44080Y-52395D01*
X44092Y-52419D01*
X44092Y-52455D01*
X44080Y-52478D01*
X44069Y-52490D01*
X44045Y-52502D01*
X43950Y-52502D01*
X44211Y-52621D02*
X44259Y-52621D01*
X44283Y-52609D01*
X44295Y-52597D01*
X44319Y-52562D01*
X44330Y-52514D01*
X44330Y-52419D01*
X44319Y-52395D01*
X44307Y-52383D01*
X44283Y-52371D01*
X44235Y-52371D01*
X44211Y-52383D01*
X44200Y-52395D01*
X44188Y-52419D01*
X44188Y-52478D01*
X44200Y-52502D01*
X44211Y-52514D01*
X44235Y-52526D01*
X44283Y-52526D01*
X44307Y-52514D01*
X44319Y-52502D01*
X44330Y-52478D01*
X45913Y-52041D02*
X45913Y-52207D01*
X45853Y-51945D02*
X45794Y-52124D01*
X45948Y-52124D01*
X46091Y-51957D02*
X46115Y-51957D01*
X46139Y-51969D01*
X46151Y-51981D01*
X46163Y-52005D01*
X46174Y-52052D01*
X46174Y-52112D01*
X46163Y-52160D01*
X46151Y-52183D01*
X46139Y-52195D01*
X46115Y-52207D01*
X46091Y-52207D01*
X46067Y-52195D01*
X46055Y-52183D01*
X46044Y-52160D01*
X46032Y-52112D01*
X46032Y-52052D01*
X46044Y-52005D01*
X46055Y-51981D01*
X46067Y-51969D01*
X46091Y-51957D01*
X43894Y-53291D02*
X43811Y-53172D01*
X43752Y-53291D02*
X43752Y-53041D01*
X43847Y-53041D01*
X43871Y-53053D01*
X43882Y-53065D01*
X43894Y-53089D01*
X43894Y-53125D01*
X43882Y-53148D01*
X43871Y-53160D01*
X43847Y-53172D01*
X43752Y-53172D01*
X44132Y-53291D02*
X43990Y-53291D01*
X44061Y-53291D02*
X44061Y-53041D01*
X44037Y-53077D01*
X44013Y-53101D01*
X43990Y-53113D01*
X44287Y-53041D02*
X44311Y-53041D01*
X44335Y-53053D01*
X44347Y-53065D01*
X44359Y-53089D01*
X44370Y-53136D01*
X44370Y-53196D01*
X44359Y-53244D01*
X44347Y-53267D01*
X44335Y-53279D01*
X44311Y-53291D01*
X44287Y-53291D01*
X44263Y-53279D01*
X44251Y-53267D01*
X44240Y-53244D01*
X44228Y-53196D01*
X44228Y-53136D01*
X44240Y-53089D01*
X44251Y-53065D01*
X44263Y-53053D01*
X44287Y-53041D01*
X45972Y-53026D02*
X45972Y-53192D01*
X45912Y-52930D02*
X45853Y-53109D01*
X46007Y-53109D01*
X46150Y-52942D02*
X46174Y-52942D01*
X46198Y-52954D01*
X46210Y-52966D01*
X46222Y-52990D01*
X46233Y-53037D01*
X46233Y-53097D01*
X46222Y-53145D01*
X46210Y-53168D01*
X46198Y-53180D01*
X46174Y-53192D01*
X46150Y-53192D01*
X46126Y-53180D01*
X46114Y-53168D01*
X46103Y-53145D01*
X46091Y-53097D01*
X46091Y-53037D01*
X46103Y-52990D01*
X46114Y-52966D01*
X46126Y-52954D01*
X46150Y-52942D01*
G54D18*
X51239Y-54007D02*
X51207Y-54048D01*
X51207Y-54109D01*
X51239Y-54170D01*
X51305Y-54211D01*
X51370Y-54231D01*
X51500Y-54251D01*
X51597Y-54251D01*
X51727Y-54231D01*
X51792Y-54211D01*
X51857Y-54170D01*
X51890Y-54109D01*
X51890Y-54068D01*
X51857Y-54007D01*
X51825Y-53987D01*
X51597Y-53987D01*
X51597Y-54068D01*
X51825Y-53559D02*
X51857Y-53579D01*
X51890Y-53640D01*
X51890Y-53681D01*
X51857Y-53742D01*
X51792Y-53783D01*
X51727Y-53803D01*
X51597Y-53823D01*
X51500Y-53823D01*
X51370Y-53803D01*
X51305Y-53783D01*
X51239Y-53742D01*
X51207Y-53681D01*
X51207Y-53640D01*
X51239Y-53579D01*
X51272Y-53559D01*
X51890Y-53151D02*
X51890Y-53395D01*
X51890Y-53273D02*
X51207Y-53273D01*
X51305Y-53314D01*
X51370Y-53355D01*
X51402Y-53395D01*
G54D17*
G54D14*
X48075Y-56818D02*
X47675Y-56818D01*
X48075Y-56589D01*
X47675Y-56589D01*
X48075Y-56170D02*
X47884Y-56304D01*
X48075Y-56399D02*
X47675Y-56399D01*
X47675Y-56246D01*
X47694Y-56208D01*
X47713Y-56189D01*
X47751Y-56170D01*
X47808Y-56170D01*
X47846Y-56189D01*
X47865Y-56208D01*
X47884Y-56246D01*
X47884Y-56399D01*
X47865Y-55865D02*
X47865Y-55999D01*
X48075Y-55999D02*
X47675Y-55999D01*
X47675Y-55808D01*
X48075Y-55446D02*
X48075Y-55675D01*
X48075Y-55561D02*
X47675Y-55561D01*
X47732Y-55599D01*
X47770Y-55637D01*
X47789Y-55675D01*
X49768Y-57401D02*
X49368Y-57401D01*
X49368Y-57248D01*
X49387Y-57210D01*
X49406Y-57191D01*
X49444Y-57172D01*
X49501Y-57172D01*
X49539Y-57191D01*
X49558Y-57210D01*
X49577Y-57248D01*
X49577Y-57401D01*
X49768Y-56772D02*
X49577Y-56906D01*
X49768Y-57001D02*
X49368Y-57001D01*
X49368Y-56848D01*
X49387Y-56810D01*
X49406Y-56791D01*
X49444Y-56772D01*
X49501Y-56772D01*
X49539Y-56791D01*
X49558Y-56810D01*
X49577Y-56848D01*
X49577Y-57001D01*
X49368Y-56525D02*
X49368Y-56448D01*
X49387Y-56410D01*
X49425Y-56372D01*
X49501Y-56353D01*
X49635Y-56353D01*
X49711Y-56372D01*
X49749Y-56410D01*
X49768Y-56448D01*
X49768Y-56525D01*
X49749Y-56563D01*
X49711Y-56601D01*
X49635Y-56620D01*
X49501Y-56620D01*
X49425Y-56601D01*
X49387Y-56563D01*
X49368Y-56525D01*
X49387Y-55972D02*
X49368Y-56010D01*
X49368Y-56067D01*
X49387Y-56125D01*
X49425Y-56163D01*
X49463Y-56182D01*
X49539Y-56201D01*
X49596Y-56201D01*
X49673Y-56182D01*
X49711Y-56163D01*
X49749Y-56125D01*
X49768Y-56067D01*
X49768Y-56029D01*
X49749Y-55972D01*
X49730Y-55953D01*
X49596Y-55953D01*
X49596Y-56029D01*
X49768Y-55572D02*
X49768Y-55801D01*
X49768Y-55687D02*
X49368Y-55687D01*
X49425Y-55725D01*
X49463Y-55763D01*
X49482Y-55801D01*
G54D19*
X47353Y-41374D02*
X47417Y-41407D01*
X47439Y-41440D01*
X47460Y-41507D01*
X47460Y-41607D01*
X47439Y-41674D01*
X47417Y-41707D01*
X47375Y-41740D01*
X47203Y-41740D01*
X47203Y-41040D01*
X47353Y-41040D01*
X47396Y-41074D01*
X47417Y-41107D01*
X47439Y-41174D01*
X47439Y-41240D01*
X47417Y-41307D01*
X47396Y-41340D01*
X47353Y-41374D01*
X47203Y-41374D01*
X47632Y-41540D02*
X47846Y-41540D01*
X47589Y-41740D02*
X47739Y-41040D01*
X47889Y-41740D01*
X48296Y-41740D02*
X48146Y-41407D01*
X48039Y-41740D02*
X48039Y-41040D01*
X48211Y-41040D01*
X48253Y-41074D01*
X48275Y-41107D01*
X48296Y-41174D01*
X48296Y-41274D01*
X48275Y-41340D01*
X48253Y-41374D01*
X48211Y-41407D01*
X48039Y-41407D01*
X48725Y-41740D02*
X48468Y-41740D01*
X48596Y-41740D02*
X48596Y-41040D01*
X48553Y-41140D01*
X48511Y-41207D01*
X48468Y-41240D01*
G54D15*
X39429Y-45638D02*
X39429Y-45723D01*
X39423Y-45740D01*
X39412Y-45752D01*
X39395Y-45758D01*
X39383Y-45758D01*
X39486Y-45758D02*
X39486Y-45638D01*
X39531Y-45638D01*
X39543Y-45643D01*
X39548Y-45649D01*
X39554Y-45660D01*
X39554Y-45678D01*
X39548Y-45689D01*
X39543Y-45695D01*
X39531Y-45700D01*
X39486Y-45700D01*
X39600Y-45649D02*
X39606Y-45643D01*
X39617Y-45638D01*
X39646Y-45638D01*
X39657Y-45643D01*
X39663Y-45649D01*
X39668Y-45660D01*
X39668Y-45672D01*
X39663Y-45689D01*
X39594Y-45758D01*
X39668Y-45758D01*
X38728Y-45388D02*
X38728Y-45473D01*
X38722Y-45490D01*
X38711Y-45502D01*
X38694Y-45508D01*
X38682Y-45508D01*
X38785Y-45388D02*
X38785Y-45485D01*
X38790Y-45496D01*
X38796Y-45502D01*
X38807Y-45508D01*
X38830Y-45508D01*
X38842Y-45502D01*
X38847Y-45496D01*
X38853Y-45485D01*
X38853Y-45388D01*
X38911Y-45508D02*
X38911Y-45388D01*
X38951Y-45473D01*
X38991Y-45388D01*
X38991Y-45508D01*
X39048Y-45508D02*
X39048Y-45388D01*
X39093Y-45388D01*
X39105Y-45393D01*
X39110Y-45399D01*
X39116Y-45410D01*
X39116Y-45428D01*
X39110Y-45439D01*
X39105Y-45445D01*
X39093Y-45450D01*
X39048Y-45450D01*
X39168Y-45445D02*
X39208Y-45445D01*
X39225Y-45508D02*
X39168Y-45508D01*
X39168Y-45388D01*
X39225Y-45388D01*
X39345Y-45508D02*
X39305Y-45450D01*
X39277Y-45508D02*
X39277Y-45388D01*
X39322Y-45388D01*
X39334Y-45393D01*
X39339Y-45399D01*
X39345Y-45410D01*
X39345Y-45428D01*
X39339Y-45439D01*
X39334Y-45445D01*
X39322Y-45450D01*
X39277Y-45450D01*
X39468Y-46346D02*
X39468Y-46431D01*
X39462Y-46448D01*
X39451Y-46460D01*
X39434Y-46466D01*
X39422Y-46466D01*
X39525Y-46466D02*
X39525Y-46346D01*
X39570Y-46346D01*
X39582Y-46351D01*
X39587Y-46357D01*
X39593Y-46368D01*
X39593Y-46386D01*
X39587Y-46397D01*
X39582Y-46403D01*
X39570Y-46408D01*
X39525Y-46408D01*
X39707Y-46466D02*
X39639Y-46466D01*
X39673Y-46466D02*
X39673Y-46346D01*
X39662Y-46363D01*
X39650Y-46374D01*
X39639Y-46380D01*
X38728Y-46096D02*
X38728Y-46181D01*
X38722Y-46198D01*
X38711Y-46210D01*
X38694Y-46216D01*
X38682Y-46216D01*
X38785Y-46096D02*
X38785Y-46193D01*
X38790Y-46204D01*
X38796Y-46210D01*
X38807Y-46216D01*
X38830Y-46216D01*
X38842Y-46210D01*
X38847Y-46204D01*
X38853Y-46193D01*
X38853Y-46096D01*
X38911Y-46216D02*
X38911Y-46096D01*
X38951Y-46181D01*
X38991Y-46096D01*
X38991Y-46216D01*
X39048Y-46216D02*
X39048Y-46096D01*
X39093Y-46096D01*
X39105Y-46101D01*
X39110Y-46107D01*
X39116Y-46118D01*
X39116Y-46136D01*
X39110Y-46147D01*
X39105Y-46153D01*
X39093Y-46158D01*
X39048Y-46158D01*
X39168Y-46153D02*
X39208Y-46153D01*
X39225Y-46216D02*
X39168Y-46216D01*
X39168Y-46096D01*
X39225Y-46096D01*
X39345Y-46216D02*
X39305Y-46158D01*
X39277Y-46216D02*
X39277Y-46096D01*
X39322Y-46096D01*
X39334Y-46101D01*
X39339Y-46107D01*
X39345Y-46118D01*
X39345Y-46136D01*
X39339Y-46147D01*
X39334Y-46153D01*
X39322Y-46158D01*
X39277Y-46158D01*
G54D20*
X51939Y-44619D02*
X51234Y-44619D01*
X51939Y-44377D01*
X51234Y-44377D01*
X51234Y-43993D02*
X51234Y-44074D01*
X51267Y-44114D01*
X51301Y-44135D01*
X51402Y-44175D01*
X51536Y-44195D01*
X51805Y-44195D01*
X51872Y-44175D01*
X51905Y-44155D01*
X51939Y-44114D01*
X51939Y-44034D01*
X51905Y-43993D01*
X51872Y-43973D01*
X51805Y-43953D01*
X51637Y-43953D01*
X51570Y-43973D01*
X51536Y-43993D01*
X51502Y-44034D01*
X51502Y-44114D01*
X51536Y-44155D01*
X51570Y-44175D01*
X51637Y-44195D01*
X51469Y-43589D02*
X51939Y-43589D01*
X51200Y-43690D02*
X51704Y-43791D01*
X51704Y-43529D01*
G54D17*
G54D21*
X42496Y-42813D02*
X42759Y-43213D01*
X42759Y-42813D02*
X42496Y-43213D01*
X43115Y-43213D02*
X42890Y-43213D01*
X43003Y-43213D02*
X43003Y-42813D01*
X42965Y-42870D01*
X42928Y-42908D01*
X42890Y-42927D01*
G54D14*
X42219Y-43804D02*
X41994Y-43804D01*
X42107Y-43804D02*
X42107Y-43404D01*
X42069Y-43461D01*
X42032Y-43499D01*
X41994Y-43518D01*
X42369Y-43442D02*
X42388Y-43423D01*
X42425Y-43404D01*
X42519Y-43404D01*
X42557Y-43423D01*
X42575Y-43442D01*
X42594Y-43480D01*
X42594Y-43518D01*
X42575Y-43575D01*
X42350Y-43804D01*
X42594Y-43804D01*
X42763Y-43804D02*
X42763Y-43537D01*
X42763Y-43575D02*
X42782Y-43556D01*
X42819Y-43537D01*
X42875Y-43537D01*
X42913Y-43556D01*
X42932Y-43594D01*
X42932Y-43804D01*
X42932Y-43594D02*
X42950Y-43556D01*
X42988Y-43537D01*
X43044Y-43537D01*
X43082Y-43556D01*
X43101Y-43594D01*
X43101Y-43804D01*
X43288Y-43804D02*
X43288Y-43404D01*
X43457Y-43804D02*
X43457Y-43594D01*
X43438Y-43556D01*
X43400Y-43537D01*
X43344Y-43537D01*
X43307Y-43556D01*
X43288Y-43575D01*
X43606Y-43537D02*
X43813Y-43537D01*
X43606Y-43804D01*
X43813Y-43804D01*
%LPC*%
G54D22*
X40873Y-48316D03*
X40873Y-48631D03*
X40873Y-48946D03*
X40873Y-49261D03*
X40873Y-49576D03*
X40873Y-49891D03*
X40873Y-50206D03*
X40873Y-50521D03*
X37107Y-50519D03*
X37107Y-48309D03*
X37107Y-48629D03*
X37107Y-48949D03*
X37107Y-49259D03*
X37107Y-49579D03*
X37107Y-49889D03*
X37107Y-50209D03*
G54D23*
X40089Y-51309D03*
X39775Y-51309D03*
X39459Y-51309D03*
X39145Y-51309D03*
X38829Y-51309D03*
X38515Y-51309D03*
X38199Y-51309D03*
X37885Y-51309D03*
X40087Y-47529D03*
X39777Y-47529D03*
X39457Y-47529D03*
X39147Y-47529D03*
X38837Y-47529D03*
X38517Y-47529D03*
X38197Y-47529D03*
X37877Y-47529D03*
G54D24*
X36929Y-53098D03*
X36554Y-52098D03*
X37304Y-52098D03*
X35039Y-53098D03*
X34664Y-52098D03*
X35414Y-52098D03*
G54D25*
X38781Y-40905D03*
G54D26*
X38781Y-43505D03*
X39681Y-43505D03*
X37881Y-43505D03*
G54D27*
X35848Y-45433D03*
X35098Y-45433D03*
X35847Y-46339D03*
X35097Y-46339D03*
G54D28*
X39567Y-53131D03*
X39567Y-52381D03*
X40551Y-53131D03*
X40551Y-52381D03*
X42520Y-50117D03*
X42520Y-50867D03*
X50591Y-46832D03*
X50591Y-46082D03*
X45040Y-45808D03*
X45040Y-45058D03*
X40354Y-45294D03*
X40354Y-46044D03*
X36655Y-43011D03*
X36655Y-43761D03*
X36655Y-41515D03*
X36655Y-42265D03*
X36982Y-45137D03*
X36982Y-45887D03*
X43799Y-50117D03*
X43799Y-50867D03*
X42835Y-48879D03*
X42835Y-48129D03*
X44764Y-48523D03*
X44764Y-49273D03*
G54D27*
X35848Y-44528D03*
X35098Y-44528D03*
G54D28*
X37966Y-45137D03*
X37966Y-45887D03*
G54D29*
X35827Y-49370D03*
X35827Y-49056D03*
X35827Y-49999D03*
X35827Y-49684D03*
G54D30*
X33662Y-51141D03*
X33662Y-47599D03*
X35827Y-51102D03*
X35827Y-47599D03*
G54D31*
X34843Y-48504D03*
X34843Y-50236D03*
G54D29*
X35827Y-48741D03*
G54D27*
X45454Y-51339D03*
X44704Y-51339D03*
X45454Y-52205D03*
X44704Y-52205D03*
X45454Y-53071D03*
X44704Y-53071D03*
G54D32*
X51575Y-49484D03*
G54D33*
X51575Y-50484D03*
X51575Y-51484D03*
X51575Y-52484D03*
G54D34*
X46878Y-58299D03*
G54D35*
X45878Y-58299D03*
X46878Y-57299D03*
X45878Y-57299D03*
X46878Y-56299D03*
X45878Y-56299D03*
X46878Y-55299D03*
X45878Y-55299D03*
X46878Y-54299D03*
X45878Y-54299D03*
G54D34*
X50484Y-55496D03*
G54D35*
X51484Y-55496D03*
X50484Y-56496D03*
X51484Y-56496D03*
X50484Y-57496D03*
X51484Y-57496D03*
G54D32*
X46453Y-43531D03*
G54D33*
X46453Y-44531D03*
X46453Y-45531D03*
X46453Y-46531D03*
X46453Y-47531D03*
X46453Y-48531D03*
X46453Y-49531D03*
X46453Y-50531D03*
X46453Y-51531D03*
X46453Y-52531D03*
X49453Y-52531D03*
X49453Y-51531D03*
X49453Y-50531D03*
X49453Y-49531D03*
X49453Y-48531D03*
X49453Y-47531D03*
X49453Y-46531D03*
X49453Y-45531D03*
X49453Y-44531D03*
X49453Y-43531D03*
G54D36*
X38839Y-45709D03*
X39193Y-45709D03*
X38839Y-46417D03*
X39193Y-46417D03*
G54D32*
X51575Y-45457D03*
G54D33*
X51575Y-46457D03*
X51575Y-47457D03*
G54D37*
X34882Y-41378D03*
X51103Y-41378D03*
X40197Y-57795D03*
G54D38*
X41477Y-46043D03*
X43957Y-46043D03*
X41477Y-45059D03*
X43957Y-45059D03*
M02*
