G04 (created by PCBNEW-RS274X (2012-01-19 BZR 3256)-stable) date 09-06-2012 12:03:24*
G01*
G70*
G90*
%MOIN*%
G04 Gerber Fmt 3.4, Leading zero omitted, Abs format*
%FSLAX34Y34*%
G04 APERTURE LIST*
%ADD10C,0.006000*%
%ADD11C,0.015000*%
%ADD12R,0.075000X0.075000*%
%ADD13C,0.075000*%
%ADD14R,0.080000X0.080000*%
%ADD15C,0.080000*%
%ADD16C,0.180000*%
G04 APERTURE END LIST*
G54D10*
G54D11*
X47638Y-59449D02*
X47740Y-59444D01*
X47843Y-59431D01*
X47943Y-59408D01*
X48041Y-59377D01*
X48137Y-59338D01*
X48228Y-59290D01*
X48315Y-59235D01*
X48397Y-59172D01*
X48473Y-59103D01*
X48542Y-59027D01*
X48605Y-58945D01*
X48660Y-58858D01*
X48708Y-58767D01*
X48747Y-58671D01*
X48778Y-58573D01*
X48801Y-58473D01*
X48814Y-58370D01*
X48819Y-58268D01*
X48819Y-40945D02*
X48814Y-40843D01*
X48801Y-40740D01*
X48778Y-40640D01*
X48747Y-40542D01*
X48708Y-40446D01*
X48660Y-40355D01*
X48605Y-40268D01*
X48542Y-40186D01*
X48473Y-40110D01*
X48397Y-40041D01*
X48315Y-39978D01*
X48228Y-39923D01*
X48137Y-39875D01*
X48041Y-39836D01*
X47943Y-39805D01*
X47843Y-39782D01*
X47740Y-39769D01*
X47638Y-39764D01*
X29134Y-58268D02*
X29139Y-58370D01*
X29152Y-58473D01*
X29175Y-58573D01*
X29206Y-58671D01*
X29245Y-58767D01*
X29293Y-58858D01*
X29348Y-58945D01*
X29411Y-59027D01*
X29480Y-59103D01*
X29556Y-59172D01*
X29638Y-59235D01*
X29725Y-59290D01*
X29816Y-59338D01*
X29912Y-59377D01*
X30010Y-59408D01*
X30110Y-59431D01*
X30213Y-59444D01*
X30315Y-59449D01*
X30315Y-39764D02*
X30213Y-39769D01*
X30110Y-39782D01*
X30010Y-39805D01*
X29912Y-39836D01*
X29816Y-39875D01*
X29725Y-39923D01*
X29638Y-39978D01*
X29556Y-40041D01*
X29480Y-40110D01*
X29411Y-40186D01*
X29348Y-40268D01*
X29293Y-40355D01*
X29245Y-40446D01*
X29206Y-40542D01*
X29175Y-40640D01*
X29152Y-40740D01*
X29139Y-40843D01*
X29134Y-40945D01*
X29134Y-58268D02*
X29134Y-40945D01*
X47638Y-59449D02*
X30315Y-59449D01*
X48819Y-40945D02*
X48819Y-58268D01*
X30315Y-39764D02*
X47638Y-39764D01*
G54D12*
X47441Y-49484D03*
G54D13*
X47441Y-50484D03*
X47441Y-51484D03*
X47441Y-52484D03*
G54D12*
X47441Y-45457D03*
G54D13*
X47441Y-46457D03*
X47441Y-47457D03*
G54D12*
X38280Y-43504D03*
G54D13*
X39280Y-43504D03*
G54D12*
X38241Y-41142D03*
G54D13*
X39241Y-41142D03*
G54D14*
X46547Y-55496D03*
G54D15*
X47547Y-55496D03*
X46547Y-56496D03*
X47547Y-56496D03*
X46547Y-57496D03*
X47547Y-57496D03*
G54D14*
X42921Y-58299D03*
G54D15*
X41921Y-58299D03*
X42921Y-57299D03*
X41921Y-57299D03*
X42921Y-56299D03*
X41921Y-56299D03*
X42921Y-55299D03*
X41921Y-55299D03*
X42921Y-54299D03*
X41921Y-54299D03*
G54D16*
X30315Y-40945D03*
X47638Y-40945D03*
X38976Y-57874D03*
M02*
