G04 (created by PCBNEW-RS274X (2012-01-19 BZR 3256)-stable) date 09-06-2012 12:03:23*
G01*
G70*
G90*
%MOIN*%
G04 Gerber Fmt 3.4, Leading zero omitted, Abs format*
%FSLAX34Y34*%
G04 APERTURE LIST*
%ADD10C,0.006000*%
%ADD11C,0.015000*%
%ADD12R,0.078700X0.017700*%
%ADD13R,0.017700X0.078700*%
%ADD14R,0.027600X0.039400*%
%ADD15R,0.144000X0.080000*%
%ADD16R,0.040000X0.080000*%
%ADD17R,0.035000X0.055000*%
%ADD18R,0.055000X0.035000*%
%ADD19R,0.055000X0.055000*%
%ADD20C,0.055000*%
%ADD21R,0.216500X0.078700*%
%ADD22R,0.060000X0.060000*%
%ADD23C,0.060000*%
%ADD24R,0.098400X0.019600*%
%ADD25R,0.098400X0.078700*%
%ADD26C,0.055400*%
%ADD27C,0.160000*%
%ADD28C,0.035000*%
%ADD29C,0.010000*%
G04 APERTURE END LIST*
G54D10*
G54D11*
X47638Y-59449D02*
X47740Y-59444D01*
X47843Y-59431D01*
X47943Y-59408D01*
X48041Y-59377D01*
X48137Y-59338D01*
X48228Y-59290D01*
X48315Y-59235D01*
X48397Y-59172D01*
X48473Y-59103D01*
X48542Y-59027D01*
X48605Y-58945D01*
X48660Y-58858D01*
X48708Y-58767D01*
X48747Y-58671D01*
X48778Y-58573D01*
X48801Y-58473D01*
X48814Y-58370D01*
X48819Y-58268D01*
X48819Y-40945D02*
X48814Y-40843D01*
X48801Y-40740D01*
X48778Y-40640D01*
X48747Y-40542D01*
X48708Y-40446D01*
X48660Y-40355D01*
X48605Y-40268D01*
X48542Y-40186D01*
X48473Y-40110D01*
X48397Y-40041D01*
X48315Y-39978D01*
X48228Y-39923D01*
X48137Y-39875D01*
X48041Y-39836D01*
X47943Y-39805D01*
X47843Y-39782D01*
X47740Y-39769D01*
X47638Y-39764D01*
X29134Y-58268D02*
X29139Y-58370D01*
X29152Y-58473D01*
X29175Y-58573D01*
X29206Y-58671D01*
X29245Y-58767D01*
X29293Y-58858D01*
X29348Y-58945D01*
X29411Y-59027D01*
X29480Y-59103D01*
X29556Y-59172D01*
X29638Y-59235D01*
X29725Y-59290D01*
X29816Y-59338D01*
X29912Y-59377D01*
X30010Y-59408D01*
X30110Y-59431D01*
X30213Y-59444D01*
X30315Y-59449D01*
X30315Y-39764D02*
X30213Y-39769D01*
X30110Y-39782D01*
X30010Y-39805D01*
X29912Y-39836D01*
X29816Y-39875D01*
X29725Y-39923D01*
X29638Y-39978D01*
X29556Y-40041D01*
X29480Y-40110D01*
X29411Y-40186D01*
X29348Y-40268D01*
X29293Y-40355D01*
X29245Y-40446D01*
X29206Y-40542D01*
X29175Y-40640D01*
X29152Y-40740D01*
X29139Y-40843D01*
X29134Y-40945D01*
X29134Y-58268D02*
X29134Y-40945D01*
X47638Y-59449D02*
X30315Y-59449D01*
X48819Y-40945D02*
X48819Y-58268D01*
X30315Y-39764D02*
X47638Y-39764D01*
G54D12*
X40676Y-48316D03*
X40676Y-48631D03*
X40676Y-48946D03*
X40676Y-49261D03*
X40676Y-49576D03*
X40676Y-49891D03*
X40676Y-50206D03*
X40676Y-50521D03*
X36910Y-50519D03*
X36910Y-48309D03*
X36910Y-48629D03*
X36910Y-48949D03*
X36910Y-49259D03*
X36910Y-49579D03*
X36910Y-49889D03*
X36910Y-50209D03*
G54D13*
X39892Y-51309D03*
X39578Y-51309D03*
X39262Y-51309D03*
X38948Y-51309D03*
X38632Y-51309D03*
X38318Y-51309D03*
X38002Y-51309D03*
X37688Y-51309D03*
X39890Y-47529D03*
X39580Y-47529D03*
X39260Y-47529D03*
X38950Y-47529D03*
X38640Y-47529D03*
X38320Y-47529D03*
X38000Y-47529D03*
X37680Y-47529D03*
G54D14*
X33976Y-52783D03*
X33601Y-51783D03*
X34351Y-51783D03*
X35394Y-52783D03*
X35019Y-51783D03*
X35769Y-51783D03*
G54D15*
X34843Y-40826D03*
G54D16*
X34843Y-43426D03*
X35743Y-43426D03*
X33943Y-43426D03*
G54D17*
X34036Y-45866D03*
X33286Y-45866D03*
G54D18*
X34016Y-48208D03*
X34016Y-48958D03*
X39370Y-53131D03*
X39370Y-52381D03*
X40354Y-53131D03*
X40354Y-52381D03*
X42323Y-50117D03*
X42323Y-50867D03*
X46457Y-46832D03*
X46457Y-46082D03*
G54D17*
X43719Y-43898D03*
X44469Y-43898D03*
X41517Y-43898D03*
X40767Y-43898D03*
G54D18*
X32717Y-42932D03*
X32717Y-43682D03*
X32717Y-41436D03*
X32717Y-42186D03*
X36024Y-44704D03*
X36024Y-45454D03*
X43602Y-50117D03*
X43602Y-50867D03*
X42520Y-48247D03*
X42520Y-48997D03*
G54D17*
X35176Y-50197D03*
X35926Y-50197D03*
X34036Y-44685D03*
X33286Y-44685D03*
G54D18*
X37008Y-44704D03*
X37008Y-45454D03*
G54D19*
X47441Y-49484D03*
G54D20*
X47441Y-50484D03*
X47441Y-51484D03*
X47441Y-52484D03*
G54D19*
X47441Y-45457D03*
G54D20*
X47441Y-46457D03*
X47441Y-47457D03*
G54D19*
X38280Y-43504D03*
G54D20*
X39280Y-43504D03*
G54D19*
X38241Y-41142D03*
G54D20*
X39241Y-41142D03*
G54D21*
X44468Y-45571D03*
X40768Y-45571D03*
G54D22*
X46547Y-55496D03*
G54D23*
X47547Y-55496D03*
X46547Y-56496D03*
X47547Y-56496D03*
X46547Y-57496D03*
X47547Y-57496D03*
G54D24*
X32480Y-49409D03*
X32480Y-49095D03*
X32480Y-50038D03*
X32480Y-49723D03*
G54D25*
X30315Y-51180D03*
X30315Y-47638D03*
X32480Y-51141D03*
X32480Y-47638D03*
G54D26*
X31496Y-48543D03*
X31496Y-50275D03*
G54D24*
X32480Y-48780D03*
G54D22*
X42921Y-58299D03*
G54D23*
X41921Y-58299D03*
X42921Y-57299D03*
X41921Y-57299D03*
X42921Y-56299D03*
X41921Y-56299D03*
X42921Y-55299D03*
X41921Y-55299D03*
X42921Y-54299D03*
X41921Y-54299D03*
G54D27*
X30315Y-40945D03*
X47638Y-40945D03*
X38976Y-57874D03*
G54D28*
X45276Y-48504D03*
X39724Y-48504D03*
X44291Y-50098D03*
X37992Y-46752D03*
X38880Y-48258D03*
X39094Y-49291D03*
X36614Y-47736D03*
X37992Y-48307D03*
X37992Y-53583D03*
X38976Y-50492D03*
X33622Y-51102D03*
X34803Y-48937D03*
X35829Y-48309D03*
X34843Y-45866D03*
G54D29*
X39862Y-48425D02*
X39724Y-48504D01*
X43898Y-56322D02*
X42921Y-57299D01*
X39862Y-47360D02*
X39862Y-48327D01*
X44882Y-50886D02*
X45276Y-50492D01*
X44882Y-55338D02*
X44882Y-50886D01*
X44390Y-55830D02*
X42921Y-57299D01*
X39890Y-47529D02*
X39862Y-47360D01*
X44390Y-55830D02*
X44882Y-55338D01*
X39862Y-48327D02*
X39862Y-48425D01*
X45276Y-50492D02*
X45276Y-48504D01*
X41636Y-50526D02*
X41316Y-50206D01*
X41636Y-51156D02*
X41636Y-50526D01*
X42434Y-51954D02*
X41636Y-51156D01*
X42434Y-56791D02*
X42434Y-51954D01*
X41926Y-57299D02*
X42434Y-56791D01*
X41316Y-50206D02*
X40676Y-50206D01*
X41921Y-57299D02*
X41926Y-57299D01*
X35743Y-43426D02*
X35743Y-44010D01*
X44272Y-50117D02*
X44291Y-50098D01*
X41437Y-49606D02*
X41467Y-49576D01*
X42206Y-50000D02*
X42323Y-50117D01*
X46556Y-45472D02*
X46457Y-45571D01*
X42323Y-50117D02*
X43602Y-50117D01*
X37598Y-50197D02*
X36922Y-50197D01*
X37992Y-46752D02*
X37992Y-46654D01*
X45964Y-46457D02*
X45964Y-46457D01*
X36024Y-44704D02*
X37008Y-44704D01*
X35743Y-43586D02*
X35743Y-43426D01*
X41467Y-49576D02*
X40676Y-49576D01*
X46339Y-46082D02*
X46457Y-46082D01*
X33956Y-41436D02*
X35743Y-43223D01*
X41831Y-50000D02*
X42206Y-50000D01*
X41437Y-49606D02*
X41831Y-50000D01*
X37598Y-46260D02*
X37598Y-44881D01*
X46556Y-45472D02*
X46556Y-45472D01*
X36922Y-50197D02*
X36910Y-50209D01*
X38465Y-49332D02*
X37795Y-50000D01*
X42520Y-48247D02*
X42403Y-48247D01*
X36024Y-44291D02*
X36024Y-44704D01*
X38878Y-48920D02*
X38465Y-49332D01*
X47047Y-55996D02*
X47547Y-55496D01*
X47047Y-57874D02*
X47047Y-55996D01*
X42921Y-58299D02*
X46622Y-58299D01*
X46622Y-58299D02*
X47047Y-57874D01*
X43602Y-50117D02*
X44272Y-50117D01*
X41269Y-48946D02*
X41634Y-48946D01*
X46457Y-45571D02*
X46457Y-46082D01*
X37421Y-44704D02*
X37008Y-44704D01*
X38852Y-48946D02*
X38878Y-48920D01*
X37598Y-44881D02*
X37421Y-44704D01*
X40676Y-48946D02*
X38852Y-48946D01*
X38878Y-48920D02*
X38880Y-48258D01*
X35743Y-44010D02*
X36024Y-44291D01*
X42422Y-48247D02*
X42520Y-48247D01*
X45964Y-46457D02*
X46339Y-46082D01*
X40676Y-48946D02*
X41269Y-48946D01*
X36910Y-48629D02*
X37763Y-48629D01*
X41634Y-48946D02*
X41723Y-48946D01*
X37763Y-48629D02*
X38465Y-49331D01*
X46457Y-46082D02*
X46536Y-46082D01*
X36898Y-50197D02*
X36910Y-50209D01*
X41634Y-48946D02*
X41634Y-49409D01*
X32717Y-41436D02*
X33956Y-41436D01*
X41634Y-49409D02*
X41437Y-49606D01*
X35743Y-43223D02*
X35743Y-43426D01*
X42520Y-48247D02*
X44174Y-48247D01*
X44174Y-48247D02*
X45964Y-46457D01*
X46556Y-45472D02*
X47426Y-45472D01*
X41723Y-48946D02*
X42422Y-48247D01*
X38465Y-49331D02*
X38465Y-49332D01*
X37992Y-46654D02*
X37598Y-46260D01*
X35926Y-50197D02*
X36898Y-50197D01*
X47426Y-45472D02*
X47441Y-45457D01*
X37795Y-50000D02*
X37598Y-50197D01*
X47441Y-46617D02*
X47441Y-46457D01*
X38681Y-51260D02*
X38632Y-51309D01*
X46457Y-46832D02*
X47226Y-46832D01*
X47226Y-46832D02*
X47441Y-46617D01*
X38632Y-49754D02*
X38681Y-49705D01*
X39075Y-49311D02*
X39094Y-49291D01*
X38681Y-49705D02*
X39075Y-49311D01*
X38632Y-49754D02*
X38632Y-51309D01*
X40676Y-50521D02*
X41261Y-50521D01*
X41390Y-50650D02*
X41390Y-54768D01*
X41390Y-54768D02*
X41921Y-55299D01*
X41261Y-50521D02*
X41390Y-50650D01*
X37500Y-46752D02*
X37303Y-46752D01*
X37680Y-46932D02*
X37680Y-47529D01*
X37680Y-46932D02*
X37500Y-46752D01*
X37303Y-46752D02*
X36614Y-47441D01*
X36614Y-47441D02*
X36614Y-47736D01*
X41437Y-56299D02*
X41921Y-56299D01*
X47835Y-56496D02*
X48327Y-56988D01*
X38000Y-48299D02*
X38000Y-47529D01*
X41339Y-59055D02*
X41142Y-58858D01*
X48327Y-58071D02*
X47343Y-59055D01*
X38000Y-48299D02*
X37992Y-48307D01*
X48327Y-56988D02*
X48327Y-58071D01*
X41142Y-56614D02*
X41142Y-56594D01*
X47547Y-56496D02*
X47835Y-56496D01*
X41142Y-56594D02*
X41437Y-56299D01*
X37992Y-53780D02*
X40826Y-56614D01*
X41142Y-56614D02*
X40826Y-56614D01*
X47343Y-59055D02*
X41339Y-59055D01*
X37992Y-53583D02*
X37992Y-53780D01*
X41142Y-58858D02*
X41142Y-56614D01*
X41500Y-47340D02*
X40768Y-46608D01*
X41500Y-48100D02*
X41500Y-47340D01*
X40768Y-46608D02*
X40768Y-45571D01*
X41284Y-48316D02*
X41500Y-48100D01*
X40767Y-45570D02*
X40768Y-45571D01*
X40767Y-43898D02*
X40767Y-45570D01*
X40676Y-48316D02*
X41284Y-48316D01*
X44469Y-43898D02*
X44469Y-45570D01*
X41831Y-48031D02*
X41831Y-48326D01*
X42224Y-47638D02*
X41831Y-48031D01*
X44468Y-45571D02*
X44468Y-46969D01*
X41831Y-48326D02*
X41526Y-48631D01*
X43799Y-47638D02*
X42224Y-47638D01*
X44469Y-45570D02*
X44468Y-45571D01*
X41526Y-48631D02*
X40676Y-48631D01*
X44468Y-46969D02*
X43799Y-47638D01*
X38640Y-44743D02*
X38280Y-44383D01*
X38280Y-44383D02*
X38280Y-43504D01*
X38640Y-47529D02*
X38640Y-44743D01*
X38948Y-51309D02*
X38948Y-50521D01*
X38948Y-50521D02*
X38976Y-50492D01*
X38320Y-47529D02*
X38320Y-45276D01*
X38320Y-45276D02*
X38320Y-45249D01*
X38320Y-44737D02*
X37756Y-44173D01*
X37756Y-44173D02*
X37756Y-41627D01*
X37756Y-41627D02*
X38241Y-41142D01*
X38320Y-45276D02*
X38320Y-44737D01*
X39961Y-51969D02*
X40256Y-51969D01*
X40354Y-52067D02*
X40354Y-52381D01*
X39892Y-51309D02*
X39862Y-51339D01*
X39862Y-51339D02*
X39862Y-51870D01*
X40256Y-51969D02*
X40354Y-52067D01*
X39862Y-51870D02*
X39961Y-51969D01*
X33601Y-53050D02*
X33740Y-53189D01*
X38701Y-53189D02*
X38740Y-53189D01*
X38701Y-53189D02*
X39312Y-53189D01*
X33740Y-53189D02*
X38701Y-53189D01*
X33601Y-51783D02*
X33601Y-53050D01*
X39312Y-53189D02*
X39370Y-53131D01*
X39270Y-53131D02*
X39370Y-53131D01*
X32480Y-49095D02*
X33879Y-49095D01*
X33879Y-49095D02*
X34016Y-48958D01*
X33622Y-51102D02*
X33601Y-51123D01*
X34782Y-48958D02*
X34803Y-48937D01*
X34016Y-48958D02*
X34782Y-48958D01*
X33601Y-51123D02*
X33601Y-51783D01*
X39469Y-51969D02*
X39262Y-51969D01*
X39262Y-51969D02*
X39262Y-52273D01*
X39578Y-51309D02*
X39567Y-51320D01*
X39272Y-51969D02*
X39262Y-51969D01*
X39567Y-51320D02*
X39567Y-51871D01*
X39262Y-51309D02*
X39262Y-51969D01*
X39262Y-51969D02*
X39272Y-51969D01*
X39567Y-51871D02*
X39469Y-51969D01*
X39262Y-52273D02*
X39370Y-52381D01*
X34527Y-42559D02*
X32717Y-42559D01*
X32717Y-42559D02*
X32717Y-42932D01*
X34843Y-42875D02*
X34527Y-42559D01*
X32717Y-42186D02*
X32717Y-42559D01*
X34843Y-43426D02*
X34843Y-42875D01*
X37520Y-52756D02*
X35591Y-50827D01*
X39882Y-52756D02*
X37520Y-52756D01*
X40354Y-53131D02*
X40257Y-53131D01*
X35591Y-50827D02*
X35591Y-50826D01*
X40257Y-53131D02*
X39882Y-52756D01*
X32480Y-49409D02*
X35354Y-49409D01*
X35591Y-50826D02*
X35019Y-51398D01*
X35591Y-49646D02*
X35591Y-50826D01*
X35019Y-51398D02*
X35019Y-51783D01*
X35591Y-50826D02*
X35591Y-50826D01*
X35354Y-49409D02*
X35591Y-49646D01*
X39280Y-43504D02*
X39280Y-46251D01*
X39280Y-46251D02*
X38950Y-46581D01*
X38950Y-46581D02*
X38950Y-47529D01*
X35829Y-48309D02*
X35827Y-48307D01*
X36910Y-48309D02*
X35829Y-48309D01*
X34036Y-45866D02*
X34843Y-45866D01*
X34036Y-43519D02*
X34036Y-44685D01*
X34036Y-44685D02*
X34036Y-45866D01*
X33346Y-48780D02*
X33918Y-48208D01*
X33918Y-48208D02*
X34016Y-48208D01*
X34036Y-45866D02*
X34036Y-48188D01*
X33943Y-43426D02*
X34036Y-43519D01*
X34016Y-45886D02*
X34036Y-45866D01*
X32480Y-48780D02*
X33346Y-48780D01*
X34036Y-48188D02*
X34016Y-48208D01*
G54D10*
G36*
X48576Y-58246D02*
X48500Y-58626D01*
X48298Y-58926D01*
X47995Y-59130D01*
X47615Y-59206D01*
X47500Y-59206D01*
X48481Y-58226D01*
X48481Y-58225D01*
X48511Y-58179D01*
X48527Y-58155D01*
X48528Y-58154D01*
X48544Y-58071D01*
X48545Y-58071D01*
X48545Y-56988D01*
X48544Y-56987D01*
X48528Y-56905D01*
X48527Y-56904D01*
X48511Y-56880D01*
X48481Y-56834D01*
X48481Y-56833D01*
X47990Y-56343D01*
X47989Y-56342D01*
X47944Y-56231D01*
X47812Y-56099D01*
X47640Y-56028D01*
X47454Y-56028D01*
X47282Y-56099D01*
X47265Y-56116D01*
X47265Y-56086D01*
X47406Y-55944D01*
X47454Y-55964D01*
X47640Y-55964D01*
X47812Y-55893D01*
X47944Y-55761D01*
X48015Y-55589D01*
X48015Y-55403D01*
X47944Y-55231D01*
X47884Y-55171D01*
X47884Y-49793D01*
X47884Y-49726D01*
X47884Y-49176D01*
X47876Y-49156D01*
X47876Y-47379D01*
X47813Y-47218D01*
X47804Y-47205D01*
X47730Y-47181D01*
X47717Y-47194D01*
X47717Y-47168D01*
X47693Y-47094D01*
X47535Y-47025D01*
X47363Y-47022D01*
X47202Y-47085D01*
X47189Y-47094D01*
X47165Y-47168D01*
X47441Y-47444D01*
X47717Y-47168D01*
X47717Y-47194D01*
X47454Y-47457D01*
X47730Y-47733D01*
X47804Y-47709D01*
X47873Y-47551D01*
X47876Y-47379D01*
X47876Y-49156D01*
X47859Y-49114D01*
X47811Y-49067D01*
X47750Y-49041D01*
X47717Y-49041D01*
X47717Y-47746D01*
X47441Y-47470D01*
X47428Y-47483D01*
X47428Y-47457D01*
X47152Y-47181D01*
X47078Y-47205D01*
X47009Y-47363D01*
X47006Y-47535D01*
X47069Y-47696D01*
X47078Y-47709D01*
X47152Y-47733D01*
X47428Y-47457D01*
X47428Y-47483D01*
X47165Y-47746D01*
X47189Y-47820D01*
X47347Y-47889D01*
X47519Y-47892D01*
X47680Y-47829D01*
X47693Y-47820D01*
X47717Y-47746D01*
X47717Y-49041D01*
X47683Y-49041D01*
X47133Y-49041D01*
X47071Y-49066D01*
X47024Y-49114D01*
X46998Y-49175D01*
X46998Y-49242D01*
X46998Y-49792D01*
X47023Y-49854D01*
X47071Y-49901D01*
X47132Y-49927D01*
X47199Y-49927D01*
X47749Y-49927D01*
X47811Y-49902D01*
X47858Y-49854D01*
X47884Y-49793D01*
X47884Y-55171D01*
X47883Y-55170D01*
X47883Y-50572D01*
X47883Y-50396D01*
X47816Y-50234D01*
X47691Y-50109D01*
X47529Y-50042D01*
X47353Y-50042D01*
X47191Y-50109D01*
X47066Y-50234D01*
X46999Y-50396D01*
X46999Y-50572D01*
X47066Y-50734D01*
X47191Y-50859D01*
X47353Y-50926D01*
X47529Y-50926D01*
X47691Y-50859D01*
X47816Y-50734D01*
X47883Y-50572D01*
X47883Y-55170D01*
X47876Y-55163D01*
X47876Y-52406D01*
X47876Y-51406D01*
X47813Y-51245D01*
X47804Y-51232D01*
X47730Y-51208D01*
X47717Y-51221D01*
X47717Y-51195D01*
X47693Y-51121D01*
X47535Y-51052D01*
X47363Y-51049D01*
X47202Y-51112D01*
X47189Y-51121D01*
X47165Y-51195D01*
X47441Y-51471D01*
X47717Y-51195D01*
X47717Y-51221D01*
X47454Y-51484D01*
X47730Y-51760D01*
X47804Y-51736D01*
X47873Y-51578D01*
X47876Y-51406D01*
X47876Y-52406D01*
X47813Y-52245D01*
X47804Y-52232D01*
X47730Y-52208D01*
X47717Y-52221D01*
X47717Y-52195D01*
X47717Y-51773D01*
X47441Y-51497D01*
X47428Y-51510D01*
X47428Y-51484D01*
X47152Y-51208D01*
X47078Y-51232D01*
X47009Y-51390D01*
X47006Y-51562D01*
X47069Y-51723D01*
X47078Y-51736D01*
X47152Y-51760D01*
X47428Y-51484D01*
X47428Y-51510D01*
X47165Y-51773D01*
X47189Y-51847D01*
X47347Y-51916D01*
X47519Y-51919D01*
X47680Y-51856D01*
X47693Y-51847D01*
X47717Y-51773D01*
X47717Y-52195D01*
X47693Y-52121D01*
X47535Y-52052D01*
X47363Y-52049D01*
X47202Y-52112D01*
X47189Y-52121D01*
X47165Y-52195D01*
X47441Y-52471D01*
X47717Y-52195D01*
X47717Y-52221D01*
X47454Y-52484D01*
X47730Y-52760D01*
X47804Y-52736D01*
X47873Y-52578D01*
X47876Y-52406D01*
X47876Y-55163D01*
X47812Y-55099D01*
X47717Y-55059D01*
X47717Y-52773D01*
X47441Y-52497D01*
X47428Y-52510D01*
X47428Y-52484D01*
X47152Y-52208D01*
X47078Y-52232D01*
X47009Y-52390D01*
X47006Y-52562D01*
X47069Y-52723D01*
X47078Y-52736D01*
X47152Y-52760D01*
X47428Y-52484D01*
X47428Y-52510D01*
X47165Y-52773D01*
X47189Y-52847D01*
X47347Y-52916D01*
X47519Y-52919D01*
X47680Y-52856D01*
X47693Y-52847D01*
X47717Y-52773D01*
X47717Y-55059D01*
X47640Y-55028D01*
X47454Y-55028D01*
X47282Y-55099D01*
X47150Y-55231D01*
X47079Y-55403D01*
X47079Y-55589D01*
X47098Y-55636D01*
X47015Y-55720D01*
X47015Y-55163D01*
X46990Y-55101D01*
X46942Y-55054D01*
X46881Y-55028D01*
X46814Y-55028D01*
X46214Y-55028D01*
X46152Y-55053D01*
X46105Y-55101D01*
X46079Y-55162D01*
X46079Y-55229D01*
X46079Y-55829D01*
X46104Y-55891D01*
X46152Y-55938D01*
X46213Y-55964D01*
X46280Y-55964D01*
X46835Y-55964D01*
X46829Y-55996D01*
X46829Y-56116D01*
X46812Y-56099D01*
X46640Y-56028D01*
X46454Y-56028D01*
X46282Y-56099D01*
X46150Y-56231D01*
X46079Y-56403D01*
X46079Y-56589D01*
X46150Y-56761D01*
X46282Y-56893D01*
X46454Y-56964D01*
X46640Y-56964D01*
X46812Y-56893D01*
X46829Y-56876D01*
X46829Y-57116D01*
X46812Y-57099D01*
X46640Y-57028D01*
X46454Y-57028D01*
X46282Y-57099D01*
X46150Y-57231D01*
X46079Y-57403D01*
X46079Y-57589D01*
X46150Y-57761D01*
X46282Y-57893D01*
X46454Y-57964D01*
X46640Y-57964D01*
X46655Y-57957D01*
X46532Y-58081D01*
X45618Y-58081D01*
X45618Y-48572D01*
X45618Y-48436D01*
X45566Y-48310D01*
X45470Y-48214D01*
X45344Y-48162D01*
X45208Y-48162D01*
X45082Y-48214D01*
X44986Y-48310D01*
X44934Y-48436D01*
X44934Y-48572D01*
X44986Y-48698D01*
X45058Y-48770D01*
X45058Y-50402D01*
X44728Y-50732D01*
X44681Y-50803D01*
X44664Y-50886D01*
X44664Y-55247D01*
X44236Y-55676D01*
X44045Y-55866D01*
X44045Y-51075D01*
X44045Y-50918D01*
X44045Y-50816D01*
X44045Y-50659D01*
X44020Y-50597D01*
X43972Y-50550D01*
X43911Y-50524D01*
X43844Y-50524D01*
X43653Y-50524D01*
X43611Y-50566D01*
X43611Y-50858D01*
X44003Y-50858D01*
X44045Y-50816D01*
X44045Y-50918D01*
X44003Y-50876D01*
X43611Y-50876D01*
X43611Y-51168D01*
X43653Y-51210D01*
X43844Y-51210D01*
X43911Y-51210D01*
X43972Y-51184D01*
X44020Y-51137D01*
X44045Y-51075D01*
X44045Y-55866D01*
X43745Y-56166D01*
X43743Y-56168D01*
X43593Y-56318D01*
X43593Y-51168D01*
X43593Y-50876D01*
X43593Y-50858D01*
X43593Y-50566D01*
X43551Y-50524D01*
X43360Y-50524D01*
X43293Y-50524D01*
X43232Y-50550D01*
X43184Y-50597D01*
X43159Y-50659D01*
X43159Y-50816D01*
X43201Y-50858D01*
X43593Y-50858D01*
X43593Y-50876D01*
X43201Y-50876D01*
X43159Y-50918D01*
X43159Y-51075D01*
X43184Y-51137D01*
X43232Y-51184D01*
X43293Y-51210D01*
X43360Y-51210D01*
X43551Y-51210D01*
X43593Y-51168D01*
X43593Y-56318D01*
X43061Y-56850D01*
X43014Y-56831D01*
X42828Y-56831D01*
X42656Y-56902D01*
X42524Y-57034D01*
X42453Y-57206D01*
X42453Y-57392D01*
X42524Y-57564D01*
X42656Y-57696D01*
X42828Y-57767D01*
X43014Y-57767D01*
X43186Y-57696D01*
X43318Y-57564D01*
X43389Y-57392D01*
X43389Y-57206D01*
X43369Y-57158D01*
X44052Y-56477D01*
X44053Y-56474D01*
X44544Y-55984D01*
X45036Y-55493D01*
X45036Y-55492D01*
X45066Y-55446D01*
X45082Y-55422D01*
X45083Y-55421D01*
X45099Y-55339D01*
X45100Y-55338D01*
X45100Y-50976D01*
X45430Y-50646D01*
X45477Y-50576D01*
X45477Y-50575D01*
X45494Y-50492D01*
X45494Y-48770D01*
X45566Y-48698D01*
X45618Y-48572D01*
X45618Y-58081D01*
X43389Y-58081D01*
X43389Y-57966D01*
X43364Y-57904D01*
X43316Y-57857D01*
X43255Y-57831D01*
X43188Y-57831D01*
X42588Y-57831D01*
X42526Y-57856D01*
X42479Y-57904D01*
X42453Y-57965D01*
X42453Y-58032D01*
X42453Y-58632D01*
X42478Y-58694D01*
X42526Y-58741D01*
X42587Y-58767D01*
X42654Y-58767D01*
X43254Y-58767D01*
X43316Y-58742D01*
X43363Y-58694D01*
X43389Y-58633D01*
X43389Y-58566D01*
X43389Y-58517D01*
X46622Y-58517D01*
X46705Y-58500D01*
X46776Y-58453D01*
X47201Y-58028D01*
X47248Y-57957D01*
X47265Y-57874D01*
X47265Y-57861D01*
X47271Y-57854D01*
X47280Y-57879D01*
X47447Y-57953D01*
X47629Y-57957D01*
X47799Y-57891D01*
X47814Y-57879D01*
X47841Y-57803D01*
X47582Y-57544D01*
X47547Y-57509D01*
X47534Y-57496D01*
X47547Y-57483D01*
X47582Y-57448D01*
X47841Y-57189D01*
X47814Y-57113D01*
X47647Y-57039D01*
X47465Y-57035D01*
X47295Y-57101D01*
X47280Y-57113D01*
X47271Y-57137D01*
X47265Y-57131D01*
X47265Y-56876D01*
X47282Y-56893D01*
X47454Y-56964D01*
X47640Y-56964D01*
X47812Y-56893D01*
X47867Y-56837D01*
X48109Y-57078D01*
X48109Y-57980D01*
X48008Y-58081D01*
X48008Y-57414D01*
X47942Y-57244D01*
X47930Y-57229D01*
X47854Y-57202D01*
X47560Y-57496D01*
X47854Y-57790D01*
X47930Y-57763D01*
X48004Y-57596D01*
X48008Y-57414D01*
X48008Y-58081D01*
X47252Y-58837D01*
X42389Y-58837D01*
X42389Y-58392D01*
X42389Y-58206D01*
X42318Y-58034D01*
X42186Y-57902D01*
X42014Y-57831D01*
X41828Y-57831D01*
X41656Y-57902D01*
X41524Y-58034D01*
X41453Y-58206D01*
X41453Y-58392D01*
X41524Y-58564D01*
X41656Y-58696D01*
X41828Y-58767D01*
X42014Y-58767D01*
X42186Y-58696D01*
X42318Y-58564D01*
X42389Y-58392D01*
X42389Y-58837D01*
X41429Y-58837D01*
X41360Y-58767D01*
X41360Y-56684D01*
X41511Y-56532D01*
X41524Y-56564D01*
X41656Y-56696D01*
X41828Y-56767D01*
X42014Y-56767D01*
X42186Y-56696D01*
X42216Y-56666D01*
X42216Y-56701D01*
X42064Y-56852D01*
X42014Y-56831D01*
X41828Y-56831D01*
X41656Y-56902D01*
X41524Y-57034D01*
X41453Y-57206D01*
X41453Y-57392D01*
X41524Y-57564D01*
X41656Y-57696D01*
X41828Y-57767D01*
X42014Y-57767D01*
X42186Y-57696D01*
X42318Y-57564D01*
X42389Y-57392D01*
X42389Y-57206D01*
X42370Y-57162D01*
X42588Y-56945D01*
X42635Y-56875D01*
X42635Y-56874D01*
X42637Y-56860D01*
X42651Y-56791D01*
X42652Y-56791D01*
X42652Y-56692D01*
X42656Y-56696D01*
X42828Y-56767D01*
X43014Y-56767D01*
X43186Y-56696D01*
X43318Y-56564D01*
X43389Y-56392D01*
X43389Y-56206D01*
X43318Y-56034D01*
X43186Y-55902D01*
X43014Y-55831D01*
X42828Y-55831D01*
X42656Y-55902D01*
X42652Y-55906D01*
X42652Y-55692D01*
X42656Y-55696D01*
X42828Y-55767D01*
X43014Y-55767D01*
X43186Y-55696D01*
X43318Y-55564D01*
X43389Y-55392D01*
X43389Y-55206D01*
X43382Y-55189D01*
X43382Y-54217D01*
X43316Y-54047D01*
X43304Y-54032D01*
X43228Y-54005D01*
X42934Y-54299D01*
X43228Y-54593D01*
X43304Y-54566D01*
X43378Y-54399D01*
X43382Y-54217D01*
X43382Y-55189D01*
X43318Y-55034D01*
X43186Y-54902D01*
X43014Y-54831D01*
X42828Y-54831D01*
X42656Y-54902D01*
X42652Y-54906D01*
X42652Y-54676D01*
X42654Y-54682D01*
X42821Y-54756D01*
X43003Y-54760D01*
X43173Y-54694D01*
X43188Y-54682D01*
X43215Y-54606D01*
X42956Y-54347D01*
X42921Y-54312D01*
X42908Y-54299D01*
X42921Y-54286D01*
X42956Y-54251D01*
X43215Y-53992D01*
X43188Y-53916D01*
X43021Y-53842D01*
X42839Y-53838D01*
X42766Y-53866D01*
X42766Y-51075D01*
X42766Y-50918D01*
X42766Y-50816D01*
X42766Y-50659D01*
X42741Y-50597D01*
X42693Y-50550D01*
X42632Y-50524D01*
X42565Y-50524D01*
X42374Y-50524D01*
X42332Y-50566D01*
X42332Y-50858D01*
X42724Y-50858D01*
X42766Y-50816D01*
X42766Y-50918D01*
X42724Y-50876D01*
X42332Y-50876D01*
X42332Y-51168D01*
X42374Y-51210D01*
X42565Y-51210D01*
X42632Y-51210D01*
X42693Y-51184D01*
X42741Y-51137D01*
X42766Y-51075D01*
X42766Y-53866D01*
X42669Y-53904D01*
X42654Y-53916D01*
X42652Y-53921D01*
X42652Y-51954D01*
X42635Y-51871D01*
X42634Y-51870D01*
X42618Y-51846D01*
X42588Y-51800D01*
X42588Y-51799D01*
X41986Y-51198D01*
X42014Y-51210D01*
X42081Y-51210D01*
X42272Y-51210D01*
X42314Y-51168D01*
X42314Y-50876D01*
X42314Y-50858D01*
X42314Y-50566D01*
X42272Y-50524D01*
X42081Y-50524D01*
X42014Y-50524D01*
X41953Y-50550D01*
X41905Y-50597D01*
X41880Y-50659D01*
X41880Y-50816D01*
X41922Y-50858D01*
X42314Y-50858D01*
X42314Y-50876D01*
X41922Y-50876D01*
X41880Y-50918D01*
X41880Y-51075D01*
X41891Y-51103D01*
X41854Y-51065D01*
X41854Y-50526D01*
X41837Y-50443D01*
X41836Y-50442D01*
X41820Y-50418D01*
X41790Y-50372D01*
X41790Y-50371D01*
X41470Y-50052D01*
X41399Y-50005D01*
X41316Y-49988D01*
X41237Y-49988D01*
X41237Y-49946D01*
X41237Y-49942D01*
X41195Y-49900D01*
X40735Y-49900D01*
X40685Y-49900D01*
X40667Y-49900D01*
X40617Y-49900D01*
X40157Y-49900D01*
X40115Y-49942D01*
X40115Y-49946D01*
X40115Y-50013D01*
X40130Y-50048D01*
X40115Y-50084D01*
X40115Y-50151D01*
X40115Y-50327D01*
X40129Y-50363D01*
X40115Y-50399D01*
X40115Y-50466D01*
X40115Y-50642D01*
X40140Y-50704D01*
X40188Y-50751D01*
X40249Y-50777D01*
X40316Y-50777D01*
X41102Y-50777D01*
X41164Y-50752D01*
X41172Y-50743D01*
X41172Y-54768D01*
X41189Y-54851D01*
X41236Y-54922D01*
X41472Y-55158D01*
X41453Y-55206D01*
X41453Y-55392D01*
X41524Y-55564D01*
X41656Y-55696D01*
X41828Y-55767D01*
X42014Y-55767D01*
X42186Y-55696D01*
X42216Y-55666D01*
X42216Y-55932D01*
X42186Y-55902D01*
X42014Y-55831D01*
X41828Y-55831D01*
X41656Y-55902D01*
X41524Y-56034D01*
X41504Y-56081D01*
X41437Y-56081D01*
X41353Y-56098D01*
X41283Y-56145D01*
X41032Y-56396D01*
X40916Y-56396D01*
X38286Y-53766D01*
X38334Y-53651D01*
X38334Y-53515D01*
X38289Y-53407D01*
X38701Y-53407D01*
X38740Y-53407D01*
X38958Y-53407D01*
X39000Y-53448D01*
X39061Y-53474D01*
X39128Y-53474D01*
X39678Y-53474D01*
X39740Y-53449D01*
X39787Y-53401D01*
X39813Y-53340D01*
X39813Y-53273D01*
X39813Y-52995D01*
X39911Y-53093D01*
X39911Y-53339D01*
X39936Y-53401D01*
X39984Y-53448D01*
X40045Y-53474D01*
X40112Y-53474D01*
X40662Y-53474D01*
X40724Y-53449D01*
X40771Y-53401D01*
X40797Y-53340D01*
X40797Y-53273D01*
X40797Y-52923D01*
X40772Y-52861D01*
X40724Y-52814D01*
X40663Y-52788D01*
X40596Y-52788D01*
X40222Y-52788D01*
X40158Y-52724D01*
X40662Y-52724D01*
X40724Y-52699D01*
X40771Y-52651D01*
X40797Y-52590D01*
X40797Y-52523D01*
X40797Y-52173D01*
X40772Y-52111D01*
X40724Y-52064D01*
X40663Y-52038D01*
X40596Y-52038D01*
X40566Y-52038D01*
X40555Y-51984D01*
X40554Y-51983D01*
X40538Y-51959D01*
X40508Y-51913D01*
X40508Y-51912D01*
X40410Y-51815D01*
X40339Y-51768D01*
X40256Y-51751D01*
X40141Y-51751D01*
X40148Y-51736D01*
X40148Y-51669D01*
X40148Y-50883D01*
X40123Y-50821D01*
X40075Y-50774D01*
X40014Y-50748D01*
X39947Y-50748D01*
X39771Y-50748D01*
X39734Y-50762D01*
X39700Y-50748D01*
X39633Y-50748D01*
X39457Y-50748D01*
X39419Y-50763D01*
X39384Y-50748D01*
X39317Y-50748D01*
X39204Y-50748D01*
X39266Y-50686D01*
X39318Y-50560D01*
X39318Y-50424D01*
X39266Y-50298D01*
X39170Y-50202D01*
X39044Y-50150D01*
X38908Y-50150D01*
X38850Y-50173D01*
X38850Y-49844D01*
X39061Y-49633D01*
X39162Y-49633D01*
X39288Y-49581D01*
X39384Y-49485D01*
X39436Y-49359D01*
X39436Y-49223D01*
X39411Y-49164D01*
X40115Y-49164D01*
X40115Y-49206D01*
X40115Y-49210D01*
X40157Y-49252D01*
X40617Y-49252D01*
X40667Y-49252D01*
X40685Y-49252D01*
X40735Y-49252D01*
X41195Y-49252D01*
X41237Y-49210D01*
X41237Y-49206D01*
X41237Y-49164D01*
X41269Y-49164D01*
X41416Y-49164D01*
X41416Y-49318D01*
X41376Y-49358D01*
X41237Y-49358D01*
X41237Y-49316D01*
X41237Y-49312D01*
X41195Y-49270D01*
X40735Y-49270D01*
X40685Y-49270D01*
X40667Y-49270D01*
X40617Y-49270D01*
X40157Y-49270D01*
X40115Y-49312D01*
X40115Y-49316D01*
X40115Y-49383D01*
X40130Y-49418D01*
X40115Y-49454D01*
X40115Y-49521D01*
X40115Y-49697D01*
X40129Y-49733D01*
X40115Y-49769D01*
X40115Y-49836D01*
X40115Y-49840D01*
X40157Y-49882D01*
X40617Y-49882D01*
X40667Y-49882D01*
X40685Y-49882D01*
X40735Y-49882D01*
X41195Y-49882D01*
X41237Y-49840D01*
X41237Y-49836D01*
X41237Y-49794D01*
X41317Y-49794D01*
X41677Y-50154D01*
X41747Y-50201D01*
X41748Y-50201D01*
X41831Y-50218D01*
X41880Y-50218D01*
X41880Y-50325D01*
X41905Y-50387D01*
X41953Y-50434D01*
X42014Y-50460D01*
X42081Y-50460D01*
X42631Y-50460D01*
X42693Y-50435D01*
X42740Y-50387D01*
X42762Y-50335D01*
X43163Y-50335D01*
X43184Y-50387D01*
X43232Y-50434D01*
X43293Y-50460D01*
X43360Y-50460D01*
X43910Y-50460D01*
X43972Y-50435D01*
X44019Y-50387D01*
X44041Y-50335D01*
X44044Y-50335D01*
X44097Y-50388D01*
X44223Y-50440D01*
X44359Y-50440D01*
X44485Y-50388D01*
X44581Y-50292D01*
X44633Y-50166D01*
X44633Y-50030D01*
X44581Y-49904D01*
X44485Y-49808D01*
X44359Y-49756D01*
X44223Y-49756D01*
X44097Y-49808D01*
X44030Y-49874D01*
X44020Y-49847D01*
X43972Y-49800D01*
X43911Y-49774D01*
X43844Y-49774D01*
X43294Y-49774D01*
X43232Y-49799D01*
X43185Y-49847D01*
X43162Y-49899D01*
X42963Y-49899D01*
X42963Y-49205D01*
X42963Y-49048D01*
X42963Y-48946D01*
X42963Y-48789D01*
X42938Y-48727D01*
X42890Y-48680D01*
X42829Y-48654D01*
X42762Y-48654D01*
X42571Y-48654D01*
X42529Y-48696D01*
X42529Y-48988D01*
X42921Y-48988D01*
X42963Y-48946D01*
X42963Y-49048D01*
X42921Y-49006D01*
X42529Y-49006D01*
X42529Y-49298D01*
X42571Y-49340D01*
X42762Y-49340D01*
X42829Y-49340D01*
X42890Y-49314D01*
X42938Y-49267D01*
X42963Y-49205D01*
X42963Y-49899D01*
X42761Y-49899D01*
X42741Y-49847D01*
X42693Y-49800D01*
X42632Y-49774D01*
X42565Y-49774D01*
X42511Y-49774D01*
X42511Y-49298D01*
X42511Y-49006D01*
X42119Y-49006D01*
X42077Y-49048D01*
X42077Y-49205D01*
X42102Y-49267D01*
X42150Y-49314D01*
X42211Y-49340D01*
X42278Y-49340D01*
X42469Y-49340D01*
X42511Y-49298D01*
X42511Y-49774D01*
X42015Y-49774D01*
X41995Y-49782D01*
X41921Y-49782D01*
X41745Y-49606D01*
X41788Y-49564D01*
X41788Y-49563D01*
X41818Y-49517D01*
X41834Y-49493D01*
X41835Y-49492D01*
X41851Y-49409D01*
X41852Y-49409D01*
X41852Y-49116D01*
X41877Y-49100D01*
X42077Y-48900D01*
X42077Y-48946D01*
X42119Y-48988D01*
X42511Y-48988D01*
X42511Y-48696D01*
X42469Y-48654D01*
X42323Y-48654D01*
X42387Y-48590D01*
X42828Y-48590D01*
X42890Y-48565D01*
X42937Y-48517D01*
X42959Y-48465D01*
X44174Y-48465D01*
X44257Y-48448D01*
X44328Y-48401D01*
X46014Y-46715D01*
X46014Y-47040D01*
X46039Y-47102D01*
X46087Y-47149D01*
X46148Y-47175D01*
X46215Y-47175D01*
X46765Y-47175D01*
X46827Y-47150D01*
X46874Y-47102D01*
X46896Y-47050D01*
X47226Y-47050D01*
X47309Y-47033D01*
X47380Y-46986D01*
X47467Y-46899D01*
X47529Y-46899D01*
X47691Y-46832D01*
X47816Y-46707D01*
X47883Y-46545D01*
X47883Y-46369D01*
X47816Y-46207D01*
X47691Y-46082D01*
X47529Y-46015D01*
X47353Y-46015D01*
X47191Y-46082D01*
X47066Y-46207D01*
X46999Y-46369D01*
X46999Y-46545D01*
X47027Y-46614D01*
X46895Y-46614D01*
X46875Y-46562D01*
X46827Y-46515D01*
X46766Y-46489D01*
X46699Y-46489D01*
X46240Y-46489D01*
X46304Y-46425D01*
X46765Y-46425D01*
X46827Y-46400D01*
X46874Y-46352D01*
X46900Y-46291D01*
X46900Y-46224D01*
X46900Y-45874D01*
X46875Y-45812D01*
X46827Y-45765D01*
X46766Y-45739D01*
X46699Y-45739D01*
X46675Y-45739D01*
X46675Y-45690D01*
X46998Y-45690D01*
X46998Y-45765D01*
X47023Y-45827D01*
X47071Y-45874D01*
X47132Y-45900D01*
X47199Y-45900D01*
X47749Y-45900D01*
X47811Y-45875D01*
X47858Y-45827D01*
X47884Y-45766D01*
X47884Y-45699D01*
X47884Y-45149D01*
X47859Y-45087D01*
X47811Y-45040D01*
X47750Y-45014D01*
X47683Y-45014D01*
X47133Y-45014D01*
X47071Y-45039D01*
X47024Y-45087D01*
X46998Y-45148D01*
X46998Y-45215D01*
X46998Y-45254D01*
X46556Y-45254D01*
X46473Y-45271D01*
X46402Y-45318D01*
X46303Y-45417D01*
X46256Y-45488D01*
X46239Y-45571D01*
X46239Y-45739D01*
X46149Y-45739D01*
X46087Y-45764D01*
X46040Y-45812D01*
X46014Y-45873D01*
X46014Y-45940D01*
X46014Y-46099D01*
X45810Y-46303D01*
X44084Y-48029D01*
X42958Y-48029D01*
X42938Y-47977D01*
X42890Y-47930D01*
X42829Y-47904D01*
X42762Y-47904D01*
X42266Y-47904D01*
X42314Y-47856D01*
X43799Y-47856D01*
X43882Y-47839D01*
X43953Y-47792D01*
X44622Y-47123D01*
X44669Y-47053D01*
X44669Y-47052D01*
X44686Y-46969D01*
X44686Y-46132D01*
X45583Y-46132D01*
X45645Y-46107D01*
X45692Y-46059D01*
X45718Y-45998D01*
X45718Y-45931D01*
X45718Y-45145D01*
X45693Y-45083D01*
X45645Y-45036D01*
X45584Y-45010D01*
X45517Y-45010D01*
X44687Y-45010D01*
X44687Y-44336D01*
X44739Y-44316D01*
X44786Y-44268D01*
X44812Y-44207D01*
X44812Y-44140D01*
X44812Y-43590D01*
X44787Y-43528D01*
X44739Y-43481D01*
X44678Y-43455D01*
X44611Y-43455D01*
X44261Y-43455D01*
X44199Y-43480D01*
X44152Y-43528D01*
X44126Y-43589D01*
X44126Y-43656D01*
X44126Y-44206D01*
X44151Y-44268D01*
X44199Y-44315D01*
X44251Y-44337D01*
X44251Y-45010D01*
X44062Y-45010D01*
X44062Y-44207D01*
X44062Y-44140D01*
X44062Y-43949D01*
X44062Y-43847D01*
X44062Y-43656D01*
X44062Y-43589D01*
X44036Y-43528D01*
X43989Y-43480D01*
X43927Y-43455D01*
X43770Y-43455D01*
X43728Y-43497D01*
X43728Y-43889D01*
X44020Y-43889D01*
X44062Y-43847D01*
X44062Y-43949D01*
X44020Y-43907D01*
X43728Y-43907D01*
X43728Y-44299D01*
X43770Y-44341D01*
X43927Y-44341D01*
X43989Y-44316D01*
X44036Y-44268D01*
X44062Y-44207D01*
X44062Y-45010D01*
X43710Y-45010D01*
X43710Y-44299D01*
X43710Y-43907D01*
X43710Y-43889D01*
X43710Y-43497D01*
X43668Y-43455D01*
X43511Y-43455D01*
X43449Y-43480D01*
X43402Y-43528D01*
X43376Y-43589D01*
X43376Y-43656D01*
X43376Y-43847D01*
X43418Y-43889D01*
X43710Y-43889D01*
X43710Y-43907D01*
X43418Y-43907D01*
X43376Y-43949D01*
X43376Y-44140D01*
X43376Y-44207D01*
X43402Y-44268D01*
X43449Y-44316D01*
X43511Y-44341D01*
X43668Y-44341D01*
X43710Y-44299D01*
X43710Y-45010D01*
X43353Y-45010D01*
X43291Y-45035D01*
X43244Y-45083D01*
X43218Y-45144D01*
X43218Y-45211D01*
X43218Y-45997D01*
X43243Y-46059D01*
X43291Y-46106D01*
X43352Y-46132D01*
X43419Y-46132D01*
X44250Y-46132D01*
X44250Y-46879D01*
X43709Y-47420D01*
X42224Y-47420D01*
X42141Y-47437D01*
X42116Y-47453D01*
X42069Y-47484D01*
X41718Y-47835D01*
X41718Y-47340D01*
X41701Y-47257D01*
X41701Y-47256D01*
X41654Y-47186D01*
X40986Y-46518D01*
X40986Y-46132D01*
X41883Y-46132D01*
X41945Y-46107D01*
X41992Y-46059D01*
X42018Y-45998D01*
X42018Y-45931D01*
X42018Y-45145D01*
X41993Y-45083D01*
X41945Y-45036D01*
X41884Y-45010D01*
X41860Y-45010D01*
X41860Y-44207D01*
X41860Y-44140D01*
X41860Y-43949D01*
X41860Y-43847D01*
X41860Y-43656D01*
X41860Y-43589D01*
X41834Y-43528D01*
X41787Y-43480D01*
X41725Y-43455D01*
X41568Y-43455D01*
X41526Y-43497D01*
X41526Y-43889D01*
X41818Y-43889D01*
X41860Y-43847D01*
X41860Y-43949D01*
X41818Y-43907D01*
X41526Y-43907D01*
X41526Y-44299D01*
X41568Y-44341D01*
X41725Y-44341D01*
X41787Y-44316D01*
X41834Y-44268D01*
X41860Y-44207D01*
X41860Y-45010D01*
X41817Y-45010D01*
X41508Y-45010D01*
X41508Y-44299D01*
X41508Y-43907D01*
X41508Y-43889D01*
X41508Y-43497D01*
X41466Y-43455D01*
X41309Y-43455D01*
X41247Y-43480D01*
X41200Y-43528D01*
X41174Y-43589D01*
X41174Y-43656D01*
X41174Y-43847D01*
X41216Y-43889D01*
X41508Y-43889D01*
X41508Y-43907D01*
X41216Y-43907D01*
X41174Y-43949D01*
X41174Y-44140D01*
X41174Y-44207D01*
X41200Y-44268D01*
X41247Y-44316D01*
X41309Y-44341D01*
X41466Y-44341D01*
X41508Y-44299D01*
X41508Y-45010D01*
X40985Y-45010D01*
X40985Y-44336D01*
X41037Y-44316D01*
X41084Y-44268D01*
X41110Y-44207D01*
X41110Y-44140D01*
X41110Y-43590D01*
X41085Y-43528D01*
X41037Y-43481D01*
X40976Y-43455D01*
X40909Y-43455D01*
X40559Y-43455D01*
X40497Y-43480D01*
X40450Y-43528D01*
X40424Y-43589D01*
X40424Y-43656D01*
X40424Y-44206D01*
X40449Y-44268D01*
X40497Y-44315D01*
X40549Y-44337D01*
X40549Y-45010D01*
X39653Y-45010D01*
X39591Y-45035D01*
X39544Y-45083D01*
X39518Y-45144D01*
X39518Y-45211D01*
X39518Y-45997D01*
X39543Y-46059D01*
X39591Y-46106D01*
X39652Y-46132D01*
X39719Y-46132D01*
X40550Y-46132D01*
X40550Y-46608D01*
X40567Y-46691D01*
X40614Y-46762D01*
X41282Y-47430D01*
X41282Y-48010D01*
X41194Y-48098D01*
X41176Y-48098D01*
X41164Y-48086D01*
X41103Y-48060D01*
X41036Y-48060D01*
X40250Y-48060D01*
X40188Y-48085D01*
X40141Y-48133D01*
X40115Y-48194D01*
X40115Y-48261D01*
X40115Y-48437D01*
X40129Y-48473D01*
X40115Y-48509D01*
X40115Y-48576D01*
X40115Y-48728D01*
X39984Y-48728D01*
X40014Y-48698D01*
X40066Y-48572D01*
X40066Y-48494D01*
X40066Y-48493D01*
X40072Y-48482D01*
X40073Y-48454D01*
X40080Y-48425D01*
X40080Y-48327D01*
X40080Y-48057D01*
X40120Y-48017D01*
X40146Y-47956D01*
X40146Y-47889D01*
X40146Y-47103D01*
X40121Y-47041D01*
X40073Y-46994D01*
X40012Y-46968D01*
X39945Y-46968D01*
X39769Y-46968D01*
X39734Y-46981D01*
X39702Y-46968D01*
X39635Y-46968D01*
X39459Y-46968D01*
X39419Y-46983D01*
X39382Y-46968D01*
X39315Y-46968D01*
X39168Y-46968D01*
X39168Y-46671D01*
X39434Y-46406D01*
X39434Y-46405D01*
X39464Y-46359D01*
X39480Y-46335D01*
X39481Y-46334D01*
X39497Y-46251D01*
X39498Y-46251D01*
X39498Y-43892D01*
X39530Y-43879D01*
X39655Y-43754D01*
X39722Y-43592D01*
X39722Y-43416D01*
X39683Y-43321D01*
X39683Y-41230D01*
X39683Y-41054D01*
X39616Y-40892D01*
X39491Y-40767D01*
X39329Y-40700D01*
X39153Y-40700D01*
X38991Y-40767D01*
X38866Y-40892D01*
X38799Y-41054D01*
X38799Y-41230D01*
X38866Y-41392D01*
X38991Y-41517D01*
X39153Y-41584D01*
X39329Y-41584D01*
X39491Y-41517D01*
X39616Y-41392D01*
X39683Y-41230D01*
X39683Y-43321D01*
X39655Y-43254D01*
X39530Y-43129D01*
X39368Y-43062D01*
X39192Y-43062D01*
X39030Y-43129D01*
X38905Y-43254D01*
X38838Y-43416D01*
X38838Y-43592D01*
X38905Y-43754D01*
X39030Y-43879D01*
X39062Y-43892D01*
X39062Y-46160D01*
X38858Y-46364D01*
X38858Y-44743D01*
X38841Y-44660D01*
X38841Y-44659D01*
X38794Y-44589D01*
X38498Y-44293D01*
X38498Y-43947D01*
X38588Y-43947D01*
X38650Y-43922D01*
X38697Y-43874D01*
X38723Y-43813D01*
X38723Y-43746D01*
X38723Y-43196D01*
X38698Y-43134D01*
X38650Y-43087D01*
X38589Y-43061D01*
X38522Y-43061D01*
X37974Y-43061D01*
X37974Y-41717D01*
X38106Y-41585D01*
X38549Y-41585D01*
X38611Y-41560D01*
X38658Y-41512D01*
X38684Y-41451D01*
X38684Y-41384D01*
X38684Y-40834D01*
X38659Y-40772D01*
X38611Y-40725D01*
X38550Y-40699D01*
X38483Y-40699D01*
X37933Y-40699D01*
X37871Y-40724D01*
X37824Y-40772D01*
X37798Y-40833D01*
X37798Y-40900D01*
X37798Y-41276D01*
X37602Y-41473D01*
X37555Y-41544D01*
X37538Y-41627D01*
X37538Y-44173D01*
X37555Y-44256D01*
X37602Y-44327D01*
X38102Y-44827D01*
X38102Y-45249D01*
X38102Y-45276D01*
X38102Y-46427D01*
X38060Y-46410D01*
X38056Y-46410D01*
X37816Y-46170D01*
X37816Y-44881D01*
X37799Y-44798D01*
X37799Y-44797D01*
X37752Y-44727D01*
X37575Y-44550D01*
X37504Y-44503D01*
X37449Y-44491D01*
X37426Y-44434D01*
X37378Y-44387D01*
X37317Y-44361D01*
X37250Y-44361D01*
X36700Y-44361D01*
X36638Y-44386D01*
X36591Y-44434D01*
X36568Y-44486D01*
X36462Y-44486D01*
X36442Y-44434D01*
X36394Y-44387D01*
X36333Y-44361D01*
X36266Y-44361D01*
X36242Y-44361D01*
X36242Y-44291D01*
X36225Y-44208D01*
X36225Y-44207D01*
X36178Y-44137D01*
X36018Y-43977D01*
X36038Y-43969D01*
X36085Y-43921D01*
X36111Y-43860D01*
X36111Y-43793D01*
X36111Y-42993D01*
X36086Y-42931D01*
X36038Y-42884D01*
X35977Y-42858D01*
X35910Y-42858D01*
X35686Y-42858D01*
X34222Y-41394D01*
X35596Y-41394D01*
X35658Y-41369D01*
X35705Y-41321D01*
X35731Y-41260D01*
X35731Y-41193D01*
X35731Y-40393D01*
X35706Y-40331D01*
X35658Y-40284D01*
X35597Y-40258D01*
X35530Y-40258D01*
X34090Y-40258D01*
X34028Y-40283D01*
X33981Y-40331D01*
X33955Y-40392D01*
X33955Y-40459D01*
X33955Y-41218D01*
X33155Y-41218D01*
X33135Y-41166D01*
X33087Y-41119D01*
X33026Y-41093D01*
X32959Y-41093D01*
X32409Y-41093D01*
X32347Y-41118D01*
X32300Y-41166D01*
X32274Y-41227D01*
X32274Y-41294D01*
X32274Y-41644D01*
X32299Y-41706D01*
X32347Y-41753D01*
X32408Y-41779D01*
X32475Y-41779D01*
X33025Y-41779D01*
X33087Y-41754D01*
X33134Y-41706D01*
X33156Y-41654D01*
X33866Y-41654D01*
X34559Y-42347D01*
X34527Y-42341D01*
X33160Y-42341D01*
X33160Y-42328D01*
X33160Y-41978D01*
X33135Y-41916D01*
X33087Y-41869D01*
X33026Y-41843D01*
X32959Y-41843D01*
X32409Y-41843D01*
X32347Y-41868D01*
X32300Y-41916D01*
X32274Y-41977D01*
X32274Y-42044D01*
X32274Y-42394D01*
X32299Y-42456D01*
X32347Y-42503D01*
X32408Y-42529D01*
X32475Y-42529D01*
X32499Y-42529D01*
X32499Y-42559D01*
X32499Y-42589D01*
X32409Y-42589D01*
X32347Y-42614D01*
X32300Y-42662D01*
X32274Y-42723D01*
X32274Y-42790D01*
X32274Y-43140D01*
X32299Y-43202D01*
X32347Y-43249D01*
X32408Y-43275D01*
X32475Y-43275D01*
X33025Y-43275D01*
X33087Y-43250D01*
X33134Y-43202D01*
X33160Y-43141D01*
X33160Y-43074D01*
X33160Y-42777D01*
X34436Y-42777D01*
X34545Y-42885D01*
X34501Y-42931D01*
X34475Y-42992D01*
X34475Y-43059D01*
X34475Y-43859D01*
X34500Y-43921D01*
X34548Y-43968D01*
X34609Y-43994D01*
X34676Y-43994D01*
X35076Y-43994D01*
X35138Y-43969D01*
X35185Y-43921D01*
X35211Y-43860D01*
X35211Y-43793D01*
X35211Y-42999D01*
X35375Y-43163D01*
X35375Y-43859D01*
X35400Y-43921D01*
X35448Y-43968D01*
X35509Y-43994D01*
X35525Y-43994D01*
X35525Y-44010D01*
X35542Y-44093D01*
X35589Y-44164D01*
X35786Y-44361D01*
X35716Y-44361D01*
X35654Y-44386D01*
X35607Y-44434D01*
X35581Y-44495D01*
X35581Y-44562D01*
X35581Y-44912D01*
X35606Y-44974D01*
X35654Y-45021D01*
X35715Y-45047D01*
X35782Y-45047D01*
X36332Y-45047D01*
X36394Y-45022D01*
X36441Y-44974D01*
X36463Y-44922D01*
X36569Y-44922D01*
X36590Y-44974D01*
X36638Y-45021D01*
X36699Y-45047D01*
X36766Y-45047D01*
X37316Y-45047D01*
X37378Y-45022D01*
X37380Y-45019D01*
X37380Y-45138D01*
X37378Y-45137D01*
X37317Y-45111D01*
X37250Y-45111D01*
X37059Y-45111D01*
X37017Y-45153D01*
X37017Y-45395D01*
X37017Y-45445D01*
X37017Y-45463D01*
X37017Y-45513D01*
X37017Y-45755D01*
X37059Y-45797D01*
X37250Y-45797D01*
X37317Y-45797D01*
X37378Y-45771D01*
X37380Y-45769D01*
X37380Y-46260D01*
X37397Y-46343D01*
X37444Y-46414D01*
X37580Y-46550D01*
X37500Y-46534D01*
X37303Y-46534D01*
X37219Y-46551D01*
X37149Y-46598D01*
X36999Y-46748D01*
X36999Y-45755D01*
X36999Y-45463D01*
X36999Y-45445D01*
X36999Y-45153D01*
X36957Y-45111D01*
X36766Y-45111D01*
X36699Y-45111D01*
X36638Y-45137D01*
X36590Y-45184D01*
X36565Y-45246D01*
X36565Y-45403D01*
X36607Y-45445D01*
X36999Y-45445D01*
X36999Y-45463D01*
X36607Y-45463D01*
X36565Y-45505D01*
X36565Y-45662D01*
X36590Y-45724D01*
X36638Y-45771D01*
X36699Y-45797D01*
X36766Y-45797D01*
X36957Y-45797D01*
X36999Y-45755D01*
X36999Y-46748D01*
X36467Y-47280D01*
X36467Y-45662D01*
X36467Y-45505D01*
X36467Y-45403D01*
X36467Y-45246D01*
X36442Y-45184D01*
X36394Y-45137D01*
X36333Y-45111D01*
X36266Y-45111D01*
X36075Y-45111D01*
X36033Y-45153D01*
X36033Y-45445D01*
X36425Y-45445D01*
X36467Y-45403D01*
X36467Y-45505D01*
X36425Y-45463D01*
X36033Y-45463D01*
X36033Y-45755D01*
X36075Y-45797D01*
X36266Y-45797D01*
X36333Y-45797D01*
X36394Y-45771D01*
X36442Y-45724D01*
X36467Y-45662D01*
X36467Y-47280D01*
X36460Y-47287D01*
X36413Y-47358D01*
X36396Y-47441D01*
X36396Y-47470D01*
X36324Y-47542D01*
X36272Y-47668D01*
X36272Y-47804D01*
X36324Y-47930D01*
X36420Y-48026D01*
X36485Y-48053D01*
X36484Y-48053D01*
X36422Y-48078D01*
X36409Y-48091D01*
X36095Y-48091D01*
X36023Y-48019D01*
X36015Y-48015D01*
X36015Y-45755D01*
X36015Y-45463D01*
X36015Y-45445D01*
X36015Y-45153D01*
X35973Y-45111D01*
X35782Y-45111D01*
X35715Y-45111D01*
X35654Y-45137D01*
X35606Y-45184D01*
X35581Y-45246D01*
X35581Y-45403D01*
X35623Y-45445D01*
X36015Y-45445D01*
X36015Y-45463D01*
X35623Y-45463D01*
X35581Y-45505D01*
X35581Y-45662D01*
X35606Y-45724D01*
X35654Y-45771D01*
X35715Y-45797D01*
X35782Y-45797D01*
X35973Y-45797D01*
X36015Y-45755D01*
X36015Y-48015D01*
X35897Y-47967D01*
X35761Y-47967D01*
X35635Y-48019D01*
X35539Y-48115D01*
X35487Y-48241D01*
X35487Y-48377D01*
X35539Y-48503D01*
X35635Y-48599D01*
X35761Y-48651D01*
X35897Y-48651D01*
X36023Y-48599D01*
X36095Y-48527D01*
X36349Y-48527D01*
X36349Y-48574D01*
X36349Y-48750D01*
X36364Y-48789D01*
X36349Y-48827D01*
X36349Y-48894D01*
X36349Y-49070D01*
X36362Y-49104D01*
X36349Y-49137D01*
X36349Y-49204D01*
X36349Y-49380D01*
X36364Y-49419D01*
X36349Y-49457D01*
X36349Y-49524D01*
X36349Y-49700D01*
X36362Y-49734D01*
X36349Y-49767D01*
X36349Y-49834D01*
X36349Y-49979D01*
X36269Y-49979D01*
X36269Y-49889D01*
X36244Y-49827D01*
X36196Y-49780D01*
X36135Y-49754D01*
X36068Y-49754D01*
X35809Y-49754D01*
X35809Y-49646D01*
X35792Y-49563D01*
X35792Y-49562D01*
X35745Y-49492D01*
X35508Y-49255D01*
X35437Y-49208D01*
X35354Y-49191D01*
X35033Y-49191D01*
X35093Y-49131D01*
X35145Y-49005D01*
X35145Y-48869D01*
X35093Y-48743D01*
X34997Y-48647D01*
X34871Y-48595D01*
X34735Y-48595D01*
X34609Y-48647D01*
X34516Y-48740D01*
X34454Y-48740D01*
X34434Y-48688D01*
X34386Y-48641D01*
X34325Y-48615D01*
X34258Y-48615D01*
X33819Y-48615D01*
X33883Y-48551D01*
X34324Y-48551D01*
X34386Y-48526D01*
X34433Y-48478D01*
X34459Y-48417D01*
X34459Y-48350D01*
X34459Y-48000D01*
X34434Y-47938D01*
X34386Y-47891D01*
X34325Y-47865D01*
X34258Y-47865D01*
X34254Y-47865D01*
X34254Y-46304D01*
X34306Y-46284D01*
X34353Y-46236D01*
X34379Y-46175D01*
X34379Y-46108D01*
X34379Y-46084D01*
X34577Y-46084D01*
X34649Y-46156D01*
X34775Y-46208D01*
X34911Y-46208D01*
X35037Y-46156D01*
X35133Y-46060D01*
X35185Y-45934D01*
X35185Y-45798D01*
X35133Y-45672D01*
X35037Y-45576D01*
X34911Y-45524D01*
X34775Y-45524D01*
X34649Y-45576D01*
X34577Y-45648D01*
X34379Y-45648D01*
X34379Y-45558D01*
X34354Y-45496D01*
X34306Y-45449D01*
X34254Y-45426D01*
X34254Y-45123D01*
X34306Y-45103D01*
X34353Y-45055D01*
X34379Y-44994D01*
X34379Y-44927D01*
X34379Y-44377D01*
X34354Y-44315D01*
X34306Y-44268D01*
X34254Y-44245D01*
X34254Y-43952D01*
X34285Y-43921D01*
X34311Y-43860D01*
X34311Y-43793D01*
X34311Y-42993D01*
X34286Y-42931D01*
X34238Y-42884D01*
X34177Y-42858D01*
X34110Y-42858D01*
X33710Y-42858D01*
X33648Y-42883D01*
X33601Y-42931D01*
X33575Y-42992D01*
X33575Y-43059D01*
X33575Y-43859D01*
X33600Y-43921D01*
X33648Y-43968D01*
X33709Y-43994D01*
X33776Y-43994D01*
X33818Y-43994D01*
X33818Y-44246D01*
X33766Y-44267D01*
X33719Y-44315D01*
X33693Y-44376D01*
X33693Y-44443D01*
X33693Y-44993D01*
X33718Y-45055D01*
X33766Y-45102D01*
X33818Y-45124D01*
X33818Y-45427D01*
X33766Y-45448D01*
X33719Y-45496D01*
X33693Y-45557D01*
X33693Y-45624D01*
X33693Y-46174D01*
X33718Y-46236D01*
X33766Y-46283D01*
X33818Y-46305D01*
X33818Y-47865D01*
X33708Y-47865D01*
X33646Y-47890D01*
X33629Y-47907D01*
X33629Y-46175D01*
X33629Y-46108D01*
X33629Y-45917D01*
X33629Y-45815D01*
X33629Y-45624D01*
X33629Y-45557D01*
X33629Y-44994D01*
X33629Y-44927D01*
X33629Y-44736D01*
X33629Y-44634D01*
X33629Y-44443D01*
X33629Y-44376D01*
X33603Y-44315D01*
X33556Y-44267D01*
X33494Y-44242D01*
X33337Y-44242D01*
X33295Y-44284D01*
X33295Y-44676D01*
X33587Y-44676D01*
X33629Y-44634D01*
X33629Y-44736D01*
X33587Y-44694D01*
X33295Y-44694D01*
X33295Y-45086D01*
X33337Y-45128D01*
X33494Y-45128D01*
X33556Y-45103D01*
X33603Y-45055D01*
X33629Y-44994D01*
X33629Y-45557D01*
X33603Y-45496D01*
X33556Y-45448D01*
X33494Y-45423D01*
X33337Y-45423D01*
X33295Y-45465D01*
X33295Y-45857D01*
X33587Y-45857D01*
X33629Y-45815D01*
X33629Y-45917D01*
X33587Y-45875D01*
X33295Y-45875D01*
X33295Y-46267D01*
X33337Y-46309D01*
X33494Y-46309D01*
X33556Y-46284D01*
X33603Y-46236D01*
X33629Y-46175D01*
X33629Y-47907D01*
X33599Y-47938D01*
X33573Y-47999D01*
X33573Y-48066D01*
X33573Y-48245D01*
X33277Y-48541D01*
X33277Y-46267D01*
X33277Y-45875D01*
X33277Y-45857D01*
X33277Y-45465D01*
X33277Y-45086D01*
X33277Y-44694D01*
X33277Y-44676D01*
X33277Y-44284D01*
X33235Y-44242D01*
X33160Y-44242D01*
X33160Y-43890D01*
X33160Y-43733D01*
X33160Y-43631D01*
X33160Y-43474D01*
X33135Y-43412D01*
X33087Y-43365D01*
X33026Y-43339D01*
X32959Y-43339D01*
X32768Y-43339D01*
X32726Y-43381D01*
X32726Y-43673D01*
X33118Y-43673D01*
X33160Y-43631D01*
X33160Y-43733D01*
X33118Y-43691D01*
X32726Y-43691D01*
X32726Y-43983D01*
X32768Y-44025D01*
X32959Y-44025D01*
X33026Y-44025D01*
X33087Y-43999D01*
X33135Y-43952D01*
X33160Y-43890D01*
X33160Y-44242D01*
X33078Y-44242D01*
X33016Y-44267D01*
X32969Y-44315D01*
X32943Y-44376D01*
X32943Y-44443D01*
X32943Y-44634D01*
X32985Y-44676D01*
X33277Y-44676D01*
X33277Y-44694D01*
X32985Y-44694D01*
X32943Y-44736D01*
X32943Y-44927D01*
X32943Y-44994D01*
X32969Y-45055D01*
X33016Y-45103D01*
X33078Y-45128D01*
X33235Y-45128D01*
X33277Y-45086D01*
X33277Y-45465D01*
X33235Y-45423D01*
X33078Y-45423D01*
X33016Y-45448D01*
X32969Y-45496D01*
X32943Y-45557D01*
X32943Y-45624D01*
X32943Y-45815D01*
X32985Y-45857D01*
X33277Y-45857D01*
X33277Y-45875D01*
X32985Y-45875D01*
X32943Y-45917D01*
X32943Y-46108D01*
X32943Y-46175D01*
X32969Y-46236D01*
X33016Y-46284D01*
X33078Y-46309D01*
X33235Y-46309D01*
X33277Y-46267D01*
X33277Y-48541D01*
X33256Y-48562D01*
X33140Y-48562D01*
X33140Y-48065D01*
X33140Y-47998D01*
X33140Y-47212D01*
X33115Y-47150D01*
X33067Y-47103D01*
X33006Y-47077D01*
X32939Y-47077D01*
X32708Y-47077D01*
X32708Y-43983D01*
X32708Y-43691D01*
X32708Y-43673D01*
X32708Y-43381D01*
X32666Y-43339D01*
X32475Y-43339D01*
X32408Y-43339D01*
X32347Y-43365D01*
X32299Y-43412D01*
X32274Y-43474D01*
X32274Y-43631D01*
X32316Y-43673D01*
X32708Y-43673D01*
X32708Y-43691D01*
X32316Y-43691D01*
X32274Y-43733D01*
X32274Y-43890D01*
X32299Y-43952D01*
X32347Y-43999D01*
X32408Y-44025D01*
X32475Y-44025D01*
X32666Y-44025D01*
X32708Y-43983D01*
X32708Y-47077D01*
X31955Y-47077D01*
X31893Y-47102D01*
X31846Y-47150D01*
X31820Y-47211D01*
X31820Y-47278D01*
X31820Y-48064D01*
X31845Y-48126D01*
X31893Y-48173D01*
X31954Y-48199D01*
X32021Y-48199D01*
X33005Y-48199D01*
X33067Y-48174D01*
X33114Y-48126D01*
X33140Y-48065D01*
X33140Y-48562D01*
X33089Y-48562D01*
X33067Y-48540D01*
X33006Y-48514D01*
X32939Y-48514D01*
X31955Y-48514D01*
X31940Y-48520D01*
X31940Y-48455D01*
X31873Y-48292D01*
X31748Y-48167D01*
X31585Y-48099D01*
X31408Y-48099D01*
X31245Y-48166D01*
X31120Y-48291D01*
X31052Y-48454D01*
X31052Y-48631D01*
X31119Y-48794D01*
X31244Y-48919D01*
X31407Y-48987D01*
X31584Y-48987D01*
X31747Y-48920D01*
X31820Y-48847D01*
X31820Y-48911D01*
X31830Y-48937D01*
X31820Y-48963D01*
X31820Y-49030D01*
X31820Y-49226D01*
X31830Y-49252D01*
X31820Y-49277D01*
X31820Y-49344D01*
X31820Y-49540D01*
X31830Y-49566D01*
X31820Y-49591D01*
X31820Y-49658D01*
X31820Y-49854D01*
X31830Y-49880D01*
X31820Y-49906D01*
X31820Y-49971D01*
X31748Y-49899D01*
X31585Y-49831D01*
X31408Y-49831D01*
X31245Y-49898D01*
X31120Y-50023D01*
X31052Y-50186D01*
X31052Y-50363D01*
X31119Y-50526D01*
X31244Y-50651D01*
X31407Y-50719D01*
X31584Y-50719D01*
X31747Y-50652D01*
X31872Y-50527D01*
X31940Y-50364D01*
X31940Y-50297D01*
X31955Y-50304D01*
X32429Y-50304D01*
X32471Y-50262D01*
X32471Y-50097D01*
X32471Y-50047D01*
X32471Y-50029D01*
X32489Y-50029D01*
X32539Y-50029D01*
X33098Y-50029D01*
X33140Y-49987D01*
X33140Y-49973D01*
X33140Y-49906D01*
X33129Y-49880D01*
X33140Y-49855D01*
X33140Y-49788D01*
X33140Y-49627D01*
X35264Y-49627D01*
X35373Y-49736D01*
X35373Y-49754D01*
X35227Y-49754D01*
X35185Y-49796D01*
X35185Y-50138D01*
X35185Y-50188D01*
X35185Y-50206D01*
X35185Y-50256D01*
X35185Y-50598D01*
X35227Y-50640D01*
X35373Y-50640D01*
X35373Y-50736D01*
X35167Y-50942D01*
X35167Y-50598D01*
X35167Y-50206D01*
X35167Y-50188D01*
X35167Y-49796D01*
X35125Y-49754D01*
X34968Y-49754D01*
X34906Y-49779D01*
X34859Y-49827D01*
X34833Y-49888D01*
X34833Y-49955D01*
X34833Y-50146D01*
X34875Y-50188D01*
X35167Y-50188D01*
X35167Y-50206D01*
X34875Y-50206D01*
X34833Y-50248D01*
X34833Y-50439D01*
X34833Y-50506D01*
X34859Y-50567D01*
X34906Y-50615D01*
X34968Y-50640D01*
X35125Y-50640D01*
X35167Y-50598D01*
X35167Y-50942D01*
X34865Y-51244D01*
X34818Y-51315D01*
X34801Y-51398D01*
X34801Y-51436D01*
X34786Y-51443D01*
X34739Y-51491D01*
X34713Y-51552D01*
X34713Y-51619D01*
X34713Y-52013D01*
X34738Y-52075D01*
X34786Y-52122D01*
X34847Y-52148D01*
X34914Y-52148D01*
X35190Y-52148D01*
X35252Y-52123D01*
X35299Y-52075D01*
X35325Y-52014D01*
X35325Y-51947D01*
X35325Y-51553D01*
X35300Y-51491D01*
X35266Y-51458D01*
X35590Y-51134D01*
X35874Y-51418D01*
X35820Y-51418D01*
X35778Y-51460D01*
X35778Y-51774D01*
X36033Y-51774D01*
X36075Y-51732D01*
X36075Y-51619D01*
X37366Y-52910D01*
X37437Y-52957D01*
X37505Y-52971D01*
X36075Y-52971D01*
X36075Y-52014D01*
X36075Y-51947D01*
X36075Y-51834D01*
X36033Y-51792D01*
X35778Y-51792D01*
X35778Y-52106D01*
X35820Y-52148D01*
X35940Y-52148D01*
X36002Y-52123D01*
X36049Y-52075D01*
X36075Y-52014D01*
X36075Y-52971D01*
X35760Y-52971D01*
X35760Y-52106D01*
X35760Y-51792D01*
X35760Y-51774D01*
X35760Y-51460D01*
X35718Y-51418D01*
X35598Y-51418D01*
X35536Y-51443D01*
X35489Y-51491D01*
X35463Y-51552D01*
X35463Y-51619D01*
X35463Y-51732D01*
X35505Y-51774D01*
X35760Y-51774D01*
X35760Y-51792D01*
X35505Y-51792D01*
X35463Y-51834D01*
X35463Y-51947D01*
X35463Y-52014D01*
X35489Y-52075D01*
X35536Y-52123D01*
X35598Y-52148D01*
X35718Y-52148D01*
X35760Y-52106D01*
X35760Y-52971D01*
X35700Y-52971D01*
X35700Y-52947D01*
X35700Y-52553D01*
X35675Y-52491D01*
X35627Y-52444D01*
X35566Y-52418D01*
X35499Y-52418D01*
X35223Y-52418D01*
X35161Y-52443D01*
X35114Y-52491D01*
X35088Y-52552D01*
X35088Y-52619D01*
X35088Y-52971D01*
X34657Y-52971D01*
X34657Y-52014D01*
X34657Y-51947D01*
X34657Y-51834D01*
X34657Y-51732D01*
X34657Y-51619D01*
X34657Y-51552D01*
X34631Y-51491D01*
X34584Y-51443D01*
X34522Y-51418D01*
X34402Y-51418D01*
X34360Y-51460D01*
X34360Y-51774D01*
X34615Y-51774D01*
X34657Y-51732D01*
X34657Y-51834D01*
X34615Y-51792D01*
X34360Y-51792D01*
X34360Y-52106D01*
X34402Y-52148D01*
X34522Y-52148D01*
X34584Y-52123D01*
X34631Y-52075D01*
X34657Y-52014D01*
X34657Y-52971D01*
X34342Y-52971D01*
X34342Y-52106D01*
X34342Y-51792D01*
X34342Y-51774D01*
X34342Y-51460D01*
X34300Y-51418D01*
X34180Y-51418D01*
X34118Y-51443D01*
X34071Y-51491D01*
X34045Y-51552D01*
X34045Y-51619D01*
X34045Y-51732D01*
X34087Y-51774D01*
X34342Y-51774D01*
X34342Y-51792D01*
X34087Y-51792D01*
X34045Y-51834D01*
X34045Y-51947D01*
X34045Y-52014D01*
X34071Y-52075D01*
X34118Y-52123D01*
X34180Y-52148D01*
X34300Y-52148D01*
X34342Y-52106D01*
X34342Y-52971D01*
X34282Y-52971D01*
X34282Y-52947D01*
X34282Y-52553D01*
X34257Y-52491D01*
X34209Y-52444D01*
X34148Y-52418D01*
X34081Y-52418D01*
X33819Y-52418D01*
X33819Y-52129D01*
X33834Y-52123D01*
X33881Y-52075D01*
X33907Y-52014D01*
X33907Y-51947D01*
X33907Y-51553D01*
X33882Y-51491D01*
X33834Y-51444D01*
X33819Y-51437D01*
X33819Y-51389D01*
X33912Y-51296D01*
X33964Y-51170D01*
X33964Y-51034D01*
X33912Y-50908D01*
X33816Y-50812D01*
X33690Y-50760D01*
X33554Y-50760D01*
X33428Y-50812D01*
X33332Y-50908D01*
X33280Y-51034D01*
X33280Y-51170D01*
X33332Y-51296D01*
X33383Y-51347D01*
X33383Y-51436D01*
X33368Y-51443D01*
X33321Y-51491D01*
X33295Y-51552D01*
X33295Y-51619D01*
X33295Y-52013D01*
X33320Y-52075D01*
X33368Y-52122D01*
X33383Y-52128D01*
X33383Y-53050D01*
X33400Y-53133D01*
X33447Y-53204D01*
X33585Y-53343D01*
X33586Y-53343D01*
X33632Y-53373D01*
X33656Y-53389D01*
X33657Y-53390D01*
X33740Y-53407D01*
X37694Y-53407D01*
X37650Y-53515D01*
X37650Y-53651D01*
X37702Y-53777D01*
X37796Y-53871D01*
X37798Y-53873D01*
X37838Y-53934D01*
X40671Y-56768D01*
X40672Y-56768D01*
X40718Y-56798D01*
X40742Y-56814D01*
X40743Y-56815D01*
X40825Y-56831D01*
X40826Y-56832D01*
X40924Y-56832D01*
X40924Y-58858D01*
X40941Y-58941D01*
X40988Y-59012D01*
X41181Y-59206D01*
X39943Y-59206D01*
X39943Y-58067D01*
X39943Y-57682D01*
X39796Y-57327D01*
X39524Y-57054D01*
X39169Y-56907D01*
X38784Y-56907D01*
X38429Y-57054D01*
X38156Y-57326D01*
X38009Y-57681D01*
X38009Y-58066D01*
X38156Y-58421D01*
X38428Y-58694D01*
X38783Y-58841D01*
X39168Y-58841D01*
X39523Y-58694D01*
X39796Y-58422D01*
X39943Y-58067D01*
X39943Y-59206D01*
X35385Y-59206D01*
X35385Y-53592D01*
X33140Y-53592D01*
X33140Y-51568D01*
X33140Y-51501D01*
X33140Y-50715D01*
X33140Y-50170D01*
X33140Y-50103D01*
X33140Y-50089D01*
X33098Y-50047D01*
X32489Y-50047D01*
X32489Y-50262D01*
X32531Y-50304D01*
X33005Y-50304D01*
X33067Y-50279D01*
X33114Y-50231D01*
X33140Y-50170D01*
X33140Y-50715D01*
X33115Y-50653D01*
X33067Y-50606D01*
X33006Y-50580D01*
X32939Y-50580D01*
X31955Y-50580D01*
X31893Y-50605D01*
X31846Y-50653D01*
X31820Y-50714D01*
X31820Y-50781D01*
X31820Y-51567D01*
X31845Y-51629D01*
X31893Y-51676D01*
X31954Y-51702D01*
X32021Y-51702D01*
X33005Y-51702D01*
X33067Y-51677D01*
X33114Y-51629D01*
X33140Y-51568D01*
X33140Y-53592D01*
X30975Y-53592D01*
X30975Y-51607D01*
X30975Y-51540D01*
X30975Y-50754D01*
X30975Y-48065D01*
X30975Y-47998D01*
X30975Y-47212D01*
X30950Y-47150D01*
X30902Y-47103D01*
X30841Y-47077D01*
X30774Y-47077D01*
X29790Y-47077D01*
X29728Y-47102D01*
X29681Y-47150D01*
X29655Y-47211D01*
X29655Y-47278D01*
X29655Y-48064D01*
X29680Y-48126D01*
X29728Y-48173D01*
X29789Y-48199D01*
X29856Y-48199D01*
X30840Y-48199D01*
X30902Y-48174D01*
X30949Y-48126D01*
X30975Y-48065D01*
X30975Y-50754D01*
X30950Y-50692D01*
X30902Y-50645D01*
X30841Y-50619D01*
X30774Y-50619D01*
X29790Y-50619D01*
X29728Y-50644D01*
X29681Y-50692D01*
X29655Y-50753D01*
X29655Y-50820D01*
X29655Y-51606D01*
X29680Y-51668D01*
X29728Y-51715D01*
X29789Y-51741D01*
X29856Y-51741D01*
X30840Y-51741D01*
X30902Y-51716D01*
X30949Y-51668D01*
X30975Y-51607D01*
X30975Y-53592D01*
X29377Y-53592D01*
X29377Y-41207D01*
X29495Y-41492D01*
X29767Y-41765D01*
X30122Y-41912D01*
X30507Y-41912D01*
X30862Y-41765D01*
X31135Y-41493D01*
X31282Y-41138D01*
X31282Y-40753D01*
X31135Y-40398D01*
X30863Y-40125D01*
X30578Y-40007D01*
X47375Y-40007D01*
X47091Y-40125D01*
X46818Y-40397D01*
X46671Y-40752D01*
X46671Y-41137D01*
X46818Y-41492D01*
X47090Y-41765D01*
X47445Y-41912D01*
X47830Y-41912D01*
X48185Y-41765D01*
X48458Y-41493D01*
X48576Y-41208D01*
X48576Y-58246D01*
X48576Y-58246D01*
G37*
G54D29*
X48576Y-58246D02*
X48500Y-58626D01*
X48298Y-58926D01*
X47995Y-59130D01*
X47615Y-59206D01*
X47500Y-59206D01*
X48481Y-58226D01*
X48481Y-58225D01*
X48511Y-58179D01*
X48527Y-58155D01*
X48528Y-58154D01*
X48544Y-58071D01*
X48545Y-58071D01*
X48545Y-56988D01*
X48544Y-56987D01*
X48528Y-56905D01*
X48527Y-56904D01*
X48511Y-56880D01*
X48481Y-56834D01*
X48481Y-56833D01*
X47990Y-56343D01*
X47989Y-56342D01*
X47944Y-56231D01*
X47812Y-56099D01*
X47640Y-56028D01*
X47454Y-56028D01*
X47282Y-56099D01*
X47265Y-56116D01*
X47265Y-56086D01*
X47406Y-55944D01*
X47454Y-55964D01*
X47640Y-55964D01*
X47812Y-55893D01*
X47944Y-55761D01*
X48015Y-55589D01*
X48015Y-55403D01*
X47944Y-55231D01*
X47884Y-55171D01*
X47884Y-49793D01*
X47884Y-49726D01*
X47884Y-49176D01*
X47876Y-49156D01*
X47876Y-47379D01*
X47813Y-47218D01*
X47804Y-47205D01*
X47730Y-47181D01*
X47717Y-47194D01*
X47717Y-47168D01*
X47693Y-47094D01*
X47535Y-47025D01*
X47363Y-47022D01*
X47202Y-47085D01*
X47189Y-47094D01*
X47165Y-47168D01*
X47441Y-47444D01*
X47717Y-47168D01*
X47717Y-47194D01*
X47454Y-47457D01*
X47730Y-47733D01*
X47804Y-47709D01*
X47873Y-47551D01*
X47876Y-47379D01*
X47876Y-49156D01*
X47859Y-49114D01*
X47811Y-49067D01*
X47750Y-49041D01*
X47717Y-49041D01*
X47717Y-47746D01*
X47441Y-47470D01*
X47428Y-47483D01*
X47428Y-47457D01*
X47152Y-47181D01*
X47078Y-47205D01*
X47009Y-47363D01*
X47006Y-47535D01*
X47069Y-47696D01*
X47078Y-47709D01*
X47152Y-47733D01*
X47428Y-47457D01*
X47428Y-47483D01*
X47165Y-47746D01*
X47189Y-47820D01*
X47347Y-47889D01*
X47519Y-47892D01*
X47680Y-47829D01*
X47693Y-47820D01*
X47717Y-47746D01*
X47717Y-49041D01*
X47683Y-49041D01*
X47133Y-49041D01*
X47071Y-49066D01*
X47024Y-49114D01*
X46998Y-49175D01*
X46998Y-49242D01*
X46998Y-49792D01*
X47023Y-49854D01*
X47071Y-49901D01*
X47132Y-49927D01*
X47199Y-49927D01*
X47749Y-49927D01*
X47811Y-49902D01*
X47858Y-49854D01*
X47884Y-49793D01*
X47884Y-55171D01*
X47883Y-55170D01*
X47883Y-50572D01*
X47883Y-50396D01*
X47816Y-50234D01*
X47691Y-50109D01*
X47529Y-50042D01*
X47353Y-50042D01*
X47191Y-50109D01*
X47066Y-50234D01*
X46999Y-50396D01*
X46999Y-50572D01*
X47066Y-50734D01*
X47191Y-50859D01*
X47353Y-50926D01*
X47529Y-50926D01*
X47691Y-50859D01*
X47816Y-50734D01*
X47883Y-50572D01*
X47883Y-55170D01*
X47876Y-55163D01*
X47876Y-52406D01*
X47876Y-51406D01*
X47813Y-51245D01*
X47804Y-51232D01*
X47730Y-51208D01*
X47717Y-51221D01*
X47717Y-51195D01*
X47693Y-51121D01*
X47535Y-51052D01*
X47363Y-51049D01*
X47202Y-51112D01*
X47189Y-51121D01*
X47165Y-51195D01*
X47441Y-51471D01*
X47717Y-51195D01*
X47717Y-51221D01*
X47454Y-51484D01*
X47730Y-51760D01*
X47804Y-51736D01*
X47873Y-51578D01*
X47876Y-51406D01*
X47876Y-52406D01*
X47813Y-52245D01*
X47804Y-52232D01*
X47730Y-52208D01*
X47717Y-52221D01*
X47717Y-52195D01*
X47717Y-51773D01*
X47441Y-51497D01*
X47428Y-51510D01*
X47428Y-51484D01*
X47152Y-51208D01*
X47078Y-51232D01*
X47009Y-51390D01*
X47006Y-51562D01*
X47069Y-51723D01*
X47078Y-51736D01*
X47152Y-51760D01*
X47428Y-51484D01*
X47428Y-51510D01*
X47165Y-51773D01*
X47189Y-51847D01*
X47347Y-51916D01*
X47519Y-51919D01*
X47680Y-51856D01*
X47693Y-51847D01*
X47717Y-51773D01*
X47717Y-52195D01*
X47693Y-52121D01*
X47535Y-52052D01*
X47363Y-52049D01*
X47202Y-52112D01*
X47189Y-52121D01*
X47165Y-52195D01*
X47441Y-52471D01*
X47717Y-52195D01*
X47717Y-52221D01*
X47454Y-52484D01*
X47730Y-52760D01*
X47804Y-52736D01*
X47873Y-52578D01*
X47876Y-52406D01*
X47876Y-55163D01*
X47812Y-55099D01*
X47717Y-55059D01*
X47717Y-52773D01*
X47441Y-52497D01*
X47428Y-52510D01*
X47428Y-52484D01*
X47152Y-52208D01*
X47078Y-52232D01*
X47009Y-52390D01*
X47006Y-52562D01*
X47069Y-52723D01*
X47078Y-52736D01*
X47152Y-52760D01*
X47428Y-52484D01*
X47428Y-52510D01*
X47165Y-52773D01*
X47189Y-52847D01*
X47347Y-52916D01*
X47519Y-52919D01*
X47680Y-52856D01*
X47693Y-52847D01*
X47717Y-52773D01*
X47717Y-55059D01*
X47640Y-55028D01*
X47454Y-55028D01*
X47282Y-55099D01*
X47150Y-55231D01*
X47079Y-55403D01*
X47079Y-55589D01*
X47098Y-55636D01*
X47015Y-55720D01*
X47015Y-55163D01*
X46990Y-55101D01*
X46942Y-55054D01*
X46881Y-55028D01*
X46814Y-55028D01*
X46214Y-55028D01*
X46152Y-55053D01*
X46105Y-55101D01*
X46079Y-55162D01*
X46079Y-55229D01*
X46079Y-55829D01*
X46104Y-55891D01*
X46152Y-55938D01*
X46213Y-55964D01*
X46280Y-55964D01*
X46835Y-55964D01*
X46829Y-55996D01*
X46829Y-56116D01*
X46812Y-56099D01*
X46640Y-56028D01*
X46454Y-56028D01*
X46282Y-56099D01*
X46150Y-56231D01*
X46079Y-56403D01*
X46079Y-56589D01*
X46150Y-56761D01*
X46282Y-56893D01*
X46454Y-56964D01*
X46640Y-56964D01*
X46812Y-56893D01*
X46829Y-56876D01*
X46829Y-57116D01*
X46812Y-57099D01*
X46640Y-57028D01*
X46454Y-57028D01*
X46282Y-57099D01*
X46150Y-57231D01*
X46079Y-57403D01*
X46079Y-57589D01*
X46150Y-57761D01*
X46282Y-57893D01*
X46454Y-57964D01*
X46640Y-57964D01*
X46655Y-57957D01*
X46532Y-58081D01*
X45618Y-58081D01*
X45618Y-48572D01*
X45618Y-48436D01*
X45566Y-48310D01*
X45470Y-48214D01*
X45344Y-48162D01*
X45208Y-48162D01*
X45082Y-48214D01*
X44986Y-48310D01*
X44934Y-48436D01*
X44934Y-48572D01*
X44986Y-48698D01*
X45058Y-48770D01*
X45058Y-50402D01*
X44728Y-50732D01*
X44681Y-50803D01*
X44664Y-50886D01*
X44664Y-55247D01*
X44236Y-55676D01*
X44045Y-55866D01*
X44045Y-51075D01*
X44045Y-50918D01*
X44045Y-50816D01*
X44045Y-50659D01*
X44020Y-50597D01*
X43972Y-50550D01*
X43911Y-50524D01*
X43844Y-50524D01*
X43653Y-50524D01*
X43611Y-50566D01*
X43611Y-50858D01*
X44003Y-50858D01*
X44045Y-50816D01*
X44045Y-50918D01*
X44003Y-50876D01*
X43611Y-50876D01*
X43611Y-51168D01*
X43653Y-51210D01*
X43844Y-51210D01*
X43911Y-51210D01*
X43972Y-51184D01*
X44020Y-51137D01*
X44045Y-51075D01*
X44045Y-55866D01*
X43745Y-56166D01*
X43743Y-56168D01*
X43593Y-56318D01*
X43593Y-51168D01*
X43593Y-50876D01*
X43593Y-50858D01*
X43593Y-50566D01*
X43551Y-50524D01*
X43360Y-50524D01*
X43293Y-50524D01*
X43232Y-50550D01*
X43184Y-50597D01*
X43159Y-50659D01*
X43159Y-50816D01*
X43201Y-50858D01*
X43593Y-50858D01*
X43593Y-50876D01*
X43201Y-50876D01*
X43159Y-50918D01*
X43159Y-51075D01*
X43184Y-51137D01*
X43232Y-51184D01*
X43293Y-51210D01*
X43360Y-51210D01*
X43551Y-51210D01*
X43593Y-51168D01*
X43593Y-56318D01*
X43061Y-56850D01*
X43014Y-56831D01*
X42828Y-56831D01*
X42656Y-56902D01*
X42524Y-57034D01*
X42453Y-57206D01*
X42453Y-57392D01*
X42524Y-57564D01*
X42656Y-57696D01*
X42828Y-57767D01*
X43014Y-57767D01*
X43186Y-57696D01*
X43318Y-57564D01*
X43389Y-57392D01*
X43389Y-57206D01*
X43369Y-57158D01*
X44052Y-56477D01*
X44053Y-56474D01*
X44544Y-55984D01*
X45036Y-55493D01*
X45036Y-55492D01*
X45066Y-55446D01*
X45082Y-55422D01*
X45083Y-55421D01*
X45099Y-55339D01*
X45100Y-55338D01*
X45100Y-50976D01*
X45430Y-50646D01*
X45477Y-50576D01*
X45477Y-50575D01*
X45494Y-50492D01*
X45494Y-48770D01*
X45566Y-48698D01*
X45618Y-48572D01*
X45618Y-58081D01*
X43389Y-58081D01*
X43389Y-57966D01*
X43364Y-57904D01*
X43316Y-57857D01*
X43255Y-57831D01*
X43188Y-57831D01*
X42588Y-57831D01*
X42526Y-57856D01*
X42479Y-57904D01*
X42453Y-57965D01*
X42453Y-58032D01*
X42453Y-58632D01*
X42478Y-58694D01*
X42526Y-58741D01*
X42587Y-58767D01*
X42654Y-58767D01*
X43254Y-58767D01*
X43316Y-58742D01*
X43363Y-58694D01*
X43389Y-58633D01*
X43389Y-58566D01*
X43389Y-58517D01*
X46622Y-58517D01*
X46705Y-58500D01*
X46776Y-58453D01*
X47201Y-58028D01*
X47248Y-57957D01*
X47265Y-57874D01*
X47265Y-57861D01*
X47271Y-57854D01*
X47280Y-57879D01*
X47447Y-57953D01*
X47629Y-57957D01*
X47799Y-57891D01*
X47814Y-57879D01*
X47841Y-57803D01*
X47582Y-57544D01*
X47547Y-57509D01*
X47534Y-57496D01*
X47547Y-57483D01*
X47582Y-57448D01*
X47841Y-57189D01*
X47814Y-57113D01*
X47647Y-57039D01*
X47465Y-57035D01*
X47295Y-57101D01*
X47280Y-57113D01*
X47271Y-57137D01*
X47265Y-57131D01*
X47265Y-56876D01*
X47282Y-56893D01*
X47454Y-56964D01*
X47640Y-56964D01*
X47812Y-56893D01*
X47867Y-56837D01*
X48109Y-57078D01*
X48109Y-57980D01*
X48008Y-58081D01*
X48008Y-57414D01*
X47942Y-57244D01*
X47930Y-57229D01*
X47854Y-57202D01*
X47560Y-57496D01*
X47854Y-57790D01*
X47930Y-57763D01*
X48004Y-57596D01*
X48008Y-57414D01*
X48008Y-58081D01*
X47252Y-58837D01*
X42389Y-58837D01*
X42389Y-58392D01*
X42389Y-58206D01*
X42318Y-58034D01*
X42186Y-57902D01*
X42014Y-57831D01*
X41828Y-57831D01*
X41656Y-57902D01*
X41524Y-58034D01*
X41453Y-58206D01*
X41453Y-58392D01*
X41524Y-58564D01*
X41656Y-58696D01*
X41828Y-58767D01*
X42014Y-58767D01*
X42186Y-58696D01*
X42318Y-58564D01*
X42389Y-58392D01*
X42389Y-58837D01*
X41429Y-58837D01*
X41360Y-58767D01*
X41360Y-56684D01*
X41511Y-56532D01*
X41524Y-56564D01*
X41656Y-56696D01*
X41828Y-56767D01*
X42014Y-56767D01*
X42186Y-56696D01*
X42216Y-56666D01*
X42216Y-56701D01*
X42064Y-56852D01*
X42014Y-56831D01*
X41828Y-56831D01*
X41656Y-56902D01*
X41524Y-57034D01*
X41453Y-57206D01*
X41453Y-57392D01*
X41524Y-57564D01*
X41656Y-57696D01*
X41828Y-57767D01*
X42014Y-57767D01*
X42186Y-57696D01*
X42318Y-57564D01*
X42389Y-57392D01*
X42389Y-57206D01*
X42370Y-57162D01*
X42588Y-56945D01*
X42635Y-56875D01*
X42635Y-56874D01*
X42637Y-56860D01*
X42651Y-56791D01*
X42652Y-56791D01*
X42652Y-56692D01*
X42656Y-56696D01*
X42828Y-56767D01*
X43014Y-56767D01*
X43186Y-56696D01*
X43318Y-56564D01*
X43389Y-56392D01*
X43389Y-56206D01*
X43318Y-56034D01*
X43186Y-55902D01*
X43014Y-55831D01*
X42828Y-55831D01*
X42656Y-55902D01*
X42652Y-55906D01*
X42652Y-55692D01*
X42656Y-55696D01*
X42828Y-55767D01*
X43014Y-55767D01*
X43186Y-55696D01*
X43318Y-55564D01*
X43389Y-55392D01*
X43389Y-55206D01*
X43382Y-55189D01*
X43382Y-54217D01*
X43316Y-54047D01*
X43304Y-54032D01*
X43228Y-54005D01*
X42934Y-54299D01*
X43228Y-54593D01*
X43304Y-54566D01*
X43378Y-54399D01*
X43382Y-54217D01*
X43382Y-55189D01*
X43318Y-55034D01*
X43186Y-54902D01*
X43014Y-54831D01*
X42828Y-54831D01*
X42656Y-54902D01*
X42652Y-54906D01*
X42652Y-54676D01*
X42654Y-54682D01*
X42821Y-54756D01*
X43003Y-54760D01*
X43173Y-54694D01*
X43188Y-54682D01*
X43215Y-54606D01*
X42956Y-54347D01*
X42921Y-54312D01*
X42908Y-54299D01*
X42921Y-54286D01*
X42956Y-54251D01*
X43215Y-53992D01*
X43188Y-53916D01*
X43021Y-53842D01*
X42839Y-53838D01*
X42766Y-53866D01*
X42766Y-51075D01*
X42766Y-50918D01*
X42766Y-50816D01*
X42766Y-50659D01*
X42741Y-50597D01*
X42693Y-50550D01*
X42632Y-50524D01*
X42565Y-50524D01*
X42374Y-50524D01*
X42332Y-50566D01*
X42332Y-50858D01*
X42724Y-50858D01*
X42766Y-50816D01*
X42766Y-50918D01*
X42724Y-50876D01*
X42332Y-50876D01*
X42332Y-51168D01*
X42374Y-51210D01*
X42565Y-51210D01*
X42632Y-51210D01*
X42693Y-51184D01*
X42741Y-51137D01*
X42766Y-51075D01*
X42766Y-53866D01*
X42669Y-53904D01*
X42654Y-53916D01*
X42652Y-53921D01*
X42652Y-51954D01*
X42635Y-51871D01*
X42634Y-51870D01*
X42618Y-51846D01*
X42588Y-51800D01*
X42588Y-51799D01*
X41986Y-51198D01*
X42014Y-51210D01*
X42081Y-51210D01*
X42272Y-51210D01*
X42314Y-51168D01*
X42314Y-50876D01*
X42314Y-50858D01*
X42314Y-50566D01*
X42272Y-50524D01*
X42081Y-50524D01*
X42014Y-50524D01*
X41953Y-50550D01*
X41905Y-50597D01*
X41880Y-50659D01*
X41880Y-50816D01*
X41922Y-50858D01*
X42314Y-50858D01*
X42314Y-50876D01*
X41922Y-50876D01*
X41880Y-50918D01*
X41880Y-51075D01*
X41891Y-51103D01*
X41854Y-51065D01*
X41854Y-50526D01*
X41837Y-50443D01*
X41836Y-50442D01*
X41820Y-50418D01*
X41790Y-50372D01*
X41790Y-50371D01*
X41470Y-50052D01*
X41399Y-50005D01*
X41316Y-49988D01*
X41237Y-49988D01*
X41237Y-49946D01*
X41237Y-49942D01*
X41195Y-49900D01*
X40735Y-49900D01*
X40685Y-49900D01*
X40667Y-49900D01*
X40617Y-49900D01*
X40157Y-49900D01*
X40115Y-49942D01*
X40115Y-49946D01*
X40115Y-50013D01*
X40130Y-50048D01*
X40115Y-50084D01*
X40115Y-50151D01*
X40115Y-50327D01*
X40129Y-50363D01*
X40115Y-50399D01*
X40115Y-50466D01*
X40115Y-50642D01*
X40140Y-50704D01*
X40188Y-50751D01*
X40249Y-50777D01*
X40316Y-50777D01*
X41102Y-50777D01*
X41164Y-50752D01*
X41172Y-50743D01*
X41172Y-54768D01*
X41189Y-54851D01*
X41236Y-54922D01*
X41472Y-55158D01*
X41453Y-55206D01*
X41453Y-55392D01*
X41524Y-55564D01*
X41656Y-55696D01*
X41828Y-55767D01*
X42014Y-55767D01*
X42186Y-55696D01*
X42216Y-55666D01*
X42216Y-55932D01*
X42186Y-55902D01*
X42014Y-55831D01*
X41828Y-55831D01*
X41656Y-55902D01*
X41524Y-56034D01*
X41504Y-56081D01*
X41437Y-56081D01*
X41353Y-56098D01*
X41283Y-56145D01*
X41032Y-56396D01*
X40916Y-56396D01*
X38286Y-53766D01*
X38334Y-53651D01*
X38334Y-53515D01*
X38289Y-53407D01*
X38701Y-53407D01*
X38740Y-53407D01*
X38958Y-53407D01*
X39000Y-53448D01*
X39061Y-53474D01*
X39128Y-53474D01*
X39678Y-53474D01*
X39740Y-53449D01*
X39787Y-53401D01*
X39813Y-53340D01*
X39813Y-53273D01*
X39813Y-52995D01*
X39911Y-53093D01*
X39911Y-53339D01*
X39936Y-53401D01*
X39984Y-53448D01*
X40045Y-53474D01*
X40112Y-53474D01*
X40662Y-53474D01*
X40724Y-53449D01*
X40771Y-53401D01*
X40797Y-53340D01*
X40797Y-53273D01*
X40797Y-52923D01*
X40772Y-52861D01*
X40724Y-52814D01*
X40663Y-52788D01*
X40596Y-52788D01*
X40222Y-52788D01*
X40158Y-52724D01*
X40662Y-52724D01*
X40724Y-52699D01*
X40771Y-52651D01*
X40797Y-52590D01*
X40797Y-52523D01*
X40797Y-52173D01*
X40772Y-52111D01*
X40724Y-52064D01*
X40663Y-52038D01*
X40596Y-52038D01*
X40566Y-52038D01*
X40555Y-51984D01*
X40554Y-51983D01*
X40538Y-51959D01*
X40508Y-51913D01*
X40508Y-51912D01*
X40410Y-51815D01*
X40339Y-51768D01*
X40256Y-51751D01*
X40141Y-51751D01*
X40148Y-51736D01*
X40148Y-51669D01*
X40148Y-50883D01*
X40123Y-50821D01*
X40075Y-50774D01*
X40014Y-50748D01*
X39947Y-50748D01*
X39771Y-50748D01*
X39734Y-50762D01*
X39700Y-50748D01*
X39633Y-50748D01*
X39457Y-50748D01*
X39419Y-50763D01*
X39384Y-50748D01*
X39317Y-50748D01*
X39204Y-50748D01*
X39266Y-50686D01*
X39318Y-50560D01*
X39318Y-50424D01*
X39266Y-50298D01*
X39170Y-50202D01*
X39044Y-50150D01*
X38908Y-50150D01*
X38850Y-50173D01*
X38850Y-49844D01*
X39061Y-49633D01*
X39162Y-49633D01*
X39288Y-49581D01*
X39384Y-49485D01*
X39436Y-49359D01*
X39436Y-49223D01*
X39411Y-49164D01*
X40115Y-49164D01*
X40115Y-49206D01*
X40115Y-49210D01*
X40157Y-49252D01*
X40617Y-49252D01*
X40667Y-49252D01*
X40685Y-49252D01*
X40735Y-49252D01*
X41195Y-49252D01*
X41237Y-49210D01*
X41237Y-49206D01*
X41237Y-49164D01*
X41269Y-49164D01*
X41416Y-49164D01*
X41416Y-49318D01*
X41376Y-49358D01*
X41237Y-49358D01*
X41237Y-49316D01*
X41237Y-49312D01*
X41195Y-49270D01*
X40735Y-49270D01*
X40685Y-49270D01*
X40667Y-49270D01*
X40617Y-49270D01*
X40157Y-49270D01*
X40115Y-49312D01*
X40115Y-49316D01*
X40115Y-49383D01*
X40130Y-49418D01*
X40115Y-49454D01*
X40115Y-49521D01*
X40115Y-49697D01*
X40129Y-49733D01*
X40115Y-49769D01*
X40115Y-49836D01*
X40115Y-49840D01*
X40157Y-49882D01*
X40617Y-49882D01*
X40667Y-49882D01*
X40685Y-49882D01*
X40735Y-49882D01*
X41195Y-49882D01*
X41237Y-49840D01*
X41237Y-49836D01*
X41237Y-49794D01*
X41317Y-49794D01*
X41677Y-50154D01*
X41747Y-50201D01*
X41748Y-50201D01*
X41831Y-50218D01*
X41880Y-50218D01*
X41880Y-50325D01*
X41905Y-50387D01*
X41953Y-50434D01*
X42014Y-50460D01*
X42081Y-50460D01*
X42631Y-50460D01*
X42693Y-50435D01*
X42740Y-50387D01*
X42762Y-50335D01*
X43163Y-50335D01*
X43184Y-50387D01*
X43232Y-50434D01*
X43293Y-50460D01*
X43360Y-50460D01*
X43910Y-50460D01*
X43972Y-50435D01*
X44019Y-50387D01*
X44041Y-50335D01*
X44044Y-50335D01*
X44097Y-50388D01*
X44223Y-50440D01*
X44359Y-50440D01*
X44485Y-50388D01*
X44581Y-50292D01*
X44633Y-50166D01*
X44633Y-50030D01*
X44581Y-49904D01*
X44485Y-49808D01*
X44359Y-49756D01*
X44223Y-49756D01*
X44097Y-49808D01*
X44030Y-49874D01*
X44020Y-49847D01*
X43972Y-49800D01*
X43911Y-49774D01*
X43844Y-49774D01*
X43294Y-49774D01*
X43232Y-49799D01*
X43185Y-49847D01*
X43162Y-49899D01*
X42963Y-49899D01*
X42963Y-49205D01*
X42963Y-49048D01*
X42963Y-48946D01*
X42963Y-48789D01*
X42938Y-48727D01*
X42890Y-48680D01*
X42829Y-48654D01*
X42762Y-48654D01*
X42571Y-48654D01*
X42529Y-48696D01*
X42529Y-48988D01*
X42921Y-48988D01*
X42963Y-48946D01*
X42963Y-49048D01*
X42921Y-49006D01*
X42529Y-49006D01*
X42529Y-49298D01*
X42571Y-49340D01*
X42762Y-49340D01*
X42829Y-49340D01*
X42890Y-49314D01*
X42938Y-49267D01*
X42963Y-49205D01*
X42963Y-49899D01*
X42761Y-49899D01*
X42741Y-49847D01*
X42693Y-49800D01*
X42632Y-49774D01*
X42565Y-49774D01*
X42511Y-49774D01*
X42511Y-49298D01*
X42511Y-49006D01*
X42119Y-49006D01*
X42077Y-49048D01*
X42077Y-49205D01*
X42102Y-49267D01*
X42150Y-49314D01*
X42211Y-49340D01*
X42278Y-49340D01*
X42469Y-49340D01*
X42511Y-49298D01*
X42511Y-49774D01*
X42015Y-49774D01*
X41995Y-49782D01*
X41921Y-49782D01*
X41745Y-49606D01*
X41788Y-49564D01*
X41788Y-49563D01*
X41818Y-49517D01*
X41834Y-49493D01*
X41835Y-49492D01*
X41851Y-49409D01*
X41852Y-49409D01*
X41852Y-49116D01*
X41877Y-49100D01*
X42077Y-48900D01*
X42077Y-48946D01*
X42119Y-48988D01*
X42511Y-48988D01*
X42511Y-48696D01*
X42469Y-48654D01*
X42323Y-48654D01*
X42387Y-48590D01*
X42828Y-48590D01*
X42890Y-48565D01*
X42937Y-48517D01*
X42959Y-48465D01*
X44174Y-48465D01*
X44257Y-48448D01*
X44328Y-48401D01*
X46014Y-46715D01*
X46014Y-47040D01*
X46039Y-47102D01*
X46087Y-47149D01*
X46148Y-47175D01*
X46215Y-47175D01*
X46765Y-47175D01*
X46827Y-47150D01*
X46874Y-47102D01*
X46896Y-47050D01*
X47226Y-47050D01*
X47309Y-47033D01*
X47380Y-46986D01*
X47467Y-46899D01*
X47529Y-46899D01*
X47691Y-46832D01*
X47816Y-46707D01*
X47883Y-46545D01*
X47883Y-46369D01*
X47816Y-46207D01*
X47691Y-46082D01*
X47529Y-46015D01*
X47353Y-46015D01*
X47191Y-46082D01*
X47066Y-46207D01*
X46999Y-46369D01*
X46999Y-46545D01*
X47027Y-46614D01*
X46895Y-46614D01*
X46875Y-46562D01*
X46827Y-46515D01*
X46766Y-46489D01*
X46699Y-46489D01*
X46240Y-46489D01*
X46304Y-46425D01*
X46765Y-46425D01*
X46827Y-46400D01*
X46874Y-46352D01*
X46900Y-46291D01*
X46900Y-46224D01*
X46900Y-45874D01*
X46875Y-45812D01*
X46827Y-45765D01*
X46766Y-45739D01*
X46699Y-45739D01*
X46675Y-45739D01*
X46675Y-45690D01*
X46998Y-45690D01*
X46998Y-45765D01*
X47023Y-45827D01*
X47071Y-45874D01*
X47132Y-45900D01*
X47199Y-45900D01*
X47749Y-45900D01*
X47811Y-45875D01*
X47858Y-45827D01*
X47884Y-45766D01*
X47884Y-45699D01*
X47884Y-45149D01*
X47859Y-45087D01*
X47811Y-45040D01*
X47750Y-45014D01*
X47683Y-45014D01*
X47133Y-45014D01*
X47071Y-45039D01*
X47024Y-45087D01*
X46998Y-45148D01*
X46998Y-45215D01*
X46998Y-45254D01*
X46556Y-45254D01*
X46473Y-45271D01*
X46402Y-45318D01*
X46303Y-45417D01*
X46256Y-45488D01*
X46239Y-45571D01*
X46239Y-45739D01*
X46149Y-45739D01*
X46087Y-45764D01*
X46040Y-45812D01*
X46014Y-45873D01*
X46014Y-45940D01*
X46014Y-46099D01*
X45810Y-46303D01*
X44084Y-48029D01*
X42958Y-48029D01*
X42938Y-47977D01*
X42890Y-47930D01*
X42829Y-47904D01*
X42762Y-47904D01*
X42266Y-47904D01*
X42314Y-47856D01*
X43799Y-47856D01*
X43882Y-47839D01*
X43953Y-47792D01*
X44622Y-47123D01*
X44669Y-47053D01*
X44669Y-47052D01*
X44686Y-46969D01*
X44686Y-46132D01*
X45583Y-46132D01*
X45645Y-46107D01*
X45692Y-46059D01*
X45718Y-45998D01*
X45718Y-45931D01*
X45718Y-45145D01*
X45693Y-45083D01*
X45645Y-45036D01*
X45584Y-45010D01*
X45517Y-45010D01*
X44687Y-45010D01*
X44687Y-44336D01*
X44739Y-44316D01*
X44786Y-44268D01*
X44812Y-44207D01*
X44812Y-44140D01*
X44812Y-43590D01*
X44787Y-43528D01*
X44739Y-43481D01*
X44678Y-43455D01*
X44611Y-43455D01*
X44261Y-43455D01*
X44199Y-43480D01*
X44152Y-43528D01*
X44126Y-43589D01*
X44126Y-43656D01*
X44126Y-44206D01*
X44151Y-44268D01*
X44199Y-44315D01*
X44251Y-44337D01*
X44251Y-45010D01*
X44062Y-45010D01*
X44062Y-44207D01*
X44062Y-44140D01*
X44062Y-43949D01*
X44062Y-43847D01*
X44062Y-43656D01*
X44062Y-43589D01*
X44036Y-43528D01*
X43989Y-43480D01*
X43927Y-43455D01*
X43770Y-43455D01*
X43728Y-43497D01*
X43728Y-43889D01*
X44020Y-43889D01*
X44062Y-43847D01*
X44062Y-43949D01*
X44020Y-43907D01*
X43728Y-43907D01*
X43728Y-44299D01*
X43770Y-44341D01*
X43927Y-44341D01*
X43989Y-44316D01*
X44036Y-44268D01*
X44062Y-44207D01*
X44062Y-45010D01*
X43710Y-45010D01*
X43710Y-44299D01*
X43710Y-43907D01*
X43710Y-43889D01*
X43710Y-43497D01*
X43668Y-43455D01*
X43511Y-43455D01*
X43449Y-43480D01*
X43402Y-43528D01*
X43376Y-43589D01*
X43376Y-43656D01*
X43376Y-43847D01*
X43418Y-43889D01*
X43710Y-43889D01*
X43710Y-43907D01*
X43418Y-43907D01*
X43376Y-43949D01*
X43376Y-44140D01*
X43376Y-44207D01*
X43402Y-44268D01*
X43449Y-44316D01*
X43511Y-44341D01*
X43668Y-44341D01*
X43710Y-44299D01*
X43710Y-45010D01*
X43353Y-45010D01*
X43291Y-45035D01*
X43244Y-45083D01*
X43218Y-45144D01*
X43218Y-45211D01*
X43218Y-45997D01*
X43243Y-46059D01*
X43291Y-46106D01*
X43352Y-46132D01*
X43419Y-46132D01*
X44250Y-46132D01*
X44250Y-46879D01*
X43709Y-47420D01*
X42224Y-47420D01*
X42141Y-47437D01*
X42116Y-47453D01*
X42069Y-47484D01*
X41718Y-47835D01*
X41718Y-47340D01*
X41701Y-47257D01*
X41701Y-47256D01*
X41654Y-47186D01*
X40986Y-46518D01*
X40986Y-46132D01*
X41883Y-46132D01*
X41945Y-46107D01*
X41992Y-46059D01*
X42018Y-45998D01*
X42018Y-45931D01*
X42018Y-45145D01*
X41993Y-45083D01*
X41945Y-45036D01*
X41884Y-45010D01*
X41860Y-45010D01*
X41860Y-44207D01*
X41860Y-44140D01*
X41860Y-43949D01*
X41860Y-43847D01*
X41860Y-43656D01*
X41860Y-43589D01*
X41834Y-43528D01*
X41787Y-43480D01*
X41725Y-43455D01*
X41568Y-43455D01*
X41526Y-43497D01*
X41526Y-43889D01*
X41818Y-43889D01*
X41860Y-43847D01*
X41860Y-43949D01*
X41818Y-43907D01*
X41526Y-43907D01*
X41526Y-44299D01*
X41568Y-44341D01*
X41725Y-44341D01*
X41787Y-44316D01*
X41834Y-44268D01*
X41860Y-44207D01*
X41860Y-45010D01*
X41817Y-45010D01*
X41508Y-45010D01*
X41508Y-44299D01*
X41508Y-43907D01*
X41508Y-43889D01*
X41508Y-43497D01*
X41466Y-43455D01*
X41309Y-43455D01*
X41247Y-43480D01*
X41200Y-43528D01*
X41174Y-43589D01*
X41174Y-43656D01*
X41174Y-43847D01*
X41216Y-43889D01*
X41508Y-43889D01*
X41508Y-43907D01*
X41216Y-43907D01*
X41174Y-43949D01*
X41174Y-44140D01*
X41174Y-44207D01*
X41200Y-44268D01*
X41247Y-44316D01*
X41309Y-44341D01*
X41466Y-44341D01*
X41508Y-44299D01*
X41508Y-45010D01*
X40985Y-45010D01*
X40985Y-44336D01*
X41037Y-44316D01*
X41084Y-44268D01*
X41110Y-44207D01*
X41110Y-44140D01*
X41110Y-43590D01*
X41085Y-43528D01*
X41037Y-43481D01*
X40976Y-43455D01*
X40909Y-43455D01*
X40559Y-43455D01*
X40497Y-43480D01*
X40450Y-43528D01*
X40424Y-43589D01*
X40424Y-43656D01*
X40424Y-44206D01*
X40449Y-44268D01*
X40497Y-44315D01*
X40549Y-44337D01*
X40549Y-45010D01*
X39653Y-45010D01*
X39591Y-45035D01*
X39544Y-45083D01*
X39518Y-45144D01*
X39518Y-45211D01*
X39518Y-45997D01*
X39543Y-46059D01*
X39591Y-46106D01*
X39652Y-46132D01*
X39719Y-46132D01*
X40550Y-46132D01*
X40550Y-46608D01*
X40567Y-46691D01*
X40614Y-46762D01*
X41282Y-47430D01*
X41282Y-48010D01*
X41194Y-48098D01*
X41176Y-48098D01*
X41164Y-48086D01*
X41103Y-48060D01*
X41036Y-48060D01*
X40250Y-48060D01*
X40188Y-48085D01*
X40141Y-48133D01*
X40115Y-48194D01*
X40115Y-48261D01*
X40115Y-48437D01*
X40129Y-48473D01*
X40115Y-48509D01*
X40115Y-48576D01*
X40115Y-48728D01*
X39984Y-48728D01*
X40014Y-48698D01*
X40066Y-48572D01*
X40066Y-48494D01*
X40066Y-48493D01*
X40072Y-48482D01*
X40073Y-48454D01*
X40080Y-48425D01*
X40080Y-48327D01*
X40080Y-48057D01*
X40120Y-48017D01*
X40146Y-47956D01*
X40146Y-47889D01*
X40146Y-47103D01*
X40121Y-47041D01*
X40073Y-46994D01*
X40012Y-46968D01*
X39945Y-46968D01*
X39769Y-46968D01*
X39734Y-46981D01*
X39702Y-46968D01*
X39635Y-46968D01*
X39459Y-46968D01*
X39419Y-46983D01*
X39382Y-46968D01*
X39315Y-46968D01*
X39168Y-46968D01*
X39168Y-46671D01*
X39434Y-46406D01*
X39434Y-46405D01*
X39464Y-46359D01*
X39480Y-46335D01*
X39481Y-46334D01*
X39497Y-46251D01*
X39498Y-46251D01*
X39498Y-43892D01*
X39530Y-43879D01*
X39655Y-43754D01*
X39722Y-43592D01*
X39722Y-43416D01*
X39683Y-43321D01*
X39683Y-41230D01*
X39683Y-41054D01*
X39616Y-40892D01*
X39491Y-40767D01*
X39329Y-40700D01*
X39153Y-40700D01*
X38991Y-40767D01*
X38866Y-40892D01*
X38799Y-41054D01*
X38799Y-41230D01*
X38866Y-41392D01*
X38991Y-41517D01*
X39153Y-41584D01*
X39329Y-41584D01*
X39491Y-41517D01*
X39616Y-41392D01*
X39683Y-41230D01*
X39683Y-43321D01*
X39655Y-43254D01*
X39530Y-43129D01*
X39368Y-43062D01*
X39192Y-43062D01*
X39030Y-43129D01*
X38905Y-43254D01*
X38838Y-43416D01*
X38838Y-43592D01*
X38905Y-43754D01*
X39030Y-43879D01*
X39062Y-43892D01*
X39062Y-46160D01*
X38858Y-46364D01*
X38858Y-44743D01*
X38841Y-44660D01*
X38841Y-44659D01*
X38794Y-44589D01*
X38498Y-44293D01*
X38498Y-43947D01*
X38588Y-43947D01*
X38650Y-43922D01*
X38697Y-43874D01*
X38723Y-43813D01*
X38723Y-43746D01*
X38723Y-43196D01*
X38698Y-43134D01*
X38650Y-43087D01*
X38589Y-43061D01*
X38522Y-43061D01*
X37974Y-43061D01*
X37974Y-41717D01*
X38106Y-41585D01*
X38549Y-41585D01*
X38611Y-41560D01*
X38658Y-41512D01*
X38684Y-41451D01*
X38684Y-41384D01*
X38684Y-40834D01*
X38659Y-40772D01*
X38611Y-40725D01*
X38550Y-40699D01*
X38483Y-40699D01*
X37933Y-40699D01*
X37871Y-40724D01*
X37824Y-40772D01*
X37798Y-40833D01*
X37798Y-40900D01*
X37798Y-41276D01*
X37602Y-41473D01*
X37555Y-41544D01*
X37538Y-41627D01*
X37538Y-44173D01*
X37555Y-44256D01*
X37602Y-44327D01*
X38102Y-44827D01*
X38102Y-45249D01*
X38102Y-45276D01*
X38102Y-46427D01*
X38060Y-46410D01*
X38056Y-46410D01*
X37816Y-46170D01*
X37816Y-44881D01*
X37799Y-44798D01*
X37799Y-44797D01*
X37752Y-44727D01*
X37575Y-44550D01*
X37504Y-44503D01*
X37449Y-44491D01*
X37426Y-44434D01*
X37378Y-44387D01*
X37317Y-44361D01*
X37250Y-44361D01*
X36700Y-44361D01*
X36638Y-44386D01*
X36591Y-44434D01*
X36568Y-44486D01*
X36462Y-44486D01*
X36442Y-44434D01*
X36394Y-44387D01*
X36333Y-44361D01*
X36266Y-44361D01*
X36242Y-44361D01*
X36242Y-44291D01*
X36225Y-44208D01*
X36225Y-44207D01*
X36178Y-44137D01*
X36018Y-43977D01*
X36038Y-43969D01*
X36085Y-43921D01*
X36111Y-43860D01*
X36111Y-43793D01*
X36111Y-42993D01*
X36086Y-42931D01*
X36038Y-42884D01*
X35977Y-42858D01*
X35910Y-42858D01*
X35686Y-42858D01*
X34222Y-41394D01*
X35596Y-41394D01*
X35658Y-41369D01*
X35705Y-41321D01*
X35731Y-41260D01*
X35731Y-41193D01*
X35731Y-40393D01*
X35706Y-40331D01*
X35658Y-40284D01*
X35597Y-40258D01*
X35530Y-40258D01*
X34090Y-40258D01*
X34028Y-40283D01*
X33981Y-40331D01*
X33955Y-40392D01*
X33955Y-40459D01*
X33955Y-41218D01*
X33155Y-41218D01*
X33135Y-41166D01*
X33087Y-41119D01*
X33026Y-41093D01*
X32959Y-41093D01*
X32409Y-41093D01*
X32347Y-41118D01*
X32300Y-41166D01*
X32274Y-41227D01*
X32274Y-41294D01*
X32274Y-41644D01*
X32299Y-41706D01*
X32347Y-41753D01*
X32408Y-41779D01*
X32475Y-41779D01*
X33025Y-41779D01*
X33087Y-41754D01*
X33134Y-41706D01*
X33156Y-41654D01*
X33866Y-41654D01*
X34559Y-42347D01*
X34527Y-42341D01*
X33160Y-42341D01*
X33160Y-42328D01*
X33160Y-41978D01*
X33135Y-41916D01*
X33087Y-41869D01*
X33026Y-41843D01*
X32959Y-41843D01*
X32409Y-41843D01*
X32347Y-41868D01*
X32300Y-41916D01*
X32274Y-41977D01*
X32274Y-42044D01*
X32274Y-42394D01*
X32299Y-42456D01*
X32347Y-42503D01*
X32408Y-42529D01*
X32475Y-42529D01*
X32499Y-42529D01*
X32499Y-42559D01*
X32499Y-42589D01*
X32409Y-42589D01*
X32347Y-42614D01*
X32300Y-42662D01*
X32274Y-42723D01*
X32274Y-42790D01*
X32274Y-43140D01*
X32299Y-43202D01*
X32347Y-43249D01*
X32408Y-43275D01*
X32475Y-43275D01*
X33025Y-43275D01*
X33087Y-43250D01*
X33134Y-43202D01*
X33160Y-43141D01*
X33160Y-43074D01*
X33160Y-42777D01*
X34436Y-42777D01*
X34545Y-42885D01*
X34501Y-42931D01*
X34475Y-42992D01*
X34475Y-43059D01*
X34475Y-43859D01*
X34500Y-43921D01*
X34548Y-43968D01*
X34609Y-43994D01*
X34676Y-43994D01*
X35076Y-43994D01*
X35138Y-43969D01*
X35185Y-43921D01*
X35211Y-43860D01*
X35211Y-43793D01*
X35211Y-42999D01*
X35375Y-43163D01*
X35375Y-43859D01*
X35400Y-43921D01*
X35448Y-43968D01*
X35509Y-43994D01*
X35525Y-43994D01*
X35525Y-44010D01*
X35542Y-44093D01*
X35589Y-44164D01*
X35786Y-44361D01*
X35716Y-44361D01*
X35654Y-44386D01*
X35607Y-44434D01*
X35581Y-44495D01*
X35581Y-44562D01*
X35581Y-44912D01*
X35606Y-44974D01*
X35654Y-45021D01*
X35715Y-45047D01*
X35782Y-45047D01*
X36332Y-45047D01*
X36394Y-45022D01*
X36441Y-44974D01*
X36463Y-44922D01*
X36569Y-44922D01*
X36590Y-44974D01*
X36638Y-45021D01*
X36699Y-45047D01*
X36766Y-45047D01*
X37316Y-45047D01*
X37378Y-45022D01*
X37380Y-45019D01*
X37380Y-45138D01*
X37378Y-45137D01*
X37317Y-45111D01*
X37250Y-45111D01*
X37059Y-45111D01*
X37017Y-45153D01*
X37017Y-45395D01*
X37017Y-45445D01*
X37017Y-45463D01*
X37017Y-45513D01*
X37017Y-45755D01*
X37059Y-45797D01*
X37250Y-45797D01*
X37317Y-45797D01*
X37378Y-45771D01*
X37380Y-45769D01*
X37380Y-46260D01*
X37397Y-46343D01*
X37444Y-46414D01*
X37580Y-46550D01*
X37500Y-46534D01*
X37303Y-46534D01*
X37219Y-46551D01*
X37149Y-46598D01*
X36999Y-46748D01*
X36999Y-45755D01*
X36999Y-45463D01*
X36999Y-45445D01*
X36999Y-45153D01*
X36957Y-45111D01*
X36766Y-45111D01*
X36699Y-45111D01*
X36638Y-45137D01*
X36590Y-45184D01*
X36565Y-45246D01*
X36565Y-45403D01*
X36607Y-45445D01*
X36999Y-45445D01*
X36999Y-45463D01*
X36607Y-45463D01*
X36565Y-45505D01*
X36565Y-45662D01*
X36590Y-45724D01*
X36638Y-45771D01*
X36699Y-45797D01*
X36766Y-45797D01*
X36957Y-45797D01*
X36999Y-45755D01*
X36999Y-46748D01*
X36467Y-47280D01*
X36467Y-45662D01*
X36467Y-45505D01*
X36467Y-45403D01*
X36467Y-45246D01*
X36442Y-45184D01*
X36394Y-45137D01*
X36333Y-45111D01*
X36266Y-45111D01*
X36075Y-45111D01*
X36033Y-45153D01*
X36033Y-45445D01*
X36425Y-45445D01*
X36467Y-45403D01*
X36467Y-45505D01*
X36425Y-45463D01*
X36033Y-45463D01*
X36033Y-45755D01*
X36075Y-45797D01*
X36266Y-45797D01*
X36333Y-45797D01*
X36394Y-45771D01*
X36442Y-45724D01*
X36467Y-45662D01*
X36467Y-47280D01*
X36460Y-47287D01*
X36413Y-47358D01*
X36396Y-47441D01*
X36396Y-47470D01*
X36324Y-47542D01*
X36272Y-47668D01*
X36272Y-47804D01*
X36324Y-47930D01*
X36420Y-48026D01*
X36485Y-48053D01*
X36484Y-48053D01*
X36422Y-48078D01*
X36409Y-48091D01*
X36095Y-48091D01*
X36023Y-48019D01*
X36015Y-48015D01*
X36015Y-45755D01*
X36015Y-45463D01*
X36015Y-45445D01*
X36015Y-45153D01*
X35973Y-45111D01*
X35782Y-45111D01*
X35715Y-45111D01*
X35654Y-45137D01*
X35606Y-45184D01*
X35581Y-45246D01*
X35581Y-45403D01*
X35623Y-45445D01*
X36015Y-45445D01*
X36015Y-45463D01*
X35623Y-45463D01*
X35581Y-45505D01*
X35581Y-45662D01*
X35606Y-45724D01*
X35654Y-45771D01*
X35715Y-45797D01*
X35782Y-45797D01*
X35973Y-45797D01*
X36015Y-45755D01*
X36015Y-48015D01*
X35897Y-47967D01*
X35761Y-47967D01*
X35635Y-48019D01*
X35539Y-48115D01*
X35487Y-48241D01*
X35487Y-48377D01*
X35539Y-48503D01*
X35635Y-48599D01*
X35761Y-48651D01*
X35897Y-48651D01*
X36023Y-48599D01*
X36095Y-48527D01*
X36349Y-48527D01*
X36349Y-48574D01*
X36349Y-48750D01*
X36364Y-48789D01*
X36349Y-48827D01*
X36349Y-48894D01*
X36349Y-49070D01*
X36362Y-49104D01*
X36349Y-49137D01*
X36349Y-49204D01*
X36349Y-49380D01*
X36364Y-49419D01*
X36349Y-49457D01*
X36349Y-49524D01*
X36349Y-49700D01*
X36362Y-49734D01*
X36349Y-49767D01*
X36349Y-49834D01*
X36349Y-49979D01*
X36269Y-49979D01*
X36269Y-49889D01*
X36244Y-49827D01*
X36196Y-49780D01*
X36135Y-49754D01*
X36068Y-49754D01*
X35809Y-49754D01*
X35809Y-49646D01*
X35792Y-49563D01*
X35792Y-49562D01*
X35745Y-49492D01*
X35508Y-49255D01*
X35437Y-49208D01*
X35354Y-49191D01*
X35033Y-49191D01*
X35093Y-49131D01*
X35145Y-49005D01*
X35145Y-48869D01*
X35093Y-48743D01*
X34997Y-48647D01*
X34871Y-48595D01*
X34735Y-48595D01*
X34609Y-48647D01*
X34516Y-48740D01*
X34454Y-48740D01*
X34434Y-48688D01*
X34386Y-48641D01*
X34325Y-48615D01*
X34258Y-48615D01*
X33819Y-48615D01*
X33883Y-48551D01*
X34324Y-48551D01*
X34386Y-48526D01*
X34433Y-48478D01*
X34459Y-48417D01*
X34459Y-48350D01*
X34459Y-48000D01*
X34434Y-47938D01*
X34386Y-47891D01*
X34325Y-47865D01*
X34258Y-47865D01*
X34254Y-47865D01*
X34254Y-46304D01*
X34306Y-46284D01*
X34353Y-46236D01*
X34379Y-46175D01*
X34379Y-46108D01*
X34379Y-46084D01*
X34577Y-46084D01*
X34649Y-46156D01*
X34775Y-46208D01*
X34911Y-46208D01*
X35037Y-46156D01*
X35133Y-46060D01*
X35185Y-45934D01*
X35185Y-45798D01*
X35133Y-45672D01*
X35037Y-45576D01*
X34911Y-45524D01*
X34775Y-45524D01*
X34649Y-45576D01*
X34577Y-45648D01*
X34379Y-45648D01*
X34379Y-45558D01*
X34354Y-45496D01*
X34306Y-45449D01*
X34254Y-45426D01*
X34254Y-45123D01*
X34306Y-45103D01*
X34353Y-45055D01*
X34379Y-44994D01*
X34379Y-44927D01*
X34379Y-44377D01*
X34354Y-44315D01*
X34306Y-44268D01*
X34254Y-44245D01*
X34254Y-43952D01*
X34285Y-43921D01*
X34311Y-43860D01*
X34311Y-43793D01*
X34311Y-42993D01*
X34286Y-42931D01*
X34238Y-42884D01*
X34177Y-42858D01*
X34110Y-42858D01*
X33710Y-42858D01*
X33648Y-42883D01*
X33601Y-42931D01*
X33575Y-42992D01*
X33575Y-43059D01*
X33575Y-43859D01*
X33600Y-43921D01*
X33648Y-43968D01*
X33709Y-43994D01*
X33776Y-43994D01*
X33818Y-43994D01*
X33818Y-44246D01*
X33766Y-44267D01*
X33719Y-44315D01*
X33693Y-44376D01*
X33693Y-44443D01*
X33693Y-44993D01*
X33718Y-45055D01*
X33766Y-45102D01*
X33818Y-45124D01*
X33818Y-45427D01*
X33766Y-45448D01*
X33719Y-45496D01*
X33693Y-45557D01*
X33693Y-45624D01*
X33693Y-46174D01*
X33718Y-46236D01*
X33766Y-46283D01*
X33818Y-46305D01*
X33818Y-47865D01*
X33708Y-47865D01*
X33646Y-47890D01*
X33629Y-47907D01*
X33629Y-46175D01*
X33629Y-46108D01*
X33629Y-45917D01*
X33629Y-45815D01*
X33629Y-45624D01*
X33629Y-45557D01*
X33629Y-44994D01*
X33629Y-44927D01*
X33629Y-44736D01*
X33629Y-44634D01*
X33629Y-44443D01*
X33629Y-44376D01*
X33603Y-44315D01*
X33556Y-44267D01*
X33494Y-44242D01*
X33337Y-44242D01*
X33295Y-44284D01*
X33295Y-44676D01*
X33587Y-44676D01*
X33629Y-44634D01*
X33629Y-44736D01*
X33587Y-44694D01*
X33295Y-44694D01*
X33295Y-45086D01*
X33337Y-45128D01*
X33494Y-45128D01*
X33556Y-45103D01*
X33603Y-45055D01*
X33629Y-44994D01*
X33629Y-45557D01*
X33603Y-45496D01*
X33556Y-45448D01*
X33494Y-45423D01*
X33337Y-45423D01*
X33295Y-45465D01*
X33295Y-45857D01*
X33587Y-45857D01*
X33629Y-45815D01*
X33629Y-45917D01*
X33587Y-45875D01*
X33295Y-45875D01*
X33295Y-46267D01*
X33337Y-46309D01*
X33494Y-46309D01*
X33556Y-46284D01*
X33603Y-46236D01*
X33629Y-46175D01*
X33629Y-47907D01*
X33599Y-47938D01*
X33573Y-47999D01*
X33573Y-48066D01*
X33573Y-48245D01*
X33277Y-48541D01*
X33277Y-46267D01*
X33277Y-45875D01*
X33277Y-45857D01*
X33277Y-45465D01*
X33277Y-45086D01*
X33277Y-44694D01*
X33277Y-44676D01*
X33277Y-44284D01*
X33235Y-44242D01*
X33160Y-44242D01*
X33160Y-43890D01*
X33160Y-43733D01*
X33160Y-43631D01*
X33160Y-43474D01*
X33135Y-43412D01*
X33087Y-43365D01*
X33026Y-43339D01*
X32959Y-43339D01*
X32768Y-43339D01*
X32726Y-43381D01*
X32726Y-43673D01*
X33118Y-43673D01*
X33160Y-43631D01*
X33160Y-43733D01*
X33118Y-43691D01*
X32726Y-43691D01*
X32726Y-43983D01*
X32768Y-44025D01*
X32959Y-44025D01*
X33026Y-44025D01*
X33087Y-43999D01*
X33135Y-43952D01*
X33160Y-43890D01*
X33160Y-44242D01*
X33078Y-44242D01*
X33016Y-44267D01*
X32969Y-44315D01*
X32943Y-44376D01*
X32943Y-44443D01*
X32943Y-44634D01*
X32985Y-44676D01*
X33277Y-44676D01*
X33277Y-44694D01*
X32985Y-44694D01*
X32943Y-44736D01*
X32943Y-44927D01*
X32943Y-44994D01*
X32969Y-45055D01*
X33016Y-45103D01*
X33078Y-45128D01*
X33235Y-45128D01*
X33277Y-45086D01*
X33277Y-45465D01*
X33235Y-45423D01*
X33078Y-45423D01*
X33016Y-45448D01*
X32969Y-45496D01*
X32943Y-45557D01*
X32943Y-45624D01*
X32943Y-45815D01*
X32985Y-45857D01*
X33277Y-45857D01*
X33277Y-45875D01*
X32985Y-45875D01*
X32943Y-45917D01*
X32943Y-46108D01*
X32943Y-46175D01*
X32969Y-46236D01*
X33016Y-46284D01*
X33078Y-46309D01*
X33235Y-46309D01*
X33277Y-46267D01*
X33277Y-48541D01*
X33256Y-48562D01*
X33140Y-48562D01*
X33140Y-48065D01*
X33140Y-47998D01*
X33140Y-47212D01*
X33115Y-47150D01*
X33067Y-47103D01*
X33006Y-47077D01*
X32939Y-47077D01*
X32708Y-47077D01*
X32708Y-43983D01*
X32708Y-43691D01*
X32708Y-43673D01*
X32708Y-43381D01*
X32666Y-43339D01*
X32475Y-43339D01*
X32408Y-43339D01*
X32347Y-43365D01*
X32299Y-43412D01*
X32274Y-43474D01*
X32274Y-43631D01*
X32316Y-43673D01*
X32708Y-43673D01*
X32708Y-43691D01*
X32316Y-43691D01*
X32274Y-43733D01*
X32274Y-43890D01*
X32299Y-43952D01*
X32347Y-43999D01*
X32408Y-44025D01*
X32475Y-44025D01*
X32666Y-44025D01*
X32708Y-43983D01*
X32708Y-47077D01*
X31955Y-47077D01*
X31893Y-47102D01*
X31846Y-47150D01*
X31820Y-47211D01*
X31820Y-47278D01*
X31820Y-48064D01*
X31845Y-48126D01*
X31893Y-48173D01*
X31954Y-48199D01*
X32021Y-48199D01*
X33005Y-48199D01*
X33067Y-48174D01*
X33114Y-48126D01*
X33140Y-48065D01*
X33140Y-48562D01*
X33089Y-48562D01*
X33067Y-48540D01*
X33006Y-48514D01*
X32939Y-48514D01*
X31955Y-48514D01*
X31940Y-48520D01*
X31940Y-48455D01*
X31873Y-48292D01*
X31748Y-48167D01*
X31585Y-48099D01*
X31408Y-48099D01*
X31245Y-48166D01*
X31120Y-48291D01*
X31052Y-48454D01*
X31052Y-48631D01*
X31119Y-48794D01*
X31244Y-48919D01*
X31407Y-48987D01*
X31584Y-48987D01*
X31747Y-48920D01*
X31820Y-48847D01*
X31820Y-48911D01*
X31830Y-48937D01*
X31820Y-48963D01*
X31820Y-49030D01*
X31820Y-49226D01*
X31830Y-49252D01*
X31820Y-49277D01*
X31820Y-49344D01*
X31820Y-49540D01*
X31830Y-49566D01*
X31820Y-49591D01*
X31820Y-49658D01*
X31820Y-49854D01*
X31830Y-49880D01*
X31820Y-49906D01*
X31820Y-49971D01*
X31748Y-49899D01*
X31585Y-49831D01*
X31408Y-49831D01*
X31245Y-49898D01*
X31120Y-50023D01*
X31052Y-50186D01*
X31052Y-50363D01*
X31119Y-50526D01*
X31244Y-50651D01*
X31407Y-50719D01*
X31584Y-50719D01*
X31747Y-50652D01*
X31872Y-50527D01*
X31940Y-50364D01*
X31940Y-50297D01*
X31955Y-50304D01*
X32429Y-50304D01*
X32471Y-50262D01*
X32471Y-50097D01*
X32471Y-50047D01*
X32471Y-50029D01*
X32489Y-50029D01*
X32539Y-50029D01*
X33098Y-50029D01*
X33140Y-49987D01*
X33140Y-49973D01*
X33140Y-49906D01*
X33129Y-49880D01*
X33140Y-49855D01*
X33140Y-49788D01*
X33140Y-49627D01*
X35264Y-49627D01*
X35373Y-49736D01*
X35373Y-49754D01*
X35227Y-49754D01*
X35185Y-49796D01*
X35185Y-50138D01*
X35185Y-50188D01*
X35185Y-50206D01*
X35185Y-50256D01*
X35185Y-50598D01*
X35227Y-50640D01*
X35373Y-50640D01*
X35373Y-50736D01*
X35167Y-50942D01*
X35167Y-50598D01*
X35167Y-50206D01*
X35167Y-50188D01*
X35167Y-49796D01*
X35125Y-49754D01*
X34968Y-49754D01*
X34906Y-49779D01*
X34859Y-49827D01*
X34833Y-49888D01*
X34833Y-49955D01*
X34833Y-50146D01*
X34875Y-50188D01*
X35167Y-50188D01*
X35167Y-50206D01*
X34875Y-50206D01*
X34833Y-50248D01*
X34833Y-50439D01*
X34833Y-50506D01*
X34859Y-50567D01*
X34906Y-50615D01*
X34968Y-50640D01*
X35125Y-50640D01*
X35167Y-50598D01*
X35167Y-50942D01*
X34865Y-51244D01*
X34818Y-51315D01*
X34801Y-51398D01*
X34801Y-51436D01*
X34786Y-51443D01*
X34739Y-51491D01*
X34713Y-51552D01*
X34713Y-51619D01*
X34713Y-52013D01*
X34738Y-52075D01*
X34786Y-52122D01*
X34847Y-52148D01*
X34914Y-52148D01*
X35190Y-52148D01*
X35252Y-52123D01*
X35299Y-52075D01*
X35325Y-52014D01*
X35325Y-51947D01*
X35325Y-51553D01*
X35300Y-51491D01*
X35266Y-51458D01*
X35590Y-51134D01*
X35874Y-51418D01*
X35820Y-51418D01*
X35778Y-51460D01*
X35778Y-51774D01*
X36033Y-51774D01*
X36075Y-51732D01*
X36075Y-51619D01*
X37366Y-52910D01*
X37437Y-52957D01*
X37505Y-52971D01*
X36075Y-52971D01*
X36075Y-52014D01*
X36075Y-51947D01*
X36075Y-51834D01*
X36033Y-51792D01*
X35778Y-51792D01*
X35778Y-52106D01*
X35820Y-52148D01*
X35940Y-52148D01*
X36002Y-52123D01*
X36049Y-52075D01*
X36075Y-52014D01*
X36075Y-52971D01*
X35760Y-52971D01*
X35760Y-52106D01*
X35760Y-51792D01*
X35760Y-51774D01*
X35760Y-51460D01*
X35718Y-51418D01*
X35598Y-51418D01*
X35536Y-51443D01*
X35489Y-51491D01*
X35463Y-51552D01*
X35463Y-51619D01*
X35463Y-51732D01*
X35505Y-51774D01*
X35760Y-51774D01*
X35760Y-51792D01*
X35505Y-51792D01*
X35463Y-51834D01*
X35463Y-51947D01*
X35463Y-52014D01*
X35489Y-52075D01*
X35536Y-52123D01*
X35598Y-52148D01*
X35718Y-52148D01*
X35760Y-52106D01*
X35760Y-52971D01*
X35700Y-52971D01*
X35700Y-52947D01*
X35700Y-52553D01*
X35675Y-52491D01*
X35627Y-52444D01*
X35566Y-52418D01*
X35499Y-52418D01*
X35223Y-52418D01*
X35161Y-52443D01*
X35114Y-52491D01*
X35088Y-52552D01*
X35088Y-52619D01*
X35088Y-52971D01*
X34657Y-52971D01*
X34657Y-52014D01*
X34657Y-51947D01*
X34657Y-51834D01*
X34657Y-51732D01*
X34657Y-51619D01*
X34657Y-51552D01*
X34631Y-51491D01*
X34584Y-51443D01*
X34522Y-51418D01*
X34402Y-51418D01*
X34360Y-51460D01*
X34360Y-51774D01*
X34615Y-51774D01*
X34657Y-51732D01*
X34657Y-51834D01*
X34615Y-51792D01*
X34360Y-51792D01*
X34360Y-52106D01*
X34402Y-52148D01*
X34522Y-52148D01*
X34584Y-52123D01*
X34631Y-52075D01*
X34657Y-52014D01*
X34657Y-52971D01*
X34342Y-52971D01*
X34342Y-52106D01*
X34342Y-51792D01*
X34342Y-51774D01*
X34342Y-51460D01*
X34300Y-51418D01*
X34180Y-51418D01*
X34118Y-51443D01*
X34071Y-51491D01*
X34045Y-51552D01*
X34045Y-51619D01*
X34045Y-51732D01*
X34087Y-51774D01*
X34342Y-51774D01*
X34342Y-51792D01*
X34087Y-51792D01*
X34045Y-51834D01*
X34045Y-51947D01*
X34045Y-52014D01*
X34071Y-52075D01*
X34118Y-52123D01*
X34180Y-52148D01*
X34300Y-52148D01*
X34342Y-52106D01*
X34342Y-52971D01*
X34282Y-52971D01*
X34282Y-52947D01*
X34282Y-52553D01*
X34257Y-52491D01*
X34209Y-52444D01*
X34148Y-52418D01*
X34081Y-52418D01*
X33819Y-52418D01*
X33819Y-52129D01*
X33834Y-52123D01*
X33881Y-52075D01*
X33907Y-52014D01*
X33907Y-51947D01*
X33907Y-51553D01*
X33882Y-51491D01*
X33834Y-51444D01*
X33819Y-51437D01*
X33819Y-51389D01*
X33912Y-51296D01*
X33964Y-51170D01*
X33964Y-51034D01*
X33912Y-50908D01*
X33816Y-50812D01*
X33690Y-50760D01*
X33554Y-50760D01*
X33428Y-50812D01*
X33332Y-50908D01*
X33280Y-51034D01*
X33280Y-51170D01*
X33332Y-51296D01*
X33383Y-51347D01*
X33383Y-51436D01*
X33368Y-51443D01*
X33321Y-51491D01*
X33295Y-51552D01*
X33295Y-51619D01*
X33295Y-52013D01*
X33320Y-52075D01*
X33368Y-52122D01*
X33383Y-52128D01*
X33383Y-53050D01*
X33400Y-53133D01*
X33447Y-53204D01*
X33585Y-53343D01*
X33586Y-53343D01*
X33632Y-53373D01*
X33656Y-53389D01*
X33657Y-53390D01*
X33740Y-53407D01*
X37694Y-53407D01*
X37650Y-53515D01*
X37650Y-53651D01*
X37702Y-53777D01*
X37796Y-53871D01*
X37798Y-53873D01*
X37838Y-53934D01*
X40671Y-56768D01*
X40672Y-56768D01*
X40718Y-56798D01*
X40742Y-56814D01*
X40743Y-56815D01*
X40825Y-56831D01*
X40826Y-56832D01*
X40924Y-56832D01*
X40924Y-58858D01*
X40941Y-58941D01*
X40988Y-59012D01*
X41181Y-59206D01*
X39943Y-59206D01*
X39943Y-58067D01*
X39943Y-57682D01*
X39796Y-57327D01*
X39524Y-57054D01*
X39169Y-56907D01*
X38784Y-56907D01*
X38429Y-57054D01*
X38156Y-57326D01*
X38009Y-57681D01*
X38009Y-58066D01*
X38156Y-58421D01*
X38428Y-58694D01*
X38783Y-58841D01*
X39168Y-58841D01*
X39523Y-58694D01*
X39796Y-58422D01*
X39943Y-58067D01*
X39943Y-59206D01*
X35385Y-59206D01*
X35385Y-53592D01*
X33140Y-53592D01*
X33140Y-51568D01*
X33140Y-51501D01*
X33140Y-50715D01*
X33140Y-50170D01*
X33140Y-50103D01*
X33140Y-50089D01*
X33098Y-50047D01*
X32489Y-50047D01*
X32489Y-50262D01*
X32531Y-50304D01*
X33005Y-50304D01*
X33067Y-50279D01*
X33114Y-50231D01*
X33140Y-50170D01*
X33140Y-50715D01*
X33115Y-50653D01*
X33067Y-50606D01*
X33006Y-50580D01*
X32939Y-50580D01*
X31955Y-50580D01*
X31893Y-50605D01*
X31846Y-50653D01*
X31820Y-50714D01*
X31820Y-50781D01*
X31820Y-51567D01*
X31845Y-51629D01*
X31893Y-51676D01*
X31954Y-51702D01*
X32021Y-51702D01*
X33005Y-51702D01*
X33067Y-51677D01*
X33114Y-51629D01*
X33140Y-51568D01*
X33140Y-53592D01*
X30975Y-53592D01*
X30975Y-51607D01*
X30975Y-51540D01*
X30975Y-50754D01*
X30975Y-48065D01*
X30975Y-47998D01*
X30975Y-47212D01*
X30950Y-47150D01*
X30902Y-47103D01*
X30841Y-47077D01*
X30774Y-47077D01*
X29790Y-47077D01*
X29728Y-47102D01*
X29681Y-47150D01*
X29655Y-47211D01*
X29655Y-47278D01*
X29655Y-48064D01*
X29680Y-48126D01*
X29728Y-48173D01*
X29789Y-48199D01*
X29856Y-48199D01*
X30840Y-48199D01*
X30902Y-48174D01*
X30949Y-48126D01*
X30975Y-48065D01*
X30975Y-50754D01*
X30950Y-50692D01*
X30902Y-50645D01*
X30841Y-50619D01*
X30774Y-50619D01*
X29790Y-50619D01*
X29728Y-50644D01*
X29681Y-50692D01*
X29655Y-50753D01*
X29655Y-50820D01*
X29655Y-51606D01*
X29680Y-51668D01*
X29728Y-51715D01*
X29789Y-51741D01*
X29856Y-51741D01*
X30840Y-51741D01*
X30902Y-51716D01*
X30949Y-51668D01*
X30975Y-51607D01*
X30975Y-53592D01*
X29377Y-53592D01*
X29377Y-41207D01*
X29495Y-41492D01*
X29767Y-41765D01*
X30122Y-41912D01*
X30507Y-41912D01*
X30862Y-41765D01*
X31135Y-41493D01*
X31282Y-41138D01*
X31282Y-40753D01*
X31135Y-40398D01*
X30863Y-40125D01*
X30578Y-40007D01*
X47375Y-40007D01*
X47091Y-40125D01*
X46818Y-40397D01*
X46671Y-40752D01*
X46671Y-41137D01*
X46818Y-41492D01*
X47090Y-41765D01*
X47445Y-41912D01*
X47830Y-41912D01*
X48185Y-41765D01*
X48458Y-41493D01*
X48576Y-41208D01*
X48576Y-58246D01*
M02*
