G04 (created by PCBNEW (2012-01-19 BZR 3256)-stable) date 09-06-2012 12:03:19*
G01*
G70*
G90*
%MOIN*%
G04 Gerber Fmt 3.4, Leading zero omitted, Abs format*
%FSLAX34Y34*%
G04 APERTURE LIST*
%ADD10C,0.001000*%
%ADD11C,0.015000*%
%ADD12C,0.008000*%
G04 APERTURE END LIST*
G54D10*
G54D11*
X47638Y-59449D02*
X47740Y-59444D01*
X47843Y-59431D01*
X47943Y-59408D01*
X48041Y-59377D01*
X48137Y-59338D01*
X48228Y-59290D01*
X48315Y-59235D01*
X48397Y-59172D01*
X48473Y-59103D01*
X48542Y-59027D01*
X48605Y-58945D01*
X48660Y-58858D01*
X48708Y-58767D01*
X48747Y-58671D01*
X48778Y-58573D01*
X48801Y-58473D01*
X48814Y-58370D01*
X48819Y-58268D01*
X48819Y-40945D02*
X48814Y-40843D01*
X48801Y-40740D01*
X48778Y-40640D01*
X48747Y-40542D01*
X48708Y-40446D01*
X48660Y-40355D01*
X48605Y-40268D01*
X48542Y-40186D01*
X48473Y-40110D01*
X48397Y-40041D01*
X48315Y-39978D01*
X48228Y-39923D01*
X48137Y-39875D01*
X48041Y-39836D01*
X47943Y-39805D01*
X47843Y-39782D01*
X47740Y-39769D01*
X47638Y-39764D01*
X29134Y-58268D02*
X29139Y-58370D01*
X29152Y-58473D01*
X29175Y-58573D01*
X29206Y-58671D01*
X29245Y-58767D01*
X29293Y-58858D01*
X29348Y-58945D01*
X29411Y-59027D01*
X29480Y-59103D01*
X29556Y-59172D01*
X29638Y-59235D01*
X29725Y-59290D01*
X29816Y-59338D01*
X29912Y-59377D01*
X30010Y-59408D01*
X30110Y-59431D01*
X30213Y-59444D01*
X30315Y-59449D01*
X30315Y-39764D02*
X30213Y-39769D01*
X30110Y-39782D01*
X30010Y-39805D01*
X29912Y-39836D01*
X29816Y-39875D01*
X29725Y-39923D01*
X29638Y-39978D01*
X29556Y-40041D01*
X29480Y-40110D01*
X29411Y-40186D01*
X29348Y-40268D01*
X29293Y-40355D01*
X29245Y-40446D01*
X29206Y-40542D01*
X29175Y-40640D01*
X29152Y-40740D01*
X29139Y-40843D01*
X29134Y-40945D01*
X29134Y-58268D02*
X29134Y-40945D01*
X47638Y-59449D02*
X30315Y-59449D01*
X48819Y-40945D02*
X48819Y-58268D01*
X30315Y-39764D02*
X47638Y-39764D01*
G54D10*
X33497Y-50977D02*
X33747Y-51227D01*
X33747Y-50977D02*
X33497Y-51227D01*
X34678Y-48812D02*
X34928Y-49062D01*
X34928Y-48812D02*
X34678Y-49062D01*
X34718Y-45741D02*
X34968Y-45991D01*
X34968Y-45741D02*
X34718Y-45991D01*
X35704Y-48184D02*
X35954Y-48434D01*
X35954Y-48184D02*
X35704Y-48434D01*
X36489Y-47611D02*
X36739Y-47861D01*
X36739Y-47611D02*
X36489Y-47861D01*
X37867Y-46627D02*
X38117Y-46877D01*
X38117Y-46627D02*
X37867Y-46877D01*
X37867Y-48182D02*
X38117Y-48432D01*
X38117Y-48182D02*
X37867Y-48432D01*
X37867Y-53458D02*
X38117Y-53708D01*
X38117Y-53458D02*
X37867Y-53708D01*
X38755Y-48133D02*
X39005Y-48383D01*
X39005Y-48133D02*
X38755Y-48383D01*
X38851Y-50367D02*
X39101Y-50617D01*
X39101Y-50367D02*
X38851Y-50617D01*
X38969Y-49166D02*
X39219Y-49416D01*
X39219Y-49166D02*
X38969Y-49416D01*
X39599Y-48379D02*
X39849Y-48629D01*
X39849Y-48379D02*
X39599Y-48629D01*
X44166Y-49973D02*
X44416Y-50223D01*
X44416Y-49973D02*
X44166Y-50223D01*
X45151Y-48379D02*
X45401Y-48629D01*
X45401Y-48379D02*
X45151Y-48629D01*
X38401Y-41142D02*
X38397Y-41173D01*
X38388Y-41202D01*
X38374Y-41230D01*
X38354Y-41254D01*
X38330Y-41274D01*
X38303Y-41289D01*
X38273Y-41298D01*
X38242Y-41301D01*
X38212Y-41299D01*
X38182Y-41290D01*
X38154Y-41275D01*
X38130Y-41256D01*
X38109Y-41232D01*
X38094Y-41205D01*
X38085Y-41175D01*
X38082Y-41144D01*
X38084Y-41114D01*
X38093Y-41084D01*
X38107Y-41056D01*
X38126Y-41031D01*
X38150Y-41011D01*
X38177Y-40996D01*
X38207Y-40986D01*
X38238Y-40983D01*
X38268Y-40985D01*
X38298Y-40993D01*
X38326Y-41007D01*
X38351Y-41027D01*
X38371Y-41050D01*
X38387Y-41077D01*
X38397Y-41107D01*
X38400Y-41138D01*
X38401Y-41142D01*
X38440Y-43504D02*
X38436Y-43535D01*
X38427Y-43564D01*
X38413Y-43592D01*
X38393Y-43616D01*
X38369Y-43636D01*
X38342Y-43651D01*
X38312Y-43660D01*
X38281Y-43663D01*
X38251Y-43661D01*
X38221Y-43652D01*
X38193Y-43637D01*
X38169Y-43618D01*
X38148Y-43594D01*
X38133Y-43567D01*
X38124Y-43537D01*
X38121Y-43506D01*
X38123Y-43476D01*
X38132Y-43446D01*
X38146Y-43418D01*
X38165Y-43393D01*
X38189Y-43373D01*
X38216Y-43358D01*
X38246Y-43348D01*
X38277Y-43345D01*
X38307Y-43347D01*
X38337Y-43355D01*
X38365Y-43369D01*
X38390Y-43389D01*
X38410Y-43412D01*
X38426Y-43439D01*
X38436Y-43469D01*
X38439Y-43500D01*
X38440Y-43504D01*
X39401Y-41142D02*
X39397Y-41173D01*
X39388Y-41202D01*
X39374Y-41230D01*
X39354Y-41254D01*
X39330Y-41274D01*
X39303Y-41289D01*
X39273Y-41298D01*
X39242Y-41301D01*
X39212Y-41299D01*
X39182Y-41290D01*
X39154Y-41275D01*
X39130Y-41256D01*
X39109Y-41232D01*
X39094Y-41205D01*
X39085Y-41175D01*
X39082Y-41144D01*
X39084Y-41114D01*
X39093Y-41084D01*
X39107Y-41056D01*
X39126Y-41031D01*
X39150Y-41011D01*
X39177Y-40996D01*
X39207Y-40986D01*
X39238Y-40983D01*
X39268Y-40985D01*
X39298Y-40993D01*
X39326Y-41007D01*
X39351Y-41027D01*
X39371Y-41050D01*
X39387Y-41077D01*
X39397Y-41107D01*
X39400Y-41138D01*
X39401Y-41142D01*
X39440Y-43504D02*
X39436Y-43535D01*
X39427Y-43564D01*
X39413Y-43592D01*
X39393Y-43616D01*
X39369Y-43636D01*
X39342Y-43651D01*
X39312Y-43660D01*
X39281Y-43663D01*
X39251Y-43661D01*
X39221Y-43652D01*
X39193Y-43637D01*
X39169Y-43618D01*
X39148Y-43594D01*
X39133Y-43567D01*
X39124Y-43537D01*
X39121Y-43506D01*
X39123Y-43476D01*
X39132Y-43446D01*
X39146Y-43418D01*
X39165Y-43393D01*
X39189Y-43373D01*
X39216Y-43358D01*
X39246Y-43348D01*
X39277Y-43345D01*
X39307Y-43347D01*
X39337Y-43355D01*
X39365Y-43369D01*
X39390Y-43389D01*
X39410Y-43412D01*
X39426Y-43439D01*
X39436Y-43469D01*
X39439Y-43500D01*
X39440Y-43504D01*
X47601Y-45457D02*
X47597Y-45488D01*
X47588Y-45517D01*
X47574Y-45545D01*
X47554Y-45569D01*
X47530Y-45589D01*
X47503Y-45604D01*
X47473Y-45613D01*
X47442Y-45616D01*
X47412Y-45614D01*
X47382Y-45605D01*
X47354Y-45590D01*
X47330Y-45571D01*
X47309Y-45547D01*
X47294Y-45520D01*
X47285Y-45490D01*
X47282Y-45459D01*
X47284Y-45429D01*
X47293Y-45399D01*
X47307Y-45371D01*
X47326Y-45346D01*
X47350Y-45326D01*
X47377Y-45311D01*
X47407Y-45301D01*
X47438Y-45298D01*
X47468Y-45300D01*
X47498Y-45308D01*
X47526Y-45322D01*
X47551Y-45342D01*
X47571Y-45365D01*
X47587Y-45392D01*
X47597Y-45422D01*
X47600Y-45453D01*
X47601Y-45457D01*
X47601Y-46457D02*
X47597Y-46488D01*
X47588Y-46517D01*
X47574Y-46545D01*
X47554Y-46569D01*
X47530Y-46589D01*
X47503Y-46604D01*
X47473Y-46613D01*
X47442Y-46616D01*
X47412Y-46614D01*
X47382Y-46605D01*
X47354Y-46590D01*
X47330Y-46571D01*
X47309Y-46547D01*
X47294Y-46520D01*
X47285Y-46490D01*
X47282Y-46459D01*
X47284Y-46429D01*
X47293Y-46399D01*
X47307Y-46371D01*
X47326Y-46346D01*
X47350Y-46326D01*
X47377Y-46311D01*
X47407Y-46301D01*
X47438Y-46298D01*
X47468Y-46300D01*
X47498Y-46308D01*
X47526Y-46322D01*
X47551Y-46342D01*
X47571Y-46365D01*
X47587Y-46392D01*
X47597Y-46422D01*
X47600Y-46453D01*
X47601Y-46457D01*
X47601Y-47457D02*
X47597Y-47488D01*
X47588Y-47517D01*
X47574Y-47545D01*
X47554Y-47569D01*
X47530Y-47589D01*
X47503Y-47604D01*
X47473Y-47613D01*
X47442Y-47616D01*
X47412Y-47614D01*
X47382Y-47605D01*
X47354Y-47590D01*
X47330Y-47571D01*
X47309Y-47547D01*
X47294Y-47520D01*
X47285Y-47490D01*
X47282Y-47459D01*
X47284Y-47429D01*
X47293Y-47399D01*
X47307Y-47371D01*
X47326Y-47346D01*
X47350Y-47326D01*
X47377Y-47311D01*
X47407Y-47301D01*
X47438Y-47298D01*
X47468Y-47300D01*
X47498Y-47308D01*
X47526Y-47322D01*
X47551Y-47342D01*
X47571Y-47365D01*
X47587Y-47392D01*
X47597Y-47422D01*
X47600Y-47453D01*
X47601Y-47457D01*
X47601Y-49484D02*
X47597Y-49515D01*
X47588Y-49544D01*
X47574Y-49572D01*
X47554Y-49596D01*
X47530Y-49616D01*
X47503Y-49631D01*
X47473Y-49640D01*
X47442Y-49643D01*
X47412Y-49641D01*
X47382Y-49632D01*
X47354Y-49617D01*
X47330Y-49598D01*
X47309Y-49574D01*
X47294Y-49547D01*
X47285Y-49517D01*
X47282Y-49486D01*
X47284Y-49456D01*
X47293Y-49426D01*
X47307Y-49398D01*
X47326Y-49373D01*
X47350Y-49353D01*
X47377Y-49338D01*
X47407Y-49328D01*
X47438Y-49325D01*
X47468Y-49327D01*
X47498Y-49335D01*
X47526Y-49349D01*
X47551Y-49369D01*
X47571Y-49392D01*
X47587Y-49419D01*
X47597Y-49449D01*
X47600Y-49480D01*
X47601Y-49484D01*
X47601Y-50484D02*
X47597Y-50515D01*
X47588Y-50544D01*
X47574Y-50572D01*
X47554Y-50596D01*
X47530Y-50616D01*
X47503Y-50631D01*
X47473Y-50640D01*
X47442Y-50643D01*
X47412Y-50641D01*
X47382Y-50632D01*
X47354Y-50617D01*
X47330Y-50598D01*
X47309Y-50574D01*
X47294Y-50547D01*
X47285Y-50517D01*
X47282Y-50486D01*
X47284Y-50456D01*
X47293Y-50426D01*
X47307Y-50398D01*
X47326Y-50373D01*
X47350Y-50353D01*
X47377Y-50338D01*
X47407Y-50328D01*
X47438Y-50325D01*
X47468Y-50327D01*
X47498Y-50335D01*
X47526Y-50349D01*
X47551Y-50369D01*
X47571Y-50392D01*
X47587Y-50419D01*
X47597Y-50449D01*
X47600Y-50480D01*
X47601Y-50484D01*
X47601Y-51484D02*
X47597Y-51515D01*
X47588Y-51544D01*
X47574Y-51572D01*
X47554Y-51596D01*
X47530Y-51616D01*
X47503Y-51631D01*
X47473Y-51640D01*
X47442Y-51643D01*
X47412Y-51641D01*
X47382Y-51632D01*
X47354Y-51617D01*
X47330Y-51598D01*
X47309Y-51574D01*
X47294Y-51547D01*
X47285Y-51517D01*
X47282Y-51486D01*
X47284Y-51456D01*
X47293Y-51426D01*
X47307Y-51398D01*
X47326Y-51373D01*
X47350Y-51353D01*
X47377Y-51338D01*
X47407Y-51328D01*
X47438Y-51325D01*
X47468Y-51327D01*
X47498Y-51335D01*
X47526Y-51349D01*
X47551Y-51369D01*
X47571Y-51392D01*
X47587Y-51419D01*
X47597Y-51449D01*
X47600Y-51480D01*
X47601Y-51484D01*
X47601Y-52484D02*
X47597Y-52515D01*
X47588Y-52544D01*
X47574Y-52572D01*
X47554Y-52596D01*
X47530Y-52616D01*
X47503Y-52631D01*
X47473Y-52640D01*
X47442Y-52643D01*
X47412Y-52641D01*
X47382Y-52632D01*
X47354Y-52617D01*
X47330Y-52598D01*
X47309Y-52574D01*
X47294Y-52547D01*
X47285Y-52517D01*
X47282Y-52486D01*
X47284Y-52456D01*
X47293Y-52426D01*
X47307Y-52398D01*
X47326Y-52373D01*
X47350Y-52353D01*
X47377Y-52338D01*
X47407Y-52328D01*
X47438Y-52325D01*
X47468Y-52327D01*
X47498Y-52335D01*
X47526Y-52349D01*
X47551Y-52369D01*
X47571Y-52392D01*
X47587Y-52419D01*
X47597Y-52449D01*
X47600Y-52480D01*
X47601Y-52484D01*
X31496Y-48366D02*
X31496Y-48720D01*
X31673Y-48543D02*
X31319Y-48543D01*
X31496Y-50098D02*
X31496Y-50452D01*
X31673Y-50275D02*
X31319Y-50275D01*
X42121Y-54299D02*
X42117Y-54337D01*
X42105Y-54375D01*
X42087Y-54409D01*
X42062Y-54439D01*
X42032Y-54464D01*
X41998Y-54483D01*
X41961Y-54494D01*
X41922Y-54498D01*
X41884Y-54495D01*
X41847Y-54484D01*
X41812Y-54466D01*
X41782Y-54441D01*
X41756Y-54411D01*
X41738Y-54377D01*
X41726Y-54340D01*
X41722Y-54301D01*
X41725Y-54263D01*
X41736Y-54226D01*
X41753Y-54191D01*
X41778Y-54161D01*
X41807Y-54135D01*
X41841Y-54116D01*
X41879Y-54104D01*
X41917Y-54100D01*
X41955Y-54103D01*
X41993Y-54113D01*
X42028Y-54131D01*
X42058Y-54155D01*
X42084Y-54184D01*
X42103Y-54218D01*
X42116Y-54255D01*
X42120Y-54294D01*
X42121Y-54299D01*
X41721Y-54099D02*
X42121Y-54499D01*
X42121Y-54099D02*
X41721Y-54499D01*
X42121Y-55299D02*
X42117Y-55337D01*
X42105Y-55375D01*
X42087Y-55409D01*
X42062Y-55439D01*
X42032Y-55464D01*
X41998Y-55483D01*
X41961Y-55494D01*
X41922Y-55498D01*
X41884Y-55495D01*
X41847Y-55484D01*
X41812Y-55466D01*
X41782Y-55441D01*
X41756Y-55411D01*
X41738Y-55377D01*
X41726Y-55340D01*
X41722Y-55301D01*
X41725Y-55263D01*
X41736Y-55226D01*
X41753Y-55191D01*
X41778Y-55161D01*
X41807Y-55135D01*
X41841Y-55116D01*
X41879Y-55104D01*
X41917Y-55100D01*
X41955Y-55103D01*
X41993Y-55113D01*
X42028Y-55131D01*
X42058Y-55155D01*
X42084Y-55184D01*
X42103Y-55218D01*
X42116Y-55255D01*
X42120Y-55294D01*
X42121Y-55299D01*
X41721Y-55099D02*
X42121Y-55499D01*
X42121Y-55099D02*
X41721Y-55499D01*
X42121Y-56299D02*
X42117Y-56337D01*
X42105Y-56375D01*
X42087Y-56409D01*
X42062Y-56439D01*
X42032Y-56464D01*
X41998Y-56483D01*
X41961Y-56494D01*
X41922Y-56498D01*
X41884Y-56495D01*
X41847Y-56484D01*
X41812Y-56466D01*
X41782Y-56441D01*
X41756Y-56411D01*
X41738Y-56377D01*
X41726Y-56340D01*
X41722Y-56301D01*
X41725Y-56263D01*
X41736Y-56226D01*
X41753Y-56191D01*
X41778Y-56161D01*
X41807Y-56135D01*
X41841Y-56116D01*
X41879Y-56104D01*
X41917Y-56100D01*
X41955Y-56103D01*
X41993Y-56113D01*
X42028Y-56131D01*
X42058Y-56155D01*
X42084Y-56184D01*
X42103Y-56218D01*
X42116Y-56255D01*
X42120Y-56294D01*
X42121Y-56299D01*
X41721Y-56099D02*
X42121Y-56499D01*
X42121Y-56099D02*
X41721Y-56499D01*
X42121Y-57299D02*
X42117Y-57337D01*
X42105Y-57375D01*
X42087Y-57409D01*
X42062Y-57439D01*
X42032Y-57464D01*
X41998Y-57483D01*
X41961Y-57494D01*
X41922Y-57498D01*
X41884Y-57495D01*
X41847Y-57484D01*
X41812Y-57466D01*
X41782Y-57441D01*
X41756Y-57411D01*
X41738Y-57377D01*
X41726Y-57340D01*
X41722Y-57301D01*
X41725Y-57263D01*
X41736Y-57226D01*
X41753Y-57191D01*
X41778Y-57161D01*
X41807Y-57135D01*
X41841Y-57116D01*
X41879Y-57104D01*
X41917Y-57100D01*
X41955Y-57103D01*
X41993Y-57113D01*
X42028Y-57131D01*
X42058Y-57155D01*
X42084Y-57184D01*
X42103Y-57218D01*
X42116Y-57255D01*
X42120Y-57294D01*
X42121Y-57299D01*
X41721Y-57099D02*
X42121Y-57499D01*
X42121Y-57099D02*
X41721Y-57499D01*
X42121Y-58299D02*
X42117Y-58337D01*
X42105Y-58375D01*
X42087Y-58409D01*
X42062Y-58439D01*
X42032Y-58464D01*
X41998Y-58483D01*
X41961Y-58494D01*
X41922Y-58498D01*
X41884Y-58495D01*
X41847Y-58484D01*
X41812Y-58466D01*
X41782Y-58441D01*
X41756Y-58411D01*
X41738Y-58377D01*
X41726Y-58340D01*
X41722Y-58301D01*
X41725Y-58263D01*
X41736Y-58226D01*
X41753Y-58191D01*
X41778Y-58161D01*
X41807Y-58135D01*
X41841Y-58116D01*
X41879Y-58104D01*
X41917Y-58100D01*
X41955Y-58103D01*
X41993Y-58113D01*
X42028Y-58131D01*
X42058Y-58155D01*
X42084Y-58184D01*
X42103Y-58218D01*
X42116Y-58255D01*
X42120Y-58294D01*
X42121Y-58299D01*
X41721Y-58099D02*
X42121Y-58499D01*
X42121Y-58099D02*
X41721Y-58499D01*
X43121Y-54299D02*
X43117Y-54337D01*
X43105Y-54375D01*
X43087Y-54409D01*
X43062Y-54439D01*
X43032Y-54464D01*
X42998Y-54483D01*
X42961Y-54494D01*
X42922Y-54498D01*
X42884Y-54495D01*
X42847Y-54484D01*
X42812Y-54466D01*
X42782Y-54441D01*
X42756Y-54411D01*
X42738Y-54377D01*
X42726Y-54340D01*
X42722Y-54301D01*
X42725Y-54263D01*
X42736Y-54226D01*
X42753Y-54191D01*
X42778Y-54161D01*
X42807Y-54135D01*
X42841Y-54116D01*
X42879Y-54104D01*
X42917Y-54100D01*
X42955Y-54103D01*
X42993Y-54113D01*
X43028Y-54131D01*
X43058Y-54155D01*
X43084Y-54184D01*
X43103Y-54218D01*
X43116Y-54255D01*
X43120Y-54294D01*
X43121Y-54299D01*
X42721Y-54099D02*
X43121Y-54499D01*
X43121Y-54099D02*
X42721Y-54499D01*
X43121Y-55299D02*
X43117Y-55337D01*
X43105Y-55375D01*
X43087Y-55409D01*
X43062Y-55439D01*
X43032Y-55464D01*
X42998Y-55483D01*
X42961Y-55494D01*
X42922Y-55498D01*
X42884Y-55495D01*
X42847Y-55484D01*
X42812Y-55466D01*
X42782Y-55441D01*
X42756Y-55411D01*
X42738Y-55377D01*
X42726Y-55340D01*
X42722Y-55301D01*
X42725Y-55263D01*
X42736Y-55226D01*
X42753Y-55191D01*
X42778Y-55161D01*
X42807Y-55135D01*
X42841Y-55116D01*
X42879Y-55104D01*
X42917Y-55100D01*
X42955Y-55103D01*
X42993Y-55113D01*
X43028Y-55131D01*
X43058Y-55155D01*
X43084Y-55184D01*
X43103Y-55218D01*
X43116Y-55255D01*
X43120Y-55294D01*
X43121Y-55299D01*
X42721Y-55099D02*
X43121Y-55499D01*
X43121Y-55099D02*
X42721Y-55499D01*
X43121Y-56299D02*
X43117Y-56337D01*
X43105Y-56375D01*
X43087Y-56409D01*
X43062Y-56439D01*
X43032Y-56464D01*
X42998Y-56483D01*
X42961Y-56494D01*
X42922Y-56498D01*
X42884Y-56495D01*
X42847Y-56484D01*
X42812Y-56466D01*
X42782Y-56441D01*
X42756Y-56411D01*
X42738Y-56377D01*
X42726Y-56340D01*
X42722Y-56301D01*
X42725Y-56263D01*
X42736Y-56226D01*
X42753Y-56191D01*
X42778Y-56161D01*
X42807Y-56135D01*
X42841Y-56116D01*
X42879Y-56104D01*
X42917Y-56100D01*
X42955Y-56103D01*
X42993Y-56113D01*
X43028Y-56131D01*
X43058Y-56155D01*
X43084Y-56184D01*
X43103Y-56218D01*
X43116Y-56255D01*
X43120Y-56294D01*
X43121Y-56299D01*
X42721Y-56099D02*
X43121Y-56499D01*
X43121Y-56099D02*
X42721Y-56499D01*
X43121Y-57299D02*
X43117Y-57337D01*
X43105Y-57375D01*
X43087Y-57409D01*
X43062Y-57439D01*
X43032Y-57464D01*
X42998Y-57483D01*
X42961Y-57494D01*
X42922Y-57498D01*
X42884Y-57495D01*
X42847Y-57484D01*
X42812Y-57466D01*
X42782Y-57441D01*
X42756Y-57411D01*
X42738Y-57377D01*
X42726Y-57340D01*
X42722Y-57301D01*
X42725Y-57263D01*
X42736Y-57226D01*
X42753Y-57191D01*
X42778Y-57161D01*
X42807Y-57135D01*
X42841Y-57116D01*
X42879Y-57104D01*
X42917Y-57100D01*
X42955Y-57103D01*
X42993Y-57113D01*
X43028Y-57131D01*
X43058Y-57155D01*
X43084Y-57184D01*
X43103Y-57218D01*
X43116Y-57255D01*
X43120Y-57294D01*
X43121Y-57299D01*
X42721Y-57099D02*
X43121Y-57499D01*
X43121Y-57099D02*
X42721Y-57499D01*
X43121Y-58299D02*
X43117Y-58337D01*
X43105Y-58375D01*
X43087Y-58409D01*
X43062Y-58439D01*
X43032Y-58464D01*
X42998Y-58483D01*
X42961Y-58494D01*
X42922Y-58498D01*
X42884Y-58495D01*
X42847Y-58484D01*
X42812Y-58466D01*
X42782Y-58441D01*
X42756Y-58411D01*
X42738Y-58377D01*
X42726Y-58340D01*
X42722Y-58301D01*
X42725Y-58263D01*
X42736Y-58226D01*
X42753Y-58191D01*
X42778Y-58161D01*
X42807Y-58135D01*
X42841Y-58116D01*
X42879Y-58104D01*
X42917Y-58100D01*
X42955Y-58103D01*
X42993Y-58113D01*
X43028Y-58131D01*
X43058Y-58155D01*
X43084Y-58184D01*
X43103Y-58218D01*
X43116Y-58255D01*
X43120Y-58294D01*
X43121Y-58299D01*
X42721Y-58099D02*
X43121Y-58499D01*
X43121Y-58099D02*
X42721Y-58499D01*
X46747Y-55496D02*
X46743Y-55534D01*
X46731Y-55572D01*
X46713Y-55606D01*
X46688Y-55636D01*
X46658Y-55661D01*
X46624Y-55680D01*
X46587Y-55691D01*
X46548Y-55695D01*
X46510Y-55692D01*
X46473Y-55681D01*
X46438Y-55663D01*
X46408Y-55638D01*
X46382Y-55608D01*
X46364Y-55574D01*
X46352Y-55537D01*
X46348Y-55498D01*
X46351Y-55460D01*
X46362Y-55423D01*
X46379Y-55388D01*
X46404Y-55358D01*
X46433Y-55332D01*
X46467Y-55313D01*
X46505Y-55301D01*
X46543Y-55297D01*
X46581Y-55300D01*
X46619Y-55310D01*
X46654Y-55328D01*
X46684Y-55352D01*
X46710Y-55381D01*
X46729Y-55415D01*
X46742Y-55452D01*
X46746Y-55491D01*
X46747Y-55496D01*
X46347Y-55296D02*
X46747Y-55696D01*
X46747Y-55296D02*
X46347Y-55696D01*
X46747Y-56496D02*
X46743Y-56534D01*
X46731Y-56572D01*
X46713Y-56606D01*
X46688Y-56636D01*
X46658Y-56661D01*
X46624Y-56680D01*
X46587Y-56691D01*
X46548Y-56695D01*
X46510Y-56692D01*
X46473Y-56681D01*
X46438Y-56663D01*
X46408Y-56638D01*
X46382Y-56608D01*
X46364Y-56574D01*
X46352Y-56537D01*
X46348Y-56498D01*
X46351Y-56460D01*
X46362Y-56423D01*
X46379Y-56388D01*
X46404Y-56358D01*
X46433Y-56332D01*
X46467Y-56313D01*
X46505Y-56301D01*
X46543Y-56297D01*
X46581Y-56300D01*
X46619Y-56310D01*
X46654Y-56328D01*
X46684Y-56352D01*
X46710Y-56381D01*
X46729Y-56415D01*
X46742Y-56452D01*
X46746Y-56491D01*
X46747Y-56496D01*
X46347Y-56296D02*
X46747Y-56696D01*
X46747Y-56296D02*
X46347Y-56696D01*
X46747Y-57496D02*
X46743Y-57534D01*
X46731Y-57572D01*
X46713Y-57606D01*
X46688Y-57636D01*
X46658Y-57661D01*
X46624Y-57680D01*
X46587Y-57691D01*
X46548Y-57695D01*
X46510Y-57692D01*
X46473Y-57681D01*
X46438Y-57663D01*
X46408Y-57638D01*
X46382Y-57608D01*
X46364Y-57574D01*
X46352Y-57537D01*
X46348Y-57498D01*
X46351Y-57460D01*
X46362Y-57423D01*
X46379Y-57388D01*
X46404Y-57358D01*
X46433Y-57332D01*
X46467Y-57313D01*
X46505Y-57301D01*
X46543Y-57297D01*
X46581Y-57300D01*
X46619Y-57310D01*
X46654Y-57328D01*
X46684Y-57352D01*
X46710Y-57381D01*
X46729Y-57415D01*
X46742Y-57452D01*
X46746Y-57491D01*
X46747Y-57496D01*
X46347Y-57296D02*
X46747Y-57696D01*
X46747Y-57296D02*
X46347Y-57696D01*
X47747Y-55496D02*
X47743Y-55534D01*
X47731Y-55572D01*
X47713Y-55606D01*
X47688Y-55636D01*
X47658Y-55661D01*
X47624Y-55680D01*
X47587Y-55691D01*
X47548Y-55695D01*
X47510Y-55692D01*
X47473Y-55681D01*
X47438Y-55663D01*
X47408Y-55638D01*
X47382Y-55608D01*
X47364Y-55574D01*
X47352Y-55537D01*
X47348Y-55498D01*
X47351Y-55460D01*
X47362Y-55423D01*
X47379Y-55388D01*
X47404Y-55358D01*
X47433Y-55332D01*
X47467Y-55313D01*
X47505Y-55301D01*
X47543Y-55297D01*
X47581Y-55300D01*
X47619Y-55310D01*
X47654Y-55328D01*
X47684Y-55352D01*
X47710Y-55381D01*
X47729Y-55415D01*
X47742Y-55452D01*
X47746Y-55491D01*
X47747Y-55496D01*
X47347Y-55296D02*
X47747Y-55696D01*
X47747Y-55296D02*
X47347Y-55696D01*
X47747Y-56496D02*
X47743Y-56534D01*
X47731Y-56572D01*
X47713Y-56606D01*
X47688Y-56636D01*
X47658Y-56661D01*
X47624Y-56680D01*
X47587Y-56691D01*
X47548Y-56695D01*
X47510Y-56692D01*
X47473Y-56681D01*
X47438Y-56663D01*
X47408Y-56638D01*
X47382Y-56608D01*
X47364Y-56574D01*
X47352Y-56537D01*
X47348Y-56498D01*
X47351Y-56460D01*
X47362Y-56423D01*
X47379Y-56388D01*
X47404Y-56358D01*
X47433Y-56332D01*
X47467Y-56313D01*
X47505Y-56301D01*
X47543Y-56297D01*
X47581Y-56300D01*
X47619Y-56310D01*
X47654Y-56328D01*
X47684Y-56352D01*
X47710Y-56381D01*
X47729Y-56415D01*
X47742Y-56452D01*
X47746Y-56491D01*
X47747Y-56496D01*
X47347Y-56296D02*
X47747Y-56696D01*
X47747Y-56296D02*
X47347Y-56696D01*
X47747Y-57496D02*
X47743Y-57534D01*
X47731Y-57572D01*
X47713Y-57606D01*
X47688Y-57636D01*
X47658Y-57661D01*
X47624Y-57680D01*
X47587Y-57691D01*
X47548Y-57695D01*
X47510Y-57692D01*
X47473Y-57681D01*
X47438Y-57663D01*
X47408Y-57638D01*
X47382Y-57608D01*
X47364Y-57574D01*
X47352Y-57537D01*
X47348Y-57498D01*
X47351Y-57460D01*
X47362Y-57423D01*
X47379Y-57388D01*
X47404Y-57358D01*
X47433Y-57332D01*
X47467Y-57313D01*
X47505Y-57301D01*
X47543Y-57297D01*
X47581Y-57300D01*
X47619Y-57310D01*
X47654Y-57328D01*
X47684Y-57352D01*
X47710Y-57381D01*
X47729Y-57415D01*
X47742Y-57452D01*
X47746Y-57491D01*
X47747Y-57496D01*
X47347Y-57296D02*
X47747Y-57696D01*
X47747Y-57296D02*
X47347Y-57696D01*
X30915Y-40945D02*
X30903Y-41061D01*
X30869Y-41173D01*
X30814Y-41277D01*
X30740Y-41367D01*
X30650Y-41442D01*
X30547Y-41498D01*
X30435Y-41532D01*
X30319Y-41544D01*
X30203Y-41534D01*
X30091Y-41501D01*
X29987Y-41447D01*
X29896Y-41373D01*
X29820Y-41283D01*
X29764Y-41181D01*
X29729Y-41069D01*
X29716Y-40953D01*
X29725Y-40837D01*
X29758Y-40725D01*
X29811Y-40620D01*
X29884Y-40529D01*
X29973Y-40453D01*
X30075Y-40396D01*
X30187Y-40359D01*
X30303Y-40346D01*
X30419Y-40355D01*
X30531Y-40386D01*
X30636Y-40439D01*
X30728Y-40511D01*
X30805Y-40600D01*
X30863Y-40701D01*
X30900Y-40813D01*
X30914Y-40929D01*
X30915Y-40945D01*
X29715Y-40945D02*
X30915Y-40945D01*
X39576Y-57874D02*
X39564Y-57990D01*
X39530Y-58102D01*
X39475Y-58206D01*
X39401Y-58296D01*
X39311Y-58371D01*
X39208Y-58427D01*
X39096Y-58461D01*
X38980Y-58473D01*
X38864Y-58463D01*
X38752Y-58430D01*
X38648Y-58376D01*
X38557Y-58302D01*
X38481Y-58212D01*
X38425Y-58110D01*
X38390Y-57998D01*
X38377Y-57882D01*
X38386Y-57766D01*
X38419Y-57654D01*
X38472Y-57549D01*
X38545Y-57458D01*
X38634Y-57382D01*
X38736Y-57325D01*
X38848Y-57288D01*
X38964Y-57275D01*
X39080Y-57284D01*
X39192Y-57315D01*
X39297Y-57368D01*
X39389Y-57440D01*
X39466Y-57529D01*
X39524Y-57630D01*
X39561Y-57742D01*
X39575Y-57858D01*
X39576Y-57874D01*
X38376Y-57874D02*
X39576Y-57874D01*
X48238Y-40945D02*
X48226Y-41061D01*
X48192Y-41173D01*
X48137Y-41277D01*
X48063Y-41367D01*
X47973Y-41442D01*
X47870Y-41498D01*
X47758Y-41532D01*
X47642Y-41544D01*
X47526Y-41534D01*
X47414Y-41501D01*
X47310Y-41447D01*
X47219Y-41373D01*
X47143Y-41283D01*
X47087Y-41181D01*
X47052Y-41069D01*
X47039Y-40953D01*
X47048Y-40837D01*
X47081Y-40725D01*
X47134Y-40620D01*
X47207Y-40529D01*
X47296Y-40453D01*
X47398Y-40396D01*
X47510Y-40359D01*
X47626Y-40346D01*
X47742Y-40355D01*
X47854Y-40386D01*
X47959Y-40439D01*
X48051Y-40511D01*
X48128Y-40600D01*
X48186Y-40701D01*
X48223Y-40813D01*
X48237Y-40929D01*
X48238Y-40945D01*
X47038Y-40945D02*
X48238Y-40945D01*
G54D12*
X25298Y-60804D02*
X25298Y-60004D01*
X25489Y-60004D01*
X25603Y-60042D01*
X25679Y-60118D01*
X25718Y-60194D01*
X25756Y-60347D01*
X25756Y-60461D01*
X25718Y-60613D01*
X25679Y-60690D01*
X25603Y-60766D01*
X25489Y-60804D01*
X25298Y-60804D01*
X26098Y-60804D02*
X26098Y-60270D01*
X26098Y-60423D02*
X26137Y-60347D01*
X26175Y-60309D01*
X26251Y-60270D01*
X26327Y-60270D01*
X26593Y-60804D02*
X26593Y-60270D01*
X26593Y-60004D02*
X26555Y-60042D01*
X26593Y-60080D01*
X26632Y-60042D01*
X26593Y-60004D01*
X26593Y-60080D01*
X27089Y-60804D02*
X27013Y-60766D01*
X26974Y-60690D01*
X26974Y-60004D01*
X27508Y-60804D02*
X27432Y-60766D01*
X27393Y-60690D01*
X27393Y-60004D01*
X28422Y-60804D02*
X28422Y-60004D01*
X28689Y-60575D01*
X28956Y-60004D01*
X28956Y-60804D01*
X29679Y-60804D02*
X29679Y-60385D01*
X29641Y-60309D01*
X29565Y-60270D01*
X29413Y-60270D01*
X29336Y-60309D01*
X29679Y-60766D02*
X29603Y-60804D01*
X29413Y-60804D01*
X29336Y-60766D01*
X29298Y-60690D01*
X29298Y-60613D01*
X29336Y-60537D01*
X29413Y-60499D01*
X29603Y-60499D01*
X29679Y-60461D01*
X30060Y-60270D02*
X30060Y-61070D01*
X30060Y-60309D02*
X30137Y-60270D01*
X30289Y-60270D01*
X30365Y-60309D01*
X30403Y-60347D01*
X30441Y-60423D01*
X30441Y-60651D01*
X30403Y-60728D01*
X30365Y-60766D01*
X30289Y-60804D01*
X30137Y-60804D01*
X30060Y-60766D01*
X30784Y-60728D02*
X30823Y-60766D01*
X30784Y-60804D01*
X30746Y-60766D01*
X30784Y-60728D01*
X30784Y-60804D01*
X30784Y-60309D02*
X30823Y-60347D01*
X30784Y-60385D01*
X30746Y-60347D01*
X30784Y-60309D01*
X30784Y-60385D01*
X24658Y-62035D02*
X24908Y-62285D01*
X24908Y-62035D02*
X24658Y-62285D01*
X25451Y-61684D02*
X25527Y-61684D01*
X25603Y-61722D01*
X25641Y-61760D01*
X25679Y-61836D01*
X25718Y-61989D01*
X25718Y-62179D01*
X25679Y-62331D01*
X25641Y-62408D01*
X25603Y-62446D01*
X25527Y-62484D01*
X25451Y-62484D01*
X25375Y-62446D01*
X25337Y-62408D01*
X25298Y-62331D01*
X25260Y-62179D01*
X25260Y-61989D01*
X25298Y-61836D01*
X25337Y-61760D01*
X25375Y-61722D01*
X25451Y-61684D01*
X26060Y-62408D02*
X26099Y-62446D01*
X26060Y-62484D01*
X26022Y-62446D01*
X26060Y-62408D01*
X26060Y-62484D01*
X26784Y-61684D02*
X26632Y-61684D01*
X26556Y-61722D01*
X26518Y-61760D01*
X26441Y-61874D01*
X26403Y-62027D01*
X26403Y-62331D01*
X26441Y-62408D01*
X26480Y-62446D01*
X26556Y-62484D01*
X26708Y-62484D01*
X26784Y-62446D01*
X26822Y-62408D01*
X26861Y-62331D01*
X26861Y-62141D01*
X26822Y-62065D01*
X26784Y-62027D01*
X26708Y-61989D01*
X26556Y-61989D01*
X26480Y-62027D01*
X26441Y-62065D01*
X26403Y-62141D01*
X27546Y-61950D02*
X27546Y-62484D01*
X27356Y-61646D02*
X27165Y-62217D01*
X27661Y-62217D01*
X27965Y-62484D02*
X27965Y-61950D01*
X27965Y-62027D02*
X28004Y-61989D01*
X28080Y-61950D01*
X28194Y-61950D01*
X28270Y-61989D01*
X28308Y-62065D01*
X28308Y-62484D01*
X28308Y-62065D02*
X28346Y-61989D01*
X28423Y-61950D01*
X28537Y-61950D01*
X28613Y-61989D01*
X28651Y-62065D01*
X28651Y-62484D01*
X29032Y-62484D02*
X29032Y-61950D01*
X29032Y-62027D02*
X29071Y-61989D01*
X29147Y-61950D01*
X29261Y-61950D01*
X29337Y-61989D01*
X29375Y-62065D01*
X29375Y-62484D01*
X29375Y-62065D02*
X29413Y-61989D01*
X29490Y-61950D01*
X29604Y-61950D01*
X29680Y-61989D01*
X29718Y-62065D01*
X29718Y-62484D01*
X31281Y-61646D02*
X30595Y-62674D01*
X32310Y-61684D02*
X32386Y-61684D01*
X32462Y-61722D01*
X32500Y-61760D01*
X32538Y-61836D01*
X32577Y-61989D01*
X32577Y-62179D01*
X32538Y-62331D01*
X32500Y-62408D01*
X32462Y-62446D01*
X32386Y-62484D01*
X32310Y-62484D01*
X32234Y-62446D01*
X32196Y-62408D01*
X32157Y-62331D01*
X32119Y-62179D01*
X32119Y-61989D01*
X32157Y-61836D01*
X32196Y-61760D01*
X32234Y-61722D01*
X32310Y-61684D01*
X32919Y-62408D02*
X32958Y-62446D01*
X32919Y-62484D01*
X32881Y-62446D01*
X32919Y-62408D01*
X32919Y-62484D01*
X33453Y-61684D02*
X33529Y-61684D01*
X33605Y-61722D01*
X33643Y-61760D01*
X33681Y-61836D01*
X33720Y-61989D01*
X33720Y-62179D01*
X33681Y-62331D01*
X33643Y-62408D01*
X33605Y-62446D01*
X33529Y-62484D01*
X33453Y-62484D01*
X33377Y-62446D01*
X33339Y-62408D01*
X33300Y-62331D01*
X33262Y-62179D01*
X33262Y-61989D01*
X33300Y-61836D01*
X33339Y-61760D01*
X33377Y-61722D01*
X33453Y-61684D01*
X34024Y-61760D02*
X34062Y-61722D01*
X34139Y-61684D01*
X34329Y-61684D01*
X34405Y-61722D01*
X34443Y-61760D01*
X34482Y-61836D01*
X34482Y-61912D01*
X34443Y-62027D01*
X33986Y-62484D01*
X34482Y-62484D01*
X35205Y-61684D02*
X34824Y-61684D01*
X34786Y-62065D01*
X34824Y-62027D01*
X34901Y-61989D01*
X35091Y-61989D01*
X35167Y-62027D01*
X35205Y-62065D01*
X35244Y-62141D01*
X35244Y-62331D01*
X35205Y-62408D01*
X35167Y-62446D01*
X35091Y-62484D01*
X34901Y-62484D01*
X34824Y-62446D01*
X34786Y-62408D01*
X35548Y-61684D02*
X35548Y-61836D01*
X35853Y-61684D02*
X35853Y-61836D01*
X37035Y-62789D02*
X36997Y-62750D01*
X36921Y-62636D01*
X36883Y-62560D01*
X36845Y-62446D01*
X36806Y-62255D01*
X36806Y-62103D01*
X36845Y-61912D01*
X36883Y-61798D01*
X36921Y-61722D01*
X36997Y-61608D01*
X37035Y-61570D01*
X37759Y-62484D02*
X37301Y-62484D01*
X37530Y-62484D02*
X37530Y-61684D01*
X37454Y-61798D01*
X37378Y-61874D01*
X37301Y-61912D01*
X38444Y-61950D02*
X38444Y-62484D01*
X38254Y-61646D02*
X38063Y-62217D01*
X38559Y-62217D01*
X39473Y-62484D02*
X39473Y-61684D01*
X39816Y-62484D02*
X39816Y-62065D01*
X39778Y-61989D01*
X39702Y-61950D01*
X39588Y-61950D01*
X39512Y-61989D01*
X39473Y-62027D01*
X40312Y-62484D02*
X40236Y-62446D01*
X40197Y-62408D01*
X40159Y-62331D01*
X40159Y-62103D01*
X40197Y-62027D01*
X40236Y-61989D01*
X40312Y-61950D01*
X40426Y-61950D01*
X40502Y-61989D01*
X40540Y-62027D01*
X40578Y-62103D01*
X40578Y-62331D01*
X40540Y-62408D01*
X40502Y-62446D01*
X40426Y-62484D01*
X40312Y-62484D01*
X41036Y-62484D02*
X40960Y-62446D01*
X40921Y-62370D01*
X40921Y-61684D01*
X41645Y-62446D02*
X41569Y-62484D01*
X41417Y-62484D01*
X41340Y-62446D01*
X41302Y-62370D01*
X41302Y-62065D01*
X41340Y-61989D01*
X41417Y-61950D01*
X41569Y-61950D01*
X41645Y-61989D01*
X41683Y-62065D01*
X41683Y-62141D01*
X41302Y-62217D01*
X41988Y-62446D02*
X42065Y-62484D01*
X42217Y-62484D01*
X42293Y-62446D01*
X42331Y-62370D01*
X42331Y-62331D01*
X42293Y-62255D01*
X42217Y-62217D01*
X42103Y-62217D01*
X42026Y-62179D01*
X41988Y-62103D01*
X41988Y-62065D01*
X42026Y-61989D01*
X42103Y-61950D01*
X42217Y-61950D01*
X42293Y-61989D01*
X42598Y-62789D02*
X42636Y-62750D01*
X42713Y-62636D01*
X42751Y-62560D01*
X42789Y-62446D01*
X42827Y-62255D01*
X42827Y-62103D01*
X42789Y-61912D01*
X42751Y-61798D01*
X42713Y-61722D01*
X42636Y-61608D01*
X42598Y-61570D01*
G54D10*
X24908Y-63215D02*
X24904Y-63246D01*
X24895Y-63275D01*
X24881Y-63303D01*
X24861Y-63327D01*
X24837Y-63347D01*
X24810Y-63362D01*
X24780Y-63371D01*
X24749Y-63374D01*
X24719Y-63372D01*
X24689Y-63363D01*
X24661Y-63348D01*
X24637Y-63329D01*
X24616Y-63305D01*
X24601Y-63278D01*
X24592Y-63248D01*
X24589Y-63217D01*
X24591Y-63187D01*
X24600Y-63157D01*
X24614Y-63129D01*
X24633Y-63104D01*
X24657Y-63084D01*
X24684Y-63069D01*
X24714Y-63059D01*
X24745Y-63056D01*
X24775Y-63058D01*
X24805Y-63066D01*
X24833Y-63080D01*
X24858Y-63100D01*
X24878Y-63123D01*
X24894Y-63150D01*
X24904Y-63180D01*
X24907Y-63211D01*
X24908Y-63215D01*
G54D12*
X25451Y-62739D02*
X25527Y-62739D01*
X25603Y-62777D01*
X25641Y-62815D01*
X25679Y-62891D01*
X25718Y-63044D01*
X25718Y-63234D01*
X25679Y-63386D01*
X25641Y-63463D01*
X25603Y-63501D01*
X25527Y-63539D01*
X25451Y-63539D01*
X25375Y-63501D01*
X25337Y-63463D01*
X25298Y-63386D01*
X25260Y-63234D01*
X25260Y-63044D01*
X25298Y-62891D01*
X25337Y-62815D01*
X25375Y-62777D01*
X25451Y-62739D01*
X26060Y-63463D02*
X26099Y-63501D01*
X26060Y-63539D01*
X26022Y-63501D01*
X26060Y-63463D01*
X26060Y-63539D01*
X26556Y-63082D02*
X26480Y-63044D01*
X26441Y-63005D01*
X26403Y-62929D01*
X26403Y-62891D01*
X26441Y-62815D01*
X26480Y-62777D01*
X26556Y-62739D01*
X26708Y-62739D01*
X26784Y-62777D01*
X26822Y-62815D01*
X26861Y-62891D01*
X26861Y-62929D01*
X26822Y-63005D01*
X26784Y-63044D01*
X26708Y-63082D01*
X26556Y-63082D01*
X26480Y-63120D01*
X26441Y-63158D01*
X26403Y-63234D01*
X26403Y-63386D01*
X26441Y-63463D01*
X26480Y-63501D01*
X26556Y-63539D01*
X26708Y-63539D01*
X26784Y-63501D01*
X26822Y-63463D01*
X26861Y-63386D01*
X26861Y-63234D01*
X26822Y-63158D01*
X26784Y-63120D01*
X26708Y-63082D01*
X27623Y-63539D02*
X27165Y-63539D01*
X27394Y-63539D02*
X27394Y-62739D01*
X27318Y-62853D01*
X27242Y-62929D01*
X27165Y-62967D01*
X27965Y-63539D02*
X27965Y-63005D01*
X27965Y-63082D02*
X28004Y-63044D01*
X28080Y-63005D01*
X28194Y-63005D01*
X28270Y-63044D01*
X28308Y-63120D01*
X28308Y-63539D01*
X28308Y-63120D02*
X28346Y-63044D01*
X28423Y-63005D01*
X28537Y-63005D01*
X28613Y-63044D01*
X28651Y-63120D01*
X28651Y-63539D01*
X29032Y-63539D02*
X29032Y-63005D01*
X29032Y-63082D02*
X29071Y-63044D01*
X29147Y-63005D01*
X29261Y-63005D01*
X29337Y-63044D01*
X29375Y-63120D01*
X29375Y-63539D01*
X29375Y-63120D02*
X29413Y-63044D01*
X29490Y-63005D01*
X29604Y-63005D01*
X29680Y-63044D01*
X29718Y-63120D01*
X29718Y-63539D01*
X31281Y-62701D02*
X30595Y-63729D01*
X32310Y-62739D02*
X32386Y-62739D01*
X32462Y-62777D01*
X32500Y-62815D01*
X32538Y-62891D01*
X32577Y-63044D01*
X32577Y-63234D01*
X32538Y-63386D01*
X32500Y-63463D01*
X32462Y-63501D01*
X32386Y-63539D01*
X32310Y-63539D01*
X32234Y-63501D01*
X32196Y-63463D01*
X32157Y-63386D01*
X32119Y-63234D01*
X32119Y-63044D01*
X32157Y-62891D01*
X32196Y-62815D01*
X32234Y-62777D01*
X32310Y-62739D01*
X32919Y-63463D02*
X32958Y-63501D01*
X32919Y-63539D01*
X32881Y-63501D01*
X32919Y-63463D01*
X32919Y-63539D01*
X33453Y-62739D02*
X33529Y-62739D01*
X33605Y-62777D01*
X33643Y-62815D01*
X33681Y-62891D01*
X33720Y-63044D01*
X33720Y-63234D01*
X33681Y-63386D01*
X33643Y-63463D01*
X33605Y-63501D01*
X33529Y-63539D01*
X33453Y-63539D01*
X33377Y-63501D01*
X33339Y-63463D01*
X33300Y-63386D01*
X33262Y-63234D01*
X33262Y-63044D01*
X33300Y-62891D01*
X33339Y-62815D01*
X33377Y-62777D01*
X33453Y-62739D01*
X33986Y-62739D02*
X34482Y-62739D01*
X34215Y-63044D01*
X34329Y-63044D01*
X34405Y-63082D01*
X34443Y-63120D01*
X34482Y-63196D01*
X34482Y-63386D01*
X34443Y-63463D01*
X34405Y-63501D01*
X34329Y-63539D01*
X34101Y-63539D01*
X34024Y-63501D01*
X33986Y-63463D01*
X34786Y-62815D02*
X34824Y-62777D01*
X34901Y-62739D01*
X35091Y-62739D01*
X35167Y-62777D01*
X35205Y-62815D01*
X35244Y-62891D01*
X35244Y-62967D01*
X35205Y-63082D01*
X34748Y-63539D01*
X35244Y-63539D01*
X35548Y-62739D02*
X35548Y-62891D01*
X35853Y-62739D02*
X35853Y-62891D01*
X37035Y-63844D02*
X36997Y-63805D01*
X36921Y-63691D01*
X36883Y-63615D01*
X36845Y-63501D01*
X36806Y-63310D01*
X36806Y-63158D01*
X36845Y-62967D01*
X36883Y-62853D01*
X36921Y-62777D01*
X36997Y-62663D01*
X37035Y-62625D01*
X37759Y-63539D02*
X37301Y-63539D01*
X37530Y-63539D02*
X37530Y-62739D01*
X37454Y-62853D01*
X37378Y-62929D01*
X37301Y-62967D01*
X38521Y-63539D02*
X38063Y-63539D01*
X38292Y-63539D02*
X38292Y-62739D01*
X38216Y-62853D01*
X38140Y-62929D01*
X38063Y-62967D01*
X39473Y-63539D02*
X39473Y-62739D01*
X39816Y-63539D02*
X39816Y-63120D01*
X39778Y-63044D01*
X39702Y-63005D01*
X39588Y-63005D01*
X39512Y-63044D01*
X39473Y-63082D01*
X40312Y-63539D02*
X40236Y-63501D01*
X40197Y-63463D01*
X40159Y-63386D01*
X40159Y-63158D01*
X40197Y-63082D01*
X40236Y-63044D01*
X40312Y-63005D01*
X40426Y-63005D01*
X40502Y-63044D01*
X40540Y-63082D01*
X40578Y-63158D01*
X40578Y-63386D01*
X40540Y-63463D01*
X40502Y-63501D01*
X40426Y-63539D01*
X40312Y-63539D01*
X41036Y-63539D02*
X40960Y-63501D01*
X40921Y-63425D01*
X40921Y-62739D01*
X41645Y-63501D02*
X41569Y-63539D01*
X41417Y-63539D01*
X41340Y-63501D01*
X41302Y-63425D01*
X41302Y-63120D01*
X41340Y-63044D01*
X41417Y-63005D01*
X41569Y-63005D01*
X41645Y-63044D01*
X41683Y-63120D01*
X41683Y-63196D01*
X41302Y-63272D01*
X41988Y-63501D02*
X42065Y-63539D01*
X42217Y-63539D01*
X42293Y-63501D01*
X42331Y-63425D01*
X42331Y-63386D01*
X42293Y-63310D01*
X42217Y-63272D01*
X42103Y-63272D01*
X42026Y-63234D01*
X41988Y-63158D01*
X41988Y-63120D01*
X42026Y-63044D01*
X42103Y-63005D01*
X42217Y-63005D01*
X42293Y-63044D01*
X42598Y-63844D02*
X42636Y-63805D01*
X42713Y-63691D01*
X42751Y-63615D01*
X42789Y-63501D01*
X42827Y-63310D01*
X42827Y-63158D01*
X42789Y-62967D01*
X42751Y-62853D01*
X42713Y-62777D01*
X42636Y-62663D01*
X42598Y-62625D01*
X24731Y-64093D02*
X24731Y-64447D01*
X24908Y-64270D02*
X24554Y-64270D01*
X25451Y-63794D02*
X25527Y-63794D01*
X25603Y-63832D01*
X25641Y-63870D01*
X25679Y-63946D01*
X25718Y-64099D01*
X25718Y-64289D01*
X25679Y-64441D01*
X25641Y-64518D01*
X25603Y-64556D01*
X25527Y-64594D01*
X25451Y-64594D01*
X25375Y-64556D01*
X25337Y-64518D01*
X25298Y-64441D01*
X25260Y-64289D01*
X25260Y-64099D01*
X25298Y-63946D01*
X25337Y-63870D01*
X25375Y-63832D01*
X25451Y-63794D01*
X26060Y-64518D02*
X26099Y-64556D01*
X26060Y-64594D01*
X26022Y-64556D01*
X26060Y-64518D01*
X26060Y-64594D01*
X26480Y-64594D02*
X26632Y-64594D01*
X26708Y-64556D01*
X26746Y-64518D01*
X26822Y-64403D01*
X26861Y-64251D01*
X26861Y-63946D01*
X26822Y-63870D01*
X26784Y-63832D01*
X26708Y-63794D01*
X26556Y-63794D01*
X26480Y-63832D01*
X26441Y-63870D01*
X26403Y-63946D01*
X26403Y-64137D01*
X26441Y-64213D01*
X26480Y-64251D01*
X26556Y-64289D01*
X26708Y-64289D01*
X26784Y-64251D01*
X26822Y-64213D01*
X26861Y-64137D01*
X27356Y-63794D02*
X27432Y-63794D01*
X27508Y-63832D01*
X27546Y-63870D01*
X27584Y-63946D01*
X27623Y-64099D01*
X27623Y-64289D01*
X27584Y-64441D01*
X27546Y-64518D01*
X27508Y-64556D01*
X27432Y-64594D01*
X27356Y-64594D01*
X27280Y-64556D01*
X27242Y-64518D01*
X27203Y-64441D01*
X27165Y-64289D01*
X27165Y-64099D01*
X27203Y-63946D01*
X27242Y-63870D01*
X27280Y-63832D01*
X27356Y-63794D01*
X27965Y-64594D02*
X27965Y-64060D01*
X27965Y-64137D02*
X28004Y-64099D01*
X28080Y-64060D01*
X28194Y-64060D01*
X28270Y-64099D01*
X28308Y-64175D01*
X28308Y-64594D01*
X28308Y-64175D02*
X28346Y-64099D01*
X28423Y-64060D01*
X28537Y-64060D01*
X28613Y-64099D01*
X28651Y-64175D01*
X28651Y-64594D01*
X29032Y-64594D02*
X29032Y-64060D01*
X29032Y-64137D02*
X29071Y-64099D01*
X29147Y-64060D01*
X29261Y-64060D01*
X29337Y-64099D01*
X29375Y-64175D01*
X29375Y-64594D01*
X29375Y-64175D02*
X29413Y-64099D01*
X29490Y-64060D01*
X29604Y-64060D01*
X29680Y-64099D01*
X29718Y-64175D01*
X29718Y-64594D01*
X31281Y-63756D02*
X30595Y-64784D01*
X32310Y-63794D02*
X32386Y-63794D01*
X32462Y-63832D01*
X32500Y-63870D01*
X32538Y-63946D01*
X32577Y-64099D01*
X32577Y-64289D01*
X32538Y-64441D01*
X32500Y-64518D01*
X32462Y-64556D01*
X32386Y-64594D01*
X32310Y-64594D01*
X32234Y-64556D01*
X32196Y-64518D01*
X32157Y-64441D01*
X32119Y-64289D01*
X32119Y-64099D01*
X32157Y-63946D01*
X32196Y-63870D01*
X32234Y-63832D01*
X32310Y-63794D01*
X32919Y-64518D02*
X32958Y-64556D01*
X32919Y-64594D01*
X32881Y-64556D01*
X32919Y-64518D01*
X32919Y-64594D01*
X33453Y-63794D02*
X33529Y-63794D01*
X33605Y-63832D01*
X33643Y-63870D01*
X33681Y-63946D01*
X33720Y-64099D01*
X33720Y-64289D01*
X33681Y-64441D01*
X33643Y-64518D01*
X33605Y-64556D01*
X33529Y-64594D01*
X33453Y-64594D01*
X33377Y-64556D01*
X33339Y-64518D01*
X33300Y-64441D01*
X33262Y-64289D01*
X33262Y-64099D01*
X33300Y-63946D01*
X33339Y-63870D01*
X33377Y-63832D01*
X33453Y-63794D01*
X33986Y-63794D02*
X34482Y-63794D01*
X34215Y-64099D01*
X34329Y-64099D01*
X34405Y-64137D01*
X34443Y-64175D01*
X34482Y-64251D01*
X34482Y-64441D01*
X34443Y-64518D01*
X34405Y-64556D01*
X34329Y-64594D01*
X34101Y-64594D01*
X34024Y-64556D01*
X33986Y-64518D01*
X35205Y-63794D02*
X34824Y-63794D01*
X34786Y-64175D01*
X34824Y-64137D01*
X34901Y-64099D01*
X35091Y-64099D01*
X35167Y-64137D01*
X35205Y-64175D01*
X35244Y-64251D01*
X35244Y-64441D01*
X35205Y-64518D01*
X35167Y-64556D01*
X35091Y-64594D01*
X34901Y-64594D01*
X34824Y-64556D01*
X34786Y-64518D01*
X35548Y-63794D02*
X35548Y-63946D01*
X35853Y-63794D02*
X35853Y-63946D01*
X37035Y-64899D02*
X36997Y-64860D01*
X36921Y-64746D01*
X36883Y-64670D01*
X36845Y-64556D01*
X36806Y-64365D01*
X36806Y-64213D01*
X36845Y-64022D01*
X36883Y-63908D01*
X36921Y-63832D01*
X36997Y-63718D01*
X37035Y-63680D01*
X37301Y-63870D02*
X37339Y-63832D01*
X37416Y-63794D01*
X37606Y-63794D01*
X37682Y-63832D01*
X37720Y-63870D01*
X37759Y-63946D01*
X37759Y-64022D01*
X37720Y-64137D01*
X37263Y-64594D01*
X37759Y-64594D01*
X38711Y-64594D02*
X38711Y-63794D01*
X39054Y-64594D02*
X39054Y-64175D01*
X39016Y-64099D01*
X38940Y-64060D01*
X38826Y-64060D01*
X38750Y-64099D01*
X38711Y-64137D01*
X39550Y-64594D02*
X39474Y-64556D01*
X39435Y-64518D01*
X39397Y-64441D01*
X39397Y-64213D01*
X39435Y-64137D01*
X39474Y-64099D01*
X39550Y-64060D01*
X39664Y-64060D01*
X39740Y-64099D01*
X39778Y-64137D01*
X39816Y-64213D01*
X39816Y-64441D01*
X39778Y-64518D01*
X39740Y-64556D01*
X39664Y-64594D01*
X39550Y-64594D01*
X40274Y-64594D02*
X40198Y-64556D01*
X40159Y-64480D01*
X40159Y-63794D01*
X40883Y-64556D02*
X40807Y-64594D01*
X40655Y-64594D01*
X40578Y-64556D01*
X40540Y-64480D01*
X40540Y-64175D01*
X40578Y-64099D01*
X40655Y-64060D01*
X40807Y-64060D01*
X40883Y-64099D01*
X40921Y-64175D01*
X40921Y-64251D01*
X40540Y-64327D01*
X41226Y-64556D02*
X41303Y-64594D01*
X41455Y-64594D01*
X41531Y-64556D01*
X41569Y-64480D01*
X41569Y-64441D01*
X41531Y-64365D01*
X41455Y-64327D01*
X41341Y-64327D01*
X41264Y-64289D01*
X41226Y-64213D01*
X41226Y-64175D01*
X41264Y-64099D01*
X41341Y-64060D01*
X41455Y-64060D01*
X41531Y-64099D01*
X41836Y-64899D02*
X41874Y-64860D01*
X41951Y-64746D01*
X41989Y-64670D01*
X42027Y-64556D01*
X42065Y-64365D01*
X42065Y-64213D01*
X42027Y-64022D01*
X41989Y-63908D01*
X41951Y-63832D01*
X41874Y-63718D01*
X41836Y-63680D01*
G54D10*
X24908Y-65325D02*
X24904Y-65363D01*
X24892Y-65401D01*
X24874Y-65435D01*
X24849Y-65465D01*
X24819Y-65490D01*
X24785Y-65509D01*
X24748Y-65520D01*
X24709Y-65524D01*
X24671Y-65521D01*
X24634Y-65510D01*
X24599Y-65492D01*
X24569Y-65467D01*
X24543Y-65437D01*
X24525Y-65403D01*
X24513Y-65366D01*
X24509Y-65327D01*
X24512Y-65289D01*
X24523Y-65252D01*
X24540Y-65217D01*
X24565Y-65187D01*
X24594Y-65161D01*
X24628Y-65142D01*
X24666Y-65130D01*
X24704Y-65126D01*
X24742Y-65129D01*
X24780Y-65139D01*
X24815Y-65157D01*
X24845Y-65181D01*
X24871Y-65210D01*
X24890Y-65244D01*
X24903Y-65281D01*
X24907Y-65320D01*
X24908Y-65325D01*
X24508Y-65125D02*
X24908Y-65525D01*
X24908Y-65125D02*
X24508Y-65525D01*
G54D12*
X25718Y-65649D02*
X25260Y-65649D01*
X25489Y-65649D02*
X25489Y-64849D01*
X25413Y-64963D01*
X25337Y-65039D01*
X25260Y-65077D01*
X26060Y-65573D02*
X26099Y-65611D01*
X26060Y-65649D01*
X26022Y-65611D01*
X26060Y-65573D01*
X26060Y-65649D01*
X26594Y-64849D02*
X26670Y-64849D01*
X26746Y-64887D01*
X26784Y-64925D01*
X26822Y-65001D01*
X26861Y-65154D01*
X26861Y-65344D01*
X26822Y-65496D01*
X26784Y-65573D01*
X26746Y-65611D01*
X26670Y-65649D01*
X26594Y-65649D01*
X26518Y-65611D01*
X26480Y-65573D01*
X26441Y-65496D01*
X26403Y-65344D01*
X26403Y-65154D01*
X26441Y-65001D01*
X26480Y-64925D01*
X26518Y-64887D01*
X26594Y-64849D01*
X27165Y-64925D02*
X27203Y-64887D01*
X27280Y-64849D01*
X27470Y-64849D01*
X27546Y-64887D01*
X27584Y-64925D01*
X27623Y-65001D01*
X27623Y-65077D01*
X27584Y-65192D01*
X27127Y-65649D01*
X27623Y-65649D01*
X27965Y-65649D02*
X27965Y-65115D01*
X27965Y-65192D02*
X28004Y-65154D01*
X28080Y-65115D01*
X28194Y-65115D01*
X28270Y-65154D01*
X28308Y-65230D01*
X28308Y-65649D01*
X28308Y-65230D02*
X28346Y-65154D01*
X28423Y-65115D01*
X28537Y-65115D01*
X28613Y-65154D01*
X28651Y-65230D01*
X28651Y-65649D01*
X29032Y-65649D02*
X29032Y-65115D01*
X29032Y-65192D02*
X29071Y-65154D01*
X29147Y-65115D01*
X29261Y-65115D01*
X29337Y-65154D01*
X29375Y-65230D01*
X29375Y-65649D01*
X29375Y-65230D02*
X29413Y-65154D01*
X29490Y-65115D01*
X29604Y-65115D01*
X29680Y-65154D01*
X29718Y-65230D01*
X29718Y-65649D01*
X31281Y-64811D02*
X30595Y-65839D01*
X32310Y-64849D02*
X32386Y-64849D01*
X32462Y-64887D01*
X32500Y-64925D01*
X32538Y-65001D01*
X32577Y-65154D01*
X32577Y-65344D01*
X32538Y-65496D01*
X32500Y-65573D01*
X32462Y-65611D01*
X32386Y-65649D01*
X32310Y-65649D01*
X32234Y-65611D01*
X32196Y-65573D01*
X32157Y-65496D01*
X32119Y-65344D01*
X32119Y-65154D01*
X32157Y-65001D01*
X32196Y-64925D01*
X32234Y-64887D01*
X32310Y-64849D01*
X32919Y-65573D02*
X32958Y-65611D01*
X32919Y-65649D01*
X32881Y-65611D01*
X32919Y-65573D01*
X32919Y-65649D01*
X33453Y-64849D02*
X33529Y-64849D01*
X33605Y-64887D01*
X33643Y-64925D01*
X33681Y-65001D01*
X33720Y-65154D01*
X33720Y-65344D01*
X33681Y-65496D01*
X33643Y-65573D01*
X33605Y-65611D01*
X33529Y-65649D01*
X33453Y-65649D01*
X33377Y-65611D01*
X33339Y-65573D01*
X33300Y-65496D01*
X33262Y-65344D01*
X33262Y-65154D01*
X33300Y-65001D01*
X33339Y-64925D01*
X33377Y-64887D01*
X33453Y-64849D01*
X34405Y-65115D02*
X34405Y-65649D01*
X34215Y-64811D02*
X34024Y-65382D01*
X34520Y-65382D01*
X34977Y-64849D02*
X35053Y-64849D01*
X35129Y-64887D01*
X35167Y-64925D01*
X35205Y-65001D01*
X35244Y-65154D01*
X35244Y-65344D01*
X35205Y-65496D01*
X35167Y-65573D01*
X35129Y-65611D01*
X35053Y-65649D01*
X34977Y-65649D01*
X34901Y-65611D01*
X34863Y-65573D01*
X34824Y-65496D01*
X34786Y-65344D01*
X34786Y-65154D01*
X34824Y-65001D01*
X34863Y-64925D01*
X34901Y-64887D01*
X34977Y-64849D01*
X35548Y-64849D02*
X35548Y-65001D01*
X35853Y-64849D02*
X35853Y-65001D01*
X37035Y-65954D02*
X36997Y-65915D01*
X36921Y-65801D01*
X36883Y-65725D01*
X36845Y-65611D01*
X36806Y-65420D01*
X36806Y-65268D01*
X36845Y-65077D01*
X36883Y-64963D01*
X36921Y-64887D01*
X36997Y-64773D01*
X37035Y-64735D01*
X37759Y-65649D02*
X37301Y-65649D01*
X37530Y-65649D02*
X37530Y-64849D01*
X37454Y-64963D01*
X37378Y-65039D01*
X37301Y-65077D01*
X38444Y-64849D02*
X38292Y-64849D01*
X38216Y-64887D01*
X38178Y-64925D01*
X38101Y-65039D01*
X38063Y-65192D01*
X38063Y-65496D01*
X38101Y-65573D01*
X38140Y-65611D01*
X38216Y-65649D01*
X38368Y-65649D01*
X38444Y-65611D01*
X38482Y-65573D01*
X38521Y-65496D01*
X38521Y-65306D01*
X38482Y-65230D01*
X38444Y-65192D01*
X38368Y-65154D01*
X38216Y-65154D01*
X38140Y-65192D01*
X38101Y-65230D01*
X38063Y-65306D01*
X39473Y-65649D02*
X39473Y-64849D01*
X39816Y-65649D02*
X39816Y-65230D01*
X39778Y-65154D01*
X39702Y-65115D01*
X39588Y-65115D01*
X39512Y-65154D01*
X39473Y-65192D01*
X40312Y-65649D02*
X40236Y-65611D01*
X40197Y-65573D01*
X40159Y-65496D01*
X40159Y-65268D01*
X40197Y-65192D01*
X40236Y-65154D01*
X40312Y-65115D01*
X40426Y-65115D01*
X40502Y-65154D01*
X40540Y-65192D01*
X40578Y-65268D01*
X40578Y-65496D01*
X40540Y-65573D01*
X40502Y-65611D01*
X40426Y-65649D01*
X40312Y-65649D01*
X41036Y-65649D02*
X40960Y-65611D01*
X40921Y-65535D01*
X40921Y-64849D01*
X41645Y-65611D02*
X41569Y-65649D01*
X41417Y-65649D01*
X41340Y-65611D01*
X41302Y-65535D01*
X41302Y-65230D01*
X41340Y-65154D01*
X41417Y-65115D01*
X41569Y-65115D01*
X41645Y-65154D01*
X41683Y-65230D01*
X41683Y-65306D01*
X41302Y-65382D01*
X41988Y-65611D02*
X42065Y-65649D01*
X42217Y-65649D01*
X42293Y-65611D01*
X42331Y-65535D01*
X42331Y-65496D01*
X42293Y-65420D01*
X42217Y-65382D01*
X42103Y-65382D01*
X42026Y-65344D01*
X41988Y-65268D01*
X41988Y-65230D01*
X42026Y-65154D01*
X42103Y-65115D01*
X42217Y-65115D01*
X42293Y-65154D01*
X42598Y-65954D02*
X42636Y-65915D01*
X42713Y-65801D01*
X42751Y-65725D01*
X42789Y-65611D01*
X42827Y-65420D01*
X42827Y-65268D01*
X42789Y-65077D01*
X42751Y-64963D01*
X42713Y-64887D01*
X42636Y-64773D01*
X42598Y-64735D01*
G54D10*
X24908Y-66380D02*
X24896Y-66496D01*
X24862Y-66608D01*
X24807Y-66712D01*
X24733Y-66802D01*
X24643Y-66877D01*
X24540Y-66933D01*
X24428Y-66967D01*
X24312Y-66979D01*
X24196Y-66969D01*
X24084Y-66936D01*
X23980Y-66882D01*
X23889Y-66808D01*
X23813Y-66718D01*
X23757Y-66616D01*
X23722Y-66504D01*
X23709Y-66388D01*
X23718Y-66272D01*
X23751Y-66160D01*
X23804Y-66055D01*
X23877Y-65964D01*
X23966Y-65888D01*
X24068Y-65831D01*
X24180Y-65794D01*
X24296Y-65781D01*
X24412Y-65790D01*
X24524Y-65821D01*
X24629Y-65874D01*
X24721Y-65946D01*
X24798Y-66035D01*
X24856Y-66136D01*
X24893Y-66248D01*
X24907Y-66364D01*
X24908Y-66380D01*
X23708Y-66380D02*
X24908Y-66380D01*
G54D12*
X25222Y-65904D02*
X25718Y-65904D01*
X25451Y-66209D01*
X25565Y-66209D01*
X25641Y-66247D01*
X25679Y-66285D01*
X25718Y-66361D01*
X25718Y-66551D01*
X25679Y-66628D01*
X25641Y-66666D01*
X25565Y-66704D01*
X25337Y-66704D01*
X25260Y-66666D01*
X25222Y-66628D01*
X26060Y-66628D02*
X26099Y-66666D01*
X26060Y-66704D01*
X26022Y-66666D01*
X26060Y-66628D01*
X26060Y-66704D01*
X26594Y-65904D02*
X26670Y-65904D01*
X26746Y-65942D01*
X26784Y-65980D01*
X26822Y-66056D01*
X26861Y-66209D01*
X26861Y-66399D01*
X26822Y-66551D01*
X26784Y-66628D01*
X26746Y-66666D01*
X26670Y-66704D01*
X26594Y-66704D01*
X26518Y-66666D01*
X26480Y-66628D01*
X26441Y-66551D01*
X26403Y-66399D01*
X26403Y-66209D01*
X26441Y-66056D01*
X26480Y-65980D01*
X26518Y-65942D01*
X26594Y-65904D01*
X27584Y-65904D02*
X27203Y-65904D01*
X27165Y-66285D01*
X27203Y-66247D01*
X27280Y-66209D01*
X27470Y-66209D01*
X27546Y-66247D01*
X27584Y-66285D01*
X27623Y-66361D01*
X27623Y-66551D01*
X27584Y-66628D01*
X27546Y-66666D01*
X27470Y-66704D01*
X27280Y-66704D01*
X27203Y-66666D01*
X27165Y-66628D01*
X27965Y-66704D02*
X27965Y-66170D01*
X27965Y-66247D02*
X28004Y-66209D01*
X28080Y-66170D01*
X28194Y-66170D01*
X28270Y-66209D01*
X28308Y-66285D01*
X28308Y-66704D01*
X28308Y-66285D02*
X28346Y-66209D01*
X28423Y-66170D01*
X28537Y-66170D01*
X28613Y-66209D01*
X28651Y-66285D01*
X28651Y-66704D01*
X29032Y-66704D02*
X29032Y-66170D01*
X29032Y-66247D02*
X29071Y-66209D01*
X29147Y-66170D01*
X29261Y-66170D01*
X29337Y-66209D01*
X29375Y-66285D01*
X29375Y-66704D01*
X29375Y-66285D02*
X29413Y-66209D01*
X29490Y-66170D01*
X29604Y-66170D01*
X29680Y-66209D01*
X29718Y-66285D01*
X29718Y-66704D01*
X31281Y-65866D02*
X30595Y-66894D01*
X32310Y-65904D02*
X32386Y-65904D01*
X32462Y-65942D01*
X32500Y-65980D01*
X32538Y-66056D01*
X32577Y-66209D01*
X32577Y-66399D01*
X32538Y-66551D01*
X32500Y-66628D01*
X32462Y-66666D01*
X32386Y-66704D01*
X32310Y-66704D01*
X32234Y-66666D01*
X32196Y-66628D01*
X32157Y-66551D01*
X32119Y-66399D01*
X32119Y-66209D01*
X32157Y-66056D01*
X32196Y-65980D01*
X32234Y-65942D01*
X32310Y-65904D01*
X32919Y-66628D02*
X32958Y-66666D01*
X32919Y-66704D01*
X32881Y-66666D01*
X32919Y-66628D01*
X32919Y-66704D01*
X33720Y-66704D02*
X33262Y-66704D01*
X33491Y-66704D02*
X33491Y-65904D01*
X33415Y-66018D01*
X33339Y-66094D01*
X33262Y-66132D01*
X34024Y-65980D02*
X34062Y-65942D01*
X34139Y-65904D01*
X34329Y-65904D01*
X34405Y-65942D01*
X34443Y-65980D01*
X34482Y-66056D01*
X34482Y-66132D01*
X34443Y-66247D01*
X33986Y-66704D01*
X34482Y-66704D01*
X34977Y-65904D02*
X35053Y-65904D01*
X35129Y-65942D01*
X35167Y-65980D01*
X35205Y-66056D01*
X35244Y-66209D01*
X35244Y-66399D01*
X35205Y-66551D01*
X35167Y-66628D01*
X35129Y-66666D01*
X35053Y-66704D01*
X34977Y-66704D01*
X34901Y-66666D01*
X34863Y-66628D01*
X34824Y-66551D01*
X34786Y-66399D01*
X34786Y-66209D01*
X34824Y-66056D01*
X34863Y-65980D01*
X34901Y-65942D01*
X34977Y-65904D01*
X35548Y-65904D02*
X35548Y-66056D01*
X35853Y-65904D02*
X35853Y-66056D01*
X37035Y-67009D02*
X36997Y-66970D01*
X36921Y-66856D01*
X36883Y-66780D01*
X36845Y-66666D01*
X36806Y-66475D01*
X36806Y-66323D01*
X36845Y-66132D01*
X36883Y-66018D01*
X36921Y-65942D01*
X36997Y-65828D01*
X37035Y-65790D01*
X37263Y-65904D02*
X37759Y-65904D01*
X37492Y-66209D01*
X37606Y-66209D01*
X37682Y-66247D01*
X37720Y-66285D01*
X37759Y-66361D01*
X37759Y-66551D01*
X37720Y-66628D01*
X37682Y-66666D01*
X37606Y-66704D01*
X37378Y-66704D01*
X37301Y-66666D01*
X37263Y-66628D01*
X38711Y-66704D02*
X38711Y-65904D01*
X39054Y-66704D02*
X39054Y-66285D01*
X39016Y-66209D01*
X38940Y-66170D01*
X38826Y-66170D01*
X38750Y-66209D01*
X38711Y-66247D01*
X39550Y-66704D02*
X39474Y-66666D01*
X39435Y-66628D01*
X39397Y-66551D01*
X39397Y-66323D01*
X39435Y-66247D01*
X39474Y-66209D01*
X39550Y-66170D01*
X39664Y-66170D01*
X39740Y-66209D01*
X39778Y-66247D01*
X39816Y-66323D01*
X39816Y-66551D01*
X39778Y-66628D01*
X39740Y-66666D01*
X39664Y-66704D01*
X39550Y-66704D01*
X40274Y-66704D02*
X40198Y-66666D01*
X40159Y-66590D01*
X40159Y-65904D01*
X40883Y-66666D02*
X40807Y-66704D01*
X40655Y-66704D01*
X40578Y-66666D01*
X40540Y-66590D01*
X40540Y-66285D01*
X40578Y-66209D01*
X40655Y-66170D01*
X40807Y-66170D01*
X40883Y-66209D01*
X40921Y-66285D01*
X40921Y-66361D01*
X40540Y-66437D01*
X41226Y-66666D02*
X41303Y-66704D01*
X41455Y-66704D01*
X41531Y-66666D01*
X41569Y-66590D01*
X41569Y-66551D01*
X41531Y-66475D01*
X41455Y-66437D01*
X41341Y-66437D01*
X41264Y-66399D01*
X41226Y-66323D01*
X41226Y-66285D01*
X41264Y-66209D01*
X41341Y-66170D01*
X41455Y-66170D01*
X41531Y-66209D01*
X41836Y-67009D02*
X41874Y-66970D01*
X41951Y-66856D01*
X41989Y-66780D01*
X42027Y-66666D01*
X42065Y-66475D01*
X42065Y-66323D01*
X42027Y-66132D01*
X41989Y-66018D01*
X41951Y-65942D01*
X41874Y-65828D01*
X41836Y-65790D01*
M02*
