G04 (created by PCBNEW-RS274X (2012-01-19 BZR 3256)-stable) date 09-06-2012 12:03:23*
G01*
G70*
G90*
%MOIN*%
G04 Gerber Fmt 3.4, Leading zero omitted, Abs format*
%FSLAX34Y34*%
G04 APERTURE LIST*
%ADD10C,0.006000*%
%ADD11C,0.012000*%
%ADD12C,0.015000*%
%ADD13C,0.000100*%
%ADD14R,0.075000X0.075000*%
%ADD15C,0.075000*%
%ADD16R,0.080000X0.080000*%
%ADD17C,0.080000*%
%ADD18C,0.180000*%
G04 APERTURE END LIST*
G54D10*
G54D11*
X35183Y-57280D02*
X35069Y-57280D01*
X35011Y-57318D01*
X34954Y-57394D01*
X34926Y-57546D01*
X34926Y-57813D01*
X34954Y-57966D01*
X35011Y-58042D01*
X35069Y-58080D01*
X35183Y-58080D01*
X35240Y-58042D01*
X35297Y-57966D01*
X35326Y-57813D01*
X35326Y-57546D01*
X35297Y-57394D01*
X35240Y-57318D01*
X35183Y-57280D01*
X34697Y-58042D02*
X34611Y-58080D01*
X34468Y-58080D01*
X34411Y-58042D01*
X34382Y-58004D01*
X34354Y-57927D01*
X34354Y-57851D01*
X34382Y-57775D01*
X34411Y-57737D01*
X34468Y-57699D01*
X34582Y-57661D01*
X34640Y-57623D01*
X34668Y-57585D01*
X34697Y-57508D01*
X34697Y-57432D01*
X34668Y-57356D01*
X34640Y-57318D01*
X34582Y-57280D01*
X34440Y-57280D01*
X34354Y-57318D01*
X34126Y-57851D02*
X33840Y-57851D01*
X34183Y-58080D02*
X33983Y-57280D01*
X33783Y-58080D01*
X33612Y-57851D02*
X33326Y-57851D01*
X33669Y-58080D02*
X33469Y-57280D01*
X33269Y-58080D01*
X33069Y-58004D02*
X33041Y-58042D01*
X33069Y-58080D01*
X33098Y-58042D01*
X33069Y-58004D01*
X33069Y-58080D01*
X32783Y-58080D02*
X32783Y-57280D01*
X32640Y-57280D01*
X32555Y-57318D01*
X32497Y-57394D01*
X32469Y-57470D01*
X32440Y-57623D01*
X32440Y-57737D01*
X32469Y-57889D01*
X32497Y-57966D01*
X32555Y-58042D01*
X32640Y-58080D01*
X32783Y-58080D01*
X32183Y-58080D02*
X32183Y-57280D01*
X31840Y-58080D02*
X32097Y-57623D01*
X31840Y-57280D02*
X32183Y-57737D01*
X48317Y-43041D02*
X48317Y-42241D01*
X47974Y-43041D01*
X47974Y-42241D01*
X47688Y-43041D02*
X47688Y-42507D01*
X47688Y-42241D02*
X47717Y-42279D01*
X47688Y-42317D01*
X47660Y-42279D01*
X47688Y-42241D01*
X47688Y-42317D01*
X47145Y-43003D02*
X47202Y-43041D01*
X47316Y-43041D01*
X47374Y-43003D01*
X47402Y-42965D01*
X47431Y-42888D01*
X47431Y-42660D01*
X47402Y-42584D01*
X47374Y-42546D01*
X47316Y-42507D01*
X47202Y-42507D01*
X47145Y-42546D01*
X46660Y-43003D02*
X46717Y-43041D01*
X46831Y-43041D01*
X46888Y-43003D01*
X46917Y-42927D01*
X46917Y-42622D01*
X46888Y-42546D01*
X46831Y-42507D01*
X46717Y-42507D01*
X46660Y-42546D01*
X46631Y-42622D01*
X46631Y-42698D01*
X46917Y-42774D01*
X46117Y-43041D02*
X46117Y-42241D01*
X46117Y-43003D02*
X46174Y-43041D01*
X46288Y-43041D01*
X46346Y-43003D01*
X46374Y-42965D01*
X46403Y-42888D01*
X46403Y-42660D01*
X46374Y-42584D01*
X46346Y-42546D01*
X46288Y-42507D01*
X46174Y-42507D01*
X46117Y-42546D01*
X45574Y-42507D02*
X45574Y-43041D01*
X45831Y-42507D02*
X45831Y-42927D01*
X45803Y-43003D01*
X45745Y-43041D01*
X45660Y-43041D01*
X45603Y-43003D01*
X45574Y-42965D01*
X45031Y-43041D02*
X45031Y-42241D01*
X45031Y-43003D02*
X45088Y-43041D01*
X45202Y-43041D01*
X45260Y-43003D01*
X45288Y-42965D01*
X45317Y-42888D01*
X45317Y-42660D01*
X45288Y-42584D01*
X45260Y-42546D01*
X45202Y-42507D01*
X45088Y-42507D01*
X45031Y-42546D01*
X44517Y-43003D02*
X44574Y-43041D01*
X44688Y-43041D01*
X44745Y-43003D01*
X44774Y-42927D01*
X44774Y-42622D01*
X44745Y-42546D01*
X44688Y-42507D01*
X44574Y-42507D01*
X44517Y-42546D01*
X44488Y-42622D01*
X44488Y-42698D01*
X44774Y-42774D01*
X45889Y-41505D02*
X46089Y-41124D01*
X46232Y-41505D02*
X46232Y-40705D01*
X46004Y-40705D01*
X45946Y-40743D01*
X45918Y-40781D01*
X45889Y-40857D01*
X45889Y-40971D01*
X45918Y-41048D01*
X45946Y-41086D01*
X46004Y-41124D01*
X46232Y-41124D01*
X45546Y-41505D02*
X45604Y-41467D01*
X45632Y-41429D01*
X45661Y-41352D01*
X45661Y-41124D01*
X45632Y-41048D01*
X45604Y-41010D01*
X45546Y-40971D01*
X45461Y-40971D01*
X45404Y-41010D01*
X45375Y-41048D01*
X45346Y-41124D01*
X45346Y-41352D01*
X45375Y-41429D01*
X45404Y-41467D01*
X45461Y-41505D01*
X45546Y-41505D01*
X45089Y-41505D02*
X45089Y-40705D01*
X45089Y-41010D02*
X45032Y-40971D01*
X44918Y-40971D01*
X44861Y-41010D01*
X44832Y-41048D01*
X44803Y-41124D01*
X44803Y-41352D01*
X44832Y-41429D01*
X44861Y-41467D01*
X44918Y-41505D01*
X45032Y-41505D01*
X45089Y-41467D01*
X44460Y-41505D02*
X44518Y-41467D01*
X44546Y-41429D01*
X44575Y-41352D01*
X44575Y-41124D01*
X44546Y-41048D01*
X44518Y-41010D01*
X44460Y-40971D01*
X44375Y-40971D01*
X44318Y-41010D01*
X44289Y-41048D01*
X44260Y-41124D01*
X44260Y-41352D01*
X44289Y-41429D01*
X44318Y-41467D01*
X44375Y-41505D01*
X44460Y-41505D01*
X44089Y-40971D02*
X43860Y-40971D01*
X44003Y-40705D02*
X44003Y-41391D01*
X43975Y-41467D01*
X43917Y-41505D01*
X43860Y-41505D01*
X43746Y-40971D02*
X43517Y-40971D01*
X43660Y-40705D02*
X43660Y-41391D01*
X43632Y-41467D01*
X43574Y-41505D01*
X43517Y-41505D01*
X43231Y-41505D02*
X43289Y-41467D01*
X43317Y-41429D01*
X43346Y-41352D01*
X43346Y-41124D01*
X43317Y-41048D01*
X43289Y-41010D01*
X43231Y-40971D01*
X43146Y-40971D01*
X43089Y-41010D01*
X43060Y-41048D01*
X43031Y-41124D01*
X43031Y-41352D01*
X43060Y-41429D01*
X43089Y-41467D01*
X43146Y-41505D01*
X43231Y-41505D01*
X29721Y-43479D02*
X30521Y-43622D01*
X29949Y-43736D01*
X30521Y-43850D01*
X29721Y-43993D01*
X30521Y-44222D02*
X29987Y-44222D01*
X29721Y-44222D02*
X29759Y-44193D01*
X29797Y-44222D01*
X29759Y-44250D01*
X29721Y-44222D01*
X29797Y-44222D01*
X30521Y-44508D02*
X29987Y-44508D01*
X30140Y-44508D02*
X30064Y-44536D01*
X30026Y-44565D01*
X29987Y-44622D01*
X29987Y-44679D01*
X30483Y-45107D02*
X30521Y-45050D01*
X30521Y-44936D01*
X30483Y-44879D01*
X30407Y-44850D01*
X30102Y-44850D01*
X30026Y-44879D01*
X29987Y-44936D01*
X29987Y-45050D01*
X30026Y-45107D01*
X30102Y-45136D01*
X30178Y-45136D01*
X30254Y-44850D01*
X30521Y-45479D02*
X30483Y-45421D01*
X30407Y-45393D01*
X29721Y-45393D01*
X30483Y-45935D02*
X30521Y-45878D01*
X30521Y-45764D01*
X30483Y-45707D01*
X30407Y-45678D01*
X30102Y-45678D01*
X30026Y-45707D01*
X29987Y-45764D01*
X29987Y-45878D01*
X30026Y-45935D01*
X30102Y-45964D01*
X30178Y-45964D01*
X30254Y-45678D01*
X30483Y-46192D02*
X30521Y-46249D01*
X30521Y-46364D01*
X30483Y-46421D01*
X30407Y-46449D01*
X30368Y-46449D01*
X30292Y-46421D01*
X30254Y-46364D01*
X30254Y-46278D01*
X30216Y-46221D01*
X30140Y-46192D01*
X30102Y-46192D01*
X30026Y-46221D01*
X29987Y-46278D01*
X29987Y-46364D01*
X30026Y-46421D01*
X30483Y-46678D02*
X30521Y-46735D01*
X30521Y-46850D01*
X30483Y-46907D01*
X30407Y-46935D01*
X30368Y-46935D01*
X30292Y-46907D01*
X30254Y-46850D01*
X30254Y-46764D01*
X30216Y-46707D01*
X30140Y-46678D01*
X30102Y-46678D01*
X30026Y-46707D01*
X29987Y-46764D01*
X29987Y-46850D01*
X30026Y-46907D01*
X30521Y-47650D02*
X29721Y-47650D01*
X30521Y-47993D01*
X29721Y-47993D01*
X30521Y-48279D02*
X29987Y-48279D01*
X29721Y-48279D02*
X29759Y-48250D01*
X29797Y-48279D01*
X29759Y-48307D01*
X29721Y-48279D01*
X29797Y-48279D01*
X29987Y-48565D02*
X30521Y-48565D01*
X30064Y-48565D02*
X30026Y-48593D01*
X29987Y-48651D01*
X29987Y-48736D01*
X30026Y-48793D01*
X30102Y-48822D01*
X30521Y-48822D01*
X29987Y-49022D02*
X29987Y-49251D01*
X29721Y-49108D02*
X30407Y-49108D01*
X30483Y-49136D01*
X30521Y-49194D01*
X30521Y-49251D01*
X30483Y-49679D02*
X30521Y-49622D01*
X30521Y-49508D01*
X30483Y-49451D01*
X30407Y-49422D01*
X30102Y-49422D01*
X30026Y-49451D01*
X29987Y-49508D01*
X29987Y-49622D01*
X30026Y-49679D01*
X30102Y-49708D01*
X30178Y-49708D01*
X30254Y-49422D01*
X29987Y-49965D02*
X30521Y-49965D01*
X30064Y-49965D02*
X30026Y-49993D01*
X29987Y-50051D01*
X29987Y-50136D01*
X30026Y-50193D01*
X30102Y-50222D01*
X30521Y-50222D01*
X30521Y-50765D02*
X29721Y-50765D01*
X30483Y-50765D02*
X30521Y-50708D01*
X30521Y-50594D01*
X30483Y-50536D01*
X30445Y-50508D01*
X30368Y-50479D01*
X30140Y-50479D01*
X30064Y-50508D01*
X30026Y-50536D01*
X29987Y-50594D01*
X29987Y-50708D01*
X30026Y-50765D01*
X30521Y-51137D02*
X30483Y-51079D01*
X30445Y-51051D01*
X30368Y-51022D01*
X30140Y-51022D01*
X30064Y-51051D01*
X30026Y-51079D01*
X29987Y-51137D01*
X29987Y-51222D01*
X30026Y-51279D01*
X30064Y-51308D01*
X30140Y-51337D01*
X30368Y-51337D01*
X30445Y-51308D01*
X30483Y-51279D01*
X30521Y-51222D01*
X30521Y-51137D01*
X30102Y-52251D02*
X30102Y-52051D01*
X30521Y-52051D02*
X29721Y-52051D01*
X29721Y-52337D01*
X29721Y-52479D02*
X29721Y-52822D01*
X30521Y-52651D02*
X29721Y-52651D01*
X29721Y-52965D02*
X30521Y-53108D01*
X29949Y-53222D01*
X30521Y-53336D01*
X29721Y-53479D01*
X30445Y-53708D02*
X30483Y-53736D01*
X30521Y-53708D01*
X30483Y-53679D01*
X30445Y-53708D01*
X30521Y-53708D01*
X30216Y-53708D02*
X29759Y-53679D01*
X29721Y-53708D01*
X29759Y-53736D01*
X30216Y-53708D01*
X29721Y-53708D01*
G54D12*
X47638Y-59449D02*
X47740Y-59444D01*
X47843Y-59431D01*
X47943Y-59408D01*
X48041Y-59377D01*
X48137Y-59338D01*
X48228Y-59290D01*
X48315Y-59235D01*
X48397Y-59172D01*
X48473Y-59103D01*
X48542Y-59027D01*
X48605Y-58945D01*
X48660Y-58858D01*
X48708Y-58767D01*
X48747Y-58671D01*
X48778Y-58573D01*
X48801Y-58473D01*
X48814Y-58370D01*
X48819Y-58268D01*
X48819Y-40945D02*
X48814Y-40843D01*
X48801Y-40740D01*
X48778Y-40640D01*
X48747Y-40542D01*
X48708Y-40446D01*
X48660Y-40355D01*
X48605Y-40268D01*
X48542Y-40186D01*
X48473Y-40110D01*
X48397Y-40041D01*
X48315Y-39978D01*
X48228Y-39923D01*
X48137Y-39875D01*
X48041Y-39836D01*
X47943Y-39805D01*
X47843Y-39782D01*
X47740Y-39769D01*
X47638Y-39764D01*
X29134Y-58268D02*
X29139Y-58370D01*
X29152Y-58473D01*
X29175Y-58573D01*
X29206Y-58671D01*
X29245Y-58767D01*
X29293Y-58858D01*
X29348Y-58945D01*
X29411Y-59027D01*
X29480Y-59103D01*
X29556Y-59172D01*
X29638Y-59235D01*
X29725Y-59290D01*
X29816Y-59338D01*
X29912Y-59377D01*
X30010Y-59408D01*
X30110Y-59431D01*
X30213Y-59444D01*
X30315Y-59449D01*
X30315Y-39764D02*
X30213Y-39769D01*
X30110Y-39782D01*
X30010Y-39805D01*
X29912Y-39836D01*
X29816Y-39875D01*
X29725Y-39923D01*
X29638Y-39978D01*
X29556Y-40041D01*
X29480Y-40110D01*
X29411Y-40186D01*
X29348Y-40268D01*
X29293Y-40355D01*
X29245Y-40446D01*
X29206Y-40542D01*
X29175Y-40640D01*
X29152Y-40740D01*
X29139Y-40843D01*
X29134Y-40945D01*
X29134Y-58268D02*
X29134Y-40945D01*
X47638Y-59449D02*
X30315Y-59449D01*
X48819Y-40945D02*
X48819Y-58268D01*
X30315Y-39764D02*
X47638Y-39764D01*
G54D13*
G36*
X40451Y-58513D02*
X40426Y-58525D01*
X40390Y-58515D01*
X40294Y-58486D01*
X40142Y-58439D01*
X39939Y-58375D01*
X39689Y-58297D01*
X39396Y-58204D01*
X39063Y-58100D01*
X38696Y-57983D01*
X38297Y-57857D01*
X37872Y-57722D01*
X37424Y-57579D01*
X36957Y-57431D01*
X36801Y-57381D01*
X36329Y-57231D01*
X35874Y-57086D01*
X35440Y-56948D01*
X35033Y-56818D01*
X34654Y-56697D01*
X34310Y-56587D01*
X34004Y-56489D01*
X33739Y-56405D01*
X33520Y-56335D01*
X33351Y-56281D01*
X33237Y-56244D01*
X33180Y-56226D01*
X33175Y-56225D01*
X33187Y-56200D01*
X33241Y-56138D01*
X33330Y-56046D01*
X33446Y-55931D01*
X33582Y-55801D01*
X33729Y-55663D01*
X33881Y-55524D01*
X34030Y-55391D01*
X34168Y-55272D01*
X34174Y-55267D01*
X34265Y-55190D01*
X34739Y-55341D01*
X34931Y-55400D01*
X35069Y-55439D01*
X35164Y-55460D01*
X35225Y-55464D01*
X35261Y-55454D01*
X35266Y-55451D01*
X35310Y-55413D01*
X35391Y-55341D01*
X35501Y-55242D01*
X35631Y-55124D01*
X35772Y-54995D01*
X35917Y-54862D01*
X36057Y-54733D01*
X36184Y-54615D01*
X36289Y-54518D01*
X36363Y-54447D01*
X36399Y-54411D01*
X36401Y-54409D01*
X36394Y-54374D01*
X36376Y-54285D01*
X36348Y-54156D01*
X36314Y-53997D01*
X36299Y-53927D01*
X36263Y-53758D01*
X36234Y-53611D01*
X36214Y-53500D01*
X36206Y-53437D01*
X36207Y-53428D01*
X36217Y-53413D01*
X36243Y-53385D01*
X36289Y-53339D01*
X36360Y-53271D01*
X36461Y-53177D01*
X36596Y-53053D01*
X36770Y-52895D01*
X36987Y-52698D01*
X37077Y-52616D01*
X37364Y-52355D01*
X38274Y-52644D01*
X38509Y-52719D01*
X38724Y-52789D01*
X38910Y-52851D01*
X39058Y-52902D01*
X39162Y-52939D01*
X39211Y-52959D01*
X39214Y-52961D01*
X39228Y-52999D01*
X39254Y-53091D01*
X39288Y-53226D01*
X39329Y-53392D01*
X39373Y-53578D01*
X39419Y-53773D01*
X39462Y-53965D01*
X39502Y-54143D01*
X39534Y-54297D01*
X39557Y-54414D01*
X39568Y-54483D01*
X39569Y-54491D01*
X39546Y-54531D01*
X39482Y-54607D01*
X39386Y-54710D01*
X39267Y-54830D01*
X39200Y-54894D01*
X38830Y-55244D01*
X39007Y-56042D01*
X39184Y-56841D01*
X39657Y-56992D01*
X39825Y-57047D01*
X39969Y-57096D01*
X40078Y-57135D01*
X40141Y-57160D01*
X40151Y-57165D01*
X40164Y-57203D01*
X40189Y-57296D01*
X40222Y-57432D01*
X40262Y-57601D01*
X40302Y-57782D01*
X40345Y-57977D01*
X40384Y-58154D01*
X40417Y-58301D01*
X40440Y-58405D01*
X40451Y-58452D01*
X40451Y-58513D01*
X40451Y-58513D01*
X40451Y-58513D01*
G37*
G36*
X47127Y-53143D02*
X47104Y-53166D01*
X47036Y-53232D01*
X46924Y-53336D01*
X46772Y-53476D01*
X46584Y-53650D01*
X46362Y-53854D01*
X46110Y-54086D01*
X45831Y-54342D01*
X45528Y-54620D01*
X45204Y-54917D01*
X44862Y-55229D01*
X44505Y-55555D01*
X44477Y-55581D01*
X44116Y-55910D01*
X43766Y-56230D01*
X43432Y-56535D01*
X43116Y-56824D01*
X42821Y-57093D01*
X42552Y-57339D01*
X42312Y-57559D01*
X42103Y-57749D01*
X41930Y-57907D01*
X41797Y-58030D01*
X41705Y-58114D01*
X41660Y-58155D01*
X41564Y-58237D01*
X41507Y-58268D01*
X41487Y-58256D01*
X41475Y-58211D01*
X41452Y-58111D01*
X41419Y-57967D01*
X41380Y-57791D01*
X41336Y-57594D01*
X41332Y-57575D01*
X41193Y-56940D01*
X41404Y-56742D01*
X41530Y-56623D01*
X41664Y-56496D01*
X41779Y-56386D01*
X41788Y-56377D01*
X41960Y-56211D01*
X41787Y-55436D01*
X41737Y-55217D01*
X41690Y-55019D01*
X41649Y-54853D01*
X41615Y-54727D01*
X41591Y-54650D01*
X41583Y-54632D01*
X41541Y-54612D01*
X41447Y-54577D01*
X41315Y-54531D01*
X41157Y-54480D01*
X41101Y-54462D01*
X40937Y-54410D01*
X40797Y-54363D01*
X40692Y-54326D01*
X40634Y-54303D01*
X40627Y-54299D01*
X40614Y-54261D01*
X40589Y-54168D01*
X40554Y-54028D01*
X40512Y-53850D01*
X40465Y-53645D01*
X40433Y-53497D01*
X40262Y-52718D01*
X40340Y-52644D01*
X40391Y-52596D01*
X40482Y-52513D01*
X40604Y-52402D01*
X40748Y-52270D01*
X40906Y-52127D01*
X41069Y-51979D01*
X41228Y-51835D01*
X41374Y-51703D01*
X41500Y-51590D01*
X41595Y-51505D01*
X41651Y-51455D01*
X41658Y-51449D01*
X41681Y-51432D01*
X41707Y-51421D01*
X41745Y-51418D01*
X41802Y-51425D01*
X41885Y-51445D01*
X42002Y-51478D01*
X42160Y-51527D01*
X42368Y-51592D01*
X42590Y-51663D01*
X42817Y-51736D01*
X43022Y-51802D01*
X43197Y-51858D01*
X43333Y-51902D01*
X43423Y-51931D01*
X43457Y-51942D01*
X43458Y-51943D01*
X43467Y-51975D01*
X43488Y-52060D01*
X43517Y-52189D01*
X43554Y-52349D01*
X43575Y-52443D01*
X43685Y-52940D01*
X44451Y-53183D01*
X44666Y-53251D01*
X44859Y-53312D01*
X45022Y-53362D01*
X45145Y-53400D01*
X45220Y-53422D01*
X45240Y-53427D01*
X45271Y-53406D01*
X45342Y-53347D01*
X45443Y-53259D01*
X45566Y-53150D01*
X45626Y-53095D01*
X45990Y-52764D01*
X46554Y-52949D01*
X46736Y-53009D01*
X46894Y-53062D01*
X47019Y-53104D01*
X47100Y-53133D01*
X47127Y-53143D01*
X47127Y-53143D01*
X47127Y-53143D01*
G37*
G36*
X36634Y-51546D02*
X36611Y-51577D01*
X36547Y-51644D01*
X36449Y-51740D01*
X36328Y-51858D01*
X36190Y-51990D01*
X36044Y-52127D01*
X35899Y-52263D01*
X35762Y-52388D01*
X35642Y-52496D01*
X35547Y-52579D01*
X35500Y-52617D01*
X35466Y-52630D01*
X35409Y-52627D01*
X35319Y-52608D01*
X35185Y-52571D01*
X35000Y-52512D01*
X34822Y-52455D01*
X34696Y-52417D01*
X34611Y-52397D01*
X34555Y-52392D01*
X34518Y-52400D01*
X34488Y-52420D01*
X34485Y-52422D01*
X34393Y-52501D01*
X34275Y-52606D01*
X34139Y-52730D01*
X33992Y-52864D01*
X33845Y-53001D01*
X33703Y-53133D01*
X33577Y-53253D01*
X33473Y-53353D01*
X33401Y-53425D01*
X33369Y-53462D01*
X33368Y-53464D01*
X33374Y-53507D01*
X33392Y-53600D01*
X33418Y-53727D01*
X33449Y-53872D01*
X33481Y-54020D01*
X33511Y-54156D01*
X33535Y-54263D01*
X33551Y-54327D01*
X33553Y-54331D01*
X33540Y-54369D01*
X33484Y-54439D01*
X33385Y-54543D01*
X33239Y-54684D01*
X33043Y-54865D01*
X32885Y-55009D01*
X32740Y-55140D01*
X32618Y-55249D01*
X32527Y-55331D01*
X32474Y-55377D01*
X32467Y-55383D01*
X32458Y-55383D01*
X32446Y-55368D01*
X32432Y-55335D01*
X32413Y-55280D01*
X32390Y-55201D01*
X32362Y-55093D01*
X32327Y-54953D01*
X32285Y-54779D01*
X32236Y-54566D01*
X32177Y-54311D01*
X32110Y-54012D01*
X32032Y-53665D01*
X31943Y-53265D01*
X31843Y-52811D01*
X31730Y-52299D01*
X31603Y-51725D01*
X31594Y-51683D01*
X31487Y-51196D01*
X31384Y-50727D01*
X31286Y-50280D01*
X31194Y-49860D01*
X31109Y-49471D01*
X31032Y-49116D01*
X30963Y-48801D01*
X30904Y-48528D01*
X30855Y-48302D01*
X30817Y-48127D01*
X30792Y-48008D01*
X30779Y-47947D01*
X30778Y-47941D01*
X30816Y-47946D01*
X30905Y-47971D01*
X31033Y-48012D01*
X31191Y-48064D01*
X31366Y-48124D01*
X31548Y-48187D01*
X31725Y-48251D01*
X31886Y-48310D01*
X32020Y-48362D01*
X32116Y-48401D01*
X32162Y-48425D01*
X32165Y-48427D01*
X32180Y-48477D01*
X32206Y-48578D01*
X32238Y-48718D01*
X32274Y-48882D01*
X32284Y-48927D01*
X32318Y-49091D01*
X32348Y-49230D01*
X32371Y-49331D01*
X32383Y-49383D01*
X32385Y-49387D01*
X32417Y-49399D01*
X32504Y-49428D01*
X32638Y-49472D01*
X32809Y-49528D01*
X33008Y-49592D01*
X33171Y-49644D01*
X33950Y-49891D01*
X34051Y-49799D01*
X34117Y-49738D01*
X34218Y-49646D01*
X34337Y-49537D01*
X34427Y-49455D01*
X34702Y-49203D01*
X35456Y-49447D01*
X35668Y-49517D01*
X35859Y-49580D01*
X36019Y-49634D01*
X36139Y-49675D01*
X36211Y-49701D01*
X36227Y-49709D01*
X36238Y-49744D01*
X36261Y-49835D01*
X36293Y-49970D01*
X36332Y-50140D01*
X36376Y-50334D01*
X36423Y-50542D01*
X36470Y-50755D01*
X36515Y-50962D01*
X36556Y-51152D01*
X36590Y-51316D01*
X36616Y-51444D01*
X36631Y-51524D01*
X36634Y-51546D01*
X36634Y-51546D01*
X36634Y-51546D01*
G37*
G36*
X47461Y-52105D02*
X47430Y-52125D01*
X47384Y-52113D01*
X47287Y-52084D01*
X47151Y-52040D01*
X46987Y-51986D01*
X46878Y-51950D01*
X46706Y-51890D01*
X46556Y-51837D01*
X46440Y-51794D01*
X46369Y-51766D01*
X46353Y-51758D01*
X46339Y-51720D01*
X46315Y-51629D01*
X46282Y-51496D01*
X46244Y-51333D01*
X46223Y-51243D01*
X46177Y-51048D01*
X46134Y-50891D01*
X46098Y-50780D01*
X46070Y-50724D01*
X46065Y-50720D01*
X46021Y-50703D01*
X45922Y-50668D01*
X45780Y-50621D01*
X45602Y-50563D01*
X45400Y-50498D01*
X45286Y-50462D01*
X45052Y-50388D01*
X44872Y-50333D01*
X44740Y-50294D01*
X44645Y-50271D01*
X44580Y-50260D01*
X44537Y-50261D01*
X44506Y-50271D01*
X44481Y-50287D01*
X44429Y-50331D01*
X44340Y-50409D01*
X44226Y-50512D01*
X44100Y-50628D01*
X44085Y-50641D01*
X43764Y-50938D01*
X42891Y-50656D01*
X42019Y-50374D01*
X41829Y-49525D01*
X41777Y-49291D01*
X41729Y-49074D01*
X41687Y-48883D01*
X41653Y-48728D01*
X41629Y-48620D01*
X41620Y-48573D01*
X41615Y-48537D01*
X41620Y-48502D01*
X41641Y-48461D01*
X41684Y-48407D01*
X41754Y-48334D01*
X41858Y-48236D01*
X42000Y-48104D01*
X42142Y-47975D01*
X42309Y-47823D01*
X42466Y-47680D01*
X42606Y-47552D01*
X42717Y-47450D01*
X42791Y-47382D01*
X42805Y-47369D01*
X42926Y-47255D01*
X43415Y-47410D01*
X43587Y-47463D01*
X43739Y-47507D01*
X43858Y-47538D01*
X43932Y-47554D01*
X43949Y-47554D01*
X43981Y-47531D01*
X44053Y-47472D01*
X44158Y-47382D01*
X44286Y-47271D01*
X44430Y-47145D01*
X44581Y-47012D01*
X44731Y-46879D01*
X44871Y-46754D01*
X44993Y-46643D01*
X45089Y-46555D01*
X45149Y-46497D01*
X45168Y-46477D01*
X45161Y-46444D01*
X45141Y-46358D01*
X45112Y-46228D01*
X45076Y-46068D01*
X45051Y-45958D01*
X44934Y-45444D01*
X45092Y-45298D01*
X45301Y-45106D01*
X45466Y-44955D01*
X45592Y-44840D01*
X45686Y-44759D01*
X45751Y-44705D01*
X45795Y-44676D01*
X45821Y-44667D01*
X45835Y-44674D01*
X45843Y-44692D01*
X45845Y-44702D01*
X45855Y-44744D01*
X45878Y-44846D01*
X45912Y-45003D01*
X45958Y-45209D01*
X46013Y-45461D01*
X46077Y-45752D01*
X46149Y-46077D01*
X46227Y-46432D01*
X46311Y-46811D01*
X46398Y-47210D01*
X46489Y-47622D01*
X46582Y-48044D01*
X46675Y-48469D01*
X46768Y-48894D01*
X46860Y-49312D01*
X46950Y-49718D01*
X47035Y-50108D01*
X47116Y-50477D01*
X47191Y-50818D01*
X47259Y-51128D01*
X47319Y-51401D01*
X47369Y-51632D01*
X47410Y-51816D01*
X47438Y-51948D01*
X47454Y-52022D01*
X47457Y-52036D01*
X47461Y-52105D01*
X47461Y-52105D01*
X47461Y-52105D01*
G37*
G36*
X37994Y-47329D02*
X37806Y-47505D01*
X37732Y-47573D01*
X37658Y-47642D01*
X37576Y-47718D01*
X37478Y-47808D01*
X37357Y-47919D01*
X37206Y-48057D01*
X37018Y-48228D01*
X36868Y-48366D01*
X36518Y-48685D01*
X35784Y-48450D01*
X35576Y-48384D01*
X35389Y-48324D01*
X35235Y-48274D01*
X35121Y-48237D01*
X35056Y-48216D01*
X35044Y-48212D01*
X35035Y-48180D01*
X35015Y-48094D01*
X34984Y-47966D01*
X34948Y-47805D01*
X34924Y-47701D01*
X34885Y-47526D01*
X34849Y-47376D01*
X34821Y-47262D01*
X34803Y-47194D01*
X34797Y-47182D01*
X34762Y-47168D01*
X34675Y-47138D01*
X34544Y-47096D01*
X34383Y-47044D01*
X34201Y-46986D01*
X34009Y-46925D01*
X33818Y-46865D01*
X33638Y-46809D01*
X33481Y-46760D01*
X33357Y-46723D01*
X33277Y-46700D01*
X33253Y-46694D01*
X33220Y-46715D01*
X33148Y-46775D01*
X33046Y-46864D01*
X32922Y-46976D01*
X32855Y-47038D01*
X32484Y-47382D01*
X31805Y-47163D01*
X31605Y-47097D01*
X31428Y-47037D01*
X31283Y-46987D01*
X31179Y-46948D01*
X31127Y-46925D01*
X31122Y-46921D01*
X31145Y-46895D01*
X31214Y-46827D01*
X31324Y-46722D01*
X31473Y-46583D01*
X31655Y-46413D01*
X31869Y-46216D01*
X32109Y-45995D01*
X32372Y-45754D01*
X32654Y-45496D01*
X32952Y-45224D01*
X33262Y-44941D01*
X33580Y-44652D01*
X33901Y-44360D01*
X34224Y-44067D01*
X34543Y-43778D01*
X34855Y-43496D01*
X35156Y-43224D01*
X35443Y-42966D01*
X35712Y-42724D01*
X35958Y-42504D01*
X36179Y-42307D01*
X36370Y-42137D01*
X36527Y-41998D01*
X36648Y-41894D01*
X36728Y-41826D01*
X36763Y-41800D01*
X36764Y-41800D01*
X36775Y-41844D01*
X36799Y-41942D01*
X36832Y-42084D01*
X36872Y-42258D01*
X36916Y-42455D01*
X36921Y-42475D01*
X37064Y-43111D01*
X36957Y-43211D01*
X36887Y-43275D01*
X36784Y-43370D01*
X36663Y-43481D01*
X36576Y-43561D01*
X36303Y-43811D01*
X36477Y-44600D01*
X36526Y-44820D01*
X36571Y-45018D01*
X36610Y-45184D01*
X36641Y-45310D01*
X36661Y-45387D01*
X36668Y-45406D01*
X36704Y-45421D01*
X36792Y-45453D01*
X36921Y-45497D01*
X37078Y-45548D01*
X37150Y-45572D01*
X37358Y-45641D01*
X37505Y-45697D01*
X37597Y-45742D01*
X37639Y-45778D01*
X37641Y-45782D01*
X37655Y-45832D01*
X37682Y-45936D01*
X37717Y-46085D01*
X37759Y-46269D01*
X37806Y-46477D01*
X37830Y-46586D01*
X37994Y-47329D01*
X37994Y-47329D01*
X37994Y-47329D01*
G37*
G36*
X45098Y-43858D02*
X45074Y-43886D01*
X45008Y-43949D01*
X44912Y-44038D01*
X44795Y-44144D01*
X44667Y-44259D01*
X44538Y-44373D01*
X44417Y-44479D01*
X44315Y-44566D01*
X44241Y-44628D01*
X44205Y-44654D01*
X44204Y-44654D01*
X44162Y-44648D01*
X44069Y-44626D01*
X43938Y-44589D01*
X43782Y-44542D01*
X43741Y-44529D01*
X43579Y-44479D01*
X43439Y-44438D01*
X43333Y-44408D01*
X43274Y-44394D01*
X43268Y-44394D01*
X43232Y-44415D01*
X43155Y-44475D01*
X43046Y-44567D01*
X42912Y-44683D01*
X42762Y-44818D01*
X42742Y-44836D01*
X42584Y-44979D01*
X42436Y-45114D01*
X42306Y-45231D01*
X42206Y-45322D01*
X42145Y-45377D01*
X42144Y-45377D01*
X42031Y-45477D01*
X42136Y-45937D01*
X42172Y-46106D01*
X42201Y-46254D01*
X42219Y-46367D01*
X42224Y-46433D01*
X42223Y-46442D01*
X42193Y-46478D01*
X42123Y-46550D01*
X42018Y-46651D01*
X41887Y-46774D01*
X41739Y-46911D01*
X41581Y-47056D01*
X41420Y-47202D01*
X41266Y-47340D01*
X41125Y-47464D01*
X41007Y-47567D01*
X40918Y-47641D01*
X40866Y-47679D01*
X40859Y-47683D01*
X40817Y-47674D01*
X40721Y-47648D01*
X40578Y-47605D01*
X40398Y-47550D01*
X40188Y-47484D01*
X39956Y-47411D01*
X39919Y-47399D01*
X39020Y-47109D01*
X38843Y-46310D01*
X38666Y-45511D01*
X38792Y-45394D01*
X38872Y-45320D01*
X38984Y-45218D01*
X39108Y-45103D01*
X39175Y-45042D01*
X39433Y-44806D01*
X39258Y-44008D01*
X39083Y-43211D01*
X38583Y-43044D01*
X38084Y-42877D01*
X37939Y-42217D01*
X37896Y-42017D01*
X37859Y-41839D01*
X37831Y-41694D01*
X37814Y-41592D01*
X37809Y-41543D01*
X37810Y-41541D01*
X37843Y-41548D01*
X37935Y-41575D01*
X38080Y-41618D01*
X38274Y-41678D01*
X38513Y-41752D01*
X38790Y-41838D01*
X39102Y-41936D01*
X39443Y-42043D01*
X39809Y-42158D01*
X40195Y-42280D01*
X40595Y-42407D01*
X41006Y-42537D01*
X41422Y-42669D01*
X41838Y-42801D01*
X42250Y-42933D01*
X42652Y-43061D01*
X43040Y-43185D01*
X43409Y-43304D01*
X43755Y-43415D01*
X44072Y-43517D01*
X44355Y-43609D01*
X44599Y-43689D01*
X44801Y-43755D01*
X44954Y-43806D01*
X45055Y-43841D01*
X45097Y-43857D01*
X45098Y-43858D01*
X45098Y-43858D01*
X45098Y-43858D01*
G37*
%LPC*%
G54D14*
X47441Y-49484D03*
G54D15*
X47441Y-50484D03*
X47441Y-51484D03*
X47441Y-52484D03*
G54D14*
X47441Y-45457D03*
G54D15*
X47441Y-46457D03*
X47441Y-47457D03*
G54D14*
X38280Y-43504D03*
G54D15*
X39280Y-43504D03*
G54D14*
X38241Y-41142D03*
G54D15*
X39241Y-41142D03*
G54D16*
X46547Y-55496D03*
G54D17*
X47547Y-55496D03*
X46547Y-56496D03*
X47547Y-56496D03*
X46547Y-57496D03*
X47547Y-57496D03*
G54D16*
X42921Y-58299D03*
G54D17*
X41921Y-58299D03*
X42921Y-57299D03*
X41921Y-57299D03*
X42921Y-56299D03*
X41921Y-56299D03*
X42921Y-55299D03*
X41921Y-55299D03*
X42921Y-54299D03*
X41921Y-54299D03*
G54D18*
X30315Y-40945D03*
X47638Y-40945D03*
X38976Y-57874D03*
M02*
