G04 (created by PCBNEW-RS274X (2012-01-19 BZR 3256)-stable) date 21-08-2012 11:16:43*
G01*
G70*
G90*
%MOIN*%
G04 Gerber Fmt 3.4, Leading zero omitted, Abs format*
%FSLAX34Y34*%
G04 APERTURE LIST*
%ADD10C,0.006000*%
%ADD11C,0.012000*%
%ADD12C,0.015000*%
%ADD13C,0.005000*%
%ADD14C,0.008000*%
%ADD15C,0.003000*%
%ADD16C,0.003500*%
%ADD17C,0.010000*%
%ADD18C,0.010700*%
%ADD19C,0.011300*%
%ADD20C,0.010600*%
%ADD21C,0.006200*%
%ADD22R,0.098700X0.037700*%
%ADD23R,0.037700X0.098700*%
%ADD24R,0.047600X0.059400*%
%ADD25R,0.164000X0.100000*%
%ADD26R,0.060000X0.100000*%
%ADD27R,0.055000X0.075000*%
%ADD28R,0.075000X0.055000*%
%ADD29R,0.118400X0.039600*%
%ADD30R,0.118400X0.098700*%
%ADD31C,0.075400*%
%ADD32R,0.075000X0.075000*%
%ADD33C,0.075000*%
%ADD34R,0.080000X0.080000*%
%ADD35C,0.080000*%
%ADD36R,0.035700X0.043600*%
%ADD37C,0.180000*%
%ADD38R,0.106600X0.075100*%
G04 APERTURE END LIST*
G54D10*
G54D11*
X47559Y-58988D02*
X47587Y-59026D01*
X47559Y-59064D01*
X47530Y-59026D01*
X47559Y-58988D01*
X47559Y-59064D01*
X49764Y-54776D02*
X49792Y-54814D01*
X49764Y-54852D01*
X49735Y-54814D01*
X49764Y-54776D01*
X49764Y-54852D01*
G54D12*
X51378Y-59449D02*
X51480Y-59444D01*
X51583Y-59431D01*
X51683Y-59408D01*
X51781Y-59377D01*
X51877Y-59338D01*
X51968Y-59290D01*
X52055Y-59235D01*
X52137Y-59172D01*
X52213Y-59103D01*
X52282Y-59027D01*
X52345Y-58945D01*
X52400Y-58858D01*
X52448Y-58767D01*
X52487Y-58671D01*
X52518Y-58573D01*
X52541Y-58473D01*
X52554Y-58370D01*
X52559Y-58268D01*
X52559Y-40945D02*
X52554Y-40843D01*
X52541Y-40740D01*
X52518Y-40640D01*
X52487Y-40542D01*
X52448Y-40446D01*
X52400Y-40355D01*
X52345Y-40268D01*
X52282Y-40186D01*
X52213Y-40110D01*
X52137Y-40041D01*
X52055Y-39978D01*
X51968Y-39923D01*
X51877Y-39875D01*
X51781Y-39836D01*
X51683Y-39805D01*
X51583Y-39782D01*
X51480Y-39769D01*
X51378Y-39764D01*
X32874Y-58268D02*
X32879Y-58370D01*
X32892Y-58473D01*
X32915Y-58573D01*
X32946Y-58671D01*
X32985Y-58767D01*
X33033Y-58858D01*
X33088Y-58945D01*
X33151Y-59027D01*
X33220Y-59103D01*
X33296Y-59172D01*
X33378Y-59235D01*
X33465Y-59290D01*
X33556Y-59338D01*
X33652Y-59377D01*
X33750Y-59408D01*
X33850Y-59431D01*
X33953Y-59444D01*
X34055Y-59449D01*
X34055Y-39764D02*
X33953Y-39769D01*
X33850Y-39782D01*
X33750Y-39805D01*
X33652Y-39836D01*
X33556Y-39875D01*
X33465Y-39923D01*
X33378Y-39978D01*
X33296Y-40041D01*
X33220Y-40110D01*
X33151Y-40186D01*
X33088Y-40268D01*
X33033Y-40355D01*
X32985Y-40446D01*
X32946Y-40542D01*
X32915Y-40640D01*
X32892Y-40740D01*
X32879Y-40843D01*
X32874Y-40945D01*
X32874Y-58268D02*
X32874Y-40945D01*
X51378Y-59449D02*
X34055Y-59449D01*
X52559Y-40945D02*
X52559Y-58268D01*
X34055Y-39764D02*
X51378Y-39764D01*
G54D10*
X36997Y-48319D02*
X37447Y-48319D01*
X36997Y-50499D02*
X37437Y-50499D01*
X36997Y-48319D02*
X36997Y-50499D01*
X37877Y-47849D02*
X37877Y-47419D01*
X40087Y-47839D02*
X40087Y-47419D01*
X40097Y-47419D02*
X37877Y-47409D01*
X40077Y-51389D02*
X37907Y-51399D01*
X40507Y-50699D02*
X40507Y-47869D01*
X37897Y-51389D02*
X37897Y-50979D01*
X40257Y-50939D02*
X37477Y-50939D01*
X37457Y-47859D02*
X37457Y-50899D01*
X40507Y-47859D02*
X37507Y-47859D01*
X40957Y-50529D02*
X40957Y-48309D01*
X40957Y-48309D02*
X40507Y-48309D01*
X40503Y-50709D02*
X40273Y-50939D01*
X40955Y-50529D02*
X40503Y-50529D01*
X40077Y-50939D02*
X40077Y-51391D01*
X40283Y-50535D02*
X40279Y-50571D01*
X40268Y-50606D01*
X40251Y-50639D01*
X40228Y-50667D01*
X40200Y-50690D01*
X40167Y-50708D01*
X40132Y-50719D01*
X40096Y-50722D01*
X40060Y-50719D01*
X40025Y-50709D01*
X39993Y-50692D01*
X39964Y-50669D01*
X39940Y-50641D01*
X39923Y-50609D01*
X39912Y-50574D01*
X39908Y-50537D01*
X39911Y-50502D01*
X39921Y-50466D01*
X39937Y-50434D01*
X39960Y-50405D01*
X39988Y-50381D01*
X40020Y-50363D01*
X40055Y-50352D01*
X40092Y-50348D01*
X40127Y-50350D01*
X40162Y-50360D01*
X40195Y-50377D01*
X40224Y-50399D01*
X40248Y-50427D01*
X40266Y-50459D01*
X40278Y-50494D01*
X40282Y-50530D01*
X40283Y-50535D01*
G54D13*
X37129Y-52298D02*
X37429Y-52498D01*
X36429Y-52298D02*
X37454Y-52298D01*
X37454Y-52298D02*
X37454Y-52898D01*
X37454Y-52898D02*
X36429Y-52898D01*
X36429Y-52898D02*
X36429Y-52298D01*
X35239Y-52298D02*
X35539Y-52498D01*
X34539Y-52298D02*
X35564Y-52298D01*
X35564Y-52298D02*
X35564Y-52898D01*
X35564Y-52898D02*
X34539Y-52898D01*
X34539Y-52898D02*
X34539Y-52298D01*
G54D14*
X37381Y-42805D02*
X37381Y-44005D01*
X37381Y-44005D02*
X40181Y-44005D01*
X40181Y-44005D02*
X40181Y-42805D01*
X37381Y-41605D02*
X37381Y-41305D01*
X37381Y-41305D02*
X37981Y-40405D01*
X37981Y-40405D02*
X39581Y-40405D01*
X39581Y-40405D02*
X40181Y-41305D01*
X40181Y-41305D02*
X40181Y-41605D01*
G54D13*
X36173Y-45133D02*
X36172Y-45142D01*
X36169Y-45152D01*
X36164Y-45160D01*
X36158Y-45168D01*
X36150Y-45174D01*
X36142Y-45179D01*
X36133Y-45181D01*
X36123Y-45182D01*
X36114Y-45182D01*
X36105Y-45179D01*
X36096Y-45174D01*
X36089Y-45168D01*
X36082Y-45161D01*
X36078Y-45152D01*
X36075Y-45143D01*
X36074Y-45133D01*
X36074Y-45124D01*
X36077Y-45115D01*
X36081Y-45106D01*
X36088Y-45099D01*
X36095Y-45092D01*
X36103Y-45088D01*
X36113Y-45085D01*
X36122Y-45084D01*
X36131Y-45084D01*
X36141Y-45087D01*
X36149Y-45091D01*
X36157Y-45097D01*
X36163Y-45105D01*
X36168Y-45113D01*
X36171Y-45122D01*
X36172Y-45132D01*
X36173Y-45133D01*
X35673Y-45133D02*
X36073Y-45133D01*
X36073Y-45133D02*
X36073Y-45733D01*
X36073Y-45733D02*
X35673Y-45733D01*
X35273Y-45733D02*
X34873Y-45733D01*
X34873Y-45733D02*
X34873Y-45133D01*
X34873Y-45133D02*
X35273Y-45133D01*
X36172Y-46039D02*
X36171Y-46048D01*
X36168Y-46058D01*
X36163Y-46066D01*
X36157Y-46074D01*
X36149Y-46080D01*
X36141Y-46085D01*
X36132Y-46087D01*
X36122Y-46088D01*
X36113Y-46088D01*
X36104Y-46085D01*
X36095Y-46080D01*
X36088Y-46074D01*
X36081Y-46067D01*
X36077Y-46058D01*
X36074Y-46049D01*
X36073Y-46039D01*
X36073Y-46030D01*
X36076Y-46021D01*
X36080Y-46012D01*
X36087Y-46005D01*
X36094Y-45998D01*
X36102Y-45994D01*
X36112Y-45991D01*
X36121Y-45990D01*
X36130Y-45990D01*
X36140Y-45993D01*
X36148Y-45997D01*
X36156Y-46003D01*
X36162Y-46011D01*
X36167Y-46019D01*
X36170Y-46028D01*
X36171Y-46038D01*
X36172Y-46039D01*
X35672Y-46039D02*
X36072Y-46039D01*
X36072Y-46039D02*
X36072Y-46639D01*
X36072Y-46639D02*
X35672Y-46639D01*
X35272Y-46639D02*
X34872Y-46639D01*
X34872Y-46639D02*
X34872Y-46039D01*
X34872Y-46039D02*
X35272Y-46039D01*
X39917Y-53406D02*
X39916Y-53415D01*
X39913Y-53425D01*
X39908Y-53433D01*
X39902Y-53441D01*
X39894Y-53447D01*
X39886Y-53452D01*
X39877Y-53454D01*
X39867Y-53455D01*
X39858Y-53455D01*
X39849Y-53452D01*
X39840Y-53447D01*
X39833Y-53441D01*
X39826Y-53434D01*
X39822Y-53425D01*
X39819Y-53416D01*
X39818Y-53406D01*
X39818Y-53397D01*
X39821Y-53388D01*
X39825Y-53379D01*
X39832Y-53372D01*
X39839Y-53365D01*
X39847Y-53361D01*
X39857Y-53358D01*
X39866Y-53357D01*
X39875Y-53357D01*
X39885Y-53360D01*
X39893Y-53364D01*
X39901Y-53370D01*
X39907Y-53378D01*
X39912Y-53386D01*
X39915Y-53395D01*
X39916Y-53405D01*
X39917Y-53406D01*
X39867Y-52956D02*
X39867Y-53356D01*
X39867Y-53356D02*
X39267Y-53356D01*
X39267Y-53356D02*
X39267Y-52956D01*
X39267Y-52556D02*
X39267Y-52156D01*
X39267Y-52156D02*
X39867Y-52156D01*
X39867Y-52156D02*
X39867Y-52556D01*
X40901Y-53406D02*
X40900Y-53415D01*
X40897Y-53425D01*
X40892Y-53433D01*
X40886Y-53441D01*
X40878Y-53447D01*
X40870Y-53452D01*
X40861Y-53454D01*
X40851Y-53455D01*
X40842Y-53455D01*
X40833Y-53452D01*
X40824Y-53447D01*
X40817Y-53441D01*
X40810Y-53434D01*
X40806Y-53425D01*
X40803Y-53416D01*
X40802Y-53406D01*
X40802Y-53397D01*
X40805Y-53388D01*
X40809Y-53379D01*
X40816Y-53372D01*
X40823Y-53365D01*
X40831Y-53361D01*
X40841Y-53358D01*
X40850Y-53357D01*
X40859Y-53357D01*
X40869Y-53360D01*
X40877Y-53364D01*
X40885Y-53370D01*
X40891Y-53378D01*
X40896Y-53386D01*
X40899Y-53395D01*
X40900Y-53405D01*
X40901Y-53406D01*
X40851Y-52956D02*
X40851Y-53356D01*
X40851Y-53356D02*
X40251Y-53356D01*
X40251Y-53356D02*
X40251Y-52956D01*
X40251Y-52556D02*
X40251Y-52156D01*
X40251Y-52156D02*
X40851Y-52156D01*
X40851Y-52156D02*
X40851Y-52556D01*
X42270Y-49842D02*
X42269Y-49851D01*
X42266Y-49861D01*
X42261Y-49869D01*
X42255Y-49877D01*
X42247Y-49883D01*
X42239Y-49888D01*
X42230Y-49890D01*
X42220Y-49891D01*
X42211Y-49891D01*
X42202Y-49888D01*
X42193Y-49883D01*
X42186Y-49877D01*
X42179Y-49870D01*
X42175Y-49861D01*
X42172Y-49852D01*
X42171Y-49842D01*
X42171Y-49833D01*
X42174Y-49824D01*
X42178Y-49815D01*
X42185Y-49808D01*
X42192Y-49801D01*
X42200Y-49797D01*
X42210Y-49794D01*
X42219Y-49793D01*
X42228Y-49793D01*
X42238Y-49796D01*
X42246Y-49800D01*
X42254Y-49806D01*
X42260Y-49814D01*
X42265Y-49822D01*
X42268Y-49831D01*
X42269Y-49841D01*
X42270Y-49842D01*
X42220Y-50292D02*
X42220Y-49892D01*
X42220Y-49892D02*
X42820Y-49892D01*
X42820Y-49892D02*
X42820Y-50292D01*
X42820Y-50692D02*
X42820Y-51092D01*
X42820Y-51092D02*
X42220Y-51092D01*
X42220Y-51092D02*
X42220Y-50692D01*
X50941Y-47107D02*
X50940Y-47116D01*
X50937Y-47126D01*
X50932Y-47134D01*
X50926Y-47142D01*
X50918Y-47148D01*
X50910Y-47153D01*
X50901Y-47155D01*
X50891Y-47156D01*
X50882Y-47156D01*
X50873Y-47153D01*
X50864Y-47148D01*
X50857Y-47142D01*
X50850Y-47135D01*
X50846Y-47126D01*
X50843Y-47117D01*
X50842Y-47107D01*
X50842Y-47098D01*
X50845Y-47089D01*
X50849Y-47080D01*
X50856Y-47073D01*
X50863Y-47066D01*
X50871Y-47062D01*
X50881Y-47059D01*
X50890Y-47058D01*
X50899Y-47058D01*
X50909Y-47061D01*
X50917Y-47065D01*
X50925Y-47071D01*
X50931Y-47079D01*
X50936Y-47087D01*
X50939Y-47096D01*
X50940Y-47106D01*
X50941Y-47107D01*
X50891Y-46657D02*
X50891Y-47057D01*
X50891Y-47057D02*
X50291Y-47057D01*
X50291Y-47057D02*
X50291Y-46657D01*
X50291Y-46257D02*
X50291Y-45857D01*
X50291Y-45857D02*
X50891Y-45857D01*
X50891Y-45857D02*
X50891Y-46257D01*
X45390Y-46083D02*
X45389Y-46092D01*
X45386Y-46102D01*
X45381Y-46110D01*
X45375Y-46118D01*
X45367Y-46124D01*
X45359Y-46129D01*
X45350Y-46131D01*
X45340Y-46132D01*
X45331Y-46132D01*
X45322Y-46129D01*
X45313Y-46124D01*
X45306Y-46118D01*
X45299Y-46111D01*
X45295Y-46102D01*
X45292Y-46093D01*
X45291Y-46083D01*
X45291Y-46074D01*
X45294Y-46065D01*
X45298Y-46056D01*
X45305Y-46049D01*
X45312Y-46042D01*
X45320Y-46038D01*
X45330Y-46035D01*
X45339Y-46034D01*
X45348Y-46034D01*
X45358Y-46037D01*
X45366Y-46041D01*
X45374Y-46047D01*
X45380Y-46055D01*
X45385Y-46063D01*
X45388Y-46072D01*
X45389Y-46082D01*
X45390Y-46083D01*
X45340Y-45633D02*
X45340Y-46033D01*
X45340Y-46033D02*
X44740Y-46033D01*
X44740Y-46033D02*
X44740Y-45633D01*
X44740Y-45233D02*
X44740Y-44833D01*
X44740Y-44833D02*
X45340Y-44833D01*
X45340Y-44833D02*
X45340Y-45233D01*
X40104Y-45019D02*
X40103Y-45028D01*
X40100Y-45038D01*
X40095Y-45046D01*
X40089Y-45054D01*
X40081Y-45060D01*
X40073Y-45065D01*
X40064Y-45067D01*
X40054Y-45068D01*
X40045Y-45068D01*
X40036Y-45065D01*
X40027Y-45060D01*
X40020Y-45054D01*
X40013Y-45047D01*
X40009Y-45038D01*
X40006Y-45029D01*
X40005Y-45019D01*
X40005Y-45010D01*
X40008Y-45001D01*
X40012Y-44992D01*
X40019Y-44985D01*
X40026Y-44978D01*
X40034Y-44974D01*
X40044Y-44971D01*
X40053Y-44970D01*
X40062Y-44970D01*
X40072Y-44973D01*
X40080Y-44977D01*
X40088Y-44983D01*
X40094Y-44991D01*
X40099Y-44999D01*
X40102Y-45008D01*
X40103Y-45018D01*
X40104Y-45019D01*
X40054Y-45469D02*
X40054Y-45069D01*
X40054Y-45069D02*
X40654Y-45069D01*
X40654Y-45069D02*
X40654Y-45469D01*
X40654Y-45869D02*
X40654Y-46269D01*
X40654Y-46269D02*
X40054Y-46269D01*
X40054Y-46269D02*
X40054Y-45869D01*
X36405Y-42736D02*
X36404Y-42745D01*
X36401Y-42755D01*
X36396Y-42763D01*
X36390Y-42771D01*
X36382Y-42777D01*
X36374Y-42782D01*
X36365Y-42784D01*
X36355Y-42785D01*
X36346Y-42785D01*
X36337Y-42782D01*
X36328Y-42777D01*
X36321Y-42771D01*
X36314Y-42764D01*
X36310Y-42755D01*
X36307Y-42746D01*
X36306Y-42736D01*
X36306Y-42727D01*
X36309Y-42718D01*
X36313Y-42709D01*
X36320Y-42702D01*
X36327Y-42695D01*
X36335Y-42691D01*
X36345Y-42688D01*
X36354Y-42687D01*
X36363Y-42687D01*
X36373Y-42690D01*
X36381Y-42694D01*
X36389Y-42700D01*
X36395Y-42708D01*
X36400Y-42716D01*
X36403Y-42725D01*
X36404Y-42735D01*
X36405Y-42736D01*
X36355Y-43186D02*
X36355Y-42786D01*
X36355Y-42786D02*
X36955Y-42786D01*
X36955Y-42786D02*
X36955Y-43186D01*
X36955Y-43586D02*
X36955Y-43986D01*
X36955Y-43986D02*
X36355Y-43986D01*
X36355Y-43986D02*
X36355Y-43586D01*
X36405Y-41240D02*
X36404Y-41249D01*
X36401Y-41259D01*
X36396Y-41267D01*
X36390Y-41275D01*
X36382Y-41281D01*
X36374Y-41286D01*
X36365Y-41288D01*
X36355Y-41289D01*
X36346Y-41289D01*
X36337Y-41286D01*
X36328Y-41281D01*
X36321Y-41275D01*
X36314Y-41268D01*
X36310Y-41259D01*
X36307Y-41250D01*
X36306Y-41240D01*
X36306Y-41231D01*
X36309Y-41222D01*
X36313Y-41213D01*
X36320Y-41206D01*
X36327Y-41199D01*
X36335Y-41195D01*
X36345Y-41192D01*
X36354Y-41191D01*
X36363Y-41191D01*
X36373Y-41194D01*
X36381Y-41198D01*
X36389Y-41204D01*
X36395Y-41212D01*
X36400Y-41220D01*
X36403Y-41229D01*
X36404Y-41239D01*
X36405Y-41240D01*
X36355Y-41690D02*
X36355Y-41290D01*
X36355Y-41290D02*
X36955Y-41290D01*
X36955Y-41290D02*
X36955Y-41690D01*
X36955Y-42090D02*
X36955Y-42490D01*
X36955Y-42490D02*
X36355Y-42490D01*
X36355Y-42490D02*
X36355Y-42090D01*
X36732Y-44862D02*
X36731Y-44871D01*
X36728Y-44881D01*
X36723Y-44889D01*
X36717Y-44897D01*
X36709Y-44903D01*
X36701Y-44908D01*
X36692Y-44910D01*
X36682Y-44911D01*
X36673Y-44911D01*
X36664Y-44908D01*
X36655Y-44903D01*
X36648Y-44897D01*
X36641Y-44890D01*
X36637Y-44881D01*
X36634Y-44872D01*
X36633Y-44862D01*
X36633Y-44853D01*
X36636Y-44844D01*
X36640Y-44835D01*
X36647Y-44828D01*
X36654Y-44821D01*
X36662Y-44817D01*
X36672Y-44814D01*
X36681Y-44813D01*
X36690Y-44813D01*
X36700Y-44816D01*
X36708Y-44820D01*
X36716Y-44826D01*
X36722Y-44834D01*
X36727Y-44842D01*
X36730Y-44851D01*
X36731Y-44861D01*
X36732Y-44862D01*
X36682Y-45312D02*
X36682Y-44912D01*
X36682Y-44912D02*
X37282Y-44912D01*
X37282Y-44912D02*
X37282Y-45312D01*
X37282Y-45712D02*
X37282Y-46112D01*
X37282Y-46112D02*
X36682Y-46112D01*
X36682Y-46112D02*
X36682Y-45712D01*
X43549Y-49842D02*
X43548Y-49851D01*
X43545Y-49861D01*
X43540Y-49869D01*
X43534Y-49877D01*
X43526Y-49883D01*
X43518Y-49888D01*
X43509Y-49890D01*
X43499Y-49891D01*
X43490Y-49891D01*
X43481Y-49888D01*
X43472Y-49883D01*
X43465Y-49877D01*
X43458Y-49870D01*
X43454Y-49861D01*
X43451Y-49852D01*
X43450Y-49842D01*
X43450Y-49833D01*
X43453Y-49824D01*
X43457Y-49815D01*
X43464Y-49808D01*
X43471Y-49801D01*
X43479Y-49797D01*
X43489Y-49794D01*
X43498Y-49793D01*
X43507Y-49793D01*
X43517Y-49796D01*
X43525Y-49800D01*
X43533Y-49806D01*
X43539Y-49814D01*
X43544Y-49822D01*
X43547Y-49831D01*
X43548Y-49841D01*
X43549Y-49842D01*
X43499Y-50292D02*
X43499Y-49892D01*
X43499Y-49892D02*
X44099Y-49892D01*
X44099Y-49892D02*
X44099Y-50292D01*
X44099Y-50692D02*
X44099Y-51092D01*
X44099Y-51092D02*
X43499Y-51092D01*
X43499Y-51092D02*
X43499Y-50692D01*
X43185Y-49154D02*
X43184Y-49163D01*
X43181Y-49173D01*
X43176Y-49181D01*
X43170Y-49189D01*
X43162Y-49195D01*
X43154Y-49200D01*
X43145Y-49202D01*
X43135Y-49203D01*
X43126Y-49203D01*
X43117Y-49200D01*
X43108Y-49195D01*
X43101Y-49189D01*
X43094Y-49182D01*
X43090Y-49173D01*
X43087Y-49164D01*
X43086Y-49154D01*
X43086Y-49145D01*
X43089Y-49136D01*
X43093Y-49127D01*
X43100Y-49120D01*
X43107Y-49113D01*
X43115Y-49109D01*
X43125Y-49106D01*
X43134Y-49105D01*
X43143Y-49105D01*
X43153Y-49108D01*
X43161Y-49112D01*
X43169Y-49118D01*
X43175Y-49126D01*
X43180Y-49134D01*
X43183Y-49143D01*
X43184Y-49153D01*
X43185Y-49154D01*
X43135Y-48704D02*
X43135Y-49104D01*
X43135Y-49104D02*
X42535Y-49104D01*
X42535Y-49104D02*
X42535Y-48704D01*
X42535Y-48304D02*
X42535Y-47904D01*
X42535Y-47904D02*
X43135Y-47904D01*
X43135Y-47904D02*
X43135Y-48304D01*
X44514Y-48248D02*
X44513Y-48257D01*
X44510Y-48267D01*
X44505Y-48275D01*
X44499Y-48283D01*
X44491Y-48289D01*
X44483Y-48294D01*
X44474Y-48296D01*
X44464Y-48297D01*
X44455Y-48297D01*
X44446Y-48294D01*
X44437Y-48289D01*
X44430Y-48283D01*
X44423Y-48276D01*
X44419Y-48267D01*
X44416Y-48258D01*
X44415Y-48248D01*
X44415Y-48239D01*
X44418Y-48230D01*
X44422Y-48221D01*
X44429Y-48214D01*
X44436Y-48207D01*
X44444Y-48203D01*
X44454Y-48200D01*
X44463Y-48199D01*
X44472Y-48199D01*
X44482Y-48202D01*
X44490Y-48206D01*
X44498Y-48212D01*
X44504Y-48220D01*
X44509Y-48228D01*
X44512Y-48237D01*
X44513Y-48247D01*
X44514Y-48248D01*
X44464Y-48698D02*
X44464Y-48298D01*
X44464Y-48298D02*
X45064Y-48298D01*
X45064Y-48298D02*
X45064Y-48698D01*
X45064Y-49098D02*
X45064Y-49498D01*
X45064Y-49498D02*
X44464Y-49498D01*
X44464Y-49498D02*
X44464Y-49098D01*
X36173Y-44228D02*
X36172Y-44237D01*
X36169Y-44247D01*
X36164Y-44255D01*
X36158Y-44263D01*
X36150Y-44269D01*
X36142Y-44274D01*
X36133Y-44276D01*
X36123Y-44277D01*
X36114Y-44277D01*
X36105Y-44274D01*
X36096Y-44269D01*
X36089Y-44263D01*
X36082Y-44256D01*
X36078Y-44247D01*
X36075Y-44238D01*
X36074Y-44228D01*
X36074Y-44219D01*
X36077Y-44210D01*
X36081Y-44201D01*
X36088Y-44194D01*
X36095Y-44187D01*
X36103Y-44183D01*
X36113Y-44180D01*
X36122Y-44179D01*
X36131Y-44179D01*
X36141Y-44182D01*
X36149Y-44186D01*
X36157Y-44192D01*
X36163Y-44200D01*
X36168Y-44208D01*
X36171Y-44217D01*
X36172Y-44227D01*
X36173Y-44228D01*
X35673Y-44228D02*
X36073Y-44228D01*
X36073Y-44228D02*
X36073Y-44828D01*
X36073Y-44828D02*
X35673Y-44828D01*
X35273Y-44828D02*
X34873Y-44828D01*
X34873Y-44828D02*
X34873Y-44228D01*
X34873Y-44228D02*
X35273Y-44228D01*
X37716Y-44862D02*
X37715Y-44871D01*
X37712Y-44881D01*
X37707Y-44889D01*
X37701Y-44897D01*
X37693Y-44903D01*
X37685Y-44908D01*
X37676Y-44910D01*
X37666Y-44911D01*
X37657Y-44911D01*
X37648Y-44908D01*
X37639Y-44903D01*
X37632Y-44897D01*
X37625Y-44890D01*
X37621Y-44881D01*
X37618Y-44872D01*
X37617Y-44862D01*
X37617Y-44853D01*
X37620Y-44844D01*
X37624Y-44835D01*
X37631Y-44828D01*
X37638Y-44821D01*
X37646Y-44817D01*
X37656Y-44814D01*
X37665Y-44813D01*
X37674Y-44813D01*
X37684Y-44816D01*
X37692Y-44820D01*
X37700Y-44826D01*
X37706Y-44834D01*
X37711Y-44842D01*
X37714Y-44851D01*
X37715Y-44861D01*
X37716Y-44862D01*
X37666Y-45312D02*
X37666Y-44912D01*
X37666Y-44912D02*
X38266Y-44912D01*
X38266Y-44912D02*
X38266Y-45312D01*
X38266Y-45712D02*
X38266Y-46112D01*
X38266Y-46112D02*
X37666Y-46112D01*
X37666Y-46112D02*
X37666Y-45712D01*
X32501Y-47855D02*
X32501Y-50885D01*
X32501Y-47855D02*
X36142Y-47855D01*
X36142Y-47855D02*
X36142Y-50885D01*
X36142Y-50885D02*
X32501Y-50885D01*
X33027Y-48870D02*
X34277Y-49120D01*
X34277Y-49120D02*
X34277Y-49620D01*
X34277Y-49620D02*
X33027Y-49870D01*
X34027Y-50620D02*
X33027Y-50495D01*
X33027Y-50495D02*
X33027Y-50245D01*
X33027Y-50245D02*
X34027Y-50120D01*
X34027Y-48120D02*
X33027Y-48245D01*
X33027Y-48245D02*
X33027Y-48495D01*
X33027Y-48495D02*
X34027Y-48620D01*
X45779Y-51039D02*
X45778Y-51048D01*
X45775Y-51058D01*
X45770Y-51066D01*
X45764Y-51074D01*
X45756Y-51080D01*
X45748Y-51085D01*
X45739Y-51087D01*
X45729Y-51088D01*
X45720Y-51088D01*
X45711Y-51085D01*
X45702Y-51080D01*
X45695Y-51074D01*
X45688Y-51067D01*
X45684Y-51058D01*
X45681Y-51049D01*
X45680Y-51039D01*
X45680Y-51030D01*
X45683Y-51021D01*
X45687Y-51012D01*
X45694Y-51005D01*
X45701Y-50998D01*
X45709Y-50994D01*
X45719Y-50991D01*
X45728Y-50990D01*
X45737Y-50990D01*
X45747Y-50993D01*
X45755Y-50997D01*
X45763Y-51003D01*
X45769Y-51011D01*
X45774Y-51019D01*
X45777Y-51028D01*
X45778Y-51038D01*
X45779Y-51039D01*
X45279Y-51039D02*
X45679Y-51039D01*
X45679Y-51039D02*
X45679Y-51639D01*
X45679Y-51639D02*
X45279Y-51639D01*
X44879Y-51639D02*
X44479Y-51639D01*
X44479Y-51639D02*
X44479Y-51039D01*
X44479Y-51039D02*
X44879Y-51039D01*
X45779Y-51905D02*
X45778Y-51914D01*
X45775Y-51924D01*
X45770Y-51932D01*
X45764Y-51940D01*
X45756Y-51946D01*
X45748Y-51951D01*
X45739Y-51953D01*
X45729Y-51954D01*
X45720Y-51954D01*
X45711Y-51951D01*
X45702Y-51946D01*
X45695Y-51940D01*
X45688Y-51933D01*
X45684Y-51924D01*
X45681Y-51915D01*
X45680Y-51905D01*
X45680Y-51896D01*
X45683Y-51887D01*
X45687Y-51878D01*
X45694Y-51871D01*
X45701Y-51864D01*
X45709Y-51860D01*
X45719Y-51857D01*
X45728Y-51856D01*
X45737Y-51856D01*
X45747Y-51859D01*
X45755Y-51863D01*
X45763Y-51869D01*
X45769Y-51877D01*
X45774Y-51885D01*
X45777Y-51894D01*
X45778Y-51904D01*
X45779Y-51905D01*
X45279Y-51905D02*
X45679Y-51905D01*
X45679Y-51905D02*
X45679Y-52505D01*
X45679Y-52505D02*
X45279Y-52505D01*
X44879Y-52505D02*
X44479Y-52505D01*
X44479Y-52505D02*
X44479Y-51905D01*
X44479Y-51905D02*
X44879Y-51905D01*
X45779Y-52771D02*
X45778Y-52780D01*
X45775Y-52790D01*
X45770Y-52798D01*
X45764Y-52806D01*
X45756Y-52812D01*
X45748Y-52817D01*
X45739Y-52819D01*
X45729Y-52820D01*
X45720Y-52820D01*
X45711Y-52817D01*
X45702Y-52812D01*
X45695Y-52806D01*
X45688Y-52799D01*
X45684Y-52790D01*
X45681Y-52781D01*
X45680Y-52771D01*
X45680Y-52762D01*
X45683Y-52753D01*
X45687Y-52744D01*
X45694Y-52737D01*
X45701Y-52730D01*
X45709Y-52726D01*
X45719Y-52723D01*
X45728Y-52722D01*
X45737Y-52722D01*
X45747Y-52725D01*
X45755Y-52729D01*
X45763Y-52735D01*
X45769Y-52743D01*
X45774Y-52751D01*
X45777Y-52760D01*
X45778Y-52770D01*
X45779Y-52771D01*
X45279Y-52771D02*
X45679Y-52771D01*
X45679Y-52771D02*
X45679Y-53371D01*
X45679Y-53371D02*
X45279Y-53371D01*
X44879Y-53371D02*
X44479Y-53371D01*
X44479Y-53371D02*
X44479Y-52771D01*
X44479Y-52771D02*
X44879Y-52771D01*
G54D11*
X52075Y-48984D02*
X52075Y-48984D01*
X51075Y-48984D02*
X52075Y-48984D01*
X52075Y-48984D02*
X52075Y-48984D01*
X52075Y-48984D02*
X52075Y-52984D01*
X52075Y-52984D02*
X51075Y-52984D01*
X51075Y-52984D02*
X51075Y-48984D01*
X51075Y-49984D02*
X52075Y-49984D01*
X45378Y-58799D02*
X45378Y-53799D01*
X45378Y-53799D02*
X47378Y-53799D01*
X47378Y-53799D02*
X47378Y-58799D01*
X47378Y-58799D02*
X45378Y-58799D01*
G54D14*
X49984Y-57996D02*
X49984Y-54996D01*
X51984Y-54996D02*
X51984Y-57996D01*
X51984Y-57996D02*
X49984Y-57996D01*
X49984Y-54996D02*
X51984Y-54996D01*
G54D12*
X48453Y-42531D02*
X48453Y-43031D01*
X48453Y-43031D02*
X47453Y-43031D01*
X47453Y-43031D02*
X47453Y-42531D01*
X48953Y-42531D02*
X48953Y-53531D01*
X48953Y-53531D02*
X46953Y-53531D01*
X46953Y-53531D02*
X46953Y-42531D01*
X46953Y-42531D02*
X48953Y-42531D01*
G54D13*
X38916Y-45559D02*
X38716Y-45559D01*
X38716Y-45559D02*
X38716Y-45859D01*
X38716Y-45859D02*
X38916Y-45859D01*
X39116Y-45559D02*
X39316Y-45559D01*
X39316Y-45559D02*
X39316Y-45859D01*
X39316Y-45859D02*
X39116Y-45859D01*
X38916Y-46267D02*
X38716Y-46267D01*
X38716Y-46267D02*
X38716Y-46567D01*
X38716Y-46567D02*
X38916Y-46567D01*
X39116Y-46267D02*
X39316Y-46267D01*
X39316Y-46267D02*
X39316Y-46567D01*
X39316Y-46567D02*
X39116Y-46567D01*
G54D11*
X51075Y-44957D02*
X52075Y-44957D01*
X52075Y-44957D02*
X52075Y-47957D01*
X52075Y-47957D02*
X51075Y-47957D01*
X51075Y-47957D02*
X51075Y-44957D01*
X52075Y-45957D02*
X51075Y-45957D01*
G54D12*
X35782Y-41378D02*
X35764Y-41552D01*
X35714Y-41720D01*
X35631Y-41876D01*
X35520Y-42012D01*
X35385Y-42124D01*
X35230Y-42207D01*
X35062Y-42259D01*
X34888Y-42277D01*
X34714Y-42262D01*
X34545Y-42212D01*
X34390Y-42131D01*
X34253Y-42021D01*
X34140Y-41886D01*
X34055Y-41732D01*
X34002Y-41565D01*
X33983Y-41390D01*
X33997Y-41216D01*
X34046Y-41047D01*
X34126Y-40891D01*
X34235Y-40753D01*
X34369Y-40639D01*
X34522Y-40554D01*
X34689Y-40499D01*
X34864Y-40479D01*
X35038Y-40492D01*
X35207Y-40539D01*
X35364Y-40619D01*
X35502Y-40727D01*
X35617Y-40860D01*
X35704Y-41012D01*
X35759Y-41179D01*
X35781Y-41353D01*
X35782Y-41378D01*
X52003Y-41378D02*
X51985Y-41552D01*
X51935Y-41720D01*
X51852Y-41876D01*
X51741Y-42012D01*
X51606Y-42124D01*
X51451Y-42207D01*
X51283Y-42259D01*
X51109Y-42277D01*
X50935Y-42262D01*
X50766Y-42212D01*
X50611Y-42131D01*
X50474Y-42021D01*
X50361Y-41886D01*
X50276Y-41732D01*
X50223Y-41565D01*
X50204Y-41390D01*
X50218Y-41216D01*
X50267Y-41047D01*
X50347Y-40891D01*
X50456Y-40753D01*
X50590Y-40639D01*
X50743Y-40554D01*
X50910Y-40499D01*
X51085Y-40479D01*
X51259Y-40492D01*
X51428Y-40539D01*
X51585Y-40619D01*
X51723Y-40727D01*
X51838Y-40860D01*
X51925Y-41012D01*
X51980Y-41179D01*
X52002Y-41353D01*
X52003Y-41378D01*
X41097Y-57795D02*
X41079Y-57969D01*
X41029Y-58137D01*
X40946Y-58293D01*
X40835Y-58429D01*
X40700Y-58541D01*
X40545Y-58624D01*
X40377Y-58676D01*
X40203Y-58694D01*
X40029Y-58679D01*
X39860Y-58629D01*
X39705Y-58548D01*
X39568Y-58438D01*
X39455Y-58303D01*
X39370Y-58149D01*
X39317Y-57982D01*
X39298Y-57807D01*
X39312Y-57633D01*
X39361Y-57464D01*
X39441Y-57308D01*
X39550Y-57170D01*
X39684Y-57056D01*
X39837Y-56971D01*
X40004Y-56916D01*
X40179Y-56896D01*
X40353Y-56909D01*
X40522Y-56956D01*
X40679Y-57036D01*
X40817Y-57144D01*
X40932Y-57277D01*
X41019Y-57429D01*
X41074Y-57596D01*
X41096Y-57770D01*
X41097Y-57795D01*
X41241Y-46555D02*
X41241Y-44547D01*
X41241Y-44547D02*
X44193Y-44547D01*
X44193Y-44547D02*
X44193Y-46555D01*
X44193Y-46555D02*
X41241Y-46555D01*
G54D14*
X40516Y-51501D02*
X40516Y-51001D01*
X40935Y-51454D02*
X40916Y-51478D01*
X40859Y-51501D01*
X40821Y-51501D01*
X40763Y-51478D01*
X40725Y-51430D01*
X40706Y-51382D01*
X40687Y-51287D01*
X40687Y-51216D01*
X40706Y-51120D01*
X40725Y-51073D01*
X40763Y-51025D01*
X40821Y-51001D01*
X40859Y-51001D01*
X40916Y-51025D01*
X40935Y-51049D01*
X41316Y-51501D02*
X41087Y-51501D01*
X41201Y-51501D02*
X41201Y-51001D01*
X41163Y-51073D01*
X41125Y-51120D01*
X41087Y-51144D01*
X37047Y-49351D02*
X37238Y-49351D01*
X37009Y-49493D02*
X37142Y-48993D01*
X37276Y-49493D01*
X37352Y-48993D02*
X37581Y-48993D01*
X37466Y-49493D02*
X37466Y-48993D01*
X37714Y-49493D02*
X37714Y-48993D01*
X37848Y-49351D01*
X37981Y-48993D01*
X37981Y-49493D01*
X38171Y-49231D02*
X38305Y-49231D01*
X38362Y-49493D02*
X38171Y-49493D01*
X38171Y-48993D01*
X38362Y-48993D01*
X38743Y-49017D02*
X38705Y-48993D01*
X38648Y-48993D01*
X38590Y-49017D01*
X38552Y-49065D01*
X38533Y-49112D01*
X38514Y-49208D01*
X38514Y-49279D01*
X38533Y-49374D01*
X38552Y-49422D01*
X38590Y-49470D01*
X38648Y-49493D01*
X38686Y-49493D01*
X38743Y-49470D01*
X38762Y-49446D01*
X38762Y-49279D01*
X38686Y-49279D01*
X38914Y-49351D02*
X39105Y-49351D01*
X38876Y-49493D02*
X39009Y-48993D01*
X39143Y-49493D01*
X39333Y-49208D02*
X39295Y-49184D01*
X39276Y-49160D01*
X39257Y-49112D01*
X39257Y-49089D01*
X39276Y-49041D01*
X39295Y-49017D01*
X39333Y-48993D01*
X39410Y-48993D01*
X39448Y-49017D01*
X39467Y-49041D01*
X39486Y-49089D01*
X39486Y-49112D01*
X39467Y-49160D01*
X39448Y-49184D01*
X39410Y-49208D01*
X39333Y-49208D01*
X39295Y-49231D01*
X39276Y-49255D01*
X39257Y-49303D01*
X39257Y-49398D01*
X39276Y-49446D01*
X39295Y-49470D01*
X39333Y-49493D01*
X39410Y-49493D01*
X39448Y-49470D01*
X39467Y-49446D01*
X39486Y-49398D01*
X39486Y-49303D01*
X39467Y-49255D01*
X39448Y-49231D01*
X39410Y-49208D01*
X39657Y-49303D02*
X39962Y-49303D01*
X40133Y-49351D02*
X40324Y-49351D01*
X40095Y-49493D02*
X40228Y-48993D01*
X40362Y-49493D01*
X40495Y-49493D02*
X40495Y-48993D01*
G54D15*
X36156Y-53310D02*
X36156Y-53010D01*
X36228Y-53010D01*
X36271Y-53025D01*
X36299Y-53053D01*
X36314Y-53082D01*
X36328Y-53139D01*
X36328Y-53182D01*
X36314Y-53239D01*
X36299Y-53268D01*
X36271Y-53296D01*
X36228Y-53310D01*
X36156Y-53310D01*
X36614Y-53310D02*
X36442Y-53310D01*
X36528Y-53310D02*
X36528Y-53010D01*
X36499Y-53053D01*
X36471Y-53082D01*
X36442Y-53096D01*
X37238Y-53071D02*
X37360Y-53071D01*
X37294Y-53146D01*
X37323Y-53146D01*
X37341Y-53156D01*
X37351Y-53165D01*
X37360Y-53184D01*
X37360Y-53231D01*
X37351Y-53249D01*
X37341Y-53259D01*
X37323Y-53268D01*
X37266Y-53268D01*
X37248Y-53259D01*
X37238Y-53249D01*
X37445Y-53249D02*
X37454Y-53259D01*
X37445Y-53268D01*
X37436Y-53259D01*
X37445Y-53249D01*
X37445Y-53268D01*
X37623Y-53071D02*
X37586Y-53071D01*
X37567Y-53081D01*
X37558Y-53090D01*
X37539Y-53118D01*
X37530Y-53156D01*
X37530Y-53231D01*
X37539Y-53249D01*
X37548Y-53259D01*
X37567Y-53268D01*
X37605Y-53268D01*
X37623Y-53259D01*
X37633Y-53249D01*
X37642Y-53231D01*
X37642Y-53184D01*
X37633Y-53165D01*
X37623Y-53156D01*
X37605Y-53146D01*
X37567Y-53146D01*
X37548Y-53156D01*
X37539Y-53165D01*
X37530Y-53184D01*
X37708Y-53137D02*
X37755Y-53268D01*
X37802Y-53137D01*
X34266Y-53310D02*
X34266Y-53010D01*
X34338Y-53010D01*
X34381Y-53025D01*
X34409Y-53053D01*
X34424Y-53082D01*
X34438Y-53139D01*
X34438Y-53182D01*
X34424Y-53239D01*
X34409Y-53268D01*
X34381Y-53296D01*
X34338Y-53310D01*
X34266Y-53310D01*
X34552Y-53039D02*
X34566Y-53025D01*
X34595Y-53010D01*
X34666Y-53010D01*
X34695Y-53025D01*
X34709Y-53039D01*
X34724Y-53068D01*
X34724Y-53096D01*
X34709Y-53139D01*
X34538Y-53310D01*
X34724Y-53310D01*
X35348Y-53071D02*
X35470Y-53071D01*
X35404Y-53146D01*
X35433Y-53146D01*
X35451Y-53156D01*
X35461Y-53165D01*
X35470Y-53184D01*
X35470Y-53231D01*
X35461Y-53249D01*
X35451Y-53259D01*
X35433Y-53268D01*
X35376Y-53268D01*
X35358Y-53259D01*
X35348Y-53249D01*
X35555Y-53249D02*
X35564Y-53259D01*
X35555Y-53268D01*
X35546Y-53259D01*
X35555Y-53249D01*
X35555Y-53268D01*
X35733Y-53071D02*
X35696Y-53071D01*
X35677Y-53081D01*
X35668Y-53090D01*
X35649Y-53118D01*
X35640Y-53156D01*
X35640Y-53231D01*
X35649Y-53249D01*
X35658Y-53259D01*
X35677Y-53268D01*
X35715Y-53268D01*
X35733Y-53259D01*
X35743Y-53249D01*
X35752Y-53231D01*
X35752Y-53184D01*
X35743Y-53165D01*
X35733Y-53156D01*
X35715Y-53146D01*
X35677Y-53146D01*
X35658Y-53156D01*
X35649Y-53165D01*
X35640Y-53184D01*
X35818Y-53137D02*
X35865Y-53268D01*
X35912Y-53137D01*
G54D14*
X40353Y-43927D02*
X40677Y-43927D01*
X40715Y-43908D01*
X40734Y-43889D01*
X40753Y-43851D01*
X40753Y-43774D01*
X40734Y-43736D01*
X40715Y-43717D01*
X40677Y-43698D01*
X40353Y-43698D01*
X40753Y-43298D02*
X40753Y-43527D01*
X40753Y-43413D02*
X40353Y-43413D01*
X40410Y-43451D01*
X40448Y-43489D01*
X40467Y-43527D01*
X40714Y-42920D02*
X40714Y-43111D01*
X40314Y-43111D01*
X40714Y-42787D02*
X40314Y-42787D01*
X40600Y-42653D01*
X40314Y-42520D01*
X40714Y-42520D01*
X40314Y-42368D02*
X40314Y-42120D01*
X40466Y-42254D01*
X40466Y-42196D01*
X40485Y-42158D01*
X40504Y-42139D01*
X40542Y-42120D01*
X40638Y-42120D01*
X40676Y-42139D01*
X40695Y-42158D01*
X40714Y-42196D01*
X40714Y-42311D01*
X40695Y-42349D01*
X40676Y-42368D01*
X40714Y-41739D02*
X40714Y-41968D01*
X40714Y-41854D02*
X40314Y-41854D01*
X40371Y-41892D01*
X40409Y-41930D01*
X40428Y-41968D01*
X40314Y-41606D02*
X40314Y-41339D01*
X40714Y-41511D01*
G54D13*
X34446Y-45234D02*
X34434Y-45246D01*
X34399Y-45258D01*
X34375Y-45258D01*
X34339Y-45246D01*
X34315Y-45222D01*
X34304Y-45199D01*
X34292Y-45151D01*
X34292Y-45115D01*
X34304Y-45068D01*
X34315Y-45044D01*
X34339Y-45020D01*
X34375Y-45008D01*
X34399Y-45008D01*
X34434Y-45020D01*
X34446Y-45032D01*
X34661Y-45092D02*
X34661Y-45258D01*
X34601Y-44996D02*
X34542Y-45175D01*
X34696Y-45175D01*
X34407Y-46164D02*
X34324Y-46045D01*
X34265Y-46164D02*
X34265Y-45914D01*
X34360Y-45914D01*
X34384Y-45926D01*
X34395Y-45938D01*
X34407Y-45962D01*
X34407Y-45998D01*
X34395Y-46021D01*
X34384Y-46033D01*
X34360Y-46045D01*
X34265Y-46045D01*
X34645Y-46164D02*
X34503Y-46164D01*
X34574Y-46164D02*
X34574Y-45914D01*
X34550Y-45950D01*
X34526Y-45974D01*
X34503Y-45986D01*
X39668Y-53743D02*
X39549Y-53826D01*
X39668Y-53885D02*
X39418Y-53885D01*
X39418Y-53790D01*
X39430Y-53766D01*
X39442Y-53755D01*
X39466Y-53743D01*
X39502Y-53743D01*
X39525Y-53755D01*
X39537Y-53766D01*
X39549Y-53790D01*
X39549Y-53885D01*
X39418Y-53659D02*
X39418Y-53505D01*
X39513Y-53588D01*
X39513Y-53552D01*
X39525Y-53528D01*
X39537Y-53516D01*
X39561Y-53505D01*
X39621Y-53505D01*
X39644Y-53516D01*
X39656Y-53528D01*
X39668Y-53552D01*
X39668Y-53624D01*
X39656Y-53647D01*
X39644Y-53659D01*
X40692Y-53743D02*
X40573Y-53826D01*
X40692Y-53885D02*
X40442Y-53885D01*
X40442Y-53790D01*
X40454Y-53766D01*
X40466Y-53755D01*
X40490Y-53743D01*
X40526Y-53743D01*
X40549Y-53755D01*
X40561Y-53766D01*
X40573Y-53790D01*
X40573Y-53885D01*
X40466Y-53647D02*
X40454Y-53635D01*
X40442Y-53612D01*
X40442Y-53552D01*
X40454Y-53528D01*
X40466Y-53516D01*
X40490Y-53505D01*
X40514Y-53505D01*
X40549Y-53516D01*
X40692Y-53659D01*
X40692Y-53505D01*
X42282Y-52125D02*
X42294Y-52137D01*
X42306Y-52172D01*
X42306Y-52196D01*
X42294Y-52232D01*
X42270Y-52256D01*
X42247Y-52267D01*
X42199Y-52279D01*
X42163Y-52279D01*
X42116Y-52267D01*
X42092Y-52256D01*
X42068Y-52232D01*
X42056Y-52196D01*
X42056Y-52172D01*
X42068Y-52137D01*
X42080Y-52125D01*
X42306Y-51887D02*
X42306Y-52029D01*
X42306Y-51958D02*
X42056Y-51958D01*
X42092Y-51982D01*
X42116Y-52006D01*
X42128Y-52029D01*
X42140Y-51672D02*
X42306Y-51672D01*
X42044Y-51732D02*
X42223Y-51791D01*
X42223Y-51637D01*
X42306Y-51434D02*
X42175Y-51434D01*
X42151Y-51446D01*
X42140Y-51470D01*
X42140Y-51518D01*
X42151Y-51541D01*
X42294Y-51434D02*
X42306Y-51458D01*
X42306Y-51518D01*
X42294Y-51541D01*
X42270Y-51553D01*
X42247Y-51553D01*
X42223Y-51541D01*
X42211Y-51518D01*
X42211Y-51458D01*
X42199Y-51434D01*
X42306Y-51185D02*
X42306Y-51327D01*
X42306Y-51256D02*
X42056Y-51256D01*
X42092Y-51280D01*
X42116Y-51304D01*
X42128Y-51327D01*
X50141Y-47129D02*
X50022Y-47212D01*
X50141Y-47271D02*
X49891Y-47271D01*
X49891Y-47176D01*
X49903Y-47152D01*
X49915Y-47141D01*
X49939Y-47129D01*
X49975Y-47129D01*
X49998Y-47141D01*
X50010Y-47152D01*
X50022Y-47176D01*
X50022Y-47271D01*
X49975Y-46914D02*
X50141Y-46914D01*
X49879Y-46974D02*
X50058Y-47033D01*
X50058Y-46879D01*
X45156Y-46459D02*
X45168Y-46471D01*
X45180Y-46506D01*
X45180Y-46530D01*
X45168Y-46566D01*
X45144Y-46590D01*
X45121Y-46601D01*
X45073Y-46613D01*
X45037Y-46613D01*
X44990Y-46601D01*
X44966Y-46590D01*
X44942Y-46566D01*
X44930Y-46530D01*
X44930Y-46506D01*
X44942Y-46471D01*
X44954Y-46459D01*
X44930Y-46375D02*
X44930Y-46221D01*
X45025Y-46304D01*
X45025Y-46268D01*
X45037Y-46244D01*
X45049Y-46232D01*
X45073Y-46221D01*
X45133Y-46221D01*
X45156Y-46232D01*
X45168Y-46244D01*
X45180Y-46268D01*
X45180Y-46340D01*
X45168Y-46363D01*
X45156Y-46375D01*
X40431Y-46696D02*
X40443Y-46708D01*
X40455Y-46743D01*
X40455Y-46767D01*
X40443Y-46803D01*
X40419Y-46827D01*
X40396Y-46838D01*
X40348Y-46850D01*
X40312Y-46850D01*
X40265Y-46838D01*
X40241Y-46827D01*
X40217Y-46803D01*
X40205Y-46767D01*
X40205Y-46743D01*
X40217Y-46708D01*
X40229Y-46696D01*
X40229Y-46600D02*
X40217Y-46588D01*
X40205Y-46565D01*
X40205Y-46505D01*
X40217Y-46481D01*
X40229Y-46469D01*
X40253Y-46458D01*
X40277Y-46458D01*
X40312Y-46469D01*
X40455Y-46612D01*
X40455Y-46458D01*
X36047Y-43782D02*
X35928Y-43865D01*
X36047Y-43924D02*
X35797Y-43924D01*
X35797Y-43829D01*
X35809Y-43805D01*
X35821Y-43794D01*
X35845Y-43782D01*
X35881Y-43782D01*
X35904Y-43794D01*
X35916Y-43805D01*
X35928Y-43829D01*
X35928Y-43924D01*
X35904Y-43639D02*
X35892Y-43663D01*
X35881Y-43674D01*
X35857Y-43686D01*
X35845Y-43686D01*
X35821Y-43674D01*
X35809Y-43663D01*
X35797Y-43639D01*
X35797Y-43591D01*
X35809Y-43567D01*
X35821Y-43555D01*
X35845Y-43544D01*
X35857Y-43544D01*
X35881Y-43555D01*
X35892Y-43567D01*
X35904Y-43591D01*
X35904Y-43639D01*
X35916Y-43663D01*
X35928Y-43674D01*
X35952Y-43686D01*
X36000Y-43686D01*
X36023Y-43674D01*
X36035Y-43663D01*
X36047Y-43639D01*
X36047Y-43591D01*
X36035Y-43567D01*
X36023Y-43555D01*
X36000Y-43544D01*
X35952Y-43544D01*
X35928Y-43555D01*
X35916Y-43567D01*
X35904Y-43591D01*
X36598Y-40751D02*
X36479Y-40834D01*
X36598Y-40893D02*
X36348Y-40893D01*
X36348Y-40798D01*
X36360Y-40774D01*
X36372Y-40763D01*
X36396Y-40751D01*
X36432Y-40751D01*
X36455Y-40763D01*
X36467Y-40774D01*
X36479Y-40798D01*
X36479Y-40893D01*
X36348Y-40667D02*
X36348Y-40501D01*
X36598Y-40608D01*
X36927Y-44609D02*
X36939Y-44621D01*
X36951Y-44656D01*
X36951Y-44680D01*
X36939Y-44716D01*
X36915Y-44740D01*
X36892Y-44751D01*
X36844Y-44763D01*
X36808Y-44763D01*
X36761Y-44751D01*
X36737Y-44740D01*
X36713Y-44716D01*
X36701Y-44680D01*
X36701Y-44656D01*
X36713Y-44621D01*
X36725Y-44609D01*
X36701Y-44382D02*
X36701Y-44501D01*
X36820Y-44513D01*
X36808Y-44501D01*
X36796Y-44478D01*
X36796Y-44418D01*
X36808Y-44394D01*
X36820Y-44382D01*
X36844Y-44371D01*
X36904Y-44371D01*
X36927Y-44382D01*
X36939Y-44394D01*
X36951Y-44418D01*
X36951Y-44478D01*
X36939Y-44501D01*
X36927Y-44513D01*
X43699Y-51696D02*
X43711Y-51708D01*
X43723Y-51743D01*
X43723Y-51767D01*
X43711Y-51803D01*
X43687Y-51827D01*
X43664Y-51838D01*
X43616Y-51850D01*
X43580Y-51850D01*
X43533Y-51838D01*
X43509Y-51827D01*
X43485Y-51803D01*
X43473Y-51767D01*
X43473Y-51743D01*
X43485Y-51708D01*
X43497Y-51696D01*
X43723Y-51458D02*
X43723Y-51600D01*
X43723Y-51529D02*
X43473Y-51529D01*
X43509Y-51553D01*
X43533Y-51577D01*
X43545Y-51600D01*
X43557Y-51243D02*
X43723Y-51243D01*
X43461Y-51303D02*
X43640Y-51362D01*
X43640Y-51208D01*
X42282Y-48232D02*
X42294Y-48244D01*
X42306Y-48279D01*
X42306Y-48303D01*
X42294Y-48339D01*
X42270Y-48363D01*
X42247Y-48374D01*
X42199Y-48386D01*
X42163Y-48386D01*
X42116Y-48374D01*
X42092Y-48363D01*
X42068Y-48339D01*
X42056Y-48303D01*
X42056Y-48279D01*
X42068Y-48244D01*
X42080Y-48232D01*
X42306Y-47994D02*
X42306Y-48136D01*
X42306Y-48065D02*
X42056Y-48065D01*
X42092Y-48089D01*
X42116Y-48113D01*
X42128Y-48136D01*
X42056Y-47779D02*
X42056Y-47827D01*
X42068Y-47851D01*
X42080Y-47863D01*
X42116Y-47886D01*
X42163Y-47898D01*
X42259Y-47898D01*
X42282Y-47886D01*
X42294Y-47875D01*
X42306Y-47851D01*
X42306Y-47803D01*
X42294Y-47779D01*
X42282Y-47767D01*
X42259Y-47756D01*
X42199Y-47756D01*
X42175Y-47767D01*
X42163Y-47779D01*
X42151Y-47803D01*
X42151Y-47851D01*
X42163Y-47875D01*
X42175Y-47886D01*
X42199Y-47898D01*
X44865Y-47916D02*
X44746Y-47999D01*
X44865Y-48058D02*
X44615Y-48058D01*
X44615Y-47963D01*
X44627Y-47939D01*
X44639Y-47928D01*
X44663Y-47916D01*
X44699Y-47916D01*
X44722Y-47928D01*
X44734Y-47939D01*
X44746Y-47963D01*
X44746Y-48058D01*
X44615Y-47689D02*
X44615Y-47808D01*
X44734Y-47820D01*
X44722Y-47808D01*
X44710Y-47785D01*
X44710Y-47725D01*
X44722Y-47701D01*
X44734Y-47689D01*
X44758Y-47678D01*
X44818Y-47678D01*
X44841Y-47689D01*
X44853Y-47701D01*
X44865Y-47725D01*
X44865Y-47785D01*
X44853Y-47808D01*
X44841Y-47820D01*
X34407Y-44290D02*
X34395Y-44302D01*
X34360Y-44314D01*
X34336Y-44314D01*
X34300Y-44302D01*
X34276Y-44278D01*
X34265Y-44255D01*
X34253Y-44207D01*
X34253Y-44171D01*
X34265Y-44124D01*
X34276Y-44100D01*
X34300Y-44076D01*
X34336Y-44064D01*
X34360Y-44064D01*
X34395Y-44076D01*
X34407Y-44088D01*
X34645Y-44314D02*
X34503Y-44314D01*
X34574Y-44314D02*
X34574Y-44064D01*
X34550Y-44100D01*
X34526Y-44124D01*
X34503Y-44136D01*
X37794Y-44570D02*
X37806Y-44582D01*
X37818Y-44617D01*
X37818Y-44641D01*
X37806Y-44677D01*
X37782Y-44701D01*
X37759Y-44712D01*
X37711Y-44724D01*
X37675Y-44724D01*
X37628Y-44712D01*
X37604Y-44701D01*
X37580Y-44677D01*
X37568Y-44641D01*
X37568Y-44617D01*
X37580Y-44582D01*
X37592Y-44570D01*
X37568Y-44355D02*
X37568Y-44403D01*
X37580Y-44427D01*
X37592Y-44439D01*
X37628Y-44462D01*
X37675Y-44474D01*
X37771Y-44474D01*
X37794Y-44462D01*
X37806Y-44451D01*
X37818Y-44427D01*
X37818Y-44379D01*
X37806Y-44355D01*
X37794Y-44343D01*
X37771Y-44332D01*
X37711Y-44332D01*
X37687Y-44343D01*
X37675Y-44355D01*
X37663Y-44379D01*
X37663Y-44427D01*
X37675Y-44451D01*
X37687Y-44462D01*
X37711Y-44474D01*
G54D16*
X33139Y-49072D02*
X33473Y-49572D01*
X33473Y-49072D02*
X33139Y-49572D01*
X33639Y-49120D02*
X33663Y-49096D01*
X33711Y-49072D01*
X33830Y-49072D01*
X33877Y-49096D01*
X33901Y-49120D01*
X33925Y-49168D01*
X33925Y-49215D01*
X33901Y-49287D01*
X33615Y-49572D01*
X33925Y-49572D01*
G54D17*
X33502Y-52946D02*
X33826Y-52946D01*
X33864Y-52927D01*
X33883Y-52908D01*
X33902Y-52870D01*
X33902Y-52793D01*
X33883Y-52755D01*
X33864Y-52736D01*
X33826Y-52717D01*
X33502Y-52717D01*
X33883Y-52546D02*
X33902Y-52489D01*
X33902Y-52393D01*
X33883Y-52355D01*
X33864Y-52336D01*
X33826Y-52317D01*
X33788Y-52317D01*
X33750Y-52336D01*
X33730Y-52355D01*
X33711Y-52393D01*
X33692Y-52470D01*
X33673Y-52508D01*
X33654Y-52527D01*
X33616Y-52546D01*
X33578Y-52546D01*
X33540Y-52527D01*
X33521Y-52508D01*
X33502Y-52470D01*
X33502Y-52374D01*
X33521Y-52317D01*
X33692Y-52012D02*
X33711Y-51955D01*
X33730Y-51936D01*
X33769Y-51917D01*
X33826Y-51917D01*
X33864Y-51936D01*
X33883Y-51955D01*
X33902Y-51993D01*
X33902Y-52146D01*
X33502Y-52146D01*
X33502Y-52012D01*
X33521Y-51974D01*
X33540Y-51955D01*
X33578Y-51936D01*
X33616Y-51936D01*
X33654Y-51955D01*
X33673Y-51974D01*
X33692Y-52012D01*
X33692Y-52146D01*
G54D13*
X44131Y-51400D02*
X44048Y-51281D01*
X43989Y-51400D02*
X43989Y-51150D01*
X44084Y-51150D01*
X44108Y-51162D01*
X44119Y-51174D01*
X44131Y-51198D01*
X44131Y-51234D01*
X44119Y-51257D01*
X44108Y-51269D01*
X44084Y-51281D01*
X43989Y-51281D01*
X44346Y-51150D02*
X44298Y-51150D01*
X44274Y-51162D01*
X44262Y-51174D01*
X44239Y-51210D01*
X44227Y-51257D01*
X44227Y-51353D01*
X44239Y-51376D01*
X44250Y-51388D01*
X44274Y-51400D01*
X44322Y-51400D01*
X44346Y-51388D01*
X44358Y-51376D01*
X44369Y-51353D01*
X44369Y-51293D01*
X44358Y-51269D01*
X44346Y-51257D01*
X44322Y-51245D01*
X44274Y-51245D01*
X44250Y-51257D01*
X44239Y-51269D01*
X44227Y-51293D01*
X44092Y-52306D02*
X44009Y-52187D01*
X43950Y-52306D02*
X43950Y-52056D01*
X44045Y-52056D01*
X44069Y-52068D01*
X44080Y-52080D01*
X44092Y-52104D01*
X44092Y-52140D01*
X44080Y-52163D01*
X44069Y-52175D01*
X44045Y-52187D01*
X43950Y-52187D01*
X44211Y-52306D02*
X44259Y-52306D01*
X44283Y-52294D01*
X44295Y-52282D01*
X44319Y-52247D01*
X44330Y-52199D01*
X44330Y-52104D01*
X44319Y-52080D01*
X44307Y-52068D01*
X44283Y-52056D01*
X44235Y-52056D01*
X44211Y-52068D01*
X44200Y-52080D01*
X44188Y-52104D01*
X44188Y-52163D01*
X44200Y-52187D01*
X44211Y-52199D01*
X44235Y-52211D01*
X44283Y-52211D01*
X44307Y-52199D01*
X44319Y-52187D01*
X44330Y-52163D01*
X43894Y-53291D02*
X43811Y-53172D01*
X43752Y-53291D02*
X43752Y-53041D01*
X43847Y-53041D01*
X43871Y-53053D01*
X43882Y-53065D01*
X43894Y-53089D01*
X43894Y-53125D01*
X43882Y-53148D01*
X43871Y-53160D01*
X43847Y-53172D01*
X43752Y-53172D01*
X44132Y-53291D02*
X43990Y-53291D01*
X44061Y-53291D02*
X44061Y-53041D01*
X44037Y-53077D01*
X44013Y-53101D01*
X43990Y-53113D01*
X44287Y-53041D02*
X44311Y-53041D01*
X44335Y-53053D01*
X44347Y-53065D01*
X44359Y-53089D01*
X44370Y-53136D01*
X44370Y-53196D01*
X44359Y-53244D01*
X44347Y-53267D01*
X44335Y-53279D01*
X44311Y-53291D01*
X44287Y-53291D01*
X44263Y-53279D01*
X44251Y-53267D01*
X44240Y-53244D01*
X44228Y-53196D01*
X44228Y-53136D01*
X44240Y-53089D01*
X44251Y-53065D01*
X44263Y-53053D01*
X44287Y-53041D01*
G54D18*
X51239Y-54007D02*
X51207Y-54048D01*
X51207Y-54109D01*
X51239Y-54170D01*
X51305Y-54211D01*
X51370Y-54231D01*
X51500Y-54251D01*
X51597Y-54251D01*
X51727Y-54231D01*
X51792Y-54211D01*
X51857Y-54170D01*
X51890Y-54109D01*
X51890Y-54068D01*
X51857Y-54007D01*
X51825Y-53987D01*
X51597Y-53987D01*
X51597Y-54068D01*
X51825Y-53559D02*
X51857Y-53579D01*
X51890Y-53640D01*
X51890Y-53681D01*
X51857Y-53742D01*
X51792Y-53783D01*
X51727Y-53803D01*
X51597Y-53823D01*
X51500Y-53823D01*
X51370Y-53803D01*
X51305Y-53783D01*
X51239Y-53742D01*
X51207Y-53681D01*
X51207Y-53640D01*
X51239Y-53579D01*
X51272Y-53559D01*
X51890Y-53151D02*
X51890Y-53395D01*
X51890Y-53273D02*
X51207Y-53273D01*
X51305Y-53314D01*
X51370Y-53355D01*
X51402Y-53395D01*
G54D14*
X48075Y-56818D02*
X47675Y-56818D01*
X48075Y-56589D01*
X47675Y-56589D01*
X48075Y-56170D02*
X47884Y-56304D01*
X48075Y-56399D02*
X47675Y-56399D01*
X47675Y-56246D01*
X47694Y-56208D01*
X47713Y-56189D01*
X47751Y-56170D01*
X47808Y-56170D01*
X47846Y-56189D01*
X47865Y-56208D01*
X47884Y-56246D01*
X47884Y-56399D01*
X47865Y-55865D02*
X47865Y-55999D01*
X48075Y-55999D02*
X47675Y-55999D01*
X47675Y-55808D01*
X48075Y-55446D02*
X48075Y-55675D01*
X48075Y-55561D02*
X47675Y-55561D01*
X47732Y-55599D01*
X47770Y-55637D01*
X47789Y-55675D01*
X49768Y-57401D02*
X49368Y-57401D01*
X49368Y-57248D01*
X49387Y-57210D01*
X49406Y-57191D01*
X49444Y-57172D01*
X49501Y-57172D01*
X49539Y-57191D01*
X49558Y-57210D01*
X49577Y-57248D01*
X49577Y-57401D01*
X49768Y-56772D02*
X49577Y-56906D01*
X49768Y-57001D02*
X49368Y-57001D01*
X49368Y-56848D01*
X49387Y-56810D01*
X49406Y-56791D01*
X49444Y-56772D01*
X49501Y-56772D01*
X49539Y-56791D01*
X49558Y-56810D01*
X49577Y-56848D01*
X49577Y-57001D01*
X49368Y-56525D02*
X49368Y-56448D01*
X49387Y-56410D01*
X49425Y-56372D01*
X49501Y-56353D01*
X49635Y-56353D01*
X49711Y-56372D01*
X49749Y-56410D01*
X49768Y-56448D01*
X49768Y-56525D01*
X49749Y-56563D01*
X49711Y-56601D01*
X49635Y-56620D01*
X49501Y-56620D01*
X49425Y-56601D01*
X49387Y-56563D01*
X49368Y-56525D01*
X49387Y-55972D02*
X49368Y-56010D01*
X49368Y-56067D01*
X49387Y-56125D01*
X49425Y-56163D01*
X49463Y-56182D01*
X49539Y-56201D01*
X49596Y-56201D01*
X49673Y-56182D01*
X49711Y-56163D01*
X49749Y-56125D01*
X49768Y-56067D01*
X49768Y-56029D01*
X49749Y-55972D01*
X49730Y-55953D01*
X49596Y-55953D01*
X49596Y-56029D01*
X49768Y-55572D02*
X49768Y-55801D01*
X49768Y-55687D02*
X49368Y-55687D01*
X49425Y-55725D01*
X49463Y-55763D01*
X49482Y-55801D01*
G54D19*
X47353Y-41374D02*
X47417Y-41407D01*
X47439Y-41440D01*
X47460Y-41507D01*
X47460Y-41607D01*
X47439Y-41674D01*
X47417Y-41707D01*
X47375Y-41740D01*
X47203Y-41740D01*
X47203Y-41040D01*
X47353Y-41040D01*
X47396Y-41074D01*
X47417Y-41107D01*
X47439Y-41174D01*
X47439Y-41240D01*
X47417Y-41307D01*
X47396Y-41340D01*
X47353Y-41374D01*
X47203Y-41374D01*
X47632Y-41540D02*
X47846Y-41540D01*
X47589Y-41740D02*
X47739Y-41040D01*
X47889Y-41740D01*
X48296Y-41740D02*
X48146Y-41407D01*
X48039Y-41740D02*
X48039Y-41040D01*
X48211Y-41040D01*
X48253Y-41074D01*
X48275Y-41107D01*
X48296Y-41174D01*
X48296Y-41274D01*
X48275Y-41340D01*
X48253Y-41374D01*
X48211Y-41407D01*
X48039Y-41407D01*
X48725Y-41740D02*
X48468Y-41740D01*
X48596Y-41740D02*
X48596Y-41040D01*
X48553Y-41140D01*
X48511Y-41207D01*
X48468Y-41240D01*
G54D15*
X39429Y-45638D02*
X39429Y-45723D01*
X39423Y-45740D01*
X39412Y-45752D01*
X39395Y-45758D01*
X39383Y-45758D01*
X39486Y-45758D02*
X39486Y-45638D01*
X39531Y-45638D01*
X39543Y-45643D01*
X39548Y-45649D01*
X39554Y-45660D01*
X39554Y-45678D01*
X39548Y-45689D01*
X39543Y-45695D01*
X39531Y-45700D01*
X39486Y-45700D01*
X39600Y-45649D02*
X39606Y-45643D01*
X39617Y-45638D01*
X39646Y-45638D01*
X39657Y-45643D01*
X39663Y-45649D01*
X39668Y-45660D01*
X39668Y-45672D01*
X39663Y-45689D01*
X39594Y-45758D01*
X39668Y-45758D01*
X39468Y-46346D02*
X39468Y-46431D01*
X39462Y-46448D01*
X39451Y-46460D01*
X39434Y-46466D01*
X39422Y-46466D01*
X39525Y-46466D02*
X39525Y-46346D01*
X39570Y-46346D01*
X39582Y-46351D01*
X39587Y-46357D01*
X39593Y-46368D01*
X39593Y-46386D01*
X39587Y-46397D01*
X39582Y-46403D01*
X39570Y-46408D01*
X39525Y-46408D01*
X39707Y-46466D02*
X39639Y-46466D01*
X39673Y-46466D02*
X39673Y-46346D01*
X39662Y-46363D01*
X39650Y-46374D01*
X39639Y-46380D01*
G54D20*
X51939Y-44619D02*
X51234Y-44619D01*
X51939Y-44377D01*
X51234Y-44377D01*
X51234Y-43993D02*
X51234Y-44074D01*
X51267Y-44114D01*
X51301Y-44135D01*
X51402Y-44175D01*
X51536Y-44195D01*
X51805Y-44195D01*
X51872Y-44175D01*
X51905Y-44155D01*
X51939Y-44114D01*
X51939Y-44034D01*
X51905Y-43993D01*
X51872Y-43973D01*
X51805Y-43953D01*
X51637Y-43953D01*
X51570Y-43973D01*
X51536Y-43993D01*
X51502Y-44034D01*
X51502Y-44114D01*
X51536Y-44155D01*
X51570Y-44175D01*
X51637Y-44195D01*
X51469Y-43589D02*
X51939Y-43589D01*
X51200Y-43690D02*
X51704Y-43791D01*
X51704Y-43529D01*
G54D17*
G54D21*
X41847Y-43817D02*
X42110Y-44217D01*
X42110Y-43817D02*
X41847Y-44217D01*
X42466Y-44217D02*
X42241Y-44217D01*
X42354Y-44217D02*
X42354Y-43817D01*
X42316Y-43874D01*
X42279Y-43912D01*
X42241Y-43931D01*
G54D14*
X42711Y-43705D02*
X42486Y-43705D01*
X42599Y-43705D02*
X42599Y-43305D01*
X42561Y-43362D01*
X42524Y-43400D01*
X42486Y-43419D01*
X42861Y-43343D02*
X42880Y-43324D01*
X42917Y-43305D01*
X43011Y-43305D01*
X43049Y-43324D01*
X43067Y-43343D01*
X43086Y-43381D01*
X43086Y-43419D01*
X43067Y-43476D01*
X42842Y-43705D01*
X43086Y-43705D01*
X43255Y-43705D02*
X43255Y-43438D01*
X43255Y-43476D02*
X43274Y-43457D01*
X43311Y-43438D01*
X43367Y-43438D01*
X43405Y-43457D01*
X43424Y-43495D01*
X43424Y-43705D01*
X43424Y-43495D02*
X43442Y-43457D01*
X43480Y-43438D01*
X43536Y-43438D01*
X43574Y-43457D01*
X43593Y-43495D01*
X43593Y-43705D01*
X43780Y-43705D02*
X43780Y-43305D01*
X43949Y-43705D02*
X43949Y-43495D01*
X43930Y-43457D01*
X43892Y-43438D01*
X43836Y-43438D01*
X43799Y-43457D01*
X43780Y-43476D01*
X44098Y-43438D02*
X44305Y-43438D01*
X44098Y-43705D01*
X44305Y-43705D01*
%LPC*%
G54D22*
X40873Y-48316D03*
X40873Y-48631D03*
X40873Y-48946D03*
X40873Y-49261D03*
X40873Y-49576D03*
X40873Y-49891D03*
X40873Y-50206D03*
X40873Y-50521D03*
X37107Y-50519D03*
X37107Y-48309D03*
X37107Y-48629D03*
X37107Y-48949D03*
X37107Y-49259D03*
X37107Y-49579D03*
X37107Y-49889D03*
X37107Y-50209D03*
G54D23*
X40089Y-51309D03*
X39775Y-51309D03*
X39459Y-51309D03*
X39145Y-51309D03*
X38829Y-51309D03*
X38515Y-51309D03*
X38199Y-51309D03*
X37885Y-51309D03*
X40087Y-47529D03*
X39777Y-47529D03*
X39457Y-47529D03*
X39147Y-47529D03*
X38837Y-47529D03*
X38517Y-47529D03*
X38197Y-47529D03*
X37877Y-47529D03*
G54D24*
X36929Y-53098D03*
X36554Y-52098D03*
X37304Y-52098D03*
X35039Y-53098D03*
X34664Y-52098D03*
X35414Y-52098D03*
G54D25*
X38781Y-40905D03*
G54D26*
X38781Y-43505D03*
X39681Y-43505D03*
X37881Y-43505D03*
G54D27*
X35848Y-45433D03*
X35098Y-45433D03*
X35847Y-46339D03*
X35097Y-46339D03*
G54D28*
X39567Y-53131D03*
X39567Y-52381D03*
X40551Y-53131D03*
X40551Y-52381D03*
X42520Y-50117D03*
X42520Y-50867D03*
X50591Y-46832D03*
X50591Y-46082D03*
X45040Y-45808D03*
X45040Y-45058D03*
X40354Y-45294D03*
X40354Y-46044D03*
X36655Y-43011D03*
X36655Y-43761D03*
X36655Y-41515D03*
X36655Y-42265D03*
X36982Y-45137D03*
X36982Y-45887D03*
X43799Y-50117D03*
X43799Y-50867D03*
X42835Y-48879D03*
X42835Y-48129D03*
X44764Y-48523D03*
X44764Y-49273D03*
G54D27*
X35848Y-44528D03*
X35098Y-44528D03*
G54D28*
X37966Y-45137D03*
X37966Y-45887D03*
G54D29*
X35827Y-49370D03*
X35827Y-49056D03*
X35827Y-49999D03*
X35827Y-49684D03*
G54D30*
X33662Y-51141D03*
X33662Y-47599D03*
X35827Y-51102D03*
X35827Y-47599D03*
G54D31*
X34843Y-48504D03*
X34843Y-50236D03*
G54D29*
X35827Y-48741D03*
G54D27*
X45454Y-51339D03*
X44704Y-51339D03*
X45454Y-52205D03*
X44704Y-52205D03*
X45454Y-53071D03*
X44704Y-53071D03*
G54D32*
X51575Y-49484D03*
G54D33*
X51575Y-50484D03*
X51575Y-51484D03*
X51575Y-52484D03*
G54D34*
X46878Y-58299D03*
G54D35*
X45878Y-58299D03*
X46878Y-57299D03*
X45878Y-57299D03*
X46878Y-56299D03*
X45878Y-56299D03*
X46878Y-55299D03*
X45878Y-55299D03*
X46878Y-54299D03*
X45878Y-54299D03*
G54D34*
X50484Y-55496D03*
G54D35*
X51484Y-55496D03*
X50484Y-56496D03*
X51484Y-56496D03*
X50484Y-57496D03*
X51484Y-57496D03*
G54D32*
X46453Y-43531D03*
G54D33*
X46453Y-44531D03*
X46453Y-45531D03*
X46453Y-46531D03*
X46453Y-47531D03*
X46453Y-48531D03*
X46453Y-49531D03*
X46453Y-50531D03*
X46453Y-51531D03*
X46453Y-52531D03*
X49453Y-52531D03*
X49453Y-51531D03*
X49453Y-50531D03*
X49453Y-49531D03*
X49453Y-48531D03*
X49453Y-47531D03*
X49453Y-46531D03*
X49453Y-45531D03*
X49453Y-44531D03*
X49453Y-43531D03*
G54D36*
X38839Y-45709D03*
X39193Y-45709D03*
X38839Y-46417D03*
X39193Y-46417D03*
G54D32*
X51575Y-45457D03*
G54D33*
X51575Y-46457D03*
X51575Y-47457D03*
G54D37*
X34882Y-41378D03*
X51103Y-41378D03*
X40197Y-57795D03*
G54D38*
X41477Y-46043D03*
X43957Y-46043D03*
X41477Y-45059D03*
X43957Y-45059D03*
M02*
