M48
;DRILL file {Pcbnew (2012-01-19 BZR 3256)-stable} date 09-06-2012 12:03:13
;FORMAT={-:-/ absolute / metric / decimal}
FMAT,2
METRIC,TZ
T1C0.635
T2C0.813
T3C0.899
T4C1.016
T5C3.048
%
G90
G05
M71
T1
X85.400Y129.799
X88.400Y124.300
X88.501Y116.500
X91.006Y122.705
X93.000Y121.249
X96.500Y118.750
X96.500Y122.700
X96.500Y136.101
X98.755Y122.575
X98.999Y128.250
X99.299Y125.199
X100.899Y123.200
X112.499Y127.249
X115.001Y123.200
T2
X97.132Y104.501
X97.231Y110.500
X99.672Y104.501
X99.771Y110.500
X120.500Y115.461
X120.500Y118.001
X120.500Y120.541
X120.500Y125.689
X120.500Y128.229
X120.500Y130.769
X120.500Y133.309
T3
X80.000Y123.299
X80.000Y127.699
T4
X106.479Y137.919
X106.479Y140.459
X106.479Y142.999
X106.479Y145.539
X106.479Y148.079
X109.019Y137.919
X109.019Y140.459
X109.019Y142.999
X109.019Y145.539
X109.019Y148.079
X118.229Y140.960
X118.229Y143.500
X118.229Y146.040
X120.769Y140.960
X120.769Y143.500
X120.769Y146.040
T5
X77.000Y104.000
X98.999Y147.000
X121.001Y104.000
T0
M30
