G04 (created by PCBNEW-RS274X (2012-01-19 BZR 3256)-stable) date 09-06-2012 12:03:23*
G01*
G70*
G90*
%MOIN*%
G04 Gerber Fmt 3.4, Leading zero omitted, Abs format*
%FSLAX34Y34*%
G04 APERTURE LIST*
%ADD10C,0.006000*%
%ADD11C,0.015000*%
%ADD12R,0.055000X0.055000*%
%ADD13C,0.055000*%
%ADD14R,0.060000X0.060000*%
%ADD15C,0.060000*%
%ADD16C,0.055400*%
%ADD17C,0.160000*%
%ADD18C,0.035000*%
%ADD19C,0.010000*%
G04 APERTURE END LIST*
G54D10*
G54D11*
X47638Y-59449D02*
X47740Y-59444D01*
X47843Y-59431D01*
X47943Y-59408D01*
X48041Y-59377D01*
X48137Y-59338D01*
X48228Y-59290D01*
X48315Y-59235D01*
X48397Y-59172D01*
X48473Y-59103D01*
X48542Y-59027D01*
X48605Y-58945D01*
X48660Y-58858D01*
X48708Y-58767D01*
X48747Y-58671D01*
X48778Y-58573D01*
X48801Y-58473D01*
X48814Y-58370D01*
X48819Y-58268D01*
X48819Y-40945D02*
X48814Y-40843D01*
X48801Y-40740D01*
X48778Y-40640D01*
X48747Y-40542D01*
X48708Y-40446D01*
X48660Y-40355D01*
X48605Y-40268D01*
X48542Y-40186D01*
X48473Y-40110D01*
X48397Y-40041D01*
X48315Y-39978D01*
X48228Y-39923D01*
X48137Y-39875D01*
X48041Y-39836D01*
X47943Y-39805D01*
X47843Y-39782D01*
X47740Y-39769D01*
X47638Y-39764D01*
X29134Y-58268D02*
X29139Y-58370D01*
X29152Y-58473D01*
X29175Y-58573D01*
X29206Y-58671D01*
X29245Y-58767D01*
X29293Y-58858D01*
X29348Y-58945D01*
X29411Y-59027D01*
X29480Y-59103D01*
X29556Y-59172D01*
X29638Y-59235D01*
X29725Y-59290D01*
X29816Y-59338D01*
X29912Y-59377D01*
X30010Y-59408D01*
X30110Y-59431D01*
X30213Y-59444D01*
X30315Y-59449D01*
X30315Y-39764D02*
X30213Y-39769D01*
X30110Y-39782D01*
X30010Y-39805D01*
X29912Y-39836D01*
X29816Y-39875D01*
X29725Y-39923D01*
X29638Y-39978D01*
X29556Y-40041D01*
X29480Y-40110D01*
X29411Y-40186D01*
X29348Y-40268D01*
X29293Y-40355D01*
X29245Y-40446D01*
X29206Y-40542D01*
X29175Y-40640D01*
X29152Y-40740D01*
X29139Y-40843D01*
X29134Y-40945D01*
X29134Y-58268D02*
X29134Y-40945D01*
X47638Y-59449D02*
X30315Y-59449D01*
X48819Y-40945D02*
X48819Y-58268D01*
X30315Y-39764D02*
X47638Y-39764D01*
G54D12*
X47441Y-49484D03*
G54D13*
X47441Y-50484D03*
X47441Y-51484D03*
X47441Y-52484D03*
G54D12*
X47441Y-45457D03*
G54D13*
X47441Y-46457D03*
X47441Y-47457D03*
G54D12*
X38280Y-43504D03*
G54D13*
X39280Y-43504D03*
G54D12*
X38241Y-41142D03*
G54D13*
X39241Y-41142D03*
G54D14*
X46547Y-55496D03*
G54D15*
X47547Y-55496D03*
X46547Y-56496D03*
X47547Y-56496D03*
X46547Y-57496D03*
X47547Y-57496D03*
G54D16*
X31496Y-48543D03*
X31496Y-50275D03*
G54D14*
X42921Y-58299D03*
G54D15*
X41921Y-58299D03*
X42921Y-57299D03*
X41921Y-57299D03*
X42921Y-56299D03*
X41921Y-56299D03*
X42921Y-55299D03*
X41921Y-55299D03*
X42921Y-54299D03*
X41921Y-54299D03*
G54D17*
X30315Y-40945D03*
X47638Y-40945D03*
X38976Y-57874D03*
G54D18*
X45276Y-48504D03*
X39724Y-48504D03*
X44291Y-50098D03*
X37992Y-46752D03*
X38880Y-48258D03*
X39094Y-49291D03*
X36614Y-47736D03*
X37992Y-48307D03*
X37992Y-53583D03*
X38976Y-50492D03*
X33622Y-51102D03*
X34803Y-48937D03*
X35829Y-48309D03*
X34843Y-45866D03*
G54D19*
X45276Y-48504D02*
X39724Y-48504D01*
X44291Y-50098D02*
X44291Y-51732D01*
X47547Y-54988D02*
X47547Y-55496D01*
X44291Y-51732D02*
X47547Y-54988D01*
X38681Y-46752D02*
X38878Y-46949D01*
X38878Y-46949D02*
X38880Y-48258D01*
X37992Y-46752D02*
X38681Y-46752D01*
X47449Y-50492D02*
X47441Y-50484D01*
X48189Y-47205D02*
X47441Y-46457D01*
X39094Y-49291D02*
X46240Y-49291D01*
X46260Y-49311D02*
X46555Y-49606D01*
X46240Y-49291D02*
X46260Y-49311D01*
X48189Y-49724D02*
X48189Y-47205D01*
X47441Y-50472D02*
X48189Y-49724D01*
X47441Y-50484D02*
X47441Y-50472D01*
X47441Y-50484D02*
X46563Y-49606D01*
X46555Y-49606D02*
X46563Y-49606D01*
X38268Y-54843D02*
X42465Y-54843D01*
X42445Y-54823D02*
X42465Y-54843D01*
X42465Y-54843D02*
X42921Y-55299D01*
X36614Y-53189D02*
X38268Y-54843D01*
X36613Y-53188D02*
X36614Y-53189D01*
X46350Y-55299D02*
X46547Y-55496D01*
X42921Y-55299D02*
X46350Y-55299D01*
X36614Y-53189D02*
X36614Y-47736D01*
X37992Y-48307D02*
X37992Y-53583D01*
X47047Y-56996D02*
X47047Y-55118D01*
X46547Y-57496D02*
X47047Y-56996D01*
X42421Y-50492D02*
X38976Y-50492D01*
X47047Y-55118D02*
X42421Y-50492D01*
X33622Y-50118D02*
X33622Y-51102D01*
X34803Y-48937D02*
X33622Y-50118D01*
X39241Y-43465D02*
X39280Y-43504D01*
X39241Y-41142D02*
X39241Y-43465D01*
X38090Y-55807D02*
X42429Y-55807D01*
X35827Y-48311D02*
X35829Y-48309D01*
X35827Y-48311D02*
X35827Y-52362D01*
X42921Y-56299D02*
X42429Y-55807D01*
X42921Y-56299D02*
X46350Y-56299D01*
X46350Y-56299D02*
X46547Y-56496D01*
X35827Y-53445D02*
X38090Y-55807D01*
X35827Y-52362D02*
X35827Y-53445D01*
X34843Y-45866D02*
X38701Y-45866D01*
X38701Y-45866D02*
X40670Y-47835D01*
X40670Y-47835D02*
X45792Y-47835D01*
X45792Y-47835D02*
X47441Y-49484D01*
G54D10*
G36*
X48576Y-58246D02*
X48500Y-58626D01*
X48407Y-58764D01*
X48407Y-49724D01*
X48407Y-47205D01*
X48406Y-47204D01*
X48390Y-47122D01*
X48389Y-47121D01*
X48373Y-47097D01*
X48343Y-47051D01*
X48343Y-47050D01*
X47884Y-46591D01*
X47884Y-45766D01*
X47884Y-45699D01*
X47884Y-45149D01*
X47859Y-45087D01*
X47811Y-45040D01*
X47750Y-45014D01*
X47683Y-45014D01*
X47133Y-45014D01*
X47071Y-45039D01*
X47024Y-45087D01*
X46998Y-45148D01*
X46998Y-45215D01*
X46998Y-45765D01*
X47023Y-45827D01*
X47071Y-45874D01*
X47132Y-45900D01*
X47199Y-45900D01*
X47749Y-45900D01*
X47811Y-45875D01*
X47858Y-45827D01*
X47884Y-45766D01*
X47884Y-46591D01*
X47869Y-46577D01*
X47883Y-46545D01*
X47883Y-46369D01*
X47816Y-46207D01*
X47691Y-46082D01*
X47529Y-46015D01*
X47353Y-46015D01*
X47191Y-46082D01*
X47066Y-46207D01*
X46999Y-46369D01*
X46999Y-46545D01*
X47066Y-46707D01*
X47191Y-46832D01*
X47353Y-46899D01*
X47529Y-46899D01*
X47561Y-46885D01*
X47971Y-47295D01*
X47971Y-49633D01*
X47884Y-49720D01*
X47884Y-49176D01*
X47876Y-49156D01*
X47876Y-47379D01*
X47813Y-47218D01*
X47804Y-47205D01*
X47730Y-47181D01*
X47717Y-47194D01*
X47717Y-47168D01*
X47693Y-47094D01*
X47535Y-47025D01*
X47363Y-47022D01*
X47202Y-47085D01*
X47189Y-47094D01*
X47165Y-47168D01*
X47441Y-47444D01*
X47717Y-47168D01*
X47717Y-47194D01*
X47454Y-47457D01*
X47730Y-47733D01*
X47804Y-47709D01*
X47873Y-47551D01*
X47876Y-47379D01*
X47876Y-49156D01*
X47859Y-49114D01*
X47811Y-49067D01*
X47750Y-49041D01*
X47717Y-49041D01*
X47717Y-47746D01*
X47441Y-47470D01*
X47428Y-47483D01*
X47428Y-47457D01*
X47152Y-47181D01*
X47078Y-47205D01*
X47009Y-47363D01*
X47006Y-47535D01*
X47069Y-47696D01*
X47078Y-47709D01*
X47152Y-47733D01*
X47428Y-47457D01*
X47428Y-47483D01*
X47165Y-47746D01*
X47189Y-47820D01*
X47347Y-47889D01*
X47519Y-47892D01*
X47680Y-47829D01*
X47693Y-47820D01*
X47717Y-47746D01*
X47717Y-49041D01*
X47683Y-49041D01*
X47306Y-49041D01*
X45946Y-47681D01*
X45875Y-47634D01*
X45792Y-47617D01*
X40760Y-47617D01*
X39722Y-46579D01*
X39722Y-43592D01*
X39722Y-43416D01*
X39655Y-43254D01*
X39530Y-43129D01*
X39459Y-43099D01*
X39459Y-41530D01*
X39491Y-41517D01*
X39616Y-41392D01*
X39683Y-41230D01*
X39683Y-41054D01*
X39616Y-40892D01*
X39491Y-40767D01*
X39329Y-40700D01*
X39153Y-40700D01*
X38991Y-40767D01*
X38866Y-40892D01*
X38799Y-41054D01*
X38799Y-41230D01*
X38866Y-41392D01*
X38991Y-41517D01*
X39023Y-41530D01*
X39023Y-43136D01*
X38905Y-43254D01*
X38838Y-43416D01*
X38838Y-43592D01*
X38905Y-43754D01*
X39030Y-43879D01*
X39192Y-43946D01*
X39368Y-43946D01*
X39530Y-43879D01*
X39655Y-43754D01*
X39722Y-43592D01*
X39722Y-46579D01*
X38855Y-45712D01*
X38784Y-45665D01*
X38723Y-45652D01*
X38723Y-43813D01*
X38723Y-43746D01*
X38723Y-43196D01*
X38698Y-43134D01*
X38684Y-43120D01*
X38684Y-41451D01*
X38684Y-41384D01*
X38684Y-40834D01*
X38659Y-40772D01*
X38611Y-40725D01*
X38550Y-40699D01*
X38483Y-40699D01*
X37933Y-40699D01*
X37871Y-40724D01*
X37824Y-40772D01*
X37798Y-40833D01*
X37798Y-40900D01*
X37798Y-41450D01*
X37823Y-41512D01*
X37871Y-41559D01*
X37932Y-41585D01*
X37999Y-41585D01*
X38549Y-41585D01*
X38611Y-41560D01*
X38658Y-41512D01*
X38684Y-41451D01*
X38684Y-43120D01*
X38650Y-43087D01*
X38589Y-43061D01*
X38522Y-43061D01*
X37972Y-43061D01*
X37910Y-43086D01*
X37863Y-43134D01*
X37837Y-43195D01*
X37837Y-43262D01*
X37837Y-43812D01*
X37862Y-43874D01*
X37910Y-43921D01*
X37971Y-43947D01*
X38038Y-43947D01*
X38588Y-43947D01*
X38650Y-43922D01*
X38697Y-43874D01*
X38723Y-43813D01*
X38723Y-45652D01*
X38701Y-45648D01*
X35109Y-45648D01*
X35037Y-45576D01*
X34911Y-45524D01*
X34775Y-45524D01*
X34649Y-45576D01*
X34553Y-45672D01*
X34501Y-45798D01*
X34501Y-45934D01*
X34553Y-46060D01*
X34649Y-46156D01*
X34775Y-46208D01*
X34911Y-46208D01*
X35037Y-46156D01*
X35109Y-46084D01*
X38610Y-46084D01*
X40515Y-47989D01*
X40516Y-47989D01*
X40562Y-48019D01*
X40586Y-48035D01*
X40587Y-48036D01*
X40670Y-48053D01*
X45702Y-48053D01*
X46998Y-49349D01*
X46998Y-49732D01*
X46717Y-49452D01*
X46693Y-49436D01*
X46414Y-49157D01*
X46394Y-49137D01*
X46323Y-49090D01*
X46240Y-49073D01*
X45618Y-49073D01*
X45618Y-48572D01*
X45618Y-48436D01*
X45566Y-48310D01*
X45470Y-48214D01*
X45344Y-48162D01*
X45208Y-48162D01*
X45082Y-48214D01*
X45010Y-48286D01*
X39990Y-48286D01*
X39918Y-48214D01*
X39792Y-48162D01*
X39656Y-48162D01*
X39530Y-48214D01*
X39434Y-48310D01*
X39382Y-48436D01*
X39382Y-48572D01*
X39434Y-48698D01*
X39530Y-48794D01*
X39656Y-48846D01*
X39792Y-48846D01*
X39918Y-48794D01*
X39990Y-48722D01*
X45010Y-48722D01*
X45082Y-48794D01*
X45208Y-48846D01*
X45344Y-48846D01*
X45470Y-48794D01*
X45566Y-48698D01*
X45618Y-48572D01*
X45618Y-49073D01*
X39360Y-49073D01*
X39288Y-49001D01*
X39222Y-48973D01*
X39222Y-48326D01*
X39222Y-48190D01*
X39170Y-48064D01*
X39097Y-47991D01*
X39096Y-46949D01*
X39079Y-46866D01*
X39078Y-46865D01*
X39062Y-46841D01*
X39032Y-46795D01*
X39032Y-46794D01*
X38835Y-46598D01*
X38764Y-46551D01*
X38681Y-46534D01*
X38258Y-46534D01*
X38186Y-46462D01*
X38060Y-46410D01*
X37924Y-46410D01*
X37798Y-46462D01*
X37702Y-46558D01*
X37650Y-46684D01*
X37650Y-46820D01*
X37702Y-46946D01*
X37798Y-47042D01*
X37924Y-47094D01*
X38060Y-47094D01*
X38186Y-47042D01*
X38258Y-46970D01*
X38590Y-46970D01*
X38660Y-47039D01*
X38661Y-47992D01*
X38590Y-48064D01*
X38538Y-48190D01*
X38538Y-48326D01*
X38590Y-48452D01*
X38686Y-48548D01*
X38812Y-48600D01*
X38948Y-48600D01*
X39074Y-48548D01*
X39170Y-48452D01*
X39222Y-48326D01*
X39222Y-48973D01*
X39162Y-48949D01*
X39026Y-48949D01*
X38900Y-49001D01*
X38804Y-49097D01*
X38752Y-49223D01*
X38752Y-49359D01*
X38804Y-49485D01*
X38900Y-49581D01*
X39026Y-49633D01*
X39162Y-49633D01*
X39288Y-49581D01*
X39360Y-49509D01*
X46150Y-49509D01*
X46401Y-49760D01*
X46424Y-49775D01*
X46425Y-49776D01*
X47012Y-50363D01*
X46999Y-50396D01*
X46999Y-50572D01*
X47066Y-50734D01*
X47191Y-50859D01*
X47353Y-50926D01*
X47529Y-50926D01*
X47691Y-50859D01*
X47816Y-50734D01*
X47883Y-50572D01*
X47883Y-50396D01*
X47866Y-50355D01*
X48343Y-49879D01*
X48343Y-49878D01*
X48373Y-49832D01*
X48389Y-49808D01*
X48390Y-49807D01*
X48406Y-49725D01*
X48407Y-49724D01*
X48407Y-58764D01*
X48298Y-58926D01*
X48015Y-59116D01*
X48015Y-56589D01*
X48015Y-56403D01*
X47944Y-56231D01*
X47812Y-56099D01*
X47640Y-56028D01*
X47454Y-56028D01*
X47282Y-56099D01*
X47265Y-56116D01*
X47265Y-55876D01*
X47282Y-55893D01*
X47454Y-55964D01*
X47640Y-55964D01*
X47812Y-55893D01*
X47944Y-55761D01*
X48015Y-55589D01*
X48015Y-55403D01*
X47944Y-55231D01*
X47876Y-55163D01*
X47876Y-52406D01*
X47876Y-51406D01*
X47813Y-51245D01*
X47804Y-51232D01*
X47730Y-51208D01*
X47717Y-51221D01*
X47717Y-51195D01*
X47693Y-51121D01*
X47535Y-51052D01*
X47363Y-51049D01*
X47202Y-51112D01*
X47189Y-51121D01*
X47165Y-51195D01*
X47441Y-51471D01*
X47717Y-51195D01*
X47717Y-51221D01*
X47454Y-51484D01*
X47730Y-51760D01*
X47804Y-51736D01*
X47873Y-51578D01*
X47876Y-51406D01*
X47876Y-52406D01*
X47813Y-52245D01*
X47804Y-52232D01*
X47730Y-52208D01*
X47717Y-52221D01*
X47717Y-52195D01*
X47717Y-51773D01*
X47441Y-51497D01*
X47428Y-51510D01*
X47428Y-51484D01*
X47152Y-51208D01*
X47078Y-51232D01*
X47009Y-51390D01*
X47006Y-51562D01*
X47069Y-51723D01*
X47078Y-51736D01*
X47152Y-51760D01*
X47428Y-51484D01*
X47428Y-51510D01*
X47165Y-51773D01*
X47189Y-51847D01*
X47347Y-51916D01*
X47519Y-51919D01*
X47680Y-51856D01*
X47693Y-51847D01*
X47717Y-51773D01*
X47717Y-52195D01*
X47693Y-52121D01*
X47535Y-52052D01*
X47363Y-52049D01*
X47202Y-52112D01*
X47189Y-52121D01*
X47165Y-52195D01*
X47441Y-52471D01*
X47717Y-52195D01*
X47717Y-52221D01*
X47454Y-52484D01*
X47730Y-52760D01*
X47804Y-52736D01*
X47873Y-52578D01*
X47876Y-52406D01*
X47876Y-55163D01*
X47812Y-55099D01*
X47765Y-55079D01*
X47765Y-54988D01*
X47748Y-54905D01*
X47747Y-54904D01*
X47731Y-54880D01*
X47717Y-54858D01*
X47717Y-52773D01*
X47441Y-52497D01*
X47428Y-52510D01*
X47428Y-52484D01*
X47152Y-52208D01*
X47078Y-52232D01*
X47009Y-52390D01*
X47006Y-52562D01*
X47069Y-52723D01*
X47078Y-52736D01*
X47152Y-52760D01*
X47428Y-52484D01*
X47428Y-52510D01*
X47165Y-52773D01*
X47189Y-52847D01*
X47347Y-52916D01*
X47519Y-52919D01*
X47680Y-52856D01*
X47693Y-52847D01*
X47717Y-52773D01*
X47717Y-54858D01*
X47701Y-54834D01*
X47701Y-54833D01*
X44509Y-51641D01*
X44509Y-50364D01*
X44581Y-50292D01*
X44633Y-50166D01*
X44633Y-50030D01*
X44581Y-49904D01*
X44485Y-49808D01*
X44359Y-49756D01*
X44223Y-49756D01*
X44097Y-49808D01*
X44001Y-49904D01*
X43949Y-50030D01*
X43949Y-50166D01*
X44001Y-50292D01*
X44073Y-50364D01*
X44073Y-51732D01*
X44090Y-51815D01*
X44137Y-51886D01*
X47329Y-55078D01*
X47329Y-55079D01*
X47282Y-55099D01*
X47264Y-55116D01*
X47248Y-55035D01*
X47248Y-55034D01*
X47201Y-54964D01*
X42575Y-50338D01*
X42504Y-50291D01*
X42421Y-50274D01*
X39242Y-50274D01*
X39170Y-50202D01*
X39044Y-50150D01*
X38908Y-50150D01*
X38782Y-50202D01*
X38686Y-50298D01*
X38634Y-50424D01*
X38634Y-50560D01*
X38686Y-50686D01*
X38782Y-50782D01*
X38908Y-50834D01*
X39044Y-50834D01*
X39170Y-50782D01*
X39242Y-50710D01*
X42331Y-50710D01*
X46649Y-55028D01*
X46214Y-55028D01*
X46152Y-55053D01*
X46124Y-55081D01*
X43382Y-55081D01*
X43382Y-54217D01*
X43316Y-54047D01*
X43304Y-54032D01*
X43228Y-54005D01*
X43215Y-54018D01*
X43215Y-53992D01*
X43188Y-53916D01*
X43021Y-53842D01*
X42839Y-53838D01*
X42669Y-53904D01*
X42654Y-53916D01*
X42627Y-53992D01*
X42921Y-54286D01*
X43215Y-53992D01*
X43215Y-54018D01*
X42934Y-54299D01*
X43228Y-54593D01*
X43304Y-54566D01*
X43378Y-54399D01*
X43382Y-54217D01*
X43382Y-55081D01*
X43337Y-55081D01*
X43318Y-55034D01*
X43215Y-54931D01*
X43215Y-54606D01*
X42921Y-54312D01*
X42908Y-54325D01*
X42908Y-54299D01*
X42614Y-54005D01*
X42538Y-54032D01*
X42464Y-54199D01*
X42460Y-54381D01*
X42526Y-54551D01*
X42538Y-54566D01*
X42614Y-54593D01*
X42908Y-54299D01*
X42908Y-54325D01*
X42627Y-54606D01*
X42654Y-54682D01*
X42821Y-54756D01*
X43003Y-54760D01*
X43173Y-54694D01*
X43188Y-54682D01*
X43215Y-54606D01*
X43215Y-54931D01*
X43186Y-54902D01*
X43014Y-54831D01*
X42828Y-54831D01*
X42780Y-54850D01*
X42619Y-54689D01*
X42599Y-54669D01*
X42528Y-54622D01*
X42445Y-54605D01*
X42362Y-54622D01*
X42357Y-54625D01*
X42257Y-54625D01*
X42318Y-54564D01*
X42389Y-54392D01*
X42389Y-54206D01*
X42318Y-54034D01*
X42186Y-53902D01*
X42014Y-53831D01*
X41828Y-53831D01*
X41656Y-53902D01*
X41524Y-54034D01*
X41453Y-54206D01*
X41453Y-54392D01*
X41524Y-54564D01*
X41585Y-54625D01*
X38358Y-54625D01*
X38334Y-54601D01*
X38334Y-53651D01*
X38334Y-53515D01*
X38282Y-53389D01*
X38210Y-53317D01*
X38210Y-48573D01*
X38282Y-48501D01*
X38334Y-48375D01*
X38334Y-48239D01*
X38282Y-48113D01*
X38186Y-48017D01*
X38060Y-47965D01*
X37924Y-47965D01*
X37798Y-48017D01*
X37702Y-48113D01*
X37650Y-48239D01*
X37650Y-48375D01*
X37702Y-48501D01*
X37774Y-48573D01*
X37774Y-53317D01*
X37702Y-53389D01*
X37650Y-53515D01*
X37650Y-53651D01*
X37702Y-53777D01*
X37798Y-53873D01*
X37924Y-53925D01*
X38060Y-53925D01*
X38186Y-53873D01*
X38282Y-53777D01*
X38334Y-53651D01*
X38334Y-54601D01*
X36832Y-53099D01*
X36832Y-48002D01*
X36904Y-47930D01*
X36956Y-47804D01*
X36956Y-47668D01*
X36904Y-47542D01*
X36808Y-47446D01*
X36682Y-47394D01*
X36546Y-47394D01*
X36420Y-47446D01*
X36324Y-47542D01*
X36272Y-47668D01*
X36272Y-47804D01*
X36324Y-47930D01*
X36396Y-48002D01*
X36396Y-53183D01*
X36395Y-53188D01*
X36412Y-53271D01*
X36413Y-53272D01*
X36459Y-53342D01*
X36460Y-53343D01*
X38114Y-54997D01*
X38184Y-55044D01*
X38185Y-55044D01*
X38268Y-55061D01*
X41512Y-55061D01*
X41453Y-55206D01*
X41453Y-55392D01*
X41524Y-55564D01*
X41549Y-55589D01*
X38184Y-55589D01*
X36045Y-53357D01*
X36045Y-52362D01*
X36045Y-48577D01*
X36119Y-48503D01*
X36171Y-48377D01*
X36171Y-48241D01*
X36119Y-48115D01*
X36023Y-48019D01*
X35897Y-47967D01*
X35761Y-47967D01*
X35635Y-48019D01*
X35539Y-48115D01*
X35487Y-48241D01*
X35487Y-48377D01*
X35539Y-48503D01*
X35609Y-48573D01*
X35609Y-52362D01*
X35609Y-53440D01*
X35609Y-53445D01*
X35615Y-53479D01*
X35624Y-53524D01*
X35625Y-53526D01*
X35626Y-53528D01*
X35641Y-53552D01*
X35670Y-53596D01*
X35673Y-53599D01*
X37931Y-55954D01*
X37934Y-55957D01*
X37936Y-55961D01*
X38003Y-56005D01*
X38007Y-56008D01*
X38086Y-56024D01*
X38090Y-56025D01*
X41533Y-56025D01*
X41524Y-56034D01*
X41453Y-56206D01*
X41453Y-56392D01*
X41524Y-56564D01*
X41656Y-56696D01*
X41828Y-56767D01*
X42014Y-56767D01*
X42186Y-56696D01*
X42318Y-56564D01*
X42389Y-56392D01*
X42389Y-56206D01*
X42318Y-56034D01*
X42309Y-56025D01*
X42338Y-56025D01*
X42472Y-56158D01*
X42453Y-56206D01*
X42453Y-56392D01*
X42524Y-56564D01*
X42656Y-56696D01*
X42828Y-56767D01*
X43014Y-56767D01*
X43186Y-56696D01*
X43318Y-56564D01*
X43337Y-56517D01*
X46079Y-56517D01*
X46079Y-56589D01*
X46150Y-56761D01*
X46282Y-56893D01*
X46454Y-56964D01*
X46640Y-56964D01*
X46812Y-56893D01*
X46829Y-56876D01*
X46829Y-56906D01*
X46687Y-57047D01*
X46640Y-57028D01*
X46454Y-57028D01*
X46282Y-57099D01*
X46150Y-57231D01*
X46079Y-57403D01*
X46079Y-57589D01*
X46150Y-57761D01*
X46282Y-57893D01*
X46454Y-57964D01*
X46640Y-57964D01*
X46812Y-57893D01*
X46944Y-57761D01*
X47015Y-57589D01*
X47015Y-57403D01*
X46995Y-57355D01*
X47201Y-57150D01*
X47248Y-57080D01*
X47248Y-57079D01*
X47265Y-56996D01*
X47265Y-56876D01*
X47282Y-56893D01*
X47454Y-56964D01*
X47640Y-56964D01*
X47812Y-56893D01*
X47944Y-56761D01*
X48015Y-56589D01*
X48015Y-59116D01*
X48008Y-59121D01*
X48008Y-57414D01*
X47942Y-57244D01*
X47930Y-57229D01*
X47854Y-57202D01*
X47841Y-57215D01*
X47841Y-57189D01*
X47814Y-57113D01*
X47647Y-57039D01*
X47465Y-57035D01*
X47295Y-57101D01*
X47280Y-57113D01*
X47253Y-57189D01*
X47547Y-57483D01*
X47841Y-57189D01*
X47841Y-57215D01*
X47560Y-57496D01*
X47854Y-57790D01*
X47930Y-57763D01*
X48004Y-57596D01*
X48008Y-57414D01*
X48008Y-59121D01*
X47995Y-59130D01*
X47841Y-59160D01*
X47841Y-57803D01*
X47547Y-57509D01*
X47534Y-57522D01*
X47534Y-57496D01*
X47240Y-57202D01*
X47164Y-57229D01*
X47090Y-57396D01*
X47086Y-57578D01*
X47152Y-57748D01*
X47164Y-57763D01*
X47240Y-57790D01*
X47534Y-57496D01*
X47534Y-57522D01*
X47253Y-57803D01*
X47280Y-57879D01*
X47447Y-57953D01*
X47629Y-57957D01*
X47799Y-57891D01*
X47814Y-57879D01*
X47841Y-57803D01*
X47841Y-59160D01*
X47615Y-59206D01*
X43389Y-59206D01*
X43389Y-58633D01*
X43389Y-58566D01*
X43389Y-57966D01*
X43389Y-57392D01*
X43389Y-57206D01*
X43318Y-57034D01*
X43186Y-56902D01*
X43014Y-56831D01*
X42828Y-56831D01*
X42656Y-56902D01*
X42524Y-57034D01*
X42453Y-57206D01*
X42453Y-57392D01*
X42524Y-57564D01*
X42656Y-57696D01*
X42828Y-57767D01*
X43014Y-57767D01*
X43186Y-57696D01*
X43318Y-57564D01*
X43389Y-57392D01*
X43389Y-57966D01*
X43364Y-57904D01*
X43316Y-57857D01*
X43255Y-57831D01*
X43188Y-57831D01*
X42588Y-57831D01*
X42526Y-57856D01*
X42479Y-57904D01*
X42453Y-57965D01*
X42453Y-58032D01*
X42453Y-58632D01*
X42478Y-58694D01*
X42526Y-58741D01*
X42587Y-58767D01*
X42654Y-58767D01*
X43254Y-58767D01*
X43316Y-58742D01*
X43363Y-58694D01*
X43389Y-58633D01*
X43389Y-59206D01*
X42389Y-59206D01*
X42389Y-58392D01*
X42389Y-58206D01*
X42389Y-57392D01*
X42389Y-57206D01*
X42318Y-57034D01*
X42186Y-56902D01*
X42014Y-56831D01*
X41828Y-56831D01*
X41656Y-56902D01*
X41524Y-57034D01*
X41453Y-57206D01*
X41453Y-57392D01*
X41524Y-57564D01*
X41656Y-57696D01*
X41828Y-57767D01*
X42014Y-57767D01*
X42186Y-57696D01*
X42318Y-57564D01*
X42389Y-57392D01*
X42389Y-58206D01*
X42318Y-58034D01*
X42186Y-57902D01*
X42014Y-57831D01*
X41828Y-57831D01*
X41656Y-57902D01*
X41524Y-58034D01*
X41453Y-58206D01*
X41453Y-58392D01*
X41524Y-58564D01*
X41656Y-58696D01*
X41828Y-58767D01*
X42014Y-58767D01*
X42186Y-58696D01*
X42318Y-58564D01*
X42389Y-58392D01*
X42389Y-59206D01*
X39943Y-59206D01*
X39943Y-58067D01*
X39943Y-57682D01*
X39796Y-57327D01*
X39524Y-57054D01*
X39169Y-56907D01*
X38784Y-56907D01*
X38429Y-57054D01*
X38156Y-57326D01*
X38009Y-57681D01*
X38009Y-58066D01*
X38156Y-58421D01*
X38428Y-58694D01*
X38783Y-58841D01*
X39168Y-58841D01*
X39523Y-58694D01*
X39796Y-58422D01*
X39943Y-58067D01*
X39943Y-59206D01*
X35385Y-59206D01*
X35385Y-53592D01*
X35145Y-53592D01*
X35145Y-49005D01*
X35145Y-48869D01*
X35093Y-48743D01*
X34997Y-48647D01*
X34871Y-48595D01*
X34735Y-48595D01*
X34609Y-48647D01*
X34513Y-48743D01*
X34461Y-48869D01*
X34461Y-48971D01*
X33468Y-49964D01*
X33421Y-50035D01*
X33404Y-50118D01*
X33404Y-50836D01*
X33332Y-50908D01*
X33280Y-51034D01*
X33280Y-51170D01*
X33332Y-51296D01*
X33428Y-51392D01*
X33554Y-51444D01*
X33690Y-51444D01*
X33816Y-51392D01*
X33912Y-51296D01*
X33964Y-51170D01*
X33964Y-51034D01*
X33912Y-50908D01*
X33840Y-50836D01*
X33840Y-50208D01*
X34769Y-49279D01*
X34871Y-49279D01*
X34997Y-49227D01*
X35093Y-49131D01*
X35145Y-49005D01*
X35145Y-53592D01*
X31940Y-53592D01*
X31940Y-50364D01*
X31940Y-50187D01*
X31940Y-48632D01*
X31940Y-48455D01*
X31873Y-48292D01*
X31748Y-48167D01*
X31585Y-48099D01*
X31408Y-48099D01*
X31245Y-48166D01*
X31120Y-48291D01*
X31052Y-48454D01*
X31052Y-48631D01*
X31119Y-48794D01*
X31244Y-48919D01*
X31407Y-48987D01*
X31584Y-48987D01*
X31747Y-48920D01*
X31872Y-48795D01*
X31940Y-48632D01*
X31940Y-50187D01*
X31873Y-50024D01*
X31748Y-49899D01*
X31585Y-49831D01*
X31408Y-49831D01*
X31245Y-49898D01*
X31120Y-50023D01*
X31052Y-50186D01*
X31052Y-50363D01*
X31119Y-50526D01*
X31244Y-50651D01*
X31407Y-50719D01*
X31584Y-50719D01*
X31747Y-50652D01*
X31872Y-50527D01*
X31940Y-50364D01*
X31940Y-53592D01*
X29377Y-53592D01*
X29377Y-41207D01*
X29495Y-41492D01*
X29767Y-41765D01*
X30122Y-41912D01*
X30507Y-41912D01*
X30862Y-41765D01*
X31135Y-41493D01*
X31282Y-41138D01*
X31282Y-40753D01*
X31135Y-40398D01*
X30863Y-40125D01*
X30578Y-40007D01*
X47375Y-40007D01*
X47091Y-40125D01*
X46818Y-40397D01*
X46671Y-40752D01*
X46671Y-41137D01*
X46818Y-41492D01*
X47090Y-41765D01*
X47445Y-41912D01*
X47830Y-41912D01*
X48185Y-41765D01*
X48458Y-41493D01*
X48576Y-41208D01*
X48576Y-58246D01*
X48576Y-58246D01*
G37*
G54D19*
X48576Y-58246D02*
X48500Y-58626D01*
X48407Y-58764D01*
X48407Y-49724D01*
X48407Y-47205D01*
X48406Y-47204D01*
X48390Y-47122D01*
X48389Y-47121D01*
X48373Y-47097D01*
X48343Y-47051D01*
X48343Y-47050D01*
X47884Y-46591D01*
X47884Y-45766D01*
X47884Y-45699D01*
X47884Y-45149D01*
X47859Y-45087D01*
X47811Y-45040D01*
X47750Y-45014D01*
X47683Y-45014D01*
X47133Y-45014D01*
X47071Y-45039D01*
X47024Y-45087D01*
X46998Y-45148D01*
X46998Y-45215D01*
X46998Y-45765D01*
X47023Y-45827D01*
X47071Y-45874D01*
X47132Y-45900D01*
X47199Y-45900D01*
X47749Y-45900D01*
X47811Y-45875D01*
X47858Y-45827D01*
X47884Y-45766D01*
X47884Y-46591D01*
X47869Y-46577D01*
X47883Y-46545D01*
X47883Y-46369D01*
X47816Y-46207D01*
X47691Y-46082D01*
X47529Y-46015D01*
X47353Y-46015D01*
X47191Y-46082D01*
X47066Y-46207D01*
X46999Y-46369D01*
X46999Y-46545D01*
X47066Y-46707D01*
X47191Y-46832D01*
X47353Y-46899D01*
X47529Y-46899D01*
X47561Y-46885D01*
X47971Y-47295D01*
X47971Y-49633D01*
X47884Y-49720D01*
X47884Y-49176D01*
X47876Y-49156D01*
X47876Y-47379D01*
X47813Y-47218D01*
X47804Y-47205D01*
X47730Y-47181D01*
X47717Y-47194D01*
X47717Y-47168D01*
X47693Y-47094D01*
X47535Y-47025D01*
X47363Y-47022D01*
X47202Y-47085D01*
X47189Y-47094D01*
X47165Y-47168D01*
X47441Y-47444D01*
X47717Y-47168D01*
X47717Y-47194D01*
X47454Y-47457D01*
X47730Y-47733D01*
X47804Y-47709D01*
X47873Y-47551D01*
X47876Y-47379D01*
X47876Y-49156D01*
X47859Y-49114D01*
X47811Y-49067D01*
X47750Y-49041D01*
X47717Y-49041D01*
X47717Y-47746D01*
X47441Y-47470D01*
X47428Y-47483D01*
X47428Y-47457D01*
X47152Y-47181D01*
X47078Y-47205D01*
X47009Y-47363D01*
X47006Y-47535D01*
X47069Y-47696D01*
X47078Y-47709D01*
X47152Y-47733D01*
X47428Y-47457D01*
X47428Y-47483D01*
X47165Y-47746D01*
X47189Y-47820D01*
X47347Y-47889D01*
X47519Y-47892D01*
X47680Y-47829D01*
X47693Y-47820D01*
X47717Y-47746D01*
X47717Y-49041D01*
X47683Y-49041D01*
X47306Y-49041D01*
X45946Y-47681D01*
X45875Y-47634D01*
X45792Y-47617D01*
X40760Y-47617D01*
X39722Y-46579D01*
X39722Y-43592D01*
X39722Y-43416D01*
X39655Y-43254D01*
X39530Y-43129D01*
X39459Y-43099D01*
X39459Y-41530D01*
X39491Y-41517D01*
X39616Y-41392D01*
X39683Y-41230D01*
X39683Y-41054D01*
X39616Y-40892D01*
X39491Y-40767D01*
X39329Y-40700D01*
X39153Y-40700D01*
X38991Y-40767D01*
X38866Y-40892D01*
X38799Y-41054D01*
X38799Y-41230D01*
X38866Y-41392D01*
X38991Y-41517D01*
X39023Y-41530D01*
X39023Y-43136D01*
X38905Y-43254D01*
X38838Y-43416D01*
X38838Y-43592D01*
X38905Y-43754D01*
X39030Y-43879D01*
X39192Y-43946D01*
X39368Y-43946D01*
X39530Y-43879D01*
X39655Y-43754D01*
X39722Y-43592D01*
X39722Y-46579D01*
X38855Y-45712D01*
X38784Y-45665D01*
X38723Y-45652D01*
X38723Y-43813D01*
X38723Y-43746D01*
X38723Y-43196D01*
X38698Y-43134D01*
X38684Y-43120D01*
X38684Y-41451D01*
X38684Y-41384D01*
X38684Y-40834D01*
X38659Y-40772D01*
X38611Y-40725D01*
X38550Y-40699D01*
X38483Y-40699D01*
X37933Y-40699D01*
X37871Y-40724D01*
X37824Y-40772D01*
X37798Y-40833D01*
X37798Y-40900D01*
X37798Y-41450D01*
X37823Y-41512D01*
X37871Y-41559D01*
X37932Y-41585D01*
X37999Y-41585D01*
X38549Y-41585D01*
X38611Y-41560D01*
X38658Y-41512D01*
X38684Y-41451D01*
X38684Y-43120D01*
X38650Y-43087D01*
X38589Y-43061D01*
X38522Y-43061D01*
X37972Y-43061D01*
X37910Y-43086D01*
X37863Y-43134D01*
X37837Y-43195D01*
X37837Y-43262D01*
X37837Y-43812D01*
X37862Y-43874D01*
X37910Y-43921D01*
X37971Y-43947D01*
X38038Y-43947D01*
X38588Y-43947D01*
X38650Y-43922D01*
X38697Y-43874D01*
X38723Y-43813D01*
X38723Y-45652D01*
X38701Y-45648D01*
X35109Y-45648D01*
X35037Y-45576D01*
X34911Y-45524D01*
X34775Y-45524D01*
X34649Y-45576D01*
X34553Y-45672D01*
X34501Y-45798D01*
X34501Y-45934D01*
X34553Y-46060D01*
X34649Y-46156D01*
X34775Y-46208D01*
X34911Y-46208D01*
X35037Y-46156D01*
X35109Y-46084D01*
X38610Y-46084D01*
X40515Y-47989D01*
X40516Y-47989D01*
X40562Y-48019D01*
X40586Y-48035D01*
X40587Y-48036D01*
X40670Y-48053D01*
X45702Y-48053D01*
X46998Y-49349D01*
X46998Y-49732D01*
X46717Y-49452D01*
X46693Y-49436D01*
X46414Y-49157D01*
X46394Y-49137D01*
X46323Y-49090D01*
X46240Y-49073D01*
X45618Y-49073D01*
X45618Y-48572D01*
X45618Y-48436D01*
X45566Y-48310D01*
X45470Y-48214D01*
X45344Y-48162D01*
X45208Y-48162D01*
X45082Y-48214D01*
X45010Y-48286D01*
X39990Y-48286D01*
X39918Y-48214D01*
X39792Y-48162D01*
X39656Y-48162D01*
X39530Y-48214D01*
X39434Y-48310D01*
X39382Y-48436D01*
X39382Y-48572D01*
X39434Y-48698D01*
X39530Y-48794D01*
X39656Y-48846D01*
X39792Y-48846D01*
X39918Y-48794D01*
X39990Y-48722D01*
X45010Y-48722D01*
X45082Y-48794D01*
X45208Y-48846D01*
X45344Y-48846D01*
X45470Y-48794D01*
X45566Y-48698D01*
X45618Y-48572D01*
X45618Y-49073D01*
X39360Y-49073D01*
X39288Y-49001D01*
X39222Y-48973D01*
X39222Y-48326D01*
X39222Y-48190D01*
X39170Y-48064D01*
X39097Y-47991D01*
X39096Y-46949D01*
X39079Y-46866D01*
X39078Y-46865D01*
X39062Y-46841D01*
X39032Y-46795D01*
X39032Y-46794D01*
X38835Y-46598D01*
X38764Y-46551D01*
X38681Y-46534D01*
X38258Y-46534D01*
X38186Y-46462D01*
X38060Y-46410D01*
X37924Y-46410D01*
X37798Y-46462D01*
X37702Y-46558D01*
X37650Y-46684D01*
X37650Y-46820D01*
X37702Y-46946D01*
X37798Y-47042D01*
X37924Y-47094D01*
X38060Y-47094D01*
X38186Y-47042D01*
X38258Y-46970D01*
X38590Y-46970D01*
X38660Y-47039D01*
X38661Y-47992D01*
X38590Y-48064D01*
X38538Y-48190D01*
X38538Y-48326D01*
X38590Y-48452D01*
X38686Y-48548D01*
X38812Y-48600D01*
X38948Y-48600D01*
X39074Y-48548D01*
X39170Y-48452D01*
X39222Y-48326D01*
X39222Y-48973D01*
X39162Y-48949D01*
X39026Y-48949D01*
X38900Y-49001D01*
X38804Y-49097D01*
X38752Y-49223D01*
X38752Y-49359D01*
X38804Y-49485D01*
X38900Y-49581D01*
X39026Y-49633D01*
X39162Y-49633D01*
X39288Y-49581D01*
X39360Y-49509D01*
X46150Y-49509D01*
X46401Y-49760D01*
X46424Y-49775D01*
X46425Y-49776D01*
X47012Y-50363D01*
X46999Y-50396D01*
X46999Y-50572D01*
X47066Y-50734D01*
X47191Y-50859D01*
X47353Y-50926D01*
X47529Y-50926D01*
X47691Y-50859D01*
X47816Y-50734D01*
X47883Y-50572D01*
X47883Y-50396D01*
X47866Y-50355D01*
X48343Y-49879D01*
X48343Y-49878D01*
X48373Y-49832D01*
X48389Y-49808D01*
X48390Y-49807D01*
X48406Y-49725D01*
X48407Y-49724D01*
X48407Y-58764D01*
X48298Y-58926D01*
X48015Y-59116D01*
X48015Y-56589D01*
X48015Y-56403D01*
X47944Y-56231D01*
X47812Y-56099D01*
X47640Y-56028D01*
X47454Y-56028D01*
X47282Y-56099D01*
X47265Y-56116D01*
X47265Y-55876D01*
X47282Y-55893D01*
X47454Y-55964D01*
X47640Y-55964D01*
X47812Y-55893D01*
X47944Y-55761D01*
X48015Y-55589D01*
X48015Y-55403D01*
X47944Y-55231D01*
X47876Y-55163D01*
X47876Y-52406D01*
X47876Y-51406D01*
X47813Y-51245D01*
X47804Y-51232D01*
X47730Y-51208D01*
X47717Y-51221D01*
X47717Y-51195D01*
X47693Y-51121D01*
X47535Y-51052D01*
X47363Y-51049D01*
X47202Y-51112D01*
X47189Y-51121D01*
X47165Y-51195D01*
X47441Y-51471D01*
X47717Y-51195D01*
X47717Y-51221D01*
X47454Y-51484D01*
X47730Y-51760D01*
X47804Y-51736D01*
X47873Y-51578D01*
X47876Y-51406D01*
X47876Y-52406D01*
X47813Y-52245D01*
X47804Y-52232D01*
X47730Y-52208D01*
X47717Y-52221D01*
X47717Y-52195D01*
X47717Y-51773D01*
X47441Y-51497D01*
X47428Y-51510D01*
X47428Y-51484D01*
X47152Y-51208D01*
X47078Y-51232D01*
X47009Y-51390D01*
X47006Y-51562D01*
X47069Y-51723D01*
X47078Y-51736D01*
X47152Y-51760D01*
X47428Y-51484D01*
X47428Y-51510D01*
X47165Y-51773D01*
X47189Y-51847D01*
X47347Y-51916D01*
X47519Y-51919D01*
X47680Y-51856D01*
X47693Y-51847D01*
X47717Y-51773D01*
X47717Y-52195D01*
X47693Y-52121D01*
X47535Y-52052D01*
X47363Y-52049D01*
X47202Y-52112D01*
X47189Y-52121D01*
X47165Y-52195D01*
X47441Y-52471D01*
X47717Y-52195D01*
X47717Y-52221D01*
X47454Y-52484D01*
X47730Y-52760D01*
X47804Y-52736D01*
X47873Y-52578D01*
X47876Y-52406D01*
X47876Y-55163D01*
X47812Y-55099D01*
X47765Y-55079D01*
X47765Y-54988D01*
X47748Y-54905D01*
X47747Y-54904D01*
X47731Y-54880D01*
X47717Y-54858D01*
X47717Y-52773D01*
X47441Y-52497D01*
X47428Y-52510D01*
X47428Y-52484D01*
X47152Y-52208D01*
X47078Y-52232D01*
X47009Y-52390D01*
X47006Y-52562D01*
X47069Y-52723D01*
X47078Y-52736D01*
X47152Y-52760D01*
X47428Y-52484D01*
X47428Y-52510D01*
X47165Y-52773D01*
X47189Y-52847D01*
X47347Y-52916D01*
X47519Y-52919D01*
X47680Y-52856D01*
X47693Y-52847D01*
X47717Y-52773D01*
X47717Y-54858D01*
X47701Y-54834D01*
X47701Y-54833D01*
X44509Y-51641D01*
X44509Y-50364D01*
X44581Y-50292D01*
X44633Y-50166D01*
X44633Y-50030D01*
X44581Y-49904D01*
X44485Y-49808D01*
X44359Y-49756D01*
X44223Y-49756D01*
X44097Y-49808D01*
X44001Y-49904D01*
X43949Y-50030D01*
X43949Y-50166D01*
X44001Y-50292D01*
X44073Y-50364D01*
X44073Y-51732D01*
X44090Y-51815D01*
X44137Y-51886D01*
X47329Y-55078D01*
X47329Y-55079D01*
X47282Y-55099D01*
X47264Y-55116D01*
X47248Y-55035D01*
X47248Y-55034D01*
X47201Y-54964D01*
X42575Y-50338D01*
X42504Y-50291D01*
X42421Y-50274D01*
X39242Y-50274D01*
X39170Y-50202D01*
X39044Y-50150D01*
X38908Y-50150D01*
X38782Y-50202D01*
X38686Y-50298D01*
X38634Y-50424D01*
X38634Y-50560D01*
X38686Y-50686D01*
X38782Y-50782D01*
X38908Y-50834D01*
X39044Y-50834D01*
X39170Y-50782D01*
X39242Y-50710D01*
X42331Y-50710D01*
X46649Y-55028D01*
X46214Y-55028D01*
X46152Y-55053D01*
X46124Y-55081D01*
X43382Y-55081D01*
X43382Y-54217D01*
X43316Y-54047D01*
X43304Y-54032D01*
X43228Y-54005D01*
X43215Y-54018D01*
X43215Y-53992D01*
X43188Y-53916D01*
X43021Y-53842D01*
X42839Y-53838D01*
X42669Y-53904D01*
X42654Y-53916D01*
X42627Y-53992D01*
X42921Y-54286D01*
X43215Y-53992D01*
X43215Y-54018D01*
X42934Y-54299D01*
X43228Y-54593D01*
X43304Y-54566D01*
X43378Y-54399D01*
X43382Y-54217D01*
X43382Y-55081D01*
X43337Y-55081D01*
X43318Y-55034D01*
X43215Y-54931D01*
X43215Y-54606D01*
X42921Y-54312D01*
X42908Y-54325D01*
X42908Y-54299D01*
X42614Y-54005D01*
X42538Y-54032D01*
X42464Y-54199D01*
X42460Y-54381D01*
X42526Y-54551D01*
X42538Y-54566D01*
X42614Y-54593D01*
X42908Y-54299D01*
X42908Y-54325D01*
X42627Y-54606D01*
X42654Y-54682D01*
X42821Y-54756D01*
X43003Y-54760D01*
X43173Y-54694D01*
X43188Y-54682D01*
X43215Y-54606D01*
X43215Y-54931D01*
X43186Y-54902D01*
X43014Y-54831D01*
X42828Y-54831D01*
X42780Y-54850D01*
X42619Y-54689D01*
X42599Y-54669D01*
X42528Y-54622D01*
X42445Y-54605D01*
X42362Y-54622D01*
X42357Y-54625D01*
X42257Y-54625D01*
X42318Y-54564D01*
X42389Y-54392D01*
X42389Y-54206D01*
X42318Y-54034D01*
X42186Y-53902D01*
X42014Y-53831D01*
X41828Y-53831D01*
X41656Y-53902D01*
X41524Y-54034D01*
X41453Y-54206D01*
X41453Y-54392D01*
X41524Y-54564D01*
X41585Y-54625D01*
X38358Y-54625D01*
X38334Y-54601D01*
X38334Y-53651D01*
X38334Y-53515D01*
X38282Y-53389D01*
X38210Y-53317D01*
X38210Y-48573D01*
X38282Y-48501D01*
X38334Y-48375D01*
X38334Y-48239D01*
X38282Y-48113D01*
X38186Y-48017D01*
X38060Y-47965D01*
X37924Y-47965D01*
X37798Y-48017D01*
X37702Y-48113D01*
X37650Y-48239D01*
X37650Y-48375D01*
X37702Y-48501D01*
X37774Y-48573D01*
X37774Y-53317D01*
X37702Y-53389D01*
X37650Y-53515D01*
X37650Y-53651D01*
X37702Y-53777D01*
X37798Y-53873D01*
X37924Y-53925D01*
X38060Y-53925D01*
X38186Y-53873D01*
X38282Y-53777D01*
X38334Y-53651D01*
X38334Y-54601D01*
X36832Y-53099D01*
X36832Y-48002D01*
X36904Y-47930D01*
X36956Y-47804D01*
X36956Y-47668D01*
X36904Y-47542D01*
X36808Y-47446D01*
X36682Y-47394D01*
X36546Y-47394D01*
X36420Y-47446D01*
X36324Y-47542D01*
X36272Y-47668D01*
X36272Y-47804D01*
X36324Y-47930D01*
X36396Y-48002D01*
X36396Y-53183D01*
X36395Y-53188D01*
X36412Y-53271D01*
X36413Y-53272D01*
X36459Y-53342D01*
X36460Y-53343D01*
X38114Y-54997D01*
X38184Y-55044D01*
X38185Y-55044D01*
X38268Y-55061D01*
X41512Y-55061D01*
X41453Y-55206D01*
X41453Y-55392D01*
X41524Y-55564D01*
X41549Y-55589D01*
X38184Y-55589D01*
X36045Y-53357D01*
X36045Y-52362D01*
X36045Y-48577D01*
X36119Y-48503D01*
X36171Y-48377D01*
X36171Y-48241D01*
X36119Y-48115D01*
X36023Y-48019D01*
X35897Y-47967D01*
X35761Y-47967D01*
X35635Y-48019D01*
X35539Y-48115D01*
X35487Y-48241D01*
X35487Y-48377D01*
X35539Y-48503D01*
X35609Y-48573D01*
X35609Y-52362D01*
X35609Y-53440D01*
X35609Y-53445D01*
X35615Y-53479D01*
X35624Y-53524D01*
X35625Y-53526D01*
X35626Y-53528D01*
X35641Y-53552D01*
X35670Y-53596D01*
X35673Y-53599D01*
X37931Y-55954D01*
X37934Y-55957D01*
X37936Y-55961D01*
X38003Y-56005D01*
X38007Y-56008D01*
X38086Y-56024D01*
X38090Y-56025D01*
X41533Y-56025D01*
X41524Y-56034D01*
X41453Y-56206D01*
X41453Y-56392D01*
X41524Y-56564D01*
X41656Y-56696D01*
X41828Y-56767D01*
X42014Y-56767D01*
X42186Y-56696D01*
X42318Y-56564D01*
X42389Y-56392D01*
X42389Y-56206D01*
X42318Y-56034D01*
X42309Y-56025D01*
X42338Y-56025D01*
X42472Y-56158D01*
X42453Y-56206D01*
X42453Y-56392D01*
X42524Y-56564D01*
X42656Y-56696D01*
X42828Y-56767D01*
X43014Y-56767D01*
X43186Y-56696D01*
X43318Y-56564D01*
X43337Y-56517D01*
X46079Y-56517D01*
X46079Y-56589D01*
X46150Y-56761D01*
X46282Y-56893D01*
X46454Y-56964D01*
X46640Y-56964D01*
X46812Y-56893D01*
X46829Y-56876D01*
X46829Y-56906D01*
X46687Y-57047D01*
X46640Y-57028D01*
X46454Y-57028D01*
X46282Y-57099D01*
X46150Y-57231D01*
X46079Y-57403D01*
X46079Y-57589D01*
X46150Y-57761D01*
X46282Y-57893D01*
X46454Y-57964D01*
X46640Y-57964D01*
X46812Y-57893D01*
X46944Y-57761D01*
X47015Y-57589D01*
X47015Y-57403D01*
X46995Y-57355D01*
X47201Y-57150D01*
X47248Y-57080D01*
X47248Y-57079D01*
X47265Y-56996D01*
X47265Y-56876D01*
X47282Y-56893D01*
X47454Y-56964D01*
X47640Y-56964D01*
X47812Y-56893D01*
X47944Y-56761D01*
X48015Y-56589D01*
X48015Y-59116D01*
X48008Y-59121D01*
X48008Y-57414D01*
X47942Y-57244D01*
X47930Y-57229D01*
X47854Y-57202D01*
X47841Y-57215D01*
X47841Y-57189D01*
X47814Y-57113D01*
X47647Y-57039D01*
X47465Y-57035D01*
X47295Y-57101D01*
X47280Y-57113D01*
X47253Y-57189D01*
X47547Y-57483D01*
X47841Y-57189D01*
X47841Y-57215D01*
X47560Y-57496D01*
X47854Y-57790D01*
X47930Y-57763D01*
X48004Y-57596D01*
X48008Y-57414D01*
X48008Y-59121D01*
X47995Y-59130D01*
X47841Y-59160D01*
X47841Y-57803D01*
X47547Y-57509D01*
X47534Y-57522D01*
X47534Y-57496D01*
X47240Y-57202D01*
X47164Y-57229D01*
X47090Y-57396D01*
X47086Y-57578D01*
X47152Y-57748D01*
X47164Y-57763D01*
X47240Y-57790D01*
X47534Y-57496D01*
X47534Y-57522D01*
X47253Y-57803D01*
X47280Y-57879D01*
X47447Y-57953D01*
X47629Y-57957D01*
X47799Y-57891D01*
X47814Y-57879D01*
X47841Y-57803D01*
X47841Y-59160D01*
X47615Y-59206D01*
X43389Y-59206D01*
X43389Y-58633D01*
X43389Y-58566D01*
X43389Y-57966D01*
X43389Y-57392D01*
X43389Y-57206D01*
X43318Y-57034D01*
X43186Y-56902D01*
X43014Y-56831D01*
X42828Y-56831D01*
X42656Y-56902D01*
X42524Y-57034D01*
X42453Y-57206D01*
X42453Y-57392D01*
X42524Y-57564D01*
X42656Y-57696D01*
X42828Y-57767D01*
X43014Y-57767D01*
X43186Y-57696D01*
X43318Y-57564D01*
X43389Y-57392D01*
X43389Y-57966D01*
X43364Y-57904D01*
X43316Y-57857D01*
X43255Y-57831D01*
X43188Y-57831D01*
X42588Y-57831D01*
X42526Y-57856D01*
X42479Y-57904D01*
X42453Y-57965D01*
X42453Y-58032D01*
X42453Y-58632D01*
X42478Y-58694D01*
X42526Y-58741D01*
X42587Y-58767D01*
X42654Y-58767D01*
X43254Y-58767D01*
X43316Y-58742D01*
X43363Y-58694D01*
X43389Y-58633D01*
X43389Y-59206D01*
X42389Y-59206D01*
X42389Y-58392D01*
X42389Y-58206D01*
X42389Y-57392D01*
X42389Y-57206D01*
X42318Y-57034D01*
X42186Y-56902D01*
X42014Y-56831D01*
X41828Y-56831D01*
X41656Y-56902D01*
X41524Y-57034D01*
X41453Y-57206D01*
X41453Y-57392D01*
X41524Y-57564D01*
X41656Y-57696D01*
X41828Y-57767D01*
X42014Y-57767D01*
X42186Y-57696D01*
X42318Y-57564D01*
X42389Y-57392D01*
X42389Y-58206D01*
X42318Y-58034D01*
X42186Y-57902D01*
X42014Y-57831D01*
X41828Y-57831D01*
X41656Y-57902D01*
X41524Y-58034D01*
X41453Y-58206D01*
X41453Y-58392D01*
X41524Y-58564D01*
X41656Y-58696D01*
X41828Y-58767D01*
X42014Y-58767D01*
X42186Y-58696D01*
X42318Y-58564D01*
X42389Y-58392D01*
X42389Y-59206D01*
X39943Y-59206D01*
X39943Y-58067D01*
X39943Y-57682D01*
X39796Y-57327D01*
X39524Y-57054D01*
X39169Y-56907D01*
X38784Y-56907D01*
X38429Y-57054D01*
X38156Y-57326D01*
X38009Y-57681D01*
X38009Y-58066D01*
X38156Y-58421D01*
X38428Y-58694D01*
X38783Y-58841D01*
X39168Y-58841D01*
X39523Y-58694D01*
X39796Y-58422D01*
X39943Y-58067D01*
X39943Y-59206D01*
X35385Y-59206D01*
X35385Y-53592D01*
X35145Y-53592D01*
X35145Y-49005D01*
X35145Y-48869D01*
X35093Y-48743D01*
X34997Y-48647D01*
X34871Y-48595D01*
X34735Y-48595D01*
X34609Y-48647D01*
X34513Y-48743D01*
X34461Y-48869D01*
X34461Y-48971D01*
X33468Y-49964D01*
X33421Y-50035D01*
X33404Y-50118D01*
X33404Y-50836D01*
X33332Y-50908D01*
X33280Y-51034D01*
X33280Y-51170D01*
X33332Y-51296D01*
X33428Y-51392D01*
X33554Y-51444D01*
X33690Y-51444D01*
X33816Y-51392D01*
X33912Y-51296D01*
X33964Y-51170D01*
X33964Y-51034D01*
X33912Y-50908D01*
X33840Y-50836D01*
X33840Y-50208D01*
X34769Y-49279D01*
X34871Y-49279D01*
X34997Y-49227D01*
X35093Y-49131D01*
X35145Y-49005D01*
X35145Y-53592D01*
X31940Y-53592D01*
X31940Y-50364D01*
X31940Y-50187D01*
X31940Y-48632D01*
X31940Y-48455D01*
X31873Y-48292D01*
X31748Y-48167D01*
X31585Y-48099D01*
X31408Y-48099D01*
X31245Y-48166D01*
X31120Y-48291D01*
X31052Y-48454D01*
X31052Y-48631D01*
X31119Y-48794D01*
X31244Y-48919D01*
X31407Y-48987D01*
X31584Y-48987D01*
X31747Y-48920D01*
X31872Y-48795D01*
X31940Y-48632D01*
X31940Y-50187D01*
X31873Y-50024D01*
X31748Y-49899D01*
X31585Y-49831D01*
X31408Y-49831D01*
X31245Y-49898D01*
X31120Y-50023D01*
X31052Y-50186D01*
X31052Y-50363D01*
X31119Y-50526D01*
X31244Y-50651D01*
X31407Y-50719D01*
X31584Y-50719D01*
X31747Y-50652D01*
X31872Y-50527D01*
X31940Y-50364D01*
X31940Y-53592D01*
X29377Y-53592D01*
X29377Y-41207D01*
X29495Y-41492D01*
X29767Y-41765D01*
X30122Y-41912D01*
X30507Y-41912D01*
X30862Y-41765D01*
X31135Y-41493D01*
X31282Y-41138D01*
X31282Y-40753D01*
X31135Y-40398D01*
X30863Y-40125D01*
X30578Y-40007D01*
X47375Y-40007D01*
X47091Y-40125D01*
X46818Y-40397D01*
X46671Y-40752D01*
X46671Y-41137D01*
X46818Y-41492D01*
X47090Y-41765D01*
X47445Y-41912D01*
X47830Y-41912D01*
X48185Y-41765D01*
X48458Y-41493D01*
X48576Y-41208D01*
X48576Y-58246D01*
M02*
