M48
;DRILL file {Pcbnew (2012-01-19 BZR 3256)-stable} date 21-08-2012 11:16:49
;FORMAT={2:4/ absolute / inch / suppress leading zeros}
FMAT,2
INCH,TZ
T1C0.016
T2C0.032
T3C0.035
T4C0.040
T5C0.120
%
G90
G05
M72
T1
X34882Y-51142
X34921Y-49685
X36026Y-48309
X36811Y-47736
X36929Y-46339
X37244Y-51378
X38189Y-46752
X38189Y-48307
X38386Y-49646
X38465Y-49055
X38465Y-50118
X38937Y-52362
X39077Y-48258
X39173Y-50492
X39291Y-49291
X39882Y-54409
X39921Y-48504
X42441Y-55315
X42559Y-51732
X42756Y-44134
X42835Y-47441
X43622Y-53307
X43819Y-48937
X43977Y-52047
X44488Y-50098
X45079Y-50118
X45473Y-48504
X45512Y-47441
X48189Y-47402
T2
X46453Y-43531
X46453Y-44531
X46453Y-45531
X46453Y-46531
X46453Y-47531
X46453Y-48531
X46453Y-49531
X46453Y-50531
X46453Y-51531
X46453Y-52531
X49453Y-43531
X49453Y-44531
X49453Y-45531
X49453Y-46531
X49453Y-47531
X49453Y-48531
X49453Y-49531
X49453Y-50531
X49453Y-51531
X49453Y-52531
X51575Y-45457
X51575Y-46457
X51575Y-47457
X51575Y-49484
X51575Y-50484
X51575Y-51484
X51575Y-52484
T3
X34843Y-48504
X34843Y-50236
T4
X45878Y-54299
X45878Y-55299
X45878Y-56299
X45878Y-57299
X45878Y-58299
X46878Y-54299
X46878Y-55299
X46878Y-56299
X46878Y-57299
X46878Y-58299
X50484Y-55496
X50484Y-56496
X50484Y-57496
X51484Y-55496
X51484Y-56496
X51484Y-57496
T5
X34882Y-41378
X40197Y-57795
X51103Y-41378
T0
M30
