G04 (created by PCBNEW-RS274X (2012-01-19 BZR 3256)-stable) date 21-08-2012 11:16:43*
G01*
G70*
G90*
%MOIN*%
G04 Gerber Fmt 3.4, Leading zero omitted, Abs format*
%FSLAX34Y34*%
G04 APERTURE LIST*
%ADD10C,0.006000*%
%ADD11C,0.015000*%
%ADD12C,0.055400*%
%ADD13R,0.055000X0.055000*%
%ADD14C,0.055000*%
%ADD15R,0.060000X0.060000*%
%ADD16C,0.060000*%
%ADD17C,0.160000*%
%ADD18C,0.031500*%
%ADD19C,0.035000*%
%ADD20C,0.010000*%
G04 APERTURE END LIST*
G54D10*
G54D11*
X51378Y-59449D02*
X51480Y-59444D01*
X51583Y-59431D01*
X51683Y-59408D01*
X51781Y-59377D01*
X51877Y-59338D01*
X51968Y-59290D01*
X52055Y-59235D01*
X52137Y-59172D01*
X52213Y-59103D01*
X52282Y-59027D01*
X52345Y-58945D01*
X52400Y-58858D01*
X52448Y-58767D01*
X52487Y-58671D01*
X52518Y-58573D01*
X52541Y-58473D01*
X52554Y-58370D01*
X52559Y-58268D01*
X52559Y-40945D02*
X52554Y-40843D01*
X52541Y-40740D01*
X52518Y-40640D01*
X52487Y-40542D01*
X52448Y-40446D01*
X52400Y-40355D01*
X52345Y-40268D01*
X52282Y-40186D01*
X52213Y-40110D01*
X52137Y-40041D01*
X52055Y-39978D01*
X51968Y-39923D01*
X51877Y-39875D01*
X51781Y-39836D01*
X51683Y-39805D01*
X51583Y-39782D01*
X51480Y-39769D01*
X51378Y-39764D01*
X32874Y-58268D02*
X32879Y-58370D01*
X32892Y-58473D01*
X32915Y-58573D01*
X32946Y-58671D01*
X32985Y-58767D01*
X33033Y-58858D01*
X33088Y-58945D01*
X33151Y-59027D01*
X33220Y-59103D01*
X33296Y-59172D01*
X33378Y-59235D01*
X33465Y-59290D01*
X33556Y-59338D01*
X33652Y-59377D01*
X33750Y-59408D01*
X33850Y-59431D01*
X33953Y-59444D01*
X34055Y-59449D01*
X34055Y-39764D02*
X33953Y-39769D01*
X33850Y-39782D01*
X33750Y-39805D01*
X33652Y-39836D01*
X33556Y-39875D01*
X33465Y-39923D01*
X33378Y-39978D01*
X33296Y-40041D01*
X33220Y-40110D01*
X33151Y-40186D01*
X33088Y-40268D01*
X33033Y-40355D01*
X32985Y-40446D01*
X32946Y-40542D01*
X32915Y-40640D01*
X32892Y-40740D01*
X32879Y-40843D01*
X32874Y-40945D01*
X32874Y-58268D02*
X32874Y-40945D01*
X51378Y-59449D02*
X34055Y-59449D01*
X52559Y-40945D02*
X52559Y-58268D01*
X34055Y-39764D02*
X51378Y-39764D01*
G54D12*
X34843Y-48504D03*
X34843Y-50236D03*
G54D13*
X51575Y-49484D03*
G54D14*
X51575Y-50484D03*
X51575Y-51484D03*
X51575Y-52484D03*
G54D15*
X46878Y-58299D03*
G54D16*
X45878Y-58299D03*
X46878Y-57299D03*
X45878Y-57299D03*
X46878Y-56299D03*
X45878Y-56299D03*
X46878Y-55299D03*
X45878Y-55299D03*
X46878Y-54299D03*
X45878Y-54299D03*
G54D15*
X50484Y-55496D03*
G54D16*
X51484Y-55496D03*
X50484Y-56496D03*
X51484Y-56496D03*
X50484Y-57496D03*
X51484Y-57496D03*
G54D13*
X46453Y-43531D03*
G54D14*
X46453Y-44531D03*
X46453Y-45531D03*
X46453Y-46531D03*
X46453Y-47531D03*
X46453Y-48531D03*
X46453Y-49531D03*
X46453Y-50531D03*
X46453Y-51531D03*
X46453Y-52531D03*
X49453Y-52531D03*
X49453Y-51531D03*
X49453Y-50531D03*
X49453Y-49531D03*
X49453Y-48531D03*
X49453Y-47531D03*
X49453Y-46531D03*
X49453Y-45531D03*
X49453Y-44531D03*
X49453Y-43531D03*
G54D13*
X51575Y-45457D03*
G54D14*
X51575Y-46457D03*
X51575Y-47457D03*
G54D17*
X34882Y-41378D03*
X51103Y-41378D03*
X40197Y-57795D03*
G54D18*
X34882Y-51142D03*
G54D19*
X45473Y-48504D03*
X39921Y-48504D03*
X38465Y-49055D03*
X43819Y-48937D03*
X45079Y-50118D03*
X38386Y-49646D03*
X38465Y-50118D03*
X43977Y-52047D03*
X38937Y-52362D03*
X43622Y-53307D03*
X39077Y-48258D03*
X38189Y-46752D03*
X44488Y-50098D03*
X39291Y-49291D03*
G54D18*
X42756Y-44134D03*
X42835Y-47441D03*
G54D19*
X42559Y-51732D03*
G54D18*
X34921Y-49685D03*
X37244Y-51378D03*
X42441Y-55315D03*
G54D19*
X36811Y-47736D03*
G54D18*
X39882Y-54409D03*
G54D19*
X38189Y-48307D03*
X45512Y-47441D03*
X48189Y-47402D03*
X39173Y-50492D03*
X36026Y-48309D03*
G54D18*
X36929Y-46339D03*
G54D20*
X35000Y-51260D02*
X34882Y-51142D01*
X35394Y-52047D02*
X35118Y-52047D01*
X35000Y-51929D02*
X35000Y-51260D01*
X35118Y-52047D02*
X35000Y-51929D01*
X45473Y-48504D02*
X39921Y-48504D01*
X38465Y-49055D02*
X38583Y-48937D01*
X38583Y-48937D02*
X38780Y-48937D01*
X38780Y-48937D02*
X43819Y-48937D01*
X38583Y-49646D02*
X38701Y-49764D01*
X44764Y-49764D02*
X45079Y-50079D01*
X38386Y-49646D02*
X38583Y-49646D01*
X38701Y-49764D02*
X44764Y-49764D01*
X45079Y-50079D02*
X45079Y-50118D01*
X43977Y-50827D02*
X43977Y-52047D01*
X38465Y-50118D02*
X43268Y-50118D01*
X43268Y-50118D02*
X43977Y-50827D01*
X39921Y-53307D02*
X43622Y-53307D01*
X38937Y-52362D02*
X39921Y-53307D01*
X39075Y-46949D02*
X39077Y-48258D01*
X38878Y-46752D02*
X39075Y-46949D01*
X38189Y-46752D02*
X38878Y-46752D01*
X44488Y-50098D02*
X44488Y-52638D01*
X51484Y-54988D02*
X51484Y-55496D01*
X51484Y-54988D02*
X51484Y-55496D01*
X49942Y-53446D02*
X50748Y-54252D01*
X49587Y-53091D02*
X49942Y-53446D01*
X44941Y-53091D02*
X49587Y-53091D01*
X50748Y-54252D02*
X51484Y-54988D01*
X44488Y-52638D02*
X44941Y-53091D01*
X52323Y-49724D02*
X52323Y-47205D01*
X39291Y-49291D02*
X44606Y-49291D01*
X45709Y-49291D02*
X45984Y-49016D01*
X51583Y-50492D02*
X51575Y-50484D01*
X44606Y-49291D02*
X45709Y-49291D01*
X45984Y-49016D02*
X50107Y-49016D01*
X51575Y-50472D02*
X52323Y-49724D01*
X51575Y-50484D02*
X51575Y-50472D01*
X52323Y-47205D02*
X51575Y-46457D01*
X50107Y-49016D02*
X51575Y-50484D01*
X42756Y-47362D02*
X42756Y-44134D01*
X42835Y-47441D02*
X42756Y-47362D01*
X42457Y-55299D02*
X45878Y-55299D01*
X42441Y-55315D02*
X42457Y-55299D01*
X39488Y-54803D02*
X39410Y-54803D01*
X46890Y-55299D02*
X50287Y-55299D01*
X39410Y-54803D02*
X36811Y-52204D01*
X46878Y-55299D02*
X46890Y-55299D01*
X36811Y-52204D02*
X36811Y-47736D01*
X50287Y-55299D02*
X50484Y-55496D01*
X50287Y-55299D02*
X50484Y-55496D01*
X46382Y-54803D02*
X46878Y-55299D01*
X39488Y-54803D02*
X46382Y-54803D01*
X46890Y-55299D02*
X46878Y-55299D01*
X37874Y-52402D02*
X37875Y-52402D01*
X37875Y-52402D02*
X39882Y-54409D01*
X37874Y-48622D02*
X37874Y-52402D01*
X38189Y-48307D02*
X37874Y-48622D01*
X47834Y-47047D02*
X48189Y-47402D01*
X46123Y-46871D02*
X46299Y-47047D01*
X46299Y-47047D02*
X47834Y-47047D01*
X46453Y-45752D02*
X45906Y-46299D01*
X45906Y-46299D02*
X45906Y-46654D01*
X45906Y-46654D02*
X46123Y-46871D01*
X46453Y-45531D02*
X46453Y-45752D01*
X46123Y-46871D02*
X46082Y-46871D01*
X45512Y-47441D02*
X46082Y-46871D01*
X42618Y-50492D02*
X39173Y-50492D01*
X43150Y-50669D02*
X43150Y-51890D01*
X42618Y-50492D02*
X42973Y-50492D01*
X43150Y-51890D02*
X44666Y-53406D01*
X49272Y-53406D02*
X50472Y-54606D01*
X50472Y-54606D02*
X50984Y-55118D01*
X44666Y-53406D02*
X49272Y-53406D01*
X50484Y-57496D02*
X50984Y-56996D01*
X42973Y-50492D02*
X43150Y-50669D01*
X50984Y-56996D02*
X50984Y-55118D01*
X50158Y-45826D02*
X49453Y-46531D01*
X50158Y-44212D02*
X50158Y-45826D01*
X46453Y-52531D02*
X49453Y-49531D01*
X49477Y-43531D02*
X50158Y-44212D01*
X49453Y-43531D02*
X49477Y-43531D01*
X47248Y-46531D02*
X48248Y-45531D01*
X48248Y-45531D02*
X49453Y-45531D01*
X46453Y-46531D02*
X47248Y-46531D01*
X36024Y-52323D02*
X39508Y-55807D01*
X46878Y-56299D02*
X46878Y-56299D01*
X36024Y-48311D02*
X36024Y-52323D01*
X36026Y-48309D02*
X36024Y-48311D01*
X42626Y-55807D02*
X46386Y-55807D01*
X42626Y-55807D02*
X42646Y-55807D01*
X46878Y-56299D02*
X50287Y-56299D01*
X46386Y-55807D02*
X46878Y-56299D01*
X50287Y-56299D02*
X50484Y-56496D01*
X39508Y-55807D02*
X42626Y-55807D01*
X51575Y-49484D02*
X50122Y-48031D01*
X41063Y-48031D02*
X40747Y-48031D01*
X39055Y-46339D02*
X36929Y-46339D01*
X40747Y-48031D02*
X39055Y-46339D01*
X41063Y-48031D02*
X50122Y-48031D01*
G54D10*
G36*
X50586Y-55028D02*
X50151Y-55028D01*
X50089Y-55053D01*
X50061Y-55081D01*
X47339Y-55081D01*
X47339Y-54217D01*
X47273Y-54047D01*
X47261Y-54032D01*
X47185Y-54005D01*
X47172Y-54018D01*
X47172Y-53992D01*
X47145Y-53916D01*
X46978Y-53842D01*
X46796Y-53838D01*
X46626Y-53904D01*
X46611Y-53916D01*
X46584Y-53992D01*
X46878Y-54286D01*
X47172Y-53992D01*
X47172Y-54018D01*
X46891Y-54299D01*
X47185Y-54593D01*
X47261Y-54566D01*
X47335Y-54399D01*
X47339Y-54217D01*
X47339Y-55081D01*
X47294Y-55081D01*
X47275Y-55034D01*
X47172Y-54931D01*
X47172Y-54606D01*
X46878Y-54312D01*
X46865Y-54325D01*
X46865Y-54299D01*
X46571Y-54005D01*
X46495Y-54032D01*
X46421Y-54199D01*
X46417Y-54381D01*
X46483Y-54551D01*
X46495Y-54566D01*
X46571Y-54593D01*
X46865Y-54299D01*
X46865Y-54325D01*
X46584Y-54606D01*
X46611Y-54682D01*
X46778Y-54756D01*
X46960Y-54760D01*
X47130Y-54694D01*
X47145Y-54682D01*
X47172Y-54606D01*
X47172Y-54931D01*
X47143Y-54902D01*
X46971Y-54831D01*
X46785Y-54831D01*
X46737Y-54850D01*
X46536Y-54649D01*
X46465Y-54602D01*
X46382Y-54585D01*
X46254Y-54585D01*
X46275Y-54564D01*
X46346Y-54392D01*
X46346Y-54206D01*
X46275Y-54034D01*
X46143Y-53902D01*
X45971Y-53831D01*
X45785Y-53831D01*
X45613Y-53902D01*
X45481Y-54034D01*
X45410Y-54206D01*
X45410Y-54392D01*
X45481Y-54564D01*
X45502Y-54585D01*
X43964Y-54585D01*
X43964Y-53375D01*
X43964Y-53239D01*
X43912Y-53113D01*
X43816Y-53017D01*
X43690Y-52965D01*
X43554Y-52965D01*
X43428Y-53017D01*
X43356Y-53089D01*
X40009Y-53089D01*
X39279Y-52388D01*
X39279Y-52294D01*
X39227Y-52168D01*
X39131Y-52072D01*
X39005Y-52020D01*
X38869Y-52020D01*
X38743Y-52072D01*
X38647Y-52168D01*
X38595Y-52294D01*
X38595Y-52430D01*
X38647Y-52556D01*
X38743Y-52652D01*
X38869Y-52704D01*
X38979Y-52704D01*
X39763Y-53455D01*
X39767Y-53461D01*
X39771Y-53463D01*
X39838Y-53508D01*
X39841Y-53508D01*
X39842Y-53509D01*
X39848Y-53510D01*
X39921Y-53525D01*
X43356Y-53525D01*
X43428Y-53597D01*
X43554Y-53649D01*
X43690Y-53649D01*
X43816Y-53597D01*
X43912Y-53501D01*
X43964Y-53375D01*
X43964Y-54585D01*
X40160Y-54585D01*
X40207Y-54474D01*
X40207Y-54345D01*
X40158Y-54225D01*
X40067Y-54134D01*
X39947Y-54084D01*
X39865Y-54084D01*
X38092Y-52311D01*
X38092Y-49830D01*
X38096Y-49840D01*
X38177Y-49921D01*
X38175Y-49924D01*
X38123Y-50050D01*
X38123Y-50186D01*
X38175Y-50312D01*
X38271Y-50408D01*
X38397Y-50460D01*
X38533Y-50460D01*
X38659Y-50408D01*
X38731Y-50336D01*
X38867Y-50336D01*
X38831Y-50424D01*
X38831Y-50560D01*
X38883Y-50686D01*
X38979Y-50782D01*
X39105Y-50834D01*
X39241Y-50834D01*
X39367Y-50782D01*
X39439Y-50710D01*
X42618Y-50710D01*
X42883Y-50710D01*
X42932Y-50759D01*
X42932Y-51890D01*
X42949Y-51973D01*
X42996Y-52044D01*
X44511Y-53559D01*
X44512Y-53560D01*
X44582Y-53606D01*
X44583Y-53607D01*
X44665Y-53623D01*
X44666Y-53624D01*
X49182Y-53624D01*
X50318Y-54760D01*
X50586Y-55028D01*
X50586Y-55028D01*
G37*
G54D20*
X50586Y-55028D02*
X50151Y-55028D01*
X50089Y-55053D01*
X50061Y-55081D01*
X47339Y-55081D01*
X47339Y-54217D01*
X47273Y-54047D01*
X47261Y-54032D01*
X47185Y-54005D01*
X47172Y-54018D01*
X47172Y-53992D01*
X47145Y-53916D01*
X46978Y-53842D01*
X46796Y-53838D01*
X46626Y-53904D01*
X46611Y-53916D01*
X46584Y-53992D01*
X46878Y-54286D01*
X47172Y-53992D01*
X47172Y-54018D01*
X46891Y-54299D01*
X47185Y-54593D01*
X47261Y-54566D01*
X47335Y-54399D01*
X47339Y-54217D01*
X47339Y-55081D01*
X47294Y-55081D01*
X47275Y-55034D01*
X47172Y-54931D01*
X47172Y-54606D01*
X46878Y-54312D01*
X46865Y-54325D01*
X46865Y-54299D01*
X46571Y-54005D01*
X46495Y-54032D01*
X46421Y-54199D01*
X46417Y-54381D01*
X46483Y-54551D01*
X46495Y-54566D01*
X46571Y-54593D01*
X46865Y-54299D01*
X46865Y-54325D01*
X46584Y-54606D01*
X46611Y-54682D01*
X46778Y-54756D01*
X46960Y-54760D01*
X47130Y-54694D01*
X47145Y-54682D01*
X47172Y-54606D01*
X47172Y-54931D01*
X47143Y-54902D01*
X46971Y-54831D01*
X46785Y-54831D01*
X46737Y-54850D01*
X46536Y-54649D01*
X46465Y-54602D01*
X46382Y-54585D01*
X46254Y-54585D01*
X46275Y-54564D01*
X46346Y-54392D01*
X46346Y-54206D01*
X46275Y-54034D01*
X46143Y-53902D01*
X45971Y-53831D01*
X45785Y-53831D01*
X45613Y-53902D01*
X45481Y-54034D01*
X45410Y-54206D01*
X45410Y-54392D01*
X45481Y-54564D01*
X45502Y-54585D01*
X43964Y-54585D01*
X43964Y-53375D01*
X43964Y-53239D01*
X43912Y-53113D01*
X43816Y-53017D01*
X43690Y-52965D01*
X43554Y-52965D01*
X43428Y-53017D01*
X43356Y-53089D01*
X40009Y-53089D01*
X39279Y-52388D01*
X39279Y-52294D01*
X39227Y-52168D01*
X39131Y-52072D01*
X39005Y-52020D01*
X38869Y-52020D01*
X38743Y-52072D01*
X38647Y-52168D01*
X38595Y-52294D01*
X38595Y-52430D01*
X38647Y-52556D01*
X38743Y-52652D01*
X38869Y-52704D01*
X38979Y-52704D01*
X39763Y-53455D01*
X39767Y-53461D01*
X39771Y-53463D01*
X39838Y-53508D01*
X39841Y-53508D01*
X39842Y-53509D01*
X39848Y-53510D01*
X39921Y-53525D01*
X43356Y-53525D01*
X43428Y-53597D01*
X43554Y-53649D01*
X43690Y-53649D01*
X43816Y-53597D01*
X43912Y-53501D01*
X43964Y-53375D01*
X43964Y-54585D01*
X40160Y-54585D01*
X40207Y-54474D01*
X40207Y-54345D01*
X40158Y-54225D01*
X40067Y-54134D01*
X39947Y-54084D01*
X39865Y-54084D01*
X38092Y-52311D01*
X38092Y-49830D01*
X38096Y-49840D01*
X38177Y-49921D01*
X38175Y-49924D01*
X38123Y-50050D01*
X38123Y-50186D01*
X38175Y-50312D01*
X38271Y-50408D01*
X38397Y-50460D01*
X38533Y-50460D01*
X38659Y-50408D01*
X38731Y-50336D01*
X38867Y-50336D01*
X38831Y-50424D01*
X38831Y-50560D01*
X38883Y-50686D01*
X38979Y-50782D01*
X39105Y-50834D01*
X39241Y-50834D01*
X39367Y-50782D01*
X39439Y-50710D01*
X42618Y-50710D01*
X42883Y-50710D01*
X42932Y-50759D01*
X42932Y-51890D01*
X42949Y-51973D01*
X42996Y-52044D01*
X44511Y-53559D01*
X44512Y-53560D01*
X44582Y-53606D01*
X44583Y-53607D01*
X44665Y-53623D01*
X44666Y-53624D01*
X49182Y-53624D01*
X50318Y-54760D01*
X50586Y-55028D01*
G54D10*
G36*
X52316Y-46889D02*
X52070Y-46643D01*
X52070Y-41571D01*
X52070Y-41186D01*
X51923Y-40831D01*
X51651Y-40558D01*
X51296Y-40411D01*
X50911Y-40411D01*
X50556Y-40558D01*
X50283Y-40830D01*
X50136Y-41185D01*
X50136Y-41570D01*
X50283Y-41925D01*
X50555Y-42198D01*
X50910Y-42345D01*
X51295Y-42345D01*
X51650Y-42198D01*
X51923Y-41926D01*
X52070Y-41571D01*
X52070Y-46643D01*
X52018Y-46591D01*
X52018Y-45766D01*
X52018Y-45699D01*
X52018Y-45149D01*
X51993Y-45087D01*
X51945Y-45040D01*
X51884Y-45014D01*
X51817Y-45014D01*
X51267Y-45014D01*
X51205Y-45039D01*
X51158Y-45087D01*
X51132Y-45148D01*
X51132Y-45215D01*
X51132Y-45765D01*
X51157Y-45827D01*
X51205Y-45874D01*
X51266Y-45900D01*
X51333Y-45900D01*
X51883Y-45900D01*
X51945Y-45875D01*
X51992Y-45827D01*
X52018Y-45766D01*
X52018Y-46591D01*
X52003Y-46577D01*
X52017Y-46545D01*
X52017Y-46369D01*
X51950Y-46207D01*
X51825Y-46082D01*
X51663Y-46015D01*
X51487Y-46015D01*
X51325Y-46082D01*
X51200Y-46207D01*
X51133Y-46369D01*
X51133Y-46545D01*
X51200Y-46707D01*
X51325Y-46832D01*
X51487Y-46899D01*
X51663Y-46899D01*
X51695Y-46885D01*
X52105Y-47295D01*
X52105Y-49633D01*
X52018Y-49720D01*
X52018Y-49176D01*
X52010Y-49156D01*
X52010Y-47379D01*
X51947Y-47218D01*
X51938Y-47205D01*
X51864Y-47181D01*
X51851Y-47194D01*
X51851Y-47168D01*
X51827Y-47094D01*
X51669Y-47025D01*
X51497Y-47022D01*
X51336Y-47085D01*
X51323Y-47094D01*
X51299Y-47168D01*
X51575Y-47444D01*
X51851Y-47168D01*
X51851Y-47194D01*
X51588Y-47457D01*
X51864Y-47733D01*
X51938Y-47709D01*
X52007Y-47551D01*
X52010Y-47379D01*
X52010Y-49156D01*
X51993Y-49114D01*
X51945Y-49067D01*
X51884Y-49041D01*
X51851Y-49041D01*
X51851Y-47746D01*
X51575Y-47470D01*
X51562Y-47483D01*
X51562Y-47457D01*
X51286Y-47181D01*
X51212Y-47205D01*
X51143Y-47363D01*
X51140Y-47535D01*
X51203Y-47696D01*
X51212Y-47709D01*
X51286Y-47733D01*
X51562Y-47457D01*
X51562Y-47483D01*
X51299Y-47746D01*
X51323Y-47820D01*
X51481Y-47889D01*
X51653Y-47892D01*
X51814Y-47829D01*
X51827Y-47820D01*
X51851Y-47746D01*
X51851Y-49041D01*
X51817Y-49041D01*
X51440Y-49041D01*
X50376Y-47977D01*
X50376Y-45826D01*
X50376Y-44212D01*
X50359Y-44129D01*
X50312Y-44058D01*
X49888Y-43634D01*
X49895Y-43619D01*
X49895Y-43443D01*
X49828Y-43281D01*
X49703Y-43156D01*
X49541Y-43089D01*
X49365Y-43089D01*
X49203Y-43156D01*
X49078Y-43281D01*
X49011Y-43443D01*
X49011Y-43619D01*
X49078Y-43781D01*
X49203Y-43906D01*
X49365Y-43973D01*
X49541Y-43973D01*
X49590Y-43952D01*
X49940Y-44302D01*
X49940Y-45736D01*
X49573Y-46102D01*
X49541Y-46089D01*
X49365Y-46089D01*
X49203Y-46156D01*
X49078Y-46281D01*
X49011Y-46443D01*
X49011Y-46619D01*
X49078Y-46781D01*
X49203Y-46906D01*
X49365Y-46973D01*
X49541Y-46973D01*
X49703Y-46906D01*
X49828Y-46781D01*
X49895Y-46619D01*
X49895Y-46443D01*
X49881Y-46410D01*
X50312Y-45980D01*
X50359Y-45909D01*
X50376Y-45826D01*
X50376Y-47977D01*
X50276Y-47877D01*
X50205Y-47830D01*
X50122Y-47813D01*
X49796Y-47813D01*
X49828Y-47781D01*
X49895Y-47619D01*
X49895Y-47443D01*
X49828Y-47281D01*
X49703Y-47156D01*
X49541Y-47089D01*
X49365Y-47089D01*
X49203Y-47156D01*
X49078Y-47281D01*
X49011Y-47443D01*
X49011Y-47619D01*
X49078Y-47781D01*
X49110Y-47813D01*
X46796Y-47813D01*
X46828Y-47781D01*
X46895Y-47619D01*
X46895Y-47443D01*
X46828Y-47281D01*
X46812Y-47265D01*
X47744Y-47265D01*
X47847Y-47368D01*
X47847Y-47470D01*
X47899Y-47596D01*
X47995Y-47692D01*
X48121Y-47744D01*
X48257Y-47744D01*
X48383Y-47692D01*
X48479Y-47596D01*
X48531Y-47470D01*
X48531Y-47334D01*
X48479Y-47208D01*
X48383Y-47112D01*
X48257Y-47060D01*
X48155Y-47060D01*
X47988Y-46893D01*
X47917Y-46846D01*
X47834Y-46829D01*
X46780Y-46829D01*
X46828Y-46781D01*
X46841Y-46749D01*
X47248Y-46749D01*
X47331Y-46732D01*
X47402Y-46685D01*
X48338Y-45749D01*
X49064Y-45749D01*
X49078Y-45781D01*
X49203Y-45906D01*
X49365Y-45973D01*
X49541Y-45973D01*
X49703Y-45906D01*
X49828Y-45781D01*
X49895Y-45619D01*
X49895Y-45443D01*
X49895Y-44619D01*
X49895Y-44443D01*
X49828Y-44281D01*
X49703Y-44156D01*
X49541Y-44089D01*
X49365Y-44089D01*
X49203Y-44156D01*
X49078Y-44281D01*
X49011Y-44443D01*
X49011Y-44619D01*
X49078Y-44781D01*
X49203Y-44906D01*
X49365Y-44973D01*
X49541Y-44973D01*
X49703Y-44906D01*
X49828Y-44781D01*
X49895Y-44619D01*
X49895Y-45443D01*
X49828Y-45281D01*
X49703Y-45156D01*
X49541Y-45089D01*
X49365Y-45089D01*
X49203Y-45156D01*
X49078Y-45281D01*
X49064Y-45313D01*
X48248Y-45313D01*
X48164Y-45330D01*
X48094Y-45377D01*
X47158Y-46313D01*
X46896Y-46313D01*
X46896Y-43840D01*
X46896Y-43773D01*
X46896Y-43223D01*
X46871Y-43161D01*
X46823Y-43114D01*
X46762Y-43088D01*
X46695Y-43088D01*
X46145Y-43088D01*
X46083Y-43113D01*
X46036Y-43161D01*
X46010Y-43222D01*
X46010Y-43289D01*
X46010Y-43839D01*
X46035Y-43901D01*
X46083Y-43948D01*
X46144Y-43974D01*
X46211Y-43974D01*
X46761Y-43974D01*
X46823Y-43949D01*
X46870Y-43901D01*
X46896Y-43840D01*
X46896Y-46313D01*
X46841Y-46313D01*
X46828Y-46281D01*
X46703Y-46156D01*
X46541Y-46089D01*
X46424Y-46089D01*
X46540Y-45973D01*
X46541Y-45973D01*
X46703Y-45906D01*
X46828Y-45781D01*
X46895Y-45619D01*
X46895Y-45443D01*
X46895Y-44619D01*
X46895Y-44443D01*
X46828Y-44281D01*
X46703Y-44156D01*
X46541Y-44089D01*
X46365Y-44089D01*
X46203Y-44156D01*
X46078Y-44281D01*
X46011Y-44443D01*
X46011Y-44619D01*
X46078Y-44781D01*
X46203Y-44906D01*
X46365Y-44973D01*
X46541Y-44973D01*
X46703Y-44906D01*
X46828Y-44781D01*
X46895Y-44619D01*
X46895Y-45443D01*
X46828Y-45281D01*
X46703Y-45156D01*
X46541Y-45089D01*
X46365Y-45089D01*
X46203Y-45156D01*
X46078Y-45281D01*
X46011Y-45443D01*
X46011Y-45619D01*
X46078Y-45781D01*
X46096Y-45799D01*
X45752Y-46145D01*
X45705Y-46216D01*
X45688Y-46299D01*
X45688Y-46654D01*
X45705Y-46737D01*
X45752Y-46808D01*
X45794Y-46850D01*
X45546Y-47099D01*
X45444Y-47099D01*
X45318Y-47151D01*
X45222Y-47247D01*
X45170Y-47373D01*
X45170Y-47509D01*
X45222Y-47635D01*
X45318Y-47731D01*
X45444Y-47783D01*
X45580Y-47783D01*
X45706Y-47731D01*
X45802Y-47635D01*
X45854Y-47509D01*
X45854Y-47407D01*
X46102Y-47158D01*
X46144Y-47201D01*
X46145Y-47201D01*
X46152Y-47206D01*
X46078Y-47281D01*
X46011Y-47443D01*
X46011Y-47619D01*
X46078Y-47781D01*
X46110Y-47813D01*
X41063Y-47813D01*
X40837Y-47813D01*
X39209Y-46185D01*
X39138Y-46138D01*
X39055Y-46121D01*
X37171Y-46121D01*
X37114Y-46064D01*
X36994Y-46014D01*
X36865Y-46014D01*
X36745Y-46063D01*
X36654Y-46154D01*
X36604Y-46274D01*
X36604Y-46403D01*
X36653Y-46523D01*
X36744Y-46614D01*
X36864Y-46664D01*
X36993Y-46664D01*
X37113Y-46615D01*
X37171Y-46557D01*
X37900Y-46557D01*
X37899Y-46558D01*
X37847Y-46684D01*
X37847Y-46820D01*
X37899Y-46946D01*
X37995Y-47042D01*
X38121Y-47094D01*
X38257Y-47094D01*
X38383Y-47042D01*
X38455Y-46970D01*
X38787Y-46970D01*
X38857Y-47039D01*
X38858Y-47992D01*
X38787Y-48064D01*
X38735Y-48190D01*
X38735Y-48326D01*
X38787Y-48452D01*
X38883Y-48548D01*
X39009Y-48600D01*
X39145Y-48600D01*
X39271Y-48548D01*
X39367Y-48452D01*
X39419Y-48326D01*
X39419Y-48190D01*
X39367Y-48064D01*
X39294Y-47991D01*
X39293Y-46949D01*
X39276Y-46868D01*
X40592Y-48185D01*
X40593Y-48185D01*
X40639Y-48215D01*
X40663Y-48231D01*
X40664Y-48232D01*
X40746Y-48248D01*
X40747Y-48249D01*
X41063Y-48249D01*
X45244Y-48249D01*
X45207Y-48286D01*
X40187Y-48286D01*
X40115Y-48214D01*
X39989Y-48162D01*
X39853Y-48162D01*
X39727Y-48214D01*
X39631Y-48310D01*
X39579Y-48436D01*
X39579Y-48572D01*
X39631Y-48698D01*
X39652Y-48719D01*
X38780Y-48719D01*
X38583Y-48719D01*
X38559Y-48723D01*
X38533Y-48713D01*
X38397Y-48713D01*
X38271Y-48765D01*
X38175Y-48861D01*
X38123Y-48987D01*
X38123Y-49123D01*
X38175Y-49249D01*
X38255Y-49329D01*
X38192Y-49356D01*
X38096Y-49452D01*
X38092Y-49461D01*
X38092Y-48712D01*
X38155Y-48649D01*
X38257Y-48649D01*
X38383Y-48597D01*
X38479Y-48501D01*
X38531Y-48375D01*
X38531Y-48239D01*
X38479Y-48113D01*
X38383Y-48017D01*
X38257Y-47965D01*
X38121Y-47965D01*
X37995Y-48017D01*
X37899Y-48113D01*
X37847Y-48239D01*
X37847Y-48341D01*
X37720Y-48468D01*
X37673Y-48539D01*
X37656Y-48622D01*
X37656Y-52402D01*
X37673Y-52485D01*
X37720Y-52556D01*
X37721Y-52556D01*
X37722Y-52557D01*
X38796Y-53631D01*
X38547Y-53632D01*
X37029Y-52113D01*
X37029Y-48002D01*
X37101Y-47930D01*
X37153Y-47804D01*
X37153Y-47668D01*
X37101Y-47542D01*
X37005Y-47446D01*
X36879Y-47394D01*
X36743Y-47394D01*
X36617Y-47446D01*
X36521Y-47542D01*
X36469Y-47668D01*
X36469Y-47804D01*
X36521Y-47930D01*
X36593Y-48002D01*
X36593Y-52204D01*
X36610Y-52287D01*
X36657Y-52358D01*
X37932Y-53634D01*
X37644Y-53635D01*
X36242Y-52233D01*
X36242Y-48577D01*
X36316Y-48503D01*
X36368Y-48377D01*
X36368Y-48241D01*
X36316Y-48115D01*
X36220Y-48019D01*
X36094Y-47967D01*
X35958Y-47967D01*
X35849Y-48011D01*
X35849Y-41571D01*
X35849Y-41186D01*
X35702Y-40831D01*
X35430Y-40558D01*
X35075Y-40411D01*
X34690Y-40411D01*
X34335Y-40558D01*
X34062Y-40830D01*
X33915Y-41185D01*
X33915Y-41570D01*
X34062Y-41925D01*
X34334Y-42198D01*
X34689Y-42345D01*
X35074Y-42345D01*
X35429Y-42198D01*
X35702Y-41926D01*
X35849Y-41571D01*
X35849Y-48011D01*
X35832Y-48019D01*
X35736Y-48115D01*
X35684Y-48241D01*
X35684Y-48377D01*
X35736Y-48503D01*
X35806Y-48573D01*
X35806Y-52323D01*
X35823Y-52406D01*
X35870Y-52477D01*
X37030Y-53637D01*
X35612Y-53641D01*
X35612Y-52047D01*
X35595Y-51964D01*
X35548Y-51893D01*
X35477Y-51846D01*
X35394Y-51829D01*
X35287Y-51829D01*
X35287Y-50325D01*
X35287Y-50148D01*
X35287Y-48593D01*
X35287Y-48416D01*
X35220Y-48253D01*
X35095Y-48128D01*
X34932Y-48060D01*
X34755Y-48060D01*
X34592Y-48127D01*
X34467Y-48252D01*
X34399Y-48415D01*
X34399Y-48592D01*
X34466Y-48755D01*
X34591Y-48880D01*
X34754Y-48948D01*
X34931Y-48948D01*
X35094Y-48881D01*
X35219Y-48756D01*
X35287Y-48593D01*
X35287Y-50148D01*
X35220Y-49985D01*
X35095Y-49860D01*
X34932Y-49792D01*
X34755Y-49792D01*
X34592Y-49859D01*
X34467Y-49984D01*
X34399Y-50147D01*
X34399Y-50324D01*
X34466Y-50487D01*
X34591Y-50612D01*
X34754Y-50680D01*
X34931Y-50680D01*
X35094Y-50613D01*
X35219Y-50488D01*
X35287Y-50325D01*
X35287Y-51829D01*
X35218Y-51829D01*
X35218Y-51260D01*
X35217Y-51259D01*
X35207Y-51207D01*
X35207Y-51206D01*
X35207Y-51078D01*
X35158Y-50958D01*
X35067Y-50867D01*
X34947Y-50817D01*
X34818Y-50817D01*
X34698Y-50866D01*
X34607Y-50957D01*
X34557Y-51077D01*
X34557Y-51206D01*
X34606Y-51326D01*
X34697Y-51417D01*
X34782Y-51452D01*
X34782Y-51929D01*
X34799Y-52012D01*
X34846Y-52083D01*
X34963Y-52201D01*
X34964Y-52201D01*
X35010Y-52231D01*
X35034Y-52247D01*
X35035Y-52248D01*
X35117Y-52264D01*
X35118Y-52265D01*
X35394Y-52265D01*
X35477Y-52248D01*
X35548Y-52201D01*
X35595Y-52130D01*
X35612Y-52047D01*
X35612Y-53641D01*
X33117Y-53649D01*
X33117Y-40967D01*
X33192Y-40587D01*
X33396Y-40284D01*
X33696Y-40082D01*
X34076Y-40007D01*
X51355Y-40007D01*
X51735Y-40082D01*
X52038Y-40286D01*
X52240Y-40586D01*
X52316Y-40966D01*
X52316Y-46889D01*
X52316Y-46889D01*
G37*
G54D20*
X52316Y-46889D02*
X52070Y-46643D01*
X52070Y-41571D01*
X52070Y-41186D01*
X51923Y-40831D01*
X51651Y-40558D01*
X51296Y-40411D01*
X50911Y-40411D01*
X50556Y-40558D01*
X50283Y-40830D01*
X50136Y-41185D01*
X50136Y-41570D01*
X50283Y-41925D01*
X50555Y-42198D01*
X50910Y-42345D01*
X51295Y-42345D01*
X51650Y-42198D01*
X51923Y-41926D01*
X52070Y-41571D01*
X52070Y-46643D01*
X52018Y-46591D01*
X52018Y-45766D01*
X52018Y-45699D01*
X52018Y-45149D01*
X51993Y-45087D01*
X51945Y-45040D01*
X51884Y-45014D01*
X51817Y-45014D01*
X51267Y-45014D01*
X51205Y-45039D01*
X51158Y-45087D01*
X51132Y-45148D01*
X51132Y-45215D01*
X51132Y-45765D01*
X51157Y-45827D01*
X51205Y-45874D01*
X51266Y-45900D01*
X51333Y-45900D01*
X51883Y-45900D01*
X51945Y-45875D01*
X51992Y-45827D01*
X52018Y-45766D01*
X52018Y-46591D01*
X52003Y-46577D01*
X52017Y-46545D01*
X52017Y-46369D01*
X51950Y-46207D01*
X51825Y-46082D01*
X51663Y-46015D01*
X51487Y-46015D01*
X51325Y-46082D01*
X51200Y-46207D01*
X51133Y-46369D01*
X51133Y-46545D01*
X51200Y-46707D01*
X51325Y-46832D01*
X51487Y-46899D01*
X51663Y-46899D01*
X51695Y-46885D01*
X52105Y-47295D01*
X52105Y-49633D01*
X52018Y-49720D01*
X52018Y-49176D01*
X52010Y-49156D01*
X52010Y-47379D01*
X51947Y-47218D01*
X51938Y-47205D01*
X51864Y-47181D01*
X51851Y-47194D01*
X51851Y-47168D01*
X51827Y-47094D01*
X51669Y-47025D01*
X51497Y-47022D01*
X51336Y-47085D01*
X51323Y-47094D01*
X51299Y-47168D01*
X51575Y-47444D01*
X51851Y-47168D01*
X51851Y-47194D01*
X51588Y-47457D01*
X51864Y-47733D01*
X51938Y-47709D01*
X52007Y-47551D01*
X52010Y-47379D01*
X52010Y-49156D01*
X51993Y-49114D01*
X51945Y-49067D01*
X51884Y-49041D01*
X51851Y-49041D01*
X51851Y-47746D01*
X51575Y-47470D01*
X51562Y-47483D01*
X51562Y-47457D01*
X51286Y-47181D01*
X51212Y-47205D01*
X51143Y-47363D01*
X51140Y-47535D01*
X51203Y-47696D01*
X51212Y-47709D01*
X51286Y-47733D01*
X51562Y-47457D01*
X51562Y-47483D01*
X51299Y-47746D01*
X51323Y-47820D01*
X51481Y-47889D01*
X51653Y-47892D01*
X51814Y-47829D01*
X51827Y-47820D01*
X51851Y-47746D01*
X51851Y-49041D01*
X51817Y-49041D01*
X51440Y-49041D01*
X50376Y-47977D01*
X50376Y-45826D01*
X50376Y-44212D01*
X50359Y-44129D01*
X50312Y-44058D01*
X49888Y-43634D01*
X49895Y-43619D01*
X49895Y-43443D01*
X49828Y-43281D01*
X49703Y-43156D01*
X49541Y-43089D01*
X49365Y-43089D01*
X49203Y-43156D01*
X49078Y-43281D01*
X49011Y-43443D01*
X49011Y-43619D01*
X49078Y-43781D01*
X49203Y-43906D01*
X49365Y-43973D01*
X49541Y-43973D01*
X49590Y-43952D01*
X49940Y-44302D01*
X49940Y-45736D01*
X49573Y-46102D01*
X49541Y-46089D01*
X49365Y-46089D01*
X49203Y-46156D01*
X49078Y-46281D01*
X49011Y-46443D01*
X49011Y-46619D01*
X49078Y-46781D01*
X49203Y-46906D01*
X49365Y-46973D01*
X49541Y-46973D01*
X49703Y-46906D01*
X49828Y-46781D01*
X49895Y-46619D01*
X49895Y-46443D01*
X49881Y-46410D01*
X50312Y-45980D01*
X50359Y-45909D01*
X50376Y-45826D01*
X50376Y-47977D01*
X50276Y-47877D01*
X50205Y-47830D01*
X50122Y-47813D01*
X49796Y-47813D01*
X49828Y-47781D01*
X49895Y-47619D01*
X49895Y-47443D01*
X49828Y-47281D01*
X49703Y-47156D01*
X49541Y-47089D01*
X49365Y-47089D01*
X49203Y-47156D01*
X49078Y-47281D01*
X49011Y-47443D01*
X49011Y-47619D01*
X49078Y-47781D01*
X49110Y-47813D01*
X46796Y-47813D01*
X46828Y-47781D01*
X46895Y-47619D01*
X46895Y-47443D01*
X46828Y-47281D01*
X46812Y-47265D01*
X47744Y-47265D01*
X47847Y-47368D01*
X47847Y-47470D01*
X47899Y-47596D01*
X47995Y-47692D01*
X48121Y-47744D01*
X48257Y-47744D01*
X48383Y-47692D01*
X48479Y-47596D01*
X48531Y-47470D01*
X48531Y-47334D01*
X48479Y-47208D01*
X48383Y-47112D01*
X48257Y-47060D01*
X48155Y-47060D01*
X47988Y-46893D01*
X47917Y-46846D01*
X47834Y-46829D01*
X46780Y-46829D01*
X46828Y-46781D01*
X46841Y-46749D01*
X47248Y-46749D01*
X47331Y-46732D01*
X47402Y-46685D01*
X48338Y-45749D01*
X49064Y-45749D01*
X49078Y-45781D01*
X49203Y-45906D01*
X49365Y-45973D01*
X49541Y-45973D01*
X49703Y-45906D01*
X49828Y-45781D01*
X49895Y-45619D01*
X49895Y-45443D01*
X49895Y-44619D01*
X49895Y-44443D01*
X49828Y-44281D01*
X49703Y-44156D01*
X49541Y-44089D01*
X49365Y-44089D01*
X49203Y-44156D01*
X49078Y-44281D01*
X49011Y-44443D01*
X49011Y-44619D01*
X49078Y-44781D01*
X49203Y-44906D01*
X49365Y-44973D01*
X49541Y-44973D01*
X49703Y-44906D01*
X49828Y-44781D01*
X49895Y-44619D01*
X49895Y-45443D01*
X49828Y-45281D01*
X49703Y-45156D01*
X49541Y-45089D01*
X49365Y-45089D01*
X49203Y-45156D01*
X49078Y-45281D01*
X49064Y-45313D01*
X48248Y-45313D01*
X48164Y-45330D01*
X48094Y-45377D01*
X47158Y-46313D01*
X46896Y-46313D01*
X46896Y-43840D01*
X46896Y-43773D01*
X46896Y-43223D01*
X46871Y-43161D01*
X46823Y-43114D01*
X46762Y-43088D01*
X46695Y-43088D01*
X46145Y-43088D01*
X46083Y-43113D01*
X46036Y-43161D01*
X46010Y-43222D01*
X46010Y-43289D01*
X46010Y-43839D01*
X46035Y-43901D01*
X46083Y-43948D01*
X46144Y-43974D01*
X46211Y-43974D01*
X46761Y-43974D01*
X46823Y-43949D01*
X46870Y-43901D01*
X46896Y-43840D01*
X46896Y-46313D01*
X46841Y-46313D01*
X46828Y-46281D01*
X46703Y-46156D01*
X46541Y-46089D01*
X46424Y-46089D01*
X46540Y-45973D01*
X46541Y-45973D01*
X46703Y-45906D01*
X46828Y-45781D01*
X46895Y-45619D01*
X46895Y-45443D01*
X46895Y-44619D01*
X46895Y-44443D01*
X46828Y-44281D01*
X46703Y-44156D01*
X46541Y-44089D01*
X46365Y-44089D01*
X46203Y-44156D01*
X46078Y-44281D01*
X46011Y-44443D01*
X46011Y-44619D01*
X46078Y-44781D01*
X46203Y-44906D01*
X46365Y-44973D01*
X46541Y-44973D01*
X46703Y-44906D01*
X46828Y-44781D01*
X46895Y-44619D01*
X46895Y-45443D01*
X46828Y-45281D01*
X46703Y-45156D01*
X46541Y-45089D01*
X46365Y-45089D01*
X46203Y-45156D01*
X46078Y-45281D01*
X46011Y-45443D01*
X46011Y-45619D01*
X46078Y-45781D01*
X46096Y-45799D01*
X45752Y-46145D01*
X45705Y-46216D01*
X45688Y-46299D01*
X45688Y-46654D01*
X45705Y-46737D01*
X45752Y-46808D01*
X45794Y-46850D01*
X45546Y-47099D01*
X45444Y-47099D01*
X45318Y-47151D01*
X45222Y-47247D01*
X45170Y-47373D01*
X45170Y-47509D01*
X45222Y-47635D01*
X45318Y-47731D01*
X45444Y-47783D01*
X45580Y-47783D01*
X45706Y-47731D01*
X45802Y-47635D01*
X45854Y-47509D01*
X45854Y-47407D01*
X46102Y-47158D01*
X46144Y-47201D01*
X46145Y-47201D01*
X46152Y-47206D01*
X46078Y-47281D01*
X46011Y-47443D01*
X46011Y-47619D01*
X46078Y-47781D01*
X46110Y-47813D01*
X41063Y-47813D01*
X40837Y-47813D01*
X39209Y-46185D01*
X39138Y-46138D01*
X39055Y-46121D01*
X37171Y-46121D01*
X37114Y-46064D01*
X36994Y-46014D01*
X36865Y-46014D01*
X36745Y-46063D01*
X36654Y-46154D01*
X36604Y-46274D01*
X36604Y-46403D01*
X36653Y-46523D01*
X36744Y-46614D01*
X36864Y-46664D01*
X36993Y-46664D01*
X37113Y-46615D01*
X37171Y-46557D01*
X37900Y-46557D01*
X37899Y-46558D01*
X37847Y-46684D01*
X37847Y-46820D01*
X37899Y-46946D01*
X37995Y-47042D01*
X38121Y-47094D01*
X38257Y-47094D01*
X38383Y-47042D01*
X38455Y-46970D01*
X38787Y-46970D01*
X38857Y-47039D01*
X38858Y-47992D01*
X38787Y-48064D01*
X38735Y-48190D01*
X38735Y-48326D01*
X38787Y-48452D01*
X38883Y-48548D01*
X39009Y-48600D01*
X39145Y-48600D01*
X39271Y-48548D01*
X39367Y-48452D01*
X39419Y-48326D01*
X39419Y-48190D01*
X39367Y-48064D01*
X39294Y-47991D01*
X39293Y-46949D01*
X39276Y-46868D01*
X40592Y-48185D01*
X40593Y-48185D01*
X40639Y-48215D01*
X40663Y-48231D01*
X40664Y-48232D01*
X40746Y-48248D01*
X40747Y-48249D01*
X41063Y-48249D01*
X45244Y-48249D01*
X45207Y-48286D01*
X40187Y-48286D01*
X40115Y-48214D01*
X39989Y-48162D01*
X39853Y-48162D01*
X39727Y-48214D01*
X39631Y-48310D01*
X39579Y-48436D01*
X39579Y-48572D01*
X39631Y-48698D01*
X39652Y-48719D01*
X38780Y-48719D01*
X38583Y-48719D01*
X38559Y-48723D01*
X38533Y-48713D01*
X38397Y-48713D01*
X38271Y-48765D01*
X38175Y-48861D01*
X38123Y-48987D01*
X38123Y-49123D01*
X38175Y-49249D01*
X38255Y-49329D01*
X38192Y-49356D01*
X38096Y-49452D01*
X38092Y-49461D01*
X38092Y-48712D01*
X38155Y-48649D01*
X38257Y-48649D01*
X38383Y-48597D01*
X38479Y-48501D01*
X38531Y-48375D01*
X38531Y-48239D01*
X38479Y-48113D01*
X38383Y-48017D01*
X38257Y-47965D01*
X38121Y-47965D01*
X37995Y-48017D01*
X37899Y-48113D01*
X37847Y-48239D01*
X37847Y-48341D01*
X37720Y-48468D01*
X37673Y-48539D01*
X37656Y-48622D01*
X37656Y-52402D01*
X37673Y-52485D01*
X37720Y-52556D01*
X37721Y-52556D01*
X37722Y-52557D01*
X38796Y-53631D01*
X38547Y-53632D01*
X37029Y-52113D01*
X37029Y-48002D01*
X37101Y-47930D01*
X37153Y-47804D01*
X37153Y-47668D01*
X37101Y-47542D01*
X37005Y-47446D01*
X36879Y-47394D01*
X36743Y-47394D01*
X36617Y-47446D01*
X36521Y-47542D01*
X36469Y-47668D01*
X36469Y-47804D01*
X36521Y-47930D01*
X36593Y-48002D01*
X36593Y-52204D01*
X36610Y-52287D01*
X36657Y-52358D01*
X37932Y-53634D01*
X37644Y-53635D01*
X36242Y-52233D01*
X36242Y-48577D01*
X36316Y-48503D01*
X36368Y-48377D01*
X36368Y-48241D01*
X36316Y-48115D01*
X36220Y-48019D01*
X36094Y-47967D01*
X35958Y-47967D01*
X35849Y-48011D01*
X35849Y-41571D01*
X35849Y-41186D01*
X35702Y-40831D01*
X35430Y-40558D01*
X35075Y-40411D01*
X34690Y-40411D01*
X34335Y-40558D01*
X34062Y-40830D01*
X33915Y-41185D01*
X33915Y-41570D01*
X34062Y-41925D01*
X34334Y-42198D01*
X34689Y-42345D01*
X35074Y-42345D01*
X35429Y-42198D01*
X35702Y-41926D01*
X35849Y-41571D01*
X35849Y-48011D01*
X35832Y-48019D01*
X35736Y-48115D01*
X35684Y-48241D01*
X35684Y-48377D01*
X35736Y-48503D01*
X35806Y-48573D01*
X35806Y-52323D01*
X35823Y-52406D01*
X35870Y-52477D01*
X37030Y-53637D01*
X35612Y-53641D01*
X35612Y-52047D01*
X35595Y-51964D01*
X35548Y-51893D01*
X35477Y-51846D01*
X35394Y-51829D01*
X35287Y-51829D01*
X35287Y-50325D01*
X35287Y-50148D01*
X35287Y-48593D01*
X35287Y-48416D01*
X35220Y-48253D01*
X35095Y-48128D01*
X34932Y-48060D01*
X34755Y-48060D01*
X34592Y-48127D01*
X34467Y-48252D01*
X34399Y-48415D01*
X34399Y-48592D01*
X34466Y-48755D01*
X34591Y-48880D01*
X34754Y-48948D01*
X34931Y-48948D01*
X35094Y-48881D01*
X35219Y-48756D01*
X35287Y-48593D01*
X35287Y-50148D01*
X35220Y-49985D01*
X35095Y-49860D01*
X34932Y-49792D01*
X34755Y-49792D01*
X34592Y-49859D01*
X34467Y-49984D01*
X34399Y-50147D01*
X34399Y-50324D01*
X34466Y-50487D01*
X34591Y-50612D01*
X34754Y-50680D01*
X34931Y-50680D01*
X35094Y-50613D01*
X35219Y-50488D01*
X35287Y-50325D01*
X35287Y-51829D01*
X35218Y-51829D01*
X35218Y-51260D01*
X35217Y-51259D01*
X35207Y-51207D01*
X35207Y-51206D01*
X35207Y-51078D01*
X35158Y-50958D01*
X35067Y-50867D01*
X34947Y-50817D01*
X34818Y-50817D01*
X34698Y-50866D01*
X34607Y-50957D01*
X34557Y-51077D01*
X34557Y-51206D01*
X34606Y-51326D01*
X34697Y-51417D01*
X34782Y-51452D01*
X34782Y-51929D01*
X34799Y-52012D01*
X34846Y-52083D01*
X34963Y-52201D01*
X34964Y-52201D01*
X35010Y-52231D01*
X35034Y-52247D01*
X35035Y-52248D01*
X35117Y-52264D01*
X35118Y-52265D01*
X35394Y-52265D01*
X35477Y-52248D01*
X35548Y-52201D01*
X35595Y-52130D01*
X35612Y-52047D01*
X35612Y-53641D01*
X33117Y-53649D01*
X33117Y-40967D01*
X33192Y-40587D01*
X33396Y-40284D01*
X33696Y-40082D01*
X34076Y-40007D01*
X51355Y-40007D01*
X51735Y-40082D01*
X52038Y-40286D01*
X52240Y-40586D01*
X52316Y-40966D01*
X52316Y-46889D01*
G54D10*
G36*
X52316Y-58246D02*
X52240Y-58626D01*
X52038Y-58926D01*
X52010Y-58944D01*
X52010Y-52406D01*
X52010Y-51406D01*
X51947Y-51245D01*
X51938Y-51232D01*
X51864Y-51208D01*
X51851Y-51221D01*
X51851Y-51195D01*
X51827Y-51121D01*
X51669Y-51052D01*
X51497Y-51049D01*
X51336Y-51112D01*
X51323Y-51121D01*
X51299Y-51195D01*
X51575Y-51471D01*
X51851Y-51195D01*
X51851Y-51221D01*
X51588Y-51484D01*
X51864Y-51760D01*
X51938Y-51736D01*
X52007Y-51578D01*
X52010Y-51406D01*
X52010Y-52406D01*
X51947Y-52245D01*
X51938Y-52232D01*
X51864Y-52208D01*
X51851Y-52221D01*
X51851Y-52195D01*
X51851Y-51773D01*
X51575Y-51497D01*
X51562Y-51510D01*
X51562Y-51484D01*
X51286Y-51208D01*
X51212Y-51232D01*
X51143Y-51390D01*
X51140Y-51562D01*
X51203Y-51723D01*
X51212Y-51736D01*
X51286Y-51760D01*
X51562Y-51484D01*
X51562Y-51510D01*
X51299Y-51773D01*
X51323Y-51847D01*
X51481Y-51916D01*
X51653Y-51919D01*
X51814Y-51856D01*
X51827Y-51847D01*
X51851Y-51773D01*
X51851Y-52195D01*
X51827Y-52121D01*
X51669Y-52052D01*
X51497Y-52049D01*
X51336Y-52112D01*
X51323Y-52121D01*
X51299Y-52195D01*
X51575Y-52471D01*
X51851Y-52195D01*
X51851Y-52221D01*
X51588Y-52484D01*
X51864Y-52760D01*
X51938Y-52736D01*
X52007Y-52578D01*
X52010Y-52406D01*
X52010Y-58944D01*
X51945Y-58988D01*
X51945Y-57414D01*
X51879Y-57244D01*
X51867Y-57229D01*
X51791Y-57202D01*
X51778Y-57215D01*
X51778Y-57189D01*
X51751Y-57113D01*
X51584Y-57039D01*
X51402Y-57035D01*
X51232Y-57101D01*
X51217Y-57113D01*
X51190Y-57189D01*
X51484Y-57483D01*
X51778Y-57189D01*
X51778Y-57215D01*
X51497Y-57496D01*
X51791Y-57790D01*
X51867Y-57763D01*
X51941Y-57596D01*
X51945Y-57414D01*
X51945Y-58988D01*
X51778Y-59101D01*
X51778Y-57803D01*
X51484Y-57509D01*
X51471Y-57522D01*
X51471Y-57496D01*
X51177Y-57202D01*
X51101Y-57229D01*
X51027Y-57396D01*
X51023Y-57578D01*
X51089Y-57748D01*
X51101Y-57763D01*
X51177Y-57790D01*
X51471Y-57496D01*
X51471Y-57522D01*
X51190Y-57803D01*
X51217Y-57879D01*
X51384Y-57953D01*
X51566Y-57957D01*
X51736Y-57891D01*
X51751Y-57879D01*
X51778Y-57803D01*
X51778Y-59101D01*
X51735Y-59130D01*
X51355Y-59206D01*
X47346Y-59206D01*
X47346Y-58633D01*
X47346Y-58566D01*
X47346Y-57966D01*
X47346Y-57392D01*
X47346Y-57206D01*
X47275Y-57034D01*
X47143Y-56902D01*
X46971Y-56831D01*
X46785Y-56831D01*
X46613Y-56902D01*
X46481Y-57034D01*
X46410Y-57206D01*
X46410Y-57392D01*
X46481Y-57564D01*
X46613Y-57696D01*
X46785Y-57767D01*
X46971Y-57767D01*
X47143Y-57696D01*
X47275Y-57564D01*
X47346Y-57392D01*
X47346Y-57966D01*
X47321Y-57904D01*
X47273Y-57857D01*
X47212Y-57831D01*
X47145Y-57831D01*
X46545Y-57831D01*
X46483Y-57856D01*
X46436Y-57904D01*
X46410Y-57965D01*
X46410Y-58032D01*
X46410Y-58632D01*
X46435Y-58694D01*
X46483Y-58741D01*
X46544Y-58767D01*
X46611Y-58767D01*
X47211Y-58767D01*
X47273Y-58742D01*
X47320Y-58694D01*
X47346Y-58633D01*
X47346Y-59206D01*
X46346Y-59206D01*
X46346Y-58392D01*
X46346Y-58206D01*
X46346Y-57392D01*
X46346Y-57206D01*
X46275Y-57034D01*
X46143Y-56902D01*
X45971Y-56831D01*
X45785Y-56831D01*
X45613Y-56902D01*
X45481Y-57034D01*
X45410Y-57206D01*
X45410Y-57392D01*
X45481Y-57564D01*
X45613Y-57696D01*
X45785Y-57767D01*
X45971Y-57767D01*
X46143Y-57696D01*
X46275Y-57564D01*
X46346Y-57392D01*
X46346Y-58206D01*
X46275Y-58034D01*
X46143Y-57902D01*
X45971Y-57831D01*
X45785Y-57831D01*
X45613Y-57902D01*
X45481Y-58034D01*
X45410Y-58206D01*
X45410Y-58392D01*
X45481Y-58564D01*
X45613Y-58696D01*
X45785Y-58767D01*
X45971Y-58767D01*
X46143Y-58696D01*
X46275Y-58564D01*
X46346Y-58392D01*
X46346Y-59206D01*
X41164Y-59206D01*
X41164Y-57988D01*
X41164Y-57603D01*
X41017Y-57248D01*
X40745Y-56975D01*
X40390Y-56828D01*
X40005Y-56828D01*
X39650Y-56975D01*
X39377Y-57247D01*
X39230Y-57602D01*
X39230Y-57987D01*
X39377Y-58342D01*
X39649Y-58615D01*
X40004Y-58762D01*
X40389Y-58762D01*
X40744Y-58615D01*
X41017Y-58343D01*
X41164Y-57988D01*
X41164Y-59206D01*
X38986Y-59206D01*
X38973Y-55580D01*
X39354Y-55961D01*
X39424Y-56008D01*
X39425Y-56008D01*
X39508Y-56025D01*
X42626Y-56025D01*
X42646Y-56025D01*
X45490Y-56025D01*
X45481Y-56034D01*
X45410Y-56206D01*
X45410Y-56392D01*
X45481Y-56564D01*
X45613Y-56696D01*
X45785Y-56767D01*
X45971Y-56767D01*
X46143Y-56696D01*
X46275Y-56564D01*
X46346Y-56392D01*
X46346Y-56206D01*
X46275Y-56034D01*
X46266Y-56025D01*
X46295Y-56025D01*
X46429Y-56158D01*
X46410Y-56206D01*
X46410Y-56392D01*
X46481Y-56564D01*
X46613Y-56696D01*
X46785Y-56767D01*
X46971Y-56767D01*
X47143Y-56696D01*
X47275Y-56564D01*
X47294Y-56517D01*
X50016Y-56517D01*
X50016Y-56589D01*
X50087Y-56761D01*
X50219Y-56893D01*
X50391Y-56964D01*
X50577Y-56964D01*
X50749Y-56893D01*
X50766Y-56876D01*
X50766Y-56906D01*
X50624Y-57047D01*
X50577Y-57028D01*
X50391Y-57028D01*
X50219Y-57099D01*
X50087Y-57231D01*
X50016Y-57403D01*
X50016Y-57589D01*
X50087Y-57761D01*
X50219Y-57893D01*
X50391Y-57964D01*
X50577Y-57964D01*
X50749Y-57893D01*
X50881Y-57761D01*
X50952Y-57589D01*
X50952Y-57403D01*
X50932Y-57355D01*
X51138Y-57150D01*
X51185Y-57080D01*
X51185Y-57079D01*
X51202Y-56996D01*
X51202Y-56876D01*
X51219Y-56893D01*
X51391Y-56964D01*
X51577Y-56964D01*
X51749Y-56893D01*
X51881Y-56761D01*
X51952Y-56589D01*
X51952Y-56403D01*
X51881Y-56231D01*
X51749Y-56099D01*
X51577Y-56028D01*
X51391Y-56028D01*
X51219Y-56099D01*
X51202Y-56116D01*
X51202Y-55876D01*
X51219Y-55893D01*
X51391Y-55964D01*
X51577Y-55964D01*
X51749Y-55893D01*
X51881Y-55761D01*
X51952Y-55589D01*
X51952Y-55403D01*
X51881Y-55231D01*
X51851Y-55201D01*
X51851Y-52773D01*
X51575Y-52497D01*
X51562Y-52510D01*
X51562Y-52484D01*
X51286Y-52208D01*
X51212Y-52232D01*
X51143Y-52390D01*
X51140Y-52562D01*
X51203Y-52723D01*
X51212Y-52736D01*
X51286Y-52760D01*
X51562Y-52484D01*
X51562Y-52510D01*
X51299Y-52773D01*
X51323Y-52847D01*
X51481Y-52916D01*
X51653Y-52919D01*
X51814Y-52856D01*
X51827Y-52847D01*
X51851Y-52773D01*
X51851Y-55201D01*
X51749Y-55099D01*
X51702Y-55079D01*
X51702Y-54988D01*
X51701Y-54987D01*
X51685Y-54905D01*
X51684Y-54904D01*
X51668Y-54880D01*
X51638Y-54834D01*
X51638Y-54833D01*
X50903Y-54099D01*
X50902Y-54098D01*
X50902Y-54097D01*
X50096Y-53292D01*
X49741Y-52937D01*
X49697Y-52908D01*
X49703Y-52906D01*
X49828Y-52781D01*
X49895Y-52619D01*
X49895Y-52443D01*
X49895Y-51619D01*
X49895Y-51443D01*
X49895Y-50619D01*
X49895Y-50443D01*
X49828Y-50281D01*
X49703Y-50156D01*
X49541Y-50089D01*
X49365Y-50089D01*
X49203Y-50156D01*
X49078Y-50281D01*
X49011Y-50443D01*
X49011Y-50619D01*
X49078Y-50781D01*
X49203Y-50906D01*
X49365Y-50973D01*
X49541Y-50973D01*
X49703Y-50906D01*
X49828Y-50781D01*
X49895Y-50619D01*
X49895Y-51443D01*
X49828Y-51281D01*
X49703Y-51156D01*
X49541Y-51089D01*
X49365Y-51089D01*
X49203Y-51156D01*
X49078Y-51281D01*
X49011Y-51443D01*
X49011Y-51619D01*
X49078Y-51781D01*
X49203Y-51906D01*
X49365Y-51973D01*
X49541Y-51973D01*
X49703Y-51906D01*
X49828Y-51781D01*
X49895Y-51619D01*
X49895Y-52443D01*
X49828Y-52281D01*
X49703Y-52156D01*
X49541Y-52089D01*
X49365Y-52089D01*
X49203Y-52156D01*
X49078Y-52281D01*
X49011Y-52443D01*
X49011Y-52619D01*
X49078Y-52781D01*
X49170Y-52873D01*
X46736Y-52873D01*
X46828Y-52781D01*
X46895Y-52619D01*
X46895Y-52443D01*
X46881Y-52410D01*
X49333Y-49959D01*
X49365Y-49973D01*
X49541Y-49973D01*
X49703Y-49906D01*
X49828Y-49781D01*
X49895Y-49619D01*
X49895Y-49443D01*
X49828Y-49281D01*
X49781Y-49234D01*
X50017Y-49234D01*
X51146Y-50363D01*
X51133Y-50396D01*
X51133Y-50572D01*
X51200Y-50734D01*
X51325Y-50859D01*
X51487Y-50926D01*
X51663Y-50926D01*
X51825Y-50859D01*
X51950Y-50734D01*
X52017Y-50572D01*
X52017Y-50396D01*
X52000Y-50355D01*
X52316Y-50039D01*
X52316Y-58246D01*
X52316Y-58246D01*
G37*
G54D20*
X52316Y-58246D02*
X52240Y-58626D01*
X52038Y-58926D01*
X52010Y-58944D01*
X52010Y-52406D01*
X52010Y-51406D01*
X51947Y-51245D01*
X51938Y-51232D01*
X51864Y-51208D01*
X51851Y-51221D01*
X51851Y-51195D01*
X51827Y-51121D01*
X51669Y-51052D01*
X51497Y-51049D01*
X51336Y-51112D01*
X51323Y-51121D01*
X51299Y-51195D01*
X51575Y-51471D01*
X51851Y-51195D01*
X51851Y-51221D01*
X51588Y-51484D01*
X51864Y-51760D01*
X51938Y-51736D01*
X52007Y-51578D01*
X52010Y-51406D01*
X52010Y-52406D01*
X51947Y-52245D01*
X51938Y-52232D01*
X51864Y-52208D01*
X51851Y-52221D01*
X51851Y-52195D01*
X51851Y-51773D01*
X51575Y-51497D01*
X51562Y-51510D01*
X51562Y-51484D01*
X51286Y-51208D01*
X51212Y-51232D01*
X51143Y-51390D01*
X51140Y-51562D01*
X51203Y-51723D01*
X51212Y-51736D01*
X51286Y-51760D01*
X51562Y-51484D01*
X51562Y-51510D01*
X51299Y-51773D01*
X51323Y-51847D01*
X51481Y-51916D01*
X51653Y-51919D01*
X51814Y-51856D01*
X51827Y-51847D01*
X51851Y-51773D01*
X51851Y-52195D01*
X51827Y-52121D01*
X51669Y-52052D01*
X51497Y-52049D01*
X51336Y-52112D01*
X51323Y-52121D01*
X51299Y-52195D01*
X51575Y-52471D01*
X51851Y-52195D01*
X51851Y-52221D01*
X51588Y-52484D01*
X51864Y-52760D01*
X51938Y-52736D01*
X52007Y-52578D01*
X52010Y-52406D01*
X52010Y-58944D01*
X51945Y-58988D01*
X51945Y-57414D01*
X51879Y-57244D01*
X51867Y-57229D01*
X51791Y-57202D01*
X51778Y-57215D01*
X51778Y-57189D01*
X51751Y-57113D01*
X51584Y-57039D01*
X51402Y-57035D01*
X51232Y-57101D01*
X51217Y-57113D01*
X51190Y-57189D01*
X51484Y-57483D01*
X51778Y-57189D01*
X51778Y-57215D01*
X51497Y-57496D01*
X51791Y-57790D01*
X51867Y-57763D01*
X51941Y-57596D01*
X51945Y-57414D01*
X51945Y-58988D01*
X51778Y-59101D01*
X51778Y-57803D01*
X51484Y-57509D01*
X51471Y-57522D01*
X51471Y-57496D01*
X51177Y-57202D01*
X51101Y-57229D01*
X51027Y-57396D01*
X51023Y-57578D01*
X51089Y-57748D01*
X51101Y-57763D01*
X51177Y-57790D01*
X51471Y-57496D01*
X51471Y-57522D01*
X51190Y-57803D01*
X51217Y-57879D01*
X51384Y-57953D01*
X51566Y-57957D01*
X51736Y-57891D01*
X51751Y-57879D01*
X51778Y-57803D01*
X51778Y-59101D01*
X51735Y-59130D01*
X51355Y-59206D01*
X47346Y-59206D01*
X47346Y-58633D01*
X47346Y-58566D01*
X47346Y-57966D01*
X47346Y-57392D01*
X47346Y-57206D01*
X47275Y-57034D01*
X47143Y-56902D01*
X46971Y-56831D01*
X46785Y-56831D01*
X46613Y-56902D01*
X46481Y-57034D01*
X46410Y-57206D01*
X46410Y-57392D01*
X46481Y-57564D01*
X46613Y-57696D01*
X46785Y-57767D01*
X46971Y-57767D01*
X47143Y-57696D01*
X47275Y-57564D01*
X47346Y-57392D01*
X47346Y-57966D01*
X47321Y-57904D01*
X47273Y-57857D01*
X47212Y-57831D01*
X47145Y-57831D01*
X46545Y-57831D01*
X46483Y-57856D01*
X46436Y-57904D01*
X46410Y-57965D01*
X46410Y-58032D01*
X46410Y-58632D01*
X46435Y-58694D01*
X46483Y-58741D01*
X46544Y-58767D01*
X46611Y-58767D01*
X47211Y-58767D01*
X47273Y-58742D01*
X47320Y-58694D01*
X47346Y-58633D01*
X47346Y-59206D01*
X46346Y-59206D01*
X46346Y-58392D01*
X46346Y-58206D01*
X46346Y-57392D01*
X46346Y-57206D01*
X46275Y-57034D01*
X46143Y-56902D01*
X45971Y-56831D01*
X45785Y-56831D01*
X45613Y-56902D01*
X45481Y-57034D01*
X45410Y-57206D01*
X45410Y-57392D01*
X45481Y-57564D01*
X45613Y-57696D01*
X45785Y-57767D01*
X45971Y-57767D01*
X46143Y-57696D01*
X46275Y-57564D01*
X46346Y-57392D01*
X46346Y-58206D01*
X46275Y-58034D01*
X46143Y-57902D01*
X45971Y-57831D01*
X45785Y-57831D01*
X45613Y-57902D01*
X45481Y-58034D01*
X45410Y-58206D01*
X45410Y-58392D01*
X45481Y-58564D01*
X45613Y-58696D01*
X45785Y-58767D01*
X45971Y-58767D01*
X46143Y-58696D01*
X46275Y-58564D01*
X46346Y-58392D01*
X46346Y-59206D01*
X41164Y-59206D01*
X41164Y-57988D01*
X41164Y-57603D01*
X41017Y-57248D01*
X40745Y-56975D01*
X40390Y-56828D01*
X40005Y-56828D01*
X39650Y-56975D01*
X39377Y-57247D01*
X39230Y-57602D01*
X39230Y-57987D01*
X39377Y-58342D01*
X39649Y-58615D01*
X40004Y-58762D01*
X40389Y-58762D01*
X40744Y-58615D01*
X41017Y-58343D01*
X41164Y-57988D01*
X41164Y-59206D01*
X38986Y-59206D01*
X38973Y-55580D01*
X39354Y-55961D01*
X39424Y-56008D01*
X39425Y-56008D01*
X39508Y-56025D01*
X42626Y-56025D01*
X42646Y-56025D01*
X45490Y-56025D01*
X45481Y-56034D01*
X45410Y-56206D01*
X45410Y-56392D01*
X45481Y-56564D01*
X45613Y-56696D01*
X45785Y-56767D01*
X45971Y-56767D01*
X46143Y-56696D01*
X46275Y-56564D01*
X46346Y-56392D01*
X46346Y-56206D01*
X46275Y-56034D01*
X46266Y-56025D01*
X46295Y-56025D01*
X46429Y-56158D01*
X46410Y-56206D01*
X46410Y-56392D01*
X46481Y-56564D01*
X46613Y-56696D01*
X46785Y-56767D01*
X46971Y-56767D01*
X47143Y-56696D01*
X47275Y-56564D01*
X47294Y-56517D01*
X50016Y-56517D01*
X50016Y-56589D01*
X50087Y-56761D01*
X50219Y-56893D01*
X50391Y-56964D01*
X50577Y-56964D01*
X50749Y-56893D01*
X50766Y-56876D01*
X50766Y-56906D01*
X50624Y-57047D01*
X50577Y-57028D01*
X50391Y-57028D01*
X50219Y-57099D01*
X50087Y-57231D01*
X50016Y-57403D01*
X50016Y-57589D01*
X50087Y-57761D01*
X50219Y-57893D01*
X50391Y-57964D01*
X50577Y-57964D01*
X50749Y-57893D01*
X50881Y-57761D01*
X50952Y-57589D01*
X50952Y-57403D01*
X50932Y-57355D01*
X51138Y-57150D01*
X51185Y-57080D01*
X51185Y-57079D01*
X51202Y-56996D01*
X51202Y-56876D01*
X51219Y-56893D01*
X51391Y-56964D01*
X51577Y-56964D01*
X51749Y-56893D01*
X51881Y-56761D01*
X51952Y-56589D01*
X51952Y-56403D01*
X51881Y-56231D01*
X51749Y-56099D01*
X51577Y-56028D01*
X51391Y-56028D01*
X51219Y-56099D01*
X51202Y-56116D01*
X51202Y-55876D01*
X51219Y-55893D01*
X51391Y-55964D01*
X51577Y-55964D01*
X51749Y-55893D01*
X51881Y-55761D01*
X51952Y-55589D01*
X51952Y-55403D01*
X51881Y-55231D01*
X51851Y-55201D01*
X51851Y-52773D01*
X51575Y-52497D01*
X51562Y-52510D01*
X51562Y-52484D01*
X51286Y-52208D01*
X51212Y-52232D01*
X51143Y-52390D01*
X51140Y-52562D01*
X51203Y-52723D01*
X51212Y-52736D01*
X51286Y-52760D01*
X51562Y-52484D01*
X51562Y-52510D01*
X51299Y-52773D01*
X51323Y-52847D01*
X51481Y-52916D01*
X51653Y-52919D01*
X51814Y-52856D01*
X51827Y-52847D01*
X51851Y-52773D01*
X51851Y-55201D01*
X51749Y-55099D01*
X51702Y-55079D01*
X51702Y-54988D01*
X51701Y-54987D01*
X51685Y-54905D01*
X51684Y-54904D01*
X51668Y-54880D01*
X51638Y-54834D01*
X51638Y-54833D01*
X50903Y-54099D01*
X50902Y-54098D01*
X50902Y-54097D01*
X50096Y-53292D01*
X49741Y-52937D01*
X49697Y-52908D01*
X49703Y-52906D01*
X49828Y-52781D01*
X49895Y-52619D01*
X49895Y-52443D01*
X49895Y-51619D01*
X49895Y-51443D01*
X49895Y-50619D01*
X49895Y-50443D01*
X49828Y-50281D01*
X49703Y-50156D01*
X49541Y-50089D01*
X49365Y-50089D01*
X49203Y-50156D01*
X49078Y-50281D01*
X49011Y-50443D01*
X49011Y-50619D01*
X49078Y-50781D01*
X49203Y-50906D01*
X49365Y-50973D01*
X49541Y-50973D01*
X49703Y-50906D01*
X49828Y-50781D01*
X49895Y-50619D01*
X49895Y-51443D01*
X49828Y-51281D01*
X49703Y-51156D01*
X49541Y-51089D01*
X49365Y-51089D01*
X49203Y-51156D01*
X49078Y-51281D01*
X49011Y-51443D01*
X49011Y-51619D01*
X49078Y-51781D01*
X49203Y-51906D01*
X49365Y-51973D01*
X49541Y-51973D01*
X49703Y-51906D01*
X49828Y-51781D01*
X49895Y-51619D01*
X49895Y-52443D01*
X49828Y-52281D01*
X49703Y-52156D01*
X49541Y-52089D01*
X49365Y-52089D01*
X49203Y-52156D01*
X49078Y-52281D01*
X49011Y-52443D01*
X49011Y-52619D01*
X49078Y-52781D01*
X49170Y-52873D01*
X46736Y-52873D01*
X46828Y-52781D01*
X46895Y-52619D01*
X46895Y-52443D01*
X46881Y-52410D01*
X49333Y-49959D01*
X49365Y-49973D01*
X49541Y-49973D01*
X49703Y-49906D01*
X49828Y-49781D01*
X49895Y-49619D01*
X49895Y-49443D01*
X49828Y-49281D01*
X49781Y-49234D01*
X50017Y-49234D01*
X51146Y-50363D01*
X51133Y-50396D01*
X51133Y-50572D01*
X51200Y-50734D01*
X51325Y-50859D01*
X51487Y-50926D01*
X51663Y-50926D01*
X51825Y-50859D01*
X51950Y-50734D01*
X52017Y-50572D01*
X52017Y-50396D01*
X52000Y-50355D01*
X52316Y-50039D01*
X52316Y-58246D01*
M02*
