G04 (created by PCBNEW-RS274X (2012-01-19 BZR 3256)-stable) date 21-08-2012 21:52:41*
G01*
G70*
G90*
%MOIN*%
G04 Gerber Fmt 3.4, Leading zero omitted, Abs format*
%FSLAX34Y34*%
G04 APERTURE LIST*
%ADD10C,0.006000*%
%ADD11C,0.015000*%
%ADD12R,0.078700X0.017700*%
%ADD13R,0.017700X0.078700*%
%ADD14R,0.027600X0.039400*%
%ADD15R,0.144000X0.080000*%
%ADD16R,0.040000X0.080000*%
%ADD17R,0.035000X0.055000*%
%ADD18R,0.055000X0.035000*%
%ADD19R,0.098400X0.019600*%
%ADD20R,0.098400X0.078700*%
%ADD21C,0.055400*%
%ADD22R,0.015700X0.023600*%
%ADD23R,0.086600X0.055100*%
G04 APERTURE END LIST*
G54D10*
G54D11*
X51378Y-59449D02*
X51480Y-59444D01*
X51583Y-59431D01*
X51683Y-59408D01*
X51781Y-59377D01*
X51877Y-59338D01*
X51968Y-59290D01*
X52055Y-59235D01*
X52137Y-59172D01*
X52213Y-59103D01*
X52282Y-59027D01*
X52345Y-58945D01*
X52400Y-58858D01*
X52448Y-58767D01*
X52487Y-58671D01*
X52518Y-58573D01*
X52541Y-58473D01*
X52554Y-58370D01*
X52559Y-58268D01*
X52559Y-40945D02*
X52554Y-40843D01*
X52541Y-40740D01*
X52518Y-40640D01*
X52487Y-40542D01*
X52448Y-40446D01*
X52400Y-40355D01*
X52345Y-40268D01*
X52282Y-40186D01*
X52213Y-40110D01*
X52137Y-40041D01*
X52055Y-39978D01*
X51968Y-39923D01*
X51877Y-39875D01*
X51781Y-39836D01*
X51683Y-39805D01*
X51583Y-39782D01*
X51480Y-39769D01*
X51378Y-39764D01*
X32874Y-58268D02*
X32879Y-58370D01*
X32892Y-58473D01*
X32915Y-58573D01*
X32946Y-58671D01*
X32985Y-58767D01*
X33033Y-58858D01*
X33088Y-58945D01*
X33151Y-59027D01*
X33220Y-59103D01*
X33296Y-59172D01*
X33378Y-59235D01*
X33465Y-59290D01*
X33556Y-59338D01*
X33652Y-59377D01*
X33750Y-59408D01*
X33850Y-59431D01*
X33953Y-59444D01*
X34055Y-59449D01*
X34055Y-39764D02*
X33953Y-39769D01*
X33850Y-39782D01*
X33750Y-39805D01*
X33652Y-39836D01*
X33556Y-39875D01*
X33465Y-39923D01*
X33378Y-39978D01*
X33296Y-40041D01*
X33220Y-40110D01*
X33151Y-40186D01*
X33088Y-40268D01*
X33033Y-40355D01*
X32985Y-40446D01*
X32946Y-40542D01*
X32915Y-40640D01*
X32892Y-40740D01*
X32879Y-40843D01*
X32874Y-40945D01*
X32874Y-58268D02*
X32874Y-40945D01*
X51378Y-59449D02*
X34055Y-59449D01*
X52559Y-40945D02*
X52559Y-58268D01*
X34055Y-39764D02*
X51378Y-39764D01*
G54D12*
X40873Y-48316D03*
X40873Y-48631D03*
X40873Y-48946D03*
X40873Y-49261D03*
X40873Y-49576D03*
X40873Y-49891D03*
X40873Y-50206D03*
X40873Y-50521D03*
X37107Y-50519D03*
X37107Y-48309D03*
X37107Y-48629D03*
X37107Y-48949D03*
X37107Y-49259D03*
X37107Y-49579D03*
X37107Y-49889D03*
X37107Y-50209D03*
G54D13*
X40089Y-51309D03*
X39775Y-51309D03*
X39459Y-51309D03*
X39145Y-51309D03*
X38829Y-51309D03*
X38515Y-51309D03*
X38199Y-51309D03*
X37885Y-51309D03*
X40087Y-47529D03*
X39777Y-47529D03*
X39457Y-47529D03*
X39147Y-47529D03*
X38837Y-47529D03*
X38517Y-47529D03*
X38197Y-47529D03*
X37877Y-47529D03*
G54D14*
X36929Y-53098D03*
X36554Y-52098D03*
X37304Y-52098D03*
X35039Y-53098D03*
X34664Y-52098D03*
X35414Y-52098D03*
G54D15*
X38781Y-40905D03*
G54D16*
X38781Y-43505D03*
X39681Y-43505D03*
X37881Y-43505D03*
G54D17*
X35848Y-45433D03*
X35098Y-45433D03*
X35847Y-46339D03*
X35097Y-46339D03*
G54D18*
X39567Y-53131D03*
X39567Y-52381D03*
X40551Y-53131D03*
X40551Y-52381D03*
X42520Y-50117D03*
X42520Y-50867D03*
X50591Y-46832D03*
X50591Y-46082D03*
X45040Y-45808D03*
X45040Y-45058D03*
X40354Y-45294D03*
X40354Y-46044D03*
X36655Y-43011D03*
X36655Y-43761D03*
X36655Y-41515D03*
X36655Y-42265D03*
X36982Y-45137D03*
X36982Y-45887D03*
X43799Y-50117D03*
X43799Y-50867D03*
X42835Y-48879D03*
X42835Y-48129D03*
X44764Y-48523D03*
X44764Y-49273D03*
G54D17*
X35848Y-44528D03*
X35098Y-44528D03*
G54D18*
X37966Y-45137D03*
X37966Y-45887D03*
G54D19*
X35827Y-49370D03*
X35827Y-49056D03*
X35827Y-49999D03*
X35827Y-49684D03*
G54D20*
X33662Y-51141D03*
X33662Y-47599D03*
X35827Y-51102D03*
X35827Y-47599D03*
G54D21*
X34843Y-48504D03*
X34843Y-50236D03*
G54D19*
X35827Y-48741D03*
G54D17*
X45454Y-51339D03*
X44704Y-51339D03*
X45454Y-52205D03*
X44704Y-52205D03*
X45454Y-53071D03*
X44704Y-53071D03*
G54D22*
X38839Y-45709D03*
X39193Y-45709D03*
X38839Y-46417D03*
X39193Y-46417D03*
G54D23*
X41477Y-46043D03*
X43957Y-46043D03*
X41477Y-45059D03*
X43957Y-45059D03*
M02*
