G04 (created by PCBNEW-RS274X (2012-01-19 BZR 3256)-stable) date 21-08-2012 09:22:58*
G01*
G70*
G90*
%MOIN*%
G04 Gerber Fmt 3.4, Leading zero omitted, Abs format*
%FSLAX34Y34*%
G04 APERTURE LIST*
%ADD10C,0.006000*%
%ADD11C,0.015000*%
G04 APERTURE END LIST*
G54D10*
G54D11*
X51378Y-59449D02*
X51480Y-59444D01*
X51583Y-59431D01*
X51683Y-59408D01*
X51781Y-59377D01*
X51877Y-59338D01*
X51968Y-59290D01*
X52055Y-59235D01*
X52137Y-59172D01*
X52213Y-59103D01*
X52282Y-59027D01*
X52345Y-58945D01*
X52400Y-58858D01*
X52448Y-58767D01*
X52487Y-58671D01*
X52518Y-58573D01*
X52541Y-58473D01*
X52554Y-58370D01*
X52559Y-58268D01*
X52559Y-40945D02*
X52554Y-40843D01*
X52541Y-40740D01*
X52518Y-40640D01*
X52487Y-40542D01*
X52448Y-40446D01*
X52400Y-40355D01*
X52345Y-40268D01*
X52282Y-40186D01*
X52213Y-40110D01*
X52137Y-40041D01*
X52055Y-39978D01*
X51968Y-39923D01*
X51877Y-39875D01*
X51781Y-39836D01*
X51683Y-39805D01*
X51583Y-39782D01*
X51480Y-39769D01*
X51378Y-39764D01*
X29134Y-58268D02*
X29139Y-58370D01*
X29152Y-58473D01*
X29175Y-58573D01*
X29206Y-58671D01*
X29245Y-58767D01*
X29293Y-58858D01*
X29348Y-58945D01*
X29411Y-59027D01*
X29480Y-59103D01*
X29556Y-59172D01*
X29638Y-59235D01*
X29725Y-59290D01*
X29816Y-59338D01*
X29912Y-59377D01*
X30010Y-59408D01*
X30110Y-59431D01*
X30213Y-59444D01*
X30315Y-59449D01*
X30315Y-39764D02*
X30213Y-39769D01*
X30110Y-39782D01*
X30010Y-39805D01*
X29912Y-39836D01*
X29816Y-39875D01*
X29725Y-39923D01*
X29638Y-39978D01*
X29556Y-40041D01*
X29480Y-40110D01*
X29411Y-40186D01*
X29348Y-40268D01*
X29293Y-40355D01*
X29245Y-40446D01*
X29206Y-40542D01*
X29175Y-40640D01*
X29152Y-40740D01*
X29139Y-40843D01*
X29134Y-40945D01*
X29134Y-58268D02*
X29134Y-40945D01*
X51378Y-59449D02*
X30315Y-59449D01*
X52559Y-40945D02*
X52559Y-58268D01*
X30315Y-39764D02*
X51378Y-39764D01*
M02*
