G04 (created by PCBNEW-RS274X (2012-01-19 BZR 3256)-stable) date 21-08-2012 09:22:58*
G01*
G70*
G90*
%MOIN*%
G04 Gerber Fmt 3.4, Leading zero omitted, Abs format*
%FSLAX34Y34*%
G04 APERTURE LIST*
%ADD10C,0.006000*%
%ADD11C,0.015000*%
%ADD12R,0.078700X0.017700*%
%ADD13R,0.017700X0.078700*%
%ADD14R,0.027600X0.039400*%
%ADD15R,0.144000X0.080000*%
%ADD16R,0.040000X0.080000*%
%ADD17R,0.035000X0.055000*%
%ADD18R,0.055000X0.035000*%
%ADD19R,0.098400X0.019600*%
%ADD20R,0.098400X0.078700*%
%ADD21C,0.055400*%
%ADD22R,0.055000X0.055000*%
%ADD23C,0.055000*%
%ADD24R,0.060000X0.060000*%
%ADD25C,0.060000*%
%ADD26R,0.015700X0.023600*%
%ADD27C,0.160000*%
%ADD28R,0.086600X0.055100*%
%ADD29C,0.035000*%
%ADD30C,0.031500*%
%ADD31C,0.010000*%
G04 APERTURE END LIST*
G54D10*
G54D11*
X51378Y-59449D02*
X51480Y-59444D01*
X51583Y-59431D01*
X51683Y-59408D01*
X51781Y-59377D01*
X51877Y-59338D01*
X51968Y-59290D01*
X52055Y-59235D01*
X52137Y-59172D01*
X52213Y-59103D01*
X52282Y-59027D01*
X52345Y-58945D01*
X52400Y-58858D01*
X52448Y-58767D01*
X52487Y-58671D01*
X52518Y-58573D01*
X52541Y-58473D01*
X52554Y-58370D01*
X52559Y-58268D01*
X52559Y-40945D02*
X52554Y-40843D01*
X52541Y-40740D01*
X52518Y-40640D01*
X52487Y-40542D01*
X52448Y-40446D01*
X52400Y-40355D01*
X52345Y-40268D01*
X52282Y-40186D01*
X52213Y-40110D01*
X52137Y-40041D01*
X52055Y-39978D01*
X51968Y-39923D01*
X51877Y-39875D01*
X51781Y-39836D01*
X51683Y-39805D01*
X51583Y-39782D01*
X51480Y-39769D01*
X51378Y-39764D01*
X29134Y-58268D02*
X29139Y-58370D01*
X29152Y-58473D01*
X29175Y-58573D01*
X29206Y-58671D01*
X29245Y-58767D01*
X29293Y-58858D01*
X29348Y-58945D01*
X29411Y-59027D01*
X29480Y-59103D01*
X29556Y-59172D01*
X29638Y-59235D01*
X29725Y-59290D01*
X29816Y-59338D01*
X29912Y-59377D01*
X30010Y-59408D01*
X30110Y-59431D01*
X30213Y-59444D01*
X30315Y-59449D01*
X30315Y-39764D02*
X30213Y-39769D01*
X30110Y-39782D01*
X30010Y-39805D01*
X29912Y-39836D01*
X29816Y-39875D01*
X29725Y-39923D01*
X29638Y-39978D01*
X29556Y-40041D01*
X29480Y-40110D01*
X29411Y-40186D01*
X29348Y-40268D01*
X29293Y-40355D01*
X29245Y-40446D01*
X29206Y-40542D01*
X29175Y-40640D01*
X29152Y-40740D01*
X29139Y-40843D01*
X29134Y-40945D01*
X29134Y-58268D02*
X29134Y-40945D01*
X51378Y-59449D02*
X30315Y-59449D01*
X52559Y-40945D02*
X52559Y-58268D01*
X30315Y-39764D02*
X51378Y-39764D01*
G54D12*
X40676Y-48316D03*
X40676Y-48631D03*
X40676Y-48946D03*
X40676Y-49261D03*
X40676Y-49576D03*
X40676Y-49891D03*
X40676Y-50206D03*
X40676Y-50521D03*
X36910Y-50519D03*
X36910Y-48309D03*
X36910Y-48629D03*
X36910Y-48949D03*
X36910Y-49259D03*
X36910Y-49579D03*
X36910Y-49889D03*
X36910Y-50209D03*
G54D13*
X39892Y-51309D03*
X39578Y-51309D03*
X39262Y-51309D03*
X38948Y-51309D03*
X38632Y-51309D03*
X38318Y-51309D03*
X38002Y-51309D03*
X37688Y-51309D03*
X39890Y-47529D03*
X39580Y-47529D03*
X39260Y-47529D03*
X38950Y-47529D03*
X38640Y-47529D03*
X38320Y-47529D03*
X38000Y-47529D03*
X37680Y-47529D03*
G54D14*
X33976Y-52783D03*
X33601Y-51783D03*
X34351Y-51783D03*
X35394Y-52783D03*
X35019Y-51783D03*
X35769Y-51783D03*
G54D15*
X34843Y-40826D03*
G54D16*
X34843Y-43426D03*
X35743Y-43426D03*
X33943Y-43426D03*
G54D17*
X34036Y-45866D03*
X33286Y-45866D03*
G54D18*
X34016Y-48208D03*
X34016Y-48958D03*
X39370Y-53131D03*
X39370Y-52381D03*
X40354Y-53131D03*
X40354Y-52381D03*
X42323Y-50117D03*
X42323Y-50867D03*
X50394Y-46832D03*
X50394Y-46082D03*
X44843Y-45808D03*
X44843Y-45058D03*
X40157Y-45294D03*
X40157Y-46044D03*
X32717Y-42932D03*
X32717Y-43682D03*
X32717Y-41436D03*
X32717Y-42186D03*
X36024Y-44704D03*
X36024Y-45454D03*
X43602Y-50117D03*
X43602Y-50867D03*
X42638Y-48879D03*
X42638Y-48129D03*
X44567Y-48523D03*
X44567Y-49273D03*
G54D17*
X34036Y-44685D03*
X33286Y-44685D03*
G54D18*
X37008Y-44704D03*
X37008Y-45454D03*
G54D19*
X32480Y-49409D03*
X32480Y-49095D03*
X32480Y-50038D03*
X32480Y-49723D03*
G54D20*
X30315Y-51180D03*
X30315Y-47638D03*
X32480Y-51141D03*
X32480Y-47638D03*
G54D21*
X31496Y-48543D03*
X31496Y-50275D03*
G54D19*
X32480Y-48780D03*
G54D17*
X45257Y-51575D03*
X44507Y-51575D03*
X45257Y-52598D03*
X44507Y-52598D03*
X45257Y-53661D03*
X44507Y-53661D03*
G54D22*
X51378Y-49484D03*
G54D23*
X51378Y-50484D03*
X51378Y-51484D03*
X51378Y-52484D03*
G54D24*
X42941Y-58299D03*
G54D25*
X41941Y-58299D03*
X42941Y-57299D03*
X41941Y-57299D03*
X42941Y-56299D03*
X41941Y-56299D03*
X42941Y-55299D03*
X41941Y-55299D03*
X42941Y-54299D03*
X41941Y-54299D03*
G54D24*
X50287Y-55496D03*
G54D25*
X51287Y-55496D03*
X50287Y-56496D03*
X51287Y-56496D03*
X50287Y-57496D03*
X51287Y-57496D03*
G54D22*
X46256Y-43531D03*
G54D23*
X46256Y-44531D03*
X46256Y-45531D03*
X46256Y-46531D03*
X46256Y-47531D03*
X46256Y-48531D03*
X46256Y-49531D03*
X46256Y-50531D03*
X46256Y-51531D03*
X46256Y-52531D03*
X49256Y-52531D03*
X49256Y-51531D03*
X49256Y-50531D03*
X49256Y-49531D03*
X49256Y-48531D03*
X49256Y-47531D03*
X49256Y-46531D03*
X49256Y-45531D03*
X49256Y-44531D03*
X49256Y-43531D03*
G54D26*
X38799Y-44213D03*
X39153Y-44213D03*
X38799Y-44921D03*
X39153Y-44921D03*
G54D22*
X51378Y-45457D03*
G54D23*
X51378Y-46457D03*
X51378Y-47457D03*
G54D27*
X30787Y-41378D03*
X50906Y-41378D03*
X37953Y-57835D03*
G54D28*
X41280Y-46043D03*
X43760Y-46043D03*
X41280Y-45059D03*
X43760Y-45059D03*
G54D29*
X45276Y-48504D03*
X39724Y-48504D03*
X38268Y-49055D03*
X43622Y-48937D03*
X38189Y-49646D03*
X44882Y-50118D03*
X38268Y-50118D03*
X43780Y-52047D03*
X43425Y-53307D03*
X38740Y-52362D03*
X37992Y-46752D03*
X38880Y-48258D03*
X44291Y-50098D03*
X39094Y-49291D03*
X43346Y-47480D03*
G54D30*
X42559Y-44134D03*
G54D29*
X42362Y-51732D03*
X33622Y-50039D03*
X36614Y-47736D03*
X38583Y-54331D03*
X37992Y-48307D03*
X45315Y-47441D03*
X47992Y-47402D03*
X33622Y-51102D03*
X34803Y-48937D03*
X38976Y-50492D03*
X35829Y-48309D03*
X34843Y-45866D03*
G54D31*
X39890Y-47529D02*
X39890Y-48338D01*
X44390Y-55830D02*
X44882Y-55338D01*
X42941Y-57279D02*
X44390Y-55830D01*
X42941Y-57299D02*
X42941Y-57279D01*
X44882Y-50886D02*
X45276Y-50492D01*
X39890Y-48338D02*
X39724Y-48504D01*
X45276Y-50492D02*
X45276Y-48504D01*
X44882Y-55338D02*
X44882Y-50886D01*
X42434Y-56791D02*
X42434Y-56806D01*
X42430Y-53808D02*
X41632Y-53010D01*
X42434Y-56806D02*
X41941Y-57299D01*
X41636Y-50526D02*
X41316Y-50206D01*
X40676Y-50206D02*
X41316Y-50206D01*
X42434Y-56791D02*
X42430Y-53808D01*
X41632Y-53010D02*
X41636Y-50526D01*
X44567Y-49273D02*
X43958Y-49273D01*
X37537Y-50209D02*
X37677Y-50069D01*
X43958Y-49273D02*
X43622Y-48937D01*
X38228Y-49094D02*
X38229Y-49094D01*
X37677Y-50069D02*
X37677Y-49645D01*
X37677Y-49645D02*
X38228Y-49094D01*
X36898Y-50197D02*
X36910Y-50209D01*
X38229Y-49094D02*
X38268Y-49055D01*
X37537Y-50209D02*
X36910Y-50209D01*
X37513Y-50519D02*
X37913Y-50119D01*
X44507Y-50493D02*
X44507Y-51575D01*
X37913Y-50119D02*
X37913Y-49922D01*
X37913Y-49922D02*
X38189Y-49646D01*
X36910Y-50519D02*
X37513Y-50519D01*
X44882Y-50118D02*
X44507Y-50493D01*
X36890Y-50539D02*
X36910Y-50519D01*
X44507Y-52598D02*
X44133Y-52598D01*
X37688Y-50698D02*
X37688Y-51309D01*
X37688Y-50698D02*
X38268Y-50118D01*
X44133Y-52598D02*
X43780Y-52245D01*
X43780Y-52245D02*
X43780Y-52047D01*
X38228Y-52205D02*
X38229Y-52205D01*
X38002Y-51309D02*
X38002Y-51979D01*
X43425Y-53307D02*
X43779Y-53661D01*
X38002Y-51979D02*
X38228Y-52205D01*
X38386Y-52362D02*
X38740Y-52362D01*
X43779Y-53661D02*
X44507Y-53661D01*
X38229Y-52205D02*
X38386Y-52362D01*
X42571Y-48946D02*
X42638Y-48879D01*
X40676Y-48946D02*
X41269Y-48946D01*
X50276Y-46082D02*
X50394Y-46082D01*
X43443Y-48249D02*
X42813Y-48879D01*
X41467Y-49576D02*
X40676Y-49576D01*
X46339Y-46084D02*
X46082Y-46084D01*
X41269Y-48946D02*
X41634Y-48946D01*
X50787Y-55996D02*
X51287Y-55496D01*
X33956Y-41436D02*
X35743Y-43223D01*
X37606Y-48629D02*
X37638Y-48661D01*
X50394Y-46082D02*
X46339Y-46084D01*
X46339Y-46084D02*
X46299Y-46084D01*
X37992Y-46654D02*
X37598Y-46260D01*
X41634Y-48946D02*
X41634Y-49409D01*
X42206Y-50000D02*
X42323Y-50117D01*
X43602Y-50117D02*
X44272Y-50117D01*
X38880Y-48661D02*
X37638Y-48661D01*
X51363Y-45472D02*
X51378Y-45457D01*
X37598Y-46260D02*
X37598Y-44881D01*
X44528Y-47638D02*
X44054Y-47638D01*
X42323Y-50117D02*
X43602Y-50117D01*
X38880Y-48661D02*
X38880Y-48684D01*
X41634Y-48946D02*
X41723Y-48946D01*
X41723Y-48946D02*
X42571Y-48946D01*
X36910Y-48629D02*
X37606Y-48629D01*
X44054Y-47638D02*
X43443Y-48249D01*
X46082Y-46084D02*
X44528Y-47638D01*
X38880Y-48684D02*
X39142Y-48946D01*
X41831Y-50000D02*
X42206Y-50000D01*
X37992Y-46752D02*
X37992Y-46654D01*
X38880Y-48258D02*
X38880Y-48661D01*
X50394Y-45571D02*
X50394Y-46082D01*
X50787Y-57874D02*
X50787Y-55996D01*
X50493Y-45472D02*
X51363Y-45472D01*
X50493Y-45472D02*
X50394Y-45571D01*
X32717Y-41436D02*
X33956Y-41436D01*
X37008Y-44704D02*
X37421Y-44704D01*
X35743Y-43426D02*
X35743Y-44010D01*
X50362Y-58299D02*
X50787Y-57874D01*
X36024Y-44704D02*
X37008Y-44704D01*
X46693Y-58299D02*
X42941Y-58299D01*
X44272Y-50117D02*
X44291Y-50098D01*
X35743Y-43586D02*
X35743Y-43426D01*
X50394Y-46082D02*
X50473Y-46082D01*
X37598Y-44881D02*
X37421Y-44704D01*
X41437Y-49606D02*
X41831Y-50000D01*
X46681Y-58299D02*
X46693Y-58299D01*
X42813Y-48879D02*
X42638Y-48879D01*
X39142Y-48946D02*
X40676Y-48946D01*
X36024Y-44291D02*
X36024Y-44704D01*
X35743Y-44010D02*
X36024Y-44291D01*
X46693Y-58299D02*
X50362Y-58299D01*
X35743Y-43223D02*
X35743Y-43426D01*
X41634Y-49409D02*
X41437Y-49606D01*
X50493Y-45472D02*
X50493Y-45472D01*
X41437Y-49606D02*
X41467Y-49576D01*
X51378Y-46617D02*
X51378Y-46457D01*
X38681Y-51260D02*
X38632Y-51309D01*
X39075Y-49311D02*
X39094Y-49291D01*
X51163Y-46832D02*
X51378Y-46617D01*
X38632Y-49754D02*
X38681Y-49705D01*
X38681Y-49705D02*
X39075Y-49311D01*
X38632Y-49754D02*
X38632Y-51309D01*
X50394Y-46832D02*
X51163Y-46832D01*
X43346Y-47480D02*
X43346Y-47480D01*
X32480Y-50038D02*
X33621Y-50038D01*
X39803Y-49685D02*
X40009Y-49891D01*
X43602Y-50867D02*
X43601Y-50866D01*
X43110Y-50866D02*
X43110Y-50906D01*
X43110Y-50906D02*
X43110Y-50984D01*
X40009Y-49891D02*
X40676Y-49891D01*
X43110Y-50984D02*
X42362Y-51732D01*
X43346Y-47677D02*
X43346Y-47480D01*
X39991Y-49261D02*
X39803Y-49449D01*
X43228Y-47795D02*
X43346Y-47677D01*
X40676Y-49261D02*
X39991Y-49261D01*
X33621Y-50038D02*
X33622Y-50039D01*
X43601Y-50866D02*
X43110Y-50866D01*
X42657Y-48110D02*
X43228Y-47795D01*
X42638Y-48129D02*
X42657Y-48110D01*
X39803Y-49449D02*
X39803Y-49685D01*
X41941Y-55299D02*
X41921Y-55299D01*
X41261Y-50521D02*
X40676Y-50521D01*
X41390Y-50650D02*
X41390Y-54768D01*
X41261Y-50521D02*
X41390Y-50650D01*
X41921Y-55299D02*
X41390Y-54768D01*
X37303Y-46752D02*
X36614Y-47441D01*
X37680Y-46932D02*
X37680Y-47529D01*
X37500Y-46752D02*
X37303Y-46752D01*
X36614Y-47441D02*
X36614Y-47736D01*
X37680Y-46932D02*
X37500Y-46752D01*
X41437Y-56299D02*
X41921Y-56299D01*
X41654Y-59055D02*
X41142Y-58543D01*
X51083Y-59055D02*
X45079Y-59055D01*
X38000Y-47529D02*
X38000Y-48299D01*
X41142Y-56594D02*
X41437Y-56299D01*
X52067Y-56988D02*
X52067Y-58071D01*
X38583Y-54331D02*
X40866Y-56614D01*
X41142Y-56614D02*
X41142Y-56594D01*
X51575Y-56496D02*
X51287Y-56496D01*
X40866Y-56614D02*
X41142Y-56614D01*
X38000Y-48299D02*
X37992Y-48307D01*
X51575Y-56496D02*
X52067Y-56988D01*
X52067Y-58071D02*
X51083Y-59055D01*
X41142Y-56614D02*
X41142Y-58543D01*
X45079Y-59055D02*
X41654Y-59055D01*
X41941Y-56299D02*
X41437Y-56299D01*
X49121Y-48531D02*
X49256Y-48531D01*
X44666Y-48090D02*
X45315Y-47441D01*
X44567Y-48189D02*
X44567Y-48523D01*
X44666Y-48090D02*
X44567Y-48189D01*
X46256Y-43531D02*
X46256Y-44531D01*
X47992Y-47402D02*
X49121Y-48531D01*
X49256Y-48531D02*
X49256Y-48705D01*
X49279Y-51554D02*
X49256Y-51531D01*
X49256Y-48705D02*
X50118Y-49567D01*
X46256Y-44531D02*
X46256Y-45531D01*
X50118Y-49567D02*
X50118Y-50669D01*
X50118Y-50669D02*
X49256Y-51531D01*
X50394Y-51495D02*
X50394Y-48228D01*
X49256Y-44531D02*
X51735Y-44531D01*
X46256Y-51531D02*
X48256Y-51531D01*
X49953Y-48228D02*
X49256Y-47531D01*
X50394Y-48228D02*
X49953Y-48228D01*
X46256Y-50531D02*
X46256Y-51531D01*
X51850Y-48228D02*
X50394Y-48228D01*
X45257Y-52598D02*
X45257Y-52530D01*
X52205Y-47874D02*
X51850Y-48228D01*
X46256Y-49531D02*
X46256Y-50531D01*
X49256Y-52531D02*
X49358Y-52531D01*
X51735Y-44531D02*
X52205Y-45001D01*
X48256Y-51531D02*
X49256Y-52531D01*
X52205Y-45001D02*
X52205Y-47874D01*
X49358Y-52531D02*
X50394Y-51495D01*
X45257Y-52530D02*
X46256Y-51531D01*
X33622Y-51102D02*
X33601Y-51123D01*
X33740Y-53189D02*
X37677Y-53189D01*
X33601Y-51783D02*
X33601Y-53050D01*
X39312Y-53189D02*
X39370Y-53131D01*
X37677Y-53189D02*
X38189Y-53701D01*
X33601Y-53050D02*
X33740Y-53189D01*
X38189Y-53701D02*
X38780Y-53701D01*
X38780Y-53701D02*
X39134Y-53701D01*
X39134Y-53701D02*
X39370Y-53465D01*
X33879Y-49095D02*
X34016Y-48958D01*
X39270Y-53131D02*
X39370Y-53131D01*
X34782Y-48958D02*
X34016Y-48958D01*
X39370Y-53465D02*
X39370Y-53131D01*
X32480Y-49095D02*
X33879Y-49095D01*
X38780Y-53701D02*
X38800Y-53701D01*
X34782Y-48958D02*
X34803Y-48937D01*
X33601Y-51783D02*
X33601Y-51123D01*
X38948Y-50521D02*
X38976Y-50492D01*
X38948Y-50521D02*
X38948Y-51309D01*
X38799Y-44213D02*
X38799Y-44234D01*
X38799Y-44234D02*
X38308Y-44725D01*
X38320Y-44737D02*
X38308Y-44725D01*
X38320Y-44737D02*
X38320Y-45276D01*
X38320Y-45276D02*
X38320Y-45249D01*
X38320Y-47529D02*
X38320Y-45276D01*
X40256Y-51969D02*
X40354Y-52067D01*
X39892Y-51900D02*
X39961Y-51969D01*
X40354Y-52067D02*
X40354Y-52381D01*
X39961Y-51969D02*
X40256Y-51969D01*
X39892Y-51309D02*
X39892Y-51900D01*
X39469Y-51969D02*
X39262Y-51969D01*
X39578Y-51309D02*
X39567Y-51320D01*
X39262Y-51969D02*
X39262Y-52273D01*
X39272Y-51969D02*
X39262Y-51969D01*
X39567Y-51871D02*
X39469Y-51969D01*
X39262Y-51969D02*
X39272Y-51969D01*
X39567Y-51320D02*
X39567Y-51871D01*
X39262Y-51309D02*
X39262Y-51969D01*
X39262Y-52273D02*
X39370Y-52381D01*
X41500Y-48100D02*
X41500Y-46263D01*
X41284Y-48316D02*
X41500Y-48100D01*
X40676Y-48316D02*
X41284Y-48316D01*
X41500Y-46263D02*
X41280Y-46043D01*
X40157Y-46044D02*
X41279Y-46044D01*
X41279Y-46044D02*
X41280Y-46043D01*
X40676Y-48631D02*
X41408Y-48631D01*
X43602Y-45059D02*
X43760Y-45059D01*
X41969Y-46692D02*
X43602Y-45059D01*
X41969Y-48070D02*
X41969Y-46692D01*
X41408Y-48631D02*
X41969Y-48070D01*
X44843Y-45058D02*
X43761Y-45058D01*
X43761Y-45058D02*
X43760Y-45059D01*
X38640Y-47529D02*
X38640Y-45080D01*
X38640Y-45080D02*
X38799Y-44921D01*
X32717Y-42186D02*
X32717Y-42932D01*
X34843Y-42875D02*
X34843Y-43426D01*
X32717Y-42186D02*
X34154Y-42186D01*
X34154Y-42186D02*
X34527Y-42559D01*
X34843Y-42875D02*
X34527Y-42559D01*
X40275Y-52756D02*
X40354Y-52835D01*
X35019Y-51398D02*
X35019Y-51783D01*
X32480Y-49409D02*
X35354Y-49409D01*
X36575Y-51811D02*
X35591Y-50827D01*
X36575Y-51811D02*
X37520Y-52756D01*
X35591Y-49646D02*
X35591Y-50826D01*
X35591Y-50826D02*
X35019Y-51398D01*
X35591Y-50826D02*
X35591Y-50826D01*
X40354Y-52835D02*
X40354Y-53131D01*
X35354Y-49409D02*
X35591Y-49646D01*
X35591Y-50826D02*
X35591Y-50827D01*
X37520Y-52756D02*
X40275Y-52756D01*
X47480Y-47755D02*
X49256Y-49531D01*
X45866Y-53661D02*
X46256Y-53271D01*
X45257Y-53661D02*
X45866Y-53661D01*
X46256Y-53271D02*
X46256Y-52531D01*
X48193Y-46531D02*
X47480Y-47244D01*
X47480Y-47244D02*
X47480Y-47755D01*
X49256Y-46531D02*
X48193Y-46531D01*
X45630Y-49157D02*
X46256Y-48531D01*
X46256Y-47531D02*
X46256Y-48531D01*
X47256Y-48531D02*
X49256Y-50531D01*
X46256Y-47531D02*
X46256Y-46531D01*
X45630Y-50591D02*
X45630Y-49157D01*
X46256Y-48531D02*
X47256Y-48531D01*
X45257Y-51575D02*
X45257Y-50964D01*
X45257Y-50964D02*
X45630Y-50591D01*
X39153Y-44213D02*
X39153Y-44921D01*
X39153Y-44921D02*
X39153Y-45296D01*
X38950Y-45499D02*
X39153Y-45296D01*
X38950Y-46581D02*
X38950Y-47529D01*
X38950Y-46581D02*
X38950Y-45499D01*
X35829Y-48309D02*
X35827Y-48307D01*
X36910Y-48309D02*
X35829Y-48309D01*
X34036Y-44685D02*
X34036Y-45866D01*
X33918Y-48208D02*
X34016Y-48208D01*
X34036Y-45866D02*
X34036Y-48188D01*
X33943Y-43426D02*
X34036Y-43519D01*
X34036Y-48188D02*
X34016Y-48208D01*
X33346Y-48780D02*
X33918Y-48208D01*
X34016Y-45886D02*
X34036Y-45866D01*
X32480Y-48780D02*
X33346Y-48780D01*
X34036Y-43519D02*
X34036Y-44685D01*
X34843Y-45866D02*
X34036Y-45866D01*
G54D10*
G36*
X52316Y-58246D02*
X52240Y-58626D01*
X52038Y-58926D01*
X51735Y-59130D01*
X51355Y-59206D01*
X51240Y-59206D01*
X52221Y-58226D01*
X52221Y-58225D01*
X52251Y-58179D01*
X52267Y-58155D01*
X52268Y-58154D01*
X52284Y-58071D01*
X52285Y-58071D01*
X52285Y-56988D01*
X52284Y-56987D01*
X52268Y-56905D01*
X52267Y-56904D01*
X52251Y-56880D01*
X52221Y-56834D01*
X52221Y-56833D01*
X51821Y-56433D01*
X51821Y-49793D01*
X51821Y-49726D01*
X51821Y-49176D01*
X51796Y-49114D01*
X51748Y-49067D01*
X51687Y-49041D01*
X51620Y-49041D01*
X51070Y-49041D01*
X51008Y-49066D01*
X50961Y-49114D01*
X50935Y-49175D01*
X50935Y-49242D01*
X50935Y-49792D01*
X50960Y-49854D01*
X51008Y-49901D01*
X51069Y-49927D01*
X51136Y-49927D01*
X51686Y-49927D01*
X51748Y-49902D01*
X51795Y-49854D01*
X51821Y-49793D01*
X51821Y-56433D01*
X51820Y-56432D01*
X51820Y-50572D01*
X51820Y-50396D01*
X51753Y-50234D01*
X51628Y-50109D01*
X51466Y-50042D01*
X51290Y-50042D01*
X51128Y-50109D01*
X51003Y-50234D01*
X50936Y-50396D01*
X50936Y-50572D01*
X51003Y-50734D01*
X51128Y-50859D01*
X51290Y-50926D01*
X51466Y-50926D01*
X51628Y-50859D01*
X51753Y-50734D01*
X51820Y-50572D01*
X51820Y-56432D01*
X51813Y-56425D01*
X51813Y-52406D01*
X51813Y-51406D01*
X51750Y-51245D01*
X51741Y-51232D01*
X51667Y-51208D01*
X51654Y-51221D01*
X51654Y-51195D01*
X51630Y-51121D01*
X51472Y-51052D01*
X51300Y-51049D01*
X51139Y-51112D01*
X51126Y-51121D01*
X51102Y-51195D01*
X51378Y-51471D01*
X51654Y-51195D01*
X51654Y-51221D01*
X51391Y-51484D01*
X51667Y-51760D01*
X51741Y-51736D01*
X51810Y-51578D01*
X51813Y-51406D01*
X51813Y-52406D01*
X51750Y-52245D01*
X51741Y-52232D01*
X51667Y-52208D01*
X51654Y-52221D01*
X51654Y-52195D01*
X51654Y-51773D01*
X51378Y-51497D01*
X51365Y-51510D01*
X51365Y-51484D01*
X51089Y-51208D01*
X51015Y-51232D01*
X50946Y-51390D01*
X50943Y-51562D01*
X51006Y-51723D01*
X51015Y-51736D01*
X51089Y-51760D01*
X51365Y-51484D01*
X51365Y-51510D01*
X51102Y-51773D01*
X51126Y-51847D01*
X51284Y-51916D01*
X51456Y-51919D01*
X51617Y-51856D01*
X51630Y-51847D01*
X51654Y-51773D01*
X51654Y-52195D01*
X51630Y-52121D01*
X51472Y-52052D01*
X51300Y-52049D01*
X51139Y-52112D01*
X51126Y-52121D01*
X51102Y-52195D01*
X51378Y-52471D01*
X51654Y-52195D01*
X51654Y-52221D01*
X51391Y-52484D01*
X51667Y-52760D01*
X51741Y-52736D01*
X51810Y-52578D01*
X51813Y-52406D01*
X51813Y-56425D01*
X51730Y-56343D01*
X51729Y-56342D01*
X51684Y-56231D01*
X51552Y-56099D01*
X51380Y-56028D01*
X51194Y-56028D01*
X51022Y-56099D01*
X51005Y-56116D01*
X51005Y-56086D01*
X51146Y-55944D01*
X51194Y-55964D01*
X51380Y-55964D01*
X51552Y-55893D01*
X51684Y-55761D01*
X51755Y-55589D01*
X51755Y-55403D01*
X51684Y-55231D01*
X51654Y-55201D01*
X51654Y-52773D01*
X51378Y-52497D01*
X51365Y-52510D01*
X51365Y-52484D01*
X51089Y-52208D01*
X51015Y-52232D01*
X50946Y-52390D01*
X50943Y-52562D01*
X51006Y-52723D01*
X51015Y-52736D01*
X51089Y-52760D01*
X51365Y-52484D01*
X51365Y-52510D01*
X51102Y-52773D01*
X51126Y-52847D01*
X51284Y-52916D01*
X51456Y-52919D01*
X51617Y-52856D01*
X51630Y-52847D01*
X51654Y-52773D01*
X51654Y-55201D01*
X51552Y-55099D01*
X51380Y-55028D01*
X51194Y-55028D01*
X51022Y-55099D01*
X50890Y-55231D01*
X50819Y-55403D01*
X50819Y-55589D01*
X50838Y-55636D01*
X50755Y-55720D01*
X50755Y-55163D01*
X50730Y-55101D01*
X50682Y-55054D01*
X50621Y-55028D01*
X50554Y-55028D01*
X49954Y-55028D01*
X49892Y-55053D01*
X49845Y-55101D01*
X49819Y-55162D01*
X49819Y-55229D01*
X49819Y-55829D01*
X49844Y-55891D01*
X49892Y-55938D01*
X49953Y-55964D01*
X50020Y-55964D01*
X50575Y-55964D01*
X50569Y-55996D01*
X50569Y-56116D01*
X50552Y-56099D01*
X50380Y-56028D01*
X50194Y-56028D01*
X50022Y-56099D01*
X49890Y-56231D01*
X49819Y-56403D01*
X49819Y-56589D01*
X49890Y-56761D01*
X50022Y-56893D01*
X50194Y-56964D01*
X50380Y-56964D01*
X50552Y-56893D01*
X50569Y-56876D01*
X50569Y-57116D01*
X50552Y-57099D01*
X50380Y-57028D01*
X50194Y-57028D01*
X50022Y-57099D01*
X49890Y-57231D01*
X49819Y-57403D01*
X49819Y-57589D01*
X49890Y-57761D01*
X50022Y-57893D01*
X50194Y-57964D01*
X50380Y-57964D01*
X50395Y-57957D01*
X50272Y-58081D01*
X46693Y-58081D01*
X46681Y-58081D01*
X43409Y-58081D01*
X43409Y-57966D01*
X43384Y-57904D01*
X43336Y-57857D01*
X43275Y-57831D01*
X43208Y-57831D01*
X42608Y-57831D01*
X42546Y-57856D01*
X42499Y-57904D01*
X42473Y-57965D01*
X42473Y-58032D01*
X42473Y-58632D01*
X42498Y-58694D01*
X42546Y-58741D01*
X42607Y-58767D01*
X42674Y-58767D01*
X43274Y-58767D01*
X43336Y-58742D01*
X43383Y-58694D01*
X43409Y-58633D01*
X43409Y-58566D01*
X43409Y-58517D01*
X46681Y-58517D01*
X46693Y-58517D01*
X50362Y-58517D01*
X50445Y-58500D01*
X50516Y-58453D01*
X50941Y-58028D01*
X50988Y-57957D01*
X51005Y-57874D01*
X51005Y-57861D01*
X51011Y-57854D01*
X51020Y-57879D01*
X51187Y-57953D01*
X51369Y-57957D01*
X51539Y-57891D01*
X51554Y-57879D01*
X51581Y-57803D01*
X51322Y-57544D01*
X51287Y-57509D01*
X51274Y-57496D01*
X51287Y-57483D01*
X51322Y-57448D01*
X51581Y-57189D01*
X51554Y-57113D01*
X51387Y-57039D01*
X51205Y-57035D01*
X51035Y-57101D01*
X51020Y-57113D01*
X51011Y-57137D01*
X51005Y-57131D01*
X51005Y-56876D01*
X51022Y-56893D01*
X51194Y-56964D01*
X51380Y-56964D01*
X51552Y-56893D01*
X51607Y-56837D01*
X51849Y-57078D01*
X51849Y-57980D01*
X51748Y-58081D01*
X51748Y-57414D01*
X51682Y-57244D01*
X51670Y-57229D01*
X51594Y-57202D01*
X51300Y-57496D01*
X51594Y-57790D01*
X51670Y-57763D01*
X51744Y-57596D01*
X51748Y-57414D01*
X51748Y-58081D01*
X50992Y-58837D01*
X45079Y-58837D01*
X42409Y-58837D01*
X42409Y-58392D01*
X42409Y-58206D01*
X42338Y-58034D01*
X42206Y-57902D01*
X42034Y-57831D01*
X41848Y-57831D01*
X41676Y-57902D01*
X41544Y-58034D01*
X41473Y-58206D01*
X41473Y-58392D01*
X41544Y-58564D01*
X41676Y-58696D01*
X41848Y-58767D01*
X42034Y-58767D01*
X42206Y-58696D01*
X42338Y-58564D01*
X42409Y-58392D01*
X42409Y-58837D01*
X41744Y-58837D01*
X41360Y-58453D01*
X41360Y-56684D01*
X41525Y-56518D01*
X41544Y-56564D01*
X41676Y-56696D01*
X41848Y-56767D01*
X42034Y-56767D01*
X42206Y-56696D01*
X42216Y-56685D01*
X42216Y-56715D01*
X42081Y-56850D01*
X42034Y-56831D01*
X41848Y-56831D01*
X41676Y-56902D01*
X41544Y-57034D01*
X41473Y-57206D01*
X41473Y-57392D01*
X41544Y-57564D01*
X41676Y-57696D01*
X41848Y-57767D01*
X42034Y-57767D01*
X42206Y-57696D01*
X42338Y-57564D01*
X42409Y-57392D01*
X42409Y-57206D01*
X42389Y-57158D01*
X42588Y-56960D01*
X42635Y-56890D01*
X42635Y-56889D01*
X42652Y-56806D01*
X42652Y-56795D01*
X42652Y-56791D01*
X42653Y-56791D01*
X42652Y-56672D01*
X42676Y-56696D01*
X42848Y-56767D01*
X43034Y-56767D01*
X43206Y-56696D01*
X43338Y-56564D01*
X43409Y-56392D01*
X43409Y-56206D01*
X43338Y-56034D01*
X43206Y-55902D01*
X43034Y-55831D01*
X42848Y-55831D01*
X42676Y-55902D01*
X42651Y-55926D01*
X42651Y-55671D01*
X42676Y-55696D01*
X42848Y-55767D01*
X43034Y-55767D01*
X43206Y-55696D01*
X43338Y-55564D01*
X43409Y-55392D01*
X43409Y-55206D01*
X43402Y-55189D01*
X43402Y-54217D01*
X43336Y-54047D01*
X43324Y-54032D01*
X43248Y-54005D01*
X42954Y-54299D01*
X43248Y-54593D01*
X43324Y-54566D01*
X43398Y-54399D01*
X43402Y-54217D01*
X43402Y-55189D01*
X43338Y-55034D01*
X43206Y-54902D01*
X43034Y-54831D01*
X42848Y-54831D01*
X42676Y-54902D01*
X42649Y-54928D01*
X42649Y-54674D01*
X42665Y-54657D01*
X42674Y-54682D01*
X42841Y-54756D01*
X43023Y-54760D01*
X43193Y-54694D01*
X43208Y-54682D01*
X43235Y-54606D01*
X42976Y-54347D01*
X42941Y-54312D01*
X42928Y-54299D01*
X42941Y-54286D01*
X42976Y-54251D01*
X43235Y-53992D01*
X43208Y-53916D01*
X43041Y-53842D01*
X42859Y-53838D01*
X42766Y-53874D01*
X42766Y-51075D01*
X42766Y-50918D01*
X42766Y-50816D01*
X42766Y-50659D01*
X42741Y-50597D01*
X42693Y-50550D01*
X42632Y-50524D01*
X42565Y-50524D01*
X42374Y-50524D01*
X42332Y-50566D01*
X42332Y-50858D01*
X42724Y-50858D01*
X42766Y-50816D01*
X42766Y-50918D01*
X42724Y-50876D01*
X42332Y-50876D01*
X42332Y-51168D01*
X42374Y-51210D01*
X42565Y-51210D01*
X42632Y-51210D01*
X42693Y-51184D01*
X42741Y-51137D01*
X42766Y-51075D01*
X42766Y-53874D01*
X42689Y-53904D01*
X42674Y-53916D01*
X42665Y-53940D01*
X42648Y-53923D01*
X42648Y-53808D01*
X42631Y-53725D01*
X42630Y-53724D01*
X42614Y-53700D01*
X42584Y-53654D01*
X42584Y-53653D01*
X42314Y-53383D01*
X42314Y-51168D01*
X42314Y-50876D01*
X42314Y-50858D01*
X42314Y-50566D01*
X42272Y-50524D01*
X42081Y-50524D01*
X42014Y-50524D01*
X41953Y-50550D01*
X41905Y-50597D01*
X41880Y-50659D01*
X41880Y-50816D01*
X41922Y-50858D01*
X42314Y-50858D01*
X42314Y-50876D01*
X41922Y-50876D01*
X41880Y-50918D01*
X41880Y-51075D01*
X41905Y-51137D01*
X41953Y-51184D01*
X42014Y-51210D01*
X42081Y-51210D01*
X42272Y-51210D01*
X42314Y-51168D01*
X42314Y-53383D01*
X41850Y-52920D01*
X41853Y-50526D01*
X41854Y-50526D01*
X41837Y-50443D01*
X41836Y-50442D01*
X41791Y-50372D01*
X41790Y-50371D01*
X41470Y-50052D01*
X41399Y-50005D01*
X41316Y-49988D01*
X41237Y-49988D01*
X41237Y-49946D01*
X41237Y-49942D01*
X41195Y-49900D01*
X40735Y-49900D01*
X40685Y-49900D01*
X40667Y-49900D01*
X40617Y-49900D01*
X40157Y-49900D01*
X40115Y-49942D01*
X40115Y-49946D01*
X40115Y-50013D01*
X40130Y-50048D01*
X40115Y-50084D01*
X40115Y-50151D01*
X40115Y-50327D01*
X40129Y-50363D01*
X40115Y-50399D01*
X40115Y-50466D01*
X40115Y-50642D01*
X40140Y-50704D01*
X40188Y-50751D01*
X40249Y-50777D01*
X40316Y-50777D01*
X41102Y-50777D01*
X41164Y-50752D01*
X41172Y-50743D01*
X41172Y-54768D01*
X41189Y-54851D01*
X41236Y-54922D01*
X41486Y-55172D01*
X41473Y-55206D01*
X41473Y-55392D01*
X41544Y-55564D01*
X41676Y-55696D01*
X41848Y-55767D01*
X42034Y-55767D01*
X42206Y-55696D01*
X42215Y-55686D01*
X42215Y-55911D01*
X42206Y-55902D01*
X42034Y-55831D01*
X41848Y-55831D01*
X41676Y-55902D01*
X41544Y-56034D01*
X41524Y-56081D01*
X41437Y-56081D01*
X41353Y-56098D01*
X41283Y-56145D01*
X41032Y-56396D01*
X40956Y-56396D01*
X38925Y-54364D01*
X38925Y-54263D01*
X38873Y-54137D01*
X38777Y-54041D01*
X38651Y-53989D01*
X38515Y-53989D01*
X38389Y-54041D01*
X38293Y-54137D01*
X38241Y-54263D01*
X38241Y-54399D01*
X38293Y-54525D01*
X38389Y-54621D01*
X38515Y-54673D01*
X38616Y-54673D01*
X40711Y-56768D01*
X40712Y-56768D01*
X40758Y-56798D01*
X40782Y-56814D01*
X40783Y-56815D01*
X40866Y-56832D01*
X40924Y-56832D01*
X40924Y-58543D01*
X40941Y-58626D01*
X40988Y-58697D01*
X41497Y-59206D01*
X38920Y-59206D01*
X38920Y-58028D01*
X38920Y-57643D01*
X38773Y-57288D01*
X38501Y-57015D01*
X38146Y-56868D01*
X37761Y-56868D01*
X37406Y-57015D01*
X37133Y-57287D01*
X36986Y-57642D01*
X36986Y-58027D01*
X37133Y-58382D01*
X37405Y-58655D01*
X37760Y-58802D01*
X38145Y-58802D01*
X38500Y-58655D01*
X38773Y-58383D01*
X38920Y-58028D01*
X38920Y-59206D01*
X35385Y-59206D01*
X35385Y-53592D01*
X33140Y-53592D01*
X33140Y-51568D01*
X33140Y-51501D01*
X33140Y-50715D01*
X33140Y-50170D01*
X33140Y-50103D01*
X33140Y-50089D01*
X33098Y-50047D01*
X32489Y-50047D01*
X32489Y-50262D01*
X32531Y-50304D01*
X33005Y-50304D01*
X33067Y-50279D01*
X33114Y-50231D01*
X33140Y-50170D01*
X33140Y-50715D01*
X33115Y-50653D01*
X33067Y-50606D01*
X33006Y-50580D01*
X32939Y-50580D01*
X31955Y-50580D01*
X31893Y-50605D01*
X31846Y-50653D01*
X31820Y-50714D01*
X31820Y-50781D01*
X31820Y-51567D01*
X31845Y-51629D01*
X31893Y-51676D01*
X31954Y-51702D01*
X32021Y-51702D01*
X33005Y-51702D01*
X33067Y-51677D01*
X33114Y-51629D01*
X33140Y-51568D01*
X33140Y-53592D01*
X30975Y-53592D01*
X30975Y-51607D01*
X30975Y-51540D01*
X30975Y-50754D01*
X30975Y-48065D01*
X30975Y-47998D01*
X30975Y-47212D01*
X30950Y-47150D01*
X30902Y-47103D01*
X30841Y-47077D01*
X30774Y-47077D01*
X29790Y-47077D01*
X29728Y-47102D01*
X29681Y-47150D01*
X29655Y-47211D01*
X29655Y-47278D01*
X29655Y-48064D01*
X29680Y-48126D01*
X29728Y-48173D01*
X29789Y-48199D01*
X29856Y-48199D01*
X30840Y-48199D01*
X30902Y-48174D01*
X30949Y-48126D01*
X30975Y-48065D01*
X30975Y-50754D01*
X30950Y-50692D01*
X30902Y-50645D01*
X30841Y-50619D01*
X30774Y-50619D01*
X29790Y-50619D01*
X29728Y-50644D01*
X29681Y-50692D01*
X29655Y-50753D01*
X29655Y-50820D01*
X29655Y-51606D01*
X29680Y-51668D01*
X29728Y-51715D01*
X29789Y-51741D01*
X29856Y-51741D01*
X30840Y-51741D01*
X30902Y-51716D01*
X30949Y-51668D01*
X30975Y-51607D01*
X30975Y-53592D01*
X29377Y-53592D01*
X29377Y-40967D01*
X29452Y-40587D01*
X29656Y-40284D01*
X29956Y-40082D01*
X30336Y-40007D01*
X51355Y-40007D01*
X51735Y-40082D01*
X52038Y-40286D01*
X52240Y-40586D01*
X52316Y-40966D01*
X52316Y-44803D01*
X51889Y-44377D01*
X51873Y-44366D01*
X51873Y-41571D01*
X51873Y-41186D01*
X51726Y-40831D01*
X51454Y-40558D01*
X51099Y-40411D01*
X50714Y-40411D01*
X50359Y-40558D01*
X50086Y-40830D01*
X49939Y-41185D01*
X49939Y-41570D01*
X50086Y-41925D01*
X50358Y-42198D01*
X50713Y-42345D01*
X51098Y-42345D01*
X51453Y-42198D01*
X51726Y-41926D01*
X51873Y-41571D01*
X51873Y-44366D01*
X51818Y-44330D01*
X51735Y-44313D01*
X49698Y-44313D01*
X49698Y-43619D01*
X49698Y-43443D01*
X49631Y-43281D01*
X49506Y-43156D01*
X49344Y-43089D01*
X49168Y-43089D01*
X49006Y-43156D01*
X48881Y-43281D01*
X48814Y-43443D01*
X48814Y-43619D01*
X48881Y-43781D01*
X49006Y-43906D01*
X49168Y-43973D01*
X49344Y-43973D01*
X49506Y-43906D01*
X49631Y-43781D01*
X49698Y-43619D01*
X49698Y-44313D01*
X49644Y-44313D01*
X49631Y-44281D01*
X49506Y-44156D01*
X49344Y-44089D01*
X49168Y-44089D01*
X49006Y-44156D01*
X48881Y-44281D01*
X48814Y-44443D01*
X48814Y-44619D01*
X48881Y-44781D01*
X49006Y-44906D01*
X49168Y-44973D01*
X49344Y-44973D01*
X49506Y-44906D01*
X49631Y-44781D01*
X49644Y-44749D01*
X51644Y-44749D01*
X51987Y-45091D01*
X51987Y-47783D01*
X51820Y-47950D01*
X51820Y-46545D01*
X51820Y-46369D01*
X51753Y-46207D01*
X51628Y-46082D01*
X51466Y-46015D01*
X51290Y-46015D01*
X51128Y-46082D01*
X51003Y-46207D01*
X50936Y-46369D01*
X50936Y-46545D01*
X50964Y-46614D01*
X50832Y-46614D01*
X50812Y-46562D01*
X50764Y-46515D01*
X50703Y-46489D01*
X50636Y-46489D01*
X50086Y-46489D01*
X50024Y-46514D01*
X49977Y-46562D01*
X49951Y-46623D01*
X49951Y-46690D01*
X49951Y-47040D01*
X49976Y-47102D01*
X50024Y-47149D01*
X50085Y-47175D01*
X50152Y-47175D01*
X50702Y-47175D01*
X50764Y-47150D01*
X50811Y-47102D01*
X50833Y-47050D01*
X51163Y-47050D01*
X51246Y-47033D01*
X51317Y-46986D01*
X51404Y-46899D01*
X51466Y-46899D01*
X51628Y-46832D01*
X51753Y-46707D01*
X51820Y-46545D01*
X51820Y-47950D01*
X51813Y-47957D01*
X51813Y-47379D01*
X51750Y-47218D01*
X51741Y-47205D01*
X51667Y-47181D01*
X51654Y-47194D01*
X51654Y-47168D01*
X51630Y-47094D01*
X51472Y-47025D01*
X51300Y-47022D01*
X51139Y-47085D01*
X51126Y-47094D01*
X51102Y-47168D01*
X51378Y-47444D01*
X51654Y-47168D01*
X51654Y-47194D01*
X51391Y-47457D01*
X51667Y-47733D01*
X51741Y-47709D01*
X51810Y-47551D01*
X51813Y-47379D01*
X51813Y-47957D01*
X51760Y-48010D01*
X51654Y-48010D01*
X51654Y-47746D01*
X51378Y-47470D01*
X51365Y-47483D01*
X51365Y-47457D01*
X51089Y-47181D01*
X51015Y-47205D01*
X50946Y-47363D01*
X50943Y-47535D01*
X51006Y-47696D01*
X51015Y-47709D01*
X51089Y-47733D01*
X51365Y-47457D01*
X51365Y-47483D01*
X51102Y-47746D01*
X51126Y-47820D01*
X51284Y-47889D01*
X51456Y-47892D01*
X51617Y-47829D01*
X51630Y-47820D01*
X51654Y-47746D01*
X51654Y-48010D01*
X50394Y-48010D01*
X50043Y-48010D01*
X49684Y-47651D01*
X49698Y-47619D01*
X49698Y-47443D01*
X49631Y-47281D01*
X49506Y-47156D01*
X49344Y-47089D01*
X49168Y-47089D01*
X49006Y-47156D01*
X48881Y-47281D01*
X48814Y-47443D01*
X48814Y-47619D01*
X48881Y-47781D01*
X49006Y-47906D01*
X49168Y-47973D01*
X49344Y-47973D01*
X49376Y-47959D01*
X49798Y-48382D01*
X49799Y-48382D01*
X49845Y-48412D01*
X49869Y-48428D01*
X49870Y-48429D01*
X49953Y-48446D01*
X50176Y-48446D01*
X50176Y-49317D01*
X49633Y-48774D01*
X49698Y-48619D01*
X49698Y-48443D01*
X49631Y-48281D01*
X49506Y-48156D01*
X49344Y-48089D01*
X49168Y-48089D01*
X49040Y-48141D01*
X48334Y-47435D01*
X48334Y-47334D01*
X48282Y-47208D01*
X48186Y-47112D01*
X48060Y-47060D01*
X47972Y-47060D01*
X48283Y-46749D01*
X48867Y-46749D01*
X48881Y-46781D01*
X49006Y-46906D01*
X49168Y-46973D01*
X49344Y-46973D01*
X49506Y-46906D01*
X49631Y-46781D01*
X49698Y-46619D01*
X49698Y-46443D01*
X49639Y-46302D01*
X49955Y-46302D01*
X49976Y-46352D01*
X50024Y-46399D01*
X50085Y-46425D01*
X50152Y-46425D01*
X50702Y-46425D01*
X50764Y-46400D01*
X50811Y-46352D01*
X50837Y-46291D01*
X50837Y-46224D01*
X50837Y-45874D01*
X50812Y-45812D01*
X50764Y-45765D01*
X50703Y-45739D01*
X50636Y-45739D01*
X50612Y-45739D01*
X50612Y-45690D01*
X50935Y-45690D01*
X50935Y-45765D01*
X50960Y-45827D01*
X51008Y-45874D01*
X51069Y-45900D01*
X51136Y-45900D01*
X51686Y-45900D01*
X51748Y-45875D01*
X51795Y-45827D01*
X51821Y-45766D01*
X51821Y-45699D01*
X51821Y-45149D01*
X51796Y-45087D01*
X51748Y-45040D01*
X51687Y-45014D01*
X51620Y-45014D01*
X51070Y-45014D01*
X51008Y-45039D01*
X50961Y-45087D01*
X50935Y-45148D01*
X50935Y-45215D01*
X50935Y-45254D01*
X50493Y-45254D01*
X50410Y-45271D01*
X50339Y-45318D01*
X50240Y-45417D01*
X50193Y-45488D01*
X50176Y-45571D01*
X50176Y-45739D01*
X50086Y-45739D01*
X50024Y-45764D01*
X49977Y-45812D01*
X49953Y-45866D01*
X49546Y-45866D01*
X49631Y-45781D01*
X49698Y-45619D01*
X49698Y-45443D01*
X49631Y-45281D01*
X49506Y-45156D01*
X49344Y-45089D01*
X49168Y-45089D01*
X49006Y-45156D01*
X48881Y-45281D01*
X48814Y-45443D01*
X48814Y-45619D01*
X48881Y-45781D01*
X48966Y-45866D01*
X46546Y-45866D01*
X46631Y-45781D01*
X46698Y-45619D01*
X46698Y-45443D01*
X46631Y-45281D01*
X46506Y-45156D01*
X46474Y-45142D01*
X46474Y-44919D01*
X46506Y-44906D01*
X46631Y-44781D01*
X46698Y-44619D01*
X46698Y-44443D01*
X46631Y-44281D01*
X46506Y-44156D01*
X46474Y-44142D01*
X46474Y-43974D01*
X46564Y-43974D01*
X46626Y-43949D01*
X46673Y-43901D01*
X46699Y-43840D01*
X46699Y-43773D01*
X46699Y-43223D01*
X46674Y-43161D01*
X46626Y-43114D01*
X46565Y-43088D01*
X46498Y-43088D01*
X45948Y-43088D01*
X45886Y-43113D01*
X45839Y-43161D01*
X45813Y-43222D01*
X45813Y-43289D01*
X45813Y-43839D01*
X45838Y-43901D01*
X45886Y-43948D01*
X45947Y-43974D01*
X46014Y-43974D01*
X46038Y-43974D01*
X46038Y-44142D01*
X46006Y-44156D01*
X45881Y-44281D01*
X45814Y-44443D01*
X45814Y-44619D01*
X45881Y-44781D01*
X46006Y-44906D01*
X46038Y-44919D01*
X46038Y-45142D01*
X46006Y-45156D01*
X45881Y-45281D01*
X45814Y-45443D01*
X45814Y-45619D01*
X45881Y-45781D01*
X45989Y-45889D01*
X45974Y-45899D01*
X45927Y-45930D01*
X45286Y-46571D01*
X45286Y-46016D01*
X45286Y-45859D01*
X45286Y-45757D01*
X45286Y-45600D01*
X45261Y-45538D01*
X45213Y-45491D01*
X45152Y-45465D01*
X45085Y-45465D01*
X44894Y-45465D01*
X44852Y-45507D01*
X44852Y-45799D01*
X45244Y-45799D01*
X45286Y-45757D01*
X45286Y-45859D01*
X45244Y-45817D01*
X44852Y-45817D01*
X44852Y-46109D01*
X44894Y-46151D01*
X45085Y-46151D01*
X45152Y-46151D01*
X45213Y-46125D01*
X45261Y-46078D01*
X45286Y-46016D01*
X45286Y-46571D01*
X44834Y-47023D01*
X44834Y-46109D01*
X44834Y-45817D01*
X44834Y-45799D01*
X44834Y-45507D01*
X44792Y-45465D01*
X44601Y-45465D01*
X44534Y-45465D01*
X44473Y-45491D01*
X44425Y-45538D01*
X44400Y-45600D01*
X44400Y-45757D01*
X44442Y-45799D01*
X44834Y-45799D01*
X44834Y-45817D01*
X44442Y-45817D01*
X44400Y-45859D01*
X44400Y-46016D01*
X44425Y-46078D01*
X44473Y-46125D01*
X44534Y-46151D01*
X44601Y-46151D01*
X44792Y-46151D01*
X44834Y-46109D01*
X44834Y-47023D01*
X44437Y-47420D01*
X44054Y-47420D01*
X43971Y-47437D01*
X43900Y-47484D01*
X43289Y-48095D01*
X43288Y-48095D01*
X43288Y-48096D01*
X43081Y-48303D01*
X43081Y-48180D01*
X43081Y-48078D01*
X43081Y-47921D01*
X43056Y-47859D01*
X43008Y-47812D01*
X42947Y-47786D01*
X42880Y-47786D01*
X42689Y-47786D01*
X42647Y-47828D01*
X42647Y-48120D01*
X43039Y-48120D01*
X43081Y-48078D01*
X43081Y-48180D01*
X43039Y-48138D01*
X42647Y-48138D01*
X42647Y-48430D01*
X42689Y-48472D01*
X42880Y-48472D01*
X42912Y-48472D01*
X42848Y-48536D01*
X42629Y-48536D01*
X42629Y-48430D01*
X42629Y-48138D01*
X42629Y-48120D01*
X42629Y-47828D01*
X42587Y-47786D01*
X42396Y-47786D01*
X42329Y-47786D01*
X42268Y-47812D01*
X42220Y-47859D01*
X42195Y-47921D01*
X42195Y-48078D01*
X42237Y-48120D01*
X42629Y-48120D01*
X42629Y-48138D01*
X42237Y-48138D01*
X42195Y-48180D01*
X42195Y-48337D01*
X42220Y-48399D01*
X42268Y-48446D01*
X42329Y-48472D01*
X42396Y-48472D01*
X42587Y-48472D01*
X42629Y-48430D01*
X42629Y-48536D01*
X42330Y-48536D01*
X42268Y-48561D01*
X42221Y-48609D01*
X42195Y-48670D01*
X42195Y-48728D01*
X41723Y-48728D01*
X41634Y-48728D01*
X41619Y-48728D01*
X42123Y-48224D01*
X42170Y-48154D01*
X42170Y-48153D01*
X42187Y-48070D01*
X42187Y-46782D01*
X43159Y-45810D01*
X43159Y-46351D01*
X43184Y-46413D01*
X43232Y-46460D01*
X43293Y-46486D01*
X43360Y-46486D01*
X44226Y-46486D01*
X44288Y-46461D01*
X44335Y-46413D01*
X44361Y-46352D01*
X44361Y-46285D01*
X44361Y-45735D01*
X44336Y-45673D01*
X44288Y-45626D01*
X44227Y-45600D01*
X44160Y-45600D01*
X43369Y-45600D01*
X43467Y-45502D01*
X44226Y-45502D01*
X44288Y-45477D01*
X44335Y-45429D01*
X44361Y-45368D01*
X44361Y-45301D01*
X44361Y-45276D01*
X44404Y-45276D01*
X44425Y-45328D01*
X44473Y-45375D01*
X44534Y-45401D01*
X44601Y-45401D01*
X45151Y-45401D01*
X45213Y-45376D01*
X45260Y-45328D01*
X45286Y-45267D01*
X45286Y-45200D01*
X45286Y-44850D01*
X45261Y-44788D01*
X45213Y-44741D01*
X45152Y-44715D01*
X45085Y-44715D01*
X44535Y-44715D01*
X44473Y-44740D01*
X44426Y-44788D01*
X44403Y-44840D01*
X44361Y-44840D01*
X44361Y-44751D01*
X44336Y-44689D01*
X44288Y-44642D01*
X44227Y-44616D01*
X44160Y-44616D01*
X43294Y-44616D01*
X43232Y-44641D01*
X43185Y-44689D01*
X43159Y-44750D01*
X43159Y-44817D01*
X43159Y-45194D01*
X41815Y-46538D01*
X41768Y-46609D01*
X41751Y-46692D01*
X41751Y-47980D01*
X41718Y-48013D01*
X41718Y-46486D01*
X41746Y-46486D01*
X41808Y-46461D01*
X41855Y-46413D01*
X41881Y-46352D01*
X41881Y-46285D01*
X41881Y-45735D01*
X41881Y-45368D01*
X41881Y-45301D01*
X41881Y-44751D01*
X41856Y-44689D01*
X41808Y-44642D01*
X41747Y-44616D01*
X41680Y-44616D01*
X40814Y-44616D01*
X40752Y-44641D01*
X40705Y-44689D01*
X40679Y-44750D01*
X40679Y-44817D01*
X40679Y-45367D01*
X40704Y-45429D01*
X40752Y-45476D01*
X40813Y-45502D01*
X40880Y-45502D01*
X41746Y-45502D01*
X41808Y-45477D01*
X41855Y-45429D01*
X41881Y-45368D01*
X41881Y-45735D01*
X41856Y-45673D01*
X41808Y-45626D01*
X41747Y-45600D01*
X41680Y-45600D01*
X40814Y-45600D01*
X40752Y-45625D01*
X40705Y-45673D01*
X40679Y-45734D01*
X40679Y-45801D01*
X40679Y-45826D01*
X40600Y-45826D01*
X40600Y-45502D01*
X40600Y-45345D01*
X40600Y-45243D01*
X40600Y-45086D01*
X40575Y-45024D01*
X40527Y-44977D01*
X40466Y-44951D01*
X40399Y-44951D01*
X40208Y-44951D01*
X40166Y-44993D01*
X40166Y-45285D01*
X40558Y-45285D01*
X40600Y-45243D01*
X40600Y-45345D01*
X40558Y-45303D01*
X40166Y-45303D01*
X40166Y-45595D01*
X40208Y-45637D01*
X40399Y-45637D01*
X40466Y-45637D01*
X40527Y-45611D01*
X40575Y-45564D01*
X40600Y-45502D01*
X40600Y-45826D01*
X40595Y-45826D01*
X40575Y-45774D01*
X40527Y-45727D01*
X40466Y-45701D01*
X40399Y-45701D01*
X40148Y-45701D01*
X40148Y-45595D01*
X40148Y-45303D01*
X40148Y-45285D01*
X40148Y-44993D01*
X40106Y-44951D01*
X39915Y-44951D01*
X39848Y-44951D01*
X39787Y-44977D01*
X39739Y-45024D01*
X39714Y-45086D01*
X39714Y-45243D01*
X39756Y-45285D01*
X40148Y-45285D01*
X40148Y-45303D01*
X39756Y-45303D01*
X39714Y-45345D01*
X39714Y-45502D01*
X39739Y-45564D01*
X39787Y-45611D01*
X39848Y-45637D01*
X39915Y-45637D01*
X40106Y-45637D01*
X40148Y-45595D01*
X40148Y-45701D01*
X39849Y-45701D01*
X39787Y-45726D01*
X39740Y-45774D01*
X39714Y-45835D01*
X39714Y-45902D01*
X39714Y-46252D01*
X39739Y-46314D01*
X39787Y-46361D01*
X39848Y-46387D01*
X39915Y-46387D01*
X40465Y-46387D01*
X40527Y-46362D01*
X40574Y-46314D01*
X40596Y-46262D01*
X40679Y-46262D01*
X40679Y-46351D01*
X40704Y-46413D01*
X40752Y-46460D01*
X40813Y-46486D01*
X40880Y-46486D01*
X41282Y-46486D01*
X41282Y-48010D01*
X41194Y-48098D01*
X41176Y-48098D01*
X41164Y-48086D01*
X41103Y-48060D01*
X41036Y-48060D01*
X40250Y-48060D01*
X40188Y-48085D01*
X40141Y-48133D01*
X40115Y-48194D01*
X40115Y-48261D01*
X40115Y-48437D01*
X40129Y-48473D01*
X40115Y-48509D01*
X40115Y-48576D01*
X40115Y-48728D01*
X39984Y-48728D01*
X40014Y-48698D01*
X40066Y-48572D01*
X40066Y-48459D01*
X40066Y-48458D01*
X40074Y-48446D01*
X40090Y-48422D01*
X40091Y-48421D01*
X40107Y-48339D01*
X40108Y-48338D01*
X40108Y-48029D01*
X40120Y-48017D01*
X40146Y-47956D01*
X40146Y-47889D01*
X40146Y-47103D01*
X40121Y-47041D01*
X40073Y-46994D01*
X40012Y-46968D01*
X39945Y-46968D01*
X39769Y-46968D01*
X39734Y-46981D01*
X39702Y-46968D01*
X39635Y-46968D01*
X39459Y-46968D01*
X39419Y-46983D01*
X39382Y-46968D01*
X39315Y-46968D01*
X39168Y-46968D01*
X39168Y-46581D01*
X39168Y-45589D01*
X39307Y-45450D01*
X39354Y-45379D01*
X39371Y-45296D01*
X39371Y-45136D01*
X39373Y-45134D01*
X39399Y-45073D01*
X39399Y-45006D01*
X39399Y-44770D01*
X39374Y-44708D01*
X39371Y-44705D01*
X39371Y-44428D01*
X39373Y-44426D01*
X39399Y-44365D01*
X39399Y-44298D01*
X39399Y-44062D01*
X39374Y-44000D01*
X39326Y-43953D01*
X39265Y-43927D01*
X39198Y-43927D01*
X39042Y-43927D01*
X38980Y-43952D01*
X38975Y-43956D01*
X38972Y-43953D01*
X38911Y-43927D01*
X38844Y-43927D01*
X38688Y-43927D01*
X38626Y-43952D01*
X38579Y-44000D01*
X38553Y-44061D01*
X38553Y-44128D01*
X38553Y-44172D01*
X38154Y-44571D01*
X38107Y-44642D01*
X38090Y-44725D01*
X38102Y-44783D01*
X38102Y-45249D01*
X38102Y-45276D01*
X38102Y-46427D01*
X38060Y-46410D01*
X38056Y-46410D01*
X37816Y-46170D01*
X37816Y-44881D01*
X37799Y-44798D01*
X37799Y-44797D01*
X37752Y-44727D01*
X37575Y-44550D01*
X37504Y-44503D01*
X37449Y-44491D01*
X37426Y-44434D01*
X37378Y-44387D01*
X37317Y-44361D01*
X37250Y-44361D01*
X36700Y-44361D01*
X36638Y-44386D01*
X36591Y-44434D01*
X36568Y-44486D01*
X36462Y-44486D01*
X36442Y-44434D01*
X36394Y-44387D01*
X36333Y-44361D01*
X36266Y-44361D01*
X36242Y-44361D01*
X36242Y-44291D01*
X36225Y-44208D01*
X36225Y-44207D01*
X36178Y-44137D01*
X36018Y-43977D01*
X36038Y-43969D01*
X36085Y-43921D01*
X36111Y-43860D01*
X36111Y-43793D01*
X36111Y-42993D01*
X36086Y-42931D01*
X36038Y-42884D01*
X35977Y-42858D01*
X35910Y-42858D01*
X35686Y-42858D01*
X34222Y-41394D01*
X35596Y-41394D01*
X35658Y-41369D01*
X35705Y-41321D01*
X35731Y-41260D01*
X35731Y-41193D01*
X35731Y-40393D01*
X35706Y-40331D01*
X35658Y-40284D01*
X35597Y-40258D01*
X35530Y-40258D01*
X34090Y-40258D01*
X34028Y-40283D01*
X33981Y-40331D01*
X33955Y-40392D01*
X33955Y-40459D01*
X33955Y-41218D01*
X33155Y-41218D01*
X33135Y-41166D01*
X33087Y-41119D01*
X33026Y-41093D01*
X32959Y-41093D01*
X32409Y-41093D01*
X32347Y-41118D01*
X32300Y-41166D01*
X32274Y-41227D01*
X32274Y-41294D01*
X32274Y-41644D01*
X32299Y-41706D01*
X32347Y-41753D01*
X32408Y-41779D01*
X32475Y-41779D01*
X33025Y-41779D01*
X33087Y-41754D01*
X33134Y-41706D01*
X33156Y-41654D01*
X33866Y-41654D01*
X34186Y-41974D01*
X34154Y-41968D01*
X33155Y-41968D01*
X33135Y-41916D01*
X33087Y-41869D01*
X33026Y-41843D01*
X32959Y-41843D01*
X32409Y-41843D01*
X32347Y-41868D01*
X32300Y-41916D01*
X32274Y-41977D01*
X32274Y-42044D01*
X32274Y-42394D01*
X32299Y-42456D01*
X32347Y-42503D01*
X32408Y-42529D01*
X32475Y-42529D01*
X32499Y-42529D01*
X32499Y-42589D01*
X32409Y-42589D01*
X32347Y-42614D01*
X32300Y-42662D01*
X32274Y-42723D01*
X32274Y-42790D01*
X32274Y-43140D01*
X32299Y-43202D01*
X32347Y-43249D01*
X32408Y-43275D01*
X32475Y-43275D01*
X33025Y-43275D01*
X33087Y-43250D01*
X33134Y-43202D01*
X33160Y-43141D01*
X33160Y-43074D01*
X33160Y-42724D01*
X33135Y-42662D01*
X33087Y-42615D01*
X33026Y-42589D01*
X32959Y-42589D01*
X32935Y-42589D01*
X32935Y-42529D01*
X33025Y-42529D01*
X33087Y-42504D01*
X33134Y-42456D01*
X33156Y-42404D01*
X34063Y-42404D01*
X34372Y-42713D01*
X34373Y-42713D01*
X34374Y-42714D01*
X34545Y-42885D01*
X34501Y-42931D01*
X34475Y-42992D01*
X34475Y-43059D01*
X34475Y-43859D01*
X34500Y-43921D01*
X34548Y-43968D01*
X34609Y-43994D01*
X34676Y-43994D01*
X35076Y-43994D01*
X35138Y-43969D01*
X35185Y-43921D01*
X35211Y-43860D01*
X35211Y-43793D01*
X35211Y-42999D01*
X35375Y-43163D01*
X35375Y-43859D01*
X35400Y-43921D01*
X35448Y-43968D01*
X35509Y-43994D01*
X35525Y-43994D01*
X35525Y-44010D01*
X35542Y-44093D01*
X35589Y-44164D01*
X35786Y-44361D01*
X35716Y-44361D01*
X35654Y-44386D01*
X35607Y-44434D01*
X35581Y-44495D01*
X35581Y-44562D01*
X35581Y-44912D01*
X35606Y-44974D01*
X35654Y-45021D01*
X35715Y-45047D01*
X35782Y-45047D01*
X36332Y-45047D01*
X36394Y-45022D01*
X36441Y-44974D01*
X36463Y-44922D01*
X36569Y-44922D01*
X36590Y-44974D01*
X36638Y-45021D01*
X36699Y-45047D01*
X36766Y-45047D01*
X37316Y-45047D01*
X37378Y-45022D01*
X37380Y-45019D01*
X37380Y-45138D01*
X37378Y-45137D01*
X37317Y-45111D01*
X37250Y-45111D01*
X37059Y-45111D01*
X37017Y-45153D01*
X37017Y-45395D01*
X37017Y-45445D01*
X37017Y-45463D01*
X37017Y-45513D01*
X37017Y-45755D01*
X37059Y-45797D01*
X37250Y-45797D01*
X37317Y-45797D01*
X37378Y-45771D01*
X37380Y-45769D01*
X37380Y-46260D01*
X37397Y-46343D01*
X37444Y-46414D01*
X37580Y-46550D01*
X37500Y-46534D01*
X37303Y-46534D01*
X37219Y-46551D01*
X37149Y-46598D01*
X36999Y-46748D01*
X36999Y-45755D01*
X36999Y-45463D01*
X36999Y-45445D01*
X36999Y-45153D01*
X36957Y-45111D01*
X36766Y-45111D01*
X36699Y-45111D01*
X36638Y-45137D01*
X36590Y-45184D01*
X36565Y-45246D01*
X36565Y-45403D01*
X36607Y-45445D01*
X36999Y-45445D01*
X36999Y-45463D01*
X36607Y-45463D01*
X36565Y-45505D01*
X36565Y-45662D01*
X36590Y-45724D01*
X36638Y-45771D01*
X36699Y-45797D01*
X36766Y-45797D01*
X36957Y-45797D01*
X36999Y-45755D01*
X36999Y-46748D01*
X36467Y-47280D01*
X36467Y-45662D01*
X36467Y-45505D01*
X36467Y-45403D01*
X36467Y-45246D01*
X36442Y-45184D01*
X36394Y-45137D01*
X36333Y-45111D01*
X36266Y-45111D01*
X36075Y-45111D01*
X36033Y-45153D01*
X36033Y-45445D01*
X36425Y-45445D01*
X36467Y-45403D01*
X36467Y-45505D01*
X36425Y-45463D01*
X36033Y-45463D01*
X36033Y-45755D01*
X36075Y-45797D01*
X36266Y-45797D01*
X36333Y-45797D01*
X36394Y-45771D01*
X36442Y-45724D01*
X36467Y-45662D01*
X36467Y-47280D01*
X36460Y-47287D01*
X36413Y-47358D01*
X36396Y-47441D01*
X36396Y-47470D01*
X36324Y-47542D01*
X36272Y-47668D01*
X36272Y-47804D01*
X36324Y-47930D01*
X36420Y-48026D01*
X36485Y-48053D01*
X36484Y-48053D01*
X36422Y-48078D01*
X36409Y-48091D01*
X36095Y-48091D01*
X36023Y-48019D01*
X36015Y-48015D01*
X36015Y-45755D01*
X36015Y-45463D01*
X36015Y-45445D01*
X36015Y-45153D01*
X35973Y-45111D01*
X35782Y-45111D01*
X35715Y-45111D01*
X35654Y-45137D01*
X35606Y-45184D01*
X35581Y-45246D01*
X35581Y-45403D01*
X35623Y-45445D01*
X36015Y-45445D01*
X36015Y-45463D01*
X35623Y-45463D01*
X35581Y-45505D01*
X35581Y-45662D01*
X35606Y-45724D01*
X35654Y-45771D01*
X35715Y-45797D01*
X35782Y-45797D01*
X35973Y-45797D01*
X36015Y-45755D01*
X36015Y-48015D01*
X35897Y-47967D01*
X35761Y-47967D01*
X35635Y-48019D01*
X35539Y-48115D01*
X35487Y-48241D01*
X35487Y-48377D01*
X35539Y-48503D01*
X35635Y-48599D01*
X35761Y-48651D01*
X35897Y-48651D01*
X36023Y-48599D01*
X36095Y-48527D01*
X36349Y-48527D01*
X36349Y-48574D01*
X36349Y-48750D01*
X36364Y-48789D01*
X36349Y-48827D01*
X36349Y-48894D01*
X36349Y-49070D01*
X36362Y-49104D01*
X36349Y-49137D01*
X36349Y-49204D01*
X36349Y-49380D01*
X36364Y-49419D01*
X36349Y-49457D01*
X36349Y-49524D01*
X36349Y-49700D01*
X36362Y-49734D01*
X36349Y-49767D01*
X36349Y-49834D01*
X36349Y-50010D01*
X36364Y-50049D01*
X36349Y-50087D01*
X36349Y-50154D01*
X36349Y-50330D01*
X36362Y-50364D01*
X36349Y-50397D01*
X36349Y-50464D01*
X36349Y-50640D01*
X36374Y-50702D01*
X36422Y-50749D01*
X36483Y-50775D01*
X36550Y-50775D01*
X37336Y-50775D01*
X37398Y-50750D01*
X37410Y-50737D01*
X37470Y-50737D01*
X37470Y-50808D01*
X37458Y-50821D01*
X37432Y-50882D01*
X37432Y-50949D01*
X37432Y-51735D01*
X37457Y-51797D01*
X37505Y-51844D01*
X37566Y-51870D01*
X37633Y-51870D01*
X37784Y-51870D01*
X37784Y-51979D01*
X37801Y-52062D01*
X37848Y-52133D01*
X38073Y-52359D01*
X38074Y-52359D01*
X38076Y-52360D01*
X38078Y-52362D01*
X38232Y-52516D01*
X38265Y-52538D01*
X37610Y-52538D01*
X36730Y-51658D01*
X36729Y-51657D01*
X36729Y-51656D01*
X35809Y-50736D01*
X35809Y-49646D01*
X35792Y-49563D01*
X35792Y-49562D01*
X35745Y-49492D01*
X35508Y-49255D01*
X35437Y-49208D01*
X35354Y-49191D01*
X35033Y-49191D01*
X35093Y-49131D01*
X35145Y-49005D01*
X35145Y-48869D01*
X35093Y-48743D01*
X34997Y-48647D01*
X34871Y-48595D01*
X34735Y-48595D01*
X34609Y-48647D01*
X34516Y-48740D01*
X34454Y-48740D01*
X34434Y-48688D01*
X34386Y-48641D01*
X34325Y-48615D01*
X34258Y-48615D01*
X33819Y-48615D01*
X33883Y-48551D01*
X34324Y-48551D01*
X34386Y-48526D01*
X34433Y-48478D01*
X34459Y-48417D01*
X34459Y-48350D01*
X34459Y-48000D01*
X34434Y-47938D01*
X34386Y-47891D01*
X34325Y-47865D01*
X34258Y-47865D01*
X34254Y-47865D01*
X34254Y-46304D01*
X34306Y-46284D01*
X34353Y-46236D01*
X34379Y-46175D01*
X34379Y-46108D01*
X34379Y-46084D01*
X34577Y-46084D01*
X34649Y-46156D01*
X34775Y-46208D01*
X34911Y-46208D01*
X35037Y-46156D01*
X35133Y-46060D01*
X35185Y-45934D01*
X35185Y-45798D01*
X35133Y-45672D01*
X35037Y-45576D01*
X34911Y-45524D01*
X34775Y-45524D01*
X34649Y-45576D01*
X34577Y-45648D01*
X34379Y-45648D01*
X34379Y-45558D01*
X34354Y-45496D01*
X34306Y-45449D01*
X34254Y-45426D01*
X34254Y-45123D01*
X34306Y-45103D01*
X34353Y-45055D01*
X34379Y-44994D01*
X34379Y-44927D01*
X34379Y-44377D01*
X34354Y-44315D01*
X34306Y-44268D01*
X34254Y-44245D01*
X34254Y-43952D01*
X34285Y-43921D01*
X34311Y-43860D01*
X34311Y-43793D01*
X34311Y-42993D01*
X34286Y-42931D01*
X34238Y-42884D01*
X34177Y-42858D01*
X34110Y-42858D01*
X33710Y-42858D01*
X33648Y-42883D01*
X33601Y-42931D01*
X33575Y-42992D01*
X33575Y-43059D01*
X33575Y-43859D01*
X33600Y-43921D01*
X33648Y-43968D01*
X33709Y-43994D01*
X33776Y-43994D01*
X33818Y-43994D01*
X33818Y-44246D01*
X33766Y-44267D01*
X33719Y-44315D01*
X33693Y-44376D01*
X33693Y-44443D01*
X33693Y-44993D01*
X33718Y-45055D01*
X33766Y-45102D01*
X33818Y-45124D01*
X33818Y-45427D01*
X33766Y-45448D01*
X33719Y-45496D01*
X33693Y-45557D01*
X33693Y-45624D01*
X33693Y-46174D01*
X33718Y-46236D01*
X33766Y-46283D01*
X33818Y-46305D01*
X33818Y-47865D01*
X33708Y-47865D01*
X33646Y-47890D01*
X33629Y-47907D01*
X33629Y-46175D01*
X33629Y-46108D01*
X33629Y-45917D01*
X33629Y-45815D01*
X33629Y-45624D01*
X33629Y-45557D01*
X33629Y-44994D01*
X33629Y-44927D01*
X33629Y-44736D01*
X33629Y-44634D01*
X33629Y-44443D01*
X33629Y-44376D01*
X33603Y-44315D01*
X33556Y-44267D01*
X33494Y-44242D01*
X33337Y-44242D01*
X33295Y-44284D01*
X33295Y-44676D01*
X33587Y-44676D01*
X33629Y-44634D01*
X33629Y-44736D01*
X33587Y-44694D01*
X33295Y-44694D01*
X33295Y-45086D01*
X33337Y-45128D01*
X33494Y-45128D01*
X33556Y-45103D01*
X33603Y-45055D01*
X33629Y-44994D01*
X33629Y-45557D01*
X33603Y-45496D01*
X33556Y-45448D01*
X33494Y-45423D01*
X33337Y-45423D01*
X33295Y-45465D01*
X33295Y-45857D01*
X33587Y-45857D01*
X33629Y-45815D01*
X33629Y-45917D01*
X33587Y-45875D01*
X33295Y-45875D01*
X33295Y-46267D01*
X33337Y-46309D01*
X33494Y-46309D01*
X33556Y-46284D01*
X33603Y-46236D01*
X33629Y-46175D01*
X33629Y-47907D01*
X33599Y-47938D01*
X33573Y-47999D01*
X33573Y-48066D01*
X33573Y-48245D01*
X33277Y-48541D01*
X33277Y-46267D01*
X33277Y-45875D01*
X33277Y-45857D01*
X33277Y-45465D01*
X33277Y-45086D01*
X33277Y-44694D01*
X33277Y-44676D01*
X33277Y-44284D01*
X33235Y-44242D01*
X33160Y-44242D01*
X33160Y-43890D01*
X33160Y-43733D01*
X33160Y-43631D01*
X33160Y-43474D01*
X33135Y-43412D01*
X33087Y-43365D01*
X33026Y-43339D01*
X32959Y-43339D01*
X32768Y-43339D01*
X32726Y-43381D01*
X32726Y-43673D01*
X33118Y-43673D01*
X33160Y-43631D01*
X33160Y-43733D01*
X33118Y-43691D01*
X32726Y-43691D01*
X32726Y-43983D01*
X32768Y-44025D01*
X32959Y-44025D01*
X33026Y-44025D01*
X33087Y-43999D01*
X33135Y-43952D01*
X33160Y-43890D01*
X33160Y-44242D01*
X33078Y-44242D01*
X33016Y-44267D01*
X32969Y-44315D01*
X32943Y-44376D01*
X32943Y-44443D01*
X32943Y-44634D01*
X32985Y-44676D01*
X33277Y-44676D01*
X33277Y-44694D01*
X32985Y-44694D01*
X32943Y-44736D01*
X32943Y-44927D01*
X32943Y-44994D01*
X32969Y-45055D01*
X33016Y-45103D01*
X33078Y-45128D01*
X33235Y-45128D01*
X33277Y-45086D01*
X33277Y-45465D01*
X33235Y-45423D01*
X33078Y-45423D01*
X33016Y-45448D01*
X32969Y-45496D01*
X32943Y-45557D01*
X32943Y-45624D01*
X32943Y-45815D01*
X32985Y-45857D01*
X33277Y-45857D01*
X33277Y-45875D01*
X32985Y-45875D01*
X32943Y-45917D01*
X32943Y-46108D01*
X32943Y-46175D01*
X32969Y-46236D01*
X33016Y-46284D01*
X33078Y-46309D01*
X33235Y-46309D01*
X33277Y-46267D01*
X33277Y-48541D01*
X33256Y-48562D01*
X33140Y-48562D01*
X33140Y-48065D01*
X33140Y-47998D01*
X33140Y-47212D01*
X33115Y-47150D01*
X33067Y-47103D01*
X33006Y-47077D01*
X32939Y-47077D01*
X32708Y-47077D01*
X32708Y-43983D01*
X32708Y-43691D01*
X32708Y-43673D01*
X32708Y-43381D01*
X32666Y-43339D01*
X32475Y-43339D01*
X32408Y-43339D01*
X32347Y-43365D01*
X32299Y-43412D01*
X32274Y-43474D01*
X32274Y-43631D01*
X32316Y-43673D01*
X32708Y-43673D01*
X32708Y-43691D01*
X32316Y-43691D01*
X32274Y-43733D01*
X32274Y-43890D01*
X32299Y-43952D01*
X32347Y-43999D01*
X32408Y-44025D01*
X32475Y-44025D01*
X32666Y-44025D01*
X32708Y-43983D01*
X32708Y-47077D01*
X31955Y-47077D01*
X31893Y-47102D01*
X31846Y-47150D01*
X31820Y-47211D01*
X31820Y-47278D01*
X31820Y-48064D01*
X31845Y-48126D01*
X31893Y-48173D01*
X31954Y-48199D01*
X32021Y-48199D01*
X33005Y-48199D01*
X33067Y-48174D01*
X33114Y-48126D01*
X33140Y-48065D01*
X33140Y-48562D01*
X33089Y-48562D01*
X33067Y-48540D01*
X33006Y-48514D01*
X32939Y-48514D01*
X31955Y-48514D01*
X31940Y-48520D01*
X31940Y-48455D01*
X31873Y-48292D01*
X31754Y-48173D01*
X31754Y-41571D01*
X31754Y-41186D01*
X31607Y-40831D01*
X31335Y-40558D01*
X30980Y-40411D01*
X30595Y-40411D01*
X30240Y-40558D01*
X29967Y-40830D01*
X29820Y-41185D01*
X29820Y-41570D01*
X29967Y-41925D01*
X30239Y-42198D01*
X30594Y-42345D01*
X30979Y-42345D01*
X31334Y-42198D01*
X31607Y-41926D01*
X31754Y-41571D01*
X31754Y-48173D01*
X31748Y-48167D01*
X31585Y-48099D01*
X31408Y-48099D01*
X31245Y-48166D01*
X31120Y-48291D01*
X31052Y-48454D01*
X31052Y-48631D01*
X31119Y-48794D01*
X31244Y-48919D01*
X31407Y-48987D01*
X31584Y-48987D01*
X31747Y-48920D01*
X31820Y-48847D01*
X31820Y-48911D01*
X31830Y-48937D01*
X31820Y-48963D01*
X31820Y-49030D01*
X31820Y-49226D01*
X31830Y-49252D01*
X31820Y-49277D01*
X31820Y-49344D01*
X31820Y-49540D01*
X31830Y-49566D01*
X31820Y-49591D01*
X31820Y-49658D01*
X31820Y-49854D01*
X31830Y-49880D01*
X31820Y-49906D01*
X31820Y-49971D01*
X31748Y-49899D01*
X31585Y-49831D01*
X31408Y-49831D01*
X31245Y-49898D01*
X31120Y-50023D01*
X31052Y-50186D01*
X31052Y-50363D01*
X31119Y-50526D01*
X31244Y-50651D01*
X31407Y-50719D01*
X31584Y-50719D01*
X31747Y-50652D01*
X31872Y-50527D01*
X31940Y-50364D01*
X31940Y-50297D01*
X31955Y-50304D01*
X32429Y-50304D01*
X32471Y-50262D01*
X32471Y-50097D01*
X32471Y-50047D01*
X32471Y-50029D01*
X32489Y-50029D01*
X32539Y-50029D01*
X33098Y-50029D01*
X33140Y-49987D01*
X33140Y-49973D01*
X33140Y-49906D01*
X33129Y-49880D01*
X33140Y-49855D01*
X33140Y-49788D01*
X33140Y-49627D01*
X35264Y-49627D01*
X35373Y-49736D01*
X35373Y-50736D01*
X34865Y-51244D01*
X34818Y-51315D01*
X34801Y-51398D01*
X34801Y-51436D01*
X34786Y-51443D01*
X34739Y-51491D01*
X34713Y-51552D01*
X34713Y-51619D01*
X34713Y-52013D01*
X34738Y-52075D01*
X34786Y-52122D01*
X34847Y-52148D01*
X34914Y-52148D01*
X35190Y-52148D01*
X35252Y-52123D01*
X35299Y-52075D01*
X35325Y-52014D01*
X35325Y-51947D01*
X35325Y-51553D01*
X35300Y-51491D01*
X35266Y-51458D01*
X35590Y-51134D01*
X35873Y-51418D01*
X35820Y-51418D01*
X35778Y-51460D01*
X35778Y-51774D01*
X36033Y-51774D01*
X36075Y-51732D01*
X36075Y-51619D01*
X36420Y-51965D01*
X36421Y-51965D01*
X36422Y-51966D01*
X37366Y-52910D01*
X37436Y-52957D01*
X37437Y-52957D01*
X37450Y-52959D01*
X37505Y-52971D01*
X36075Y-52971D01*
X36075Y-52014D01*
X36075Y-51947D01*
X36075Y-51834D01*
X36033Y-51792D01*
X35778Y-51792D01*
X35778Y-52106D01*
X35820Y-52148D01*
X35940Y-52148D01*
X36002Y-52123D01*
X36049Y-52075D01*
X36075Y-52014D01*
X36075Y-52971D01*
X35760Y-52971D01*
X35760Y-52106D01*
X35760Y-51792D01*
X35760Y-51774D01*
X35760Y-51460D01*
X35718Y-51418D01*
X35598Y-51418D01*
X35536Y-51443D01*
X35489Y-51491D01*
X35463Y-51552D01*
X35463Y-51619D01*
X35463Y-51732D01*
X35505Y-51774D01*
X35760Y-51774D01*
X35760Y-51792D01*
X35505Y-51792D01*
X35463Y-51834D01*
X35463Y-51947D01*
X35463Y-52014D01*
X35489Y-52075D01*
X35536Y-52123D01*
X35598Y-52148D01*
X35718Y-52148D01*
X35760Y-52106D01*
X35760Y-52971D01*
X35700Y-52971D01*
X35700Y-52947D01*
X35700Y-52553D01*
X35675Y-52491D01*
X35627Y-52444D01*
X35566Y-52418D01*
X35499Y-52418D01*
X35223Y-52418D01*
X35161Y-52443D01*
X35114Y-52491D01*
X35088Y-52552D01*
X35088Y-52619D01*
X35088Y-52971D01*
X34657Y-52971D01*
X34657Y-52014D01*
X34657Y-51947D01*
X34657Y-51834D01*
X34657Y-51732D01*
X34657Y-51619D01*
X34657Y-51552D01*
X34631Y-51491D01*
X34584Y-51443D01*
X34522Y-51418D01*
X34402Y-51418D01*
X34360Y-51460D01*
X34360Y-51774D01*
X34615Y-51774D01*
X34657Y-51732D01*
X34657Y-51834D01*
X34615Y-51792D01*
X34360Y-51792D01*
X34360Y-52106D01*
X34402Y-52148D01*
X34522Y-52148D01*
X34584Y-52123D01*
X34631Y-52075D01*
X34657Y-52014D01*
X34657Y-52971D01*
X34342Y-52971D01*
X34342Y-52106D01*
X34342Y-51792D01*
X34342Y-51774D01*
X34342Y-51460D01*
X34300Y-51418D01*
X34180Y-51418D01*
X34118Y-51443D01*
X34071Y-51491D01*
X34045Y-51552D01*
X34045Y-51619D01*
X34045Y-51732D01*
X34087Y-51774D01*
X34342Y-51774D01*
X34342Y-51792D01*
X34087Y-51792D01*
X34045Y-51834D01*
X34045Y-51947D01*
X34045Y-52014D01*
X34071Y-52075D01*
X34118Y-52123D01*
X34180Y-52148D01*
X34300Y-52148D01*
X34342Y-52106D01*
X34342Y-52971D01*
X34282Y-52971D01*
X34282Y-52947D01*
X34282Y-52553D01*
X34257Y-52491D01*
X34209Y-52444D01*
X34148Y-52418D01*
X34081Y-52418D01*
X33819Y-52418D01*
X33819Y-52129D01*
X33834Y-52123D01*
X33881Y-52075D01*
X33907Y-52014D01*
X33907Y-51947D01*
X33907Y-51553D01*
X33882Y-51491D01*
X33834Y-51444D01*
X33819Y-51437D01*
X33819Y-51389D01*
X33912Y-51296D01*
X33964Y-51170D01*
X33964Y-51034D01*
X33912Y-50908D01*
X33816Y-50812D01*
X33690Y-50760D01*
X33554Y-50760D01*
X33428Y-50812D01*
X33332Y-50908D01*
X33280Y-51034D01*
X33280Y-51170D01*
X33332Y-51296D01*
X33383Y-51347D01*
X33383Y-51436D01*
X33368Y-51443D01*
X33321Y-51491D01*
X33295Y-51552D01*
X33295Y-51619D01*
X33295Y-52013D01*
X33320Y-52075D01*
X33368Y-52122D01*
X33383Y-52128D01*
X33383Y-53050D01*
X33400Y-53133D01*
X33447Y-53204D01*
X33585Y-53343D01*
X33586Y-53343D01*
X33632Y-53373D01*
X33656Y-53389D01*
X33657Y-53390D01*
X33740Y-53407D01*
X37587Y-53407D01*
X38035Y-53855D01*
X38106Y-53902D01*
X38189Y-53919D01*
X38780Y-53919D01*
X38800Y-53919D01*
X39134Y-53919D01*
X39217Y-53902D01*
X39288Y-53855D01*
X39524Y-53620D01*
X39524Y-53619D01*
X39554Y-53573D01*
X39570Y-53549D01*
X39571Y-53548D01*
X39585Y-53474D01*
X39586Y-53474D01*
X39678Y-53474D01*
X39740Y-53449D01*
X39787Y-53401D01*
X39813Y-53340D01*
X39813Y-53273D01*
X39813Y-52974D01*
X39911Y-52974D01*
X39911Y-52989D01*
X39911Y-53339D01*
X39936Y-53401D01*
X39984Y-53448D01*
X40045Y-53474D01*
X40112Y-53474D01*
X40662Y-53474D01*
X40724Y-53449D01*
X40771Y-53401D01*
X40797Y-53340D01*
X40797Y-53273D01*
X40797Y-52923D01*
X40772Y-52861D01*
X40724Y-52814D01*
X40663Y-52788D01*
X40596Y-52788D01*
X40562Y-52788D01*
X40555Y-52752D01*
X40554Y-52751D01*
X40538Y-52727D01*
X40536Y-52724D01*
X40662Y-52724D01*
X40724Y-52699D01*
X40771Y-52651D01*
X40797Y-52590D01*
X40797Y-52523D01*
X40797Y-52173D01*
X40772Y-52111D01*
X40724Y-52064D01*
X40663Y-52038D01*
X40596Y-52038D01*
X40566Y-52038D01*
X40555Y-51984D01*
X40554Y-51983D01*
X40538Y-51959D01*
X40508Y-51913D01*
X40508Y-51912D01*
X40410Y-51815D01*
X40339Y-51768D01*
X40256Y-51751D01*
X40141Y-51751D01*
X40148Y-51736D01*
X40148Y-51669D01*
X40148Y-50883D01*
X40123Y-50821D01*
X40075Y-50774D01*
X40014Y-50748D01*
X39947Y-50748D01*
X39771Y-50748D01*
X39734Y-50762D01*
X39700Y-50748D01*
X39633Y-50748D01*
X39457Y-50748D01*
X39419Y-50763D01*
X39384Y-50748D01*
X39317Y-50748D01*
X39204Y-50748D01*
X39266Y-50686D01*
X39318Y-50560D01*
X39318Y-50424D01*
X39266Y-50298D01*
X39170Y-50202D01*
X39044Y-50150D01*
X38908Y-50150D01*
X38850Y-50173D01*
X38850Y-49844D01*
X39061Y-49633D01*
X39162Y-49633D01*
X39288Y-49581D01*
X39384Y-49485D01*
X39436Y-49359D01*
X39436Y-49223D01*
X39411Y-49164D01*
X40115Y-49164D01*
X40115Y-49206D01*
X40115Y-49210D01*
X40157Y-49252D01*
X40617Y-49252D01*
X40667Y-49252D01*
X40685Y-49252D01*
X40735Y-49252D01*
X41195Y-49252D01*
X41237Y-49210D01*
X41237Y-49206D01*
X41237Y-49164D01*
X41269Y-49164D01*
X41416Y-49164D01*
X41416Y-49318D01*
X41376Y-49358D01*
X41237Y-49358D01*
X41237Y-49316D01*
X41237Y-49312D01*
X41195Y-49270D01*
X40735Y-49270D01*
X40685Y-49270D01*
X40667Y-49270D01*
X40617Y-49270D01*
X40157Y-49270D01*
X40115Y-49312D01*
X40115Y-49316D01*
X40115Y-49383D01*
X40130Y-49418D01*
X40115Y-49454D01*
X40115Y-49521D01*
X40115Y-49697D01*
X40129Y-49733D01*
X40115Y-49769D01*
X40115Y-49836D01*
X40115Y-49840D01*
X40157Y-49882D01*
X40617Y-49882D01*
X40667Y-49882D01*
X40685Y-49882D01*
X40735Y-49882D01*
X41195Y-49882D01*
X41237Y-49840D01*
X41237Y-49836D01*
X41237Y-49794D01*
X41317Y-49794D01*
X41677Y-50154D01*
X41747Y-50201D01*
X41748Y-50201D01*
X41831Y-50218D01*
X41880Y-50218D01*
X41880Y-50325D01*
X41905Y-50387D01*
X41953Y-50434D01*
X42014Y-50460D01*
X42081Y-50460D01*
X42631Y-50460D01*
X42693Y-50435D01*
X42740Y-50387D01*
X42762Y-50335D01*
X43163Y-50335D01*
X43184Y-50387D01*
X43232Y-50434D01*
X43293Y-50460D01*
X43360Y-50460D01*
X43910Y-50460D01*
X43972Y-50435D01*
X44019Y-50387D01*
X44041Y-50335D01*
X44044Y-50335D01*
X44097Y-50388D01*
X44223Y-50440D01*
X44299Y-50440D01*
X44289Y-50493D01*
X44289Y-51136D01*
X44237Y-51157D01*
X44190Y-51205D01*
X44164Y-51266D01*
X44164Y-51333D01*
X44164Y-51883D01*
X44189Y-51945D01*
X44237Y-51992D01*
X44298Y-52018D01*
X44365Y-52018D01*
X44664Y-52018D01*
X44664Y-52155D01*
X44649Y-52155D01*
X44299Y-52155D01*
X44237Y-52180D01*
X44190Y-52228D01*
X44164Y-52289D01*
X44164Y-52321D01*
X44074Y-52231D01*
X44122Y-52115D01*
X44122Y-51979D01*
X44070Y-51853D01*
X44045Y-51828D01*
X44045Y-51075D01*
X44045Y-50918D01*
X44045Y-50816D01*
X44045Y-50659D01*
X44020Y-50597D01*
X43972Y-50550D01*
X43911Y-50524D01*
X43844Y-50524D01*
X43653Y-50524D01*
X43611Y-50566D01*
X43611Y-50858D01*
X44003Y-50858D01*
X44045Y-50816D01*
X44045Y-50918D01*
X44003Y-50876D01*
X43611Y-50876D01*
X43611Y-51168D01*
X43653Y-51210D01*
X43844Y-51210D01*
X43911Y-51210D01*
X43972Y-51184D01*
X44020Y-51137D01*
X44045Y-51075D01*
X44045Y-51828D01*
X43974Y-51757D01*
X43848Y-51705D01*
X43712Y-51705D01*
X43593Y-51754D01*
X43593Y-51168D01*
X43593Y-50876D01*
X43593Y-50858D01*
X43593Y-50566D01*
X43551Y-50524D01*
X43360Y-50524D01*
X43293Y-50524D01*
X43232Y-50550D01*
X43184Y-50597D01*
X43159Y-50659D01*
X43159Y-50816D01*
X43201Y-50858D01*
X43593Y-50858D01*
X43593Y-50876D01*
X43201Y-50876D01*
X43159Y-50918D01*
X43159Y-51075D01*
X43184Y-51137D01*
X43232Y-51184D01*
X43293Y-51210D01*
X43360Y-51210D01*
X43551Y-51210D01*
X43593Y-51168D01*
X43593Y-51754D01*
X43586Y-51757D01*
X43490Y-51853D01*
X43438Y-51979D01*
X43438Y-52115D01*
X43490Y-52241D01*
X43582Y-52333D01*
X43626Y-52399D01*
X43979Y-52752D01*
X44049Y-52799D01*
X44050Y-52799D01*
X44133Y-52816D01*
X44164Y-52816D01*
X44164Y-52906D01*
X44189Y-52968D01*
X44237Y-53015D01*
X44298Y-53041D01*
X44365Y-53041D01*
X44664Y-53041D01*
X44664Y-53218D01*
X44649Y-53218D01*
X44299Y-53218D01*
X44237Y-53243D01*
X44190Y-53291D01*
X44164Y-53352D01*
X44164Y-53419D01*
X44164Y-53443D01*
X43869Y-53443D01*
X43767Y-53340D01*
X43767Y-53239D01*
X43715Y-53113D01*
X43619Y-53017D01*
X43493Y-52965D01*
X43357Y-52965D01*
X43231Y-53017D01*
X43135Y-53113D01*
X43083Y-53239D01*
X43083Y-53375D01*
X43135Y-53501D01*
X43231Y-53597D01*
X43357Y-53649D01*
X43458Y-53649D01*
X43624Y-53815D01*
X43625Y-53815D01*
X43671Y-53845D01*
X43695Y-53861D01*
X43696Y-53862D01*
X43779Y-53879D01*
X44164Y-53879D01*
X44164Y-53969D01*
X44189Y-54031D01*
X44237Y-54078D01*
X44298Y-54104D01*
X44365Y-54104D01*
X44664Y-54104D01*
X44664Y-55247D01*
X44236Y-55676D01*
X43067Y-56844D01*
X43034Y-56831D01*
X42848Y-56831D01*
X42676Y-56902D01*
X42544Y-57034D01*
X42473Y-57206D01*
X42473Y-57392D01*
X42544Y-57564D01*
X42676Y-57696D01*
X42848Y-57767D01*
X43034Y-57767D01*
X43206Y-57696D01*
X43338Y-57564D01*
X43409Y-57392D01*
X43409Y-57206D01*
X43383Y-57144D01*
X44544Y-55984D01*
X45036Y-55493D01*
X45036Y-55492D01*
X45066Y-55446D01*
X45082Y-55422D01*
X45083Y-55421D01*
X45099Y-55339D01*
X45100Y-55338D01*
X45100Y-54104D01*
X45115Y-54104D01*
X45465Y-54104D01*
X45527Y-54079D01*
X45574Y-54031D01*
X45600Y-53970D01*
X45600Y-53903D01*
X45600Y-53879D01*
X45866Y-53879D01*
X45949Y-53862D01*
X46020Y-53815D01*
X46410Y-53426D01*
X46410Y-53425D01*
X46440Y-53379D01*
X46456Y-53355D01*
X46457Y-53354D01*
X46473Y-53271D01*
X46474Y-53271D01*
X46474Y-52919D01*
X46506Y-52906D01*
X46631Y-52781D01*
X46698Y-52619D01*
X46698Y-52443D01*
X46631Y-52281D01*
X46506Y-52156D01*
X46344Y-52089D01*
X46168Y-52089D01*
X46006Y-52156D01*
X45881Y-52281D01*
X45814Y-52443D01*
X45814Y-52619D01*
X45881Y-52781D01*
X46006Y-52906D01*
X46038Y-52919D01*
X46038Y-53180D01*
X45775Y-53443D01*
X45600Y-53443D01*
X45600Y-53353D01*
X45575Y-53291D01*
X45527Y-53244D01*
X45466Y-53218D01*
X45399Y-53218D01*
X45100Y-53218D01*
X45100Y-53041D01*
X45115Y-53041D01*
X45465Y-53041D01*
X45527Y-53016D01*
X45574Y-52968D01*
X45600Y-52907D01*
X45600Y-52840D01*
X45600Y-52495D01*
X46135Y-51959D01*
X46168Y-51973D01*
X46344Y-51973D01*
X46506Y-51906D01*
X46631Y-51781D01*
X46644Y-51749D01*
X48166Y-51749D01*
X48827Y-52410D01*
X48814Y-52443D01*
X48814Y-52619D01*
X48881Y-52781D01*
X49006Y-52906D01*
X49168Y-52973D01*
X49344Y-52973D01*
X49506Y-52906D01*
X49631Y-52781D01*
X49698Y-52619D01*
X49698Y-52499D01*
X50548Y-51649D01*
X50595Y-51579D01*
X50595Y-51578D01*
X50612Y-51495D01*
X50612Y-48446D01*
X51850Y-48446D01*
X51933Y-48429D01*
X52004Y-48382D01*
X52316Y-48071D01*
X52316Y-58246D01*
X52316Y-58246D01*
G37*
G54D31*
X52316Y-58246D02*
X52240Y-58626D01*
X52038Y-58926D01*
X51735Y-59130D01*
X51355Y-59206D01*
X51240Y-59206D01*
X52221Y-58226D01*
X52221Y-58225D01*
X52251Y-58179D01*
X52267Y-58155D01*
X52268Y-58154D01*
X52284Y-58071D01*
X52285Y-58071D01*
X52285Y-56988D01*
X52284Y-56987D01*
X52268Y-56905D01*
X52267Y-56904D01*
X52251Y-56880D01*
X52221Y-56834D01*
X52221Y-56833D01*
X51821Y-56433D01*
X51821Y-49793D01*
X51821Y-49726D01*
X51821Y-49176D01*
X51796Y-49114D01*
X51748Y-49067D01*
X51687Y-49041D01*
X51620Y-49041D01*
X51070Y-49041D01*
X51008Y-49066D01*
X50961Y-49114D01*
X50935Y-49175D01*
X50935Y-49242D01*
X50935Y-49792D01*
X50960Y-49854D01*
X51008Y-49901D01*
X51069Y-49927D01*
X51136Y-49927D01*
X51686Y-49927D01*
X51748Y-49902D01*
X51795Y-49854D01*
X51821Y-49793D01*
X51821Y-56433D01*
X51820Y-56432D01*
X51820Y-50572D01*
X51820Y-50396D01*
X51753Y-50234D01*
X51628Y-50109D01*
X51466Y-50042D01*
X51290Y-50042D01*
X51128Y-50109D01*
X51003Y-50234D01*
X50936Y-50396D01*
X50936Y-50572D01*
X51003Y-50734D01*
X51128Y-50859D01*
X51290Y-50926D01*
X51466Y-50926D01*
X51628Y-50859D01*
X51753Y-50734D01*
X51820Y-50572D01*
X51820Y-56432D01*
X51813Y-56425D01*
X51813Y-52406D01*
X51813Y-51406D01*
X51750Y-51245D01*
X51741Y-51232D01*
X51667Y-51208D01*
X51654Y-51221D01*
X51654Y-51195D01*
X51630Y-51121D01*
X51472Y-51052D01*
X51300Y-51049D01*
X51139Y-51112D01*
X51126Y-51121D01*
X51102Y-51195D01*
X51378Y-51471D01*
X51654Y-51195D01*
X51654Y-51221D01*
X51391Y-51484D01*
X51667Y-51760D01*
X51741Y-51736D01*
X51810Y-51578D01*
X51813Y-51406D01*
X51813Y-52406D01*
X51750Y-52245D01*
X51741Y-52232D01*
X51667Y-52208D01*
X51654Y-52221D01*
X51654Y-52195D01*
X51654Y-51773D01*
X51378Y-51497D01*
X51365Y-51510D01*
X51365Y-51484D01*
X51089Y-51208D01*
X51015Y-51232D01*
X50946Y-51390D01*
X50943Y-51562D01*
X51006Y-51723D01*
X51015Y-51736D01*
X51089Y-51760D01*
X51365Y-51484D01*
X51365Y-51510D01*
X51102Y-51773D01*
X51126Y-51847D01*
X51284Y-51916D01*
X51456Y-51919D01*
X51617Y-51856D01*
X51630Y-51847D01*
X51654Y-51773D01*
X51654Y-52195D01*
X51630Y-52121D01*
X51472Y-52052D01*
X51300Y-52049D01*
X51139Y-52112D01*
X51126Y-52121D01*
X51102Y-52195D01*
X51378Y-52471D01*
X51654Y-52195D01*
X51654Y-52221D01*
X51391Y-52484D01*
X51667Y-52760D01*
X51741Y-52736D01*
X51810Y-52578D01*
X51813Y-52406D01*
X51813Y-56425D01*
X51730Y-56343D01*
X51729Y-56342D01*
X51684Y-56231D01*
X51552Y-56099D01*
X51380Y-56028D01*
X51194Y-56028D01*
X51022Y-56099D01*
X51005Y-56116D01*
X51005Y-56086D01*
X51146Y-55944D01*
X51194Y-55964D01*
X51380Y-55964D01*
X51552Y-55893D01*
X51684Y-55761D01*
X51755Y-55589D01*
X51755Y-55403D01*
X51684Y-55231D01*
X51654Y-55201D01*
X51654Y-52773D01*
X51378Y-52497D01*
X51365Y-52510D01*
X51365Y-52484D01*
X51089Y-52208D01*
X51015Y-52232D01*
X50946Y-52390D01*
X50943Y-52562D01*
X51006Y-52723D01*
X51015Y-52736D01*
X51089Y-52760D01*
X51365Y-52484D01*
X51365Y-52510D01*
X51102Y-52773D01*
X51126Y-52847D01*
X51284Y-52916D01*
X51456Y-52919D01*
X51617Y-52856D01*
X51630Y-52847D01*
X51654Y-52773D01*
X51654Y-55201D01*
X51552Y-55099D01*
X51380Y-55028D01*
X51194Y-55028D01*
X51022Y-55099D01*
X50890Y-55231D01*
X50819Y-55403D01*
X50819Y-55589D01*
X50838Y-55636D01*
X50755Y-55720D01*
X50755Y-55163D01*
X50730Y-55101D01*
X50682Y-55054D01*
X50621Y-55028D01*
X50554Y-55028D01*
X49954Y-55028D01*
X49892Y-55053D01*
X49845Y-55101D01*
X49819Y-55162D01*
X49819Y-55229D01*
X49819Y-55829D01*
X49844Y-55891D01*
X49892Y-55938D01*
X49953Y-55964D01*
X50020Y-55964D01*
X50575Y-55964D01*
X50569Y-55996D01*
X50569Y-56116D01*
X50552Y-56099D01*
X50380Y-56028D01*
X50194Y-56028D01*
X50022Y-56099D01*
X49890Y-56231D01*
X49819Y-56403D01*
X49819Y-56589D01*
X49890Y-56761D01*
X50022Y-56893D01*
X50194Y-56964D01*
X50380Y-56964D01*
X50552Y-56893D01*
X50569Y-56876D01*
X50569Y-57116D01*
X50552Y-57099D01*
X50380Y-57028D01*
X50194Y-57028D01*
X50022Y-57099D01*
X49890Y-57231D01*
X49819Y-57403D01*
X49819Y-57589D01*
X49890Y-57761D01*
X50022Y-57893D01*
X50194Y-57964D01*
X50380Y-57964D01*
X50395Y-57957D01*
X50272Y-58081D01*
X46693Y-58081D01*
X46681Y-58081D01*
X43409Y-58081D01*
X43409Y-57966D01*
X43384Y-57904D01*
X43336Y-57857D01*
X43275Y-57831D01*
X43208Y-57831D01*
X42608Y-57831D01*
X42546Y-57856D01*
X42499Y-57904D01*
X42473Y-57965D01*
X42473Y-58032D01*
X42473Y-58632D01*
X42498Y-58694D01*
X42546Y-58741D01*
X42607Y-58767D01*
X42674Y-58767D01*
X43274Y-58767D01*
X43336Y-58742D01*
X43383Y-58694D01*
X43409Y-58633D01*
X43409Y-58566D01*
X43409Y-58517D01*
X46681Y-58517D01*
X46693Y-58517D01*
X50362Y-58517D01*
X50445Y-58500D01*
X50516Y-58453D01*
X50941Y-58028D01*
X50988Y-57957D01*
X51005Y-57874D01*
X51005Y-57861D01*
X51011Y-57854D01*
X51020Y-57879D01*
X51187Y-57953D01*
X51369Y-57957D01*
X51539Y-57891D01*
X51554Y-57879D01*
X51581Y-57803D01*
X51322Y-57544D01*
X51287Y-57509D01*
X51274Y-57496D01*
X51287Y-57483D01*
X51322Y-57448D01*
X51581Y-57189D01*
X51554Y-57113D01*
X51387Y-57039D01*
X51205Y-57035D01*
X51035Y-57101D01*
X51020Y-57113D01*
X51011Y-57137D01*
X51005Y-57131D01*
X51005Y-56876D01*
X51022Y-56893D01*
X51194Y-56964D01*
X51380Y-56964D01*
X51552Y-56893D01*
X51607Y-56837D01*
X51849Y-57078D01*
X51849Y-57980D01*
X51748Y-58081D01*
X51748Y-57414D01*
X51682Y-57244D01*
X51670Y-57229D01*
X51594Y-57202D01*
X51300Y-57496D01*
X51594Y-57790D01*
X51670Y-57763D01*
X51744Y-57596D01*
X51748Y-57414D01*
X51748Y-58081D01*
X50992Y-58837D01*
X45079Y-58837D01*
X42409Y-58837D01*
X42409Y-58392D01*
X42409Y-58206D01*
X42338Y-58034D01*
X42206Y-57902D01*
X42034Y-57831D01*
X41848Y-57831D01*
X41676Y-57902D01*
X41544Y-58034D01*
X41473Y-58206D01*
X41473Y-58392D01*
X41544Y-58564D01*
X41676Y-58696D01*
X41848Y-58767D01*
X42034Y-58767D01*
X42206Y-58696D01*
X42338Y-58564D01*
X42409Y-58392D01*
X42409Y-58837D01*
X41744Y-58837D01*
X41360Y-58453D01*
X41360Y-56684D01*
X41525Y-56518D01*
X41544Y-56564D01*
X41676Y-56696D01*
X41848Y-56767D01*
X42034Y-56767D01*
X42206Y-56696D01*
X42216Y-56685D01*
X42216Y-56715D01*
X42081Y-56850D01*
X42034Y-56831D01*
X41848Y-56831D01*
X41676Y-56902D01*
X41544Y-57034D01*
X41473Y-57206D01*
X41473Y-57392D01*
X41544Y-57564D01*
X41676Y-57696D01*
X41848Y-57767D01*
X42034Y-57767D01*
X42206Y-57696D01*
X42338Y-57564D01*
X42409Y-57392D01*
X42409Y-57206D01*
X42389Y-57158D01*
X42588Y-56960D01*
X42635Y-56890D01*
X42635Y-56889D01*
X42652Y-56806D01*
X42652Y-56795D01*
X42652Y-56791D01*
X42653Y-56791D01*
X42652Y-56672D01*
X42676Y-56696D01*
X42848Y-56767D01*
X43034Y-56767D01*
X43206Y-56696D01*
X43338Y-56564D01*
X43409Y-56392D01*
X43409Y-56206D01*
X43338Y-56034D01*
X43206Y-55902D01*
X43034Y-55831D01*
X42848Y-55831D01*
X42676Y-55902D01*
X42651Y-55926D01*
X42651Y-55671D01*
X42676Y-55696D01*
X42848Y-55767D01*
X43034Y-55767D01*
X43206Y-55696D01*
X43338Y-55564D01*
X43409Y-55392D01*
X43409Y-55206D01*
X43402Y-55189D01*
X43402Y-54217D01*
X43336Y-54047D01*
X43324Y-54032D01*
X43248Y-54005D01*
X42954Y-54299D01*
X43248Y-54593D01*
X43324Y-54566D01*
X43398Y-54399D01*
X43402Y-54217D01*
X43402Y-55189D01*
X43338Y-55034D01*
X43206Y-54902D01*
X43034Y-54831D01*
X42848Y-54831D01*
X42676Y-54902D01*
X42649Y-54928D01*
X42649Y-54674D01*
X42665Y-54657D01*
X42674Y-54682D01*
X42841Y-54756D01*
X43023Y-54760D01*
X43193Y-54694D01*
X43208Y-54682D01*
X43235Y-54606D01*
X42976Y-54347D01*
X42941Y-54312D01*
X42928Y-54299D01*
X42941Y-54286D01*
X42976Y-54251D01*
X43235Y-53992D01*
X43208Y-53916D01*
X43041Y-53842D01*
X42859Y-53838D01*
X42766Y-53874D01*
X42766Y-51075D01*
X42766Y-50918D01*
X42766Y-50816D01*
X42766Y-50659D01*
X42741Y-50597D01*
X42693Y-50550D01*
X42632Y-50524D01*
X42565Y-50524D01*
X42374Y-50524D01*
X42332Y-50566D01*
X42332Y-50858D01*
X42724Y-50858D01*
X42766Y-50816D01*
X42766Y-50918D01*
X42724Y-50876D01*
X42332Y-50876D01*
X42332Y-51168D01*
X42374Y-51210D01*
X42565Y-51210D01*
X42632Y-51210D01*
X42693Y-51184D01*
X42741Y-51137D01*
X42766Y-51075D01*
X42766Y-53874D01*
X42689Y-53904D01*
X42674Y-53916D01*
X42665Y-53940D01*
X42648Y-53923D01*
X42648Y-53808D01*
X42631Y-53725D01*
X42630Y-53724D01*
X42614Y-53700D01*
X42584Y-53654D01*
X42584Y-53653D01*
X42314Y-53383D01*
X42314Y-51168D01*
X42314Y-50876D01*
X42314Y-50858D01*
X42314Y-50566D01*
X42272Y-50524D01*
X42081Y-50524D01*
X42014Y-50524D01*
X41953Y-50550D01*
X41905Y-50597D01*
X41880Y-50659D01*
X41880Y-50816D01*
X41922Y-50858D01*
X42314Y-50858D01*
X42314Y-50876D01*
X41922Y-50876D01*
X41880Y-50918D01*
X41880Y-51075D01*
X41905Y-51137D01*
X41953Y-51184D01*
X42014Y-51210D01*
X42081Y-51210D01*
X42272Y-51210D01*
X42314Y-51168D01*
X42314Y-53383D01*
X41850Y-52920D01*
X41853Y-50526D01*
X41854Y-50526D01*
X41837Y-50443D01*
X41836Y-50442D01*
X41791Y-50372D01*
X41790Y-50371D01*
X41470Y-50052D01*
X41399Y-50005D01*
X41316Y-49988D01*
X41237Y-49988D01*
X41237Y-49946D01*
X41237Y-49942D01*
X41195Y-49900D01*
X40735Y-49900D01*
X40685Y-49900D01*
X40667Y-49900D01*
X40617Y-49900D01*
X40157Y-49900D01*
X40115Y-49942D01*
X40115Y-49946D01*
X40115Y-50013D01*
X40130Y-50048D01*
X40115Y-50084D01*
X40115Y-50151D01*
X40115Y-50327D01*
X40129Y-50363D01*
X40115Y-50399D01*
X40115Y-50466D01*
X40115Y-50642D01*
X40140Y-50704D01*
X40188Y-50751D01*
X40249Y-50777D01*
X40316Y-50777D01*
X41102Y-50777D01*
X41164Y-50752D01*
X41172Y-50743D01*
X41172Y-54768D01*
X41189Y-54851D01*
X41236Y-54922D01*
X41486Y-55172D01*
X41473Y-55206D01*
X41473Y-55392D01*
X41544Y-55564D01*
X41676Y-55696D01*
X41848Y-55767D01*
X42034Y-55767D01*
X42206Y-55696D01*
X42215Y-55686D01*
X42215Y-55911D01*
X42206Y-55902D01*
X42034Y-55831D01*
X41848Y-55831D01*
X41676Y-55902D01*
X41544Y-56034D01*
X41524Y-56081D01*
X41437Y-56081D01*
X41353Y-56098D01*
X41283Y-56145D01*
X41032Y-56396D01*
X40956Y-56396D01*
X38925Y-54364D01*
X38925Y-54263D01*
X38873Y-54137D01*
X38777Y-54041D01*
X38651Y-53989D01*
X38515Y-53989D01*
X38389Y-54041D01*
X38293Y-54137D01*
X38241Y-54263D01*
X38241Y-54399D01*
X38293Y-54525D01*
X38389Y-54621D01*
X38515Y-54673D01*
X38616Y-54673D01*
X40711Y-56768D01*
X40712Y-56768D01*
X40758Y-56798D01*
X40782Y-56814D01*
X40783Y-56815D01*
X40866Y-56832D01*
X40924Y-56832D01*
X40924Y-58543D01*
X40941Y-58626D01*
X40988Y-58697D01*
X41497Y-59206D01*
X38920Y-59206D01*
X38920Y-58028D01*
X38920Y-57643D01*
X38773Y-57288D01*
X38501Y-57015D01*
X38146Y-56868D01*
X37761Y-56868D01*
X37406Y-57015D01*
X37133Y-57287D01*
X36986Y-57642D01*
X36986Y-58027D01*
X37133Y-58382D01*
X37405Y-58655D01*
X37760Y-58802D01*
X38145Y-58802D01*
X38500Y-58655D01*
X38773Y-58383D01*
X38920Y-58028D01*
X38920Y-59206D01*
X35385Y-59206D01*
X35385Y-53592D01*
X33140Y-53592D01*
X33140Y-51568D01*
X33140Y-51501D01*
X33140Y-50715D01*
X33140Y-50170D01*
X33140Y-50103D01*
X33140Y-50089D01*
X33098Y-50047D01*
X32489Y-50047D01*
X32489Y-50262D01*
X32531Y-50304D01*
X33005Y-50304D01*
X33067Y-50279D01*
X33114Y-50231D01*
X33140Y-50170D01*
X33140Y-50715D01*
X33115Y-50653D01*
X33067Y-50606D01*
X33006Y-50580D01*
X32939Y-50580D01*
X31955Y-50580D01*
X31893Y-50605D01*
X31846Y-50653D01*
X31820Y-50714D01*
X31820Y-50781D01*
X31820Y-51567D01*
X31845Y-51629D01*
X31893Y-51676D01*
X31954Y-51702D01*
X32021Y-51702D01*
X33005Y-51702D01*
X33067Y-51677D01*
X33114Y-51629D01*
X33140Y-51568D01*
X33140Y-53592D01*
X30975Y-53592D01*
X30975Y-51607D01*
X30975Y-51540D01*
X30975Y-50754D01*
X30975Y-48065D01*
X30975Y-47998D01*
X30975Y-47212D01*
X30950Y-47150D01*
X30902Y-47103D01*
X30841Y-47077D01*
X30774Y-47077D01*
X29790Y-47077D01*
X29728Y-47102D01*
X29681Y-47150D01*
X29655Y-47211D01*
X29655Y-47278D01*
X29655Y-48064D01*
X29680Y-48126D01*
X29728Y-48173D01*
X29789Y-48199D01*
X29856Y-48199D01*
X30840Y-48199D01*
X30902Y-48174D01*
X30949Y-48126D01*
X30975Y-48065D01*
X30975Y-50754D01*
X30950Y-50692D01*
X30902Y-50645D01*
X30841Y-50619D01*
X30774Y-50619D01*
X29790Y-50619D01*
X29728Y-50644D01*
X29681Y-50692D01*
X29655Y-50753D01*
X29655Y-50820D01*
X29655Y-51606D01*
X29680Y-51668D01*
X29728Y-51715D01*
X29789Y-51741D01*
X29856Y-51741D01*
X30840Y-51741D01*
X30902Y-51716D01*
X30949Y-51668D01*
X30975Y-51607D01*
X30975Y-53592D01*
X29377Y-53592D01*
X29377Y-40967D01*
X29452Y-40587D01*
X29656Y-40284D01*
X29956Y-40082D01*
X30336Y-40007D01*
X51355Y-40007D01*
X51735Y-40082D01*
X52038Y-40286D01*
X52240Y-40586D01*
X52316Y-40966D01*
X52316Y-44803D01*
X51889Y-44377D01*
X51873Y-44366D01*
X51873Y-41571D01*
X51873Y-41186D01*
X51726Y-40831D01*
X51454Y-40558D01*
X51099Y-40411D01*
X50714Y-40411D01*
X50359Y-40558D01*
X50086Y-40830D01*
X49939Y-41185D01*
X49939Y-41570D01*
X50086Y-41925D01*
X50358Y-42198D01*
X50713Y-42345D01*
X51098Y-42345D01*
X51453Y-42198D01*
X51726Y-41926D01*
X51873Y-41571D01*
X51873Y-44366D01*
X51818Y-44330D01*
X51735Y-44313D01*
X49698Y-44313D01*
X49698Y-43619D01*
X49698Y-43443D01*
X49631Y-43281D01*
X49506Y-43156D01*
X49344Y-43089D01*
X49168Y-43089D01*
X49006Y-43156D01*
X48881Y-43281D01*
X48814Y-43443D01*
X48814Y-43619D01*
X48881Y-43781D01*
X49006Y-43906D01*
X49168Y-43973D01*
X49344Y-43973D01*
X49506Y-43906D01*
X49631Y-43781D01*
X49698Y-43619D01*
X49698Y-44313D01*
X49644Y-44313D01*
X49631Y-44281D01*
X49506Y-44156D01*
X49344Y-44089D01*
X49168Y-44089D01*
X49006Y-44156D01*
X48881Y-44281D01*
X48814Y-44443D01*
X48814Y-44619D01*
X48881Y-44781D01*
X49006Y-44906D01*
X49168Y-44973D01*
X49344Y-44973D01*
X49506Y-44906D01*
X49631Y-44781D01*
X49644Y-44749D01*
X51644Y-44749D01*
X51987Y-45091D01*
X51987Y-47783D01*
X51820Y-47950D01*
X51820Y-46545D01*
X51820Y-46369D01*
X51753Y-46207D01*
X51628Y-46082D01*
X51466Y-46015D01*
X51290Y-46015D01*
X51128Y-46082D01*
X51003Y-46207D01*
X50936Y-46369D01*
X50936Y-46545D01*
X50964Y-46614D01*
X50832Y-46614D01*
X50812Y-46562D01*
X50764Y-46515D01*
X50703Y-46489D01*
X50636Y-46489D01*
X50086Y-46489D01*
X50024Y-46514D01*
X49977Y-46562D01*
X49951Y-46623D01*
X49951Y-46690D01*
X49951Y-47040D01*
X49976Y-47102D01*
X50024Y-47149D01*
X50085Y-47175D01*
X50152Y-47175D01*
X50702Y-47175D01*
X50764Y-47150D01*
X50811Y-47102D01*
X50833Y-47050D01*
X51163Y-47050D01*
X51246Y-47033D01*
X51317Y-46986D01*
X51404Y-46899D01*
X51466Y-46899D01*
X51628Y-46832D01*
X51753Y-46707D01*
X51820Y-46545D01*
X51820Y-47950D01*
X51813Y-47957D01*
X51813Y-47379D01*
X51750Y-47218D01*
X51741Y-47205D01*
X51667Y-47181D01*
X51654Y-47194D01*
X51654Y-47168D01*
X51630Y-47094D01*
X51472Y-47025D01*
X51300Y-47022D01*
X51139Y-47085D01*
X51126Y-47094D01*
X51102Y-47168D01*
X51378Y-47444D01*
X51654Y-47168D01*
X51654Y-47194D01*
X51391Y-47457D01*
X51667Y-47733D01*
X51741Y-47709D01*
X51810Y-47551D01*
X51813Y-47379D01*
X51813Y-47957D01*
X51760Y-48010D01*
X51654Y-48010D01*
X51654Y-47746D01*
X51378Y-47470D01*
X51365Y-47483D01*
X51365Y-47457D01*
X51089Y-47181D01*
X51015Y-47205D01*
X50946Y-47363D01*
X50943Y-47535D01*
X51006Y-47696D01*
X51015Y-47709D01*
X51089Y-47733D01*
X51365Y-47457D01*
X51365Y-47483D01*
X51102Y-47746D01*
X51126Y-47820D01*
X51284Y-47889D01*
X51456Y-47892D01*
X51617Y-47829D01*
X51630Y-47820D01*
X51654Y-47746D01*
X51654Y-48010D01*
X50394Y-48010D01*
X50043Y-48010D01*
X49684Y-47651D01*
X49698Y-47619D01*
X49698Y-47443D01*
X49631Y-47281D01*
X49506Y-47156D01*
X49344Y-47089D01*
X49168Y-47089D01*
X49006Y-47156D01*
X48881Y-47281D01*
X48814Y-47443D01*
X48814Y-47619D01*
X48881Y-47781D01*
X49006Y-47906D01*
X49168Y-47973D01*
X49344Y-47973D01*
X49376Y-47959D01*
X49798Y-48382D01*
X49799Y-48382D01*
X49845Y-48412D01*
X49869Y-48428D01*
X49870Y-48429D01*
X49953Y-48446D01*
X50176Y-48446D01*
X50176Y-49317D01*
X49633Y-48774D01*
X49698Y-48619D01*
X49698Y-48443D01*
X49631Y-48281D01*
X49506Y-48156D01*
X49344Y-48089D01*
X49168Y-48089D01*
X49040Y-48141D01*
X48334Y-47435D01*
X48334Y-47334D01*
X48282Y-47208D01*
X48186Y-47112D01*
X48060Y-47060D01*
X47972Y-47060D01*
X48283Y-46749D01*
X48867Y-46749D01*
X48881Y-46781D01*
X49006Y-46906D01*
X49168Y-46973D01*
X49344Y-46973D01*
X49506Y-46906D01*
X49631Y-46781D01*
X49698Y-46619D01*
X49698Y-46443D01*
X49639Y-46302D01*
X49955Y-46302D01*
X49976Y-46352D01*
X50024Y-46399D01*
X50085Y-46425D01*
X50152Y-46425D01*
X50702Y-46425D01*
X50764Y-46400D01*
X50811Y-46352D01*
X50837Y-46291D01*
X50837Y-46224D01*
X50837Y-45874D01*
X50812Y-45812D01*
X50764Y-45765D01*
X50703Y-45739D01*
X50636Y-45739D01*
X50612Y-45739D01*
X50612Y-45690D01*
X50935Y-45690D01*
X50935Y-45765D01*
X50960Y-45827D01*
X51008Y-45874D01*
X51069Y-45900D01*
X51136Y-45900D01*
X51686Y-45900D01*
X51748Y-45875D01*
X51795Y-45827D01*
X51821Y-45766D01*
X51821Y-45699D01*
X51821Y-45149D01*
X51796Y-45087D01*
X51748Y-45040D01*
X51687Y-45014D01*
X51620Y-45014D01*
X51070Y-45014D01*
X51008Y-45039D01*
X50961Y-45087D01*
X50935Y-45148D01*
X50935Y-45215D01*
X50935Y-45254D01*
X50493Y-45254D01*
X50410Y-45271D01*
X50339Y-45318D01*
X50240Y-45417D01*
X50193Y-45488D01*
X50176Y-45571D01*
X50176Y-45739D01*
X50086Y-45739D01*
X50024Y-45764D01*
X49977Y-45812D01*
X49953Y-45866D01*
X49546Y-45866D01*
X49631Y-45781D01*
X49698Y-45619D01*
X49698Y-45443D01*
X49631Y-45281D01*
X49506Y-45156D01*
X49344Y-45089D01*
X49168Y-45089D01*
X49006Y-45156D01*
X48881Y-45281D01*
X48814Y-45443D01*
X48814Y-45619D01*
X48881Y-45781D01*
X48966Y-45866D01*
X46546Y-45866D01*
X46631Y-45781D01*
X46698Y-45619D01*
X46698Y-45443D01*
X46631Y-45281D01*
X46506Y-45156D01*
X46474Y-45142D01*
X46474Y-44919D01*
X46506Y-44906D01*
X46631Y-44781D01*
X46698Y-44619D01*
X46698Y-44443D01*
X46631Y-44281D01*
X46506Y-44156D01*
X46474Y-44142D01*
X46474Y-43974D01*
X46564Y-43974D01*
X46626Y-43949D01*
X46673Y-43901D01*
X46699Y-43840D01*
X46699Y-43773D01*
X46699Y-43223D01*
X46674Y-43161D01*
X46626Y-43114D01*
X46565Y-43088D01*
X46498Y-43088D01*
X45948Y-43088D01*
X45886Y-43113D01*
X45839Y-43161D01*
X45813Y-43222D01*
X45813Y-43289D01*
X45813Y-43839D01*
X45838Y-43901D01*
X45886Y-43948D01*
X45947Y-43974D01*
X46014Y-43974D01*
X46038Y-43974D01*
X46038Y-44142D01*
X46006Y-44156D01*
X45881Y-44281D01*
X45814Y-44443D01*
X45814Y-44619D01*
X45881Y-44781D01*
X46006Y-44906D01*
X46038Y-44919D01*
X46038Y-45142D01*
X46006Y-45156D01*
X45881Y-45281D01*
X45814Y-45443D01*
X45814Y-45619D01*
X45881Y-45781D01*
X45989Y-45889D01*
X45974Y-45899D01*
X45927Y-45930D01*
X45286Y-46571D01*
X45286Y-46016D01*
X45286Y-45859D01*
X45286Y-45757D01*
X45286Y-45600D01*
X45261Y-45538D01*
X45213Y-45491D01*
X45152Y-45465D01*
X45085Y-45465D01*
X44894Y-45465D01*
X44852Y-45507D01*
X44852Y-45799D01*
X45244Y-45799D01*
X45286Y-45757D01*
X45286Y-45859D01*
X45244Y-45817D01*
X44852Y-45817D01*
X44852Y-46109D01*
X44894Y-46151D01*
X45085Y-46151D01*
X45152Y-46151D01*
X45213Y-46125D01*
X45261Y-46078D01*
X45286Y-46016D01*
X45286Y-46571D01*
X44834Y-47023D01*
X44834Y-46109D01*
X44834Y-45817D01*
X44834Y-45799D01*
X44834Y-45507D01*
X44792Y-45465D01*
X44601Y-45465D01*
X44534Y-45465D01*
X44473Y-45491D01*
X44425Y-45538D01*
X44400Y-45600D01*
X44400Y-45757D01*
X44442Y-45799D01*
X44834Y-45799D01*
X44834Y-45817D01*
X44442Y-45817D01*
X44400Y-45859D01*
X44400Y-46016D01*
X44425Y-46078D01*
X44473Y-46125D01*
X44534Y-46151D01*
X44601Y-46151D01*
X44792Y-46151D01*
X44834Y-46109D01*
X44834Y-47023D01*
X44437Y-47420D01*
X44054Y-47420D01*
X43971Y-47437D01*
X43900Y-47484D01*
X43289Y-48095D01*
X43288Y-48095D01*
X43288Y-48096D01*
X43081Y-48303D01*
X43081Y-48180D01*
X43081Y-48078D01*
X43081Y-47921D01*
X43056Y-47859D01*
X43008Y-47812D01*
X42947Y-47786D01*
X42880Y-47786D01*
X42689Y-47786D01*
X42647Y-47828D01*
X42647Y-48120D01*
X43039Y-48120D01*
X43081Y-48078D01*
X43081Y-48180D01*
X43039Y-48138D01*
X42647Y-48138D01*
X42647Y-48430D01*
X42689Y-48472D01*
X42880Y-48472D01*
X42912Y-48472D01*
X42848Y-48536D01*
X42629Y-48536D01*
X42629Y-48430D01*
X42629Y-48138D01*
X42629Y-48120D01*
X42629Y-47828D01*
X42587Y-47786D01*
X42396Y-47786D01*
X42329Y-47786D01*
X42268Y-47812D01*
X42220Y-47859D01*
X42195Y-47921D01*
X42195Y-48078D01*
X42237Y-48120D01*
X42629Y-48120D01*
X42629Y-48138D01*
X42237Y-48138D01*
X42195Y-48180D01*
X42195Y-48337D01*
X42220Y-48399D01*
X42268Y-48446D01*
X42329Y-48472D01*
X42396Y-48472D01*
X42587Y-48472D01*
X42629Y-48430D01*
X42629Y-48536D01*
X42330Y-48536D01*
X42268Y-48561D01*
X42221Y-48609D01*
X42195Y-48670D01*
X42195Y-48728D01*
X41723Y-48728D01*
X41634Y-48728D01*
X41619Y-48728D01*
X42123Y-48224D01*
X42170Y-48154D01*
X42170Y-48153D01*
X42187Y-48070D01*
X42187Y-46782D01*
X43159Y-45810D01*
X43159Y-46351D01*
X43184Y-46413D01*
X43232Y-46460D01*
X43293Y-46486D01*
X43360Y-46486D01*
X44226Y-46486D01*
X44288Y-46461D01*
X44335Y-46413D01*
X44361Y-46352D01*
X44361Y-46285D01*
X44361Y-45735D01*
X44336Y-45673D01*
X44288Y-45626D01*
X44227Y-45600D01*
X44160Y-45600D01*
X43369Y-45600D01*
X43467Y-45502D01*
X44226Y-45502D01*
X44288Y-45477D01*
X44335Y-45429D01*
X44361Y-45368D01*
X44361Y-45301D01*
X44361Y-45276D01*
X44404Y-45276D01*
X44425Y-45328D01*
X44473Y-45375D01*
X44534Y-45401D01*
X44601Y-45401D01*
X45151Y-45401D01*
X45213Y-45376D01*
X45260Y-45328D01*
X45286Y-45267D01*
X45286Y-45200D01*
X45286Y-44850D01*
X45261Y-44788D01*
X45213Y-44741D01*
X45152Y-44715D01*
X45085Y-44715D01*
X44535Y-44715D01*
X44473Y-44740D01*
X44426Y-44788D01*
X44403Y-44840D01*
X44361Y-44840D01*
X44361Y-44751D01*
X44336Y-44689D01*
X44288Y-44642D01*
X44227Y-44616D01*
X44160Y-44616D01*
X43294Y-44616D01*
X43232Y-44641D01*
X43185Y-44689D01*
X43159Y-44750D01*
X43159Y-44817D01*
X43159Y-45194D01*
X41815Y-46538D01*
X41768Y-46609D01*
X41751Y-46692D01*
X41751Y-47980D01*
X41718Y-48013D01*
X41718Y-46486D01*
X41746Y-46486D01*
X41808Y-46461D01*
X41855Y-46413D01*
X41881Y-46352D01*
X41881Y-46285D01*
X41881Y-45735D01*
X41881Y-45368D01*
X41881Y-45301D01*
X41881Y-44751D01*
X41856Y-44689D01*
X41808Y-44642D01*
X41747Y-44616D01*
X41680Y-44616D01*
X40814Y-44616D01*
X40752Y-44641D01*
X40705Y-44689D01*
X40679Y-44750D01*
X40679Y-44817D01*
X40679Y-45367D01*
X40704Y-45429D01*
X40752Y-45476D01*
X40813Y-45502D01*
X40880Y-45502D01*
X41746Y-45502D01*
X41808Y-45477D01*
X41855Y-45429D01*
X41881Y-45368D01*
X41881Y-45735D01*
X41856Y-45673D01*
X41808Y-45626D01*
X41747Y-45600D01*
X41680Y-45600D01*
X40814Y-45600D01*
X40752Y-45625D01*
X40705Y-45673D01*
X40679Y-45734D01*
X40679Y-45801D01*
X40679Y-45826D01*
X40600Y-45826D01*
X40600Y-45502D01*
X40600Y-45345D01*
X40600Y-45243D01*
X40600Y-45086D01*
X40575Y-45024D01*
X40527Y-44977D01*
X40466Y-44951D01*
X40399Y-44951D01*
X40208Y-44951D01*
X40166Y-44993D01*
X40166Y-45285D01*
X40558Y-45285D01*
X40600Y-45243D01*
X40600Y-45345D01*
X40558Y-45303D01*
X40166Y-45303D01*
X40166Y-45595D01*
X40208Y-45637D01*
X40399Y-45637D01*
X40466Y-45637D01*
X40527Y-45611D01*
X40575Y-45564D01*
X40600Y-45502D01*
X40600Y-45826D01*
X40595Y-45826D01*
X40575Y-45774D01*
X40527Y-45727D01*
X40466Y-45701D01*
X40399Y-45701D01*
X40148Y-45701D01*
X40148Y-45595D01*
X40148Y-45303D01*
X40148Y-45285D01*
X40148Y-44993D01*
X40106Y-44951D01*
X39915Y-44951D01*
X39848Y-44951D01*
X39787Y-44977D01*
X39739Y-45024D01*
X39714Y-45086D01*
X39714Y-45243D01*
X39756Y-45285D01*
X40148Y-45285D01*
X40148Y-45303D01*
X39756Y-45303D01*
X39714Y-45345D01*
X39714Y-45502D01*
X39739Y-45564D01*
X39787Y-45611D01*
X39848Y-45637D01*
X39915Y-45637D01*
X40106Y-45637D01*
X40148Y-45595D01*
X40148Y-45701D01*
X39849Y-45701D01*
X39787Y-45726D01*
X39740Y-45774D01*
X39714Y-45835D01*
X39714Y-45902D01*
X39714Y-46252D01*
X39739Y-46314D01*
X39787Y-46361D01*
X39848Y-46387D01*
X39915Y-46387D01*
X40465Y-46387D01*
X40527Y-46362D01*
X40574Y-46314D01*
X40596Y-46262D01*
X40679Y-46262D01*
X40679Y-46351D01*
X40704Y-46413D01*
X40752Y-46460D01*
X40813Y-46486D01*
X40880Y-46486D01*
X41282Y-46486D01*
X41282Y-48010D01*
X41194Y-48098D01*
X41176Y-48098D01*
X41164Y-48086D01*
X41103Y-48060D01*
X41036Y-48060D01*
X40250Y-48060D01*
X40188Y-48085D01*
X40141Y-48133D01*
X40115Y-48194D01*
X40115Y-48261D01*
X40115Y-48437D01*
X40129Y-48473D01*
X40115Y-48509D01*
X40115Y-48576D01*
X40115Y-48728D01*
X39984Y-48728D01*
X40014Y-48698D01*
X40066Y-48572D01*
X40066Y-48459D01*
X40066Y-48458D01*
X40074Y-48446D01*
X40090Y-48422D01*
X40091Y-48421D01*
X40107Y-48339D01*
X40108Y-48338D01*
X40108Y-48029D01*
X40120Y-48017D01*
X40146Y-47956D01*
X40146Y-47889D01*
X40146Y-47103D01*
X40121Y-47041D01*
X40073Y-46994D01*
X40012Y-46968D01*
X39945Y-46968D01*
X39769Y-46968D01*
X39734Y-46981D01*
X39702Y-46968D01*
X39635Y-46968D01*
X39459Y-46968D01*
X39419Y-46983D01*
X39382Y-46968D01*
X39315Y-46968D01*
X39168Y-46968D01*
X39168Y-46581D01*
X39168Y-45589D01*
X39307Y-45450D01*
X39354Y-45379D01*
X39371Y-45296D01*
X39371Y-45136D01*
X39373Y-45134D01*
X39399Y-45073D01*
X39399Y-45006D01*
X39399Y-44770D01*
X39374Y-44708D01*
X39371Y-44705D01*
X39371Y-44428D01*
X39373Y-44426D01*
X39399Y-44365D01*
X39399Y-44298D01*
X39399Y-44062D01*
X39374Y-44000D01*
X39326Y-43953D01*
X39265Y-43927D01*
X39198Y-43927D01*
X39042Y-43927D01*
X38980Y-43952D01*
X38975Y-43956D01*
X38972Y-43953D01*
X38911Y-43927D01*
X38844Y-43927D01*
X38688Y-43927D01*
X38626Y-43952D01*
X38579Y-44000D01*
X38553Y-44061D01*
X38553Y-44128D01*
X38553Y-44172D01*
X38154Y-44571D01*
X38107Y-44642D01*
X38090Y-44725D01*
X38102Y-44783D01*
X38102Y-45249D01*
X38102Y-45276D01*
X38102Y-46427D01*
X38060Y-46410D01*
X38056Y-46410D01*
X37816Y-46170D01*
X37816Y-44881D01*
X37799Y-44798D01*
X37799Y-44797D01*
X37752Y-44727D01*
X37575Y-44550D01*
X37504Y-44503D01*
X37449Y-44491D01*
X37426Y-44434D01*
X37378Y-44387D01*
X37317Y-44361D01*
X37250Y-44361D01*
X36700Y-44361D01*
X36638Y-44386D01*
X36591Y-44434D01*
X36568Y-44486D01*
X36462Y-44486D01*
X36442Y-44434D01*
X36394Y-44387D01*
X36333Y-44361D01*
X36266Y-44361D01*
X36242Y-44361D01*
X36242Y-44291D01*
X36225Y-44208D01*
X36225Y-44207D01*
X36178Y-44137D01*
X36018Y-43977D01*
X36038Y-43969D01*
X36085Y-43921D01*
X36111Y-43860D01*
X36111Y-43793D01*
X36111Y-42993D01*
X36086Y-42931D01*
X36038Y-42884D01*
X35977Y-42858D01*
X35910Y-42858D01*
X35686Y-42858D01*
X34222Y-41394D01*
X35596Y-41394D01*
X35658Y-41369D01*
X35705Y-41321D01*
X35731Y-41260D01*
X35731Y-41193D01*
X35731Y-40393D01*
X35706Y-40331D01*
X35658Y-40284D01*
X35597Y-40258D01*
X35530Y-40258D01*
X34090Y-40258D01*
X34028Y-40283D01*
X33981Y-40331D01*
X33955Y-40392D01*
X33955Y-40459D01*
X33955Y-41218D01*
X33155Y-41218D01*
X33135Y-41166D01*
X33087Y-41119D01*
X33026Y-41093D01*
X32959Y-41093D01*
X32409Y-41093D01*
X32347Y-41118D01*
X32300Y-41166D01*
X32274Y-41227D01*
X32274Y-41294D01*
X32274Y-41644D01*
X32299Y-41706D01*
X32347Y-41753D01*
X32408Y-41779D01*
X32475Y-41779D01*
X33025Y-41779D01*
X33087Y-41754D01*
X33134Y-41706D01*
X33156Y-41654D01*
X33866Y-41654D01*
X34186Y-41974D01*
X34154Y-41968D01*
X33155Y-41968D01*
X33135Y-41916D01*
X33087Y-41869D01*
X33026Y-41843D01*
X32959Y-41843D01*
X32409Y-41843D01*
X32347Y-41868D01*
X32300Y-41916D01*
X32274Y-41977D01*
X32274Y-42044D01*
X32274Y-42394D01*
X32299Y-42456D01*
X32347Y-42503D01*
X32408Y-42529D01*
X32475Y-42529D01*
X32499Y-42529D01*
X32499Y-42589D01*
X32409Y-42589D01*
X32347Y-42614D01*
X32300Y-42662D01*
X32274Y-42723D01*
X32274Y-42790D01*
X32274Y-43140D01*
X32299Y-43202D01*
X32347Y-43249D01*
X32408Y-43275D01*
X32475Y-43275D01*
X33025Y-43275D01*
X33087Y-43250D01*
X33134Y-43202D01*
X33160Y-43141D01*
X33160Y-43074D01*
X33160Y-42724D01*
X33135Y-42662D01*
X33087Y-42615D01*
X33026Y-42589D01*
X32959Y-42589D01*
X32935Y-42589D01*
X32935Y-42529D01*
X33025Y-42529D01*
X33087Y-42504D01*
X33134Y-42456D01*
X33156Y-42404D01*
X34063Y-42404D01*
X34372Y-42713D01*
X34373Y-42713D01*
X34374Y-42714D01*
X34545Y-42885D01*
X34501Y-42931D01*
X34475Y-42992D01*
X34475Y-43059D01*
X34475Y-43859D01*
X34500Y-43921D01*
X34548Y-43968D01*
X34609Y-43994D01*
X34676Y-43994D01*
X35076Y-43994D01*
X35138Y-43969D01*
X35185Y-43921D01*
X35211Y-43860D01*
X35211Y-43793D01*
X35211Y-42999D01*
X35375Y-43163D01*
X35375Y-43859D01*
X35400Y-43921D01*
X35448Y-43968D01*
X35509Y-43994D01*
X35525Y-43994D01*
X35525Y-44010D01*
X35542Y-44093D01*
X35589Y-44164D01*
X35786Y-44361D01*
X35716Y-44361D01*
X35654Y-44386D01*
X35607Y-44434D01*
X35581Y-44495D01*
X35581Y-44562D01*
X35581Y-44912D01*
X35606Y-44974D01*
X35654Y-45021D01*
X35715Y-45047D01*
X35782Y-45047D01*
X36332Y-45047D01*
X36394Y-45022D01*
X36441Y-44974D01*
X36463Y-44922D01*
X36569Y-44922D01*
X36590Y-44974D01*
X36638Y-45021D01*
X36699Y-45047D01*
X36766Y-45047D01*
X37316Y-45047D01*
X37378Y-45022D01*
X37380Y-45019D01*
X37380Y-45138D01*
X37378Y-45137D01*
X37317Y-45111D01*
X37250Y-45111D01*
X37059Y-45111D01*
X37017Y-45153D01*
X37017Y-45395D01*
X37017Y-45445D01*
X37017Y-45463D01*
X37017Y-45513D01*
X37017Y-45755D01*
X37059Y-45797D01*
X37250Y-45797D01*
X37317Y-45797D01*
X37378Y-45771D01*
X37380Y-45769D01*
X37380Y-46260D01*
X37397Y-46343D01*
X37444Y-46414D01*
X37580Y-46550D01*
X37500Y-46534D01*
X37303Y-46534D01*
X37219Y-46551D01*
X37149Y-46598D01*
X36999Y-46748D01*
X36999Y-45755D01*
X36999Y-45463D01*
X36999Y-45445D01*
X36999Y-45153D01*
X36957Y-45111D01*
X36766Y-45111D01*
X36699Y-45111D01*
X36638Y-45137D01*
X36590Y-45184D01*
X36565Y-45246D01*
X36565Y-45403D01*
X36607Y-45445D01*
X36999Y-45445D01*
X36999Y-45463D01*
X36607Y-45463D01*
X36565Y-45505D01*
X36565Y-45662D01*
X36590Y-45724D01*
X36638Y-45771D01*
X36699Y-45797D01*
X36766Y-45797D01*
X36957Y-45797D01*
X36999Y-45755D01*
X36999Y-46748D01*
X36467Y-47280D01*
X36467Y-45662D01*
X36467Y-45505D01*
X36467Y-45403D01*
X36467Y-45246D01*
X36442Y-45184D01*
X36394Y-45137D01*
X36333Y-45111D01*
X36266Y-45111D01*
X36075Y-45111D01*
X36033Y-45153D01*
X36033Y-45445D01*
X36425Y-45445D01*
X36467Y-45403D01*
X36467Y-45505D01*
X36425Y-45463D01*
X36033Y-45463D01*
X36033Y-45755D01*
X36075Y-45797D01*
X36266Y-45797D01*
X36333Y-45797D01*
X36394Y-45771D01*
X36442Y-45724D01*
X36467Y-45662D01*
X36467Y-47280D01*
X36460Y-47287D01*
X36413Y-47358D01*
X36396Y-47441D01*
X36396Y-47470D01*
X36324Y-47542D01*
X36272Y-47668D01*
X36272Y-47804D01*
X36324Y-47930D01*
X36420Y-48026D01*
X36485Y-48053D01*
X36484Y-48053D01*
X36422Y-48078D01*
X36409Y-48091D01*
X36095Y-48091D01*
X36023Y-48019D01*
X36015Y-48015D01*
X36015Y-45755D01*
X36015Y-45463D01*
X36015Y-45445D01*
X36015Y-45153D01*
X35973Y-45111D01*
X35782Y-45111D01*
X35715Y-45111D01*
X35654Y-45137D01*
X35606Y-45184D01*
X35581Y-45246D01*
X35581Y-45403D01*
X35623Y-45445D01*
X36015Y-45445D01*
X36015Y-45463D01*
X35623Y-45463D01*
X35581Y-45505D01*
X35581Y-45662D01*
X35606Y-45724D01*
X35654Y-45771D01*
X35715Y-45797D01*
X35782Y-45797D01*
X35973Y-45797D01*
X36015Y-45755D01*
X36015Y-48015D01*
X35897Y-47967D01*
X35761Y-47967D01*
X35635Y-48019D01*
X35539Y-48115D01*
X35487Y-48241D01*
X35487Y-48377D01*
X35539Y-48503D01*
X35635Y-48599D01*
X35761Y-48651D01*
X35897Y-48651D01*
X36023Y-48599D01*
X36095Y-48527D01*
X36349Y-48527D01*
X36349Y-48574D01*
X36349Y-48750D01*
X36364Y-48789D01*
X36349Y-48827D01*
X36349Y-48894D01*
X36349Y-49070D01*
X36362Y-49104D01*
X36349Y-49137D01*
X36349Y-49204D01*
X36349Y-49380D01*
X36364Y-49419D01*
X36349Y-49457D01*
X36349Y-49524D01*
X36349Y-49700D01*
X36362Y-49734D01*
X36349Y-49767D01*
X36349Y-49834D01*
X36349Y-50010D01*
X36364Y-50049D01*
X36349Y-50087D01*
X36349Y-50154D01*
X36349Y-50330D01*
X36362Y-50364D01*
X36349Y-50397D01*
X36349Y-50464D01*
X36349Y-50640D01*
X36374Y-50702D01*
X36422Y-50749D01*
X36483Y-50775D01*
X36550Y-50775D01*
X37336Y-50775D01*
X37398Y-50750D01*
X37410Y-50737D01*
X37470Y-50737D01*
X37470Y-50808D01*
X37458Y-50821D01*
X37432Y-50882D01*
X37432Y-50949D01*
X37432Y-51735D01*
X37457Y-51797D01*
X37505Y-51844D01*
X37566Y-51870D01*
X37633Y-51870D01*
X37784Y-51870D01*
X37784Y-51979D01*
X37801Y-52062D01*
X37848Y-52133D01*
X38073Y-52359D01*
X38074Y-52359D01*
X38076Y-52360D01*
X38078Y-52362D01*
X38232Y-52516D01*
X38265Y-52538D01*
X37610Y-52538D01*
X36730Y-51658D01*
X36729Y-51657D01*
X36729Y-51656D01*
X35809Y-50736D01*
X35809Y-49646D01*
X35792Y-49563D01*
X35792Y-49562D01*
X35745Y-49492D01*
X35508Y-49255D01*
X35437Y-49208D01*
X35354Y-49191D01*
X35033Y-49191D01*
X35093Y-49131D01*
X35145Y-49005D01*
X35145Y-48869D01*
X35093Y-48743D01*
X34997Y-48647D01*
X34871Y-48595D01*
X34735Y-48595D01*
X34609Y-48647D01*
X34516Y-48740D01*
X34454Y-48740D01*
X34434Y-48688D01*
X34386Y-48641D01*
X34325Y-48615D01*
X34258Y-48615D01*
X33819Y-48615D01*
X33883Y-48551D01*
X34324Y-48551D01*
X34386Y-48526D01*
X34433Y-48478D01*
X34459Y-48417D01*
X34459Y-48350D01*
X34459Y-48000D01*
X34434Y-47938D01*
X34386Y-47891D01*
X34325Y-47865D01*
X34258Y-47865D01*
X34254Y-47865D01*
X34254Y-46304D01*
X34306Y-46284D01*
X34353Y-46236D01*
X34379Y-46175D01*
X34379Y-46108D01*
X34379Y-46084D01*
X34577Y-46084D01*
X34649Y-46156D01*
X34775Y-46208D01*
X34911Y-46208D01*
X35037Y-46156D01*
X35133Y-46060D01*
X35185Y-45934D01*
X35185Y-45798D01*
X35133Y-45672D01*
X35037Y-45576D01*
X34911Y-45524D01*
X34775Y-45524D01*
X34649Y-45576D01*
X34577Y-45648D01*
X34379Y-45648D01*
X34379Y-45558D01*
X34354Y-45496D01*
X34306Y-45449D01*
X34254Y-45426D01*
X34254Y-45123D01*
X34306Y-45103D01*
X34353Y-45055D01*
X34379Y-44994D01*
X34379Y-44927D01*
X34379Y-44377D01*
X34354Y-44315D01*
X34306Y-44268D01*
X34254Y-44245D01*
X34254Y-43952D01*
X34285Y-43921D01*
X34311Y-43860D01*
X34311Y-43793D01*
X34311Y-42993D01*
X34286Y-42931D01*
X34238Y-42884D01*
X34177Y-42858D01*
X34110Y-42858D01*
X33710Y-42858D01*
X33648Y-42883D01*
X33601Y-42931D01*
X33575Y-42992D01*
X33575Y-43059D01*
X33575Y-43859D01*
X33600Y-43921D01*
X33648Y-43968D01*
X33709Y-43994D01*
X33776Y-43994D01*
X33818Y-43994D01*
X33818Y-44246D01*
X33766Y-44267D01*
X33719Y-44315D01*
X33693Y-44376D01*
X33693Y-44443D01*
X33693Y-44993D01*
X33718Y-45055D01*
X33766Y-45102D01*
X33818Y-45124D01*
X33818Y-45427D01*
X33766Y-45448D01*
X33719Y-45496D01*
X33693Y-45557D01*
X33693Y-45624D01*
X33693Y-46174D01*
X33718Y-46236D01*
X33766Y-46283D01*
X33818Y-46305D01*
X33818Y-47865D01*
X33708Y-47865D01*
X33646Y-47890D01*
X33629Y-47907D01*
X33629Y-46175D01*
X33629Y-46108D01*
X33629Y-45917D01*
X33629Y-45815D01*
X33629Y-45624D01*
X33629Y-45557D01*
X33629Y-44994D01*
X33629Y-44927D01*
X33629Y-44736D01*
X33629Y-44634D01*
X33629Y-44443D01*
X33629Y-44376D01*
X33603Y-44315D01*
X33556Y-44267D01*
X33494Y-44242D01*
X33337Y-44242D01*
X33295Y-44284D01*
X33295Y-44676D01*
X33587Y-44676D01*
X33629Y-44634D01*
X33629Y-44736D01*
X33587Y-44694D01*
X33295Y-44694D01*
X33295Y-45086D01*
X33337Y-45128D01*
X33494Y-45128D01*
X33556Y-45103D01*
X33603Y-45055D01*
X33629Y-44994D01*
X33629Y-45557D01*
X33603Y-45496D01*
X33556Y-45448D01*
X33494Y-45423D01*
X33337Y-45423D01*
X33295Y-45465D01*
X33295Y-45857D01*
X33587Y-45857D01*
X33629Y-45815D01*
X33629Y-45917D01*
X33587Y-45875D01*
X33295Y-45875D01*
X33295Y-46267D01*
X33337Y-46309D01*
X33494Y-46309D01*
X33556Y-46284D01*
X33603Y-46236D01*
X33629Y-46175D01*
X33629Y-47907D01*
X33599Y-47938D01*
X33573Y-47999D01*
X33573Y-48066D01*
X33573Y-48245D01*
X33277Y-48541D01*
X33277Y-46267D01*
X33277Y-45875D01*
X33277Y-45857D01*
X33277Y-45465D01*
X33277Y-45086D01*
X33277Y-44694D01*
X33277Y-44676D01*
X33277Y-44284D01*
X33235Y-44242D01*
X33160Y-44242D01*
X33160Y-43890D01*
X33160Y-43733D01*
X33160Y-43631D01*
X33160Y-43474D01*
X33135Y-43412D01*
X33087Y-43365D01*
X33026Y-43339D01*
X32959Y-43339D01*
X32768Y-43339D01*
X32726Y-43381D01*
X32726Y-43673D01*
X33118Y-43673D01*
X33160Y-43631D01*
X33160Y-43733D01*
X33118Y-43691D01*
X32726Y-43691D01*
X32726Y-43983D01*
X32768Y-44025D01*
X32959Y-44025D01*
X33026Y-44025D01*
X33087Y-43999D01*
X33135Y-43952D01*
X33160Y-43890D01*
X33160Y-44242D01*
X33078Y-44242D01*
X33016Y-44267D01*
X32969Y-44315D01*
X32943Y-44376D01*
X32943Y-44443D01*
X32943Y-44634D01*
X32985Y-44676D01*
X33277Y-44676D01*
X33277Y-44694D01*
X32985Y-44694D01*
X32943Y-44736D01*
X32943Y-44927D01*
X32943Y-44994D01*
X32969Y-45055D01*
X33016Y-45103D01*
X33078Y-45128D01*
X33235Y-45128D01*
X33277Y-45086D01*
X33277Y-45465D01*
X33235Y-45423D01*
X33078Y-45423D01*
X33016Y-45448D01*
X32969Y-45496D01*
X32943Y-45557D01*
X32943Y-45624D01*
X32943Y-45815D01*
X32985Y-45857D01*
X33277Y-45857D01*
X33277Y-45875D01*
X32985Y-45875D01*
X32943Y-45917D01*
X32943Y-46108D01*
X32943Y-46175D01*
X32969Y-46236D01*
X33016Y-46284D01*
X33078Y-46309D01*
X33235Y-46309D01*
X33277Y-46267D01*
X33277Y-48541D01*
X33256Y-48562D01*
X33140Y-48562D01*
X33140Y-48065D01*
X33140Y-47998D01*
X33140Y-47212D01*
X33115Y-47150D01*
X33067Y-47103D01*
X33006Y-47077D01*
X32939Y-47077D01*
X32708Y-47077D01*
X32708Y-43983D01*
X32708Y-43691D01*
X32708Y-43673D01*
X32708Y-43381D01*
X32666Y-43339D01*
X32475Y-43339D01*
X32408Y-43339D01*
X32347Y-43365D01*
X32299Y-43412D01*
X32274Y-43474D01*
X32274Y-43631D01*
X32316Y-43673D01*
X32708Y-43673D01*
X32708Y-43691D01*
X32316Y-43691D01*
X32274Y-43733D01*
X32274Y-43890D01*
X32299Y-43952D01*
X32347Y-43999D01*
X32408Y-44025D01*
X32475Y-44025D01*
X32666Y-44025D01*
X32708Y-43983D01*
X32708Y-47077D01*
X31955Y-47077D01*
X31893Y-47102D01*
X31846Y-47150D01*
X31820Y-47211D01*
X31820Y-47278D01*
X31820Y-48064D01*
X31845Y-48126D01*
X31893Y-48173D01*
X31954Y-48199D01*
X32021Y-48199D01*
X33005Y-48199D01*
X33067Y-48174D01*
X33114Y-48126D01*
X33140Y-48065D01*
X33140Y-48562D01*
X33089Y-48562D01*
X33067Y-48540D01*
X33006Y-48514D01*
X32939Y-48514D01*
X31955Y-48514D01*
X31940Y-48520D01*
X31940Y-48455D01*
X31873Y-48292D01*
X31754Y-48173D01*
X31754Y-41571D01*
X31754Y-41186D01*
X31607Y-40831D01*
X31335Y-40558D01*
X30980Y-40411D01*
X30595Y-40411D01*
X30240Y-40558D01*
X29967Y-40830D01*
X29820Y-41185D01*
X29820Y-41570D01*
X29967Y-41925D01*
X30239Y-42198D01*
X30594Y-42345D01*
X30979Y-42345D01*
X31334Y-42198D01*
X31607Y-41926D01*
X31754Y-41571D01*
X31754Y-48173D01*
X31748Y-48167D01*
X31585Y-48099D01*
X31408Y-48099D01*
X31245Y-48166D01*
X31120Y-48291D01*
X31052Y-48454D01*
X31052Y-48631D01*
X31119Y-48794D01*
X31244Y-48919D01*
X31407Y-48987D01*
X31584Y-48987D01*
X31747Y-48920D01*
X31820Y-48847D01*
X31820Y-48911D01*
X31830Y-48937D01*
X31820Y-48963D01*
X31820Y-49030D01*
X31820Y-49226D01*
X31830Y-49252D01*
X31820Y-49277D01*
X31820Y-49344D01*
X31820Y-49540D01*
X31830Y-49566D01*
X31820Y-49591D01*
X31820Y-49658D01*
X31820Y-49854D01*
X31830Y-49880D01*
X31820Y-49906D01*
X31820Y-49971D01*
X31748Y-49899D01*
X31585Y-49831D01*
X31408Y-49831D01*
X31245Y-49898D01*
X31120Y-50023D01*
X31052Y-50186D01*
X31052Y-50363D01*
X31119Y-50526D01*
X31244Y-50651D01*
X31407Y-50719D01*
X31584Y-50719D01*
X31747Y-50652D01*
X31872Y-50527D01*
X31940Y-50364D01*
X31940Y-50297D01*
X31955Y-50304D01*
X32429Y-50304D01*
X32471Y-50262D01*
X32471Y-50097D01*
X32471Y-50047D01*
X32471Y-50029D01*
X32489Y-50029D01*
X32539Y-50029D01*
X33098Y-50029D01*
X33140Y-49987D01*
X33140Y-49973D01*
X33140Y-49906D01*
X33129Y-49880D01*
X33140Y-49855D01*
X33140Y-49788D01*
X33140Y-49627D01*
X35264Y-49627D01*
X35373Y-49736D01*
X35373Y-50736D01*
X34865Y-51244D01*
X34818Y-51315D01*
X34801Y-51398D01*
X34801Y-51436D01*
X34786Y-51443D01*
X34739Y-51491D01*
X34713Y-51552D01*
X34713Y-51619D01*
X34713Y-52013D01*
X34738Y-52075D01*
X34786Y-52122D01*
X34847Y-52148D01*
X34914Y-52148D01*
X35190Y-52148D01*
X35252Y-52123D01*
X35299Y-52075D01*
X35325Y-52014D01*
X35325Y-51947D01*
X35325Y-51553D01*
X35300Y-51491D01*
X35266Y-51458D01*
X35590Y-51134D01*
X35873Y-51418D01*
X35820Y-51418D01*
X35778Y-51460D01*
X35778Y-51774D01*
X36033Y-51774D01*
X36075Y-51732D01*
X36075Y-51619D01*
X36420Y-51965D01*
X36421Y-51965D01*
X36422Y-51966D01*
X37366Y-52910D01*
X37436Y-52957D01*
X37437Y-52957D01*
X37450Y-52959D01*
X37505Y-52971D01*
X36075Y-52971D01*
X36075Y-52014D01*
X36075Y-51947D01*
X36075Y-51834D01*
X36033Y-51792D01*
X35778Y-51792D01*
X35778Y-52106D01*
X35820Y-52148D01*
X35940Y-52148D01*
X36002Y-52123D01*
X36049Y-52075D01*
X36075Y-52014D01*
X36075Y-52971D01*
X35760Y-52971D01*
X35760Y-52106D01*
X35760Y-51792D01*
X35760Y-51774D01*
X35760Y-51460D01*
X35718Y-51418D01*
X35598Y-51418D01*
X35536Y-51443D01*
X35489Y-51491D01*
X35463Y-51552D01*
X35463Y-51619D01*
X35463Y-51732D01*
X35505Y-51774D01*
X35760Y-51774D01*
X35760Y-51792D01*
X35505Y-51792D01*
X35463Y-51834D01*
X35463Y-51947D01*
X35463Y-52014D01*
X35489Y-52075D01*
X35536Y-52123D01*
X35598Y-52148D01*
X35718Y-52148D01*
X35760Y-52106D01*
X35760Y-52971D01*
X35700Y-52971D01*
X35700Y-52947D01*
X35700Y-52553D01*
X35675Y-52491D01*
X35627Y-52444D01*
X35566Y-52418D01*
X35499Y-52418D01*
X35223Y-52418D01*
X35161Y-52443D01*
X35114Y-52491D01*
X35088Y-52552D01*
X35088Y-52619D01*
X35088Y-52971D01*
X34657Y-52971D01*
X34657Y-52014D01*
X34657Y-51947D01*
X34657Y-51834D01*
X34657Y-51732D01*
X34657Y-51619D01*
X34657Y-51552D01*
X34631Y-51491D01*
X34584Y-51443D01*
X34522Y-51418D01*
X34402Y-51418D01*
X34360Y-51460D01*
X34360Y-51774D01*
X34615Y-51774D01*
X34657Y-51732D01*
X34657Y-51834D01*
X34615Y-51792D01*
X34360Y-51792D01*
X34360Y-52106D01*
X34402Y-52148D01*
X34522Y-52148D01*
X34584Y-52123D01*
X34631Y-52075D01*
X34657Y-52014D01*
X34657Y-52971D01*
X34342Y-52971D01*
X34342Y-52106D01*
X34342Y-51792D01*
X34342Y-51774D01*
X34342Y-51460D01*
X34300Y-51418D01*
X34180Y-51418D01*
X34118Y-51443D01*
X34071Y-51491D01*
X34045Y-51552D01*
X34045Y-51619D01*
X34045Y-51732D01*
X34087Y-51774D01*
X34342Y-51774D01*
X34342Y-51792D01*
X34087Y-51792D01*
X34045Y-51834D01*
X34045Y-51947D01*
X34045Y-52014D01*
X34071Y-52075D01*
X34118Y-52123D01*
X34180Y-52148D01*
X34300Y-52148D01*
X34342Y-52106D01*
X34342Y-52971D01*
X34282Y-52971D01*
X34282Y-52947D01*
X34282Y-52553D01*
X34257Y-52491D01*
X34209Y-52444D01*
X34148Y-52418D01*
X34081Y-52418D01*
X33819Y-52418D01*
X33819Y-52129D01*
X33834Y-52123D01*
X33881Y-52075D01*
X33907Y-52014D01*
X33907Y-51947D01*
X33907Y-51553D01*
X33882Y-51491D01*
X33834Y-51444D01*
X33819Y-51437D01*
X33819Y-51389D01*
X33912Y-51296D01*
X33964Y-51170D01*
X33964Y-51034D01*
X33912Y-50908D01*
X33816Y-50812D01*
X33690Y-50760D01*
X33554Y-50760D01*
X33428Y-50812D01*
X33332Y-50908D01*
X33280Y-51034D01*
X33280Y-51170D01*
X33332Y-51296D01*
X33383Y-51347D01*
X33383Y-51436D01*
X33368Y-51443D01*
X33321Y-51491D01*
X33295Y-51552D01*
X33295Y-51619D01*
X33295Y-52013D01*
X33320Y-52075D01*
X33368Y-52122D01*
X33383Y-52128D01*
X33383Y-53050D01*
X33400Y-53133D01*
X33447Y-53204D01*
X33585Y-53343D01*
X33586Y-53343D01*
X33632Y-53373D01*
X33656Y-53389D01*
X33657Y-53390D01*
X33740Y-53407D01*
X37587Y-53407D01*
X38035Y-53855D01*
X38106Y-53902D01*
X38189Y-53919D01*
X38780Y-53919D01*
X38800Y-53919D01*
X39134Y-53919D01*
X39217Y-53902D01*
X39288Y-53855D01*
X39524Y-53620D01*
X39524Y-53619D01*
X39554Y-53573D01*
X39570Y-53549D01*
X39571Y-53548D01*
X39585Y-53474D01*
X39586Y-53474D01*
X39678Y-53474D01*
X39740Y-53449D01*
X39787Y-53401D01*
X39813Y-53340D01*
X39813Y-53273D01*
X39813Y-52974D01*
X39911Y-52974D01*
X39911Y-52989D01*
X39911Y-53339D01*
X39936Y-53401D01*
X39984Y-53448D01*
X40045Y-53474D01*
X40112Y-53474D01*
X40662Y-53474D01*
X40724Y-53449D01*
X40771Y-53401D01*
X40797Y-53340D01*
X40797Y-53273D01*
X40797Y-52923D01*
X40772Y-52861D01*
X40724Y-52814D01*
X40663Y-52788D01*
X40596Y-52788D01*
X40562Y-52788D01*
X40555Y-52752D01*
X40554Y-52751D01*
X40538Y-52727D01*
X40536Y-52724D01*
X40662Y-52724D01*
X40724Y-52699D01*
X40771Y-52651D01*
X40797Y-52590D01*
X40797Y-52523D01*
X40797Y-52173D01*
X40772Y-52111D01*
X40724Y-52064D01*
X40663Y-52038D01*
X40596Y-52038D01*
X40566Y-52038D01*
X40555Y-51984D01*
X40554Y-51983D01*
X40538Y-51959D01*
X40508Y-51913D01*
X40508Y-51912D01*
X40410Y-51815D01*
X40339Y-51768D01*
X40256Y-51751D01*
X40141Y-51751D01*
X40148Y-51736D01*
X40148Y-51669D01*
X40148Y-50883D01*
X40123Y-50821D01*
X40075Y-50774D01*
X40014Y-50748D01*
X39947Y-50748D01*
X39771Y-50748D01*
X39734Y-50762D01*
X39700Y-50748D01*
X39633Y-50748D01*
X39457Y-50748D01*
X39419Y-50763D01*
X39384Y-50748D01*
X39317Y-50748D01*
X39204Y-50748D01*
X39266Y-50686D01*
X39318Y-50560D01*
X39318Y-50424D01*
X39266Y-50298D01*
X39170Y-50202D01*
X39044Y-50150D01*
X38908Y-50150D01*
X38850Y-50173D01*
X38850Y-49844D01*
X39061Y-49633D01*
X39162Y-49633D01*
X39288Y-49581D01*
X39384Y-49485D01*
X39436Y-49359D01*
X39436Y-49223D01*
X39411Y-49164D01*
X40115Y-49164D01*
X40115Y-49206D01*
X40115Y-49210D01*
X40157Y-49252D01*
X40617Y-49252D01*
X40667Y-49252D01*
X40685Y-49252D01*
X40735Y-49252D01*
X41195Y-49252D01*
X41237Y-49210D01*
X41237Y-49206D01*
X41237Y-49164D01*
X41269Y-49164D01*
X41416Y-49164D01*
X41416Y-49318D01*
X41376Y-49358D01*
X41237Y-49358D01*
X41237Y-49316D01*
X41237Y-49312D01*
X41195Y-49270D01*
X40735Y-49270D01*
X40685Y-49270D01*
X40667Y-49270D01*
X40617Y-49270D01*
X40157Y-49270D01*
X40115Y-49312D01*
X40115Y-49316D01*
X40115Y-49383D01*
X40130Y-49418D01*
X40115Y-49454D01*
X40115Y-49521D01*
X40115Y-49697D01*
X40129Y-49733D01*
X40115Y-49769D01*
X40115Y-49836D01*
X40115Y-49840D01*
X40157Y-49882D01*
X40617Y-49882D01*
X40667Y-49882D01*
X40685Y-49882D01*
X40735Y-49882D01*
X41195Y-49882D01*
X41237Y-49840D01*
X41237Y-49836D01*
X41237Y-49794D01*
X41317Y-49794D01*
X41677Y-50154D01*
X41747Y-50201D01*
X41748Y-50201D01*
X41831Y-50218D01*
X41880Y-50218D01*
X41880Y-50325D01*
X41905Y-50387D01*
X41953Y-50434D01*
X42014Y-50460D01*
X42081Y-50460D01*
X42631Y-50460D01*
X42693Y-50435D01*
X42740Y-50387D01*
X42762Y-50335D01*
X43163Y-50335D01*
X43184Y-50387D01*
X43232Y-50434D01*
X43293Y-50460D01*
X43360Y-50460D01*
X43910Y-50460D01*
X43972Y-50435D01*
X44019Y-50387D01*
X44041Y-50335D01*
X44044Y-50335D01*
X44097Y-50388D01*
X44223Y-50440D01*
X44299Y-50440D01*
X44289Y-50493D01*
X44289Y-51136D01*
X44237Y-51157D01*
X44190Y-51205D01*
X44164Y-51266D01*
X44164Y-51333D01*
X44164Y-51883D01*
X44189Y-51945D01*
X44237Y-51992D01*
X44298Y-52018D01*
X44365Y-52018D01*
X44664Y-52018D01*
X44664Y-52155D01*
X44649Y-52155D01*
X44299Y-52155D01*
X44237Y-52180D01*
X44190Y-52228D01*
X44164Y-52289D01*
X44164Y-52321D01*
X44074Y-52231D01*
X44122Y-52115D01*
X44122Y-51979D01*
X44070Y-51853D01*
X44045Y-51828D01*
X44045Y-51075D01*
X44045Y-50918D01*
X44045Y-50816D01*
X44045Y-50659D01*
X44020Y-50597D01*
X43972Y-50550D01*
X43911Y-50524D01*
X43844Y-50524D01*
X43653Y-50524D01*
X43611Y-50566D01*
X43611Y-50858D01*
X44003Y-50858D01*
X44045Y-50816D01*
X44045Y-50918D01*
X44003Y-50876D01*
X43611Y-50876D01*
X43611Y-51168D01*
X43653Y-51210D01*
X43844Y-51210D01*
X43911Y-51210D01*
X43972Y-51184D01*
X44020Y-51137D01*
X44045Y-51075D01*
X44045Y-51828D01*
X43974Y-51757D01*
X43848Y-51705D01*
X43712Y-51705D01*
X43593Y-51754D01*
X43593Y-51168D01*
X43593Y-50876D01*
X43593Y-50858D01*
X43593Y-50566D01*
X43551Y-50524D01*
X43360Y-50524D01*
X43293Y-50524D01*
X43232Y-50550D01*
X43184Y-50597D01*
X43159Y-50659D01*
X43159Y-50816D01*
X43201Y-50858D01*
X43593Y-50858D01*
X43593Y-50876D01*
X43201Y-50876D01*
X43159Y-50918D01*
X43159Y-51075D01*
X43184Y-51137D01*
X43232Y-51184D01*
X43293Y-51210D01*
X43360Y-51210D01*
X43551Y-51210D01*
X43593Y-51168D01*
X43593Y-51754D01*
X43586Y-51757D01*
X43490Y-51853D01*
X43438Y-51979D01*
X43438Y-52115D01*
X43490Y-52241D01*
X43582Y-52333D01*
X43626Y-52399D01*
X43979Y-52752D01*
X44049Y-52799D01*
X44050Y-52799D01*
X44133Y-52816D01*
X44164Y-52816D01*
X44164Y-52906D01*
X44189Y-52968D01*
X44237Y-53015D01*
X44298Y-53041D01*
X44365Y-53041D01*
X44664Y-53041D01*
X44664Y-53218D01*
X44649Y-53218D01*
X44299Y-53218D01*
X44237Y-53243D01*
X44190Y-53291D01*
X44164Y-53352D01*
X44164Y-53419D01*
X44164Y-53443D01*
X43869Y-53443D01*
X43767Y-53340D01*
X43767Y-53239D01*
X43715Y-53113D01*
X43619Y-53017D01*
X43493Y-52965D01*
X43357Y-52965D01*
X43231Y-53017D01*
X43135Y-53113D01*
X43083Y-53239D01*
X43083Y-53375D01*
X43135Y-53501D01*
X43231Y-53597D01*
X43357Y-53649D01*
X43458Y-53649D01*
X43624Y-53815D01*
X43625Y-53815D01*
X43671Y-53845D01*
X43695Y-53861D01*
X43696Y-53862D01*
X43779Y-53879D01*
X44164Y-53879D01*
X44164Y-53969D01*
X44189Y-54031D01*
X44237Y-54078D01*
X44298Y-54104D01*
X44365Y-54104D01*
X44664Y-54104D01*
X44664Y-55247D01*
X44236Y-55676D01*
X43067Y-56844D01*
X43034Y-56831D01*
X42848Y-56831D01*
X42676Y-56902D01*
X42544Y-57034D01*
X42473Y-57206D01*
X42473Y-57392D01*
X42544Y-57564D01*
X42676Y-57696D01*
X42848Y-57767D01*
X43034Y-57767D01*
X43206Y-57696D01*
X43338Y-57564D01*
X43409Y-57392D01*
X43409Y-57206D01*
X43383Y-57144D01*
X44544Y-55984D01*
X45036Y-55493D01*
X45036Y-55492D01*
X45066Y-55446D01*
X45082Y-55422D01*
X45083Y-55421D01*
X45099Y-55339D01*
X45100Y-55338D01*
X45100Y-54104D01*
X45115Y-54104D01*
X45465Y-54104D01*
X45527Y-54079D01*
X45574Y-54031D01*
X45600Y-53970D01*
X45600Y-53903D01*
X45600Y-53879D01*
X45866Y-53879D01*
X45949Y-53862D01*
X46020Y-53815D01*
X46410Y-53426D01*
X46410Y-53425D01*
X46440Y-53379D01*
X46456Y-53355D01*
X46457Y-53354D01*
X46473Y-53271D01*
X46474Y-53271D01*
X46474Y-52919D01*
X46506Y-52906D01*
X46631Y-52781D01*
X46698Y-52619D01*
X46698Y-52443D01*
X46631Y-52281D01*
X46506Y-52156D01*
X46344Y-52089D01*
X46168Y-52089D01*
X46006Y-52156D01*
X45881Y-52281D01*
X45814Y-52443D01*
X45814Y-52619D01*
X45881Y-52781D01*
X46006Y-52906D01*
X46038Y-52919D01*
X46038Y-53180D01*
X45775Y-53443D01*
X45600Y-53443D01*
X45600Y-53353D01*
X45575Y-53291D01*
X45527Y-53244D01*
X45466Y-53218D01*
X45399Y-53218D01*
X45100Y-53218D01*
X45100Y-53041D01*
X45115Y-53041D01*
X45465Y-53041D01*
X45527Y-53016D01*
X45574Y-52968D01*
X45600Y-52907D01*
X45600Y-52840D01*
X45600Y-52495D01*
X46135Y-51959D01*
X46168Y-51973D01*
X46344Y-51973D01*
X46506Y-51906D01*
X46631Y-51781D01*
X46644Y-51749D01*
X48166Y-51749D01*
X48827Y-52410D01*
X48814Y-52443D01*
X48814Y-52619D01*
X48881Y-52781D01*
X49006Y-52906D01*
X49168Y-52973D01*
X49344Y-52973D01*
X49506Y-52906D01*
X49631Y-52781D01*
X49698Y-52619D01*
X49698Y-52499D01*
X50548Y-51649D01*
X50595Y-51579D01*
X50595Y-51578D01*
X50612Y-51495D01*
X50612Y-48446D01*
X51850Y-48446D01*
X51933Y-48429D01*
X52004Y-48382D01*
X52316Y-48071D01*
X52316Y-58246D01*
M02*
