G04 (created by PCBNEW-RS274X (2012-01-19 BZR 3256)-stable) date 09-06-2012 12:03:24*
G01*
G70*
G90*
%MOIN*%
G04 Gerber Fmt 3.4, Leading zero omitted, Abs format*
%FSLAX34Y34*%
G04 APERTURE LIST*
%ADD10C,0.006000*%
%ADD11C,0.015000*%
%ADD12R,0.098700X0.037700*%
%ADD13R,0.037700X0.098700*%
%ADD14R,0.047600X0.059400*%
%ADD15R,0.164000X0.100000*%
%ADD16R,0.060000X0.100000*%
%ADD17R,0.055000X0.075000*%
%ADD18R,0.075000X0.055000*%
%ADD19R,0.075000X0.075000*%
%ADD20C,0.075000*%
%ADD21R,0.236500X0.098700*%
%ADD22R,0.080000X0.080000*%
%ADD23C,0.080000*%
%ADD24R,0.118400X0.039600*%
%ADD25R,0.118400X0.098700*%
%ADD26C,0.075400*%
%ADD27C,0.180000*%
G04 APERTURE END LIST*
G54D10*
G54D11*
X47638Y-59449D02*
X47740Y-59444D01*
X47843Y-59431D01*
X47943Y-59408D01*
X48041Y-59377D01*
X48137Y-59338D01*
X48228Y-59290D01*
X48315Y-59235D01*
X48397Y-59172D01*
X48473Y-59103D01*
X48542Y-59027D01*
X48605Y-58945D01*
X48660Y-58858D01*
X48708Y-58767D01*
X48747Y-58671D01*
X48778Y-58573D01*
X48801Y-58473D01*
X48814Y-58370D01*
X48819Y-58268D01*
X48819Y-40945D02*
X48814Y-40843D01*
X48801Y-40740D01*
X48778Y-40640D01*
X48747Y-40542D01*
X48708Y-40446D01*
X48660Y-40355D01*
X48605Y-40268D01*
X48542Y-40186D01*
X48473Y-40110D01*
X48397Y-40041D01*
X48315Y-39978D01*
X48228Y-39923D01*
X48137Y-39875D01*
X48041Y-39836D01*
X47943Y-39805D01*
X47843Y-39782D01*
X47740Y-39769D01*
X47638Y-39764D01*
X29134Y-58268D02*
X29139Y-58370D01*
X29152Y-58473D01*
X29175Y-58573D01*
X29206Y-58671D01*
X29245Y-58767D01*
X29293Y-58858D01*
X29348Y-58945D01*
X29411Y-59027D01*
X29480Y-59103D01*
X29556Y-59172D01*
X29638Y-59235D01*
X29725Y-59290D01*
X29816Y-59338D01*
X29912Y-59377D01*
X30010Y-59408D01*
X30110Y-59431D01*
X30213Y-59444D01*
X30315Y-59449D01*
X30315Y-39764D02*
X30213Y-39769D01*
X30110Y-39782D01*
X30010Y-39805D01*
X29912Y-39836D01*
X29816Y-39875D01*
X29725Y-39923D01*
X29638Y-39978D01*
X29556Y-40041D01*
X29480Y-40110D01*
X29411Y-40186D01*
X29348Y-40268D01*
X29293Y-40355D01*
X29245Y-40446D01*
X29206Y-40542D01*
X29175Y-40640D01*
X29152Y-40740D01*
X29139Y-40843D01*
X29134Y-40945D01*
X29134Y-58268D02*
X29134Y-40945D01*
X47638Y-59449D02*
X30315Y-59449D01*
X48819Y-40945D02*
X48819Y-58268D01*
X30315Y-39764D02*
X47638Y-39764D01*
G54D12*
X40676Y-48316D03*
X40676Y-48631D03*
X40676Y-48946D03*
X40676Y-49261D03*
X40676Y-49576D03*
X40676Y-49891D03*
X40676Y-50206D03*
X40676Y-50521D03*
X36910Y-50519D03*
X36910Y-48309D03*
X36910Y-48629D03*
X36910Y-48949D03*
X36910Y-49259D03*
X36910Y-49579D03*
X36910Y-49889D03*
X36910Y-50209D03*
G54D13*
X39892Y-51309D03*
X39578Y-51309D03*
X39262Y-51309D03*
X38948Y-51309D03*
X38632Y-51309D03*
X38318Y-51309D03*
X38002Y-51309D03*
X37688Y-51309D03*
X39890Y-47529D03*
X39580Y-47529D03*
X39260Y-47529D03*
X38950Y-47529D03*
X38640Y-47529D03*
X38320Y-47529D03*
X38000Y-47529D03*
X37680Y-47529D03*
G54D14*
X33976Y-52783D03*
X33601Y-51783D03*
X34351Y-51783D03*
X35394Y-52783D03*
X35019Y-51783D03*
X35769Y-51783D03*
G54D15*
X34843Y-40826D03*
G54D16*
X34843Y-43426D03*
X35743Y-43426D03*
X33943Y-43426D03*
G54D17*
X34036Y-45866D03*
X33286Y-45866D03*
G54D18*
X34016Y-48208D03*
X34016Y-48958D03*
X39370Y-53131D03*
X39370Y-52381D03*
X40354Y-53131D03*
X40354Y-52381D03*
X42323Y-50117D03*
X42323Y-50867D03*
X46457Y-46832D03*
X46457Y-46082D03*
G54D17*
X43719Y-43898D03*
X44469Y-43898D03*
X41517Y-43898D03*
X40767Y-43898D03*
G54D18*
X32717Y-42932D03*
X32717Y-43682D03*
X32717Y-41436D03*
X32717Y-42186D03*
X36024Y-44704D03*
X36024Y-45454D03*
X43602Y-50117D03*
X43602Y-50867D03*
X42520Y-48247D03*
X42520Y-48997D03*
G54D17*
X35176Y-50197D03*
X35926Y-50197D03*
X34036Y-44685D03*
X33286Y-44685D03*
G54D18*
X37008Y-44704D03*
X37008Y-45454D03*
G54D19*
X47441Y-49484D03*
G54D20*
X47441Y-50484D03*
X47441Y-51484D03*
X47441Y-52484D03*
G54D19*
X47441Y-45457D03*
G54D20*
X47441Y-46457D03*
X47441Y-47457D03*
G54D19*
X38280Y-43504D03*
G54D20*
X39280Y-43504D03*
G54D19*
X38241Y-41142D03*
G54D20*
X39241Y-41142D03*
G54D21*
X44468Y-45571D03*
X40768Y-45571D03*
G54D22*
X46547Y-55496D03*
G54D23*
X47547Y-55496D03*
X46547Y-56496D03*
X47547Y-56496D03*
X46547Y-57496D03*
X47547Y-57496D03*
G54D24*
X32480Y-49409D03*
X32480Y-49095D03*
X32480Y-50038D03*
X32480Y-49723D03*
G54D25*
X30315Y-51180D03*
X30315Y-47638D03*
X32480Y-51141D03*
X32480Y-47638D03*
G54D26*
X31496Y-48543D03*
X31496Y-50275D03*
G54D24*
X32480Y-48780D03*
G54D22*
X42921Y-58299D03*
G54D23*
X41921Y-58299D03*
X42921Y-57299D03*
X41921Y-57299D03*
X42921Y-56299D03*
X41921Y-56299D03*
X42921Y-55299D03*
X41921Y-55299D03*
X42921Y-54299D03*
X41921Y-54299D03*
G54D27*
X30315Y-40945D03*
X47638Y-40945D03*
X38976Y-57874D03*
M02*
