M48
;DRILL file {Pcbnew (2012-01-19 BZR 3256)-stable} date 21-08-2012 09:23:07
;FORMAT={2:4/ absolute / inch / suppress leading zeros}
FMAT,2
INCH,TZ
T1C0.016
T2C0.032
T3C0.035
T4C0.040
T5C0.120
%
G90
G05
M72
T1
X33622Y-50039
X33622Y-51102
X34803Y-48937
X34843Y-45866
X35829Y-48309
X36614Y-47736
X37992Y-46752
X37992Y-48307
X38189Y-49646
X38268Y-49055
X38268Y-50118
X38583Y-54331
X38740Y-52362
X38880Y-48258
X38976Y-50492
X39094Y-49291
X39724Y-48504
X42362Y-51732
X42559Y-44134
X43346Y-47480
X43425Y-53307
X43622Y-48937
X43780Y-52047
X44291Y-50098
X44882Y-50118
X45276Y-48504
X45315Y-47441
X47992Y-47402
T2
X46256Y-43531
X46256Y-44531
X46256Y-45531
X46256Y-46531
X46256Y-47531
X46256Y-48531
X46256Y-49531
X46256Y-50531
X46256Y-51531
X46256Y-52531
X49256Y-43531
X49256Y-44531
X49256Y-45531
X49256Y-46531
X49256Y-47531
X49256Y-48531
X49256Y-49531
X49256Y-50531
X49256Y-51531
X49256Y-52531
X51378Y-45457
X51378Y-46457
X51378Y-47457
X51378Y-49484
X51378Y-50484
X51378Y-51484
X51378Y-52484
T3
X31496Y-48543
X31496Y-50275
T4
X41941Y-54299
X41941Y-55299
X41941Y-56299
X41941Y-57299
X41941Y-58299
X42941Y-54299
X42941Y-55299
X42941Y-56299
X42941Y-57299
X42941Y-58299
X50287Y-55496
X50287Y-56496
X50287Y-57496
X51287Y-55496
X51287Y-56496
X51287Y-57496
T5
X30787Y-41378
X37953Y-57835
X50906Y-41378
T0
M30
