<?xml version="1.0" encoding="UTF-8" standalone="no"?>
<!-- Created with Inkscape (http://www.inkscape.org/) -->

<svg
   xmlns:dc="http://purl.org/dc/elements/1.1/"
   xmlns:cc="http://creativecommons.org/ns#"
   xmlns:rdf="http://www.w3.org/1999/02/22-rdf-syntax-ns#"
   xmlns:svg="http://www.w3.org/2000/svg"
   xmlns="http://www.w3.org/2000/svg"
   xmlns:sodipodi="http://sodipodi.sourceforge.net/DTD/sodipodi-0.dtd"
   xmlns:inkscape="http://www.inkscape.org/namespaces/inkscape"
   width="332.40625"
   height="536.40625"
   id="svg2"
   version="1.1"
   inkscape:version="0.48.2 r9819"
   sodipodi:docname="N64_case.svg">
  <sodipodi:namedview
     id="base"
     pagecolor="#ffffff"
     bordercolor="#666666"
     borderopacity="1.0"
     inkscape:pageopacity="0.0"
     inkscape:pageshadow="2"
     inkscape:zoom="2"
     inkscape:cx="69.997104"
     inkscape:cy="415.10802"
     inkscape:document-units="mm"
     inkscape:current-layer="layer1"
     showgrid="false"
     showguides="true"
     inkscape:snap-global="true"
     inkscape:window-width="1920"
     inkscape:window-height="1053"
     inkscape:window-x="-9"
     inkscape:window-y="-9"
     inkscape:window-maximized="1"
     inkscape:snap-page="false"
     units="mm"
     objecttolerance="10"
     gridtolerance="10000"
     inkscape:guide-bbox="true"
     inkscape:snap-grids="false"
     inkscape:snap-bbox="true"
     inkscape:bbox-nodes="true"
     inkscape:bbox-paths="true"
     inkscape:snap-bbox-midpoints="true"
     inkscape:snap-bbox-edge-midpoints="true"
     inkscape:snap-nodes="false"
     fit-margin-top="0"
     fit-margin-left="0"
     fit-margin-right="0"
     fit-margin-bottom="0">
    <inkscape:grid
       snapvisiblegridlinesonly="true"
       enabled="true"
       visible="true"
       empspacing="5"
       id="grid3797"
       type="xygrid" />
    <sodipodi:guide
       position="276.68994,94.571712"
       orientation="0,744.09448"
       id="guide3911" />
    <sodipodi:guide
       position="277.04001,224.57352"
       orientation="0,-744.09448"
       id="guide3915" />
    <sodipodi:guide
       position="65.40625,265.08211"
       orientation="1052.3622,0"
       id="guide3917" />
    <sodipodi:guide
       orientation="0,1"
       position="277.04001,239.58209"
       id="guide3951" />
    <sodipodi:guide
       orientation="0,1"
       position="168.20651,265.08211"
       id="guide3953" />
    <sodipodi:guide
       orientation="0,1"
       position="317.92591,70.200222"
       id="guide3955" />
    <sodipodi:guide
       orientation="1,0"
       position="275.40625,265.08211"
       id="guide3959" />
    <sodipodi:guide
       orientation="1,0"
       position="307.95312,265.08997"
       id="guide3961" />
    <sodipodi:guide
       orientation="0,1"
       position="276.68994,109.58028"
       id="guide3963" />
    <sodipodi:guide
       orientation="1,0"
       position="90.90625,265.08211"
       id="guide3965" />
    <sodipodi:guide
       orientation="1,0"
       position="105.91483,265.08211"
       id="guide3967" />
    <sodipodi:guide
       orientation="1,0"
       position="235.84375,265.08211"
       id="guide3969" />
    <sodipodi:guide
       orientation="1,0"
       position="220.90807,265.08211"
       id="guide3971" />
    <sodipodi:guide
       orientation="1,0"
       position="168.16232,288.70338"
       id="guide3975" />
    <sodipodi:guide
       orientation="1,0"
       position="157.51152,265.08211"
       id="guide3977" />
    <sodipodi:guide
       orientation="0,1"
       position="162.84719,162.32521"
       id="guide3981" />
    <sodipodi:guide
       orientation="0,1"
       position="277.40656,172.97683"
       id="guide3983" />
    <sodipodi:guide
       orientation="1,0"
       position="260.28813,265.0821"
       id="guide4021" />
    <sodipodi:guide
       orientation="1,0"
       position="300.56806,265.08997"
       id="guide4029" />
    <sodipodi:guide
       orientation="0,1"
       position="115.83642,275.44512"
       id="guide3836" />
    <sodipodi:guide
       orientation="0,1"
       position="246.12084,332.10205"
       id="guide3893" />
    <sodipodi:guide
       orientation="0,1"
       position="168.16232,257.95021"
       id="guide3895" />
    <sodipodi:guide
       orientation="0,1"
       position="168.16232,77.278452"
       id="guide3897" />
    <sodipodi:guide
       orientation="1,0"
       position="72.43774,172.95021"
       id="guide3899" />
    <sodipodi:guide
       orientation="1,0"
       position="253.23611,162.32521"
       id="guide3901" />
    <sodipodi:guide
       orientation="0,1"
       position="162.54966,303.75149"
       id="guide3968" />
    <sodipodi:guide
       orientation="0,1"
       position="162.65625,307.32521"
       id="guide3970" />
    <sodipodi:guide
       orientation="0,1"
       position="162.84375,300.63771"
       id="guide3972" />
    <sodipodi:guide
       orientation="1,0"
       position="162.88112,82.073522"
       id="guide4233" />
    <sodipodi:guide
       orientation="0,1"
       position="162.88112,167.63344"
       id="guide4237" />
    <sodipodi:guide
       orientation="0,1"
       position="110.40054,183.96318"
       id="guide24620" />
    <sodipodi:guide
       orientation="0,1"
       position="113.40574,155.32536"
       id="guide24622" />
    <sodipodi:guide
       orientation="1,0"
       position="31.875,161.84084"
       id="guide27272" />
    <sodipodi:guide
       orientation="0,1"
       position="72.07031,282.54396"
       id="guide27315" />
    <sodipodi:guide
       orientation="0,1"
       position="72.07866,325.05309"
       id="guide27317" />
  </sodipodi:namedview>
  <defs
     id="defs4">
    <marker
       inkscape:stockid="Arrow1Lstart"
       style="overflow:visible"
       refY="0"
       refX="0"
       orient="auto"
       id="Arrow1Lstart">
      <path
         id="path3802"
         style="fill-rule:evenodd;stroke:#000000;stroke-width:1pt;marker-start:none"
         transform="matrix(0.8,0,0,0.8,10,0)"
         d="M 0,0 5,-5 -12.5,0 5,5 0,0 z"
         inkscape:connector-curvature="0" />
    </marker>
    <marker
       inkscape:stockid="Arrow1Lend"
       style="overflow:visible"
       refY="0"
       refX="0"
       orient="auto"
       id="Arrow1Lend">
      <path
         id="path3805"
         style="fill-rule:evenodd;stroke:#000000;stroke-width:1pt;marker-start:none"
         transform="matrix(-0.8,0,0,-0.8,-10,0)"
         d="M 0,0 5,-5 -12.5,0 5,5 0,0 z"
         inkscape:connector-curvature="0" />
    </marker>
  </defs>
  <metadata
     id="metadata7">
    <rdf:RDF>
      <cc:Work
         rdf:about="">
        <dc:format>image/svg+xml</dc:format>
        <dc:type
           rdf:resource="http://purl.org/dc/dcmitype/StillImage" />
      </cc:Work>
    </rdf:RDF>
  </metadata>
  <g
     inkscape:groupmode="layer"
     id="layer3"
     inkscape:label="Hole_cut"
     style="display:inline"
     transform="translate(-124.09375,-3012.2862)">
    <rect
       style="fill:none;stroke:#000000;stroke-width:0.40124789;stroke-miterlimit:4;stroke-opacity:1;stroke-dasharray:none;display:inline"
       id="rect24541-4-0"
       width="25.669453"
       height="43.890091"
       x="348.37589"
       y="3151.9724" />
    <rect
       style="fill:none;stroke:#000000;stroke-width:0.35433072;stroke-miterlimit:4;stroke-opacity:1;stroke-dasharray:none;display:inline"
       id="rect24541-5-0"
       width="13.064031"
       height="39.85199"
       x="360.13776"
       y="3104.6062" />
    <rect
       style="fill:none;stroke:#000000;stroke-width:0.35433072;stroke-miterlimit:4;stroke-opacity:1;stroke-dasharray:none;display:inline"
       id="rect24541-1"
       width="13.112075"
       height="30.751839"
       x="360.11374"
       y="3068.27" />
    <path
       transform="matrix(0.5,0,0,0.5,84.294168,3159.0309)"
       sodipodi:type="arc"
       style="fill:none;stroke:#000000;stroke-width:0.35433072;stroke-miterlimit:4;stroke-opacity:1;stroke-dasharray:none;display:inline"
       id="path24514-6"
       sodipodi:cx="264.21875"
       sodipodi:cy="296.23718"
       sodipodi:rx="8.5"
       sodipodi:ry="8.5"
       d="m 272.71875,296.23718 c 0,4.69442 -3.80558,8.5 -8.5,8.5 -4.69442,0 -8.5,-3.80558 -8.5,-8.5 0,-4.69442 3.80558,-8.5 8.5,-8.5 4.69442,0 8.5,3.80558 8.5,8.5 z" />
    <path
       transform="matrix(0.49965886,-0.01846691,0.01846692,0.49965885,224.88517,3164.0413)"
       sodipodi:type="arc"
       style="fill:none;stroke:#000000;stroke-width:0.35433072;stroke-miterlimit:4;stroke-opacity:1;stroke-dasharray:none;display:inline"
       id="path24514-5"
       sodipodi:cx="264.21875"
       sodipodi:cy="296.23718"
       sodipodi:rx="8.5"
       sodipodi:ry="8.5"
       d="m 272.71875,296.23718 c 0,4.69442 -3.80558,8.5 -8.5,8.5 -4.69442,0 -8.5,-3.80558 -8.5,-8.5 0,-4.69442 3.80558,-8.5 8.5,-8.5 4.69442,0 8.5,3.80558 8.5,8.5 z" />
    <path
       sodipodi:type="arc"
       style="fill:none;stroke:#000000;stroke-width:0.35433072;stroke-miterlimit:4;stroke-opacity:1;stroke-dasharray:none;display:inline"
       id="path24514"
       sodipodi:cx="264.21875"
       sodipodi:cy="296.23718"
       sodipodi:rx="8.5"
       sodipodi:ry="8.5"
       d="m 272.71875,296.23718 c 0,4.69442 -3.80558,8.5 -8.5,8.5 -4.69442,0 -8.5,-3.80558 -8.5,-8.5 0,-4.69442 3.80558,-8.5 8.5,-8.5 4.69442,0 8.5,3.80558 8.5,8.5 z"
       transform="matrix(0.5,0,0,0.5,132.10937,3306.7485)" />
  </g>
  <g
     id="layer1"
     inkscape:groupmode="layer"
     inkscape:label="Outline_CUT"
     style="display:inline"
     transform="translate(-124.09375,148.34375)">
    <path
       style="fill:none;stroke:#000000;stroke-width:0.35549814;stroke-miterlimit:4;stroke-opacity:1;stroke-dasharray:none"
       d="m 189.6875,3283.7812 0,25.5313 6.625,0 0,14.5937 -6.625,0 0,51.0313 0,0.9375 0,10.3125 0,1.375 0,51.75 6.625,0 0,14.5937 -6.625,0 0,24.4063 25.5,0 0,-6.7187 14.65625,0 0,6.7187 51.9375,0 0,-6.7187 10.3125,0 0,6.7187 53.09375,0 0,-6.7187 14.5625,0 0,6.7187 24.46875,0 0,-24.4063 -6.6875,0 0,-14.5937 6.6875,0 0,-53.125 -6.71875,0 0,-10.3125 6.71875,0 0,-51.9688 -6.6875,0 0,-14.5937 6.6875,0 0,-25.5313 -24.46875,0 0,6.7813 -14.5625,0 0,-6.7813 -53.09375,0 0,6.7813 -10.3125,0 0,-6.7813 -51.9375,0 0,6.7813 -14.65625,0 0,-6.7813 -25.5,0 z"
       id="rect3923"
       inkscape:connector-curvature="0"
       transform="translate(0,-3160.6299)" />
    <path
       style="fill:none;stroke:#000000;stroke-width:0.35756314;stroke-miterlimit:4;stroke-opacity:1;stroke-dasharray:none;display:inline"
       d="m 281.78137,56.1201 0,7.0625 -51.96881,0 0,-7.0313 -14.59378,0 0,7.0313 -16.09376,0 -2.78126,0 -6.65626,0 0,17.375 0,0.3437 6.68751,0 0,6.3438 -6.68751,0 0,0.3438 0,17.75 6.65626,0 2.78126,0 16.09376,0 0,7.0624 14.59378,0 0,-7.0624 51.96881,0 0,7.0937 10.31252,0 0,-7.0937 53.12507,0 0,7.4062 14.59377,0 0,-7.4062 17.68753,0 0,-18.0938 6.68751,0 0.0311,0 0,-6.3125 -6.71875,0 0,-17.75 -17.78128,0 0,-7.0313 -14.50002,0 0,7.0313 -53.12507,0 0,-7.0625 -10.31252,0 z"
       id="rect3929-2"
       inkscape:connector-curvature="0" />
    <rect
       style="fill:none"
       id="rect3838"
       width="15.00858"
       height="8.7343788"
       x="215"
       y="56.252804" />
    <rect
       style="fill:none"
       id="rect3841"
       width="15.00858"
       height="10.734379"
       x="215"
       y="56.252804" />
    <path
       style="fill:none;stroke:#000000;stroke-width:0.35754859;stroke-miterlimit:4;stroke-opacity:1;stroke-dasharray:none;display:inline"
       d="m 149.4375,3283.7812 0,6.6876 -17.75,0 0,18.8437 -7.0625,0 0,14.5937 7.0625,0 0,40.9376 24.09375,0 0,28.3437 -24.09375,0 0,46.125 -7.40625,0 0,14.5937 7.40625,0 0,24.4063 18.09375,0 0,-6.7187 6.34375,0 0,6.7187 17.71875,0 0,-24.4687 7.03125,0 0,-14.5313 -7.03125,0 0,-53.125 7.0625,0 0,-10.3125 -7.0625,0 0,-51.9688 7.03125,0 0,-14.5937 -7.03125,0 0,-18.8437 -17.375,0 0,-6.6876 -7.03125,0 z"
       id="rect3929-2-5"
       inkscape:connector-curvature="0"
       transform="translate(0,-3160.6299)" />
    <rect
       style="fill:none;display:inline"
       id="rect3838-1"
       width="15.00858"
       height="8.7343788"
       x="148.4803"
       y="-448.7774"
       transform="matrix(0,1,-1,0,0,0)" />
    <rect
       style="fill:none;display:inline"
       id="rect3841-5"
       width="15.00858"
       height="10.734379"
       x="148.4803"
       y="-448.7774"
       transform="matrix(0,1,-1,0,0,0)" />
    <path
       style="fill:none;stroke:#000000;stroke-width:0.35549814;stroke-miterlimit:4;stroke-opacity:1;stroke-dasharray:none;display:inline"
       d="m 189.6875,-148.15336 0,25.5313 6.625,0 0,14.5937 -6.625,0 0,51.9688 6.65625,0 0,10.3125 -6.65625,0 0,53.124997 6.625,0 0,14.5937 -6.625,0 0,24.4063 25.5,0 0,-6.7188 14.65625,0 0,6.7188 51.9375,0 0,-6.7188 10.31251,0 0,6.7188 53.09375,0 0,-6.7188 14.5625,0 0,6.7188 24.46875,0 0,-24.4063 -6.6875,0 0,-14.5937 6.6875,0 0,-53.124997 -6.71875,0 0,-10.3125 6.71875,0 0,-51.9688 -6.6875,0 0,-14.5937 6.6875,0 0,-25.5313 -24.46875,0 0,6.7813 -14.5625,0 0,-6.7813 -53.09375,0 0,6.7813 -10.31251,0 0,-6.7813 -51.9375,0 0,6.7813 -14.65625,0 0,-6.7813 -25.5,0 z"
       id="rect3923-2"
       inkscape:connector-curvature="0" />
    <path
       style="fill:none;stroke:#000000;stroke-width:0.35754859;stroke-miterlimit:4;stroke-opacity:1;stroke-dasharray:none;display:inline"
       d="m 281.77252,331.26192 0,7.0625 -51.96875,0 0,-7.0313 -14.59375,0 0,7.0313 -18.875,0 0,17.375 -6.65625,0 0,7.0312 6.65625,0 0,17.75 18.875,0 0,7.0625 14.59375,0 0,-7.0625 51.96875,0 0,7.0938 10.3125,0 0,-7.0938 53.125,0 0,7.4063 14.59375,0 0,-7.4063 24.375,0 0,-18.0937 -6.6875,0 0,-6.3438 6.6875,0 0,-17.7187 -24.46875,0 0,-7.0313 -14.5,0 0,7.0313 -53.125,0 0,-7.0625 -10.3125,0 z"
       id="rect3929-2-4"
       inkscape:connector-curvature="0" />
    <path
       style="fill:none;stroke:#000000;stroke-width:0.35754859;stroke-miterlimit:4;stroke-opacity:1;stroke-dasharray:none;display:inline"
       d="m 424.84375,3283.7812 0,6.6876 -17.75,0 0,18.8437 -7.0625,0 0,14.5937 7.0625,0 0,38.9688 0,1.9688 0,28.3437 0,2.5625 0,43.5625 -7.40625,0 0,14.5937 7.40625,0 0,24.4063 18.09375,0 0,-6.7187 6.34375,0 0,6.7187 17.71875,0 0,-24.4687 7.03125,0 0,-14.5313 -7.03125,0 0,-53.125 7.0625,0 0,-10.3125 -7.0625,0 0,-51.9688 7.03125,0 0,-14.5937 -7.03125,0 0,-18.8437 -17.375,0 0,-6.6876 -7.03125,0 z"
       id="rect3929-2-5-1"
       transform="translate(0,-3160.6299)"
       inkscape:connector-curvature="0" />
  </g>
</svg>
