<?xml version="1.0" encoding="UTF-8" standalone="no"?>
<!-- Created with Inkscape (http://www.inkscape.org/) -->

<svg
   xmlns:dc="http://purl.org/dc/elements/1.1/"
   xmlns:cc="http://creativecommons.org/ns#"
   xmlns:rdf="http://www.w3.org/1999/02/22-rdf-syntax-ns#"
   xmlns:svg="http://www.w3.org/2000/svg"
   xmlns="http://www.w3.org/2000/svg"
   xmlns:sodipodi="http://sodipodi.sourceforge.net/DTD/sodipodi-0.dtd"
   xmlns:inkscape="http://www.inkscape.org/namespaces/inkscape"
   width="332.40625"
   height="536.40625"
   id="svg2"
   version="1.1"
   inkscape:version="0.48.2 r9819"
   sodipodi:docname="N64_case_for_board_v1.svg">
  <sodipodi:namedview
     id="base"
     pagecolor="#ffffff"
     bordercolor="#666666"
     borderopacity="1.0"
     inkscape:pageopacity="0.0"
     inkscape:pageshadow="2"
     inkscape:zoom="2.8284271"
     inkscape:cx="64.535872"
     inkscape:cy="281.53987"
     inkscape:document-units="mm"
     inkscape:current-layer="layer1"
     showgrid="true"
     showguides="true"
     inkscape:snap-global="true"
     inkscape:window-width="1920"
     inkscape:window-height="1053"
     inkscape:window-x="-9"
     inkscape:window-y="-9"
     inkscape:window-maximized="1"
     inkscape:snap-page="false"
     units="mm"
     objecttolerance="10"
     gridtolerance="10000"
     inkscape:guide-bbox="true"
     inkscape:snap-grids="false"
     inkscape:snap-bbox="true"
     inkscape:bbox-nodes="true"
     inkscape:bbox-paths="true"
     inkscape:snap-bbox-midpoints="true"
     inkscape:snap-bbox-edge-midpoints="true"
     inkscape:snap-nodes="false"
     fit-margin-top="0"
     fit-margin-left="0"
     fit-margin-right="0"
     fit-margin-bottom="0">
    <inkscape:grid
       snapvisiblegridlinesonly="true"
       enabled="true"
       visible="true"
       empspacing="5"
       id="grid3797"
       type="xygrid" />
    <sodipodi:guide
       position="276.68994,94.571712"
       orientation="0,744.09448"
       id="guide3911" />
    <sodipodi:guide
       position="277.04001,224.57352"
       orientation="0,-744.09448"
       id="guide3915" />
    <sodipodi:guide
       position="65.40625,265.08211"
       orientation="1052.3622,0"
       id="guide3917" />
    <sodipodi:guide
       orientation="0,1"
       position="277.04001,239.58209"
       id="guide3951" />
    <sodipodi:guide
       orientation="0,1"
       position="168.20651,265.08211"
       id="guide3953" />
    <sodipodi:guide
       orientation="0,1"
       position="317.92591,70.200222"
       id="guide3955" />
    <sodipodi:guide
       orientation="1,0"
       position="275.40625,265.08211"
       id="guide3959" />
    <sodipodi:guide
       orientation="1,0"
       position="307.95312,265.08997"
       id="guide3961" />
    <sodipodi:guide
       orientation="0,1"
       position="276.68994,109.58028"
       id="guide3963" />
    <sodipodi:guide
       orientation="1,0"
       position="90.90625,265.08211"
       id="guide3965" />
    <sodipodi:guide
       orientation="1,0"
       position="105.91483,265.08211"
       id="guide3967" />
    <sodipodi:guide
       orientation="1,0"
       position="235.84375,265.08211"
       id="guide3969" />
    <sodipodi:guide
       orientation="1,0"
       position="220.83829,68.235805"
       id="guide3971" />
    <sodipodi:guide
       orientation="1,0"
       position="169.23438,67.6875"
       id="guide3975" />
    <sodipodi:guide
       orientation="0,1"
       position="162.84719,162.32521"
       id="guide3981" />
    <sodipodi:guide
       orientation="0,1"
       position="277.40656,172.97683"
       id="guide3983" />
    <sodipodi:guide
       orientation="1,0"
       position="260.28813,265.0821"
       id="guide4021" />
    <sodipodi:guide
       orientation="1,0"
       position="300.56806,265.08997"
       id="guide4029" />
    <sodipodi:guide
       orientation="0,1"
       position="115.83642,275.44512"
       id="guide3836" />
    <sodipodi:guide
       orientation="0,1"
       position="131.9375,332.12118"
       id="guide3893" />
    <sodipodi:guide
       orientation="0,1"
       position="168.16232,257.95021"
       id="guide3895" />
    <sodipodi:guide
       orientation="0,1"
       position="168.16232,77.278452"
       id="guide3897" />
    <sodipodi:guide
       orientation="1,0"
       position="72.43774,172.95021"
       id="guide3899" />
    <sodipodi:guide
       orientation="1,0"
       position="253.23611,162.32521"
       id="guide3901" />
    <sodipodi:guide
       orientation="0,1"
       position="162.54966,303.75149"
       id="guide3968" />
    <sodipodi:guide
       orientation="0,1"
       position="162.65625,307.32521"
       id="guide3970" />
    <sodipodi:guide
       orientation="0,1"
       position="162.84375,300.63771"
       id="guide3972" />
    <sodipodi:guide
       orientation="1,0"
       position="158.57813,67.78125"
       id="guide4233" />
    <sodipodi:guide
       orientation="0,1"
       position="162.88112,167.63344"
       id="guide4237" />
    <sodipodi:guide
       orientation="0,1"
       position="110.40054,183.96318"
       id="guide24620" />
    <sodipodi:guide
       orientation="0,1"
       position="113.40574,155.32536"
       id="guide24622" />
    <sodipodi:guide
       orientation="1,0"
       position="32.526912,265.08211"
       id="guide27272" />
    <sodipodi:guide
       orientation="0,1"
       position="180.40062,282.84271"
       id="guide27315" />
    <sodipodi:guide
       orientation="0,1"
       position="72.07866,325.05309"
       id="guide27317" />
    <sodipodi:guide
       orientation="1,0"
       position="125.20313,67"
       id="guide22893" />
    <sodipodi:guide
       orientation="1,0"
       position="132.20313,67.4375"
       id="guide22895" />
    <sodipodi:guide
       orientation="1,0"
       position="196.79666,67.926445"
       id="guide22897" />
    <sodipodi:guide
       orientation="1,0"
       position="203.91192,67.705474"
       id="guide22899" />
    <sodipodi:guide
       orientation="0,1"
       position="82.40625,204.125"
       id="guide22901" />
    <sodipodi:guide
       orientation="0,1"
       position="82.9375,207.67188"
       id="guide22903" />
    <sodipodi:guide
       orientation="0,1"
       position="83.125,200.57813"
       id="guide22905" />
    <sodipodi:guide
       orientation="0,1"
       position="84.125,132.5"
       id="guide22907" />
    <sodipodi:guide
       orientation="0,1"
       position="83.953125,136.01563"
       id="guide22909" />
    <sodipodi:guide
       orientation="0,1"
       position="84.046875,128.95313"
       id="guide22911" />
    <sodipodi:guide
       orientation="1,0"
       position="56.991274,254.46875"
       id="guide22917" />
    <sodipodi:guide
       orientation="1,0"
       position="25.190679,262.425"
       id="guide23703" />
    <sodipodi:guide
       orientation="0,1"
       position="74.6875,41.6875"
       id="guide24075" />
    <sodipodi:guide
       orientation="0,1"
       position="75.1875,35"
       id="guide24077" />
    <sodipodi:guide
       orientation="0,1"
       position="256.5625,53.0625"
       id="guide24202" />
  </sodipodi:namedview>
  <defs
     id="defs4">
    <marker
       inkscape:stockid="Arrow1Lstart"
       style="overflow:visible"
       refY="0"
       refX="0"
       orient="auto"
       id="Arrow1Lstart">
      <path
         id="path3802"
         style="fill-rule:evenodd;stroke:#000000;stroke-width:1pt;marker-start:none"
         transform="matrix(0.8,0,0,0.8,10,0)"
         d="M 0,0 5,-5 -12.5,0 5,5 0,0 z"
         inkscape:connector-curvature="0" />
    </marker>
    <marker
       inkscape:stockid="Arrow1Lend"
       style="overflow:visible"
       refY="0"
       refX="0"
       orient="auto"
       id="Arrow1Lend">
      <path
         id="path3805"
         style="fill-rule:evenodd;stroke:#000000;stroke-width:1pt;marker-start:none"
         transform="matrix(-0.8,0,0,-0.8,-10,0)"
         d="M 0,0 5,-5 -12.5,0 5,5 0,0 z"
         inkscape:connector-curvature="0" />
    </marker>
  </defs>
  <metadata
     id="metadata7">
    <rdf:RDF>
      <cc:Work
         rdf:about="">
        <dc:format>image/svg+xml</dc:format>
        <dc:type
           rdf:resource="http://purl.org/dc/dcmitype/StillImage" />
      </cc:Work>
    </rdf:RDF>
  </metadata>
  <g
     id="layer1"
     inkscape:groupmode="layer"
     inkscape:label="Outline_CUT"
     style="display:inline;photonsaw-speed:6;photonsaw-power:80;photonsaw-assistair:true;photonsaw-passes:1"
     transform="translate(-124.09375,148.34375)">
    <path
       style="fill:none;stroke:#000000;stroke-width:0.35549814;stroke-miterlimit:4;stroke-opacity:1;stroke-dasharray:none"
       d="M 65.59375 271.5 L 65.59375 297.03125 L 72.21875 297.03125 L 72.21875 311.625 L 65.59375 311.625 L 65.59375 328.90625 L 72.25 328.90625 L 72.25 335.65625 L 65.59375 335.65625 L 65.59375 362.65625 L 65.59375 363.59375 L 72.25 363.59375 L 72.25 373.90625 L 65.59375 373.90625 L 65.59375 375.28125 L 65.59375 400.59375 L 72.25 400.59375 L 72.25 407.25 L 65.59375 407.25 L 65.59375 427.03125 L 72.21875 427.03125 L 72.21875 441.625 L 65.59375 441.625 L 65.59375 466.03125 L 91.09375 466.03125 L 91.09375 459.3125 L 105.75 459.3125 L 105.75 466.03125 L 125.34375 466.03125 L 125.34375 459.28125 L 132.0625 459.28125 L 132.0625 466.03125 L 156.9375 466.03125 L 157.6875 466.03125 L 158.71875 466.03125 L 158.71875 459.28125 L 169.09375 459.28125 L 169.09375 466.03125 L 170.46875 466.03125 L 196.96875 466.03125 L 196.96875 459.3125 L 203.75 459.3125 L 203.75 466.03125 L 219.125 466.03125 L 221 466.03125 L 221 459.3125 L 235.65625 459.3125 L 235.65625 466.03125 L 238 466.03125 L 260.125 466.03125 L 260.125 441.625 L 253.4375 441.625 L 253.4375 427.03125 L 260.125 427.03125 L 260.125 407.28125 L 253.40625 407.28125 L 253.40625 400.5625 L 260.125 400.5625 L 260.125 373.90625 L 253.40625 373.90625 L 253.40625 363.59375 L 260.125 363.59375 L 260.125 335.65625 L 253.40625 335.65625 L 253.40625 328.90625 L 260.125 328.90625 L 260.125 311.625 L 253.4375 311.625 L 253.4375 297.03125 L 260.125 297.03125 L 260.125 271.5 L 235.65625 271.5 L 235.65625 278.28125 L 221.09375 278.28125 L 221.09375 271.5 L 203.78125 271.5 L 203.78125 278.34375 L 196.90625 278.34375 L 196.90625 271.5 L 172.40625 271.5 L 169.03125 271.5 L 169.03125 278.25 L 158.78125 278.25 L 158.78125 271.5 L 157.6875 271.5 L 155.34375 271.5 L 132.03125 271.5 L 132.03125 278.28125 L 125.375 278.28125 L 125.375 271.5 L 105.75 271.5 L 105.75 278.28125 L 91.09375 278.28125 L 91.09375 271.5 L 65.59375 271.5 z "
       transform="translate(124.09375,-148.34375)"
       id="rect3923" />
    <path
       style="fill:none;stroke:#000000;stroke-width:0.35433071;stroke-miterlimit:4;stroke-opacity:1;stroke-dasharray:none;display:inline"
       d="M 7.59375 271.5 L 7.59375 278.1875 L 7.59375 278.875 L 7.59375 296.625 L 0.1875 296.625 L 0.1875 312 L 7.59375 312 L 7.59375 328.5625 L 0.1875 328.5625 L 0.1875 336 L 7.59375 336 L 7.59375 352.5625 L 31.6875 352.5625 L 31.6875 380.90625 L 7.59375 380.90625 L 7.59375 400.21875 L 0.15625 400.21875 L 0.15625 407.59375 L 7.59375 407.59375 L 7.59375 426.65625 L 0.1875 426.65625 L 0.1875 427.03125 L 0.1875 441.625 L 0.1875 442 L 7.59375 442 L 7.59375 458.65625 L 14.3125 458.65625 L 14.3125 466.03125 L 25.6875 466.03125 L 25.6875 459.3125 L 32.03125 459.3125 L 32.03125 466.03125 L 43 466.03125 L 43 458.65625 L 49.75 458.65625 L 49.75 442 L 56.8125 442 L 56.8125 426.65625 L 49.75 426.65625 L 49.75 407.59375 L 56.84375 407.59375 L 56.84375 400.21875 L 49.75 400.21875 L 49.75 374.25 L 56.8125 374.25 L 56.8125 373.90625 L 56.8125 363.59375 L 56.8125 363.25 L 49.75 363.25 L 49.75 336 L 56.8125 336 L 56.8125 328.5625 L 49.75 328.5625 L 49.75 312 L 56.8125 312 L 56.8125 296.625 L 49.75 296.625 L 49.75 278.875 L 49.75 278.1875 L 49.75 271.5 L 43 271.5 L 43 278.1875 L 32.71875 278.1875 L 32.71875 271.5 L 32.375 271.5 L 25.34375 271.5 L 24.96875 271.5 L 24.96875 278.1875 L 14.3125 278.1875 L 14.3125 271.5 L 7.59375 271.5 z "
       transform="translate(124.09375,-148.34375)"
       id="rect3929-2-5" />
    <path
       transform="matrix(0,1,-1,0,0,0)"
       style="fill:none;display:inline"
       d="m 148.4803,-448.7774 15.00858,0 0,8.73437 -15.00858,0 z"
       id="rect3838-1" />
    <path
       transform="matrix(0,1,-1,0,0,0)"
       style="fill:none;display:inline"
       d="m 148.4803,-448.7774 15.00858,0 0,10.73437 -15.00858,0 z"
       id="rect3841-5" />
    <path
       style="fill:none;stroke:#000000;stroke-width:0.35754859;stroke-miterlimit:4;stroke-opacity:1;stroke-dasharray:none;display:inline"
       d="M 283 271.5 L 283 278.1875 L 283 278.875 L 283 296.625 L 275.59375 296.625 L 275.59375 312 L 283 312 L 283 328.5625 L 275.59375 328.5625 L 275.59375 336 L 283 336 L 283 350.59375 L 283 352.5625 L 283 363.21875 L 275.59375 363.21875 L 275.59375 374.25 L 283 374.25 L 283 380.90625 L 283 383.46875 L 283 400.25 L 275.5625 400.25 L 275.5625 407.625 L 283 407.625 L 283 426.65625 L 275.59375 426.65625 L 275.59375 427.03125 L 275.59375 441.625 L 275.59375 442 L 283 442 L 283 458.65625 L 289.78125 458.65625 L 289.78125 466.03125 L 301.09375 466.03125 L 301.09375 459.3125 L 307.4375 459.3125 L 307.4375 466.03125 L 318.40625 466.03125 L 318.40625 458.65625 L 325.15625 458.65625 L 325.15625 442 L 332.21875 442 L 332.21875 426.65625 L 325.15625 426.65625 L 325.15625 407.625 L 332.21875 407.625 L 332.21875 400.25 L 325.15625 400.25 L 325.15625 374.25 L 332.25 374.25 L 332.25 363.21875 L 325.15625 363.21875 L 325.15625 336 L 332.21875 336 L 332.21875 328.5625 L 325.15625 328.5625 L 325.15625 312 L 332.21875 312 L 332.21875 296.625 L 325.15625 296.625 L 325.15625 278.875 L 325.15625 278.1875 L 325.15625 271.5 L 318.40625 271.5 L 318.40625 278.1875 L 308.125 278.1875 L 308.125 271.5 L 307.78125 271.5 L 300.75 271.5 L 300.375 271.5 L 300.375 278.1875 L 289.71875 278.1875 L 289.71875 271.5 L 283 271.5 z "
       transform="translate(124.09375,-148.34375)"
       id="rect3929-2-5-1" />
    <path
       style="fill:none;stroke:#000000;stroke-width:0.35754859;stroke-miterlimit:4;stroke-opacity:1;stroke-dasharray:none;display:inline"
       d="m 249.125,327.03125 0,7.4375 -19.03125,0 0,-7.40625 -0.375,0 -14.59375,0 -0.375,0 0,7.40625 -17.6875,0 0,6.75 -7.375,0 0,11.34375 6.65625,0 0,6.3125 -6.65625,0 0,11.03125 7.375,0 0,6.71875 17.6875,0 0,7.0625 15.34375,0 0,-7.0625 19.03125,0 0,7.0625 7.375,0 0,-7.0625 26,0 0,7.09375 11.03125,0 0,-7.09375 27.21875,0 0,7.0625 7.4375,0 0,-7.0625 16.5625,0 0,7.0625 15.375,0 0,-7.0625 16.71875,0 0.65625,0 6.71875,0 0,-6.75 -6.71875,0 0,-10.625 6.6875,0 0,-7.0625 -6.6875,0 0,-10.96875 6.6875,0 0,-6.75 -6.6875,0 -0.6875,0 -16.6875,0 0,-7.40625 -15.375,0 0,7.40625 -16.5625,0 0,-7.40625 -7.4375,0 0,7.40625 -14.59375,0 -1.96875,0 -10.65625,0 0,-7.40625 -11.03125,0 0,7.40625 -6.65625,0 -2.5625,0 -16.78125,0 0,-7.4375 -7.375,0 z"
       id="rect3929-2-5-1-4"
       inkscape:connector-curvature="0" />
    <path
       inkscape:connector-curvature="0"
       style="fill:none;stroke:#000000;stroke-width:0.35754859;stroke-miterlimit:4;stroke-opacity:1;stroke-dasharray:none;display:inline"
       d="m 249.16515,55.751104 0,7.4375 -19.03125,0 0,-7.40625 -0.375,0 -14.59375,0 -0.375,0 0,7.40625 -17.6875,0 0,6.74999 -7.375,0 0,11.34375 6.65625,0 0,6.3125 -6.65625,0 0,11.03125 7.375,0 0,6.718766 17.6875,0 0,7.0625 15.34375,0 0,-7.0625 19.03125,0 0,7.0625 7.375,0 0,-7.0625 26,0 0,7.09375 11.03125,0 0,-7.09375 27.21876,0 0,7.0625 7.4375,0 0,-7.0625 16.5625,0 0,7.0625 15.375,0 0,-7.0625 16.71875,0 0.65625,0 6.71875,0 0,-6.750016 -6.71875,0 0,-10.625 6.6875,0 0,-7.0625 -6.6875,0 0,-10.96875 6.6875,0 0,-6.74999 -6.6875,0 -0.6875,0 -16.6875,0 0,-7.40625 -15.375,0 0,7.40625 -16.5625,0 0,-7.40625 -7.4375,0 0,7.40625 -14.59376,0 -1.96875,0 -10.65625,0 0,-7.40625 -11.03125,0 0,7.40625 -6.65625,0 -2.5625,0 -16.78125,0 0,-7.4375 -7.375,0 z"
       id="rect3929-2-5-1-4-5" />
    <path
       inkscape:connector-curvature="0"
       style="fill:none;stroke:#000000;stroke-width:0.35549814;stroke-miterlimit:4;stroke-opacity:1;stroke-dasharray:none;display:inline"
       d="m 189.6875,-148.15336 0,25.53125 6.625,0 0,14.59375 -6.625,0 0,17.28125 6.65625,0 0,6.75 -6.65625,0 0,27 0,0.9375 6.65625,0 0,10.312501 -6.65625,0 0,1.375 0,25.3125 6.65625,0 0,6.65625 -6.65625,0 0,19.7812502 6.625,0 0,14.5937498 -6.625,0 0,24.40625 25.5,0 0,-6.71875 14.65625,0 0,6.71875 19.59375,0 0,-6.75 6.71875,0 0,6.75 24.875,0 0.75,0 1.03125,0 0,-6.75 10.375,0 0,6.75 1.375,0 26.5,0 0,-6.71875 6.78125,0 0,6.71875 15.375,0 1.875,0 0,-6.71875 14.65625,0 0,6.71875 2.34375,0 22.125,0 0,-24.40625 -6.6875,0 0,-14.5937498 6.6875,0 0,-19.7500002 -6.71875,0 0,-6.71875 6.71875,0 0,-26.65625 -6.71875,0 0,-10.312501 6.71875,0 0,-27.9375 -6.71875,0 0,-6.75 6.71875,0 0,-17.28125 -6.6875,0 0,-14.59375 6.6875,0 0,-25.53125 -24.46875,0 0,6.78125 -14.5625,0 0,-6.78125 -17.3125,0 0,6.84375 -6.875,0 0,-6.84375 -24.5,0 -3.375,0 0,6.75 -10.25,0 0,-6.75 -1.09375,0 -2.34375,0 -23.3125,0 0,6.78125 -6.65625,0 0,-6.78125 -19.625,0 0,6.78125 -14.65625,0 0,-6.78125 -25.5,0 z"
       id="rect3923-1" />
  </g>
  <g
     inkscape:groupmode="layer"
     id="layer2"
     inkscape:label="PCB_helper" />
  <g
     inkscape:groupmode="layer"
     id="layer3"
     inkscape:label="Hole_cut"
     style="display:inline;photonsaw-speed:6;photonsaw-power:80;photonsaw-assistair:true;photonsaw-passes:1"
     transform="translate(-124.09375,-3012.2862)">
    <rect
       style="fill:none;stroke:#000000;stroke-width:0.40124789;stroke-miterlimit:4;stroke-opacity:1;stroke-dasharray:none;display:inline"
       id="rect24541-4-0"
       width="25.669453"
       height="43.890091"
       x="348.37589"
       y="3151.9724" />
    <rect
       style="fill:none;stroke:#000000;stroke-width:0.35433072;stroke-miterlimit:4;stroke-opacity:1;stroke-dasharray:none;display:inline"
       id="rect24541-5-0"
       width="13.064031"
       height="39.85199"
       x="360.13776"
       y="3104.6062" />
    <rect
       style="fill:none;stroke:#000000;stroke-width:0.35433072;stroke-miterlimit:4;stroke-opacity:1;stroke-dasharray:none;display:inline"
       id="rect24541-1"
       width="13.112075"
       height="30.751839"
       x="360.11374"
       y="3068.27" />
    <path
       transform="matrix(0.5,0,0,0.5,84.294168,3159.0309)"
       sodipodi:type="arc"
       style="fill:none;stroke:#000000;stroke-width:0.35433072;stroke-miterlimit:4;stroke-opacity:1;stroke-dasharray:none;display:inline"
       id="path24514-6"
       sodipodi:cx="264.21875"
       sodipodi:cy="296.23718"
       sodipodi:rx="8.5"
       sodipodi:ry="8.5"
       d="m 272.71875,296.23718 c 0,4.69442 -3.80558,8.5 -8.5,8.5 -4.69442,0 -8.5,-3.80558 -8.5,-8.5 0,-4.69442 3.80558,-8.5 8.5,-8.5 4.69442,0 8.5,3.80558 8.5,8.5 z" />
    <path
       transform="matrix(0.49965886,-0.01846691,0.01846692,0.49965885,224.88517,3164.0413)"
       sodipodi:type="arc"
       style="fill:none;stroke:#000000;stroke-width:0.35433072;stroke-miterlimit:4;stroke-opacity:1;stroke-dasharray:none;display:inline"
       id="path24514-5"
       sodipodi:cx="264.21875"
       sodipodi:cy="296.23718"
       sodipodi:rx="8.5"
       sodipodi:ry="8.5"
       d="m 272.71875,296.23718 c 0,4.69442 -3.80558,8.5 -8.5,8.5 -4.69442,0 -8.5,-3.80558 -8.5,-8.5 0,-4.69442 3.80558,-8.5 8.5,-8.5 4.69442,0 8.5,3.80558 8.5,8.5 z" />
    <path
       sodipodi:type="arc"
       style="fill:none;stroke:#000000;stroke-width:0.35433072;stroke-miterlimit:4;stroke-opacity:1;stroke-dasharray:none;display:inline"
       id="path24514"
       sodipodi:cx="264.21875"
       sodipodi:cy="296.23718"
       sodipodi:rx="8.5"
       sodipodi:ry="8.5"
       d="m 272.71875,296.23718 c 0,4.69442 -3.80558,8.5 -8.5,8.5 -4.69442,0 -8.5,-3.80558 -8.5,-8.5 0,-4.69442 3.80558,-8.5 8.5,-8.5 4.69442,0 8.5,3.80558 8.5,8.5 z"
       transform="matrix(0.5,0,0,0.5,132.10937,3306.7485)" />
  </g>
</svg>
